<svg xmlns="http://www.w3.org/2000/svg" viewBox="0 0 297 267" style="enable-background:new 0 0 297 267" xml:space="preserve"><path d="M6.7 13.8c-1.3 0-2.4-.3-3.4-.8S1.5 11.7.9 10.7c-.6-.9-.9-2-.9-3.2s.3-2.3.9-3.2c.6-1 1.4-1.7 2.4-2.3 1-.5 2.2-.8 3.5-.8 1.1 0 2 .2 2.9.6.9.4 1.6.9 2.2 1.6L10 5c-.8-1-1.9-1.4-3.1-1.4-.8 0-1.5.2-2.1.5-.6.3-1.1.8-1.4 1.4-.3.6-.5 1.3-.5 2s.2 1.4.5 2c.3.6.8 1.1 1.4 1.4.6.3 1.3.5 2.1.5 1.2 0 2.3-.5 3.1-1.4l1.8 1.7c-.6.7-1.3 1.3-2.2 1.6-.8.3-1.8.5-2.9.5zM23.3 4.2v9.4h-2.8V6.5h-4v7.2h-2.7V4.2h9.5zM30.6 13.8c-1 0-1.9-.2-2.7-.6-.8-.4-1.4-1-1.9-1.7-.4-.7-.7-1.6-.7-2.5s.2-1.8.7-2.5c.4-.7 1.1-1.3 1.9-1.7.8-.4 1.7-.6 2.7-.6 1 0 1.9.2 2.7.6.8.4 1.4 1 1.9 1.7s.7 1.6.7 2.5-.2 1.8-.7 2.5c-.4.7-1.1 1.3-1.9 1.7-.8.4-1.7.6-2.7.6zm0-2.3c.7 0 1.3-.2 1.7-.7.5-.5.7-1.1.7-1.9s-.2-1.4-.6-1.9c-.4-.5-1-.7-1.7-.7s-1.3.2-1.8.7c-.5.5-.7 1.1-.7 1.9s.2 1.4.7 1.9c.4.5 1 .7 1.7.7zM42.6 13.8c-1 0-1.9-.2-2.7-.6-.8-.4-1.4-1-1.9-1.7-.4-.7-.7-1.6-.7-2.5s.2-1.8.7-2.5c.5-.7 1.1-1.3 1.9-1.7.8-.4 1.7-.6 2.7-.6 1 0 1.9.2 2.6.6.8.4 1.3 1 1.6 1.8l-2.1 1.1c-.5-.9-1.2-1.3-2.1-1.3-.7 0-1.3.2-1.8.7-.5.5-.7 1.1-.7 1.9 0 .8.2 1.4.7 1.9.5.5 1.1.7 1.8.7.9 0 1.7-.4 2.1-1.3l2.1 1.2c-.3.7-.9 1.3-1.6 1.7-.7.3-1.6.6-2.6.6zM53.1 13.8c-1 0-1.9-.2-2.7-.6-.8-.4-1.4-1-1.9-1.7-.4-.7-.7-1.6-.7-2.5s.2-1.8.7-2.5 1.1-1.3 1.9-1.7c.8-.4 1.7-.6 2.7-.6s1.9.2 2.7.6c.8.4 1.4 1 1.9 1.7s.7 1.6.7 2.5-.2 1.8-.7 2.5c-.4.7-1.1 1.3-1.9 1.7-.8.4-1.7.6-2.7.6zm0-2.3c.7 0 1.3-.2 1.7-.7.5-.5.7-1.1.7-1.9s-.2-1.4-.6-1.9c-.4-.5-1-.7-1.7-.7s-1.3.2-1.8.7c-.5.5-.7 1.1-.7 1.9s.2 1.4.7 1.9c.4.5 1 .7 1.7.7zM66.1 4.9c.9 0 1.7.2 2.4.6.6.3 1.2.8 1.5 1.5.4.7.6 1.4.6 2.3 0 .9-.2 1.7-.7 2.4-.4.7-1.1 1.2-1.8 1.6-.8.4-1.7.6-2.7.6-1.7 0-3-.5-3.9-1.6-1-1.1-1.5-2.7-1.5-4.7 0-1.9.4-3.4 1.2-4.5C62 2 63.3 1.2 65 .9l4.6-.9.4 2.3-4 .8c-1.1.2-1.9.6-2.4 1-.5.5-.8 1.2-.9 2.1.4-.4.9-.8 1.5-1 .5-.2 1.2-.3 1.9-.3zm-.7 6.8c.7 0 1.3-.2 1.7-.7.4-.5.7-1 .7-1.7s-.2-1.3-.7-1.7c-.4-.4-1-.6-1.7-.6s-1.3.2-1.7.6c-.5.4-.7 1-.7 1.7s.2 1.3.7 1.7c.4.5 1 .7 1.7.7zM87.5 4.2v9.4h-2.8V6.5h-4v7.2H78V4.2h9.5zM96 4.1c.9 0 1.7.2 2.4.6.7.4 1.3 1 1.7 1.7.4.7.6 1.6.6 2.5s-.2 1.8-.6 2.5c-.4.7-1 1.3-1.7 1.7-.7.4-1.5.6-2.4.6-1.2 0-2.2-.4-2.9-1.1V17h-2.8V4.2H93v1.1c.7-.8 1.7-1.2 3-1.2zm-.4 7.4c.7 0 1.3-.2 1.7-.7.5-.5.7-1.1.7-1.9s-.2-1.4-.7-1.9c-.4-.5-1-.7-1.7-.7s-1.3.2-1.8.7c-.4.5-.7 1.1-.7 1.9s.2 1.4.7 1.9c.5.5 1.1.7 1.8.7zM103 4.2h2.7v5.6l4.6-5.6h2.5v9.4h-2.7V8l-4.6 5.6H103V4.2zM125.2 13.6V8l-2.9 4.7h-1.2L118.3 8v5.6h-2.5V4.2h2.9l3.1 5.4 3.2-5.4h2.6v9.4h-2.4zM139.8 9s0 .3-.1.7h-7.2c.1.6.4 1 .9 1.4.5.3 1.1.5 1.8.5.5 0 .9-.1 1.3-.2.4-.2.8-.4 1.1-.7l1.5 1.6c-.9 1-2.2 1.5-3.9 1.5-1.1 0-2-.2-2.9-.6-.8-.4-1.5-1-1.9-1.7-.4-.7-.7-1.6-.7-2.5 0-.9.2-1.7.7-2.5.4-.7 1.1-1.3 1.8-1.7.8-.4 1.6-.6 2.6-.6.9 0 1.8.2 2.5.6.8.4 1.3 1 1.8 1.7.5.6.7 1.5.7 2.5zm-4.9-2.9c-.6 0-1.2.2-1.6.5-.4.3-.7.8-.8 1.4h4.7c-.1-.6-.4-1.1-.8-1.4-.4-.3-.9-.5-1.5-.5zM142.2 4.2h2.7v3.7h4.1V4.2h2.8v9.4H149v-3.5h-4v3.5h-2.7V4.2zM164.1 9s0 .3-.1.7h-7.2c.1.6.4 1 .9 1.4.5.3 1.1.5 1.8.5.5 0 .9-.1 1.3-.2.4-.2.8-.4 1.1-.7l1.5 1.6c-.9 1-2.2 1.5-3.9 1.5-1.1 0-2-.2-2.9-.6-.8-.4-1.5-1-1.9-1.7-.4-.7-.7-1.6-.7-2.5 0-.9.2-1.7.7-2.5.4-.7 1.1-1.3 1.8-1.7.8-.4 1.6-.6 2.6-.6.9 0 1.8.2 2.5.6s1.3 1 1.8 1.7c.5.6.7 1.5.7 2.5zm-5-2.9c-.6 0-1.2.2-1.6.5-.4.3-.7.8-.8 1.4h4.7c-.1-.6-.4-1.1-.8-1.4-.3-.3-.9-.5-1.5-.5zM166.5 4.2h2.7v3.7h4.1V4.2h2.8v9.4h-2.8v-3.5h-4.1v3.5h-2.7V4.2zM179 4.2h2.7v5.6l4.6-5.6h2.5v9.4h-2.7V8l-4.6 5.6H179V4.2zM200.4 4.2v9.4h-2.5v-2.7h-2l-1.8 2.7h-2.9l2.2-3.1c-.7-.3-1.2-.6-1.5-1.1-.3-.5-.5-1.1-.5-1.8 0-1.1.4-2 1.2-2.5.8-.6 1.9-.9 3.4-.9h4.4zm-4.5 2.2c-.6 0-1 .1-1.3.3-.3.2-.4.5-.4 1s.1.8.4 1c.3.2.7.3 1.3.3h2.1V6.4h-2.1zM204.3 7.5c-.5 0-.9-.2-1.2-.5-.3-.3-.5-.7-.5-1.2s.2-.9.5-1.2c.3-.3.7-.5 1.2-.5s.9.2 1.2.5c.3.3.5.7.5 1.2s-.2.9-.5 1.2c-.3.3-.7.5-1.2.5zm0 6.3c-.5 0-.9-.2-1.2-.5-.3-.3-.5-.7-.5-1.2s.2-.9.5-1.2c.3-.3.7-.5 1.2-.5s.9.2 1.2.5c.3.3.5.7.5 1.2s-.2.9-.5 1.2c-.3.3-.7.5-1.2.5zM9.1 40.1c.7.2 1.2.5 1.6.9.4.4.6 1 .6 1.7 0 .9-.3 1.6-1 2.1s-1.6.8-2.9.8H2.5V35H7c1.2 0 2 .2 2.7.7.7.5 1 1.1 1 2 0 .6-.1 1.1-.4 1.5-.3.4-.7.7-1.2.9zM4 39.6h2.9c.7 0 1.3-.1 1.7-.4.4-.3.6-.7.6-1.3 0-.6-.2-1-.6-1.3-.4-.3-.9-.5-1.7-.5H4v3.5zm3.3 4.7c1.6 0 2.4-.6 2.4-1.8 0-.6-.2-1-.6-1.3-.4-.3-1-.4-1.8-.4H4v3.6h3.3zM17.8 41.4c.5.1.9.4 1.2.7.3.3.4.7.4 1.2s-.2.9-.5 1.3-.8.6-1.3.9c-.6.2-1.2.3-1.9.3-.6 0-1.2-.1-1.7-.2-.6-.2-1.1-.4-1.5-.7l.4-1.1c.4.2.8.4 1.3.6.5.1 1 .2 1.5.2.7 0 1.2-.1 1.6-.3.4-.2.6-.6.6-1s-.2-.7-.5-.9c-.3-.2-.8-.3-1.4-.3h-1.5v-1H16c.5 0 1-.1 1.3-.3.3-.2.5-.5.5-.8 0-.4-.2-.6-.6-.8-.4-.2-.9-.3-1.5-.3-.8 0-1.6.2-2.5.6l-.4-1.1c1-.5 2-.7 3.1-.7.6 0 1.2.1 1.7.3.5.2.9.4 1.2.8.3.3.4.7.4 1.1 0 .4-.1.7-.4 1.1-.2 0-.5.2-1 .4zM25.9 37.5c.8 0 1.5.2 2.1.5s1.1.8 1.4 1.4c.4.6.5 1.3.5 2.1s-.2 1.5-.5 2.1c-.3.6-.8 1.1-1.4 1.4-.6.3-1.3.5-2.1.5-.6 0-1.1-.1-1.6-.3-.5-.2-.9-.5-1.2-1v4.1h-1.4V37.6h1.4v1.3c.3-.4.7-.8 1.2-1 .5-.3 1-.4 1.6-.4zm-.1 6.9c.5 0 1-.1 1.4-.3.4-.2.7-.6 1-1 .2-.4.4-.9.4-1.5s-.1-1-.4-1.5c-.2-.4-.6-.8-1-1-.4-.2-.9-.3-1.4-.3-.5 0-1 .1-1.4.4-.4.2-.7.6-1 1-.2.4-.3.9-.3 1.5s.1 1 .3 1.5c.2.4.6.8 1 1 .4 0 .9.2 1.4.2zM35.4 45.6c-.8 0-1.5-.2-2.1-.5-.6-.4-1.1-.8-1.5-1.4-.4-.6-.5-1.3-.5-2.1s.2-1.5.5-2.1c.4-.6.9-1.1 1.5-1.4.6-.4 1.3-.5 2.1-.5s1.5.2 2.1.5c.6.3 1.1.8 1.5 1.4.4.6.5 1.3.5 2.1s-.2 1.5-.5 2.1c-.4.6-.8 1.1-1.5 1.4-.6.3-1.3.5-2.1.5zm0-1.2c.5 0 1-.1 1.4-.3.4-.2.7-.6 1-1 .2-.4.3-.9.3-1.5s-.1-1-.3-1.5c-.2-.4-.6-.8-1-1-.4-.2-.9-.3-1.4-.3-.5 0-1 .1-1.4.3-.4.2-.7.6-1 1-.2.4-.3.9-.3 1.5s.1 1 .3 1.5c.2.4.6.8 1 1 .5.1.9.3 1.4.3zM45.1 45.6c-.8 0-1.5-.2-2.2-.5-.6-.4-1.1-.8-1.5-1.4-.4-.6-.5-1.3-.5-2.1s.2-1.5.5-2.1c.4-.6.9-1.1 1.5-1.4.6-.4 1.4-.5 2.2-.5.7 0 1.4.1 1.9.4.6.3 1 .7 1.3 1.3l-1.1.7c-.3-.4-.6-.7-.9-.9-.4-.2-.8-.3-1.2-.3-.5 0-1 .1-1.4.3-.4.2-.7.6-1 1-.2.4-.3.9-.3 1.5s.1 1.1.3 1.5c.2.4.6.7 1 1 .4.2.9.3 1.4.3.5 0 .9-.1 1.2-.3.4-.2.7-.5.9-.9l1.1.7c-.3.6-.8 1-1.3 1.3-.5.3-1.1.4-1.9.4zM56.8 37.6v8h-1.4v-6.7H52l-.1 1.8c-.1 1.1-.1 2-.3 2.7-.1.7-.4 1.3-.7 1.7-.3.4-.8.6-1.3.6-.3 0-.6 0-.9-.1l.1-1.2h.4c.4 0 .7-.2.9-.5.2-.4.3-.8.4-1.2.1-.5.1-1.2.2-2.1l.1-2.9h6zM63.2 40.3c1 0 1.8.2 2.3.7.5.5.8 1.1.8 1.9 0 .9-.3 1.5-.9 2-.6.5-1.4.7-2.5.7h-3.4v-8h1.4v2.7h2.3zm4.3-2.7H69v8h-1.4v-8zm-4.6 6.8c.7 0 1.1-.1 1.5-.4.3-.3.5-.7.5-1.2s-.2-.9-.5-1.1c-.3-.2-.8-.4-1.5-.4h-1.8v3.1h1.8zM80.9 37.6v8h-1.3v-5.8l-3 4.9H76l-2.9-4.9v5.8h-1.3v-8h1.5l3.1 5.4 3.2-5.4h1.3zM95.2 37.6v8h-1.4v-6.7h-4.5v6.7h-1.4v-8h7.3zM102.2 37.5c.8 0 1.5.2 2.1.5s1.1.8 1.4 1.4c.4.6.5 1.3.5 2.1s-.2 1.5-.5 2.1c-.3.6-.8 1.1-1.4 1.4-.6.3-1.3.5-2.1.5-.6 0-1.1-.1-1.6-.3-.5-.2-.9-.5-1.2-1v4.1H98V37.6h1.4v1.3c.3-.4.7-.8 1.2-1 .5-.3 1-.4 1.6-.4zm-.1 6.9c.5 0 1-.1 1.4-.3.4-.2.7-.6 1-1 .2-.4.4-.9.4-1.5s-.1-1-.4-1.5c-.2-.4-.6-.8-1-1-.4-.2-.9-.3-1.4-.3-.5 0-1 .1-1.4.4-.4.2-.7.6-1 1-.2.4-.3.9-.3 1.5s.1 1 .3 1.5c.2.4.6.8 1 1 .4 0 .9.2 1.4.2zM108.3 37.6h1.4v5.8l4.9-5.8h1.3v8h-1.4v-5.8l-4.9 5.8h-1.3v-8zM118.7 37.6h1.4V41h4.5v-3.4h1.4v8h-1.4v-3.3h-4.5v3.3h-1.4v-8zM129 37.6h1.4v5.8l4.9-5.8h1.3v8h-1.4v-5.8l-4.9 5.8H129v-8zM148.6 37.6v8h-1.3v-5.8l-3 4.9h-.6l-2.9-4.9v5.8h-1.3v-8h1.5l3.1 5.4 3.2-5.4h1.3zM154.2 37.5c1.1 0 1.9.3 2.5.8.6.5.9 1.3.9 2.4v4.8h-1.4v-1.1c-.2.4-.6.7-1 .9-.4.2-1 .3-1.6.3-.9 0-1.6-.2-2.1-.6-.5-.4-.8-1-.8-1.7s.3-1.3.8-1.7c.5-.4 1.3-.6 2.4-.6h2.3v-.3c0-.6-.2-1.1-.5-1.4-.4-.3-.9-.5-1.6-.5-.5 0-.9.1-1.4.2-.5.2-.8.4-1.1.6l-.6-1.1c.4-.3.9-.6 1.5-.8.5-.1 1.1-.2 1.7-.2zm-.3 7c.6 0 1-.1 1.4-.4.4-.3.7-.6.9-1.1v-1H154c-1.2 0-1.8.4-1.8 1.2 0 .4.2.7.5.9.2.3.7.4 1.2.4zM166.2 38.8h-2.9v6.7h-1.4v-6.7H159v-1.3h7.3v1.3zM171.3 40.3c1 0 1.8.2 2.3.7.5.5.8 1.1.8 1.9 0 .9-.3 1.5-.9 2-.6.5-1.4.7-2.5.7h-3.5v-8h1.4v2.7h2.4zm-.3 4.1c.7 0 1.1-.1 1.5-.4.3-.3.5-.7.5-1.2s-.2-.9-.5-1.1c-.3-.2-.8-.4-1.5-.4h-1.9v3.1h1.9zM9.7 55.7v8H8.2V57H3.7v6.7H2.3v-8h7.4zM15.9 63.7c-.8 0-1.5-.2-2.1-.5-.6-.4-1.1-.8-1.5-1.4-.4-.6-.5-1.3-.5-2.1s.2-1.5.5-2.1c.4-.6.9-1.1 1.5-1.4.6-.4 1.3-.5 2.1-.5s1.5.2 2.1.5c.6.3 1.1.8 1.5 1.4.4.6.5 1.3.5 2.1s-.2 1.5-.5 2.1c-.4.6-.8 1.1-1.5 1.4-.6.4-1.3.5-2.1.5zm0-1.2c.5 0 1-.1 1.4-.3.4-.2.7-.6 1-1 .2-.4.3-.9.3-1.5s-.1-1-.3-1.5c-.2-.4-.6-.8-1-1-.4-.2-.9-.3-1.4-.3s-1 .1-1.4.3c-.4.2-.7.6-1 1-.2.4-.3.9-.3 1.5s.1 1 .3 1.5c.2.4.6.8 1 1 .4.2.9.3 1.4.3zM29.5 63.7c-.8 0-1.5-.2-2.1-.5-.6-.4-1.1-.8-1.5-1.4-.4-.6-.5-1.3-.5-2.1s.2-1.5.5-2.1c.4-.6.9-1.1 1.5-1.4.6-.4 1.3-.5 2.1-.5s1.5.2 2.1.5c.6.3 1.1.8 1.5 1.4.4.6.5 1.3.5 2.1s-.2 1.5-.5 2.1c-.4.6-.8 1.1-1.5 1.4-.6.4-1.3.5-2.1.5zm0-1.2c.5 0 1-.1 1.4-.3.4-.2.7-.6 1-1 .2-.4.3-.9.3-1.5s-.1-1-.3-1.5c-.2-.4-.6-.8-1-1-.4-.2-.9-.3-1.4-.3s-1 .1-1.4.3c-.4.2-.7.6-1 1-.2.4-.3.9-.3 1.5s.1 1 .3 1.5c.2.4.6.8 1 1 .5.2.9.3 1.4.3zM43.8 62.4v3.1h-1.4v-1.9h-6.7v1.9h-1.4v-3.1h.4c.5 0 .9-.4 1.1-1.1.2-.7.3-1.7.4-2.9l.1-2.7h6.2v6.7h1.3zm-6.2-3.9c0 1-.1 1.8-.3 2.5-.1.7-.3 1.1-.7 1.4h4.5V57h-3.5v1.5zM45.7 55.7h1.4v3.4h4.5v-3.4H53v8h-1.4v-3.3h-4.5v3.3h-1.4v-8zM59.3 63.7c-.8 0-1.5-.2-2.1-.5-.6-.4-1.1-.8-1.5-1.4-.4-.6-.5-1.3-.5-2.1s.2-1.5.5-2.1c.4-.6.9-1.1 1.5-1.4.6-.4 1.3-.5 2.1-.5s1.5.2 2.1.5c.6.3 1.1.8 1.5 1.4.4.6.5 1.3.5 2.1s-.2 1.5-.5 2.1c-.4.6-.8 1.1-1.5 1.4-.6.4-1.3.5-2.1.5zm0-1.2c.5 0 1-.1 1.4-.3.4-.2.7-.6 1-1 .2-.4.3-.9.3-1.5s-.1-1-.3-1.5c-.2-.4-.6-.8-1-1-.4-.2-.9-.3-1.4-.3s-1 .1-1.4.3c-.4.2-.7.6-1 1-.2.4-.3.9-.3 1.5s.1 1 .3 1.5c.2.4.6.8 1 1 .4.2.9.3 1.4.3zM65.5 55.7H67v5.8l4.9-5.8h1.3v8h-1.4v-5.8l-4.9 5.8h-1.3v-8zm3.8-1.1c-.7 0-1.3-.2-1.7-.5-.4-.4-.6-.9-.6-1.5h1c0 .4.1.7.4.9.3.2.6.3 1 .3s.7-.1 1-.3c.3-.2.4-.5.4-.9h1c0 .7-.2 1.2-.6 1.5-.6.4-1.2.5-1.9.5zM85.9 56.9H83v6.7h-1.4v-6.7h-2.9v-1.3H86v1.3zM90.2 55.6c1.1 0 1.9.3 2.5.8.6.5.9 1.3.9 2.4v4.8h-1.4v-1.1c-.2.4-.6.7-1 .9-.4.2-1 .3-1.6.3-.9 0-1.6-.2-2.1-.6-.5-.4-.8-1-.8-1.7s.3-1.3.8-1.7c.5-.4 1.3-.6 2.4-.6h2.3v-.3c0-.6-.2-1.1-.5-1.4-.4-.3-.9-.5-1.6-.5-.5 0-.9.1-1.4.2-.5.2-.8.4-1.1.6l-.6-1.1c.4-.3.9-.6 1.5-.8.5-.1 1.1-.2 1.7-.2zm-.3 7c.6 0 1-.1 1.4-.4.4-.3.7-.6.9-1.1V60H90c-1.2 0-1.8.4-1.8 1.2 0 .4.2.7.5.9.2.4.7.5 1.2.5zM100.3 55.9c.7 0 1.4.2 2 .5.6.3 1 .8 1.4 1.4.3.6.5 1.2.5 2s-.2 1.5-.5 2.1c-.3.6-.8 1.1-1.5 1.4-.6.3-1.3.5-2.1.5-1.4 0-2.4-.5-3.1-1.4-.7-.9-1.1-2.2-1.1-3.9 0-1.6.3-2.9 1-3.8.7-.9 1.7-1.5 3.1-1.9l3.6-.8.2 1.3-3.4.7c-1 .2-1.8.6-2.3 1.2-.5.6-.8 1.3-.9 2.4.3-.5.8-.9 1.3-1.2.5-.3 1.1-.5 1.8-.5zm-.2 6.7c.5 0 1-.1 1.4-.3.4-.2.7-.5.9-.9.2-.4.3-.9.3-1.4 0-.8-.2-1.4-.7-1.9-.5-.5-1.1-.7-1.9-.7-.8 0-1.4.2-1.9.7-.5.5-.7 1.1-.7 1.9 0 .5.1 1 .3 1.4.2.4.5.7.9.9.4.1.9.3 1.4.3zM113 55.7v8h-1.4V57h-3.4l-.1 1.8c0 1.1-.1 2-.3 2.7-.1.7-.4 1.3-.7 1.7-.3.4-.8.6-1.3.6-.3 0-.6 0-.9-.1l.1-1.2h.4c.4 0 .7-.2.9-.5.2-.4.3-.8.4-1.2.1-.5.1-1.2.2-2.1l.1-2.9h6zM123 59.7v.4h-6.5c.1.7.4 1.3.9 1.7.5.4 1.2.6 2 .6 1 0 1.7-.3 2.3-1l.8.9c-.4.4-.8.7-1.4 1-.5.2-1.1.3-1.8.3-.8 0-1.6-.2-2.2-.5-.7-.4-1.2-.8-1.5-1.5-.4-.6-.5-1.3-.5-2.1s.2-1.5.5-2.1c.3-.6.8-1.1 1.4-1.4.6-.4 1.3-.5 2.1-.5s1.4.2 2 .5c.6.3 1.1.8 1.4 1.4.3.8.5 1.5.5 2.3zm-4-2.9c-.7 0-1.3.2-1.7.6-.5.4-.7 1-.8 1.7h5.1c-.1-.7-.4-1.2-.8-1.6-.5-.5-1.1-.7-1.8-.7zM130.8 56.9h-2.9v6.7h-1.4v-6.7h-2.9v-1.3h7.3v1.3zM135.4 60.3h-1.7v3.4h-1.4v-8h1.4V59h1.7l2.6-3.4h1.5l-3 3.8 3.2 4.1H138l-2.6-3.2zM148.2 59.7v.4h-6.5c.1.7.4 1.3.9 1.7.5.4 1.2.6 2 .6 1 0 1.7-.3 2.3-1l.8.9c-.4.4-.8.7-1.4 1-.5.2-1.1.3-1.8.3-.8 0-1.6-.2-2.2-.5-.7-.4-1.2-.8-1.5-1.5-.4-.6-.5-1.3-.5-2.1s.2-1.5.5-2.1c.4-.6.8-1.1 1.4-1.4.6-.4 1.3-.5 2.1-.5s1.4.2 2 .5c.6.3 1.1.8 1.4 1.4.3.8.5 1.5.5 2.3zm-3.9-2.9c-.7 0-1.3.2-1.7.6-.5.4-.7 1-.8 1.7h5.1c-.1-.7-.4-1.2-.8-1.6-.6-.5-1.1-.7-1.8-.7zM157.1 53.1v10.5h-1.5v-9.2h-2.4v-1.3h3.9zM168.3 55.6c.8 0 1.5.2 2.1.5.6.3 1.1.8 1.4 1.4.4.6.5 1.3.5 2.1s-.2 1.5-.5 2.1c-.3.6-.8 1.1-1.4 1.4-.6.3-1.3.5-2.1.5-.6 0-1.1-.1-1.6-.3-.5-.2-.9-.5-1.2-1v4.1h-1.4V55.7h1.4V57c.3-.4.7-.8 1.2-1 .5-.3 1-.4 1.6-.4zm-.1 6.9c.5 0 1-.1 1.4-.3.4-.2.7-.6 1-1 .2-.4.4-.9.4-1.5s-.1-1-.4-1.5c-.2-.4-.6-.8-1-1-.4-.2-.9-.3-1.4-.3-.5 0-1 .1-1.4.4-.4.2-.7.6-1 1-.2.4-.3.9-.3 1.5s.1 1 .3 1.5c.2.4.6.8 1 1 .4.1.9.2 1.4.2zM177.2 55.6c1.1 0 1.9.3 2.5.8.6.5.9 1.3.9 2.4v4.8h-1.4v-1.1c-.2.4-.6.7-1 .9-.4.2-1 .3-1.6.3-.9 0-1.6-.2-2.1-.6-.5-.4-.8-1-.8-1.7s.3-1.3.8-1.7c.5-.4 1.3-.6 2.4-.6h2.3v-.3c0-.6-.2-1.1-.5-1.4-.4-.3-.9-.5-1.6-.5-.5 0-.9.1-1.4.2-.5.2-.8.4-1.1.6l-.6-1.1c.4-.3.9-.6 1.5-.8.5-.1 1.1-.2 1.7-.2zm-.3 7c.6 0 1-.1 1.4-.4.4-.3.7-.6.9-1.1V60H177c-1.2 0-1.8.4-1.8 1.2 0 .4.2.7.5.9.2.4.6.5 1.2.5zM187.4 59.5c.5.1.9.4 1.2.7.3.3.4.7.4 1.2s-.2.9-.5 1.3-.8.6-1.3.9c-.6.2-1.2.3-1.9.3-.6 0-1.2-.1-1.7-.2-.6-.2-1.1-.4-1.5-.7l.4-1.1c.4.2.8.4 1.3.6.5.1 1 .2 1.5.2.7 0 1.2-.1 1.6-.3.4-.2.6-.6.6-1s-.2-.7-.5-.9c-.3-.2-.8-.3-1.4-.3h-1.5v-1h1.4c.5 0 1-.1 1.3-.3.3-.2.5-.5.5-.8 0-.4-.2-.6-.6-.8-.4-.2-.9-.3-1.5-.3-.8 0-1.6.2-2.5.6l-.4-1.1c1-.5 2-.7 3.1-.7.6 0 1.2.1 1.7.3.5.2.9.4 1.2.8.3.3.4.7.4 1.1 0 .4-.1.7-.4 1.1-.1 0-.5.2-.9.4zM200.7 59.5c1 .3 1.5.9 1.5 1.9 0 .7-.3 1.2-.8 1.6-.5.4-1.3.6-2.3.6h-3.8v-8h3.7c.9 0 1.7.2 2.2.5.5.4.8.9.8 1.5 0 .4-.1.8-.3 1.1-.3.4-.6.6-1 .8zm-4-.4h2.2c.6 0 1-.1 1.2-.3.3-.2.4-.5.4-.9 0-.8-.6-1.1-1.7-1.1h-2.2v2.3zm2.3 3.4c.6 0 1.1-.1 1.4-.3.3-.2.5-.5.5-.9s-.1-.7-.4-.9c-.3-.2-.7-.3-1.3-.3h-2.4v2.4h2.2zM216.7 62.4v3.1h-1.4v-1.9h-6.7v1.9h-1.4v-3.1h.4c.5 0 .9-.4 1.1-1.1.2-.7.3-1.7.4-2.9l.1-2.7h6.2v6.7h1.3zm-6.2-3.9c0 1-.1 1.8-.3 2.5-.1.7-.3 1.1-.7 1.4h4.5V57h-3.5v1.5zM225.7 59.7v.4h-6.5c.1.7.4 1.3.9 1.7.5.4 1.2.6 2 .6 1 0 1.7-.3 2.3-1l.8.9c-.4.4-.8.7-1.4 1-.5.2-1.1.3-1.8.3-.8 0-1.6-.2-2.2-.5-.7-.4-1.2-.8-1.5-1.5-.4-.6-.5-1.3-.5-2.1s.2-1.5.5-2.1c.4-.6.8-1.1 1.4-1.4.6-.4 1.3-.5 2.1-.5s1.4.2 2 .5c.6.3 1.1.8 1.4 1.4.4.8.5 1.5.5 2.3zm-3.9-2.9c-.7 0-1.3.2-1.7.6-.5.4-.7 1-.8 1.7h5.1c-.1-.7-.4-1.2-.8-1.6-.5-.5-1.1-.7-1.8-.7zM228 55.7h1.4v3.4h4.5v-3.4h1.4v8H234v-3.3h-4.5v3.3H228v-8zM241.9 58.4c1 0 1.8.2 2.3.7.5.5.8 1.1.8 1.9 0 .9-.3 1.5-.9 2-.6.5-1.4.7-2.5.7h-3.5v-8h1.4v2.7h2.4zm-.4 4.2c.7 0 1.1-.1 1.5-.4.3-.3.5-.7.5-1.2s-.2-.9-.5-1.1c-.3-.2-.8-.4-1.5-.4h-1.9v3.1h1.9zM7.7 77.6c1 .3 1.5.9 1.5 1.9 0 .7-.3 1.2-.8 1.6-.5.4-1.3.6-2.3.6H2.3v-8H6c.9 0 1.7.2 2.2.5.5.5.8 1 .8 1.6 0 .4-.1.8-.3 1.1-.3.3-.6.6-1 .7zm-4-.4h2.2c.6 0 1-.1 1.2-.3.3-.2.4-.5.4-.9 0-.8-.6-1.1-1.7-1.1H3.7v2.3zM6 80.6c.6 0 1.1-.1 1.4-.3.3-.2.5-.5.5-.9s-.1-.7-.4-.9c-.3-.2-.7-.3-1.3-.3H3.7v2.4H6zM14.9 81.8c-.8 0-1.5-.2-2.1-.5-.6-.4-1.1-.8-1.5-1.4-.4-.6-.5-1.3-.5-2.1s.2-1.5.5-2.1c.4-.6.9-1.1 1.5-1.4.6-.4 1.3-.5 2.1-.5s1.5.2 2.1.5c.6.3 1.1.8 1.5 1.4.4.6.5 1.3.5 2.1s-.2 1.5-.5 2.1c-.4.6-.8 1.1-1.5 1.4-.6.4-1.3.5-2.1.5zm0-1.2c.5 0 1-.1 1.4-.3.4-.2.7-.6 1-1 .2-.4.3-.9.3-1.5s-.1-1-.3-1.5c-.2-.4-.6-.8-1-1-.4-.2-.9-.3-1.4-.3s-1 .1-1.4.3c-.4.2-.7.6-1 1-.2.4-.3.9-.3 1.5s.1 1 .3 1.5c.2.4.6.8 1 1 .4.2.9.3 1.4.3zM30.6 77.6c1 .3 1.5.9 1.5 1.9 0 .7-.3 1.2-.8 1.6-.5.4-1.3.6-2.3.6h-3.8v-8h3.7c.9 0 1.7.2 2.2.5.5.4.8.9.8 1.5 0 .4-.1.8-.3 1.1-.3.4-.6.7-1 .8zm-4-.4h2.2c.6 0 1-.1 1.2-.3.3-.2.4-.5.4-.9 0-.8-.6-1.1-1.7-1.1h-2.2v2.3zm2.3 3.4c.6 0 1.1-.1 1.4-.3.3-.2.5-.5.5-.9s-.1-.7-.4-.9c-.3-.2-.7-.3-1.3-.3h-2.4v2.4h2.2zM38.6 73.7c.8 0 1.5.2 2.1.5.6.3 1.1.8 1.4 1.4.4.6.5 1.3.5 2.1s-.2 1.5-.5 2.1c-.3.6-.8 1.1-1.4 1.4-.6.3-1.3.5-2.1.5-.6 0-1.1-.1-1.6-.3-.5-.2-.9-.5-1.2-1v4.1h-1.4V73.8h1.4V75c.3-.4.7-.8 1.2-1 .5-.2 1-.3 1.6-.3zm-.1 6.9c.5 0 1-.1 1.4-.3.4-.2.7-.6 1-1 .2-.4.4-.9.4-1.5s-.1-1-.4-1.5c-.2-.4-.6-.8-1-1-.4-.2-.9-.3-1.4-.3-.5 0-1 .1-1.4.4-.4.2-.7.6-1 1-.2.4-.3.9-.3 1.5s.1 1 .3 1.5c.2.4.6.8 1 1 .5.1.9.2 1.4.2zM52 77.8v.4h-6.5c.1.7.4 1.3.9 1.7.5.4 1.2.6 2 .6 1 0 1.7-.3 2.3-1l.8.9c-.4.4-.8.7-1.4 1-.5.2-1.1.3-1.8.3-.8 0-1.6-.2-2.2-.5-.7-.4-1.2-.8-1.5-1.5-.4-.6-.5-1.3-.5-2.1s.2-1.5.5-2.1c.4-.6.8-1.1 1.4-1.4.6-.4 1.3-.5 2.1-.5s1.4.2 2 .5c.6.3 1.1.8 1.4 1.4.3.8.5 1.5.5 2.3zm-4-2.9c-.7 0-1.3.2-1.7.6-.5.4-.7 1-.8 1.7h5.1c-.1-.7-.4-1.2-.8-1.6-.5-.5-1.1-.7-1.8-.7zM63.4 73.8v8h-1.3V76l-3 4.9h-.6L55.6 76v5.8h-1.3v-8h1.5l3.1 5.4 3.2-5.4h1.3zM72.6 73.8v8h-1.3v-2.5h-2.5l-1.7 2.5h-1.5l1.9-2.7c-.6-.2-1.1-.5-1.4-.9-.3-.4-.5-.9-.5-1.6 0-.9.3-1.6.9-2.1.6-.5 1.5-.7 2.6-.7h3.5zm-5.5 2.8c0 .5.2.9.5 1.2.3.3.8.4 1.5.4h2.2V75h-2.1c-1.5 0-2.1.6-2.1 1.6zM86.8 73.8v8h-1.4V75h-4.5v6.7h-1.4v-8h7.3zM93.8 73.7c.8 0 1.5.2 2.1.5s1.1.8 1.4 1.4c.4.6.5 1.3.5 2.1s-.2 1.5-.5 2.1c-.3.6-.8 1.1-1.4 1.4-.6.3-1.3.5-2.1.5-.6 0-1.1-.1-1.6-.3-.5-.2-.9-.5-1.2-1v4.1h-1.4V73.8H91V75c.3-.4.7-.8 1.2-1 .5-.2 1-.3 1.6-.3zm-.1 6.9c.5 0 1-.1 1.4-.3.4-.2.7-.6 1-1 .2-.4.4-.9.4-1.5s-.1-1-.4-1.5c-.2-.4-.6-.8-1-1-.4-.2-.9-.3-1.4-.3-.5 0-1 .1-1.4.4-.4.2-.7.6-1 1-.2.4-.3.9-.3 1.5s.1 1 .3 1.5c.2.4.6.8 1 1 .4.1.9.2 1.4.2zM99.9 73.8h1.4v5.8l4.9-5.8h1.3v8h-1.4V76l-4.9 5.8h-1.3v-8zM117.6 77.8v.4h-6.5c.1.7.4 1.3.9 1.7.5.4 1.2.6 2 .6 1 0 1.7-.3 2.3-1l.8.9c-.4.4-.8.7-1.4 1-.5.2-1.1.3-1.8.3-.8 0-1.6-.2-2.2-.5-.7-.4-1.2-.8-1.5-1.5-.3-.6-.5-1.3-.5-2.1s.2-1.5.5-2.1c.4-.6.8-1.1 1.4-1.4.6-.4 1.3-.5 2.1-.5s1.4.2 2 .5c.6.3 1.1.8 1.4 1.4.3.8.5 1.5.5 2.3zm-4-2.9c-.7 0-1.3.2-1.7.6-.5.4-.7 1-.8 1.7h5.1c-.1-.7-.4-1.2-.8-1.6-.5-.5-1.1-.7-1.8-.7zm-1.4-2.5c-.2 0-.4-.1-.5-.2-.1-.2-.2-.3-.2-.6 0-.2.1-.4.2-.6.2-.2.3-.2.5-.2s.4.1.5.2c.2.2.2.3.2.6 0 .2-.1.4-.2.6-.1.1-.3.2-.5.2zm2.8 0c-.2 0-.4-.1-.5-.2-.2-.2-.2-.3-.2-.6 0-.2.1-.4.2-.6.2-.2.3-.2.5-.2s.4.1.5.2c.1.2.2.3.2.6 0 .2-.1.4-.2.6-.1.1-.3.2-.5.2zM129 73.8v8h-1.3V76l-3 4.9h-.6l-2.9-4.9v5.8h-1.3v-8h1.5l3.1 5.4 3.2-5.4h1.3zM134.6 73.7c1.1 0 1.9.3 2.5.8.6.5.9 1.3.9 2.4v4.8h-1.4v-1.1c-.2.4-.6.7-1 .9-.4.2-1 .3-1.6.3-.9 0-1.6-.2-2.2-.6-.5-.4-.8-1-.8-1.7s.3-1.3.8-1.7c.5-.4 1.3-.6 2.4-.6h2.3v-.3c0-.6-.2-1.1-.5-1.4-.4-.3-.9-.5-1.6-.5-.5 0-.9.1-1.4.2-.5.2-.8.4-1.1.6l-.6-1.1c.4-.3.9-.6 1.5-.8.6-.1 1.2-.2 1.8-.2zm-.3 7c.6 0 1-.1 1.4-.4.4-.3.7-.6.9-1.1v-1.1h-2.2c-1.2 0-1.8.4-1.8 1.2 0 .4.2.7.5.9.2.4.7.5 1.2.5zM152.1 73.8v8h-1.4V75h-4.5v6.7h-1.4v-8h7.3zM154.9 73.8h1.4v5.8l4.9-5.8h1.3v8h-1.4V76l-4.9 5.8h-1.3v-8zM176.6 73.8v8h-11.3v-8h1.4v6.7h3.5v-6.7h1.4v6.7h3.5v-6.7h1.5zm1.2 6.7v3h-1.4v-1.7h-1.3v-1.3h2.7zM179.5 73.8h1.4v5.8l4.9-5.8h1.3v8h-1.4V76l-4.9 5.8h-1.3v-8zM190.2 81.8c-.3 0-.5-.1-.7-.3-.2-.2-.3-.5-.3-.8 0-.3.1-.5.3-.7.2-.2.4-.3.7-.3.3 0 .5.1.7.3.2.2.3.4.3.7 0 .3-.1.6-.3.8-.2.2-.4.3-.7.3zM11.6 89.3v10.5h-1.5v-9.2H4v9.2H2.5V89.3h9.1zM18.8 91.8c.8 0 1.5.2 2.1.5.6.3 1.1.8 1.4 1.4.4.6.5 1.3.5 2.1s-.2 1.5-.5 2.1c-.3.6-.8 1.1-1.4 1.4-.6.3-1.3.5-2.1.5-.6 0-1.1-.1-1.6-.3-.5-.2-.9-.5-1.2-1v4.1h-1.4V91.9H16v1.3c.3-.4.7-.8 1.2-1 .5-.3 1.1-.4 1.6-.4zm-.1 6.9c.5 0 1-.1 1.4-.3.4-.2.7-.6 1-1 .2-.4.4-.9.4-1.5s-.1-1-.4-1.5c-.2-.4-.6-.8-1-1-.4-.2-.9-.3-1.4-.3-.5 0-1 .1-1.4.4-.4.2-.7.6-1 1-.2.4-.3.9-.3 1.5s.1 1 .3 1.5c.2.4.6.8 1 1 .5.1.9.2 1.4.2zM28.4 100c-.8 0-1.5-.2-2.1-.5-.6-.4-1.1-.8-1.5-1.4-.4-.6-.5-1.3-.5-2.1s.2-1.5.5-2.1c.4-.6.9-1.1 1.5-1.4.6-.4 1.3-.5 2.1-.5s1.5.2 2.1.5c.6.3 1.1.8 1.5 1.4.4.6.5 1.3.5 2.1s-.2 1.5-.5 2.1c-.4.6-.8 1.1-1.5 1.4-.6.3-1.3.5-2.1.5zm0-1.3c.5 0 1-.1 1.4-.3.4-.2.7-.6 1-1 .2-.4.3-.9.3-1.5s-.1-1-.3-1.5c-.2-.4-.6-.8-1-1-.4-.2-.9-.3-1.4-.3s-1 .1-1.4.3c-.4.2-.7.6-1 1-.2.4-.3.9-.3 1.5s.1 1 .3 1.5c.2.4.6.8 1 1 .4.2.9.3 1.4.3zM42.6 98.6v3.1h-1.4v-1.9h-6.7v1.9h-1.4v-3.1h.4c.5 0 .9-.4 1.1-1.1.2-.7.3-1.7.4-2.9l.1-2.7h6.2v6.7h1.3zm-6.2-3.9c0 1-.1 1.8-.3 2.5-.1.7-.3 1.1-.7 1.4H40v-5.4h-3.5l-.1 1.5zM47.9 100c-.8 0-1.5-.2-2.1-.5-.6-.4-1.1-.8-1.5-1.4-.4-.6-.5-1.3-.5-2.1s.2-1.5.5-2.1c.4-.6.9-1.1 1.5-1.4.6-.4 1.3-.5 2.1-.5s1.5.2 2.1.5c.6.3 1.1.8 1.5 1.4.4.6.5 1.3.5 2.1s-.2 1.5-.5 2.1c-.4.6-.8 1.1-1.5 1.4-.6.3-1.3.5-2.1.5zm0-1.3c.5 0 1-.1 1.4-.3.4-.2.7-.6 1-1 .2-.4.3-.9.3-1.5s-.1-1-.3-1.5c-.2-.4-.6-.8-1-1-.4-.2-.9-.3-1.4-.3-.5 0-1 .1-1.4.3-.4.2-.7.6-1 1-.2.4-.3.9-.3 1.5s.1 1 .3 1.5c.2.4.6.8 1 1 .5.2.9.3 1.4.3zM60.9 91.9v8h-1.4v-6.7h-3.4l-.1 1.7c-.1 1.1-.1 2-.3 2.7-.1.7-.4 1.3-.7 1.7-.3.4-.8.6-1.3.6-.3 0-.6 0-.9-.1l.1-1.2h.4c.4 0 .7-.2.9-.5.2-.4.3-.8.4-1.2s.1-1.2.2-2.1l.1-2.9h6zM71 96.5h-1.5v3.4H68v-3.4h-1.5l-2.2 3.4h-1.7l2.7-4.1-2.5-3.9h1.5l2.1 3.4H68v-3.4h1.4v3.4H71l2.1-3.4h1.5l-2.5 3.9 2.7 4.1h-1.7L71 96.5zM76.5 91.9h1.4v5.8l4.9-5.8h1.3v8h-1.4v-5.8l-4.9 5.8h-1.3v-8zM92.8 93.2h-2.9v6.7h-1.4v-6.7h-2.9v-1.3h7.3v1.3zM101.2 95.9v.4h-6.5c.1.7.4 1.3.9 1.7.5.4 1.2.6 2 .6 1 0 1.7-.3 2.3-1l.8.9c-.4.4-.8.7-1.4 1-.5.2-1.1.3-1.8.3-.8 0-1.6-.2-2.2-.5-.7-.4-1.2-.8-1.5-1.5-.4-.6-.5-1.3-.5-2.1s.2-1.5.5-2.1c.4-.6.8-1.1 1.4-1.4.6-.4 1.3-.5 2.1-.5s1.4.2 2 .5c.6.3 1.1.8 1.4 1.4.3.8.5 1.5.5 2.3zm-4-2.9c-.7 0-1.3.2-1.7.6-.5.4-.7 1-.8 1.7h5.1c-.1-.7-.4-1.2-.8-1.6-.5-.5-1.1-.7-1.8-.7zM110.1 91.9v8h-1.4v-6.7h-3.4l-.1 1.8c-.1 1.1-.1 2-.3 2.7-.1.7-.4 1.3-.7 1.7-.3.4-.8.6-1.3.6-.3 0-.6 0-.9-.1l.1-1.2h.4c.4 0 .7-.2.9-.5.2-.4.3-.8.4-1.2.1-.5.1-1.2.2-2.1l.1-2.9h6zM116.6 94.6c1 0 1.8.2 2.3.7s.8 1.1.8 1.9c0 .9-.3 1.5-.9 2-.6.5-1.4.7-2.5.7h-3.5v-8h1.4v2.7h2.4zm-.4 4.2c.7 0 1.1-.1 1.5-.4.3-.3.5-.7.5-1.2s-.2-.9-.5-1.1c-.3-.2-.8-.4-1.5-.4h-1.9v3.1h1.9zM121.5 91.9h1.4v3.4h4.5v-3.4h1.4v8h-1.4v-3.3H123v3.3h-1.4v-8zM135.2 100c-.8 0-1.5-.2-2.1-.5s-1.1-.8-1.5-1.4c-.3-.6-.5-1.3-.5-2.1s.2-1.5.5-2.1c.4-.6.9-1.1 1.5-1.4.6-.4 1.3-.5 2.1-.5s1.5.2 2.1.5c.6.3 1.1.8 1.5 1.4.4.6.5 1.3.5 2.1s-.2 1.5-.5 2.1c-.4.6-.8 1.1-1.5 1.4-.6.3-1.3.5-2.1.5zm0-1.3c.5 0 1-.1 1.4-.3.4-.2.7-.6 1-1 .2-.4.3-.9.3-1.5s-.1-1-.3-1.5c-.2-.4-.6-.8-1-1-.4-.2-.9-.3-1.4-.3s-1 .1-1.4.3c-.4.2-.7.6-1 1-.2.4-.3.9-.3 1.5s.1 1 .3 1.5c.2.4.6.8 1 1 .4.2.9.3 1.4.3zM144.9 100c-.8 0-1.5-.2-2.2-.5-.6-.4-1.1-.8-1.5-1.4-.4-.6-.5-1.3-.5-2.1s.2-1.5.5-2.1c.4-.6.9-1.1 1.5-1.4.6-.4 1.4-.5 2.2-.5.7 0 1.4.1 1.9.4.6.3 1 .7 1.3 1.3l-1.1.7c-.2-.4-.6-.7-.9-.9-.4-.2-.8-.3-1.2-.3-.5 0-1 .1-1.4.3-.4.2-.7.6-1 1-.2.4-.3.9-.3 1.5s.1 1.1.3 1.5c.2.4.6.7 1 1 .4.2.9.3 1.4.3.5 0 .9-.1 1.2-.3.4-.2.7-.5.9-.9l1.1.7c-.3.6-.8 1-1.3 1.3-.6.2-1.2.4-1.9.4zM155.8 93.2h-2.9v6.7h-1.4v-6.7h-2.9v-1.3h7.3v1.3zM161 94.6c1 0 1.8.2 2.3.7.5.5.8 1.1.8 1.9 0 .9-.3 1.5-.9 2-.6.5-1.4.7-2.5.7h-3.5v-8h1.4v2.7h2.4zm-.4 4.2c.7 0 1.1-.1 1.5-.4.3-.3.5-.7.5-1.2s-.2-.9-.5-1.1c-.3-.2-.8-.4-1.5-.4h-1.9v3.1h1.9zM177.4 91.9v8H176v-6.7h-4.5v6.7H170v-8h7.4zM184.4 91.8c.8 0 1.5.2 2.1.5.6.3 1.1.8 1.4 1.4.3.6.5 1.3.5 2.1s-.2 1.5-.5 2.1c-.3.6-.8 1.1-1.4 1.4-.6.3-1.3.5-2.1.5-.6 0-1.1-.1-1.6-.3-.5-.2-.9-.5-1.2-1v4.1h-1.4V91.9h1.4v1.3c.3-.4.7-.8 1.2-1 .4-.3 1-.4 1.6-.4zm-.1 6.9c.5 0 1-.1 1.4-.3.4-.2.7-.6 1-1 .2-.4.4-.9.4-1.5s-.1-1-.4-1.5c-.2-.4-.6-.8-1-1-.4-.2-.9-.3-1.4-.3-.5 0-1 .1-1.4.4-.4.2-.7.6-1 1-.2.4-.3.9-.3 1.5s.1 1 .3 1.5c.2.4.6.8 1 1 .4.1.9.2 1.4.2zM190.5 91.9h1.4v5.8l4.9-5.8h1.3v8h-1.4v-5.8l-4.9 5.8h-1.3v-8zM208.1 95.9v.4h-6.5c.1.7.4 1.3.9 1.7.5.4 1.2.6 2 .6 1 0 1.7-.3 2.3-1l.8.9c-.4.4-.8.7-1.4 1-.5.2-1.1.3-1.8.3-.8 0-1.6-.2-2.2-.5-.7-.4-1.2-.8-1.5-1.5-.4-.6-.5-1.3-.5-2.1s.2-1.5.5-2.1c.4-.6.8-1.1 1.4-1.4.6-.4 1.3-.5 2.1-.5s1.4.2 2 .5c.6.3 1.1.8 1.4 1.4.4.8.5 1.5.5 2.3zm-3.9-2.9c-.7 0-1.3.2-1.7.6-.5.4-.7 1-.8 1.7h5.1c-.1-.7-.4-1.2-.8-1.6-.5-.5-1.1-.7-1.8-.7zm-1.4-2.5c-.2 0-.4-.1-.5-.2-.1-.2-.2-.3-.2-.6 0-.2.1-.4.2-.6.2-.2.3-.2.5-.2s.4.1.5.2c.1.2.2.3.2.6 0 .2-.1.4-.2.6-.1.1-.3.2-.5.2zm2.8 0c-.2 0-.4-.1-.5-.2-.1-.2-.2-.3-.2-.6 0-.2.1-.4.2-.6.1-.2.3-.2.5-.2s.4.1.5.2c.1.2.2.3.2.6 0 .2-.1.4-.2.6-.1.1-.3.2-.5.2zM219.6 91.9v8h-1.3V94l-3 4.9h-.6l-2.9-4.9v5.8h-1.3v-8h1.5l3.1 5.4 3.2-5.4h1.3zM225.2 91.8c1.1 0 1.9.3 2.5.8.6.5.9 1.3.9 2.4v4.8h-1.4v-1.1c-.2.4-.6.7-1 .9-.4.2-1 .3-1.6.3-.9 0-1.6-.2-2.1-.6-.5-.4-.8-1-.8-1.7s.3-1.3.8-1.7c.5-.4 1.3-.6 2.4-.6h2.3V95c0-.6-.2-1.1-.5-1.4-.4-.3-.9-.5-1.6-.5-.5 0-.9.1-1.4.2-.5.2-.8.4-1.1.6l-.6-1.1c.4-.3.9-.6 1.5-.8.5-.1 1.1-.2 1.7-.2zm-.3 7c.6 0 1-.1 1.4-.4.4-.3.7-.6.9-1.1v-1.1H225c-1.2 0-1.8.4-1.8 1.2 0 .4.2.7.5.9.2.4.6.5 1.2.5zM234.9 94h6.7v1.2h-6.7V94zM4.9 107.4V118H3.4v-9.2H1v-1.3h3.9zM21.1 110v8h-1.3v-5.8l-3 4.9h-.6l-2.9-4.9v5.8H12v-8h1.5l3.1 5.4 3.2-5.4h1.3zM31.1 114v.4h-6.5c.1.7.4 1.3.9 1.7.5.4 1.2.6 2 .6 1 0 1.7-.3 2.3-1l.8.9c-.4.4-.8.7-1.4 1-.5.2-1.1.3-1.8.3-.8 0-1.6-.2-2.2-.5-.7-.4-1.2-.8-1.5-1.5-.4-.6-.5-1.3-.5-2.1s.2-1.5.5-2.1c.4-.6.8-1.1 1.4-1.4.6-.4 1.3-.5 2.1-.5s1.4.2 2 .5c.6.3 1.1.8 1.4 1.4.3.8.5 1.5.5 2.3zm-4-2.9c-.7 0-1.3.2-1.7.6-.5.4-.7 1-.8 1.7h5.1c-.1-.7-.4-1.2-.8-1.6-.5-.4-1.1-.7-1.8-.7zM36.8 118.1c-.8 0-1.5-.2-2.2-.5-.6-.4-1.1-.8-1.5-1.4-.4-.6-.5-1.3-.5-2.1s.2-1.5.5-2.1c.4-.6.9-1.1 1.5-1.4.6-.4 1.4-.5 2.2-.5.7 0 1.4.1 1.9.4.6.3 1 .7 1.3 1.3l-1.1.7c-.3-.4-.6-.7-.9-.9-.4-.2-.8-.3-1.2-.3-.5 0-1 .1-1.4.3-.4.2-.7.6-1 1-.2.4-.3.9-.3 1.5s.1 1.1.3 1.5c.2.4.6.7 1 1 .4.2.9.3 1.4.3.5 0 .9-.1 1.2-.3.4-.2.7-.5.9-.9l1.1.7c-.3.6-.8 1-1.3 1.3-.6.2-1.2.4-1.9.4zM48 110v8h-1.3v-2.5h-2.5l-1.7 2.5H41l1.9-2.7c-.6-.2-1.1-.5-1.4-.9-.3-.4-.5-.9-.5-1.6 0-.9.3-1.6.9-2.1.6-.5 1.5-.7 2.6-.7H48zm-5.5 2.8c0 .5.2.9.5 1.2.3.3.8.4 1.5.4h2.2v-3.1h-2.1c-1.4 0-2.1.5-2.1 1.5zM59.4 116.7v3.2H58V118h-7.1v-8h1.4v6.7h4.4V110h1.4v6.7h1.3zM61.5 118.1c-.3 0-.5-.1-.7-.3-.2-.2-.3-.5-.3-.8 0-.3.1-.5.3-.7.2-.2.4-.3.7-.3.3 0 .5.1.7.3.2.2.3.4.3.7 0 .3-.1.6-.3.8-.2.2-.4.3-.7.3zM78 107.4V118h-1.5v-9.2h-6.1v9.2h-1.5v-10.5H78zM85.2 109.9c.8 0 1.5.2 2.1.5.6.3 1.1.8 1.4 1.4.4.6.5 1.3.5 2.1s-.2 1.5-.5 2.1c-.3.6-.8 1.1-1.4 1.4-.6.3-1.3.5-2.1.5-.6 0-1.1-.1-1.6-.3-.5-.2-.9-.5-1.2-1v4.1H81V110h1.4v1.3c.3-.4.7-.8 1.2-1 .5-.3 1-.4 1.6-.4zm-.1 6.9c.5 0 1-.1 1.4-.3.4-.2.7-.6 1-1 .2-.4.4-.9.4-1.5s-.1-1-.4-1.5c-.2-.4-.6-.8-1-1-.4-.2-.9-.3-1.4-.3-.5 0-1 .1-1.4.4-.4.2-.7.6-1 1-.2.4-.3.9-.3 1.5s.1 1 .3 1.5c.2.4.6.8 1 1 .5.1.9.2 1.4.2zM91.4 110h1.4v5.8l4.9-5.8H99v8h-1.4v-5.8l-4.9 5.8h-1.3v-8zM105.8 110h1.4v3.4h4.5V110h1.4v8h-1.4v-3.3h-4.5v3.3h-1.4v-8zM123.3 114v.4h-6.5c.1.7.4 1.3.9 1.7.5.4 1.2.6 2 .6 1 0 1.7-.3 2.3-1l.8.9c-.4.4-.8.7-1.4 1-.5.2-1.1.3-1.8.3-.8 0-1.6-.2-2.2-.5-.7-.4-1.2-.8-1.5-1.5-.3-.6-.5-1.3-.5-2.1s.2-1.5.5-2.1c.4-.6.8-1.1 1.4-1.4.6-.4 1.3-.5 2.1-.5s1.4.2 2 .5c.6.3 1.1.8 1.4 1.4.3.8.5 1.5.5 2.3zm-4-2.9c-.7 0-1.3.2-1.7.6-.5.4-.7 1-.8 1.7h5.1c-.1-.7-.4-1.2-.8-1.6-.5-.4-1.1-.7-1.8-.7zM128.9 118.1c-.8 0-1.5-.2-2.1-.5-.6-.4-1.1-.8-1.5-1.4-.4-.6-.5-1.3-.5-2.1s.2-1.5.5-2.1c.4-.6.9-1.1 1.5-1.4.6-.4 1.3-.5 2.1-.5s1.5.2 2.1.5c.6.3 1.1.8 1.5 1.4.4.6.5 1.3.5 2.1s-.2 1.5-.5 2.1c-.4.6-.8 1.1-1.5 1.4-.6.3-1.3.5-2.1.5zm0-1.3c.5 0 1-.1 1.4-.3.4-.2.7-.6 1-1 .2-.4.3-.9.3-1.5s-.1-1-.3-1.5c-.2-.4-.6-.8-1-1-.4-.2-.9-.3-1.4-.3s-1 .1-1.4.3c-.4.2-.7.6-1 1-.2.4-.3.9-.3 1.5s.1 1 .3 1.5c.2.4.6.8 1 1 .4.2.9.3 1.4.3zM139.2 110.3c.7 0 1.4.2 2 .5.6.3 1 .8 1.4 1.4.3.6.5 1.2.5 2s-.2 1.5-.5 2.1c-.3.6-.8 1.1-1.5 1.4-.6.3-1.3.5-2.1.5-1.4 0-2.4-.5-3.1-1.4-.7-.9-1.1-2.2-1.1-3.9 0-1.6.3-2.9 1-3.8.7-.9 1.7-1.6 3.1-1.9l3.6-.8.2 1.3-3.4.7c-1 .2-1.8.6-2.3 1.2-.5.6-.8 1.3-.9 2.4.3-.5.8-.9 1.3-1.2.5-.4 1.1-.5 1.8-.5zm-.3 6.6c.5 0 1-.1 1.4-.3.4-.2.7-.5.9-.9.2-.4.3-.9.3-1.4 0-.8-.2-1.4-.7-1.9-.5-.5-1.1-.7-1.9-.7-.8 0-1.4.2-1.9.7-.5.5-.7 1.1-.7 1.9 0 .5.1 1 .3 1.4.2.4.5.7.9.9s.9.3 1.4.3zM149.8 118l-2.3-3.1-2.3 3.1h-1.6l3.1-4.1-3-3.9h1.6l2.2 2.9 2.2-2.9h1.6l-3 3.9 3.2 4.1h-1.7zM156.1 118.1c-.8 0-1.5-.2-2.1-.5-.6-.4-1.1-.8-1.5-1.4-.3-.6-.5-1.3-.5-2.1s.2-1.5.5-2.1c.4-.6.9-1.1 1.5-1.4.6-.4 1.3-.5 2.1-.5s1.5.2 2.1.5c.6.3 1.1.8 1.5 1.4.4.6.5 1.3.5 2.1s-.2 1.5-.5 2.1c-.4.6-.8 1.1-1.5 1.4-.6.3-1.3.5-2.1.5zm0-1.3c.5 0 1-.1 1.4-.3.4-.2.7-.6 1-1 .2-.4.3-.9.3-1.5s-.1-1-.3-1.5c-.2-.4-.6-.8-1-1-.4-.2-.9-.3-1.4-.3s-1 .1-1.4.3c-.4.2-.7.6-1 1-.2.4-.3.9-.3 1.5s.1 1 .3 1.5c.2.4.6.8 1 1 .4.2.9.3 1.4.3zM170.4 116.7v3.1H169V118h-6.7v1.9H161v-3.1h.4c.5 0 .9-.4 1.1-1.1.2-.7.3-1.7.4-2.9l.1-2.7h6.2v6.7h1.2zm-6.2-3.9c0 1-.1 1.8-.3 2.5-.1.7-.3 1.1-.7 1.4h4.5v-5.4h-3.5v1.5zM172.2 110h1.4v5.8l4.9-5.8h1.3v8h-1.4v-5.8l-4.9 5.8h-1.3v-8zM191.8 110v8h-1.3v-5.8l-3 4.9h-.6l-2.9-4.9v5.8h-1.3v-8h1.5l3.1 5.4 3.2-5.4h1.3zM198.1 118.1c-.8 0-1.5-.2-2.1-.5-.6-.4-1.1-.8-1.5-1.4-.4-.6-.5-1.3-.5-2.1s.2-1.5.5-2.1c.4-.6.9-1.1 1.5-1.4.6-.4 1.3-.5 2.1-.5s1.5.2 2.1.5c.6.3 1.1.8 1.5 1.4.4.6.5 1.3.5 2.1s-.2 1.5-.5 2.1c-.4.6-.8 1.1-1.5 1.4-.6.3-1.3.5-2.1.5zm0-1.3c.5 0 1-.1 1.4-.3.4-.2.7-.6 1-1 .2-.4.3-.9.3-1.5s-.1-1-.3-1.5c-.2-.4-.6-.8-1-1-.4-.2-.9-.3-1.4-.3-.5 0-1 .1-1.4.3-.4.2-.7.6-1 1-.2.4-.3.9-.3 1.5s.1 1 .3 1.5c.2.4.6.8 1 1 .4.2.9.3 1.4.3zM207.8 118.1c-.8 0-1.5-.2-2.2-.5-.6-.4-1.1-.8-1.5-1.4-.4-.6-.5-1.3-.5-2.1s.2-1.5.5-2.1c.4-.6.9-1.1 1.5-1.4.6-.4 1.4-.5 2.2-.5.7 0 1.4.1 1.9.4.6.3 1 .7 1.3 1.3l-1.1.7c-.3-.4-.6-.7-.9-.9-.4-.2-.8-.3-1.2-.3-.5 0-1 .1-1.4.3-.4.2-.7.6-1 1-.2.4-.3.9-.3 1.5s.1 1.1.3 1.5c.2.4.6.7 1 1 .4.2.9.3 1.4.3.5 0 .9-.1 1.2-.3.4-.2.7-.5.9-.9l1.1.7c-.3.6-.8 1-1.3 1.3-.6.2-1.2.4-1.9.4zM218.7 111.3h-2.9v6.7h-1.4v-6.7h-2.9V110h7.3v1.3zM220.2 110h1.4v5.8l4.9-5.8h1.3v8h-1.4v-5.8l-4.9 5.8h-1.3v-8zM9.7 128.1v8H8.2v-6.7H3.7v6.7H2.3v-8h7.4zM16.7 128c.8 0 1.5.2 2.1.5.6.3 1.1.8 1.4 1.4.4.6.5 1.3.5 2.1s-.2 1.5-.5 2.1c-.3.6-.8 1.1-1.4 1.4-.6.3-1.3.5-2.1.5-.6 0-1.1-.1-1.6-.3-.5-.2-.9-.5-1.2-1v4.1h-1.4v-10.9h1.4v1.3c.3-.4.7-.8 1.2-1 .4-.1 1-.2 1.6-.2zm-.1 6.9c.5 0 1-.1 1.4-.3.4-.2.7-.6 1-1 .2-.4.4-.9.4-1.5s-.1-1-.4-1.5c-.2-.4-.6-.8-1-1-.4-.2-.9-.3-1.4-.3-.5 0-1 .1-1.4.4-.4.2-.7.6-1 1-.2.4-.3.9-.3 1.5s.1 1 .3 1.5c.2.4.6.8 1 1 .4.1.9.2 1.4.2zM22.8 128.1h1.4v5.8l4.9-5.8h1.3v8H29v-5.8l-4.9 5.8h-1.3v-8zM40.4 132.1v.4h-6.5c.1.7.4 1.3.9 1.7.5.4 1.2.6 2 .6 1 0 1.7-.3 2.3-1l.8.9c-.4.4-.8.7-1.4 1-.5.2-1.1.3-1.8.3-.8 0-1.6-.2-2.2-.5-.7-.4-1.2-.8-1.5-1.5-.4-.6-.5-1.3-.5-2.1s.2-1.5.5-2.1c.4-.6.8-1.1 1.4-1.4.6-.4 1.3-.5 2.1-.5s1.4.2 2 .5c.6.3 1.1.8 1.4 1.4.4.8.5 1.5.5 2.3zm-3.9-2.9c-.7 0-1.3.2-1.7.6-.5.4-.7 1-.8 1.7h5c-.1-.7-.4-1.2-.8-1.6-.4-.4-1-.7-1.7-.7zm-1.4-2.5c-.2 0-.4-.1-.5-.2-.2-.2-.2-.3-.2-.6 0-.2.1-.4.2-.6.2-.1.3-.2.5-.2s.4.1.5.2c.2.2.2.3.2.6 0 .2-.1.4-.2.6-.1.1-.3.2-.5.2zm2.8 0c-.2 0-.4-.1-.5-.2-.2-.2-.2-.3-.2-.6 0-.2.1-.4.2-.6.2-.1.3-.2.5-.2s.4.1.5.2c.2.2.2.3.2.6 0 .2-.1.4-.2.6-.1.1-.3.2-.5.2zM51.9 128.1v8h-1.3v-5.8l-3 4.9H47l-2.9-4.9v5.8h-1.3v-8h1.5l3.1 5.4 3.2-5.4h1.3zM67.9 128.1v8h-1.3v-5.8l-3 4.9H63l-2.9-4.9v5.8h-1.3v-8h1.5l3.1 5.4 3.2-5.4h1.3zM74.1 136.2c-.8 0-1.5-.2-2.1-.5-.6-.4-1.1-.8-1.5-1.4-.4-.6-.5-1.3-.5-2.1s.2-1.5.5-2.1c.4-.6.9-1.1 1.5-1.4.6-.4 1.3-.5 2.1-.5s1.5.2 2.1.5c.6.3 1.1.8 1.5 1.4.4.6.5 1.3.5 2.1s-.2 1.5-.5 2.1c-.4.6-.8 1.1-1.5 1.4-.6.3-1.3.5-2.1.5zm0-1.3c.5 0 1-.1 1.4-.3.4-.2.7-.6 1-1 .2-.4.3-.9.3-1.5s-.1-1-.3-1.5c-.2-.4-.6-.8-1-1-.4-.2-.9-.3-1.4-.3-.5 0-1 .1-1.4.3-.4.2-.7.6-1 1-.2.4-.3.9-.3 1.5s.1 1 .3 1.5c.2.4.6.8 1 1 .4.2.9.3 1.4.3zM87.3 132.7h-1.5v3.4h-1.4v-3.4h-1.5l-2.2 3.4H79l2.7-4.1-2.5-3.9h1.5l2.1 3.4h1.6v-3.4h1.4v3.4h1.6l2.1-3.4H91l-2.5 3.9 2.7 4.1h-1.7l-2.2-3.4zM92.8 128.1h1.4v3.4h4.5v-3.4h1.4v8h-1.4v-3.3h-4.5v3.3h-1.4v-8zM106.5 136.2c-.8 0-1.5-.2-2.1-.5-.6-.4-1.1-.8-1.5-1.4-.4-.6-.5-1.3-.5-2.1s.2-1.5.5-2.1c.4-.6.9-1.1 1.5-1.4.6-.4 1.3-.5 2.1-.5s1.5.2 2.1.5c.6.3 1.1.8 1.5 1.4.4.6.5 1.3.5 2.1s-.2 1.5-.5 2.1c-.4.6-.8 1.1-1.5 1.4-.7.3-1.4.5-2.1.5zm0-1.3c.5 0 1-.1 1.4-.3.4-.2.7-.6 1-1 .2-.4.3-.9.3-1.5s-.1-1-.3-1.5c-.2-.4-.6-.8-1-1-.4-.2-.9-.3-1.4-.3-.5 0-1 .1-1.4.3-.4.2-.7.6-1 1-.2.4-.3.9-.3 1.5s.1 1 .3 1.5c.2.4.6.8 1 1 .4.2.8.3 1.4.3zM124.1 128.1v8h-1.4v-6.7h-4.5v6.7h-1.4v-8h7.3zM130.3 136.2c-.8 0-1.5-.2-2.1-.5-.6-.4-1.1-.8-1.5-1.4-.4-.6-.5-1.3-.5-2.1s.2-1.5.5-2.1c.4-.6.9-1.1 1.5-1.4.6-.4 1.3-.5 2.1-.5s1.5.2 2.1.5c.6.3 1.1.8 1.5 1.4.4.6.5 1.3.5 2.1s-.2 1.5-.5 2.1c-.4.6-.8 1.1-1.5 1.4-.6.3-1.3.5-2.1.5zm0-1.3c.5 0 1-.1 1.4-.3.4-.2.7-.6 1-1 .2-.4.3-.9.3-1.5s-.1-1-.3-1.5c-.2-.4-.6-.8-1-1-.4-.2-.9-.3-1.4-.3s-1 .1-1.4.3c-.4.2-.7.6-1 1-.2.4-.3.9-.3 1.5s.1 1 .3 1.5c.2.4.6.8 1 1 .4.2.9.3 1.4.3zM141.9 131.9c1 .3 1.5.9 1.5 1.9 0 .7-.3 1.2-.8 1.6-.5.4-1.3.6-2.3.6h-3.8v-8h3.7c.9 0 1.7.2 2.2.5.5.4.8.9.8 1.5 0 .4-.1.8-.3 1.1-.3.5-.6.7-1 .8zm-4-.4h2.2c.6 0 1-.1 1.2-.3.3-.2.4-.5.4-.9 0-.8-.6-1.1-1.7-1.1h-2.2v2.3zm2.3 3.5c.6 0 1.1-.1 1.4-.3.3-.2.5-.5.5-.9s-.1-.7-.4-.9c-.3-.2-.7-.3-1.3-.3H138v2.4h2.2zM151.7 129.4h-2.9v6.7h-1.4v-6.7h-2.9v-1.3h7.3v1.3zM156.2 136.2c-.8 0-1.5-.2-2.1-.5-.6-.4-1.1-.8-1.5-1.4-.4-.6-.5-1.3-.5-2.1s.2-1.5.5-2.1c.4-.6.9-1.1 1.5-1.4.6-.4 1.3-.5 2.1-.5s1.5.2 2.1.5c.6.3 1.1.8 1.5 1.4.4.6.5 1.3.5 2.1s-.2 1.5-.5 2.1c-.4.6-.8 1.1-1.5 1.4-.6.3-1.3.5-2.1.5zm0-1.3c.5 0 1-.1 1.4-.3.4-.2.7-.6 1-1 .2-.4.3-.9.3-1.5s-.1-1-.3-1.5c-.2-.4-.6-.8-1-1-.4-.2-.9-.3-1.4-.3s-1 .1-1.4.3c-.4.2-.7.6-1 1-.2.4-.3.9-.3 1.5s.1 1 .3 1.5c.2.4.6.8 1 1 .4.2.9.3 1.4.3zM166.6 128c.8 0 1.5.2 2.1.5.6.3 1.1.8 1.4 1.4.4.6.5 1.3.5 2.1s-.2 1.5-.5 2.1c-.3.6-.8 1.1-1.4 1.4-.6.3-1.3.5-2.1.5-.6 0-1.1-.1-1.6-.3-.5-.2-.9-.5-1.2-1v4.1h-1.4v-10.9h1.4v1.3c.3-.4.7-.8 1.2-1 .5-.1 1.1-.2 1.6-.2zm-.1 6.9c.5 0 1-.1 1.4-.3.4-.2.7-.6 1-1 .2-.4.4-.9.4-1.5s-.1-1-.4-1.5c-.2-.4-.6-.8-1-1-.4-.2-.9-.3-1.4-.3-.5 0-1 .1-1.4.4-.4.2-.7.6-1 1-.2.4-.3.9-.3 1.5s.1 1 .3 1.5c.2.4.6.8 1 1 .5.1.9.2 1.4.2zM172.8 128.1h1.4v5.8l4.9-5.8h1.3v8H179v-5.8l-4.9 5.8h-1.3v-8zM189.1 129.4h-2.9v6.7h-1.4v-6.7h-2.9v-1.3h7.3v1.3zM194.3 130.8c1 0 1.8.2 2.3.7.5.5.8 1.1.8 1.9 0 .9-.3 1.5-.9 2-.6.5-1.4.7-2.5.7h-3.5v-8h1.4v2.7h2.4zm-.3 4.2c.7 0 1.1-.1 1.5-.4.3-.3.5-.7.5-1.2s-.2-.9-.5-1.1c-.3-.2-.8-.4-1.5-.4h-1.9v3.1h1.9zM199.5 136.2c-.3 0-.5-.1-.7-.3-.2-.2-.3-.5-.3-.8 0-.3.1-.5.3-.7.2-.2.4-.3.7-.3.3 0 .5.1.7.3.2.2.3.4.3.7 0 .3-.1.6-.3.8-.2.2-.4.3-.7.3zM6.8 176.8c-1.3 0-2.5-.3-3.5-.8-1-.6-1.8-1.3-2.4-2.3-.6-1-.9-2.1-.9-3.3 0-1.2.3-2.3.9-3.3.6-1 1.4-1.7 2.4-2.3 1-.6 2.2-.8 3.5-.8 1.3 0 2.4.3 3.5.8 1 .6 1.8 1.3 2.4 2.3.6 1 .9 2.1.9 3.3 0 1.2-.3 2.3-.9 3.3-.6 1-1.4 1.7-2.4 2.3-1.1.5-2.2.8-3.5.8zm0-2.5c.7 0 1.4-.2 2-.5.6-.3 1.1-.8 1.4-1.4.3-.6.5-1.3.5-2s-.2-1.4-.5-2c-.3-.6-.8-1.1-1.4-1.4-.6-.3-1.3-.5-2-.5s-1.4.2-2 .5c-.6.3-1.1.8-1.4 1.4-.3.6-.5 1.3-.5 2s.2 1.4.5 2c.3.6.8 1.1 1.4 1.4.6.4 1.3.5 2 .5zM20.4 176.7c-1 0-1.9-.2-2.7-.6-.8-.4-1.4-1-1.9-1.7-.4-.7-.7-1.6-.7-2.5 0-.9.2-1.8.7-2.5.5-.7 1.1-1.3 1.9-1.7.8-.4 1.7-.6 2.7-.6 1 0 1.9.2 2.6.6.8.4 1.3 1 1.6 1.8l-2.1 1.1c-.5-.9-1.2-1.3-2.1-1.3-.7 0-1.3.2-1.8.7-.5.5-.7 1.1-.7 1.9 0 .8.2 1.5.7 1.9.5.5 1.1.7 1.8.7.9 0 1.7-.4 2.1-1.3l2.1 1.2c-.3.8-.9 1.3-1.6 1.8-.7.3-1.6.5-2.6.5zM26.6 167.1h2.7v3.7h4.1v-3.7h2.8v9.5h-2.8V173h-4.1v3.6h-2.7v-9.5zM43.6 176.7c-1 0-1.9-.2-2.7-.6-.8-.4-1.4-1-1.9-1.7s-.7-1.6-.7-2.5c0-.9.2-1.8.7-2.5.4-.7 1.1-1.3 1.9-1.7.8-.4 1.7-.6 2.7-.6s1.9.2 2.7.6c.8.4 1.4 1 1.9 1.7.4.7.7 1.6.7 2.5 0 .9-.2 1.8-.7 2.5-.4.7-1.1 1.3-1.9 1.7-.8.4-1.6.6-2.7.6zm0-2.2c.7 0 1.3-.2 1.7-.7.5-.5.7-1.1.7-1.9 0-.8-.2-1.4-.7-1.9-.4-.5-1-.7-1.7-.7s-1.3.2-1.8.7c-.5.5-.7 1.1-.7 1.9 0 .8.2 1.4.7 1.9.6.4 1.1.7 1.8.7zM58.3 171.6c1.1.4 1.7 1.1 1.7 2.3 0 .9-.3 1.5-1 2s-1.6.7-2.9.7H51v-9.5h4.9c1.2 0 2.1.2 2.8.7.7.4 1 1 1 1.8 0 .5-.1.9-.4 1.3-.2.2-.5.5-1 .7zm-4.7-.6h2.1c1 0 1.5-.3 1.5-1s-.5-1-1.5-1h-2.1v2zm2.3 3.7c1 0 1.5-.3 1.5-1 0-.4-.1-.6-.4-.8-.2-.2-.6-.3-1.1-.3h-2.4v2.1h2.4zM62.3 167.1H65v3.7h4.1v-3.7H72v9.5h-2.8V173h-4.1v3.6h-2.7v-9.5zM79.9 170.1c1.2 0 2.2.3 2.8.8.6.5 1 1.3 1 2.3 0 1.1-.4 1.9-1.1 2.5-.7.6-1.7.9-3.1.9h-4.6v-9.5h2.7v3h2.3zm4.8-3h2.7v9.5h-2.7v-9.5zm-5.4 7.5c.5 0 .9-.1 1.2-.3.3-.2.4-.6.4-1.1 0-.5-.1-.8-.4-1-.3-.2-.7-.3-1.2-.3h-1.6v2.8h1.6zM99.7 171.9s0 .3-.1.7h-7.2c.1.6.4 1.1.9 1.4.5.3 1.1.5 1.8.5.5 0 .9-.1 1.3-.2.4-.2.8-.4 1.1-.7l1.5 1.6c-.9 1-2.2 1.5-3.9 1.5-1.1 0-2-.2-2.9-.6-.8-.4-1.5-1-1.9-1.7-.4-.7-.7-1.6-.7-2.5 0-.9.2-1.8.7-2.5.4-.8 1.1-1.3 1.8-1.7.8-.4 1.6-.6 2.6-.6.9 0 1.8.2 2.5.6.8.4 1.3 1 1.8 1.7.5.6.7 1.5.7 2.5zm-5-2.9c-.6 0-1.2.2-1.6.5-.4.4-.7.8-.8 1.4H97c-.1-.6-.4-1.1-.8-1.4-.3-.3-.8-.5-1.5-.5zM116.8 167.1v9.5H114v-7.2h-4v7.2h-2.7v-9.5h9.5zM125.4 166.9c.9 0 1.7.2 2.4.6.7.4 1.3 1 1.7 1.7.4.7.6 1.6.6 2.6s-.2 1.8-.6 2.6c-.4.7-1 1.3-1.7 1.7-.7.4-1.5.6-2.4.6-1.2 0-2.2-.4-2.9-1.1v4.4h-2.8v-12.9h2.6v1.1c.8-.9 1.8-1.3 3.1-1.3zm-.5 7.6c.7 0 1.3-.2 1.7-.7.5-.5.7-1.1.7-1.9 0-.8-.2-1.4-.7-1.9-.4-.5-1-.7-1.7-.7s-1.3.2-1.8.7c-.4.5-.7 1.1-.7 1.9 0 .8.2 1.4.7 1.9.5.4 1.1.7 1.8.7zM136.8 176.7c-1 0-1.9-.2-2.7-.6-.8-.4-1.4-1-1.9-1.7s-.7-1.6-.7-2.5c0-.9.2-1.8.7-2.5.4-.7 1.1-1.3 1.9-1.7.8-.4 1.7-.6 2.7-.6 1 0 1.9.2 2.7.6.8.4 1.4 1 1.9 1.7.4.7.7 1.6.7 2.5 0 .9-.2 1.8-.7 2.5-.4.7-1.1 1.3-1.9 1.7-.8.4-1.7.6-2.7.6zm0-2.2c.7 0 1.3-.2 1.7-.7.5-.5.7-1.1.7-1.9 0-.8-.2-1.4-.7-1.9-.4-.5-1-.7-1.7-.7s-1.3.2-1.8.7c-.5.5-.7 1.1-.7 1.9 0 .8.2 1.4.7 1.9.5.4 1.1.7 1.8.7zM151.9 169.3h-3.2v7.2H146v-7.2h-3.2V167h9.2v2.3zM153.6 167.1h2.7v5.7l4.6-5.7h2.5v9.5h-2.7v-5.7l-4.6 5.7h-2.6v-9.5zM173.8 171.6c1.1.4 1.7 1.1 1.7 2.3 0 .9-.3 1.5-1 2-.6.5-1.6.7-2.9.7h-5.1v-9.5h4.9c1.2 0 2.1.2 2.8.7.7.4 1 1 1 1.8 0 .5-.1.9-.4 1.3-.3.2-.6.5-1 .7zm-4.8-.6h2.1c1 0 1.5-.3 1.5-1s-.5-1-1.5-1H169v2zm2.3 3.7c1 0 1.5-.3 1.5-1 0-.4-.1-.6-.4-.8-.2-.2-.6-.3-1.1-.3H169v2.1h2.3zM182.2 176.7c-1 0-1.9-.2-2.7-.6-.8-.4-1.4-1-1.9-1.7s-.7-1.6-.7-2.5c0-.9.2-1.8.7-2.5.4-.7 1.1-1.3 1.9-1.7.8-.4 1.7-.6 2.7-.6 1 0 1.9.2 2.7.6.8.4 1.4 1 1.9 1.7.4.7.7 1.6.7 2.5 0 .9-.2 1.8-.7 2.5-.4.7-1.1 1.3-1.9 1.7-.8.4-1.7.6-2.7.6zm0-2.2c.7 0 1.3-.2 1.7-.7.5-.5.7-1.1.7-1.9 0-.8-.2-1.4-.7-1.9-.4-.5-1-.7-1.7-.7s-1.3.2-1.8.7c-.5.5-.7 1.1-.7 1.9 0 .8.2 1.4.7 1.9.5.4 1.1.7 1.8.7zM199.1 167.1v9.5h-2.8v-7.2h-4v7.2h-2.7v-9.5h9.5zM206.5 176.7c-1 0-1.9-.2-2.7-.6-.8-.4-1.4-1-1.9-1.7-.4-.7-.7-1.6-.7-2.5 0-.9.2-1.8.7-2.5.4-.7 1.1-1.3 1.9-1.7.8-.4 1.7-.6 2.7-.6 1 0 1.9.2 2.7.6.8.4 1.4 1 1.9 1.7.4.7.7 1.6.7 2.5 0 .9-.2 1.8-.7 2.5-.4.7-1.1 1.3-1.9 1.7-.8.4-1.7.6-2.7.6zm0-2.2c.7 0 1.3-.2 1.7-.7.5-.5.7-1.1.7-1.9 0-.8-.2-1.4-.7-1.9-.4-.5-1-.7-1.7-.7s-1.3.2-1.8.7c-.5.5-.7 1.1-.7 1.9 0 .8.2 1.4.7 1.9.5.4 1.1.7 1.8.7zM218.1 173h-1.4v3.6h-2.8v-9.5h2.8v3.7h1.5l2.6-3.7h2.9l-3.3 4.6 3.6 4.9h-3.3l-2.6-3.6zM229.1 166.9c1.5 0 2.6.4 3.4 1.1.8.7 1.2 1.7 1.2 3.2v5.4h-2.6v-1.2c-.5.9-1.5 1.3-2.9 1.3-.7 0-1.4-.1-1.9-.4-.5-.2-.9-.6-1.2-1-.3-.4-.4-.9-.4-1.5 0-.9.3-1.6 1-2.1s1.7-.8 3.1-.8h2.2c0-.6-.2-1.1-.5-1.4-.4-.3-.9-.5-1.6-.5-.5 0-1 .1-1.5.2-.5.2-.9.4-1.2.6l-1-1.9c.5-.4 1.1-.6 1.9-.8.4-.1 1.2-.2 2-.2zm-.2 8c.5 0 .9-.1 1.3-.3.4-.2.6-.5.8-1v-1h-2c-1.1 0-1.7.4-1.7 1.1 0 .4.1.6.4.8.3.3.7.4 1.2.4zM242.4 171.6c.6.2 1 .4 1.3.8.3.4.5.8.5 1.3 0 .6-.2 1.1-.6 1.6-.4.4-1 .8-1.7 1-.7.2-1.5.4-2.4.4-.7 0-1.5-.1-2.2-.2s-1.4-.4-2-.7l.7-1.9c1 .5 2.1.7 3.3.7.7 0 1.2-.1 1.5-.3.4-.2.6-.5.6-.8 0-.3-.1-.5-.4-.7-.3-.2-.6-.2-1.1-.2H238v-1.7h1.7c.5 0 .9-.1 1.1-.2s.4-.4.4-.7c0-.3-.2-.5-.5-.7-.3-.2-.8-.2-1.4-.2-.9 0-1.9.2-3 .7l-.7-1.9c1.3-.6 2.6-.9 3.9-.9.9 0 1.6.1 2.3.3.7.2 1.2.5 1.6.9.4.4.6.9.6 1.4 0 .4-.1.9-.4 1.2-.3.3-.7.6-1.2.8zM250.2 166.9c1.5 0 2.6.4 3.4 1.1.8.7 1.2 1.7 1.2 3.2v5.4h-2.6v-1.2c-.5.9-1.5 1.3-2.9 1.3-.7 0-1.4-.1-1.9-.4-.5-.2-.9-.6-1.2-1-.3-.4-.4-.9-.4-1.5 0-.9.3-1.6 1-2.1s1.7-.8 3.1-.8h2.2c0-.6-.2-1.1-.5-1.4-.4-.3-.9-.5-1.6-.5-.5 0-1 .1-1.5.2-.5.2-.9.4-1.2.6l-1-1.9c.5-.4 1.1-.6 1.9-.8.5-.1 1.2-.2 2-.2zm-.2 8c.5 0 .9-.1 1.3-.3.4-.2.6-.5.8-1v-1h-1.9c-1.1 0-1.7.4-1.7 1.1 0 .4.1.6.4.8.2.3.6.4 1.1.4zM257.5 167.1h2.7v3.7h4.1v-3.7h2.8v9.5h-2.8V173h-4.1v3.6h-2.7v-9.5zM270 167.1h2.7v5.7l4.6-5.7h2.5v9.5h-2.7v-5.7l-4.6 5.7H270v-9.5zM291.4 167.1v9.5h-2.5v-2.7h-2l-1.8 2.7h-2.9l2.2-3.1c-.7-.3-1.2-.6-1.5-1.1-.3-.5-.5-1.1-.5-1.8 0-1.1.4-2 1.2-2.6.8-.6 1.9-.9 3.4-.9h4.4zm-4.5 2.2c-.6 0-1 .1-1.3.3-.3.2-.4.6-.4 1 0 .5.1.8.4 1 .3.2.7.3 1.3.3h2.1v-2.7h-2.1zM295.3 170.4c-.5 0-.9-.2-1.2-.5-.3-.3-.5-.7-.5-1.2s.2-.9.5-1.2c.3-.3.7-.5 1.2-.5s.9.2 1.2.5c.3.3.5.7.5 1.2s-.2.9-.5 1.2c-.3.3-.7.5-1.2.5zm0 6.3c-.5 0-.9-.2-1.2-.5-.3-.3-.5-.7-.5-1.2s.2-.9.5-1.2c.3-.3.7-.5 1.2-.5s.9.2 1.2.5c.3.3.5.7.5 1.2s-.2.9-.5 1.2c-.3.4-.7.5-1.2.5zM1.7 202.1h1.4v5.8l4.9-5.8h1.3v7.9H7.9v-5.8L3.1 210H1.7v-7.9zM12.2 202.1h1.4v3.4h4.5v-3.4h1.4v7.9h-1.4v-3.3h-4.5v3.3h-1.4v-7.9zM30.6 208.8v3.1h-1.4V210h-6.7v1.8h-1.4v-3.1h.4c.5 0 .9-.4 1.1-1.1.2-.7.3-1.7.4-2.9l.1-2.7h6.2v6.7h1.3zm-6.2-3.9c0 1-.1 1.8-.3 2.5-.1.6-.3 1.1-.7 1.4h4.5v-5.4h-3.5v1.5zM32.4 202.1h1.4v5.8l4.9-5.8H40v7.9h-1.4v-5.8l-4.9 5.8h-1.3v-7.9zM48.3 205.9c1 .3 1.6.9 1.6 1.9 0 .7-.3 1.2-.8 1.6-.5.4-1.3.6-2.3.6H43v-7.9h3.7c.9 0 1.7.2 2.2.5.5.4.8.8.8 1.5 0 .4-.1.8-.3 1.1-.4.3-.7.5-1.1.7zm-4-.4h2.2c.6 0 1-.1 1.2-.3.3-.2.4-.5.4-.9 0-.8-.6-1.1-1.7-1.1h-2.2v2.3zm2.3 3.4c.6 0 1.1-.1 1.4-.3.3-.2.5-.5.5-.9s-.1-.7-.4-.9c-.3-.2-.7-.3-1.3-.3h-2.4v2.4h2.2zM52.1 202.1h1.4v5.8l4.9-5.8h1.3v7.9h-1.4v-5.8l-4.9 5.8h-1.3v-7.9zM70.7 208.8v3.1h-1.4V210h-6.7v1.8h-1.4v-3.1h.4c.5 0 .9-.4 1.1-1.1.2-.7.3-1.7.4-2.9l.1-2.7h6.2v6.7h1.3zm-6.2-3.9c0 1-.1 1.8-.3 2.5-.1.6-.3 1.1-.7 1.4H68v-5.4h-3.5v1.5zM79.7 202.1l-3.9 8.7c-.3.8-.7 1.4-1.2 1.7-.5.3-1 .5-1.6.5-.4 0-.8-.1-1.1-.2-.4-.1-.7-.3-.9-.5l.6-1.1c.4.4.9.6 1.4.6.4 0 .6-.1.9-.3.2-.2.5-.5.6-.9l.3-.6-3.5-7.9h1.5l2.8 6.4 2.8-6.4h1.3zM83.8 202c1.1 0 1.9.3 2.5.8.6.5.9 1.3.9 2.4v4.8h-1.4v-1c-.2.4-.6.7-1 .9-.4.2-1 .3-1.6.3-.9 0-1.6-.2-2.2-.6-.5-.4-.8-1-.8-1.7s.3-1.3.8-1.7c.5-.4 1.3-.6 2.4-.6h2.3v-.3c0-.6-.2-1.1-.5-1.4-.4-.3-.9-.5-1.6-.5-.5 0-.9.1-1.4.2-.5.1-.8.4-1.1.6l-.6-1.1c.4-.3.9-.6 1.5-.7.5-.3 1.1-.4 1.8-.4zm-.3 7c.6 0 1-.1 1.4-.4.4-.2.7-.6.9-1v-1.1h-2.2c-1.2 0-1.8.4-1.8 1.2 0 .4.2.7.5.9.2.3.6.4 1.2.4zM96.7 202.1v7.9h-1.4v-6.7h-3.4l-.1 1.8c-.1 1.1-.1 2-.3 2.7-.1.7-.4 1.3-.7 1.7-.3.4-.8.6-1.3.6-.3 0-.6 0-.9-.1l.1-1.2h.4c.4 0 .7-.2.9-.5.2-.4.3-.8.4-1.2.1-.5.1-1.2.2-2.1l.1-2.9h6zM103.1 204.8c1 0 1.8.2 2.3.7.5.4.8 1.1.8 1.9 0 .9-.3 1.5-.9 2-.6.5-1.4.7-2.5.7h-3.5v-7.9h1.4v2.7l2.4-.1zm-.3 4.1c.7 0 1.1-.1 1.5-.4.3-.3.5-.7.5-1.2s-.2-.9-.5-1.1c-.3-.2-.8-.4-1.5-.4h-1.9v3.1h1.9zM108.1 202.1h1.4v3.4h4.5v-3.4h1.4v7.9H114v-3.3h-4.5v3.3h-1.4v-7.9zM121.2 202c1.1 0 1.9.3 2.5.8.6.5.9 1.3.9 2.4v4.8h-1.4v-1c-.2.4-.6.7-1 .9-.4.2-1 .3-1.6.3-.9 0-1.6-.2-2.2-.6-.5-.4-.8-1-.8-1.7s.3-1.3.8-1.7c.5-.4 1.3-.6 2.4-.6h2.3v-.3c0-.6-.2-1.1-.5-1.4-.4-.3-.9-.5-1.6-.5-.5 0-.9.1-1.4.2-.5.1-.8.4-1.1.6l-.6-1.1c.4-.3.9-.6 1.5-.7.6-.3 1.2-.4 1.8-.4zm-.3 7c.6 0 1-.1 1.4-.4.4-.2.7-.6.9-1v-1.1H121c-1.2 0-1.8.4-1.8 1.2 0 .4.2.7.5.9.2.3.6.4 1.2.4zM133.6 202.1v7.9h-1.3v-2.5h-2.5l-1.7 2.5h-1.6l1.9-2.7c-.6-.2-1.1-.5-1.4-.9-.3-.4-.5-.9-.5-1.6 0-.9.3-1.6.9-2.1.6-.5 1.5-.7 2.6-.7h3.6zm-5.5 2.8c0 .5.2.9.5 1.2.3.2.8.4 1.5.4h2.2v-3.1h-2.2c-1.3-.1-2 .5-2 1.5zM140.5 202.1h1.4v3.4h4.5v-3.4h1.4v7.9h-1.4v-3.3h-4.5v3.3h-1.4v-7.9zM158 206.1v.4h-6.5c.1.7.4 1.3.9 1.7.5.4 1.2.6 2 .6 1 0 1.7-.3 2.3-1l.8.9c-.4.4-.8.7-1.4 1-.5.2-1.1.3-1.8.3-.8 0-1.6-.2-2.2-.5-.7-.3-1.2-.8-1.5-1.5-.4-.6-.5-1.3-.5-2.1s.2-1.5.5-2.1c.4-.6.8-1.1 1.4-1.4.6-.3 1.3-.5 2.1-.5s1.4.2 2 .5c.6.3 1.1.8 1.4 1.4.3.8.5 1.5.5 2.3zm-4-2.9c-.7 0-1.3.2-1.7.6-.5.4-.7 1-.8 1.6h5.1c-.1-.7-.4-1.2-.8-1.6-.5-.4-1.1-.6-1.8-.6zM167.6 202.1v7.9h-1.4v-6.7h-4.5v6.7h-1.4v-7.9h7.3zM177.6 206.1v.4h-6.5c.1.7.4 1.3.9 1.7.5.4 1.2.6 2 .6 1 0 1.7-.3 2.3-1l.8.9c-.4.4-.8.7-1.4 1-.5.2-1.1.3-1.8.3-.8 0-1.6-.2-2.2-.5-.7-.3-1.2-.8-1.5-1.5-.4-.6-.5-1.3-.5-2.1s.2-1.5.5-2.1c.4-.6.8-1.1 1.4-1.4.6-.3 1.3-.5 2.1-.5s1.4.2 2 .5c.6.3 1.1.8 1.4 1.4.3.8.5 1.5.5 2.3zm-3.9-2.9c-.7 0-1.3.2-1.7.6-.5.4-.7 1-.8 1.6h5.1c-.1-.7-.4-1.2-.8-1.6-.6-.4-1.2-.6-1.8-.6zM184.1 202c.8 0 1.5.2 2.1.5.6.3 1.1.8 1.4 1.4.4.6.5 1.3.5 2.1s-.2 1.5-.5 2.1c-.3.6-.8 1.1-1.4 1.4-.6.3-1.3.5-2.1.5-.6 0-1.1-.1-1.6-.3-.5-.2-.9-.5-1.2-1v4.1h-1.4V202h1.4v1.3c.3-.4.7-.8 1.2-1 .4-.2 1-.3 1.6-.3zm-.1 6.8c.5 0 1-.1 1.4-.3.4-.2.7-.6 1-1 .2-.4.4-.9.4-1.5 0-.5-.1-1-.4-1.5-.2-.4-.6-.8-1-1-.4-.2-.9-.3-1.4-.3-.5 0-1 .1-1.4.4-.4.2-.7.6-1 1-.2.4-.3.9-.3 1.5 0 .5.1 1 .3 1.5.2.4.6.7 1 1 .4.1.9.2 1.4.2zM197.4 206.1v.4h-6.5c.1.7.4 1.3.9 1.7.5.4 1.2.6 2 .6 1 0 1.7-.3 2.3-1l.8.9c-.4.4-.8.7-1.4 1-.5.2-1.1.3-1.8.3-.8 0-1.6-.2-2.2-.5-.7-.3-1.2-.8-1.5-1.5-.4-.6-.5-1.3-.5-2.1s.2-1.5.5-2.1c.4-.6.8-1.1 1.4-1.4.6-.3 1.3-.5 2.1-.5s1.4.2 2 .5c.6.3 1.1.8 1.4 1.4.3.8.5 1.5.5 2.3zm-3.9-2.9c-.7 0-1.3.2-1.7.6-.5.4-.7 1-.8 1.6h5.1c-.1-.7-.4-1.2-.8-1.6-.6-.4-1.1-.6-1.8-.6zM199.7 202.1h1.4v3.4h4.5v-3.4h1.4v7.9h-1.4v-3.3h-4.5v3.3h-1.4v-7.9zM213.3 210.1c-.8 0-1.5-.2-2.1-.5-.6-.3-1.1-.8-1.5-1.4-.4-.6-.5-1.3-.5-2.1s.2-1.5.5-2.1c.4-.6.9-1.1 1.5-1.4.6-.3 1.3-.5 2.1-.5s1.5.2 2.1.5c.6.3 1.1.8 1.5 1.4.4.6.5 1.3.5 2.1s-.2 1.5-.5 2.1c-.4.6-.8 1.1-1.5 1.4-.6.3-1.3.5-2.1.5zm0-1.3c.5 0 1-.1 1.4-.3.4-.2.7-.6 1-1 .2-.4.3-.9.3-1.5 0-.5-.1-1-.3-1.5-.2-.4-.6-.8-1-1-.4-.2-.9-.3-1.4-.3-.5 0-1 .1-1.4.3-.4.2-.7.6-1 1-.2.4-.3.9-.3 1.5 0 .5.1 1 .3 1.5.2.4.6.7 1 1 .5.2.9.3 1.4.3zM223 210.1c-.8 0-1.5-.2-2.2-.5-.6-.3-1.1-.8-1.5-1.4-.4-.6-.5-1.3-.5-2.1s.2-1.5.5-2.1c.4-.6.9-1.1 1.5-1.4.6-.3 1.4-.5 2.2-.5.7 0 1.4.1 1.9.4.6.3 1 .7 1.3 1.3l-1.1.7c-.2-.4-.6-.7-.9-.9s-.8-.3-1.2-.3c-.5 0-1 .1-1.4.3-.4.2-.7.6-1 1-.2.4-.3.9-.3 1.5s.1 1.1.3 1.5c.2.4.6.7 1 1 .4.2.9.3 1.4.3.5 0 .9-.1 1.2-.3.4-.2.7-.5.9-.9l1.1.7c-.3.5-.8 1-1.3 1.3-.5.3-1.1.4-1.9.4zM228.2 202.1h1.4v5.8l4.9-5.8h1.3v7.9h-1.4v-5.8l-4.9 5.8h-1.3v-7.9zM247.8 202.1v7.9h-1.3v-5.8l-3 4.9h-.6l-3-4.9v5.8h-1.3v-7.9h1.5l3.1 5.4 3.2-5.4h1.4zM254 210.1c-.8 0-1.5-.2-2.1-.5-.6-.3-1.1-.8-1.5-1.4-.4-.6-.5-1.3-.5-2.1s.2-1.5.5-2.1c.4-.6.9-1.1 1.5-1.4.6-.3 1.3-.5 2.1-.5s1.5.2 2.1.5c.6.3 1.1.8 1.5 1.4.4.6.5 1.3.5 2.1s-.2 1.5-.5 2.1c-.4.6-.8 1.1-1.5 1.4-.6.3-1.3.5-2.1.5zm0-1.3c.5 0 1-.1 1.4-.3.4-.2.7-.6 1-1 .2-.4.3-.9.3-1.5 0-.5-.1-1-.3-1.5-.2-.4-.6-.8-1-1-.4-.2-.9-.3-1.4-.3s-1 .1-1.4.3c-.4.2-.7.6-1 1-.2.4-.3.9-.3 1.5 0 .5.1 1 .3 1.5.2.4.6.7 1 1 .5.2.9.3 1.4.3zM263.7 210.1c-.8 0-1.5-.2-2.2-.5-.6-.3-1.1-.8-1.5-1.4-.4-.6-.5-1.3-.5-2.1s.2-1.5.5-2.1c.4-.6.9-1.1 1.5-1.4.6-.3 1.4-.5 2.2-.5.7 0 1.4.1 1.9.4.6.3 1 .7 1.3 1.3l-1.1.7c-.3-.4-.6-.7-.9-.9-.4-.2-.8-.3-1.2-.3-.5 0-1 .1-1.4.3-.4.2-.7.6-1 1-.2.4-.3.9-.3 1.5s.1 1.1.3 1.5c.2.4.6.7 1 1 .4.2.9.3 1.4.3.5 0 .9-.1 1.2-.3.4-.2.7-.5.9-.9l1.1.7c-.3.5-.8 1-1.3 1.3-.5.3-1.1.4-1.9.4zM274.7 203.3h-2.9v6.7h-1.4v-6.7h-2.9V202h7.3v1.3zM279.9 204.8c1 0 1.8.2 2.3.7.5.4.8 1.1.8 1.9 0 .9-.3 1.5-.9 2-.6.5-1.4.7-2.5.7h-3.5v-7.9h1.4v2.7l2.4-.1zm-.4 4.1c.7 0 1.1-.1 1.5-.4.3-.3.5-.7.5-1.2s-.2-.9-.5-1.1c-.3-.2-.8-.4-1.5-.4h-1.9v3.1h1.9zM4.8 224.7H3.2v3.4H1.7v-7.9h1.4v3.4h1.7l2.6-3.4H9L6 224l3.2 4.1H7.5l-2.7-3.4zM13.9 228.1c-.8 0-1.5-.2-2.1-.5-.6-.3-1.1-.8-1.5-1.4-.4-.6-.5-1.3-.5-2.1s.2-1.5.5-2.1c.4-.6.9-1.1 1.5-1.4.6-.3 1.3-.5 2.1-.5s1.5.2 2.1.5c.6.3 1.1.8 1.5 1.4.4.6.5 1.3.5 2.1s-.2 1.5-.5 2.1c-.4.6-.8 1.1-1.5 1.4-.6.4-1.3.5-2.1.5zm0-1.2c.5 0 1-.1 1.4-.3.4-.2.7-.6 1-1 .2-.4.3-.9.3-1.5s-.1-1-.3-1.5c-.2-.4-.6-.8-1-1-.4-.2-.9-.3-1.4-.3s-1 .1-1.4.3c-.4.2-.7.6-1 1-.2.4-.3.9-.3 1.5s.1 1 .3 1.5c.2.4.6.7 1 1 .4.2.9.3 1.4.3zM29.3 220.1v7.9H28v-5.8l-3 4.9h-.6l-3-4.9v5.8h-1.3v-7.9h1.5l3.1 5.4 3.2-5.4h1.4zM39.5 220.1v7.9h-1.4v-6.7h-4.5v6.7h-1.4v-7.9h7.3zM45.7 228.1c-.8 0-1.5-.2-2.1-.5-.6-.3-1.1-.8-1.5-1.4-.4-.6-.5-1.3-.5-2.1s.2-1.5.5-2.1c.4-.6.9-1.1 1.5-1.4.6-.3 1.3-.5 2.1-.5s1.5.2 2.1.5c.6.3 1.1.8 1.5 1.4.4.6.5 1.3.5 2.1s-.2 1.5-.5 2.1c-.4.6-.8 1.1-1.5 1.4-.6.4-1.3.5-2.1.5zm0-1.2c.5 0 1-.1 1.4-.3.4-.2.7-.6 1-1 .2-.4.3-.9.3-1.5s-.1-1-.3-1.5c-.2-.4-.6-.8-1-1-.4-.2-.9-.3-1.4-.3-.5 0-1 .1-1.4.3-.4.2-.7.6-1 1-.2.4-.3.9-.3 1.5s.1 1 .3 1.5c.2.4.6.7 1 1 .5.2.9.3 1.4.3zM52 220.1h1.4v3.4H58v-3.4h1.4v7.9H58v-3.3h-4.5v3.3H52v-7.9zM69.4 224.1v.4h-6.5c.1.7.4 1.3.9 1.7.5.4 1.2.6 2 .6 1 0 1.7-.3 2.3-1l.8.9c-.4.4-.8.7-1.4 1-.5.2-1.1.3-1.8.3-.8 0-1.6-.2-2.2-.5-.7-.4-1.2-.8-1.5-1.5-.4-.6-.5-1.3-.5-2.1s.2-1.5.5-2.1c.4-.6.8-1.1 1.4-1.4.6-.3 1.3-.5 2.1-.5s1.4.2 2 .5c.6.3 1.1.8 1.4 1.4.4.8.5 1.5.5 2.3zm-3.9-2.9c-.7 0-1.3.2-1.7.6-.5.4-.7 1-.8 1.6h5c-.1-.7-.4-1.2-.8-1.6-.4-.3-1-.6-1.7-.6zM71.7 220.1h1.4v3.4h4.5v-3.4H79v7.9h-1.4v-3.3h-4.5v3.3h-1.4v-7.9zM87.9 221.4H85v6.7h-1.4v-6.7h-2.9v-1.3H88v1.3zM92.4 228.1c-.8 0-1.5-.2-2.1-.5-.6-.3-1.1-.8-1.5-1.4-.4-.6-.5-1.3-.5-2.1s.2-1.5.5-2.1c.4-.6.9-1.1 1.5-1.4.6-.3 1.3-.5 2.1-.5s1.5.2 2.1.5c.6.3 1.1.8 1.5 1.4.4.6.5 1.3.5 2.1s-.2 1.5-.5 2.1c-.4.6-.8 1.1-1.5 1.4-.6.4-1.3.5-2.1.5zm0-1.2c.5 0 1-.1 1.4-.3.4-.2.7-.6 1-1 .2-.4.3-.9.3-1.5s-.1-1-.3-1.5c-.2-.4-.6-.8-1-1-.4-.2-.9-.3-1.4-.3-.5 0-1 .1-1.4.3-.4.2-.7.6-1 1-.2.4-.3.9-.3 1.5s.1 1 .3 1.5c.2.4.6.7 1 1 .4.2.9.3 1.4.3zM104.1 223.9c1 .3 1.6.9 1.6 1.9 0 .7-.3 1.2-.8 1.6-.5.4-1.3.6-2.3.6h-3.8v-7.9h3.7c.9 0 1.7.2 2.2.5.5.3.8.8.8 1.5 0 .4-.1.8-.3 1.1-.4.3-.7.6-1.1.7zm-4-.4h2.2c.6 0 1-.1 1.2-.3.3-.2.4-.5.4-.9 0-.8-.6-1.1-1.7-1.1H100v2.3zm2.3 3.4c.6 0 1.1-.1 1.4-.3.3-.2.5-.5.5-.9s-.1-.7-.4-.9c-.3-.2-.7-.3-1.3-.3h-2.4v2.4h2.2zM108.2 226.1c.3 0 .5.1.7.3.2.2.3.4.3.7 0 .1 0 .3-.1.4 0 .1-.1.4-.2.6l-.7 2.1h-.9l.6-2.2c-.2-.1-.3-.2-.5-.3-.1-.2-.2-.4-.2-.6 0-.3.1-.5.3-.7.2-.2.4-.3.7-.3zM119.4 220.4c.7 0 1.4.2 2 .5.6.3 1 .8 1.4 1.4.3.6.5 1.2.5 2s-.2 1.5-.5 2.1c-.3.6-.8 1-1.5 1.4-.6.3-1.3.5-2.1.5-1.4 0-2.4-.5-3.1-1.4-.7-.9-1.1-2.2-1.1-3.9 0-1.6.3-2.9 1-3.8.7-.9 1.7-1.5 3.1-1.8l3.6-.8.2 1.3-3.4.7c-1 .2-1.8.6-2.3 1.2-.5.6-.8 1.3-.9 2.4.3-.5.8-.9 1.3-1.2.5-.5 1.1-.6 1.8-.6zm-.3 6.6c.5 0 1-.1 1.4-.3.4-.2.7-.5.9-.9.2-.4.3-.9.3-1.4 0-.8-.2-1.4-.7-1.9-.5-.5-1.1-.7-1.9-.7-.8 0-1.4.2-1.9.7-.5.5-.7 1.1-.7 1.9 0 .5.1 1 .3 1.4.2.4.5.7.9.9.5.1.9.3 1.4.3zM132.5 224.1v.4H126c.1.7.4 1.3.9 1.7.5.4 1.2.6 2 .6 1 0 1.7-.3 2.3-1l.8.9c-.4.4-.8.7-1.4 1-.5.2-1.1.3-1.8.3-.8 0-1.6-.2-2.2-.5-.7-.4-1.2-.8-1.5-1.5-.4-.6-.5-1.3-.5-2.1s.2-1.5.5-2.1c.4-.6.8-1.1 1.4-1.4.6-.3 1.3-.5 2.1-.5s1.4.2 2 .5c.6.3 1.1.8 1.4 1.4.3.8.5 1.5.5 2.3zm-3.9-2.9c-.7 0-1.3.2-1.7.6-.5.4-.7 1-.8 1.6h5.1c-.1-.7-.4-1.2-.8-1.6-.6-.3-1.1-.6-1.8-.6zM139 220c.8 0 1.5.2 2.1.5.6.3 1.1.8 1.4 1.4.4.6.5 1.3.5 2.1s-.2 1.5-.5 2.1c-.3.6-.8 1.1-1.4 1.4-.6.3-1.3.5-2.1.5-.6 0-1.1-.1-1.6-.3-.5-.2-.9-.5-1.2-1v4.1h-1.4V220h1.4v1.3c.3-.4.7-.8 1.2-1 .5-.2 1-.3 1.6-.3zm-.1 6.9c.5 0 1-.1 1.4-.3.4-.2.7-.6 1-1 .2-.4.4-.9.4-1.5s-.1-1-.4-1.5c-.2-.4-.6-.8-1-1-.4-.2-.9-.3-1.4-.3-.5 0-1 .1-1.4.4-.4.2-.7.6-1 1-.2.4-.3.9-.3 1.5s.1 1 .3 1.5c.2.4.6.7 1 1 .4.1.9.2 1.4.2zM152.3 224.1v.4h-6.5c.1.7.4 1.3.9 1.7.5.4 1.2.6 2 .6 1 0 1.7-.3 2.3-1l.8.9c-.4.4-.8.7-1.4 1-.5.2-1.1.3-1.8.3-.8 0-1.6-.2-2.2-.5-.7-.4-1.2-.8-1.5-1.5-.4-.6-.5-1.3-.5-2.1s.2-1.5.5-2.1c.4-.6.8-1.1 1.4-1.4.6-.3 1.3-.5 2.1-.5s1.4.2 2 .5c.6.3 1.1.8 1.4 1.4.4.8.5 1.5.5 2.3zm-3.9-2.9c-.7 0-1.3.2-1.7.6-.5.4-.7 1-.8 1.6h5.1c-.1-.7-.4-1.2-.8-1.6-.5-.3-1.1-.6-1.8-.6zM163.8 220.1v7.9h-1.3v-5.8l-3 4.9h-.6l-3-4.9v5.8h-1.3v-7.9h1.5l3.1 5.4 3.2-5.4h1.4zM173.8 224.1v.4h-6.5c.1.7.4 1.3.9 1.7.5.4 1.2.6 2 .6 1 0 1.7-.3 2.3-1l.8.9c-.4.4-.8.7-1.4 1-.5.2-1.1.3-1.8.3-.8 0-1.6-.2-2.2-.5-.7-.4-1.2-.8-1.5-1.5-.4-.6-.5-1.3-.5-2.1s.2-1.5.5-2.1c.4-.6.8-1.1 1.4-1.4.6-.3 1.3-.5 2.1-.5s1.4.2 2 .5c.6.3 1.1.8 1.4 1.4.3.8.5 1.5.5 2.3zm-3.9-2.9c-.7 0-1.3.2-1.7.6-.5.4-.7 1-.8 1.6h5.1c-.1-.7-.4-1.2-.8-1.6-.6-.3-1.1-.6-1.8-.6zM176 220.1h1.4v3.4h4.5v-3.4h1.4v7.9H182v-3.3h-4.5v3.3H176v-7.9zM186.3 220.1h1.4v3.4h4.5v-3.4h1.4v7.9h-1.4v-3.3h-4.5v3.3h-1.4v-7.9zM200 228.1c-.8 0-1.5-.2-2.1-.5-.6-.3-1.1-.8-1.5-1.4-.4-.6-.5-1.3-.5-2.1s.2-1.5.5-2.1c.4-.6.9-1.1 1.5-1.4.6-.3 1.3-.5 2.1-.5s1.5.2 2.1.5c.6.3 1.1.8 1.5 1.4.4.6.5 1.3.5 2.1s-.2 1.5-.5 2.1c-.4.6-.8 1.1-1.5 1.4-.6.4-1.3.5-2.1.5zm0-1.2c.5 0 1-.1 1.4-.3.4-.2.7-.6 1-1 .2-.4.3-.9.3-1.5s-.1-1-.3-1.5c-.2-.4-.6-.8-1-1-.4-.2-.9-.3-1.4-.3-.5 0-1 .1-1.4.3-.4.2-.7.6-1 1-.2.4-.3.9-.3 1.5s.1 1 .3 1.5c.2.4.6.7 1 1 .4.2.9.3 1.4.3zM209.7 228.1c-.8 0-1.5-.2-2.2-.5-.6-.3-1.1-.8-1.5-1.4-.4-.6-.5-1.3-.5-2.1s.2-1.5.5-2.1c.4-.6.9-1.1 1.5-1.4.6-.3 1.4-.5 2.2-.5.7 0 1.4.1 1.9.4.6.3 1 .7 1.3 1.3l-1.1.7c-.3-.4-.6-.7-.9-.9-.4-.2-.8-.3-1.2-.3-.5 0-1 .1-1.4.3-.4.2-.7.6-1 1-.2.4-.3.9-.3 1.5s.1 1.1.3 1.5c.2.4.6.7 1 1 .4.2.9.3 1.4.3.5 0 .9-.1 1.2-.3.4-.2.7-.5.9-.9l1.1.7c-.3.5-.8 1-1.3 1.3-.6.3-1.2.4-1.9.4zM220.6 221.4h-2.9v6.7h-1.4v-6.7h-2.9v-1.3h7.3v1.3zM225.8 222.8c1 0 1.8.2 2.3.7.5.4.8 1.1.8 1.9 0 .9-.3 1.5-.9 2-.6.5-1.4.7-2.5.7H222v-7.9h1.4v2.7l2.4-.1zm-.3 4.2c.7 0 1.1-.1 1.5-.4.3-.3.5-.7.5-1.2s-.2-.9-.5-1.1c-.3-.2-.8-.4-1.5-.4h-1.9v3.1h1.9zM231 226.1c.3 0 .5.1.7.3.2.2.3.4.3.7 0 .1 0 .3-.1.4 0 .1-.1.4-.2.6l-.7 2.1h-.9l.6-2.2c-.2-.1-.3-.2-.5-.3-.1-.2-.2-.4-.2-.6 0-.3.1-.5.3-.7.2-.2.4-.3.7-.3zM4.8 242.7H3.2v3.4H1.7v-7.9h1.4v3.4h1.7l2.6-3.4H9L6 242l3.2 4.1H7.5l-2.7-3.4zM13.9 246.2c-.8 0-1.5-.2-2.1-.5-.6-.3-1.1-.8-1.5-1.4-.4-.6-.5-1.3-.5-2.1s.2-1.5.5-2.1c.4-.6.9-1.1 1.5-1.4.6-.3 1.3-.5 2.1-.5s1.5.2 2.1.5c.6.3 1.1.8 1.5 1.4.4.6.5 1.3.5 2.1s-.2 1.5-.5 2.1c-.4.6-.8 1.1-1.5 1.4-.6.3-1.3.5-2.1.5zm0-1.3c.5 0 1-.1 1.4-.3.4-.2.7-.6 1-1 .2-.4.3-.9.3-1.5 0-.5-.1-1-.3-1.5-.2-.4-.6-.8-1-1-.4-.2-.9-.3-1.4-.3s-1 .1-1.4.3c-.4.2-.7.6-1 1-.2.4-.3.9-.3 1.5 0 .5.1 1 .3 1.5.2.4.6.7 1 1 .4.2.9.3 1.4.3zM24.3 238.1c.8 0 1.5.2 2.1.5.6.3 1.1.8 1.4 1.4.4.6.5 1.3.5 2.1s-.2 1.5-.5 2.1c-.3.6-.8 1.1-1.4 1.4-.6.3-1.3.5-2.1.5-.6 0-1.1-.1-1.6-.3-.5-.2-.9-.5-1.2-1v4.1h-1.4v-10.8h1.4v1.3c.3-.4.7-.8 1.2-1 .5-.2 1.1-.3 1.6-.3zm-.1 6.8c.5 0 1-.1 1.4-.3.4-.2.7-.6 1-1 .2-.4.4-.9.4-1.5 0-.5-.1-1-.4-1.5-.2-.4-.6-.8-1-1-.4-.2-.9-.3-1.4-.3-.5 0-1 .1-1.4.4-.4.2-.7.6-1 1-.2.4-.3.9-.3 1.5 0 .5.1 1 .3 1.5.2.4.6.7 1 1 .5.1.9.2 1.4.2zM39.7 238.1v7.9h-1.3v-5.8l-3 4.9h-.6l-3-4.9v5.8h-1.3v-7.9H32l3.1 5.4 3.2-5.4h1.4zM49.3 238.1v7.9h-1.4v-6.7h-3.4l-.1 1.8c-.1 1.1-.1 2-.3 2.7-.1.7-.4 1.3-.7 1.7-.3.4-.8.6-1.3.6-.3 0-.6 0-.9-.1l.1-1.2h.4c.4 0 .7-.2.9-.5.2-.4.3-.8.4-1.2.1-.5.1-1.2.2-2.1l.1-2.9h6zM59.4 242.1v.4h-6.5c.1.7.4 1.3.9 1.7.5.4 1.2.6 2 .6 1 0 1.7-.3 2.3-1l.8.9c-.4.4-.8.7-1.4 1-.5.2-1.1.3-1.8.3-.8 0-1.6-.2-2.2-.5-.7-.3-1.2-.8-1.5-1.5-.4-.6-.5-1.3-.5-2.1s.2-1.5.5-2.1c.4-.6.8-1.1 1.4-1.4.6-.3 1.3-.5 2.1-.5s1.4.2 2 .5c.6.3 1.1.8 1.4 1.4.3.8.5 1.5.5 2.3zm-4-2.8c-.7 0-1.3.2-1.7.6-.5.4-.7 1-.8 1.6H58c-.1-.7-.4-1.2-.8-1.6-.5-.4-1.1-.6-1.8-.6zM61.6 238.1H63v3.4h4.5v-3.4H69v7.9h-1.4v-3.3H63v3.3h-1.4v-7.9zM71.8 238.1h1.4v5.8l4.9-5.8h1.3v7.9H78v-5.8l-4.9 5.8h-1.3v-7.9zM89.5 242.1v.4H83c.1.7.4 1.3.9 1.7.5.4 1.2.6 2 .6 1 0 1.7-.3 2.3-1l.8.9c-.4.4-.8.7-1.4 1-.5.2-1.1.3-1.8.3-.8 0-1.6-.2-2.2-.5-.7-.3-1.2-.8-1.5-1.5-.4-.6-.5-1.3-.5-2.1s.2-1.5.5-2.1c.4-.6.8-1.1 1.4-1.4.6-.3 1.3-.5 2.1-.5s1.4.2 2 .5c.6.3 1.1.8 1.4 1.4.3.8.5 1.5.5 2.3zm-3.9-2.8c-.7 0-1.3.2-1.7.6-.5.4-.7 1-.8 1.6h5.1c-.1-.7-.4-1.2-.8-1.6-.6-.4-1.1-.6-1.8-.6zM101.7 239.4h-4.4v6.7h-1.4v-7.9h5.9v1.2zM107.4 238.1c.8 0 1.5.2 2.1.5.6.3 1.1.8 1.4 1.4.4.6.5 1.3.5 2.1s-.2 1.5-.5 2.1c-.3.6-.8 1.1-1.4 1.4-.6.3-1.3.5-2.1.5-.6 0-1.1-.1-1.6-.3-.5-.2-.9-.5-1.2-1v4.1h-1.4v-10.8h1.4v1.3c.3-.4.7-.8 1.2-1 .4-.2 1-.3 1.6-.3zm-.1 6.8c.5 0 1-.1 1.4-.3.4-.2.7-.6 1-1 .2-.4.4-.9.4-1.5 0-.5-.1-1-.4-1.5-.2-.4-.6-.8-1-1-.4-.2-.9-.3-1.4-.3-.5 0-1 .1-1.4.4-.4.2-.7.6-1 1-.2.4-.3.9-.3 1.5 0 .5.1 1 .3 1.5.2.4.6.7 1 1 .4.1.9.2 1.4.2zM120.4 238.1l-3.9 8.7c-.3.8-.7 1.4-1.2 1.7-.5.3-1 .5-1.6.5-.4 0-.8-.1-1.1-.2-.4-.1-.7-.3-.9-.5l.6-1.1c.4.4.9.6 1.4.6.4 0 .6-.1.9-.3.2-.2.5-.5.6-.9l.3-.6-3.5-7.9h1.5l2.8 6.4 2.8-6.4h1.3zM129.6 244.8v3.1h-1.4v-1.8h-6.7v1.8h-1.4v-3.1h.4c.5 0 .9-.4 1.1-1.1.2-.7.3-1.7.4-2.9l.1-2.7h6.2v6.7h1.3zm-6.2-3.9c0 1-.1 1.8-.3 2.5-.1.6-.3 1.1-.7 1.4h4.5v-5.4h-3.5v1.5zM135.2 240.8c1 0 1.8.2 2.3.7.5.4.8 1.1.8 1.9 0 .9-.3 1.5-.9 2-.6.5-1.4.7-2.5.7h-3.5v-7.9h1.4v2.7l2.4-.1zm-.4 4.2c.7 0 1.1-.1 1.5-.4.3-.3.5-.7.5-1.2s-.2-.9-.5-1.1c-.3-.2-.8-.4-1.5-.4h-1.9v3.1h1.9zM147.2 238.1c.8 0 1.5.2 2.1.5.6.3 1.1.8 1.4 1.4.4.6.5 1.3.5 2.1s-.2 1.5-.5 2.1c-.4.6-.8 1.1-1.4 1.4-.6.3-1.3.5-2.1.5-.7 0-1.3-.1-1.9-.4-.6-.3-1-.7-1.4-1.2-.4-.5-.6-1.1-.7-1.8h-1.6v3.4h-1.4v-7.9h1.4v3.2h1.6c.1-.7.3-1.2.7-1.7.4-.5.8-.9 1.4-1.2.6-.3 1.2-.4 1.9-.4zm0 6.8c.5 0 .9-.1 1.3-.3.4-.2.7-.6.9-1 .2-.4.3-.9.3-1.5 0-.5-.1-1-.3-1.5-.2-.4-.5-.8-.9-1-.4-.2-.8-.3-1.3-.3s-.9.1-1.3.3c-.4.2-.7.6-.9 1-.2.4-.3.9-.3 1.5s.1 1.1.3 1.5c.2.4.5.7.9 1 .4.2.8.3 1.3.3zM153.5 244.1c.3 0 .5.1.7.3.2.2.3.4.3.7 0 .1 0 .3-.1.4 0 .1-.1.4-.2.6l-.7 2.1h-.9l.6-2.2c-.2-.1-.3-.2-.5-.3-.1-.2-.2-.4-.2-.6 0-.3.1-.5.3-.7.1-.2.4-.3.7-.3zM168 238.1v7.9h-1.4v-6.7H162v6.7h-1.4v-7.9h7.4zM174.2 246.2c-.8 0-1.5-.2-2.1-.5-.6-.3-1.1-.8-1.5-1.4-.4-.6-.5-1.3-.5-2.1s.2-1.5.5-2.1c.4-.6.9-1.1 1.5-1.4.6-.3 1.3-.5 2.1-.5s1.5.2 2.1.5c.6.3 1.1.8 1.5 1.4.4.6.5 1.3.5 2.1s-.2 1.5-.5 2.1c-.4.6-.8 1.1-1.5 1.4-.6.3-1.3.5-2.1.5zm0-1.3c.5 0 1-.1 1.4-.3.4-.2.7-.6 1-1 .2-.4.3-.9.3-1.5 0-.5-.1-1-.3-1.5-.2-.4-.6-.8-1-1-.4-.2-.9-.3-1.4-.3-.5 0-1 .1-1.4.3-.4.2-.7.6-1 1-.2.4-.3.9-.3 1.5 0 .5.1 1 .3 1.5.2.4.6.7 1 1 .4.2.9.3 1.4.3zM185.9 241.9c1 .3 1.6.9 1.6 1.9 0 .7-.3 1.2-.8 1.6-.5.4-1.3.6-2.3.6h-3.8v-7.9h3.7c.9 0 1.7.2 2.2.5.5.3.8.8.8 1.5 0 .4-.1.8-.3 1.1-.4.4-.7.6-1.1.7zm-4.1-.4h2.2c.6 0 1-.1 1.2-.3.3-.2.4-.5.4-.9 0-.8-.6-1.1-1.7-1.1h-2.2v2.3zm2.4 3.5c.6 0 1.1-.1 1.4-.3.3-.2.5-.5.5-.9s-.1-.7-.4-.9c-.3-.2-.7-.3-1.3-.3H182v2.4h2.2zM193.3 240.8c1 0 1.8.2 2.3.7.5.4.8 1.1.8 1.9 0 .9-.3 1.5-.9 2-.6.5-1.4.7-2.5.7h-3.4v-7.9h1.4v2.7l2.3-.1zm4.3-2.7h1.4v7.9h-1.4v-7.9zm-4.7 6.9c.7 0 1.1-.1 1.5-.4.3-.3.5-.7.5-1.2s-.2-.9-.5-1.1c-.3-.2-.8-.4-1.5-.4h-1.8v3.1h1.8zM213.2 238.1v7.9h-11.4v-7.9h1.4v6.7h3.5v-6.7h1.4v6.7h3.5v-6.7h1.6zM223.2 242.1v.4h-6.5c.1.7.4 1.3.9 1.7.5.4 1.2.6 2 .6 1 0 1.7-.3 2.3-1l.8.9c-.4.4-.8.7-1.4 1-.5.2-1.1.3-1.8.3-.8 0-1.6-.2-2.2-.5-.7-.3-1.2-.8-1.5-1.5-.4-.6-.5-1.3-.5-2.1s.2-1.5.5-2.1c.4-.6.8-1.1 1.4-1.4.6-.3 1.3-.5 2.1-.5s1.4.2 2 .5c.6.3 1.1.8 1.4 1.4.3.8.5 1.5.5 2.3zm-3.9-2.8c-.7 0-1.3.2-1.7.6-.5.4-.7 1-.8 1.6h5.1c-.1-.7-.4-1.2-.8-1.6-.6-.4-1.1-.6-1.8-.6zM225.5 238.1h1.4v3.4h4.5v-3.4h1.4v7.9h-1.4v-3.3h-4.5v3.3h-1.4v-7.9zM235.7 238.1h1.4v3.4h4.5v-3.4h1.4v7.9h-1.4v-3.3h-4.5v3.3h-1.4v-7.9zM248.8 238.1c1.1 0 1.9.3 2.5.8.6.5.9 1.3.9 2.4v4.8h-1.4v-1c-.2.4-.6.7-1 .9-.4.2-1 .3-1.6.3-.9 0-1.6-.2-2.2-.6-.5-.4-.8-1-.8-1.7s.3-1.3.8-1.7c.5-.4 1.3-.6 2.4-.6h2.3v-.3c0-.6-.2-1.1-.5-1.4-.4-.3-.9-.5-1.6-.5-.5 0-.9.1-1.4.2-.5.1-.8.4-1.1.6l-.6-1.1c.4-.3.9-.6 1.5-.7.5-.4 1.2-.4 1.8-.4zm-.3 6.9c.6 0 1-.1 1.4-.4.4-.2.7-.6.9-1v-1.1h-2.2c-1.2 0-1.8.4-1.8 1.2 0 .4.2.7.5.9.2.3.6.4 1.2.4zM261.2 238.1v7.9h-1.3v-2.5h-2.5l-1.7 2.5h-1.6l1.9-2.7c-.6-.2-1.1-.5-1.4-.9-.3-.4-.5-.9-.5-1.6 0-.9.3-1.6.9-2.1.6-.5 1.5-.7 2.6-.7h3.6zm-5.5 2.9c0 .5.2.9.5 1.2.3.2.8.4 1.5.4h2.2v-3.1h-2.2c-1.3-.1-2 .4-2 1.5zM5.2 264.2c-.8 0-1.5-.2-2.2-.5-.6-.4-1.1-.8-1.5-1.4-.4-.6-.5-1.3-.5-2.1s.2-1.5.5-2.1c.4-.6.9-1.1 1.5-1.4.6-.4 1.4-.5 2.2-.5.7 0 1.4.1 1.9.4.6.3 1 .7 1.3 1.3l-1.1.7c-.3-.4-.6-.7-.9-.9-.4-.2-.8-.3-1.2-.3-.5 0-1 .1-1.4.3-.4.2-.7.6-1 1-.2.4-.3.9-.3 1.5s.1 1.1.3 1.5c.2.4.6.7 1 1 .4.2.9.3 1.4.3.5 0 .9-.1 1.2-.3.4-.2.7-.5.9-.9l1.1.7c-.3.5-.8 1-1.3 1.3-.5.2-1.2.4-1.9.4zM13.4 260.7h-1.7v3.4h-1.4v-7.9h1.4v3.4h1.7l2.6-3.4h1.6l-3 3.8 3.2 4.1h-1.7l-2.7-3.4zM26.2 256.2v7.9h-1.4v-6.7h-3.4l-.1 1.8c-.1 1.1-.1 2-.3 2.7-.1.7-.4 1.3-.7 1.7-.3.4-.8.6-1.3.6-.3 0-.6 0-.9-.1l.1-1.2h.4c.4 0 .7-.2.9-.5.2-.4.3-.8.4-1.2.1-.5.1-1.2.2-2.1l.1-2.9h6zM32.4 264.2c-.8 0-1.5-.2-2.1-.5-.6-.4-1.1-.8-1.5-1.4-.4-.6-.5-1.3-.5-2.1s.2-1.5.5-2.1c.4-.6.9-1.1 1.5-1.4.6-.4 1.3-.5 2.1-.5s1.5.2 2.1.5c.6.3 1.1.8 1.5 1.4.4.6.5 1.3.5 2.1s-.2 1.5-.5 2.1c-.4.6-.8 1.1-1.5 1.4-.6.3-1.3.5-2.1.5zm0-1.3c.5 0 1-.1 1.4-.3.4-.2.7-.6 1-1 .2-.4.3-.9.3-1.5s-.1-1-.3-1.5c-.2-.4-.6-.8-1-1-.4-.2-.9-.3-1.4-.3-.5 0-1 .1-1.4.3-.4.2-.7.6-1 1-.2.4-.3.9-.3 1.5s.1 1 .3 1.5c.2.4.6.7 1 1 .4.2.9.3 1.4.3zM38.6 256.2H40v3.4h4.5v-3.4h1.4v7.9h-1.4v-3.3H40v3.3h-1.4v-7.9zM48.9 256.2h1.4v3.4h4.5v-3.4h1.4v7.9h-1.4v-3.3h-4.5v3.3h-1.4v-7.9zM62.5 264.2c-.8 0-1.5-.2-2.1-.5-.6-.4-1.1-.8-1.5-1.4-.4-.6-.5-1.3-.5-2.1s.2-1.5.5-2.1c.4-.6.9-1.1 1.5-1.4.6-.4 1.3-.5 2.1-.5s1.5.2 2.1.5c.6.3 1.1.8 1.5 1.4.4.6.5 1.3.5 2.1s-.2 1.5-.5 2.1c-.4.6-.8 1.1-1.5 1.4-.6.3-1.3.5-2.1.5zm0-1.3c.5 0 1-.1 1.4-.3.4-.2.7-.6 1-1 .2-.4.3-.9.3-1.5s-.1-1-.3-1.5c-.2-.4-.6-.8-1-1-.4-.2-.9-.3-1.4-.3-.5 0-1 .1-1.4.3-.4.2-.7.6-1 1-.2.4-.3.9-.3 1.5s.1 1 .3 1.5c.2.4.6.7 1 1 .5.2.9.3 1.4.3zM72.2 264.2c-.8 0-1.5-.2-2.2-.5-.6-.4-1.1-.8-1.5-1.4-.4-.6-.5-1.3-.5-2.1s.2-1.5.5-2.1c.4-.6.9-1.1 1.5-1.4.6-.4 1.4-.5 2.2-.5.7 0 1.4.1 1.9.4.6.3 1 .7 1.3 1.3l-1.1.7c-.3-.4-.6-.7-.9-.9-.4-.2-.8-.3-1.2-.3-.5 0-1 .1-1.4.3-.4.2-.7.6-1 1-.2.4-.3.9-.3 1.5s.1 1.1.3 1.5c.2.4.6.7 1 1 .4.2.9.3 1.4.3.5 0 .9-.1 1.2-.3.4-.2.7-.5.9-.9l1.1.7c-.3.5-.8 1-1.3 1.3-.5.2-1.1.4-1.9.4zM83.2 257.4h-2.9v6.7h-1.4v-6.7H76v-1.3h7.3v1.3zM88.4 258.9c1 0 1.8.2 2.3.7.5.4.8 1.1.8 1.9 0 .9-.3 1.5-.9 2-.6.5-1.4.7-2.5.7h-3.5v-7.9H86v2.7l2.4-.1zM88 263c.7 0 1.1-.1 1.5-.4.3-.3.5-.7.5-1.2s-.2-.9-.5-1.1c-.3-.2-.8-.4-1.5-.4h-1.9v3.1H88zM100.5 260.7h-1.7v3.4h-1.4v-7.9h1.4v3.4h1.7l2.6-3.4h1.5l-3 3.8 3.2 4.1h-1.7l-2.6-3.4zM116.4 257.4h-2.9v6.7H112v-6.7h-2.9v-1.3h7.3v1.3zM122.1 256.1c.8 0 1.5.2 2.1.5.6.3 1.1.8 1.4 1.4.4.6.5 1.3.5 2.1s-.2 1.5-.5 2.1c-.3.6-.8 1.1-1.4 1.4-.6.3-1.3.5-2.1.5-.6 0-1.1-.1-1.6-.3-.5-.2-.9-.5-1.2-1v4.1h-1.4v-10.8h1.4v1.3c.3-.4.7-.8 1.2-1 .5-.2 1-.3 1.6-.3zm-.1 6.8c.5 0 1-.1 1.4-.3.4-.2.7-.6 1-1 .2-.4.4-.9.4-1.5s-.1-1-.4-1.5c-.2-.4-.6-.8-1-1-.4-.2-.9-.3-1.4-.3-.5 0-1 .1-1.4.4-.4.2-.7.6-1 1-.2.4-.3.9-.3 1.5s.1 1 .3 1.5c.2.4.6.7 1 1 .4.1.9.2 1.4.2zM131.6 264.2c-.8 0-1.5-.2-2.1-.5-.6-.4-1.1-.8-1.5-1.4-.4-.6-.5-1.3-.5-2.1s.2-1.5.5-2.1c.4-.6.9-1.1 1.5-1.4.6-.4 1.3-.5 2.1-.5s1.5.2 2.1.5c.6.3 1.1.8 1.5 1.4.4.6.5 1.3.5 2.1s-.2 1.5-.5 2.1c-.4.6-.8 1.1-1.5 1.4-.5.3-1.3.5-2.1.5zm0-1.3c.5 0 1-.1 1.4-.3.4-.2.7-.6 1-1 .2-.4.3-.9.3-1.5s-.1-1-.3-1.5c-.2-.4-.6-.8-1-1-.4-.2-.9-.3-1.4-.3-.5 0-1 .1-1.4.3-.4.2-.7.6-1 1-.2.4-.3.9-.3 1.5s.1 1 .3 1.5c.2.4.6.7 1 1 .5.2.9.3 1.4.3zM147.1 256.2v7.9h-1.3v-5.8l-3 4.9h-.6l-3-4.9v5.8h-1.3v-7.9h1.5l3.1 5.4 3.2-5.4h1.4zM154 256.4c.7 0 1.4.2 2 .5.6.3 1 .8 1.4 1.4.3.6.5 1.2.5 2s-.2 1.5-.5 2.1c-.3.6-.8 1-1.5 1.4-.6.3-1.3.5-2.1.5-1.4 0-2.4-.5-3.1-1.4-.7-.9-1.1-2.2-1.1-3.9 0-1.6.3-2.9 1-3.8.7-.9 1.7-1.5 3.1-1.8l3.6-.8.2 1.3-3.4.7c-1 .2-1.8.6-2.3 1.2-.5.6-.8 1.3-.9 2.4.3-.5.8-.9 1.3-1.2.5-.4 1.1-.6 1.8-.6zm-.3 6.6c.5 0 1-.1 1.4-.3.4-.2.7-.5.9-.9.2-.4.3-.9.3-1.4 0-.8-.2-1.4-.7-1.9-.5-.5-1.1-.7-1.9-.7-.8 0-1.4.2-1.9.7-.5.5-.7 1.1-.7 1.9 0 .5.1 1 .3 1.4.2.4.5.7.9.9.4.2.9.3 1.4.3zM163.3 264.2c-.8 0-1.5-.2-2.1-.5-.6-.4-1.1-.8-1.5-1.4-.4-.6-.5-1.3-.5-2.1s.2-1.5.5-2.1c.4-.6.9-1.1 1.5-1.4.6-.4 1.3-.5 2.1-.5s1.5.2 2.1.5c.6.3 1.1.8 1.5 1.4.4.6.5 1.3.5 2.1s-.2 1.5-.5 2.1c-.4.6-.8 1.1-1.5 1.4-.6.3-1.3.5-2.1.5zm0-1.3c.5 0 1-.1 1.4-.3.4-.2.7-.6 1-1 .2-.4.3-.9.3-1.5s-.1-1-.3-1.5c-.2-.4-.6-.8-1-1-.4-.2-.9-.3-1.4-.3s-1 .1-1.4.3c-.4.2-.7.6-1 1-.2.4-.3.9-.3 1.5s.1 1 .3 1.5c.2.4.6.7 1 1 .4.2.9.3 1.4.3zM172.9 264.2c-.8 0-1.5-.2-2.1-.5-.6-.4-1.1-.8-1.5-1.4-.4-.6-.5-1.3-.5-2.1s.2-1.5.5-2.1c.4-.6.9-1.1 1.5-1.4.6-.4 1.3-.5 2.1-.5s1.5.2 2.1.5c.6.3 1.1.8 1.5 1.4.4.6.5 1.3.5 2.1s-.2 1.5-.5 2.1c-.4.6-.8 1.1-1.5 1.4-.6.3-1.3.5-2.1.5zm0-1.3c.5 0 1-.1 1.4-.3.4-.2.7-.6 1-1 .2-.4.3-.9.3-1.5s-.1-1-.3-1.5c-.2-.4-.6-.8-1-1-.4-.2-.9-.3-1.4-.3-.5 0-1 .1-1.4.3-.4.2-.7.6-1 1-.2.4-.3.9-.3 1.5s.1 1 .3 1.5c.2.4.6.7 1 1 .4.2.9.3 1.4.3zM183.2 256.4c.7 0 1.4.2 2 .5.6.3 1 .8 1.4 1.4.3.6.5 1.2.5 2s-.2 1.5-.5 2.1c-.3.6-.8 1-1.5 1.4-.6.3-1.3.5-2.1.5-1.4 0-2.4-.5-3.1-1.4-.7-.9-1.1-2.2-1.1-3.9 0-1.6.3-2.9 1-3.8.7-.9 1.7-1.5 3.1-1.8l3.6-.8.2 1.3-3.4.7c-1 .2-1.8.6-2.3 1.2-.5.6-.8 1.3-.9 2.4.3-.5.8-.9 1.3-1.2.5-.4 1.1-.6 1.8-.6zm-.2 6.6c.5 0 1-.1 1.4-.3.4-.2.7-.5.9-.9.2-.4.3-.9.3-1.4 0-.8-.2-1.4-.7-1.9-.5-.5-1.1-.7-1.9-.7-.8 0-1.4.2-1.9.7-.5.5-.7 1.1-.7 1.9 0 .5.1 1 .3 1.4.2.4.5.7.9.9.4.2.9.3 1.4.3zM193.4 256.1c.8 0 1.5.2 2.1.5.6.3 1.1.8 1.4 1.4.4.6.5 1.3.5 2.1s-.2 1.5-.5 2.1c-.3.6-.8 1.1-1.4 1.4-.6.3-1.3.5-2.1.5-.6 0-1.1-.1-1.6-.3-.5-.2-.9-.5-1.2-1v4.1h-1.4v-10.8h1.4v1.3c.3-.4.7-.8 1.2-1 .4-.2 1-.3 1.6-.3zm-.2 6.8c.5 0 1-.1 1.4-.3.4-.2.7-.6 1-1 .2-.4.4-.9.4-1.5s-.1-1-.4-1.5c-.2-.4-.6-.8-1-1-.4-.2-.9-.3-1.4-.3-.5 0-1 .1-1.4.4-.4.2-.7.6-1 1-.2.4-.3.9-.3 1.5s.1 1 .3 1.5c.2.4.6.7 1 1 .5.1.9.2 1.4.2zM202.3 256.1c1.1 0 1.9.3 2.5.8.6.5.9 1.3.9 2.4v4.8h-1.4v-1c-.2.4-.6.7-1 .9-.4.2-1 .3-1.6.3-.9 0-1.6-.2-2.2-.6-.5-.4-.8-1-.8-1.7s.3-1.3.8-1.7c.5-.4 1.3-.6 2.4-.6h2.3v-.3c0-.6-.2-1.1-.5-1.4-.4-.3-.9-.5-1.6-.5-.5 0-.9.1-1.4.2-.5.1-.8.4-1.1.6l-.6-1.1c.4-.3.9-.6 1.5-.7.5-.3 1.1-.4 1.8-.4zm-.4 7c.6 0 1-.1 1.4-.4.4-.2.7-.6.9-1v-1.1H202c-1.2 0-1.8.4-1.8 1.2 0 .4.2.7.5.9.2.3.7.4 1.2.4zM212.5 260c.5.1.9.4 1.2.7.3.3.4.7.4 1.2s-.2.9-.5 1.3-.8.6-1.3.9c-.6.2-1.2.3-1.9.3-.6 0-1.2-.1-1.7-.2-.6-.2-1.1-.4-1.5-.7l.4-1.1c.4.2.8.4 1.3.6.5.1 1 .2 1.5.2.7 0 1.2-.1 1.6-.3.4-.2.6-.6.6-1s-.2-.7-.5-.9c-.3-.2-.8-.3-1.4-.3h-1.5v-1h1.4c.5 0 1-.1 1.3-.3.3-.2.5-.4.5-.8s-.2-.6-.6-.8c-.4-.2-.9-.3-1.5-.3-.8 0-1.6.2-2.5.6l-.4-1.1c1-.5 2-.7 3.1-.7.6 0 1.2.1 1.7.3.5.2.9.4 1.2.8.3.3.4.7.4 1.1 0 .4-.1.7-.4 1-.1.1-.5.3-.9.5zM219.8 264.2c-.8 0-1.5-.2-2.1-.5-.6-.4-1.1-.8-1.5-1.4-.4-.6-.5-1.3-.5-2.1s.2-1.5.5-2.1c.4-.6.9-1.1 1.5-1.4.6-.4 1.3-.5 2.1-.5s1.5.2 2.1.5c.6.3 1.1.8 1.5 1.4.4.6.5 1.3.5 2.1s-.2 1.5-.5 2.1c-.4.6-.8 1.1-1.5 1.4-.6.3-1.4.5-2.1.5zm0-1.3c.5 0 1-.1 1.4-.3.4-.2.7-.6 1-1 .2-.4.3-.9.3-1.5s-.1-1-.3-1.5c-.2-.4-.6-.8-1-1-.4-.2-.9-.3-1.4-.3-.5 0-1 .1-1.4.3-.4.2-.7.6-1 1-.2.4-.3.9-.3 1.5s.1 1 .3 1.5c.2.4.6.7 1 1 .4.2.8.3 1.4.3zM231.4 260c1 .3 1.6.9 1.6 1.9 0 .7-.3 1.2-.8 1.6-.5.4-1.3.6-2.3.6H226v-7.9h3.7c.9 0 1.7.2 2.2.5.5.3.8.8.8 1.5 0 .4-.1.8-.3 1.1-.3.3-.6.5-1 .7zm-4-.4h2.2c.6 0 1-.1 1.2-.3.3-.2.4-.5.4-.9 0-.8-.6-1.1-1.7-1.1h-2.2v2.3zm2.3 3.4c.6 0 1.1-.1 1.4-.3s.5-.5.5-.9-.1-.7-.4-.9c-.3-.2-.7-.3-1.3-.3h-2.4v2.4h2.2zM238.1 256.1c1.1 0 1.9.3 2.5.8.6.5.9 1.3.9 2.4v4.8h-1.4v-1c-.2.4-.6.7-1 .9-.4.2-1 .3-1.6.3-.9 0-1.6-.2-2.2-.6-.5-.4-.8-1-.8-1.7s.3-1.3.8-1.7c.5-.4 1.3-.6 2.4-.6h2.3v-.3c0-.6-.2-1.1-.5-1.4-.4-.3-.9-.5-1.6-.5-.5 0-.9.1-1.4.2-.5.1-.8.4-1.1.6l-.6-1.1c.4-.3.9-.6 1.5-.7.5-.3 1.1-.4 1.8-.4zm-.4 7c.6 0 1-.1 1.4-.4.4-.2.7-.6.9-1v-1.1h-2.2c-1.2 0-1.8.4-1.8 1.2 0 .4.2.7.5.9.3.3.7.4 1.2.4zM244.1 256.2h1.4v3.4h4.5v-3.4h1.4v7.9H250v-3.3h-4.5v3.3h-1.4v-7.9zM254.3 256.2h1.4v5.8l4.9-5.8h1.3v7.9h-1.4v-5.8l-4.9 5.8h-1.3v-7.9zM271.9 256.1c.8 0 1.5.2 2.1.5.6.3 1.1.8 1.4 1.4.4.6.5 1.3.5 2.1s-.2 1.5-.5 2.1c-.4.6-.8 1.1-1.4 1.4-.6.3-1.3.5-2.1.5-.7 0-1.3-.1-1.9-.4-.6-.3-1-.7-1.4-1.2-.4-.5-.6-1.1-.7-1.8h-1.6v3.4h-1.4v-7.9h1.4v3.2h1.6c.1-.7.3-1.2.7-1.7.4-.5.8-.9 1.4-1.2.5-.3 1.2-.4 1.9-.4zm0 6.8c.5 0 .9-.1 1.3-.3.4-.2.7-.6.9-1 .2-.4.3-.9.3-1.5 0-.5-.1-1-.3-1.5-.2-.4-.5-.8-.9-1-.4-.2-.8-.3-1.3-.3s-.9.1-1.3.3c-.4.2-.7.6-.9 1-.2.4-.3.9-.3 1.5s.1 1.1.3 1.5c.2.4.5.7.9 1 .3.2.8.3 1.3.3zM278.1 264.2c-.3 0-.5-.1-.7-.3-.2-.2-.3-.4-.3-.7 0-.3.1-.5.3-.7.2-.2.4-.3.7-.3s.5.1.7.3c.2.2.3.4.3.7 0 .3-.1.5-.3.7-.2.2-.4.3-.7.3z"/></svg>