<svg xmlns="http://www.w3.org/2000/svg" viewBox="0 0 194 37" style="enable-background:new 0 0 194 37" xml:space="preserve"><path d="M7.8 13h2.7c1.9 0 3.5.4 4.7 1.2 1.2.8 2.2 1.8 2.8 3 .6 1.2.9 2.5.9 3.9 0 1.6-.4 3-1.1 4.2-.7 1.3-1.7 2.2-3 3s-2.7 1.1-4.4 1.1c-1 0-1.9-.2-2.9-.5-.9-.3-1.8-1-2.6-1.9h-.2v-5.9c0 .8.2 1.6.6 2.3.4.7 1 1.3 1.7 1.7.7.4 1.6.6 2.7.6s2-.2 2.8-.7c.8-.4 1.4-1 1.8-1.8.4-.7.6-1.5.6-2.4 0-.9-.2-1.7-.6-2.4-.4-.7-.9-1.3-1.7-1.7-.7-.4-1.5-.7-2.5-.7H7.8v-3zM9.3 1c1.3 0 2.4.2 3.4.6 1 .4 1.9.9 2.6 1.6.7.7 1.3 1.5 1.7 2.3.4.9.6 1.8.6 2.8 0 1.2-.3 2.4-.9 3.5-.6 1.2-1.5 2.1-2.7 2.9-1.2.8-2.7 1.1-4.5 1.1H7.8v-3h1.4c1 0 1.8-.2 2.5-.6.7-.4 1.2-.9 1.5-1.6.3-.6.5-1.3.5-2 0-1.2-.4-2.1-1.3-2.9-.8-.7-1.9-1.1-3.1-1.1-.8 0-1.6.2-2.3.5S5.7 6 5.3 6.7c-.4.6-.6 1.3-.6 2.2v27.9h-4v-28c0-1.5.4-2.9 1.1-4 .7-1.2 1.8-2.1 3-2.8 1.4-.7 2.8-1 4.5-1zm25.6 14.6v3.5H22.6v-3.5h12.3zm17.8-7.3v3.5h-9.3V29h-4V8.3h13.3zm.2 20.7v-3.5h.7c.6 0 1.1-.1 1.4-.4.4-.3.7-.7 1-1.3.3-.6.4-1.4.6-2.5.1-1.1.2-2.4.3-4l.4-9.2h14.5V29h-4V11.8H61l-.3 7c-.1 1.7-.3 3.2-.5 4.5-.3 1.3-.6 2.3-1.1 3.2-.5.8-1.2 1.5-1.9 1.9-.8.4-1.8.6-2.9.6h-1.4zm33.9-12v3.5H75.7V17h11.1zM79 8.3V29h-4V8.3h4zm14.1 21.1c-1.9 0-3.6-.4-5-1.3s-2.6-2.2-3.3-3.8c-.8-1.6-1.2-3.5-1.2-5.6 0-2.1.4-4 1.2-5.6.8-1.6 1.9-2.9 3.3-3.8 1.4-.9 3.1-1.3 5-1.3s3.6.4 5 1.3 2.6 2.1 3.3 3.8c.8 1.6 1.2 3.5 1.2 5.6 0 2.1-.4 4-1.2 5.6-.8 1.6-1.9 2.9-3.3 3.8-1.4.9-3 1.3-5 1.3zm0-3.4c1.3 0 2.4-.3 3.2-1 .8-.7 1.5-1.5 1.8-2.6.4-1.1.6-2.3.6-3.6 0-1.3-.2-2.5-.6-3.6-.4-1.1-1-2-1.8-2.7-.8-.7-1.9-1-3.2-1-1.3 0-2.4.3-3.2 1-.8.7-1.5 1.6-1.8 2.7-.4 1.1-.6 2.3-.6 3.6 0 1.3.2 2.5.6 3.6.4 1.1 1 2 1.8 2.6.9.6 1.9 1 3.2 1zm13.6 3V8.3h4V17h1.9l6.8-8.7h5l-8 10.1 8.1 10.6h-5l-6.2-8.3h-2.6V29h-4zm26.3.5c-1.3 0-2.5-.2-3.6-.7-1.1-.5-1.9-1.2-2.5-2.1-.6-.9-.9-2.1-.9-3.4 0-1.2.2-2.1.7-2.9.4-.8 1.1-1.4 1.8-1.8.8-.4 1.6-.8 2.6-1 .9-.2 1.9-.4 2.9-.5 1.2-.1 2.2-.3 3-.4.8-.1 1.3-.3 1.7-.5s.5-.6.5-1.1V15c0-1.2-.3-2.1-1-2.7-.7-.6-1.6-1-2.9-1-1.4 0-2.4.3-3.2.9-.8.6-1.3 1.3-1.6 2l-3.8-.9c.4-1.3 1.1-2.3 2-3 .9-.8 1.9-1.3 3-1.7 1.1-.4 2.3-.5 3.6-.5.8 0 1.7.1 2.6.3.9.2 1.8.5 2.6 1.1.8.5 1.5 1.2 2 2.2.5.9.8 2.2.8 3.7V29h-3.9v-2.8h-.2c-.3.5-.7 1-1.2 1.5s-1.2.9-2 1.3c-.9.3-1.8.5-3 .5zm.9-3.3c1.1 0 2.1-.2 2.9-.7.8-.4 1.4-1 1.8-1.7.4-.7.6-1.5.6-2.3v-2.7c-.1.1-.4.3-.8.4-.4.1-.9.2-1.4.3-.5.1-1 .2-1.5.2-.5.1-.9.1-1.2.2-.8.1-1.5.3-2.1.5-.6.2-1.2.6-1.5 1-.4.4-.6 1-.6 1.7 0 1 .4 1.8 1.1 2.3.6.6 1.6.8 2.7.8zm28-9.3v3.5h-11.2v-3.5h11.2zm-10.1-8.6V29h-4V8.3h4zm12.9 0V29h-3.9V8.3h3.9zm7.7 7.1h6c2.5 0 4.5.6 5.9 1.9 1.4 1.3 2.1 2.9 2.1 4.9 0 1.3-.3 2.5-.9 3.5-.6 1-1.5 1.9-2.7 2.5-1.2.6-2.6.9-4.3.9h-9.1V8.3h4v17.2h5.1c1.2 0 2.1-.3 2.9-.9.7-.6 1.1-1.4 1.1-2.3 0-1-.4-1.8-1.1-2.4-.7-.6-1.7-1-2.9-1h-6v-3.5zM189.3 29V8.3h4V29h-4z" style="fill:#0d1907"/></svg>