<?xml version="1.0" encoding="utf-8"?>
<!-- Generator: Adobe Illustrator 25.2.3, SVG Export Plug-In . SVG Version: 6.00 Build 0)  -->
<svg version="1.1" id="Layer_1" xmlns="http://www.w3.org/2000/svg" xmlns:xlink="http://www.w3.org/1999/xlink" x="0px" y="0px"
	 viewBox="0 0 75.1 75.1" style="enable-background:new 0 0 75.1 75.1;" xml:space="preserve">
<style type="text/css">
	.st0{fill:#FF8D3B;}
	.st1{fill:url(#SVGID_1_);}
	.st2{fill:#FFFFFF;}
</style>
<g>
	<circle class="st0" cx="37.5" cy="37.5" r="37.5"/>
	
		<radialGradient id="SVGID_1_" cx="-324.2452" cy="90.2317" r="1" gradientTransform="matrix(62.9433 70.3281 70.3281 -62.9433 14080.0498 28490.1055)" gradientUnits="userSpaceOnUse">
		<stop  offset="0" style="stop-color:#FFC34F"/>
		<stop  offset="0.5133" style="stop-color:#FF8D3B"/>
		<stop  offset="1" style="stop-color:#A32C1C"/>
	</radialGradient>
	<circle class="st1" cx="37.5" cy="37.5" r="37.5"/>
</g>
<path class="st2" d="M53.1,34.4l-4-0.9c0-1.2-0.2-2.3-0.6-3.3c-0.4-1-0.9-1.9-1.7-2.7c-0.7-0.8-1.5-1.5-2.5-2c-1-0.5-2-0.9-3.1-1.2
	c-2-0.5-4-0.3-5.8,0.3c-1.9,0.7-3.5,1.9-4.9,3.6c-1.4,1.8-2.4,4.1-3.1,7c-0.6,2.9-0.7,5.4-0.2,7.6c0.5,2.2,1.5,4,2.9,5.4
	c1.4,1.4,3.1,2.3,5.1,2.8c1.1,0.2,2.2,0.3,3.3,0.3c1.1-0.1,2.1-0.3,3.1-0.7c1-0.4,1.9-1,2.6-1.7c0.8-0.8,1.4-1.7,1.9-2.8l4,0.9
	c-0.7,1.6-1.6,3-2.7,4.2s-2.4,2.1-3.8,2.8c-1.4,0.7-2.9,1.1-4.5,1.2c-1.6,0.2-3.2,0-4.9-0.3c-2.8-0.6-5.2-1.9-7.1-3.8
	c-1.9-1.9-3.2-4.2-3.9-7.1c-0.7-2.8-0.7-6,0.1-9.5s2.1-6.4,3.9-8.7c1.8-2.3,4-3.9,6.5-4.8c2.5-0.9,5.2-1,8-0.4
	c1.7,0.4,3.2,1,4.6,1.8c1.4,0.8,2.6,1.8,3.5,3c1,1.2,1.7,2.6,2.2,4.1C52.9,31,53.1,32.6,53.1,34.4z"/>
</svg>
