<?xml version="1.0" encoding="utf-8"?>
<!-- Generator: Adobe Illustrator 25.2.3, SVG Export Plug-In . SVG Version: 6.00 Build 0)  -->
<svg version="1.1" id="Layer_1" xmlns="http://www.w3.org/2000/svg" xmlns:xlink="http://www.w3.org/1999/xlink" x="0px" y="0px"
	 viewBox="0 0 192 53" style="enable-background:new 0 0 192 53;" xml:space="preserve">
<style type="text/css">
	.st0{fill:url(#SVGID_1_);}
	.st1{fill:#FFFFFF;}
</style>
<radialGradient id="SVGID_1_" cx="94.6667" cy="-5.5" r="117.2252" gradientTransform="matrix(1 0 0 0.7047 0 -1.624)" gradientUnits="userSpaceOnUse">
	<stop  offset="0.1453" style="stop-color:#5DE52D"/>
	<stop  offset="0.905" style="stop-color:#00882E"/>
</radialGradient>
<path class="st0" d="M26.5,0h139C180.1,0,192,11.9,192,26.5l0,0c0,14.6-11.9,26.5-26.5,26.5h-139C11.9,53,0,41.1,0,26.5l0,0
	C0,11.9,11.9,0,26.5,0z"/>
<path class="st1" d="M53.4,25.3v3.1H46v-3.1H53.4z M47.3,19.8V34h-3.8V19.8H47.3z M55.9,19.8V34h-3.7V19.8H55.9z M65.4,34.3
	c-1.4,0-2.7-0.3-3.7-0.9c-1-0.6-1.8-1.5-2.4-2.6c-0.6-1.1-0.8-2.4-0.8-3.8c0-1.5,0.3-2.7,0.8-3.8c0.6-1.1,1.4-2,2.4-2.6
	c1-0.6,2.3-0.9,3.7-0.9c1.4,0,2.7,0.3,3.7,0.9c1,0.6,1.9,1.5,2.4,2.6c0.6,1.1,0.8,2.4,0.8,3.8c0,1.5-0.3,2.7-0.8,3.8
	c-0.6,1.1-1.4,2-2.4,2.6C68,34,66.8,34.3,65.4,34.3z M65.4,31.2c0.7,0,1.2-0.2,1.6-0.6c0.4-0.4,0.8-0.9,1-1.5
	c0.2-0.6,0.3-1.4,0.3-2.2s-0.1-1.6-0.3-2.2c-0.2-0.6-0.6-1.2-1-1.5c-0.4-0.4-1-0.6-1.6-0.6c-0.7,0-1.2,0.2-1.7,0.6
	c-0.4,0.4-0.8,0.9-1,1.5c-0.2,0.6-0.3,1.4-0.3,2.2s0.1,1.6,0.3,2.2c0.2,0.6,0.6,1.2,1,1.5C64.2,31,64.7,31.2,65.4,31.2z M74.9,34
	V19.8h6c1.7,0,3.1,0.3,4.1,1c1,0.7,1.5,1.6,1.5,2.8c0,0.8-0.3,1.4-0.9,1.9c-0.6,0.5-1.4,0.9-2.4,1c0.8,0.1,1.6,0.3,2.2,0.6
	c0.6,0.3,1.1,0.7,1.4,1.2c0.3,0.5,0.5,1.1,0.5,1.7c0,0.8-0.2,1.5-0.6,2.1c-0.4,0.6-1,1-1.9,1.3c-0.8,0.3-1.8,0.5-3,0.5H74.9z
	 M78.6,31.1h3.3c0.5,0,1-0.1,1.3-0.4c0.3-0.3,0.5-0.6,0.5-1.1c0-0.5-0.2-0.9-0.5-1.2c-0.3-0.3-0.7-0.4-1.3-0.4h-3.3V31.1z
	 M78.6,25.7H81c0.4,0,0.7-0.1,1-0.2c0.3-0.1,0.5-0.3,0.6-0.5c0.2-0.2,0.2-0.5,0.2-0.8c0-0.4-0.2-0.8-0.5-1c-0.4-0.2-0.8-0.4-1.4-0.4
	h-2.4V25.7z M93.6,28.8l5.1-9h3.9V34h-3.7v-9l-5.1,9h-3.9V19.8h3.8V28.8z M115.6,25.3v3.1h-7.4v-3.1H115.6z M109.5,19.8V34h-3.8
	V19.8H109.5z M118.1,19.8V34h-3.7V19.8H118.1z M121.2,34V19.8h3.9v5.5h1.1l3.9-5.5h4.6l-5,7l5.1,7.1h-4.7l-3.5-5h-1.5v5H121.2z
	 M140.4,34.3c-0.9,0-1.7-0.2-2.4-0.5c-0.7-0.3-1.3-0.8-1.7-1.4c-0.4-0.6-0.6-1.4-0.6-2.3c0-0.8,0.1-1.4,0.4-2c0.3-0.5,0.7-1,1.2-1.3
	c0.5-0.3,1.1-0.6,1.7-0.7c0.6-0.2,1.3-0.3,2-0.4c0.8-0.1,1.5-0.2,2-0.2c0.5-0.1,0.9-0.2,1.1-0.4c0.2-0.2,0.3-0.4,0.3-0.7v-0.1
	c0-0.6-0.2-1-0.6-1.4c-0.4-0.3-0.9-0.5-1.6-0.5c-0.7,0-1.3,0.2-1.7,0.5c-0.4,0.3-0.7,0.7-0.8,1.2l-3.6-0.3c0.2-0.9,0.5-1.6,1.1-2.2
	c0.5-0.6,1.2-1.1,2.1-1.5c0.9-0.3,1.9-0.5,3-0.5c0.8,0,1.5,0.1,2.3,0.3c0.7,0.2,1.4,0.5,1.9,0.9c0.6,0.4,1,0.9,1.3,1.5
	c0.3,0.6,0.5,1.3,0.5,2.2V34h-3.7v-2h-0.1c-0.2,0.4-0.5,0.8-0.9,1.2c-0.4,0.3-0.8,0.6-1.4,0.8C141.8,34.2,141.1,34.3,140.4,34.3z
	 M141.6,31.6c0.6,0,1.1-0.1,1.5-0.3c0.4-0.2,0.8-0.5,1-0.9c0.3-0.4,0.4-0.8,0.4-1.3v-1.5c-0.1,0.1-0.3,0.2-0.5,0.2
	c-0.2,0.1-0.4,0.1-0.7,0.2c-0.3,0-0.5,0.1-0.8,0.1c-0.3,0-0.5,0.1-0.7,0.1c-0.5,0.1-0.9,0.2-1.2,0.3c-0.3,0.1-0.6,0.3-0.8,0.6
	c-0.2,0.2-0.3,0.6-0.3,0.9c0,0.5,0.2,0.9,0.6,1.2C140.5,31.4,141,31.6,141.6,31.6z"/>
</svg>
