<svg xmlns="http://www.w3.org/2000/svg" viewBox="0 0 281.5 67.7" style="enable-background:new 0 0 281.5 67.7" xml:space="preserve"><path d="M141.1 6.8c-.6 0-1.2-.1-1.7-.4-.5-.3-.9-.6-1.2-1.1-.3-.5-.4-1-.4-1.6s.1-1.1.4-1.6c.3-.5.7-.8 1.2-1.1.5-.3 1.1-.4 1.7-.4s1.2.1 1.7.4c.5.3.9.6 1.2 1.1.3.5.4 1 .4 1.6s-.1 1.1-.4 1.6c-.3.5-.7.8-1.2 1.1-.5.3-1.1.4-1.7.4zm0-1.2c.4 0 .7-.1 1-.2.3-.2.5-.4.7-.7.2-.3.2-.6.2-1s-.1-.7-.2-1c-.2-.3-.4-.5-.7-.7-.3-.2-.6-.2-1-.2s-.7.1-1 .2c-.3.2-.5.4-.7.7-.2.3-.2.6-.2 1s.1.7.2 1c.2.3.4.5.7.7.3.1.7.2 1 .2zm6.6 1.2c-.5 0-.9-.1-1.3-.3-.4-.2-.7-.5-.9-.8-.2-.4-.3-.8-.3-1.2s.1-.9.3-1.2c.2-.4.5-.6.9-.8.4-.2.8-.3 1.3-.3s.9.1 1.3.3c.4.2.6.5.8.9l-1 .6c-.2-.4-.6-.6-1-.6-.3 0-.6.1-.9.3-.2.2-.3.5-.3.9s.1.7.3.9c.2.2.5.3.9.3.5 0 .8-.2 1-.6l1 .6c-.2.4-.4.7-.8.9-.4 0-.8.1-1.3.1zm3-4.7h1.3v1.8h2V2.1h1.3v4.6H154V5h-2v1.7h-1.3V2.1zm8.2 4.7c-.5 0-.9-.1-1.3-.3-.4-.2-.7-.5-.9-.8-.2-.4-.3-.8-.3-1.2s.1-.9.3-1.2c.2-.4.5-.6.9-.8.4-.2.8-.3 1.3-.3s.9.1 1.3.3c.4.2.7.5.9.8.2.4.3.8.3 1.2s-.1.9-.3 1.2c-.2.4-.5.6-.9.8-.3.2-.8.3-1.3.3zm0-1.1c.3 0 .6-.1.8-.3.2-.2.3-.5.3-.9s-.1-.7-.3-.9c-.2-.2-.5-.4-.8-.4s-.6.1-.8.4c-.2.2-.3.5-.3.9s.1.7.3.9c.2.1.5.3.8.3zm7.1-1.4c.5.2.8.5.8 1.1 0 .4-.2.7-.5 1-.3.2-.8.3-1.4.3h-2.5V2.1h2.4c.6 0 1 .1 1.4.3.3.2.5.5.5.9 0 .2-.1.4-.2.6-.1.1-.2.3-.5.4zm-2.3-.3h1c.5 0 .7-.2.7-.5s-.2-.5-.7-.5h-1v1zm1.2 1.8c.5 0 .7-.2.7-.5 0-.2-.1-.3-.2-.4-.1-.1-.3-.1-.5-.1h-1.1v1h1.1zm3.1-3.7h1.3v1.8h2V2.1h1.3v4.6h-1.3V5h-2v1.7H168V2.1zm8.5 1.4c.6 0 1.1.1 1.4.4.3.3.5.6.5 1.1 0 .5-.2.9-.5 1.2-.3.3-.8.4-1.5.4h-2.2V2.1h1.3v1.5h1zm2.3-1.4h1.3v4.6h-1.3V2.1zm-2.6 3.6c.3 0 .5 0 .6-.2.1-.1.2-.3.2-.5s-.1-.4-.2-.5c-.1-.1-.3-.2-.6-.2h-.8v1.3h.8zm9.8-1.3v.4h-3.5c.1.3.2.5.4.7.2.2.5.2.9.2.2 0 .5 0 .6-.1.2-.1.4-.2.5-.3l.7.8c-.4.5-1.1.7-1.9.7-.5 0-1-.1-1.4-.3-.4-.2-.7-.5-.9-.8-.2-.4-.3-.8-.3-1.2 0-.5.1-.9.3-1.2.2-.4.5-.6.9-.8.4-.2.8-.3 1.3-.3s.9.1 1.2.3.7.5.9.8c.2.2.3.6.3 1.1zM183.6 3c-.3 0-.6.1-.8.3-.2.2-.3.4-.4.7h2.3c0-.3-.2-.5-.4-.7-.1-.2-.4-.3-.7-.3zm10.7-.9v4.6H193V3.2h-1.9v3.5h-1.3V2.1h4.5zm4.2-.1c.4 0 .8.1 1.2.3.4.2.6.5.8.8.2.4.3.8.3 1.2s-.1.9-.3 1.3c-.2.4-.5.6-.8.8-.3.2-.7.3-1.2.3-.6 0-1.1-.2-1.4-.6v2.2h-1.3V2.1h1.3v.5c.2-.4.7-.6 1.4-.6zm-.3 3.7c.3 0 .6-.1.8-.3.2-.2.3-.5.3-.9s-.1-.7-.3-.9c-.2-.2-.5-.4-.8-.4s-.6.1-.8.4c-.2.2-.3.5-.3.9s.1.7.3.9c.2.1.5.3.8.3zm5.8 1.1c-.5 0-.9-.1-1.3-.3-.4-.2-.7-.5-.9-.8-.2-.4-.3-.8-.3-1.2s.1-.9.3-1.2c.2-.4.5-.6.9-.8.4-.2.8-.3 1.3-.3s.9.1 1.3.3c.4.2.7.5.9.8.2.4.3.8.3 1.2s-.1.9-.3 1.2c-.2.4-.5.6-.9.8-.4.2-.8.3-1.3.3zm0-1.1c.3 0 .6-.1.8-.3.2-.2.3-.5.3-.9s-.1-.7-.3-.9c-.2-.2-.5-.4-.8-.4s-.6.1-.8.4c-.2.2-.3.5-.3.9s.1.7.3.9c.2.1.4.3.8.3zm7.3-2.5h-1.6v3.5h-1.3V3.2h-1.6V2.1h4.5v1.1zm.8-1.1h1.3v2.7l2.2-2.7h1.2v4.6h-1.3V3.9l-2.2 2.7h-1.2V2.1zm9.7 2.2c.5.2.8.5.8 1.1 0 .4-.2.7-.5 1-.3.2-.8.3-1.4.3h-2.5V2.1h2.4c.6 0 1 .1 1.4.3.3.2.5.5.5.9 0 .2-.1.4-.2.6-.1.1-.2.3-.5.4zm-2.2-.3h1c.5 0 .7-.2.7-.5s-.2-.5-.7-.5h-1v1zm1.1 1.8c.5 0 .7-.2.7-.5 0-.2-.1-.3-.2-.4-.1-.1-.3-.1-.5-.1h-1.1v1h1.1zm5.2 1c-.5 0-.9-.1-1.3-.3-.4-.2-.7-.5-.9-.8-.2-.4-.3-.8-.3-1.2s.1-.9.3-1.2c.2-.4.5-.6.9-.8.4-.2.8-.3 1.3-.3s.9.1 1.3.3c.4.2.7.5.9.8.2.4.3.8.3 1.2s-.1.9-.3 1.2c-.2.4-.5.6-.9.8-.3.2-.8.3-1.3.3zm0-1.1c.3 0 .6-.1.8-.3.2-.2.3-.5.3-.9s-.1-.7-.3-.9c-.2-.2-.5-.4-.8-.4-.3 0-.6.1-.8.4-.2.2-.3.5-.3.9s.1.7.3.9c.2.1.5.3.8.3zm8.2-3.6v4.6h-1.3V3.2h-1.9v3.5h-1.3V2.1h4.5zm3.6 4.7c-.5 0-.9-.1-1.3-.3-.4-.2-.7-.5-.9-.8-.2-.4-.3-.8-.3-1.2s.1-.9.3-1.2c.2-.4.5-.6.9-.8.4-.2.8-.3 1.3-.3s.9.1 1.3.3c.4.2.7.5.9.8.2.4.3.8.3 1.2s-.1.9-.3 1.2c-.2.4-.5.6-.9.8-.4.2-.8.3-1.3.3zm0-1.1c.3 0 .6-.1.8-.3.2-.2.3-.5.3-.9s-.1-.7-.3-.9c-.2-.2-.5-.4-.8-.4s-.6.1-.8.4c-.2.2-.3.5-.3.9s.1.7.3.9c.2.1.4.3.8.3zm5.6-.8h-.7v1.7h-1.3V2.1h1.3v1.8h.7l1.3-1.8h1.4l-1.6 2.2 1.7 2.4h-1.6l-1.2-1.8zm5.3-2.9c.7 0 1.3.2 1.6.5.4.3.6.8.6 1.5v2.6h-1.3v-.5c-.3.4-.7.6-1.4.6-.4 0-.7-.1-.9-.2-.3-.1-.5-.3-.6-.5-.1-.2-.2-.5-.2-.7 0-.4.2-.8.5-1 .3-.2.8-.4 1.5-.4h1.1c0-.3-.1-.5-.3-.7-.2-.2-.4-.2-.8-.2-.2 0-.5 0-.7.1l-.6.3-.5-.9c.3-.2.6-.3.9-.4.4 0 .7-.1 1.1-.1zm-.1 3.9c.2 0 .4-.1.6-.2.2-.1.3-.3.4-.5v-.4h-.9c-.5 0-.8.2-.8.5 0 .2.1.3.2.4.1.1.3.2.5.2zm6.6-1.6c.3.1.5.2.6.4.2.2.2.4.2.6 0 .3-.1.5-.3.8-.2.2-.5.4-.8.5-.3.1-.7.2-1.2.2-.4 0-.7 0-1.1-.1-.3-.1-.7-.2-1-.3l.4-.9c.5.2 1 .4 1.6.4.3 0 .6 0 .7-.1.2-.1.3-.2.3-.4 0-.1-.1-.3-.2-.3-.1-.1-.3-.1-.5-.1h-.9V3.9h.8c.2 0 .4 0 .5-.1.1-.1.2-.2.2-.3 0-.1-.1-.3-.2-.3-.2-.1-.4-.2-.7-.2-.4 0-.9.1-1.5.3l-.3-.9c.6-.3 1.3-.4 1.9-.4.4 0 .8.1 1.1.2.3.1.6.3.8.5.2.2.3.4.3.7 0 .2-.1.4-.2.6-.1 0-.3.2-.5.3zm3.7-2.3c.7 0 1.3.2 1.6.5.4.3.6.8.6 1.5v2.6h-1.3v-.5c-.3.4-.7.6-1.4.6-.4 0-.7-.1-.9-.2-.3-.1-.5-.3-.6-.5-.1-.2-.2-.5-.2-.7 0-.4.2-.8.5-1 .3-.2.8-.4 1.5-.4h1.1c0-.3-.1-.5-.3-.7-.2-.2-.4-.2-.8-.2-.2 0-.5 0-.7.1l-.6.3-.5-.9c.3-.2.6-.3.9-.4.4 0 .7-.1 1.1-.1zm-.1 3.9c.2 0 .4-.1.6-.2.2-.1.3-.3.4-.5v-.4h-.9c-.5 0-.8.2-.8.5 0 .2.1.3.2.4.1.1.3.2.5.2zm3.6-3.8h1.3v1.8h2V2.1h1.3v4.6h-1.3V5h-2v1.7h-1.3V2.1zm6.1 0h1.3v2.7l2.2-2.7h1.2v4.6h-1.3V3.9l-2.2 2.7h-1.2V2.1zm10.3 0v4.6h-1.2V5.4h-1l-.9 1.3h-1.4l1.1-1.5c-.3-.1-.6-.3-.7-.5-.2-.2-.2-.5-.2-.9 0-.5.2-1 .6-1.3.4-.3.9-.4 1.6-.4h2.1zm-2.2 1.1c-.3 0-.5.1-.7.2-.1.1-.2.3-.2.5s.1.4.2.5c.1.1.4.2.6.2h1V3.2h-.9zm4.1.5c-.2 0-.4-.1-.6-.2-.2-.2-.2-.4-.2-.6 0-.2.1-.4.2-.6.2-.2.4-.2.6-.2s.4.1.6.2c.2.1.2.3.2.6 0 .2-.1.4-.2.6-.1.1-.3.2-.6.2zm0 3.1c-.2 0-.4-.1-.6-.2-.2-.2-.2-.4-.2-.6 0-.2.1-.4.2-.6.2-.2.4-.2.6-.2s.4.1.6.2c.2.1.2.3.2.6 0 .2-.1.4-.2.6-.1.1-.3.2-.6.2zM137.9 18.4h.7v2.8l2.4-2.8h.6v3.8h-.7v-2.8l-2.4 2.8h-.6v-3.8zm5 0h.7V20h2.2v-1.6h.7v3.8h-.7v-1.6h-2.2v1.6h-.7v-3.8zm8.8 3.2v1.5h-.7v-.9h-3.2v.9h-.7v-1.5h.2c.2 0 .4-.2.5-.5s.2-.8.2-1.4l.1-1.3h3v3.2h.6zm-2.9-1.9c0 .5-.1.9-.1 1.2-.1.3-.2.5-.3.7h2.2V19h-1.7l-.1.7zm3.9-1.3h.7v2.8l2.4-2.8h.6v3.8h-.7v-2.8l-2.4 2.8h-.6v-3.8zm7.6 1.8c.5.1.7.4.7.9 0 .3-.1.6-.4.8-.3.2-.6.3-1.1.3h-1.9v-3.8h1.8c.5 0 .8.1 1.1.3.3.2.4.4.4.7 0 .2-.1.4-.2.5-.1.1-.2.2-.4.3zm-1.9-.2h1c.3 0 .5 0 .6-.1.1-.1.2-.2.2-.4 0-.4-.3-.6-.8-.6h-1V20zm1.1 1.7c.3 0 .5 0 .7-.1.1-.1.2-.2.2-.4s-.1-.3-.2-.4c-.1-.1-.3-.1-.6-.1h-1.2v1.2h1.1zm2.6-3.3h.7v2.8l2.4-2.8h.6v3.8h-.7v-2.8l-2.4 2.8h-.6v-3.8zm9 3.2v1.5h-.7v-.9h-3.2v.9h-.7v-1.5h.2c.2 0 .4-.2.5-.5.1-.3.2-.8.2-1.4l.1-1.3h3v3.2h.6zm-3-1.9c0 .5-.1.9-.1 1.2-.1.3-.2.5-.3.7h2.2V19h-1.7l-.1.7zm7.3-1.3-1.9 4.2c-.2.4-.4.7-.6.8-.2.2-.5.2-.8.2-.2 0-.4 0-.6-.1-.2-.1-.3-.1-.4-.3l.3-.5c.2.2.4.3.7.3.2 0 .3 0 .4-.1.1-.1.2-.2.3-.5l.1-.3-1.7-3.8h.7l1.3 3.1 1.3-3.1h.9zm2-.1c.5 0 .9.1 1.2.4.3.3.4.7.4 1.2v2.3h-.7v-.5c-.1.2-.3.3-.5.4-.2.1-.5.1-.8.1-.4 0-.8-.1-1-.3-.3-.2-.4-.5-.4-.8 0-.3.1-.6.4-.8.2-.2.6-.3 1.2-.3h1.1v-.1c0-.3-.1-.5-.3-.7s-.4-.2-.8-.2c-.2 0-.4 0-.7.1l-.6.3-.3-.5c.2-.2.4-.3.7-.4.5-.1.8-.2 1.1-.2zm-.2 3.4c.3 0 .5-.1.7-.2.2-.1.3-.3.4-.5v-.5h-1.1c-.6 0-.9.2-.9.6 0 .2.1.3.2.5.3 0 .5.1.7.1zm6.4-3.3v3.8h-.7V19h-1.7v.9c0 .5-.1 1-.1 1.3-.1.3-.2.6-.3.8-.2.2-.4.3-.6.3-.1 0-.3 0-.4-.1v-.6h.2c.2 0 .3-.1.4-.3.1-.2.2-.4.2-.6 0-.2.1-.6.1-1l.1-1.4h2.8zm3.1 1.3c.5 0 .9.1 1.1.3.3.2.4.5.4.9s-.1.7-.4 1c-.3.2-.7.3-1.2.3h-1.7v-3.8h.7v1.3h1.1zm-.1 2c.3 0 .6-.1.7-.2.2-.1.2-.3.2-.6s-.1-.4-.2-.6c-.2-.1-.4-.2-.7-.2h-.9v1.5l.9.1zm2.5-3.3h.7V20h2.2v-1.6h.7v3.8h-.7v-1.6h-2.2v1.6h-.7v-3.8zm6.3-.1c.5 0 .9.1 1.2.4.3.3.4.7.4 1.2v2.3h-.7v-.5c-.1.2-.3.3-.5.4-.2.1-.5.1-.8.1-.4 0-.8-.1-1-.3-.3-.2-.4-.5-.4-.8 0-.3.1-.6.4-.8.2-.2.6-.3 1.2-.3h1.1v-.1c0-.3-.1-.5-.3-.7s-.4-.2-.8-.2c-.2 0-.4 0-.7.1l-.6.3-.3-.5c.2-.2.4-.3.7-.4.5-.1.8-.2 1.1-.2zm-.1 3.4c.3 0 .5-.1.7-.2.2-.1.3-.3.4-.5v-.5h-1.1c-.6 0-.9.2-.9.6 0 .2.1.3.2.5.2 0 .4.1.7.1zm6.1-3.3v3.8h-.6V21H199.6l-.8 1.2h-.8l.9-1.3c-.3-.1-.5-.2-.7-.4-.2-.2-.2-.5-.2-.8 0-.4.1-.8.4-1 .3-.2.7-.3 1.2-.3h1.8zm-2.7 1.3c0 .3.1.4.2.6.2.1.4.2.7.2h1.1V19h-1c-.6 0-1 .2-1 .7zm6-1.3h.7V20h2.2v-1.6h.7v3.8h-.7v-1.6h-2.2v1.6h-.7v-3.8zm8.4 1.9v.2H210c0 .3.2.6.4.8.3.2.6.3.9.3.5 0 .8-.2 1.1-.5l.4.4c-.2.2-.4.4-.7.5-.3.1-.5.2-.9.2s-.8-.1-1.1-.2c-.3-.2-.6-.4-.7-.7-.2-.3-.3-.6-.3-1s.1-.7.2-1c.2-.3.4-.5.7-.7.3-.2.6-.3 1-.3s.7.1 1 .3c.3.2.5.4.7.7.3.3.4.6.4 1zm-1.9-1.4c-.3 0-.6.1-.8.3-.2.2-.4.5-.4.8h2.5c0-.3-.2-.6-.4-.8-.3-.2-.5-.3-.9-.3zm6.6-.5v3.8h-.7V19h-2.2v3.2h-.7v-3.8h3.6zm4.8 1.9v.2h-3.1c0 .3.2.6.4.8.3.2.6.3 1 .3.5 0 .8-.2 1.1-.5l.4.4c-.2.2-.4.4-.7.5-.3.1-.5.2-.9.2s-.8-.1-1.1-.2c-.3-.2-.6-.4-.7-.7-.2-.3-.3-.6-.3-1s.1-.7.2-1c.2-.3.4-.5.7-.7.3-.2.6-.3 1-.3s.7.1 1 .3c.3.2.5.4.7.7.2.3.3.6.3 1zm-1.9-1.4c-.3 0-.6.1-.8.3-.2.2-.4.5-.4.8h2.5c0-.3-.2-.6-.4-.8-.3-.2-.6-.3-.9-.3zm5-.6c.4 0 .7.1 1 .2s.5.4.7.7c.2.3.3.6.3 1s-.1.7-.3 1c-.2.3-.4.5-.7.7-.3.2-.6.2-1 .2-.3 0-.5-.1-.8-.2-.2-.1-.4-.3-.6-.5v2h-.7v-5.3h.7v.9c.2-.2.4-.4.6-.5.3-.1.5-.2.8-.2zm0 3.3c.2 0 .5-.1.7-.2.2-.1.4-.3.5-.5.1-.2.2-.4.2-.7 0-.3-.1-.5-.2-.7-.1-.2-.3-.4-.5-.5-.2-.1-.4-.2-.7-.2-.2 0-.5.1-.7.2-.2.1-.3.3-.5.5-.1.2-.2.4-.2.7 0 .3.1.5.2.7.1.2.3.4.5.5.2.2.4.2.7.2zm6.4-1.3v.2H229c0 .3.2.6.4.8.3.2.6.3.9.3.5 0 .8-.2 1.1-.5l.4.4c-.2.2-.4.4-.7.5-.3.1-.5.2-.9.2s-.8-.1-1.1-.2c-.3-.2-.6-.4-.7-.7-.2-.3-.3-.6-.3-1s.1-.7.2-1c.2-.3.4-.5.7-.7.3-.2.6-.3 1-.3s.7.1 1 .3c.3.2.5.4.7.7.4.3.4.6.4 1zm-1.9-1.4c-.3 0-.6.1-.8.3-.2.2-.4.5-.4.8h2.5c0-.3-.2-.6-.4-.8-.2-.2-.5-.3-.9-.3zm3-.5h.7V20h2.2v-1.6h.7v3.8h-.7v-1.6h-2.2v1.6h-.7v-3.8zm6.6 3.8c-.4 0-.7-.1-1-.3-.3-.2-.5-.4-.7-.7-.2-.3-.3-.6-.3-1s.1-.7.3-1c.2-.3.4-.5.7-.7.3-.2.6-.3 1-.3s.7.1 1 .3c.3.2.5.4.7.7.2.3.3.6.3 1s-.1.7-.3 1c-.2.3-.4.5-.7.7-.3.3-.6.3-1 .3zm0-.6c.2 0 .5-.1.7-.2.2-.1.4-.3.5-.5.1-.2.2-.4.2-.7 0-.3-.1-.5-.2-.7-.1-.2-.3-.4-.5-.5-.2-.1-.4-.2-.7-.2s-.5.1-.7.2c-.2.1-.3.3-.5.5-.1.2-.2.4-.2.7 0 .3.1.5.2.7.1.2.3.4.5.5.2.2.5.2.7.2zm4.7.6c-.4 0-.7-.1-1.1-.3-.3-.2-.5-.4-.7-.7-.2-.3-.3-.6-.3-1s.1-.7.3-1c.2-.3.4-.5.7-.7.3-.2.7-.3 1.1-.3.3 0 .7.1.9.2.3.1.5.3.6.6l-.5.3c-.1-.2-.3-.3-.4-.4-.2-.1-.4-.1-.6-.1-.3 0-.5.1-.7.2-.2.1-.4.3-.5.5-.1.2-.2.4-.2.7 0 .3.1.5.2.7.1.2.3.4.5.5.2.1.4.2.7.2.2 0 .4 0 .6-.1s.3-.2.4-.4l.5.3c-.1.3-.4.5-.6.6-.3.2-.6.2-.9.2zm2.5-3.8h.7v2.8l2.4-2.8h.6v3.8h-.7v-2.8l-2.4 2.8h-.6v-3.8zm9.4 0v3.8h-.6v-2.8l-1.4 2.4h-.4l-1.4-2.4v2.8h-.6v-3.8h.7l1.5 2.6 1.6-2.6h.6zm3 3.8c-.4 0-.7-.1-1-.3-.3-.2-.5-.4-.7-.7-.2-.3-.3-.6-.3-1s.1-.7.3-1c.2-.3.4-.5.7-.7.3-.2.6-.3 1-.3s.7.1 1 .3c.3.2.5.4.7.7.2.3.3.6.3 1s-.1.7-.3 1c-.2.3-.4.5-.7.7-.3.3-.6.3-1 .3zm0-.6c.2 0 .5-.1.7-.2.2-.1.4-.3.5-.5.1-.2.2-.4.2-.7 0-.3-.1-.5-.2-.7-.1-.2-.3-.4-.5-.5-.2-.1-.4-.2-.7-.2-.2 0-.5.1-.7.2-.2.1-.3.3-.5.5-.1.2-.2.4-.2.7 0 .3.1.5.2.7.1.2.3.4.5.5.3.2.5.2.7.2zm4.7.6c-.4 0-.7-.1-1.1-.3-.3-.2-.5-.4-.7-.7-.2-.3-.3-.6-.3-1s.1-.7.3-1c.2-.3.4-.5.7-.7.3-.2.7-.3 1.1-.3.3 0 .7.1.9.2.3.1.5.3.6.6l-.5.3c-.1-.2-.3-.3-.5-.4-.2-.1-.4-.1-.6-.1-.3 0-.5.1-.7.2-.2.1-.4.3-.5.5-.1.2-.2.4-.2.7 0 .3.1.5.2.7.1.2.3.4.5.5.2.1.4.2.7.2.2 0 .4 0 .6-.1.2-.1.3-.2.5-.4l.5.3c-.1.3-.4.5-.6.6-.2.2-.6.2-.9.2zm5.3-3.2H268v3.2h-.7V19h-1.4v-.6h3.5v.6zm2.5.7c.5 0 .9.1 1.1.3.3.2.4.5.4.9s-.1.7-.4 1c-.3.2-.7.3-1.2.3h-1.7v-3.8h.7v1.3h1.1zm-.2 2c.3 0 .6-.1.7-.2.2-.1.2-.3.2-.6s-.1-.4-.2-.6c-.2-.1-.4-.2-.7-.2h-.9v1.5l.9.1zm-132.3 7.9h-.8v1.6h-.7v-3.8h.7V29h.8l1.2-1.6h.7l-1.5 1.8 1.6 2h-.8l-1.2-1.6zm4.3 1.6c-.4 0-.7-.1-1-.3-.3-.2-.5-.4-.7-.7-.2-.3-.3-.6-.3-1s.1-.7.3-1c.2-.3.4-.5.7-.7.3-.2.6-.3 1-.3s.7.1 1 .3c.3.2.5.4.7.7.2.3.3.6.3 1s-.1.7-.3 1c-.2.3-.4.5-.7.7-.3.3-.6.3-1 .3zm0-.6c.2 0 .5-.1.7-.2.2-.1.4-.3.5-.5.1-.2.2-.4.2-.7 0-.3-.1-.5-.2-.7-.1-.2-.3-.4-.5-.5-.2-.1-.4-.2-.7-.2-.2 0-.5.1-.7.2-.2.1-.3.3-.5.5-.1.2-.2.4-.2.7 0 .3.1.5.2.7.1.2.3.4.5.5.2.2.5.2.7.2zm7.4-3.2v3.8h-.6v-2.8l-1.4 2.4h-.3l-1.4-2.4v2.8h-.6v-3.8h.7L149 30l1.6-2.6h.5zm5 0v3.8h-.7V28h-2.2v3.2h-.7v-3.8h3.6zm3 3.8c-.4 0-.7-.1-1-.3-.3-.2-.5-.4-.7-.7-.2-.3-.3-.6-.3-1s.1-.7.3-1c.2-.3.4-.5.7-.7.3-.2.6-.3 1-.3s.7.1 1 .3c.3.2.5.4.7.7.2.3.3.6.3 1s-.1.7-.3 1c-.2.3-.4.5-.7.7-.3.3-.7.3-1 .3zm0-.6c.2 0 .5-.1.7-.2.2-.1.4-.3.5-.5.1-.2.2-.4.2-.7 0-.3-.1-.5-.2-.7-.1-.2-.3-.4-.5-.5-.2-.1-.4-.2-.7-.2-.2 0-.5.1-.7.2-.2.1-.3.3-.5.5-.1.2-.2.4-.2.7 0 .3.1.5.2.7.1.2.3.4.5.5.2.2.4.2.7.2zm3-3.2h.7V29h2.2v-1.6h.7v3.8h-.7v-1.6h-2.2v1.6h-.7v-3.8zm8.4 1.9v.2h-3.1c0 .3.2.6.4.8.3.2.6.3.9.3.5 0 .8-.2 1.1-.5l.4.4c-.2.2-.4.4-.7.5-.3.1-.5.2-.9.2s-.8-.1-1.1-.2c-.3-.2-.6-.4-.7-.7-.2-.3-.3-.6-.3-1s.1-.7.2-1c.2-.3.4-.5.7-.7.3-.2.6-.3 1-.3s.7.1 1 .3c.3.2.5.4.7.7.3.3.4.6.4 1zm-1.9-1.4c-.3 0-.6.1-.8.3-.2.2-.4.5-.4.8h2.5c0-.3-.2-.6-.4-.8-.3-.2-.6-.3-.9-.3zm3-.5h.7V29h2.2v-1.6h.7v3.8h-.7v-1.6h-2.2v1.6h-.7v-3.8zm7.8.6H178v3.2h-.7V28h-1.4v-.6h3.5v.6zm2.1 3.2c-.4 0-.7-.1-1-.3-.3-.2-.5-.4-.7-.7-.2-.3-.3-.6-.3-1s.1-.7.3-1c.2-.3.4-.5.7-.7.3-.2.6-.3 1-.3s.7.1 1 .3c.3.2.5.4.7.7.2.3.3.6.3 1s-.1.7-.3 1c-.2.3-.4.5-.7.7-.2.3-.6.3-1 .3zm0-.6c.2 0 .5-.1.7-.2.2-.1.4-.3.5-.5.1-.2.2-.4.2-.7 0-.3-.1-.5-.2-.7-.1-.2-.3-.4-.5-.5-.2-.1-.4-.2-.7-.2-.2 0-.5.1-.7.2-.2.1-.3.3-.5.5-.1.2-.2.4-.2.7 0 .3.1.5.2.7.1.2.3.4.5.5.3.2.5.2.7.2zm5.7-1.4c.5.1.7.4.7.9 0 .3-.1.6-.4.8-.3.2-.6.3-1.1.3h-1.8v-3.8h1.8c.5 0 .8.1 1.1.3.3.2.4.4.4.7 0 .2-.1.4-.2.5-.2.1-.3.2-.5.3zm-2-.2h1c.3 0 .5 0 .6-.1.1-.1.2-.2.2-.4 0-.4-.3-.6-.8-.6h-1V29zm1.1 1.7c.3 0 .5 0 .7-.1s.2-.2.2-.4-.1-.3-.2-.4c-.1-.1-.3-.1-.6-.1h-1.2v1.2h1.1zm2.9-.5c.1 0 .2 0 .3.1.1.1.1.2.1.3v.2c0 .1 0 .2-.1.3l-.3 1h-.5l.3-1.1c-.1 0-.2-.1-.2-.2-.1-.1-.1-.2-.1-.3 0-.1 0-.3.1-.4.1.2.2.1.4.1zm5.4-2.7c.4 0 .7.1 1 .2.3.2.5.4.7.7.2.3.2.6.2 1s-.1.7-.3 1c-.2.3-.4.5-.7.7-.3.2-.6.2-1 .2-.7 0-1.2-.2-1.5-.7-.4-.4-.5-1.1-.5-1.9 0-.8.2-1.4.5-1.8.3-.4.8-.7 1.5-.9l1.8-.4.1.6-1.6.3c-.5.1-.9.3-1.1.6-.2.3-.4.6-.4 1.1l.6-.6c0-.1.3-.1.7-.1zm-.2 3.2c.2 0 .5-.1.7-.2.2-.1.3-.3.4-.5.1-.2.2-.4.2-.7 0-.4-.1-.7-.3-.9-.2-.2-.5-.3-.9-.3s-.7.1-.9.3c-.2.2-.3.5-.3.9 0 .3.1.5.2.7.1.2.3.3.5.5 0 .1.2.2.4.2zm6.5-1.4v.2h-3.1c0 .3.2.6.4.8.3.2.6.3.9.3.5 0 .8-.2 1.1-.5l.4.4c-.2.2-.4.4-.7.5-.3.1-.5.2-.9.2s-.8-.1-1.1-.2c-.3-.2-.6-.4-.7-.7-.2-.3-.3-.6-.3-1s.1-.7.2-1c.2-.3.4-.5.7-.7.3-.2.6-.3 1-.3s.7.1 1 .3c.3.2.5.4.7.7.3.3.4.6.4 1zm-1.9-1.4c-.3 0-.6.1-.8.3-.2.2-.4.5-.4.8h2.5c0-.3-.2-.6-.4-.8-.3-.2-.6-.3-.9-.3zm5-.6c.4 0 .7.1 1 .2s.5.4.7.7c.2.3.3.6.3 1s-.1.7-.3 1c-.2.3-.4.5-.7.7-.3.2-.6.2-1 .2-.3 0-.5-.1-.8-.2-.2-.1-.4-.3-.6-.5v2h-.6v-5.3h.7v.9c.2-.2.4-.4.6-.5.1-.1.4-.2.7-.2zm-.1 3.3c.2 0 .5-.1.7-.2.2-.1.4-.3.5-.5.1-.2.2-.4.2-.7 0-.3-.1-.5-.2-.7-.1-.2-.3-.4-.5-.5-.2-.1-.4-.2-.7-.2-.2 0-.5.1-.7.2-.2.1-.3.3-.5.5-.1.2-.2.4-.2.7 0 .3.1.5.2.7.1.2.3.4.5.5.3.2.5.2.7.2zm6.5-1.3v.2h-3.1c0 .3.2.6.4.8.3.2.6.3.9.3.5 0 .8-.2 1.1-.5l.4.4c-.2.2-.4.4-.7.5-.3.1-.5.2-.9.2s-.8-.1-1.1-.2c-.3-.2-.6-.4-.7-.7-.2-.3-.3-.6-.3-1s.1-.7.2-1c.2-.3.4-.5.7-.7.3-.2.6-.3 1-.3s.7.1 1 .3c.3.2.5.4.7.7.3.3.4.6.4 1zm-1.9-1.4c-.3 0-.6.1-.8.3-.2.2-.4.5-.4.8h2.5c0-.3-.2-.6-.4-.8-.3-.2-.5-.3-.9-.3zm7.4-.5v3.8h-.6v-2.8l-1.4 2.4h-.3l-1.4-2.4v2.8h-.6v-3.8h.7l1.5 2.6 1.6-2.6h.5zm4.9 1.9v.2h-3.1c0 .3.2.6.4.8.3.2.6.3.9.3.5 0 .8-.2 1.1-.5l.4.4c-.2.2-.4.4-.7.5-.3.1-.5.2-.9.2s-.8-.1-1.1-.2c-.3-.2-.6-.4-.7-.7-.2-.3-.3-.6-.3-1s.1-.7.2-1c.2-.3.4-.5.7-.7.3-.2.6-.3 1-.3s.7.1 1 .3c.3.2.5.4.7.7.3.3.4.6.4 1zm-1.9-1.4c-.3 0-.6.1-.8.3-.2.2-.4.5-.4.8h2.5c0-.3-.2-.6-.4-.8-.3-.2-.6-.3-.9-.3zm2.9-.5h.7V29h2.2v-1.6h.7v3.8h-.7v-1.6h-2.2v1.6h-.7v-3.8zm5 0h.7V29h2.2v-1.6h.7v3.8h-.7v-1.6h-2.2v1.6h-.7v-3.8zm6.6 3.8c-.4 0-.7-.1-1-.3-.3-.2-.5-.4-.7-.7-.2-.3-.3-.6-.3-1s.1-.7.3-1c.2-.3.4-.5.7-.7.3-.2.6-.3 1-.3s.7.1 1 .3c.3.2.5.4.7.7.2.3.3.6.3 1s-.1.7-.3 1c-.2.3-.4.5-.7.7-.3.3-.7.3-1 .3zm0-.6c.2 0 .5-.1.7-.2.2-.1.4-.3.5-.5.1-.2.2-.4.2-.7 0-.3-.1-.5-.2-.7-.1-.2-.3-.4-.5-.5-.2-.1-.4-.2-.7-.2-.2 0-.5.1-.7.2-.2.1-.3.3-.5.5-.1.2-.2.4-.2.7 0 .3.1.5.2.7.1.2.3.4.5.5.2.2.4.2.7.2zm4.6.6c-.4 0-.7-.1-1.1-.3-.3-.2-.5-.4-.7-.7-.2-.3-.3-.6-.3-1s.1-.7.3-1c.2-.3.4-.5.7-.7.3-.2.7-.3 1.1-.3.3 0 .7.1.9.2.3.1.5.3.6.6l-.5.3c-.1-.2-.3-.3-.4-.4-.2-.1-.4-.1-.6-.1-.3 0-.5.1-.7.2-.2.1-.4.3-.5.5-.1.2-.2.4-.2.7 0 .3.1.5.2.7.1.2.3.4.5.5.2.1.4.2.7.2.2 0 .4 0 .6-.1s.3-.2.4-.4l.5.3c-.1.3-.4.5-.6.6-.2.2-.5.2-.9.2zm5.3-3.2h-1.4v3.2h-.7V28h-1.4v-.6h3.5v.6zm2.5.7c.5 0 .9.1 1.1.3.3.2.4.5.4.9s-.1.7-.4 1c-.3.2-.7.3-1.2.3H244v-3.8h.7v1.3h1.1zm-.1 2c.3 0 .6-.1.7-.2.2-.1.2-.3.2-.6s-.1-.4-.2-.6c-.2-.1-.4-.2-.7-.2h-.9v1.5l.9.1zm2.6-.5c.1 0 .2 0 .3.1.1.1.1.2.1.3v.2c0 .1 0 .2-.1.3l-.3 1h-.5l.3-1.1c-.1 0-.2-.1-.2-.2-.1-.1-.1-.2-.1-.3 0-.1 0-.3.1-.4s.3.1.4.1zm-108.9 8.4h-.8v1.6h-.7v-3.8h.7V38h.8l1.2-1.6h.7l-1.5 1.8 1.6 2h-.8l-1.2-1.6zm4.3 1.6c-.4 0-.7-.1-1-.3-.3-.2-.5-.4-.7-.7-.2-.3-.3-.6-.3-1s.1-.7.3-1c.2-.3.4-.5.7-.7.3-.2.6-.3 1-.3s.7.1 1 .3c.3.2.5.4.7.7.2.3.3.6.3 1s-.1.7-.3 1c-.2.3-.4.5-.7.7-.3.3-.6.3-1 .3zm0-.6c.2 0 .5-.1.7-.2.2-.1.4-.3.5-.5.1-.2.2-.4.2-.7s-.1-.5-.2-.7c-.1-.2-.3-.4-.5-.5-.2-.1-.4-.2-.7-.2-.2 0-.5.1-.7.2-.2.1-.3.3-.5.5-.1.2-.2.4-.2.7s.1.5.2.7c.1.2.3.4.5.5.2.2.5.2.7.2zm5.1-3.3c.4 0 .7.1 1 .2.3.2.5.4.7.7.2.3.3.6.3 1s-.1.7-.3 1c-.2.3-.4.5-.7.7-.3.2-.6.2-1 .2-.3 0-.5-.1-.8-.2-.2-.1-.4-.3-.6-.5v2h-.7v-5.3h.7v.9c.2-.2.4-.4.6-.5.2-.1.5-.2.8-.2zm-.1 3.3c.2 0 .5-.1.7-.2.2-.1.4-.3.5-.5.1-.2.2-.4.2-.7s-.1-.5-.2-.7c-.1-.2-.3-.4-.5-.5-.2-.1-.4-.2-.7-.2-.2 0-.5.1-.7.2-.2.1-.3.3-.5.5-.1.2-.2.4-.2.7s.1.5.2.7c.1.2.3.4.5.5.2.2.5.2.7.2zm7.4-3.2v3.8h-.6v-2.8l-1.4 2.4h-.3l-1.4-2.4v2.8h-.6v-3.8h.7L154 39l1.6-2.6h.5zm4.7 0v3.8h-.7V37h-1.7v.9c0 .5-.1 1-.1 1.3-.1.3-.2.6-.3.8-.2.2-.4.3-.6.3-.1 0-.3 0-.4-.1v-.6h.2c.2 0 .3-.1.4-.3.1-.2.2-.4.2-.6 0-.2.1-.6.1-1l.1-1.4h2.8zm4.8 1.9v.2h-3.1c0 .3.2.6.4.8.3.2.6.3.9.3.5 0 .8-.2 1.1-.5l.4.4c-.2.2-.4.4-.7.5-.3.1-.5.2-.9.2s-.8-.1-1.1-.2c-.3-.2-.6-.4-.7-.7-.2-.3-.3-.6-.3-1s.1-.7.2-1c.2-.3.4-.5.7-.7.3-.2.6-.3 1-.3s.7.1 1 .3c.3.2.5.4.7.7.3.3.4.6.4 1zm-1.9-1.4c-.3 0-.6.1-.8.3-.2.2-.4.5-.4.8h2.5c0-.3-.2-.6-.4-.8-.3-.2-.5-.3-.9-.3zm3-.5h.7V38h2.2v-1.6h.7v3.8h-.7v-1.6h-2.2v1.6h-.7v-3.8zm4.9 0h.7v2.8l2.4-2.8h.6v3.8h-.7v-2.8l-2.4 2.8h-.6v-3.8zm8.5 1.9v.2H177c0 .3.2.6.4.8.3.2.6.3.9.3.5 0 .8-.2 1.1-.5l.4.4c-.2.2-.4.4-.7.5-.3.1-.5.2-.9.2s-.8-.1-1.1-.2c-.3-.2-.6-.4-.7-.7-.2-.3-.3-.6-.3-1s.1-.7.2-1c.2-.3.4-.5.7-.7.3-.2.6-.3 1-.3s.7.1 1 .3c.3.2.5.4.7.7.4.3.4.6.4 1zm-1.9-1.4c-.3 0-.6.1-.8.3-.2.2-.4.5-.4.8h2.5c0-.3-.2-.6-.4-.8-.2-.2-.5-.3-.9-.3zm7.8.1h-2.1v3.2h-.7v-3.8h2.8v.6zm2.8-.7c.4 0 .7.1 1 .2.3.2.5.4.7.7.2.3.3.6.3 1s-.1.7-.3 1c-.2.3-.4.5-.7.7-.3.2-.6.2-1 .2-.3 0-.5-.1-.8-.2-.2-.1-.4-.3-.6-.5v2h-.7v-5.3h.7v.9c.2-.2.4-.4.6-.5.2-.1.5-.2.8-.2zm-.1 3.3c.2 0 .5-.1.7-.2.2-.1.4-.3.5-.5.1-.2.2-.4.2-.7s-.1-.5-.2-.7c-.1-.2-.3-.4-.5-.5-.2-.1-.4-.2-.7-.2-.2 0-.5.1-.7.2-.2.1-.3.3-.5.5-.1.2-.2.4-.2.7s.1.5.2.7c.1.2.3.4.5.5.2.2.5.2.7.2zm6.3-3.2-1.9 4.2c-.2.4-.4.7-.6.8-.2.2-.5.2-.8.2-.2 0-.4 0-.6-.1-.2-.1-.3-.1-.4-.3l.3-.5c.2.2.4.3.7.3.2 0 .3 0 .4-.1.1-.1.2-.2.3-.5l.1-.3-1.7-3.8h.7l1.3 3.1 1.3-3.1h.9zm4.5 3.2v1.5h-.7v-.9h-3.2v.9h-.7v-1.5h.2c.2 0 .4-.2.5-.5.1-.3.2-.8.2-1.4l.1-1.3h3v3.2h.6zm-3-1.9c0 .5-.1.9-.1 1.2-.1.3-.2.5-.3.7h2.2V37h-1.7l-.1.7zm5.6 0c.5 0 .9.1 1.1.3.3.2.4.5.4.9s-.1.7-.4 1c-.3.2-.7.3-1.2.3h-1.7v-3.8h.7v1.3h1.1zm-.1 2c.3 0 .6-.1.7-.2.2-.1.2-.3.2-.6s-.1-.4-.2-.6c-.2-.1-.4-.2-.7-.2h-.9v1.5l.9.1zm5.9-3.4c.4 0 .7.1 1 .3.3.2.5.4.7.7.2.3.3.6.3 1s-.1.7-.3 1c-.2.3-.4.5-.7.7s-.6.3-1 .3c-.3 0-.6-.1-.9-.2-.3-.1-.5-.3-.7-.6-.2-.3-.3-.5-.3-.9h-.8v1.6h-.7v-3.8h.7V38h.8c0-.3.2-.6.3-.8.2-.2.4-.4.7-.6.3-.2.6-.3.9-.3zm0 3.3c.2 0 .5-.1.6-.2.2-.1.3-.3.5-.5.1-.2.2-.4.2-.7 0-.3-.1-.5-.2-.7-.1-.2-.3-.4-.5-.5-.2-.1-.4-.2-.6-.2s-.5.1-.6.2c-.2.1-.3.3-.5.5-.1.2-.2.4-.2.7 0 .3.1.5.2.7.1.2.3.4.5.5.2.2.4.2.6.2zm3.1-.4c.1 0 .2 0 .3.1.1.1.1.2.1.3v.2c0 .1 0 .2-.1.3l-.3 1h-.5l.3-1.1c-.1 0-.2-.1-.2-.2-.1-.1-.1-.2-.1-.3 0-.1 0-.3.1-.4.1.2.2.1.4.1zm7-2.8v3.8h-.7V37h-2.2v3.2h-.7v-3.8h3.6zm3 3.8c-.4 0-.7-.1-1-.3-.3-.2-.5-.4-.7-.7-.2-.3-.3-.6-.3-1s.1-.7.3-1c.2-.3.4-.5.7-.7.3-.2.6-.3 1-.3s.7.1 1 .3c.3.2.5.4.7.7.2.3.3.6.3 1s-.1.7-.3 1c-.2.3-.4.5-.7.7-.3.3-.7.3-1 .3zm0-.6c.2 0 .5-.1.7-.2.2-.1.4-.3.5-.5.1-.2.2-.4.2-.7s-.1-.5-.2-.7c-.1-.2-.3-.4-.5-.5-.2-.1-.4-.2-.7-.2-.2 0-.5.1-.7.2-.2.1-.3.3-.5.5-.1.2-.2.4-.2.7s.1.5.2.7c.1.2.3.4.5.5.2.2.4.2.7.2zm5.6-1.4c.5.1.7.4.7.9 0 .3-.1.6-.4.8-.3.2-.6.3-1.1.3H224v-3.8h1.8c.5 0 .8.1 1.1.3.3.2.4.4.4.7 0 .2-.1.4-.2.5-.2.1-.3.2-.5.3zm-2-.2h1c.3 0 .5 0 .6-.1.1-.1.2-.2.2-.4 0-.4-.3-.6-.8-.6h-1V38zm1.2 1.7c.3 0 .5 0 .7-.1s.2-.2.2-.4-.1-.3-.2-.4c-.1-.1-.3-.1-.6-.1h-1.2v1.2h1.1zm4.3-2c.5 0 .9.1 1.1.3.3.2.4.5.4.9s-.1.7-.4 1c-.3.2-.7.3-1.2.3h-1.6v-3.8h.7v1.3h1zm2.1-1.3h.7v3.8h-.7v-3.8zm-2.2 3.3c.3 0 .6-.1.7-.2.2-.1.2-.3.2-.6s-.1-.4-.2-.6c-.2-.1-.4-.2-.7-.2h-.9v1.5l.9.1zm9.7-3.3v3.8h-5.5v-3.8h.7v3.2h1.7v-3.2h.7v3.2h1.7v-3.2h.7zm4.9 1.9v.2h-3.1c0 .3.2.6.4.8.3.2.6.3.9.3.5 0 .8-.2 1.1-.5l.4.4c-.2.2-.4.4-.7.5-.3.1-.5.2-.9.2s-.8-.1-1.1-.2c-.3-.2-.6-.4-.7-.7-.2-.3-.3-.6-.3-1s.1-.7.2-1c.2-.3.4-.5.7-.7.3-.2.6-.3 1-.3s.7.1 1 .3c.3.2.5.4.7.7.3.3.4.6.4 1zm-1.9-1.4c-.3 0-.6.1-.8.3-.2.2-.4.5-.4.8h2.5c0-.3-.2-.6-.4-.8-.3-.2-.6-.3-.9-.3zm2.9-.5h.7V38h2.2v-1.6h.7v3.8h-.7v-1.6h-2.2v1.6h-.7v-3.8zm5 0h.7V38h2.2v-1.6h.7v3.8h-.7v-1.6h-2.2v1.6h-.7v-3.8zm6.3-.1c.5 0 .9.1 1.2.4.3.3.4.7.4 1.2v2.3h-.7v-.5c-.1.2-.3.3-.5.4-.2.1-.5.1-.8.1-.4 0-.8-.1-1-.3-.3-.2-.4-.5-.4-.8s.1-.6.4-.8c.2-.2.6-.3 1.2-.3h1.1v-.1c0-.3-.1-.5-.3-.7-.2-.2-.4-.2-.8-.2-.2 0-.4 0-.7.1l-.6.3-.3-.5c.2-.2.4-.3.7-.4.5-.1.8-.2 1.1-.2zm-.2 3.4c.3 0 .5-.1.7-.2.2-.1.3-.3.4-.5v-.5h-1.1c-.6 0-.9.2-.9.6 0 .2.1.3.2.5.3 0 .5.1.7.1zm6.2-3.3v3.8h-.6V39H261.1l-.8 1.2h-.7l.9-1.3c-.3-.1-.5-.2-.7-.4-.2-.2-.2-.5-.2-.8 0-.4.2-.8.5-1 .3-.2.7-.3 1.2-.3h1.6zm-2.7 1.3c0 .3.1.4.2.6.2.1.4.2.7.2h1.1V37h-1c-.6 0-1 .2-1 .7zM139.5 49.2c-.4 0-.7-.1-1.1-.3-.3-.2-.5-.4-.7-.7-.2-.3-.3-.6-.3-1s.1-.7.3-1c.2-.3.4-.5.7-.7.3-.2.7-.3 1.1-.3.3 0 .7.1.9.2.3.1.5.3.6.6l-.5.3c-.1-.2-.3-.3-.4-.4-.2-.1-.4-.1-.6-.1-.3 0-.5.1-.7.2-.2.1-.4.3-.5.5-.1.2-.2.4-.2.7 0 .3.1.5.2.7.1.2.3.4.5.5.2.1.4.2.7.2.2 0 .4 0 .6-.1s.3-.2.4-.4l.5.3c-.1.3-.4.5-.6.6-.2.2-.5.2-.9.2zm4-1.6h-.8v1.6h-.7v-3.8h.7V47h.8l1.2-1.6h.7l-1.5 1.8 1.6 2h-.8l-1.2-1.6zm6.1-2.2v3.8h-.7V46h-1.7v.9c0 .5-.1 1-.1 1.3-.1.3-.2.6-.3.8-.2.2-.4.3-.6.3-.1 0-.3 0-.4-.1v-.6h.2c.2 0 .3-.1.4-.3.1-.2.2-.4.2-.6 0-.2.1-.6.1-1l.1-1.4h2.8zm3 3.8c-.4 0-.7-.1-1-.3-.3-.2-.5-.4-.7-.7-.2-.3-.3-.6-.3-1s.1-.7.3-1c.2-.3.4-.5.7-.7.3-.2.6-.3 1-.3s.7.1 1 .3c.3.2.5.4.7.7.2.3.3.6.3 1s-.1.7-.3 1c-.2.3-.4.5-.7.7-.2.3-.6.3-1 .3zm0-.6c.2 0 .5-.1.7-.2.2-.1.4-.3.5-.5.1-.2.2-.4.2-.7s-.1-.5-.2-.7c-.1-.2-.3-.4-.5-.5-.2-.1-.4-.2-.7-.2-.2 0-.5.1-.7.2-.2.1-.3.3-.5.5-.1.2-.2.4-.2.7s.1.5.2.7c.1.2.3.4.5.5.3.2.5.2.7.2zm3-3.2h.7V47h2.2v-1.6h.7v3.8h-.7v-1.6h-2.2v1.6h-.7v-3.8zm5 0h.7V47h2.2v-1.6h.7v3.8h-.7v-1.6h-2.2v1.6h-.7v-3.8zm6.6 3.8c-.4 0-.7-.1-1-.3-.3-.2-.5-.4-.7-.7-.2-.3-.3-.6-.3-1s.1-.7.3-1c.2-.3.4-.5.7-.7.3-.2.6-.3 1-.3s.7.1 1 .3c.3.2.5.4.7.7.2.3.3.6.3 1s-.1.7-.3 1c-.2.3-.4.5-.7.7-.3.3-.7.3-1 .3zm0-.6c.2 0 .5-.1.7-.2.2-.1.4-.3.5-.5.1-.2.2-.4.2-.7s-.1-.5-.2-.7c-.1-.2-.3-.4-.5-.5-.2-.1-.4-.2-.7-.2-.2 0-.5.1-.7.2-.2.1-.3.3-.5.5-.1.2-.2.4-.2.7s.1.5.2.7c.1.2.3.4.5.5.2.2.4.2.7.2zm4.6.6c-.4 0-.7-.1-1.1-.3-.3-.2-.5-.4-.7-.7-.2-.3-.3-.6-.3-1s.1-.7.3-1c.2-.3.4-.5.7-.7.3-.2.7-.3 1.1-.3.3 0 .7.1.9.2.3.1.5.3.6.6l-.5.3c-.1-.2-.3-.3-.4-.4-.2-.1-.4-.1-.6-.1-.3 0-.5.1-.7.2-.2.1-.4.3-.5.5-.1.2-.2.4-.2.7 0 .3.1.5.2.7.1.2.3.4.5.5.2.1.4.2.7.2.2 0 .4 0 .6-.1s.3-.2.4-.4l.5.3c-.1.3-.4.5-.6.6-.2.2-.5.2-.9.2zm5.3-3.2h-1.4v3.2h-.7V46h-1.4v-.6h3.5v.6zm2.5.7c.5 0 .9.1 1.1.3.3.2.4.5.4.9s-.1.7-.4 1c-.3.2-.7.3-1.2.3h-1.7v-3.8h.7v1.3h1.1zm-.2 2c.3 0 .6-.1.7-.2.2-.1.2-.3.2-.6s-.1-.4-.2-.6c-.2-.1-.4-.2-.7-.2h-.9v1.5l.9.1zm6-1.1h-.8v1.6h-.7v-3.8h.7V47h.8l1.2-1.6h.7l-1.5 1.8 1.6 2h-.8l-1.2-1.6zm7.7-1.6h-1.4v3.2h-.7V46h-1.4v-.6h3.5v.6zm2.7-.7c.4 0 .7.1 1 .2.3.2.5.4.7.7.2.3.3.6.3 1s-.1.7-.3 1c-.2.3-.4.5-.7.7-.3.2-.6.2-1 .2-.3 0-.5-.1-.8-.2-.2-.1-.4-.3-.6-.5v2h-.7v-5.3h.7v.9c.2-.2.4-.4.6-.5.3-.1.6-.2.8-.2zm0 3.3c.2 0 .5-.1.7-.2.2-.1.4-.3.5-.5.1-.2.2-.4.2-.7s-.1-.5-.2-.7c-.1-.2-.3-.4-.5-.5-.2-.1-.4-.2-.7-.2-.2 0-.5.1-.7.2-.2.1-.3.3-.5.5-.1.2-.2.4-.2.7s.1.5.2.7c.1.2.3.4.5.5.2.2.4.2.7.2zm4.7.6c-.4 0-.7-.1-1-.3-.3-.2-.5-.4-.7-.7-.2-.3-.3-.6-.3-1s.1-.7.3-1c.2-.3.4-.5.7-.7.3-.2.6-.3 1-.3s.7.1 1 .3c.3.2.5.4.7.7.2.3.3.6.3 1s-.1.7-.3 1c-.2.3-.4.5-.7.7-.3.3-.7.3-1 .3zm0-.6c.2 0 .5-.1.7-.2.2-.1.4-.3.5-.5.1-.2.2-.4.2-.7s-.1-.5-.2-.7c-.1-.2-.3-.4-.5-.5-.2-.1-.4-.2-.7-.2-.2 0-.5.1-.7.2-.2.1-.3.3-.5.5-.1.2-.2.4-.2.7s.1.5.2.7c.1.2.3.4.5.5.2.2.4.2.7.2zm7.4-3.2v3.8h-.6v-2.8l-1.4 2.4h-.3l-1.4-2.4v2.8h-.6v-3.8h.7l1.5 2.6 1.6-2.6h.5zm3.3.1c.4 0 .7.1 1 .2.3.2.5.4.7.7.2.3.2.6.2 1s-.1.7-.3 1c-.2.3-.4.5-.7.7-.3.2-.6.2-1 .2-.7 0-1.2-.2-1.5-.7-.4-.4-.5-1.1-.5-1.9 0-.8.2-1.4.5-1.8.3-.4.8-.7 1.5-.9l1.8-.4.1.6-1.6.3c-.5.1-.9.3-1.1.6-.2.3-.4.6-.4 1.1l.6-.6c.1-.1.4-.1.7-.1zm-.1 3.2c.2 0 .5-.1.7-.2.2-.1.3-.3.4-.5.1-.2.2-.4.2-.7 0-.4-.1-.7-.3-.9-.2-.2-.5-.3-.9-.3s-.7.1-.9.3c-.2.2-.3.5-.3.9 0 .3.1.5.2.7.1.2.3.3.5.5-.1.1.1.2.4.2zm4.6.5c-.4 0-.7-.1-1-.3-.3-.2-.5-.4-.7-.7-.2-.3-.3-.6-.3-1s.1-.7.3-1c.2-.3.4-.5.7-.7.3-.2.6-.3 1-.3s.7.1 1 .3c.3.2.5.4.7.7.2.3.3.6.3 1s-.1.7-.3 1c-.2.3-.4.5-.7.7-.3.3-.6.3-1 .3zm0-.6c.2 0 .5-.1.7-.2.2-.1.4-.3.5-.5.1-.2.2-.4.2-.7s-.1-.5-.2-.7c-.1-.2-.3-.4-.5-.5-.2-.1-.4-.2-.7-.2-.2 0-.5.1-.7.2-.2.1-.3.3-.5.5-.1.2-.2.4-.2.7s.1.5.2.7c.1.2.3.4.5.5.2.2.4.2.7.2zm4.6.6c-.4 0-.7-.1-1-.3-.3-.2-.5-.4-.7-.7-.2-.3-.3-.6-.3-1s.1-.7.3-1c.2-.3.4-.5.7-.7.3-.2.6-.3 1-.3s.7.1 1 .3c.3.2.5.4.7.7.2.3.3.6.3 1s-.1.7-.3 1c-.2.3-.4.5-.7.7-.2.3-.6.3-1 .3zm0-.6c.2 0 .5-.1.7-.2.2-.1.4-.3.5-.5.1-.2.2-.4.2-.7s-.1-.5-.2-.7c-.1-.2-.3-.4-.5-.5-.2-.1-.4-.2-.7-.2-.2 0-.5.1-.7.2-.2.1-.3.3-.5.5-.1.2-.2.4-.2.7s.1.5.2.7c.1.2.3.4.5.5.3.2.5.2.7.2zm5-3.1c.4 0 .7.1 1 .2.3.2.5.4.7.7.2.3.2.6.2 1s-.1.7-.3 1c-.2.3-.4.5-.7.7-.3.2-.6.2-1 .2-.7 0-1.2-.2-1.5-.7-.4-.4-.5-1.1-.5-1.9 0-.8.2-1.4.5-1.8.3-.4.8-.7 1.5-.9l1.8-.4.1.6-1.6.3c-.5.1-.9.3-1.1.6-.2.3-.4.6-.4 1.1l.6-.6c.1-.1.4-.1.7-.1zm-.1 3.2c.2 0 .5-.1.7-.2.2-.1.3-.3.5-.5.1-.2.2-.4.2-.7 0-.4-.1-.7-.3-.9-.2-.2-.5-.3-.9-.3s-.7.1-.9.3c-.2.2-.3.5-.3.9 0 .3.1.5.2.7.1.2.3.3.5.5-.2.1 0 .2.3.2zm5-3.4c.4 0 .7.1 1 .2.3.2.5.4.7.7.2.3.3.6.3 1s-.1.7-.3 1c-.2.3-.4.5-.7.7-.3.2-.6.2-1 .2-.3 0-.5-.1-.8-.2-.2-.1-.4-.3-.6-.5v2h-.7v-5.3h.7v.9c.2-.2.4-.4.6-.5.2-.1.5-.2.8-.2zm-.1 3.3c.2 0 .5-.1.7-.2.2-.1.4-.3.5-.5.1-.2.2-.4.2-.7s-.1-.5-.2-.7c-.1-.2-.3-.4-.5-.5-.2-.1-.4-.2-.7-.2-.2 0-.5.1-.7.2-.2.1-.3.3-.5.5-.1.2-.2.4-.2.7s.1.5.2.7c.1.2.3.4.5.5.3.2.5.2.7.2zm4.4-3.3c.5 0 .9.1 1.2.4.3.3.4.7.4 1.2v2.3h-.7v-.5c-.1.2-.3.3-.5.4-.2.1-.5.1-.8.1-.4 0-.8-.1-1-.3-.3-.2-.4-.5-.4-.8s.1-.6.4-.8c.2-.2.6-.3 1.2-.3h1.1v-.1c0-.3-.1-.5-.3-.7-.2-.2-.4-.2-.8-.2-.2 0-.4 0-.7.1l-.6.3-.3-.5c.2-.2.4-.3.7-.4.5-.1.8-.2 1.1-.2zm-.2 3.4c.3 0 .5-.1.7-.2.2-.1.3-.3.4-.5v-.5h-1.1c-.6 0-.9.2-.9.6 0 .2.1.3.2.5.2 0 .4.1.7.1zm5.1-1.5c.3.1.5.2.6.3.1.1.2.3.2.6 0 .2-.1.4-.2.6-.2.2-.4.3-.6.4-.3.1-.6.1-.9.1-.3 0-.6 0-.8-.1-.3-.1-.5-.2-.7-.3l.2-.5.6.3c.2.1.5.1.7.1.3 0 .6-.1.8-.2.2-.1.3-.3.3-.5s-.1-.3-.2-.4c-.2-.1-.4-.1-.7-.1h-.7V47h.7c.3 0 .5 0 .6-.1.2-.1.2-.2.2-.4s-.1-.3-.3-.4c-.2-.1-.4-.1-.7-.1-.4 0-.8.1-1.2.3l-.2-.5c.5-.2 1-.4 1.5-.4.3 0 .6 0 .8.1.2.1.4.2.6.4s.2.3.2.5-.1.4-.2.5l-.6.3zm3.5 2c-.4 0-.7-.1-1-.3-.3-.2-.5-.4-.7-.7-.2-.3-.3-.6-.3-1s.1-.7.3-1c.2-.3.4-.5.7-.7.3-.2.6-.3 1-.3s.7.1 1 .3c.3.2.5.4.7.7.2.3.3.6.3 1s-.1.7-.3 1c-.2.3-.4.5-.7.7-.3.3-.6.3-1 .3zm0-.6c.2 0 .5-.1.7-.2.2-.1.4-.3.5-.5.1-.2.2-.4.2-.7s-.1-.5-.2-.7c-.1-.2-.3-.4-.5-.5-.2-.1-.4-.2-.7-.2-.2 0-.5.1-.7.2-.2.1-.3.3-.5.5-.1.2-.2.4-.2.7s.1.5.2.7c.1.2.3.4.5.5.2.2.5.2.7.2zm5.6-1.4c.5.1.7.4.7.9 0 .3-.1.6-.4.8-.3.2-.6.3-1.1.3h-1.8v-3.8h1.8c.5 0 .8.1 1.1.3.3.2.4.4.4.7 0 .2-.1.4-.2.5-.1.1-.3.2-.5.3zm-1.9-.2h1c.3 0 .5 0 .6-.1.1-.1.2-.2.2-.4 0-.4-.3-.6-.8-.6h-1V47zm1.1 1.7c.3 0 .5 0 .7-.1.1-.1.2-.2.2-.4s-.1-.3-.2-.4c-.1-.1-.3-.1-.6-.1h-1.2v1.2h1.1zm4-3.4c.5 0 .9.1 1.2.4.3.3.4.7.4 1.2v2.3h-.7v-.5c-.1.2-.3.3-.5.4-.2.1-.5.1-.8.1-.4 0-.8-.1-1-.3-.3-.2-.4-.5-.4-.8s.1-.6.4-.8c.2-.2.6-.3 1.2-.3h1.1v-.1c0-.3-.1-.5-.3-.7-.2-.2-.4-.2-.8-.2-.2 0-.4 0-.7.1l-.6.3-.3-.5c.2-.2.4-.3.7-.4.5-.1.8-.2 1.1-.2zm-.1 3.4c.3 0 .5-.1.7-.2.2-.1.3-.3.4-.5v-.5h-1.1c-.6 0-.9.2-.9.6 0 .2.1.3.2.5.2 0 .4.1.7.1zm3-3.3h.7V47h2.2v-1.6h.7v3.8h-.7v-1.6h-2.2v1.6h-.7v-3.8zm5 0h.7v2.8l2.4-2.8h.6v3.8h-.7v-2.8l-2.4 2.8h-.6v-3.8zm8.4-.1c.4 0 .7.1 1 .3.3.2.5.4.7.7.2.3.3.6.3 1s-.1.7-.3 1c-.2.3-.4.5-.7.7-.3.2-.6.3-1 .3-.3 0-.6-.1-.9-.2-.3-.1-.5-.3-.7-.6-.2-.3-.3-.5-.3-.9h-.8v1.6h-.7v-3.8h.7V47h.8c0-.3.2-.6.3-.8.2-.2.4-.4.7-.6.3-.2.6-.3.9-.3zm0 3.3c.2 0 .4-.1.6-.2.2-.1.3-.3.5-.5.1-.2.2-.4.2-.7 0-.3-.1-.5-.2-.7-.1-.2-.3-.4-.5-.5-.2-.1-.4-.2-.6-.2s-.5.1-.6.2c-.2.1-.3.3-.5.5-.1.2-.2.4-.2.7 0 .3.1.5.2.7.1.2.3.4.5.5.2.2.4.2.6.2zm3 .6c-.1 0-.3 0-.3-.1-.1-.1-.1-.2-.1-.4 0-.1 0-.3.1-.3.1-.1.2-.1.3-.1.1 0 .2 0 .3.1.1.1.1.2.1.4 0 .1 0 .3-.1.4h-.3zM3.2 6.8c-.6 0-1.2-.1-1.7-.4-.4-.3-.8-.6-1.1-1.1-.3-.5-.4-1-.4-1.6s.1-1.1.4-1.6c.3-.5.7-.9 1.2-1.1C2.1.7 2.7.6 3.3.6c.5 0 1 .1 1.4.3.4.1.7.4 1 .7l-.9.9c-.4-.5-.9-.7-1.5-.7-.3 0-.7 0-1 .2-.3.2-.5.4-.7.7-.1.3-.2.6-.2 1s.1.7.2 1c.2.3.4.5.7.7.3.2.6.2 1 .2.6 0 1.1-.2 1.5-.7l.9.8c-.3.4-.6.6-1 .8s-.9.3-1.5.3zm8-4.7v4.6H9.9V3.2H8v3.5H6.7V2.1h4.5zm3.6 4.7c-.5 0-.9-.1-1.3-.3-.4-.2-.7-.5-.9-.8-.2-.4-.3-.8-.3-1.2s.1-.9.3-1.2c.2-.4.5-.6.9-.8.4-.4.8-.5 1.3-.5s.9.1 1.3.3c.4.2.7.5.9.8.2.4.3.8.3 1.2s-.1.9-.3 1.3c-.2.4-.5.6-.9.8-.4.3-.8.4-1.3.4zm0-1.1c.3 0 .6-.1.8-.3.3-.3.4-.6.4-1s-.1-.7-.3-.9c-.2-.2-.5-.4-.8-.4s-.7.1-.9.4c-.2.2-.3.5-.3.9s.1.7.3.9c.2.2.5.4.8.4zm5.8 1.1c-.5 0-.9-.1-1.3-.3-.4-.2-.7-.5-.9-.8-.3-.5-.4-.9-.4-1.3s.1-.9.3-1.2c.2-.4.5-.6.9-.8.5-.3.9-.4 1.4-.4.5 0 .9.1 1.3.3.4.2.6.5.8.9l-1 .6c-.2-.4-.6-.6-1-.6-.3 0-.6.1-.9.3-.2.2-.3.5-.3.9s.1.7.3.9c.2.2.5.3.9.3.5 0 .8-.2 1-.6l1 .6c-.2.4-.4.7-.8.9-.4.2-.8.3-1.3.3zm5.1 0c-.5 0-.9-.1-1.3-.3-.4-.2-.7-.5-.9-.9-.2-.4-.3-.8-.3-1.2s.1-.9.3-1.2c.2-.4.5-.6.9-.8.4-.3.8-.4 1.3-.4s.9.1 1.3.3c.4.2.7.5.9.8.2.4.3.8.3 1.2s-.1.9-.3 1.2c-.2.5-.5.8-.9 1-.4.2-.8.3-1.3.3zm0-1.1c.3 0 .6-.1.8-.3.2-.2.3-.5.3-.9s-.1-.7-.3-.9c-.2-.2-.5-.4-.8-.4-.3 0-.6.1-.8.4-.2.2-.3.5-.3.9s.1.7.3.9c.2.1.5.3.8.3zm6.2-3.3c.4 0 .8.1 1.2.3.3.2.6.4.8.8.2.3.3.7.3 1.1 0 .4-.1.8-.3 1.2-.2.3-.5.6-.9.8-.4.2-.8.3-1.3.3-.8 0-1.4-.3-1.9-.8-.5-.6-.8-1.4-.8-2.4 0-.9.2-1.7.6-2.2.4-.6 1-.9 1.9-1.1l2.2-.4.2 1.1-1.9.4c-.6.1-1 .3-1.2.5-.3.2-.4.6-.4 1 .2-.2.4-.4.7-.5.2 0 .5-.1.8-.1zm-.3 3.4c.3 0 .6-.1.8-.3.2-.2.3-.5.3-.8 0-.3-.1-.6-.3-.8-.2-.2-.5-.3-.8-.3-.3 0-.6.1-.8.3-.2.2-.3.5-.3.8 0 .3.1.6.3.9.2 0 .5.2.8.2zm10.7-3.7v4.6H41V3.2h-1.9v3.5h-1.3V2.1h4.5zm4.1-.1c.4 0 .8.1 1.2.3.4.2.6.5.8.8.2.4.3.8.3 1.2s-.1.9-.3 1.3c-.2.4-.4.7-.8.9-.3.2-.7.3-1.2.3-.6 0-1.1-.2-1.4-.6v2.2h-1.3V2.1H45v.5c.3-.4.8-.6 1.4-.6zm-.2 3.7c.3 0 .6-.1.8-.3.2-.2.3-.5.3-.9s-.1-.7-.3-.9c-.2-.2-.5-.4-.8-.4-.3 0-.6.1-.8.4-.3.1-.4.4-.4.8s.1.7.3.9c.3.2.6.4.9.4zm3.6-3.6h1.3v2.7l2.2-2.7h1.2v4.6h-1.3V3.9L51 6.7h-1.2V2.1zm10.7 4.6V3.9l-1.4 2.3h-.6l-1.3-2.3v2.8H56V2.1h1.4l1.5 2.7 1.6-2.7h1.3v4.6h-1.3zm7.1-2.3v.4h-3.5c.1.3.2.5.4.7.2.2.5.2.9.2.2 0 .5 0 .6-.1.2-.1.4-.2.5-.3l.8.7c-.4.5-1.1.7-1.9.7-.5 0-1-.1-1.4-.3-.4-.2-.7-.5-.9-.8-.2-.4-.3-.8-.3-1.2 0-.5.1-.9.3-1.2.2-.4.5-.6.9-.8.3-.3.8-.4 1.2-.4.5 0 .9.1 1.2.3.4.2.7.5.9.8.2.4.3.8.3 1.3zM65.2 3c-.3 0-.6.1-.8.3-.2.2-.3.4-.4.7h2.3c0-.3-.2-.5-.4-.7-.1-.2-.4-.3-.7-.3zm3.6-.9h1.3v1.8h2V2.1h1.3v4.6h-1.3V5h-2v1.7h-1.3V2.1zm10.5 2.3v.4h-3.5c.1.2.2.5.5.6.2.2.5.2.9.2.2 0 .5 0 .6-.1.2-.1.4-.2.5-.3l.7.8c-.4.5-1.1.7-1.9.7-.5 0-1-.1-1.4-.3-.4-.1-.7-.4-.9-.8-.2-.4-.3-.8-.3-1.2 0-.5.1-.9.3-1.2.2-.4.5-.6.9-.8.4-.3.8-.4 1.2-.4.5 0 .9.1 1.2.3.4.2.7.5.9.8.2.4.3.8.3 1.3zM77 3c-.3 0-.6.1-.8.3-.2.1-.3.4-.4.7h2.3c0-.3-.2-.5-.4-.7-.2-.2-.4-.3-.7-.3zm3.5-.9h1.3v1.8h2V2.1h1.3v4.6h-1.3V5h-2v1.7h-1.3V2.1zm6.1 0h1.3v2.7l2.2-2.7h1.2v4.6H90V3.9l-2.2 2.7h-1.2V2.1zm10.3 0v4.6h-1.2V5.4h-1l-.9 1.3h-1.4l1.1-1.5c-.3-.1-.6-.3-.7-.5-.2-.2-.2-.5-.2-.9 0-.5.2-1 .6-1.3.4-.3.9-.4 1.6-.4h2.1zm-2.2 1.1c-.3 0-.5.1-.7.2-.1.1-.2.3-.2.5s.1.4.2.5c.1.1.4.2.6.2h1V3.2h-.9zm4.1.5c-.2 0-.4-.1-.6-.2-.2-.2-.2-.4-.2-.7 0-.2.1-.4.2-.6.2-.1.4-.2.6-.2.2 0 .4.1.6.2.2.1.2.3.2.6 0 .2-.1.4-.2.6-.2.2-.4.3-.6.3zm0 3.1c-.2 0-.4-.1-.6-.2-.2-.2-.2-.4-.2-.7 0-.2.1-.4.2-.6.2-.2.4-.2.6-.2.2 0 .4.1.6.2.2.1.2.3.2.6 0 .2-.1.4-.2.6-.2.2-.4.3-.6.3zM4.3 18.7c.3.1.6.2.8.4.2.2.3.5.3.8 0 .4-.2.8-.5 1-.3.2-.8.4-1.4.4H1.1v-5.1h2.2c.6 0 1 .1 1.3.3.3.2.5.5.5 1 0 .3-.1.5-.2.7-.2.2-.4.4-.6.5zm-2.5-.2h1.4c.4 0 .6-.1.8-.2.2-.1.3-.3.3-.6s-.1-.5-.3-.6c-.2-.1-.5-.2-.8-.2H1.8v1.6zm1.6 2.3c.8 0 1.2-.3 1.2-.9 0-.3-.1-.5-.3-.6-.2-.2-.5-.3-.9-.3H1.8v1.7h1.6zm5.1-1.5c.3.1.5.2.6.3.1.1.2.3.2.6 0 .2-.1.4-.2.6-.2.2-.4.3-.6.4-.3.1-.6.1-.9.1-.3 0-.6 0-.8-.1-.3-.1-.5-.2-.7-.3l.2-.5.6.3c.2.1.5.1.7.1.3 0 .6-.1.8-.2.2-.1.3-.3.3-.5s-.1-.3-.2-.4c-.2-.1-.4-.1-.7-.1H7v-.5h.7c.3 0 .5 0 .6-.1.1-.1.2-.2.2-.4s-.1-.3-.3-.4c-.1-.1-.4-.2-.7-.2-.4 0-.8.1-1.2.3l-.2-.5c.5-.2 1-.4 1.5-.4.3 0 .6 0 .8.1.2.1.4.2.6.4.1.2.2.3.2.5s-.1.4-.2.5c-.1.2-.3.3-.5.4zm3.9-1.9c.4 0 .7.1 1 .2.3.2.5.4.7.7.2.3.3.6.3 1s-.1.7-.3 1c-.2.3-.4.5-.7.7-.3.2-.6.2-1 .2-.3 0-.5-.1-.8-.2-.2-.1-.4-.3-.6-.5v2h-.7v-5.3h.7v.6c.2-.2.4-.4.6-.5.3.2.5.1.8.1zm0 3.4c.2 0 .5-.1.7-.2.2-.1.4-.3.5-.5.1-.2.2-.4.2-.7 0-.3-.1-.5-.2-.7-.1-.2-.3-.4-.5-.5-.2-.1-.4-.2-.7-.2-.2 0-.5.1-.7.2-.2.1-.3.3-.5.5-.1.2-.2.4-.2.7 0 .3.1.5.2.7.1.2.3.4.5.5.2.1.4.2.7.2zm4.6.6c-.4 0-.7-.1-1-.3-.3-.2-.5-.4-.7-.7-.2-.3-.3-.6-.3-1s.1-.7.3-1c.2-.3.4-.5.7-.7.3-.2.6-.3 1-.3s.7.1 1 .3c.3.2.5.4.7.7.2.3.3.6.3 1s-.1.7-.3 1c-.2.3-.4.5-.7.7-.3.2-.6.3-1 .3zm0-.6c.2 0 .5-.1.7-.2.2-.1.4-.3.5-.5.1-.2.2-.4.2-.7 0-.3-.1-.5-.2-.7-.1-.2-.3-.4-.5-.5-.2-.1-.4-.2-.7-.2-.2 0-.5.1-.7.2-.2.1-.3.3-.5.5-.1.2-.2.4-.2.7 0 .3.1.5.2.7.1.2.3.4.5.5.3.1.5.2.7.2zm4.7.6c-.4 0-.7-.1-1.1-.3-.3-.2-.5-.4-.7-.7-.2-.3-.3-.6-.3-1s.1-.7.3-1c.2-.3.4-.5.7-.7.3-.2.7-.3 1.1-.3.3 0 .7.1.9.2.3.1.5.3.6.6l-.5.3c-.1-.2-.3-.3-.4-.4-.2-.1-.4-.1-.6-.1-.3 0-.5.1-.7.2-.2.1-.4.3-.5.5-.1.2-.2.4-.2.7 0 .3.1.5.2.7.1.2.3.4.5.5.2.1.4.2.7.2.2 0 .4 0 .6-.1.2-.1.3-.2.4-.4l.5.3c-.1.3-.4.5-.6.6-.2.1-.6.2-.9.2zm5.7-3.9v3.8h-.7v-3.2H25v.9c0 .5-.1 1-.1 1.3-.1.3-.2.6-.3.8-.2.2-.4.3-.6.3-.1 0-.3 0-.4-.1v-.6h.2c.2 0 .3-.1.4-.3.1-.2.2-.4.2-.6 0-.2.1-.6.1-1l.1-1.4h2.8zm3 1.3c.5 0 .9.1 1.1.3.3.2.4.5.4.9s-.1.7-.4 1c-.3.2-.7.3-1.2.3h-1.6v-3.8h.7v1.3h1zm2.1-1.3h.7v3.8h-.7v-3.8zm-2.2 3.3c.3 0 .6-.1.7-.2.2-.1.2-.3.2-.6s-.1-.4-.2-.6-.4-.2-.7-.2h-.9v1.5l.9.1zm8.7-3.3v3.8h-.6v-2.8L37 20.9h-.3l-1.4-2.4v2.8h-.6v-3.8h.7l1.5 2.6 1.6-2.6h.5zm6.9 0v3.8h-.7v-3.2H43v3.2h-.7v-3.8h3.6zm3.3-.1c.4 0 .7.1 1 .2.3.2.5.4.7.7.2.3.3.6.3 1s-.1.7-.3 1c-.2.3-.4.5-.7.7-.3.2-.6.2-1 .2-.3 0-.5-.1-.8-.2-.2-.1-.4-.3-.6-.5v2h-.7v-5.3h.7v.6c.2-.2.4-.4.6-.5.3.2.6.1.8.1zm0 3.4c.2 0 .5-.1.7-.2.2-.1.4-.3.5-.5.1-.2.2-.4.2-.7 0-.3-.1-.5-.2-.7-.1-.2-.3-.4-.5-.5-.2-.1-.4-.2-.7-.2-.2 0-.5.1-.7.2-.2.1-.3.3-.5.5-.1.2-.2.4-.2.7 0 .3.1.5.2.7.1.2.3.4.5.5.2.1.4.2.7.2zm3-3.3h.7v2.8l2.4-2.8h.6v3.8h-.7v-2.8l-2.4 2.8h-.6v-3.8zm5 0h.7v1.6h2.2v-1.6h.7v3.8h-.7v-1.6h-2.2v1.6h-.7v-3.8zm5 0h.7v2.8l2.4-2.8h.6v3.8h-.7v-2.8l-2.4 2.8h-.6v-3.8zm9.4 0v3.8H71v-2.8l-1.4 2.4h-.3l-1.4-2.4v2.8h-.6v-3.8h.7l1.5 2.6 1.6-2.6h.5zm2.8-.1c.5 0 .9.1 1.2.4.3.3.4.7.4 1.2v2.3h-.7v-.5c-.1.2-.3.3-.5.4-.2.1-.5.1-.8.1-.4 0-.8-.1-1-.3-.3-.2-.4-.5-.4-.8 0-.3.1-.6.4-.8.2-.2.6-.3 1.2-.3h1.1V19c0-.3-.1-.5-.3-.7-.2-.2-.4-.2-.8-.2-.2 0-.4 0-.7.1l-.6.3-.3-.5c.2-.2.4-.3.7-.4.5-.1.8-.2 1.1-.2zm-.2 3.4c.3 0 .5-.1.7-.2.2-.1.3-.3.4-.5v-.5h-1.1c-.6 0-.9.2-.9.6 0 .2.1.3.2.5.2.1.4.1.7.1zm5.9-2.7h-1.4v3.2H78v-3.2h-1.4v-.6h3.5v.6zm2.5.7c.5 0 .9.1 1.1.3.3.2.4.5.4.9s-.1.7-.4 1c-.3.2-.7.3-1.2.3h-1.7v-3.8h.7v1.3h1.1zm-.1 2c.3 0 .6-.1.7-.2.2-.1.2-.3.2-.6s-.1-.4-.2-.6c-.2-.1-.4-.2-.7-.2h-.9v1.5l.9.1zM4.6 26.5v3.8h-.7v-3.2H1.7v3.2H1v-3.8h3.6zm3 3.9c-.4 0-.7-.1-1-.3-.3-.2-.5-.4-.7-.7-.2-.3-.3-.6-.3-1s.1-.7.3-1c.2-.3.4-.5.7-.7.3-.2.6-.3 1-.3s.7.1 1 .3c.3.2.5.4.7.7.2.3.3.6.3 1s-.1.7-.3 1c-.2.3-.4.5-.7.7-.3.2-.6.3-1 .3zm0-.6c.2 0 .5-.1.7-.2.2-.1.4-.3.5-.5.1-.2.2-.4.2-.7 0-.3-.1-.5-.2-.7-.1-.2-.3-.4-.5-.5-.2-.1-.4-.2-.7-.2s-.5.1-.7.2c-.2.1-.3.3-.5.5-.1.2-.2.4-.2.7 0 .3.1.5.2.7.1.2.3.4.5.5.2.1.4.2.7.2zm6.6.6c-.4 0-.7-.1-1-.3-.3-.2-.5-.4-.7-.7-.2-.3-.3-.6-.3-1s.1-.7.3-1c.2-.3.4-.5.7-.7.3-.2.6-.3 1-.3s.7.1 1 .3c.3.2.5.4.7.7.2.3.3.6.3 1s-.1.7-.3 1c-.2.3-.4.5-.7.7-.3.2-.7.3-1 .3zm0-.6c.2 0 .5-.1.7-.2.2-.1.4-.3.5-.5.1-.2.2-.4.2-.7 0-.3-.1-.5-.2-.7-.1-.2-.3-.4-.5-.5-.2-.1-.4-.2-.7-.2-.2 0-.5.1-.7.2-.2.1-.3.3-.5.5-.1.2-.2.4-.2.7 0 .3.1.5.2.7.1.2.3.4.5.5.2.1.4.2.7.2zm6.8-.1v1.5h-.7v-.9h-3.2v.9h-.7v-1.5h.2c.2 0 .4-.2.5-.5s.2-.8.2-1.4l.1-1.3h3v3.2h.6zm-2.9-1.9c0 .5-.1.9-.1 1.2-.1.3-.2.5-.3.7h2.2v-2.6h-1.7l-.1.7zm3.9-1.3h.7v1.6h2.2v-1.6h.7v3.8h-.7v-1.6h-2.2v1.6H22v-3.8zm6.5 3.9c-.4 0-.7-.1-1-.3-.3-.2-.5-.4-.7-.7-.2-.3-.3-.6-.3-1s.1-.7.3-1c.2-.3.4-.5.7-.7.3-.2.6-.3 1-.3s.7.1 1 .3c.3.2.5.4.7.7.2.3.3.6.3 1s-.1.7-.3 1c-.2.3-.4.5-.7.7-.2.2-.6.3-1 .3zm0-.6c.2 0 .5-.1.7-.2.2-.1.4-.3.5-.5.1-.2.2-.4.2-.7 0-.3-.1-.5-.2-.7-.1-.2-.3-.4-.5-.5-.2-.1-.4-.2-.7-.2-.2 0-.5.1-.7.2-.2.1-.3.3-.5.5-.1.2-.2.4-.2.7 0 .3.1.5.2.7.1.2.3.4.5.5.3.1.5.2.7.2zm3-3.3h.7v2.8l2.4-2.8h.6v3.8h-.7v-2.8l-2.4 2.8h-.6v-3.8zm1.8-.5c-.4 0-.6-.1-.8-.3-.2-.2-.3-.4-.3-.7h.5c0 .2.1.3.2.4.1.1.3.2.5.2s.4-.1.5-.2c.1-.1.2-.3.2-.4h.5c0 .3-.1.6-.3.7-.3.2-.6.3-1 .3zm8.1 1.1H40v3.2h-.7v-3.2h-1.4v-.6h3.5v.6zm2.1-.7c.5 0 .9.1 1.2.4.3.3.4.7.4 1.2v2.3h-.7v-.5c-.1.2-.3.3-.5.4-.2.1-.5.1-.8.1-.4 0-.8-.1-1-.3-.3-.2-.4-.5-.4-.8 0-.3.1-.6.4-.8.2-.2.6-.3 1.2-.3h1.1V28c0-.3-.1-.5-.3-.7-.1-.2-.4-.3-.7-.3-.2 0-.4 0-.7.1l-.6.3-.3-.5c.2-.2.4-.3.7-.4.4 0 .7-.1 1-.1zm-.2 3.4c.3 0 .5-.1.7-.2.2-.1.3-.3.4-.5v-.5h-1.1c-.6 0-.9.2-.9.6 0 .2.1.3.2.5.2.1.4.1.7.1zm5-3.2c.4 0 .7.1 1 .2.3.2.5.4.7.7.2.3.2.6.2 1s-.1.7-.3 1c-.2.3-.4.5-.7.7-.3.2-.6.2-1 .2-.7 0-1.2-.2-1.5-.7-.4-.4-.5-1.1-.5-1.9 0-.8.2-1.4.5-1.8.3-.4.8-.7 1.5-.9l1.8-.4.1.6-1.6.3c-.5.1-.9.3-1.1.6-.2.3-.4.6-.4 1.1l.6-.6c.1 0 .4-.1.7-.1zm-.1 3.2c.2 0 .5-.1.7-.2.2-.1.3-.3.4-.5.1-.2.2-.4.2-.7 0-.4-.1-.7-.3-.9-.2-.2-.5-.3-.9-.3s-.7.1-.9.3c-.2.2-.3.5-.3.9 0 .3.1.5.2.7.1.2.3.3.5.5 0 .1.2.2.4.2zm6.3-3.3v3.8h-.7v-3.2h-1.7v.9c0 .5-.1 1-.1 1.3-.1.3-.2.6-.3.8-.2.2-.4.3-.6.3-.1 0-.3 0-.4-.1v-.6h.2c.2 0 .3-.1.4-.3.1-.2.2-.4.2-.6s.1-.6.1-1l.1-1.4h2.8zm4.8 1.9v.2h-3.1c0 .3.2.6.4.8.3.2.6.3 1 .3.5 0 .8-.2 1.1-.5l.4.4c-.2.2-.4.4-.7.5-.3.1-.5.2-.9.2s-.8-.1-1.1-.2c-.3-.2-.6-.4-.7-.7-.2-.3-.3-.6-.3-1s.1-.7.2-1c.2-.3.4-.5.7-.7.3-.2.6-.3 1-.3s.7.1 1 .3c.3.2.5.4.7.7.2.3.3.6.3 1zM57.4 27c-.3 0-.6.1-.8.3-.2.2-.4.5-.4.8h2.5c0-.3-.2-.6-.4-.8-.3-.2-.6-.3-.9-.3zm5.7.1h-1.4v3.2H61v-3.2h-1.4v-.6h3.5v.6zm2.2 1.6h-.8v1.6h-.7v-3.8h.7v1.6h.8l1.2-1.6h.7l-1.5 1.8 1.6 2h-.8l-1.2-1.6zm6.2-.3v.2h-3.1c0 .3.2.6.4.8.3.2.6.3 1 .3.5 0 .8-.2 1.1-.5l.4.4c-.2.2-.4.4-.7.5-.3.1-.5.2-.9.2s-.8-.1-1.1-.2c-.3-.2-.6-.4-.7-.7-.2-.3-.3-.6-.3-1s.1-.7.2-1c.2-.3.4-.5.7-.7.3-.2.6-.3 1-.3s.7.1 1 .3c.3.2.5.4.7.7.2.3.3.6.3 1zM69.6 27c-.3 0-.6.1-.8.3-.2.2-.4.5-.4.8h2.5c0-.3-.2-.6-.4-.8-.3-.2-.6-.3-.9-.3zm6.1-1.8v5.1H75v-4.4h-1.1v-.6h1.8zm5.5 1.2c.4 0 .7.1 1 .2.3.2.5.4.7.7.2.3.3.6.3 1s-.1.7-.3 1c-.2.3-.4.5-.7.7-.3.2-.6.2-1 .2-.3 0-.5-.1-.8-.2-.2-.1-.4-.3-.6-.5v2h-.7v-5.3h.7v.6c.2-.2.4-.4.6-.5.2.2.5.1.8.1zm-.1 3.4c.2 0 .5-.1.7-.2.2-.1.4-.3.5-.5.1-.2.2-.4.2-.7 0-.3-.1-.5-.2-.7-.1-.2-.3-.4-.5-.5-.2-.1-.4-.2-.7-.2-.2 0-.5.1-.7.2-.2.1-.3.3-.5.5-.1.2-.2.4-.2.7 0 .3.1.5.2.7.1.2.3.4.5.5.2.1.5.2.7.2zm4.3-3.4c.5 0 .9.1 1.2.4.3.3.4.7.4 1.2v2.3h-.7v-.5c-.1.2-.3.3-.5.4-.2.1-.5.1-.8.1-.4 0-.8-.1-1-.3-.3-.2-.4-.5-.4-.8 0-.3.1-.6.4-.8.2-.2.6-.3 1.2-.3h1.1V28c0-.3-.1-.5-.3-.7 0-.2-.3-.3-.6-.3-.2 0-.4 0-.7.1l-.6.3-.3-.5c.2-.2.4-.3.7-.4.3 0 .6-.1.9-.1zm-.1 3.4c.3 0 .5-.1.7-.2.2-.1.3-.3.4-.5v-.5h-1.1c-.6 0-.9.2-.9.6 0 .2.1.3.2.5.2.1.4.1.7.1zm5.1-1.5c.3.1.5.2.6.3.1.1.2.3.2.6 0 .2-.1.4-.2.6-.2.2-.4.3-.6.4-.3.1-.6.1-.9.1-.3 0-.6 0-.8-.1-.3-.1-.5-.2-.7-.3l.2-.5.6.3c.2.1.5.1.7.1.3 0 .6-.1.8-.2.2-.1.3-.3.3-.5s-.1-.3-.2-.4c-.2-.1-.4-.1-.7-.1H89v-.5h.7c.3 0 .5 0 .6-.1.1-.1.2-.2.2-.4s-.1-.3-.3-.4c-.2-.1-.4-.1-.7-.1-.4 0-.8.1-1.2.3l-.3-.6c.5-.2 1-.4 1.5-.4.3 0 .6 0 .8.1.2.1.4.2.6.4.1.2.2.3.2.5s-.1.4-.2.5c-.2.2-.3.3-.5.4zm6.4 0c.5.1.7.4.7.9 0 .3-.1.6-.4.8-.3.2-.6.3-1.1.3h-1.8v-3.8H96c.5 0 .8.1 1.1.3.3.2.4.4.4.7 0 .2-.1.4-.2.5-.2.1-.3.3-.5.3zm-1.9-.2h1c.3 0 .5 0 .6-.1.1-.1.2-.2.2-.4 0-.4-.3-.6-.8-.6h-1v1.1zm1.1 1.7c.3 0 .5 0 .7-.1.1-.1.2-.2.2-.4s-.1-.3-.2-.4c-.1-.1-.3-.1-.6-.1h-1.2V30H96zm8.5-.1v1.5h-.7v-.9h-3.2v.9h-.6v-1.5h.2c.2 0 .4-.2.5-.5.1-.3.2-.8.2-1.4l.1-1.3h3v3.2h.5zm-3-1.9c0 .5-.1.9-.1 1.2-.1.3-.2.5-.3.7h2.2v-2.6h-1.7l-.1.7zm7.4.6v.2h-3.1c0 .3.2.6.4.8.3.2.6.3 1 .3.5 0 .8-.2 1.1-.5l.4.4c-.2.2-.4.4-.7.5-.3.1-.5.2-.9.2s-.8-.1-1.1-.2c-.3-.2-.6-.4-.7-.7-.2-.3-.3-.6-.3-1s.1-.7.2-1c.2-.3.4-.5.7-.7.3-.2.6-.3 1-.3s.7.1 1 .3c.3.2.5.4.7.7.2.3.3.6.3 1zM107 27c-.3 0-.6.1-.8.3-.2.2-.4.5-.4.8h2.5c0-.3-.2-.6-.4-.8-.3-.2-.6-.3-.9-.3zm3-.5h.7v1.6h2.2v-1.6h.7v3.8h-.7v-1.6h-2.2v1.6h-.7v-3.8zm6.7 1.3c.5 0 .9.1 1.1.3.3.2.4.5.4.9s-.1.7-.4 1c-.3.2-.7.3-1.2.3h-1.7v-3.8h.7v1.3h1.1zm-.2 2c.3 0 .6-.1.7-.2.2-.1.2-.3.2-.6s-.1-.4-.2-.6c-.2-.1-.4-.2-.7-.2h-.9v1.5l.9.1zM3.6 37.3c.5.1.7.4.7.9 0 .3-.1.6-.4.8-.3.2-.6.3-1.1.3H1v-3.8h1.8c.5 0 .8.1 1.1.3.3.2.4.4.4.7 0 .2-.1.4-.2.5-.1.1-.3.3-.5.3zm-1.9-.2h1c.3 0 .5 0 .6-.1.1-.1.2-.2.2-.4 0-.4-.3-.6-.8-.6h-1v1.1zm1.1 1.7c.3 0 .5 0 .7-.1.1-.1.2-.2.2-.4s-.1-.3-.2-.4c-.1-.1-.3-.1-.6-.1H1.7V39h1.1zm4.3.6c-.4 0-.7-.1-1-.3-.3-.2-.5-.4-.7-.7-.2-.3-.3-.6-.3-1s.1-.7.3-1c.2-.3.4-.5.7-.7.3-.2.6-.3 1-.3s.7.1 1 .3c.3.2.5.4.7.7.2.3.3.6.3 1s-.1.7-.3 1c-.2.3-.4.5-.7.7-.3.2-.6.3-1 .3zm0-.6c.2 0 .5-.1.7-.2.2-.1.4-.3.5-.5.1-.2.2-.4.2-.7 0-.3-.1-.5-.2-.7-.1-.2-.3-.4-.5-.5-.2-.1-.4-.2-.7-.2-.2 0-.5.1-.7.2-.2.1-.3.3-.5.5-.1.2-.2.4-.2.7 0 .3.1.5.2.7.1.2.3.4.5.5.2.1.5.2.7.2zm7.6-1.5c.5.1.7.4.7.9 0 .3-.1.6-.4.8-.3.2-.6.3-1.1.3h-1.8v-3.8h1.8c.5 0 .8.1 1.1.3.3.2.4.4.4.7 0 .2-.1.4-.2.5-.2.1-.3.3-.5.3zm-2-.2h1c.3 0 .5 0 .6-.1.1-.1.2-.2.2-.4 0-.4-.3-.6-.8-.6h-1v1.1zm1.2 1.7c.3 0 .5 0 .7-.1.1-.1.2-.2.2-.4s-.1-.3-.2-.4c-.1-.1-.3-.1-.6-.1h-1.2V39h1.1zm4.7-3.4c.4 0 .7.1 1 .2.3.2.5.4.7.7.2.3.3.6.3 1s-.1.7-.3 1c-.2.3-.4.5-.7.7-.3.2-.6.2-1 .2-.3 0-.5-.1-.8-.2-.2-.1-.4-.3-.6-.5v2h-.7v-5.3h.7v.6c.2-.2.4-.4.6-.5.2.2.5.1.8.1zm-.1 3.4c.2 0 .5-.1.7-.2.2-.1.4-.3.5-.5.1-.2.2-.4.2-.7 0-.3-.1-.5-.2-.7-.1-.2-.3-.4-.5-.5-.2-.1-.4-.2-.7-.2-.2 0-.5.1-.7.2-.2.1-.3.3-.5.5-.1.2-.2.4-.2.7 0 .3.1.5.2.7.1.2.3.4.5.5.2.1.5.2.7.2zm6.5-1.4v.2h-3.1c0 .3.2.6.4.8.3.2.6.3 1 .3.5 0 .8-.2 1.1-.5l.4.4c-.2.2-.4.4-.7.5-.3.1-.5.2-.9.2s-.8-.1-1.1-.2c-.3-.2-.6-.4-.7-.7-.2-.3-.3-.6-.3-1s.1-.7.2-1c.2-.3.4-.5.7-.7.3-.2.6-.3 1-.3s.7.1 1 .3c.3.2.5.4.7.7.2.3.3.6.3 1zM23.1 36c-.3 0-.6.1-.8.3-.2.2-.4.5-.4.8h2.5c0-.3-.2-.6-.4-.8-.3-.2-.6-.3-.9-.3zm7.4-.5v3.8h-.6v-2.8l-1.4 2.4h-.3l-1.4-2.4v2.8h-.6v-3.8h.7l1.5 2.6 1.6-2.6h.5zm4.4 0v3.8h-.6v-1.2H33.1l-.8 1.2h-.7l.9-1.3c-.3-.1-.5-.2-.7-.4-.2-.2-.2-.5-.2-.8 0-.4.1-.8.4-1 .3-.2.7-.3 1.2-.3h1.7zm-2.6 1.3c0 .3.1.4.2.6.2.1.4.2.7.2h1.1v-1.5h-1c-.7 0-1 .2-1 .7zm9.5-1.3v3.8h-.7v-3.2h-2.2v3.2h-.7v-3.8h3.6zm3.4-.1c.4 0 .7.1 1 .2.3.2.5.4.7.7.2.3.3.6.3 1s-.1.7-.3 1c-.2.3-.4.5-.7.7-.3.2-.6.2-1 .2-.3 0-.5-.1-.8-.2-.2-.1-.4-.3-.6-.5v2h-.7v-5.3h.7v.6c.2-.2.4-.4.6-.5.3.2.5.1.8.1zm-.1 3.4c.2 0 .5-.1.7-.2.2-.1.4-.3.5-.5.1-.2.2-.4.2-.7 0-.3-.1-.5-.2-.7-.1-.2-.3-.4-.5-.5-.2-.1-.4-.2-.7-.2-.2 0-.5.1-.7.2-.2.1-.3.3-.5.5-.1.2-.2.4-.2.7 0 .3.1.5.2.7.1.2.3.4.5.5.3.1.5.2.7.2zm3.1-3.3h.7v2.8l2.4-2.8h.6v3.8h-.7v-2.8l-2.4 2.8h-.6v-3.8zm8.5 1.9v.2h-3.1c0 .3.2.6.4.8.3.2.6.3 1 .3.5 0 .8-.2 1.1-.5l.4.4c-.2.2-.4.4-.7.5-.3.1-.5.2-.9.2s-.8-.1-1.1-.2c-.3-.2-.6-.4-.7-.7-.2-.3-.3-.6-.3-1s.1-.7.2-1c.2-.3.4-.5.7-.7.3-.2.6-.3 1-.3s.7.1 1 .3c.3.2.5.4.7.7.2.3.3.6.3 1zM54.8 36c-.3 0-.6.1-.8.3-.2.2-.4.5-.4.8H56c0-.3-.2-.6-.4-.8-.2-.2-.5-.3-.8-.3zm-.7-1.2c-.1 0-.2 0-.3-.1-.1-.1-.1-.2-.1-.3 0-.1 0-.2.1-.3.1-.1.2-.1.3-.1.1 0 .2 0 .3.1.1.1.1.2.1.3 0 .1 0 .2-.1.3-.1.1-.2.1-.3.1zm1.3 0c-.1 0-.2 0-.3-.1-.1-.1-.1-.2-.1-.3 0-.1 0-.2.1-.3.1-.1.2-.1.3-.1s.2 0 .3.1c.1.1.1.2.1.3 0 .1 0 .2-.1.3-.1.1-.2.1-.3.1zm6.8.7v3.8h-.6v-2.8l-1.4 2.4h-.3l-1.4-2.4v2.8h-.6v-3.8h.7l1.5 2.6 1.6-2.6h.5zm2.7-.1c.5 0 .9.1 1.2.4.3.3.4.7.4 1.2v2.3h-.7v-.5c-.1.2-.3.3-.5.4-.2.1-.5.1-.8.1-.4 0-.8-.1-1-.3-.3-.2-.4-.5-.4-.8 0-.3.1-.6.4-.8.2-.2.6-.3 1.2-.3h1.1V37c0-.3-.1-.5-.3-.7-.2-.2-.4-.2-.8-.2-.2 0-.4 0-.7.1l-.6.3-.3-.5c.2-.2.4-.3.7-.4.5-.1.8-.2 1.1-.2zm-.2 3.4c.3 0 .5-.1.7-.2.2-.1.3-.3.4-.5v-.5h-1.1c-.6 0-.9.2-.9.6 0 .2.1.3.2.5.3.1.5.1.7.1zm8.6-3.3v3.8h-.7v-3.2h-2.2v3.2h-.7v-3.8h3.6zm1.4 0h.7v2.8l2.4-2.8h.6v3.8h-.7v-2.8l-2.4 2.8h-.6v-3.8zm10.5 0v3.8h-5.5v-3.8h.7v3.2h1.7v-3.2h.7v3.2h1.7v-3.2h.7zm.6 3.2v1.4h-.7v-.8h-.6v-.6h1.3zm.7-3.2h.7v2.8l2.4-2.8h.6v3.8h-.7v-2.8l-2.4 2.8h-.6v-3.8zm5.2 3.9c-.1 0-.3 0-.3-.1-.1-.1-.1-.2-.1-.4 0-.1 0-.3.1-.3.1-.1.2-.1.3-.1.1 0 .2 0 .3.1.1.1.1.2.1.4s0 .3-.1.4c0-.1-.1 0-.3 0zM5.5 43.2v5.1h-.7v-4.4h-3v4.4h-.7v-5.1h4.4zM9 44.4c.4 0 .7.1 1 .2.3.2.5.4.7.7.2.3.3.6.3 1s-.1.7-.3 1c-.2.3-.4.5-.7.7-.3.2-.6.2-1 .2-.3 0-.5-.1-.8-.2-.2-.1-.4-.3-.6-.5v2H7v-5.3h.7v.6c.2-.2.4-.4.6-.5.2.2.4.1.7.1zm0 3.4c.2 0 .5-.1.7-.2.2-.1.4-.3.5-.5.1-.2.2-.4.2-.7 0-.3-.1-.5-.2-.7-.1-.2-.3-.4-.5-.5-.2-.1-.4-.2-.7-.2-.2 0-.5.1-.7.2-.2.1-.3.3-.5.5-.1.2-.2.4-.2.7 0 .3.1.5.2.7.1.2.3.4.5.5.2.1.4.2.7.2zm4.6.6c-.4 0-.7-.1-1-.3-.3-.2-.5-.4-.7-.7-.2-.3-.3-.6-.3-1s.1-.7.3-1c.2-.3.4-.5.7-.7.3-.2.6-.3 1-.3s.7.1 1 .3c.3.2.5.4.7.7.2.3.3.6.3 1s-.1.7-.3 1c-.2.3-.4.5-.7.7-.3.2-.6.3-1 .3zm0-.6c.2 0 .5-.1.7-.2.2-.1.4-.3.5-.5.1-.2.2-.4.2-.7 0-.3-.1-.5-.2-.7-.1-.2-.3-.4-.5-.5-.2-.1-.4-.2-.7-.2-.2 0-.5.1-.7.2-.2.1-.3.3-.5.5-.1.2-.2.4-.2.7 0 .3.1.5.2.7.1.2.3.4.5.5.2.1.5.2.7.2zm6.9-.1v1.5h-.7v-.9h-3.2v.9H16v-1.5h.2c.2 0 .4-.2.5-.5.1-.3.2-.8.2-1.4l.1-1.3h3v3.2h.5zm-3-1.9c0 .5-.1.9-.1 1.2-.1.3-.2.5-.3.7h2.2v-2.6h-1.7l-.1.7zm5.6 2.6c-.4 0-.7-.1-1-.3-.3-.2-.5-.4-.7-.7-.2-.3-.3-.6-.3-1s.1-.7.3-1c.2-.3.4-.5.7-.7.3-.2.6-.3 1-.3s.7.1 1 .3c.3.2.5.4.7.7.2.3.3.6.3 1s-.1.7-.3 1c-.2.3-.4.5-.7.7-.3.2-.7.3-1 .3zm0-.6c.2 0 .5-.1.7-.2.2-.1.4-.3.5-.5.1-.2.2-.4.2-.7 0-.3-.1-.5-.2-.7-.1-.2-.3-.4-.5-.5-.2-.1-.4-.2-.7-.2-.2 0-.5.1-.7.2-.2.1-.3.3-.5.5-.1.2-.2.4-.2.7 0 .3.1.5.2.7.1.2.3.4.5.5.2.1.4.2.7.2zm6.2-3.3v3.8h-.7v-3.2H27v.9c0 .5-.1 1-.1 1.3-.1.3-.2.6-.3.8-.2.2-.4.3-.6.3-.1 0-.3 0-.4-.1v-.6h.2c.2 0 .3-.1.4-.3.1-.2.2-.4.2-.6 0-.2.1-.6.1-1l.1-1.4h2.7zm4.9 2.2h-.7v1.6h-.7v-1.6H32l-1.1 1.6h-.8l1.3-2-1.2-1.9h.7l1 1.6h.8v-1.6h.7V46h.8l1-1.6h.8l-1.2 1.9 1.3 2h-.8l-1.1-1.6zm2.6-2.2h.7v2.8l2.4-2.8h.6v3.8h-.7v-2.8l-2.4 2.8h-.6v-3.8zm7.9.6h-1.4v3.2h-.7v-3.2h-1.4v-.6h3.5v.6zm4 1.3v.2h-3.1c0 .3.2.6.4.8.3.2.6.3 1 .3.5 0 .8-.2 1.1-.5l.4.4c-.2.2-.4.4-.7.5-.3.1-.5.2-.9.2s-.8-.1-1.1-.2c-.3-.2-.6-.4-.7-.7-.2-.3-.3-.6-.3-1s.1-.7.2-1c.2-.3.4-.5.7-.7.3-.2.6-.3 1-.3s.7.1 1 .3c.3.2.5.4.7.7.3.3.3.6.3 1zM46.8 45c-.3 0-.6.1-.8.3-.2.2-.4.5-.4.8h2.5c0-.3-.2-.6-.4-.8-.2-.2-.5-.3-.9-.3zm6.3-.5v3.8h-.7v-3.2h-1.7v.9c0 .5-.1 1-.1 1.3-.1.3-.2.6-.3.8-.2.2-.4.3-.6.3-.1 0-.3 0-.4-.1v-.6h.2c.2 0 .3-.1.4-.3.1-.2.2-.4.2-.6 0-.2.1-.6.1-1l.1-1.4h2.8zm3.1 1.3c.5 0 .9.1 1.1.3.3.2.4.5.4.9s-.1.7-.4 1c-.3.2-.7.3-1.2.3h-1.7v-3.8h.7v1.3h1.1zm-.2 2c.3 0 .6-.1.7-.2.2-.1.2-.3.2-.6s-.1-.4-.2-.6c-.2-.1-.4-.2-.7-.2h-.9v1.5l.9.1zm2.6-3.3h.7v1.6h2.2v-1.6h.7v3.8h-.7v-1.6h-2.2v1.6h-.7v-3.8zm6.6 3.9c-.4 0-.7-.1-1-.3-.3-.2-.5-.4-.7-.7-.2-.3-.3-.6-.3-1s.1-.7.3-1c.2-.3.4-.5.7-.7.3-.2.6-.3 1-.3s.7.1 1 .3c.3.2.5.4.7.7.2.3.3.6.3 1s-.1.7-.3 1c-.2.3-.4.5-.7.7-.3.2-.7.3-1 .3zm0-.6c.2 0 .5-.1.7-.2.2-.1.4-.3.5-.5.1-.2.2-.4.2-.7 0-.3-.1-.5-.2-.7-.1-.2-.3-.4-.5-.5-.2-.1-.4-.2-.7-.2-.2 0-.5.1-.7.2-.2.1-.3.3-.5.5-.1.2-.2.4-.2.7 0 .3.1.5.2.7.1.2.3.4.5.5.2.1.4.2.7.2zm4.6.6c-.4 0-.7-.1-1.1-.3-.3-.2-.5-.4-.7-.7-.2-.3-.3-.6-.3-1s.1-.7.3-1c.2-.3.4-.5.7-.7.3-.2.7-.3 1.1-.3.3 0 .7.1.9.2.3.1.5.3.6.6l-.5.3c-.1-.2-.3-.3-.4-.4-.2-.1-.4-.1-.6-.1-.3 0-.5.1-.7.2-.2.1-.4.3-.5.5-.1.2-.2.4-.2.7 0 .3.1.5.2.7.1.2.3.4.5.5.2.1.4.2.7.2.2 0 .4 0 .6-.1.2-.1.3-.2.4-.4l.5.3c-.1.3-.4.5-.6.6-.2.1-.5.2-.9.2zm5.3-3.3h-1.4v3.2H73v-3.2h-1.4v-.6h3.5v.6zm2.5.7c.5 0 .9.1 1.1.3.3.2.4.5.4.9s-.1.7-.4 1c-.3.2-.7.3-1.2.3h-1.7v-3.8h.7v1.3h1.1zm-.1 2c.3 0 .6-.1.7-.2.2-.1.2-.3.2-.6s-.1-.4-.2-.6c-.2-.1-.4-.2-.7-.2h-.9v1.5l.9.1zm8-3.3v3.8h-.7v-3.2h-2.2v3.2H82v-3.8h3.5zm3.4-.1c.4 0 .7.1 1 .2.3.2.5.4.7.7.2.3.3.6.3 1s-.1.7-.3 1c-.2.3-.4.5-.7.7-.3.2-.6.2-1 .2-.3 0-.5-.1-.8-.2-.2-.1-.4-.3-.6-.5v2h-.7v-5.3h.7v.6c.2-.2.4-.4.6-.5.3.2.5.1.8.1zm0 3.4c.2 0 .5-.1.7-.2.2-.1.4-.3.5-.5.1-.2.2-.4.2-.7 0-.3-.1-.5-.2-.7-.1-.2-.3-.4-.5-.5-.2-.1-.4-.2-.7-.2-.2 0-.5.1-.7.2-.2.1-.3.3-.5.5-.1.2-.2.4-.2.7 0 .3.1.5.2.7.1.2.3.4.5.5.2.1.4.2.7.2zm3-3.3h.7v2.8l2.4-2.8h.6v3.8h-.7v-2.8l-2.4 2.8h-.6v-3.8zm8.5 1.9v.2h-3.1c0 .3.2.6.4.8.3.2.6.3 1 .3.5 0 .8-.2 1.1-.5l.4.4c-.2.2-.4.4-.7.5-.3.1-.5.2-.9.2s-.8-.1-1.1-.2c-.3-.2-.6-.4-.7-.7-.2-.3-.3-.6-.3-1s.1-.7.2-1c.2-.3.4-.5.7-.7.3-.2.6-.3 1-.3s.7.1 1 .3c.3.2.5.4.7.7.2.3.3.6.3 1zM98.5 45c-.3 0-.6.1-.8.3-.2.2-.4.5-.4.8h2.5c0-.3-.2-.6-.4-.8-.3-.2-.6-.3-.9-.3zm-.7-1.2c-.1 0-.2 0-.3-.1-.1-.1-.1-.2-.1-.3 0-.1 0-.2.1-.3.1-.1.2-.1.3-.1.1 0 .2 0 .3.1.1.1.1.2.1.3 0 .1 0 .2-.1.3-.1.1-.2.1-.3.1zm1.3 0c-.1 0-.2 0-.3-.1-.1-.1-.1-.2-.1-.3 0-.1 0-.2.1-.3.2 0 .2-.1.3-.1s.2 0 .3.1c.1.1.1.2.1.3 0 .1 0 .2-.1.3-.1.1-.2.1-.3.1zm6.8.7v3.8h-.6v-2.8l-1.4 2.4h-.3l-1.4-2.4v2.8h-.6v-3.8h.7l1.5 2.6 1.6-2.6h.5zm2.7-.1c.5 0 .9.1 1.2.4.3.3.4.7.4 1.2v2.3h-.7v-.5c-.1.2-.3.3-.5.4-.2.1-.5.1-.8.1-.4 0-.8-.1-1-.3-.3-.2-.4-.5-.4-.8 0-.3.1-.6.4-.8.2-.2.6-.3 1.2-.3h1.1V46c0-.3-.1-.5-.3-.7-.2-.2-.4-.2-.8-.2-.2 0-.4 0-.7.1l-.6.3-.3-.5c.2-.2.4-.3.7-.4.5-.1.8-.2 1.1-.2zm-.1 3.4c.3 0 .5-.1.7-.2.2-.1.3-.3.4-.5v-.5h-1.1c-.6 0-.9.2-.9.6 0 .2.1.3.2.5.2.1.4.1.7.1zm4.8-2.3h3.2v.6h-3.2v-.6zm-111 6.7v5.1h-.8v-4.4H.4v-.6h1.9zm7.8 1.3v3.8h-.7v-2.8L8 56.9h-.3l-1.4-2.4v2.8h-.7v-3.8h.7l1.5 2.6 1.6-2.6h.7zm4.8 1.9v.2h-3.1c0 .3.2.6.4.8.3.2.6.3 1 .3.5 0 .8-.2 1.1-.5l.4.4c-.2.2-.4.4-.7.5-.3.1-.5.2-.9.2s-.8-.1-1.1-.2c-.3-.2-.6-.4-.7-.7-.2-.3-.3-.6-.3-1s.1-.7.2-1c.2-.3.4-.5.7-.7.3-.2.6-.3 1-.3s.7.1 1 .3c.3.2.5.4.7.7.2.3.3.6.3 1zM13 54c-.3 0-.6.1-.8.3-.2.2-.4.5-.4.8h2.5c0-.3-.2-.6-.4-.8-.3-.2-.6-.3-.9-.3zm4.7 3.4c-.4 0-.7-.1-1.1-.3-.3-.2-.5-.4-.7-.7-.2-.3-.3-.6-.3-1s.1-.7.3-1c.2-.3.4-.5.7-.7.3-.2.7-.3 1.1-.3.3 0 .7.1.9.2.3.1.5.3.6.6l-.5.3c-.1-.2-.3-.3-.4-.4-.2-.1-.4-.1-.6-.1-.3 0-.5.1-.7.2-.2.1-.4.3-.5.5-.1.2-.2.4-.2.7 0 .3.1.5.2.7.1.2.3.4.5.5.2.1.4.2.7.2.2 0 .4 0 .6-.1.2-.1.3-.2.4-.4l.5.3c-.1.3-.4.5-.6.6-.3.1-.6.2-.9.2zm5.4-3.9v3.8h-.6v-1.2H21.3l-.8 1.2h-.7l.9-1.3c-.3-.1-.5-.2-.7-.4-.2-.2-.2-.5-.2-.8 0-.4.1-.8.4-1 .3-.2.7-.3 1.2-.3h1.7zm-2.7 1.3c0 .3.1.4.2.6.2.1.4.2.7.2h1.1v-1.5h-1c-.6 0-1 .2-1 .7zm8.2 1.9v1.5h-.7v-.9h-3.4v-3.8h.7v3.2h2.1v-3.2h.7v3.2h.6zm1 .7c-.1 0-.3 0-.3-.1-.1-.1-.1-.2-.1-.4 0-.1 0-.3.1-.3.1-.1.2-.1.3-.1.1 0 .2 0 .3.1.1.1.1.2.1.4s0 .3-.1.4c0-.1-.2 0-.3 0zm7.9-5.2v5.1h-.7v-4.4h-2.9v4.4h-.7v-5.1h4.3zm3.6 1.2c.4 0 .7.1 1 .2.3.2.5.4.7.7.2.3.3.6.3 1s-.1.7-.3 1c-.2.3-.4.5-.7.7-.3.2-.6.2-1 .2-.3 0-.5-.1-.8-.2-.2-.1-.4-.3-.6-.5v2H39v-5.3h.7v.6c.2-.2.4-.4.6-.5.2.2.5.1.8.1zm-.1 3.4c.2 0 .5-.1.7-.2.2-.1.4-.3.5-.5.1-.2.2-.4.2-.7 0-.3-.1-.5-.2-.7-.1-.2-.3-.4-.5-.5-.2-.1-.4-.2-.7-.2-.2 0-.5.1-.7.2-.2.1-.3.3-.5.5-.1.2-.2.4-.2.7 0 .3.1.5.2.7.1.2.3.4.5.5.2.1.5.2.7.2zm3-3.3h.7v2.8l2.4-2.8h.6v3.8H47v-2.8l-2.4 2.8H44v-3.8zm7 0h.7v1.6h2.2v-1.6h.7v3.8h-.7v-1.6h-2.2v1.6H51v-3.8zm8.4 1.9v.2h-3.1c0 .3.2.6.4.8.3.2.6.3 1 .3.5 0 .8-.2 1.1-.5l.4.4c-.2.2-.4.4-.7.5-.3.1-.5.2-.9.2s-.8-.1-1.1-.2c-.3-.2-.6-.4-.7-.7-.2-.3-.3-.6-.3-1s.1-.7.2-1c.2-.3.4-.5.7-.7.3-.2.6-.3 1-.3s.7.1 1 .3c.3.2.5.4.7.7.2.3.3.6.3 1zM57.5 54c-.3 0-.6.1-.8.3-.2.2-.4.5-.4.8h2.5c0-.3-.2-.6-.4-.8-.3-.2-.6-.3-.9-.3zm4.6 3.4c-.4 0-.7-.1-1-.3-.3-.2-.5-.4-.7-.7-.2-.3-.3-.6-.3-1s.1-.7.3-1c.2-.3.4-.5.7-.7.3-.2.6-.3 1-.3s.7.1 1 .3c.3.2.5.4.7.7.2.3.3.6.3 1s-.1.7-.3 1c-.2.3-.4.5-.7.7-.2.2-.6.3-1 .3zm0-.6c.2 0 .5-.1.7-.2.2-.1.4-.3.5-.5.1-.2.2-.4.2-.7 0-.3-.1-.5-.2-.7-.1-.2-.3-.4-.5-.5-.2-.1-.4-.2-.7-.2-.2 0-.5.1-.7.2-.2.1-.3.3-.5.5-.1.2-.2.4-.2.7 0 .3.1.5.2.7.1.2.3.4.5.5.3.1.5.2.7.2zm5-3.2c.4 0 .7.1 1 .2s.5.4.7.7c.2.3.2.6.2 1s-.1.7-.3 1c-.2.3-.4.5-.7.7-.3.2-.6.2-1 .2-.7 0-1.2-.2-1.5-.7-.4-.4-.5-1.1-.5-1.9 0-.8.2-1.4.5-1.8.3-.4.8-.7 1.5-.9l1.8-.4.1.6-1.6.3c-.5.1-.9.3-1.1.6-.2.3-.4.6-.4 1.1l.6-.6c.1 0 .4-.1.7-.1zm-.1 3.2c.2 0 .5-.1.7-.2.2-.1.3-.3.4-.5.1-.2.2-.4.2-.7 0-.4-.1-.7-.3-.9-.2-.2-.5-.3-.9-.3s-.7.1-.9.3c-.2.2-.3.5-.3.9 0 .3.1.5.2.7.1.2.3.3.5.5-.1.1.1.2.4.2zm5.2.5-1.1-1.5-1.1 1.5h-.8l1.5-2-1.4-1.9h.8l1.1 1.4 1.1-1.4h.8l-1.5 1.9 1.5 2h-.9zm3.1.1c-.4 0-.7-.1-1-.3-.3-.2-.5-.4-.7-.7-.2-.3-.3-.6-.3-1s.1-.7.3-1c.2-.3.4-.5.7-.7.3-.2.6-.3 1-.3s.7.1 1 .3c.3.2.5.4.7.7.2.3.3.6.3 1s-.1.7-.3 1c-.2.3-.4.5-.7.7-.3.2-.7.3-1 .3zm0-.6c.2 0 .5-.1.7-.2.2-.1.4-.3.5-.5.1-.2.2-.4.2-.7 0-.3-.1-.5-.2-.7-.1-.2-.3-.4-.5-.5-.2-.1-.4-.2-.7-.2-.2 0-.5.1-.7.2-.2.1-.3.3-.5.5-.1.2-.1.4-.1.7 0 .3.1.5.2.7.1.2.3.4.5.5.1.1.3.2.6.2zm6.8-.1v1.5h-.7v-.9h-3.2v.9h-.7v-1.5h.2c.2 0 .4-.2.5-.5.1-.3.2-.8.2-1.4l.1-1.3h3v3.2h.6zm-3-1.9c0 .5-.1.9-.1 1.2-.1.3-.2.5-.3.7h2.2v-2.6h-1.7l-.1.7zm3.9-1.3h.7v2.8l2.4-2.8h.6v3.8H86v-2.8l-2.4 2.8H83v-3.8zm9.5 0v3.8h-.6v-2.8l-1.4 2.4h-.3l-1.4-2.4v2.8h-.6v-3.8h.7l1.5 2.6 1.6-2.6h.5zm3 3.9c-.4 0-.7-.1-1-.3-.3-.2-.5-.4-.7-.7-.2-.3-.3-.6-.3-1s.1-.7.3-1c.2-.3.4-.5.7-.7.3-.2.6-.3 1-.3s.7.1 1 .3c.3.2.5.4.7.7.2.3.3.6.3 1s-.1.7-.3 1c-.2.3-.4.5-.7.7-.3.2-.6.3-1 .3zm0-.6c.2 0 .5-.1.7-.2.2-.1.4-.3.5-.5.1-.2.2-.4.2-.7 0-.3-.1-.5-.2-.7-.1-.2-.3-.4-.5-.5-.2-.1-.4-.2-.7-.2-.2 0-.5.1-.7.2-.2.1-.3.3-.5.5-.1.2-.2.4-.2.7 0 .3.1.5.2.7.1.2.3.4.5.5.2.1.5.2.7.2zm4.7.6c-.4 0-.7-.1-1.1-.3-.3-.2-.5-.4-.7-.7-.2-.3-.3-.6-.3-1s.1-.7.3-1c.2-.3.4-.5.7-.7.3-.2.7-.3 1.1-.3.3 0 .7.1.9.2.3.1.5.3.6.6l-.5.3c-.1-.2-.3-.3-.5-.4s-.4-.1-.6-.1c-.3 0-.5.1-.7.2-.2.1-.4.3-.5.5-.1.2-.2.4-.2.7 0 .3.1.5.2.7.1.2.3.4.5.5.2.1.4.2.7.2.2 0 .4 0 .6-.1.2-.1.3-.2.5-.4l.5.3c-.2.3-.4.5-.6.6-.2.1-.6.2-.9.2zm5.3-3.3h-1.4v3.2h-.7v-3.2H102v-.6h3.5v.6zm.7-.6h.7v2.8l2.4-2.8h.6v3.8h-.7v-2.8l-2.3 2.8h-.6v-3.8zm-101.6 9v3.8h-.7v-3.2H1.7v3.2H1v-3.8h3.6zm3.4-.1c.4 0 .7.1 1 .2.3.2.5.4.7.7.2.3.3.6.3 1s-.1.7-.3 1c-.2.4-.4.7-.7.8-.3.2-.6.2-1 .2-.3 0-.5-.1-.8-.2-.2-.1-.4-.3-.6-.5v2h-.7v-5.3h.7v.6c.2-.2.4-.4.6-.5.2.1.5 0 .8 0zm-.1 3.4c.2 0 .5-.1.7-.2.2-.1.4-.3.5-.5.1-.2.2-.4.2-.7s-.2-.5-.3-.7c-.1-.2-.3-.4-.5-.5-.2-.1-.4-.2-.7-.2-.2 0-.5.1-.7.2-.2.1-.3.3-.5.5-.1.2-.2.4-.2.7s.1.5.2.7c.1.2.3.4.5.5.3.1.6.2.8.2zm3-3.3h.7v2.8l2.4-2.8h.6v3.8h-.7v-2.8l-2.4 2.8h-.6v-3.8zm8.5 1.9v.2h-3.1c0 .3.2.6.4.8.3.2.6.3 1 .3.5 0 .8-.2 1.1-.5l.4.4c-.2.2-.4.4-.7.5-.3.1-.5.2-.9.2s-.8-.1-1.1-.2c-.3-.2-.6-.4-.7-.7-.2-.3-.3-.6-.3-1s.1-.7.2-1c.2-.3.4-.5.7-.7.3-.2.6-.3 1-.3s.7.1 1 .3c.3.2.5.4.7.7.2.3.3.6.3 1zM17.5 63c-.3 0-.6.1-.8.3-.2.2-.4.5-.4.8h2.5c0-.3-.2-.6-.4-.8-.3-.2-.5-.3-.9-.3zm-.7-1.2c-.1 0-.2 0-.3-.1-.1-.1-.1-.2-.1-.3 0-.1 0-.2.1-.3.1-.1.2-.1.3-.1.1 0 .2 0 .3.1.1.1.1.2.1.3 0 .1 0 .2-.1.3-.1.1-.2.1-.3.1zm1.4 0c-.1 0-.2 0-.3-.1-.1-.1-.1-.2-.1-.3 0-.1 0-.2.1-.3.1-.1.2-.1.3-.1.1 0 .2 0 .3.1.1.1.1.2.1.3 0 .1 0 .2-.1.3-.1.1-.2.1-.3.1zm6.7.7v3.8h-.6v-2.8l-1.4 2.4h-.3l-1.4-2.4v2.8h-.6v-3.8h.7l1.5 2.6 1.6-2.6h.5zm7.8 0v3.8H32v-2.8l-1.4 2.4h-.3l-1.4-2.4v2.8h-.6v-3.8h.7l1.5 2.6 1.6-2.6h.6zm3 3.9c-.4 0-.7-.1-1-.3-.3-.2-.5-.4-.7-.7-.2-.3-.3-.6-.3-1s.1-.7.3-1c.2-.3.4-.5.7-.7.3-.2.6-.3 1-.3s.7.1 1 .3c.3.2.5.4.7.7.2.3.3.6.3 1s-.1.7-.3 1c-.2.3-.4.5-.7.7-.3.2-.6.3-1 .3zm0-.6c.2 0 .5-.1.7-.2.2-.1.4-.3.5-.5.1-.2.2-.4.2-.7s-.1-.5-.2-.7c-.1-.2-.3-.4-.5-.5-.2-.1-.4-.2-.7-.2-.2 0-.5.1-.7.2-.2.1-.3.3-.5.5-.1.2-.2.4-.2.7s.1.5.2.7c.1.2.3.4.5.5.2.1.4.2.7.2zm6.4-1.1h-.7v1.6h-.7v-1.6H40l-1.1 1.6H38l1.3-2-1.2-1.9h.7l1 1.6h.8v-1.6h.7V64h.8l1-1.6h.7l-1.2 1.9 1.3 2h-.8l-1-1.6zm2.6-2.2h.7v1.6h2.2v-1.6h.7v3.8h-.7v-1.6h-2.2v1.6h-.7v-3.8zm6.6 3.9c-.4 0-.7-.1-1-.3-.3-.2-.5-.4-.7-.7-.2-.3-.3-.6-.3-1s.1-.7.3-1c.2-.3.4-.5.7-.7.3-.2.6-.3 1-.3s.7.1 1 .3c.3.2.5.4.7.7.2.3.3.6.3 1s-.1.7-.3 1c-.2.3-.4.5-.7.7-.3.2-.6.3-1 .3zm0-.6c.2 0 .5-.1.7-.2.2-.1.4-.3.5-.5.1-.2.2-.4.2-.7s-.1-.5-.2-.7c-.1-.2-.3-.4-.5-.5-.2-.1-.4-.2-.7-.2-.2 0-.5.1-.7.2-.2.1-.3.3-.5.5-.1.2-.2.4-.2.7s.1.5.2.7c.1.2.3.4.5.5.2.1.4.2.7.2zm8.5-3.3v3.8h-.7v-3.2h-2.2v3.2h-.7v-3.8h3.6zm3 3.9c-.4 0-.7-.1-1-.3-.3-.2-.5-.4-.7-.7-.2-.3-.3-.6-.3-1s.1-.7.3-1c.2-.3.4-.5.7-.7.3-.2.6-.3 1-.3s.7.1 1 .3c.3.2.5.4.7.7.2.3.3.6.3 1s-.1.7-.3 1c-.2.3-.4.5-.7.7-.3.2-.6.3-1 .3zm0-.6c.2 0 .5-.1.7-.2.2-.1.4-.3.5-.5.1-.2.2-.4.2-.7s-.1-.5-.2-.7c-.1-.2-.3-.4-.5-.5-.2-.1-.4-.2-.7-.2-.2 0-.5.1-.7.2-.2.1-.3.3-.5.5-.1.2-.2.4-.2.7s.1.5.2.7c.1.2.3.4.5.5.2.1.5.2.7.2zm5.6-1.5c.5.1.7.4.7.9 0 .3-.1.6-.4.8-.3.2-.6.3-1.1.3h-1.8v-3.8h1.8c.5 0 .8.1 1.1.3.3.2.4.4.4.7 0 .2-.1.4-.2.5-.1.1-.3.3-.5.3zm-1.9-.2h1c.3 0 .5 0 .6-.1.1-.1.2-.2.2-.4 0-.4-.3-.6-.8-.6h-1v1.1zm1.1 1.7c.3 0 .5 0 .7-.1.1-.1.2-.2.2-.4s-.1-.3-.2-.4c-.1-.1-.3-.1-.6-.1h-1.2V66h1.1zm5.5-2.7h-1.4v3.2H71v-3.2h-1.4v-.6h3.5v.6zm2.2 3.3c-.4 0-.7-.1-1-.3-.3-.2-.5-.4-.7-.7-.2-.3-.3-.6-.3-1s.1-.7.3-1c.2-.3.4-.5.7-.7.3-.2.6-.3 1-.3s.7.1 1 .3c.3.2.5.4.7.7.2.3.3.6.3 1s-.1.7-.3 1c-.2.3-.4.5-.7.7-.3.2-.6.3-1 .3zm0-.6c.2 0 .5-.1.7-.2.2-.1.4-.3.5-.5.1-.2.2-.4.2-.7s-.1-.5-.2-.7c-.1-.2-.3-.4-.5-.5-.2-.1-.4-.2-.7-.2-.2 0-.5.1-.7.2-.2.1-.3.3-.5.5-.1.2-.2.4-.2.7s.1.5.2.7c.1.2.3.4.5.5.2.1.5.2.7.2zm5.1-3.4c.4 0 .7.1 1 .2.3.2.5.4.7.7.2.3.3.6.3 1s-.1.7-.3 1c-.2.3-.4.5-.7.7-.3.2-.6.2-1 .2-.3 0-.5-.1-.8-.2-.2-.1-.4-.3-.6-.5v2h-.7v-5.3h.7v.6c.2-.2.4-.4.6-.5.2.2.5.1.8.1zm-.1 3.4c.2 0 .5-.1.7-.2.2-.1.4-.3.5-.5.1-.2.2-.4.2-.7s-.1-.5-.2-.7c-.1-.2-.3-.4-.5-.5-.2-.1-.4-.2-.7-.2-.2 0-.5.1-.7.2-.2.1-.3.3-.5.5-.1.2-.2.4-.2.7s.1.5.2.7c.1.2.3.4.5.5.2.1.5.2.7.2zm3-3.3h.7v2.8l2.4-2.8h.6v3.8h-.7v-2.8l-2.4 2.8h-.6v-3.8zm7.9.6h-1.4v3.2h-.7v-3.2h-1.4v-.6h3.5v.6zm2.5.7c.5 0 .9.1 1.1.3.3.2.4.5.4.9s-.1.7-.4 1c-.3.2-.7.3-1.2.3h-1.7v-3.8h.7v1.3h1.1zm-.2 2c.3 0 .6-.1.7-.2.2-.1.2-.3.2-.6s-.1-.4-.2-.6c-.2-.1-.4-.2-.7-.2h-.9v1.5l.9.1zm2.7.6c-.1 0-.3 0-.3-.1-.1-.1-.1-.2-.1-.4 0-.1 0-.3.1-.3.1-.1.2-.1.3-.1s.2 0 .3.1c.1.1.1.2.1.4 0 .1 0 .3-.1.4-.1-.1-.2 0-.3 0z"/></svg>