<?xml version="1.0" encoding="utf-8"?>
<!-- Generator: Adobe Illustrator 25.2.3, SVG Export Plug-In . SVG Version: 6.00 Build 0)  -->
<svg version="1.1" id="Layer_1" xmlns="http://www.w3.org/2000/svg" xmlns:xlink="http://www.w3.org/1999/xlink" x="0px" y="0px"
	 viewBox="0 0 236 47.8" style="enable-background:new 0 0 236 47.8;" xml:space="preserve">
<style type="text/css">
	.st0{fill:url(#SVGID_1_);}
	.st1{fill:#FFFFFF;}
</style>
<radialGradient id="SVGID_1_" cx="-804.5112" cy="341.4224" r="0.97" gradientTransform="matrix(182.2052 43.1158 -23.9484 101.2046 154835.1406 99.1869)" gradientUnits="userSpaceOnUse">
	<stop  offset="0.55" style="stop-color:#F84AC7"/>
	<stop  offset="0.918" style="stop-color:#941570"/>
</radialGradient>
<path class="st0" d="M23.9,0h188.2C225.3,0,236,10.7,236,23.9s-10.7,23.9-23.9,23.9H23.9C10.7,47.8,0,37.1,0,23.9S10.7,0,23.9,0z"/>
<g>
	<path class="st1" d="M92.2,27.4l4.4-9.9h1.8L92.9,30h-1.6l-5.3-12.5h1.8L92.2,27.4z M87.2,17.4V30h-1.9V17.4H87.2z M97.1,30V17.4
		H99V30H97.1z M104.5,27.1l6-9.7h2.2V30h-1.9v-9.7l-6,9.7h-2.3V17.4h1.9V27.1z M124.7,22.8v1.8h-6.9v-1.8H124.7z M118.2,17.4V30
		h-1.9V17.4H118.2z M126.1,17.4V30h-1.9V17.4H126.1z M134.9,30.2c-1.2,0-2.3-0.3-3.1-0.8c-0.9-0.5-1.5-1.3-2-2.3
		c-0.5-1-0.7-2.1-0.7-3.4c0-1.3,0.2-2.4,0.7-3.4c0.5-1,1.1-1.8,2-2.3c0.8-0.6,1.8-0.8,3-0.8c0.7,0,1.3,0.1,1.9,0.3s1.2,0.6,1.7,1.1
		c0.5,0.5,0.9,1.1,1.2,1.9c0.3,0.8,0.5,1.8,0.5,3v0.8h-9.7v-1.7h7.7c0-0.7-0.1-1.3-0.4-1.9c-0.3-0.6-0.7-1-1.2-1.3
		c-0.5-0.3-1.1-0.5-1.8-0.5c-0.8,0-1.4,0.2-2,0.6c-0.6,0.4-1,0.9-1.3,1.5c-0.3,0.6-0.4,1.3-0.4,1.9v1.1c0,0.9,0.2,1.8,0.5,2.4
		c0.3,0.7,0.8,1.2,1.4,1.5c0.6,0.3,1.3,0.5,2.1,0.5c0.5,0,1-0.1,1.4-0.2c0.4-0.1,0.8-0.4,1.1-0.7c0.3-0.3,0.5-0.7,0.7-1.1l1.9,0.5
		c-0.2,0.6-0.5,1.2-1,1.7c-0.5,0.5-1,0.8-1.7,1.1C136.5,30.1,135.8,30.2,134.9,30.2z M143.1,34.7V17.4h1.9v2h0.2
		c0.1-0.2,0.3-0.5,0.6-0.8c0.3-0.3,0.6-0.6,1.1-0.9c0.5-0.3,1.1-0.4,1.9-0.4c1.1,0,2,0.3,2.8,0.8c0.8,0.5,1.4,1.3,1.9,2.2
		c0.5,1,0.7,2.1,0.7,3.4c0,1.3-0.2,2.5-0.7,3.5c-0.5,1-1.1,1.7-1.9,2.3c-0.8,0.5-1.7,0.8-2.8,0.8c-0.8,0-1.5-0.1-1.9-0.4
		c-0.5-0.3-0.9-0.6-1.1-0.9c-0.3-0.3-0.5-0.6-0.6-0.9H145v6.6H143.1z M144.9,23.7c0,0.9,0.1,1.8,0.4,2.5c0.3,0.7,0.7,1.3,1.2,1.7
		c0.5,0.4,1.2,0.6,2,0.6c0.8,0,1.5-0.2,2-0.6c0.5-0.4,1-1,1.2-1.7c0.3-0.7,0.4-1.5,0.4-2.4c0-0.9-0.1-1.7-0.4-2.4
		c-0.3-0.7-0.7-1.3-1.2-1.7c-0.5-0.4-1.2-0.6-2-0.6c-0.8,0-1.4,0.2-2,0.6c-0.5,0.4-0.9,0.9-1.2,1.6C145.1,22,144.9,22.8,144.9,23.7z
		 M160.8,30.3c-0.8,0-1.5-0.1-2.2-0.4c-0.6-0.3-1.2-0.7-1.5-1.3c-0.4-0.6-0.6-1.3-0.6-2.1c0-0.7,0.1-1.3,0.4-1.7
		c0.3-0.5,0.7-0.8,1.1-1.1c0.5-0.3,1-0.4,1.6-0.6c0.6-0.1,1.2-0.2,1.7-0.3c0.8-0.1,1.4-0.2,1.9-0.2c0.5-0.1,0.8-0.1,1-0.3
		c0.2-0.1,0.3-0.3,0.3-0.7v-0.1c0-0.8-0.2-1.4-0.7-1.9c-0.4-0.4-1.1-0.7-2-0.7c-0.9,0-1.6,0.2-2.2,0.6c-0.5,0.4-0.9,0.8-1.1,1.3
		l-1.8-0.7c0.3-0.8,0.8-1.4,1.3-1.8c0.6-0.4,1.1-0.7,1.8-0.9c0.7-0.2,1.3-0.3,1.9-0.3c0.4,0,0.9,0,1.4,0.1c0.5,0.1,1,0.3,1.5,0.6
		c0.5,0.3,0.9,0.7,1.2,1.3s0.5,1.4,0.5,2.4V30h-1.9v-1.7h-0.1c-0.1,0.3-0.3,0.6-0.7,0.9c-0.3,0.3-0.7,0.6-1.2,0.8
		C162.1,30.2,161.5,30.3,160.8,30.3z M161.1,28.5c0.8,0,1.4-0.1,1.9-0.4c0.5-0.3,0.9-0.7,1.2-1.2c0.3-0.5,0.4-1,0.4-1.5v-1.8
		c-0.1,0.1-0.3,0.2-0.5,0.3c-0.3,0.1-0.6,0.1-0.9,0.2c-0.4,0.1-0.7,0.1-1,0.1c-0.3,0-0.6,0.1-0.8,0.1c-0.5,0.1-1,0.2-1.4,0.3
		c-0.4,0.1-0.8,0.4-1,0.6c-0.3,0.3-0.4,0.7-0.4,1.2c0,0.7,0.2,1.2,0.7,1.5C159.7,28.4,160.3,28.5,161.1,28.5z M168.9,30v-1.8h0.5
		c0.4,0,0.7-0.1,0.9-0.2c0.3-0.2,0.5-0.4,0.6-0.8c0.2-0.4,0.3-0.9,0.4-1.6c0.1-0.7,0.2-1.5,0.2-2.6l0.2-5.6h8.4V30h-1.9V19.2h-4.6
		l-0.2,4.5c0,1-0.1,1.9-0.3,2.7c-0.1,0.8-0.3,1.4-0.6,2c-0.3,0.5-0.6,0.9-1.1,1.2c-0.5,0.3-1,0.4-1.7,0.4H168.9z"/>
	<path class="st1" d="M63,33.3c-1.4,0-2.6-0.2-3.7-0.7c-1.1-0.5-1.9-1.1-2.5-2c-0.6-0.8-0.9-1.8-0.9-2.9c0-0.8,0.2-1.6,0.5-2.3
		c0.4-0.7,0.8-1.3,1.4-1.8c0.6-0.5,1.3-0.8,2-0.9v-0.1c-1-0.2-1.8-0.8-2.4-1.6c-0.6-0.8-0.9-1.8-0.9-2.8c0-1,0.3-1.9,0.8-2.7
		c0.5-0.8,1.3-1.4,2.3-1.9c1-0.5,2-0.7,3.3-0.7c1.2,0,2.3,0.2,3.2,0.7c1,0.5,1.7,1.1,2.3,1.9c0.5,0.8,0.8,1.7,0.8,2.7
		c0,1.1-0.3,2-0.9,2.8c-0.6,0.8-1.4,1.4-2.3,1.6v0.1c0.7,0.1,1.4,0.4,2,0.9c0.6,0.5,1.1,1.1,1.4,1.8c0.4,0.7,0.5,1.5,0.6,2.3
		c0,1.1-0.3,2-0.9,2.9c-0.6,0.8-1.4,1.5-2.5,2C65.6,33,64.4,33.3,63,33.3z M63,30.8c0.8,0,1.5-0.1,2.1-0.4c0.6-0.3,1.1-0.7,1.4-1.2
		c0.3-0.5,0.5-1.1,0.5-1.7c0-0.7-0.2-1.3-0.5-1.8c-0.3-0.5-0.8-0.9-1.4-1.3C64.5,24.1,63.8,24,63,24c-0.8,0-1.5,0.2-2.1,0.5
		c-0.6,0.3-1.1,0.7-1.4,1.3c-0.3,0.5-0.5,1.1-0.5,1.8c0,0.7,0.2,1.2,0.5,1.7c0.3,0.5,0.8,0.9,1.4,1.2C61.5,30.7,62.2,30.8,63,30.8z
		 M63,21.6c0.7,0,1.2-0.1,1.8-0.4c0.5-0.3,0.9-0.6,1.2-1.1c0.3-0.5,0.4-1,0.5-1.7c0-0.6-0.2-1.2-0.4-1.6c-0.3-0.5-0.7-0.8-1.2-1.1
		c-0.5-0.3-1.1-0.4-1.8-0.4c-0.7,0-1.3,0.1-1.8,0.4c-0.5,0.3-0.9,0.6-1.2,1.1c-0.3,0.5-0.4,1-0.4,1.6c0,0.6,0.1,1.2,0.4,1.7
		c0.3,0.5,0.7,0.8,1.2,1.1C61.7,21.5,62.3,21.6,63,21.6z"/>
</g>
</svg>
