<svg xmlns="http://www.w3.org/2000/svg" viewBox="0 0 252 227" style="enable-background:new 0 0 252 227" xml:space="preserve"><path d="M241.6 5.9c.4 0 .7-.1 1-.4.3-.3.4-.6.4-1s-.1-.7-.4-1c-.3-.3-.6-.4-1-.4s-.7.1-1 .4c-.3.3-.4.6-.4 1s.1.7.4 1c.2.3.6.4 1 .4zM157.7 5.1h3.2V11h2.3V3.2h-7.8V11h2.3zM167 10.6c.7.3 1.4.5 2.2.5.8 0 1.5-.2 2.2-.5.6-.3 1.2-.8 1.5-1.4.4-.6.5-1.3.5-2.1s-.2-1.5-.5-2.1c-.4-.6-.9-1.1-1.5-1.4a5.09 5.09 0 0 0-4.4 0c-.6.3-1.2.8-1.5 1.4-.4.6-.5 1.3-.5 2.1s.2 1.5.5 2.1c.3.6.8 1.1 1.5 1.4zm.8-5c.4-.4.9-.6 1.4-.6s1 .2 1.4.6c.4.4.6.9.6 1.6 0 .7-.2 1.2-.6 1.6-.4.4-.8.6-1.4.6s-1.1-.2-1.4-.6c-.4-.4-.6-.9-.6-1.6 0-.7.2-1.3.6-1.6zM184.8 7.1c-.5.4-.8 1-.8 1.7 0 .5.1.9.3 1.2.2.4.6.6 1 .8.4.2 1 .3 1.6.3 1.2 0 1.9-.4 2.4-1.1v1h2.1V6.6c0-1.2-.3-2-1-2.6-.6-.6-1.6-.9-2.8-.9-.6 0-1.2.1-1.8.2-.6.2-1.1.4-1.5.7l.8 1.6c.3-.2.6-.4 1-.5.4-.1.8-.2 1.2-.2.6 0 1 .1 1.3.4.3.3.4.6.4 1.1h-1.8c-1.1 0-1.9.2-2.4.7zm4.3.6v.8c-.1.3-.3.6-.6.8-.3.2-.6.3-1 .3s-.7-.1-.9-.2c-.2-.2-.3-.4-.3-.7 0-.6.5-.9 1.4-.9h1.4zM197.2 9.2c-.3.2-.7.2-1.2.2-1 0-1.9-.2-2.7-.6l-.6 1.6c.5.3 1 .4 1.6.6.6.1 1.2.2 1.8.2.7 0 1.4-.1 2-.3.6-.2 1-.5 1.4-.9.3-.4.5-.8.5-1.3 0-.4-.1-.8-.4-1.1-.2-.3-.6-.5-1.1-.7.4-.2.7-.4.9-.7.2-.3.3-.6.3-1s-.2-.8-.5-1.2c-.3-.3-.8-.6-1.3-.8-.5-.2-1.2-.3-1.9-.3-1 0-2.1.2-3.1.7l.5 1.6c.9-.4 1.7-.5 2.5-.5.5 0 .9.1 1.1.2.3.1.4.3.4.6 0 .2-.1.4-.3.5-.2.1-.5.2-.9.2h-1.4v1.4h1.6c.4 0 .7.1.9.2.2.1.3.3.3.6.1.4-.1.6-.4.8zM202 7.1c-.5.4-.8 1-.8 1.7 0 .5.1.9.3 1.2.2.4.6.6 1 .8.4.2 1 .3 1.6.3 1.2 0 1.9-.4 2.4-1.1v1h2.1V6.6c0-1.2-.3-2-1-2.6-.6-.6-1.6-.9-2.8-.9-.6 0-1.2.1-1.8.2-.6.2-1.1.4-1.5.7l.8 1.6c.3-.2.6-.4 1-.5.4-.1.8-.2 1.2-.2.6 0 1 .1 1.3.4.3.3.4.6.4 1.1h-1.8c-1 0-1.9.2-2.4.7zm4.3.6v.8c-.1.3-.3.6-.6.8-.3.2-.6.3-1 .3s-.7-.1-.9-.2c-.2-.2-.3-.4-.3-.7 0-.6.5-.9 1.4-.9h1.4zM213 8.1h3.4V11h2.2V3.2h-2.2v3.1H213V3.2h-2.3V11h2.3zM226.8 6.4V11h2.3V3.2H227l-3.8 4.6V3.2H221V11h2.1zM177.5 8.1h1.1l2.1 2.9h2.7l-2.9-4 2.7-3.8h-2.4l-2.1 3h-1.2v-3h-2.3V11h2.3zM76.1 10.6c.7.3 1.4.5 2.3.5 1.4 0 2.5-.4 3.2-1.3l-1.2-1.3c-.3.3-.6.5-.9.6-.3.1-.7.2-1.1.2-.6 0-1.1-.1-1.5-.4-.4-.3-.6-.7-.8-1.1H82v-.6c0-.8-.2-1.5-.5-2.1-.3-.6-.8-1.1-1.4-1.4-.6-.3-1.3-.5-2.1-.5s-1.5.2-2.1.5c-.6.3-1.1.8-1.5 1.4-.4.6-.5 1.3-.5 2.1s.2 1.5.5 2.1c.5.5 1 1 1.7 1.3zm.7-5.4c.3-.3.8-.4 1.3-.4s.9.1 1.3.4c.3.3.6.7.6 1.2h-3.8c.1-.5.3-.9.6-1.2zM70 3.2h2.2V11H70zM68.2 10.3c.6-.5.9-1.1.9-2 0-.8-.3-1.5-.8-1.9-.5-.5-1.3-.7-2.3-.7h-1.8V3.2H62V11h3.8c1 0 1.8-.2 2.4-.7zm-4-.9V7.2h1.3c.4 0 .8.1 1 .3.2.2.3.4.3.8s-.1.7-.3.9c-.2.2-.6.3-1 .3h-1.3zM231.9 4c-.7.5-1 1.2-1 2.1 0 .6.1 1.1.4 1.5.3.4.7.7 1.2.9l-1.8 2.5h2.4l1.5-2.2h1.7V11h2V3.2h-3.7c-1.1 0-2 .3-2.7.8zm4.5 1.1v2.2h-1.7c-.5 0-.8-.1-1.1-.3-.2-.2-.3-.5-.3-.9s.1-.7.4-.8c.2-.2.6-.3 1.1-.3h1.6zM53.9 8.1h3.4V11h2.3V3.2h-2.3v3.1h-3.4V3.2h-2.2V11h2.2zM90.6 5.1h3.3V11h2.2V3.2h-7.7V11h2.2zM3.6 10.5c.8.5 1.8.7 2.8.7 1 0 2-.2 2.8-.7.8-.5 1.5-1.1 2-1.9.5-.8.8-1.7.8-2.7 0-1-.2-1.9-.7-2.7-.5-.8-1.1-1.4-2-1.9C8.4.9 7.5.7 6.4.7c-1.1 0-2 .2-2.8.7-.8.5-1.5 1.1-2 1.9-.5.8-.7 1.7-.7 2.6 0 1 .2 1.9.7 2.7.5.8 1.1 1.4 2 1.9zm.1-6.2c.3-.5.7-.9 1.1-1.1.5-.3 1-.4 1.6-.4.6-.1 1.2 0 1.6.3.5.3.9.7 1.1 1.1.3.5.4 1 .4 1.7s-.1 1.2-.3 1.7c-.3.5-.7.9-1.2 1.2-.4.2-1 .4-1.6.4-.6 0-1.1-.2-1.6-.4-.5-.3-.9-.7-1.1-1.2-.3-.5-.4-1-.4-1.7s.1-1.1.4-1.6zM49 10.4c.5-.4.8-.9.8-1.6 0-.9-.5-1.5-1.4-1.8.4-.2.6-.4.8-.7.2-.3.3-.6.3-1 0-.6-.3-1.1-.8-1.5-.5-.4-1.3-.5-2.3-.5h-4V11h4.1c1.2 0 2-.2 2.5-.6zm-4.4-5.6h1.7c.8 0 1.2.3 1.2.8 0 .6-.4.8-1.2.8h-1.7V4.8zm0 4.7V7.7h1.9c.4 0 .7.1.9.2.2.1.3.4.3.7 0 .6-.4.9-1.2.9h-1.9zM34.3 10.6c.7.3 1.4.5 2.2.5.8 0 1.6-.2 2.2-.5.6-.3 1.2-.8 1.5-1.4.4-.6.5-1.3.5-2.1s-.2-1.5-.5-2.1c-.4-.6-.9-1.1-1.5-1.4a5.09 5.09 0 0 0-4.4 0c-.7.4-1.2.8-1.6 1.4-.4.6-.5 1.3-.5 2.1s.2 1.5.5 2.1c.4.6.9 1.1 1.6 1.4zm.7-5c.4-.4.9-.6 1.5-.6s1 .2 1.4.6c.4.4.6.9.6 1.6 0 .7-.2 1.2-.6 1.6-.4.4-.8.6-1.4.6s-1.1-.3-1.5-.7c-.4-.4-.6-.9-.6-1.6.1-.6.3-1.2.6-1.5zM24.8 8.1h3.4V11h2.2V3.2h-2.2v3.1h-3.4V3.2h-2.2V11h2.2zM100.7 10.2c.6.6 1.3.9 2.3.9.7 0 1.4-.2 2-.5.6-.3 1.1-.8 1.4-1.4.3-.6.5-1.3.5-2.1s-.2-1.5-.5-2.1c-.3-.6-.8-1.1-1.4-1.4-.6-.3-1.2-.5-2-.5-1.1 0-1.9.3-2.4 1v-.9h-2.2v10.6h2.3v-3.6zm.6-4.6c.4-.4.9-.6 1.4-.6s1 .2 1.4.6c.4.4.6.9.6 1.6 0 .7-.2 1.2-.6 1.6-.4.4-.8.6-1.4.6s-1.1-.2-1.4-.6c-.4-.4-.5-.9-.5-1.6-.1-.7.1-1.3.5-1.6zM15.3 10.6c.7.3 1.4.5 2.2.5.8 0 1.5-.2 2.1-.5.6-.3 1.1-.8 1.3-1.4l-1.7-1c-.4.7-1 1.1-1.7 1.1-.6 0-1.1-.2-1.5-.6s-.6-.9-.6-1.6c0-.7.2-1.2.6-1.6.4-.3.9-.5 1.5-.5.8 0 1.3.4 1.7 1.1l1.8-1c-.3-.6-.7-1.1-1.3-1.5-.6-.3-1.3-.5-2.1-.5s-1.6.2-2.2.5c-.8.4-1.3.8-1.7 1.4-.4.6-.5 1.3-.5 2.1s.2 1.5.5 2.1c.4.6.9 1.1 1.6 1.4zM241.6 8.3c-.4 0-.7.1-1 .4-.3.3-.4.6-.4 1s.1.7.4 1c.3.3.6.4 1 .4s.7-.1 1-.4c.3-.3.4-.6.4-1s-.1-.7-.4-1c-.3-.3-.6-.4-1-.4zM119.8 11h2.2V5.1h2.7V3.2h-7.5v1.9h2.6zM143.1 10.4c.5-.4.8-.9.8-1.6 0-.9-.5-1.5-1.4-1.8.4-.2.6-.4.8-.7.2-.3.3-.6.3-1 0-.6-.3-1.1-.8-1.5-.5-.4-1.3-.5-2.3-.5h-4V11h4.1c1.2 0 2-.2 2.5-.6zm-4.5-5.6h1.7c.8 0 1.2.3 1.2.8 0 .6-.4.8-1.2.8h-1.7V4.8zm0 4.7V7.7h1.9c.4 0 .7.1.9.2.2.1.3.4.3.7 0 .6-.4.9-1.2.9h-1.9zM147.2 10.6c.7.3 1.4.5 2.2.5.8 0 1.6-.2 2.2-.5.6-.3 1.2-.8 1.5-1.4.4-.6.5-1.3.5-2.1s-.2-1.5-.5-2.1c-.4-.6-.9-1.1-1.5-1.4a5.09 5.09 0 0 0-4.4 0c-.6.4-1.2.8-1.5 1.4-.4.6-.5 1.3-.5 2.1s.2 1.5.5 2.1c.3.6.9 1.1 1.5 1.4zm.8-5c.4-.4.9-.6 1.4-.6s1.1.2 1.4.6c.4.4.6.9.6 1.6 0 .7-.2 1.2-.6 1.6-.4.4-.8.6-1.4.6s-1.1-.2-1.4-.6c-.4-.4-.6-.9-.6-1.6 0-.7.2-1.3.6-1.6zM131.9 6.4V11h2.3V3.2h-2.1l-3.8 4.6V3.2h-2.2V11h2.1zM110.2 10.6c.7.3 1.4.5 2.2.5.8 0 1.6-.2 2.2-.5.6-.3 1.2-.8 1.5-1.4.4-.6.5-1.3.5-2.1s-.2-1.5-.5-2.1c-.4-.6-.9-1.1-1.5-1.4a5.09 5.09 0 0 0-4.4 0c-.7.4-1.2.8-1.5 1.4s-.5 1.3-.5 2.1.2 1.5.5 2.1.8 1.1 1.5 1.4zm.8-5c.4-.4.9-.6 1.4-.6s1 .2 1.4.6c.4.4.6.9.6 1.6 0 .7-.2 1.2-.6 1.6-.4.4-.8.6-1.4.6s-1.1-.2-1.4-.6c-.4-.4-.6-.9-.6-1.6 0-.7.2-1.3.6-1.6zM65.2 47h2.3v5.5h1.2V47h2.4v-1h-5.9zM39.4 78v6.5h1.2v-2.8h3.7v2.8h1.2V78h-1.2v2.7h-3.7V78zM8.1 78v6.5h1.2v-2.8h1.3l2.2 2.8h1.4l-2.6-3.4L14 78h-1.2l-2.1 2.7H9.3V78zM40 31.6c0-.5-.2-.9-.6-1.2-.4-.3-1-.4-1.8-.4h-3v6.5h3.1c.8 0 1.5-.2 1.9-.5.4-.3.6-.7.6-1.3 0-.8-.4-1.4-1.3-1.6.3-.1.6-.3.8-.6.2-.2.3-.5.3-.9zm-4.3-.7h1.8c.9 0 1.4.3 1.4.9 0 .3-.1.5-.4.7-.2.2-.6.2-1 .2h-1.8v-1.8zm3.4 3.7c0 .3-.1.6-.4.7-.2.2-.6.2-1.1.2h-1.9v-1.9h2c.5 0 .8.1 1.1.2.2.2.3.5.3.8zM31.1 78v6.5h1.2v-2.8H36v2.8h1.1V78H36v2.7h-3.7V78zM135.2 82.9c.3-.5.4-1.1.4-1.7s-.1-1.2-.4-1.7c-.3-.5-.7-.9-1.2-1.2-.5-.3-1.1-.4-1.7-.4-.6 0-1.2.1-1.7.4-.5.3-.9.7-1.2 1.2-.3.5-.4 1.1-.4 1.7s.1 1.2.4 1.7c.3.5.7.9 1.2 1.2.5.3 1.1.4 1.7.4.6 0 1.2-.1 1.7-.4.6-.3 1-.7 1.2-1.2zm-1-.5c-.2.3-.4.6-.8.8-.3.2-.7.3-1.1.3-.4 0-.8-.1-1.1-.3-.3-.2-.6-.5-.8-.8-.2-.4-.3-.7-.3-1.2s.1-.8.3-1.2c.2-.4.5-.6.8-.8.3-.2.7-.3 1.1-.3.4 0 .8.1 1.1.3.3.2.6.5.8.8.2.3.3.7.3 1.2s-.1.9-.3 1.2zM24.5 62v6.5h1.1v-4.8l2.4 4h.5l2.4-4v4.8H32V62h-1.1l-2.7 4.4-2.5-4.4zM130.1 68.5h1.2V63h3.7v5.5h1.2V62h-6.1zM8.1 66.9c.3.5.7.9 1.2 1.2.5.3 1.1.4 1.7.4.6 0 1.2-.1 1.7-.4.5-.3.9-.7 1.2-1.2.3-.5.4-1.1.4-1.7s-.1-1.2-.4-1.7c-.3-.5-.7-.9-1.2-1.2-.5-.3-1.1-.4-1.7-.4-.6 0-1.2.1-1.7.4-.5.3-.9.7-1.2 1.2-.3.5-.4 1.1-.4 1.7s.1 1.2.4 1.7zm1-2.9c.2-.4.5-.6.8-.8.3-.2.7-.3 1.1-.3.4 0 .8.1 1.1.3.3.2.6.5.8.8.2.3.3.7.3 1.2s-.1.8-.3 1.2c-.2.3-.4.6-.8.8-.3.2-.7.3-1.1.3-.4 0-.8-.1-1.1-.3-.3-.2-.6-.5-.8-.8-.2-.4-.3-.7-.3-1.2s.1-.8.3-1.2zM15.9 80.4c0 .7-.1 1.3-.1 1.7 0 .4-.2.7-.3 1-.2.3-.4.4-.7.4h-.3l-.1 1c.3.1.5.1.7.1.5 0 .8-.2 1.1-.5.3-.4.4-.8.6-1.4.1-.6.2-1.3.2-2.2V79h2.8v5.5H21V78h-5l-.1 2.4zM8.1 47.5c-.3.5-.4 1.1-.4 1.7s.1 1.2.4 1.7c.3.5.7.9 1.2 1.2.5.3 1.1.4 1.7.4.6 0 1.2-.1 1.7-.4.5-.3.9-.7 1.2-1.2.3-.5.4-1.1.4-1.7s-.1-1.2-.4-1.7c-.3-.5-.7-.9-1.2-1.2-.5-.3-1.1-.4-1.7-.4-.6 0-1.2.1-1.7.4-.5.3-.9.7-1.2 1.2zm1.8-.3c.3-.2.7-.3 1.1-.3.4 0 .8.1 1.1.3.3.2.6.5.8.8.2.3.3.7.3 1.2s-.1.8-.3 1.2c-.2.3-.4.6-.8.8-.3.2-.7.3-1.1.3-.4 0-.8-.1-1.1-.3-.3-.2-.6-.5-.8-.8-.2-.4-.3-.7-.3-1.2s.1-.8.3-1.2c.2-.3.5-.6.8-.8zM61.4 79h2.4v5.5h1.1V79h2.4v-1h-5.9zM57.9 46v6.5h1.2v-2.8h3.7v2.8H64V46h-1.2v2.7h-3.7V46zM16.1 70.8h1.2v-3.4c.3.3.6.6 1 .8.4.2.8.3 1.3.3.6 0 1.2-.1 1.7-.4.5-.3.9-.7 1.2-1.2.3-.5.4-1.1.4-1.7s-.1-1.2-.4-1.7c-.3-.5-.7-.9-1.2-1.2-.5-.3-1.1-.4-1.7-.4-.5 0-.9.1-1.3.3-.4.2-.7.4-1 .8v-1h-1.1v8.8zm1.4-6.8c.2-.3.5-.6.8-.8.3-.2.7-.3 1.1-.3.4 0 .8.1 1.1.3.3.2.6.5.8.8.2.3.3.7.3 1.2s-.1.8-.3 1.2c-.2.3-.4.6-.8.8-.3.2-.7.3-1.1.3-.4 0-.8-.1-1.1-.3-.3-.2-.6-.5-.8-.8-.2-.4-.3-.7-.3-1.2s.1-.8.3-1.2zM161.9 30v6.5h1.1v-2.8h3.7v2.8h1.2V30h-1.2v2.7H163V30zM101.3 47.5c-.3.5-.4 1.1-.4 1.7 0 .6.1 1.2.4 1.7.3.5.7.9 1.2 1.2.5.3 1.1.4 1.8.4.5 0 1-.1 1.5-.3.4-.2.8-.4 1.1-.8l-.6-.8c-.5.5-1.1.8-1.9.8-.6 0-1.2-.2-1.6-.5-.4-.4-.7-.8-.7-1.4h5.3v-.4c0-.7-.1-1.2-.4-1.7-.3-.5-.6-.9-1.1-1.2-.5-.3-1-.4-1.7-.4-.6 0-1.2.1-1.7.4-.5.4-.9.8-1.2 1.3zm2.8-.6c.6 0 1 .2 1.4.5.4.3.6.8.7 1.3H102c.1-.6.3-1 .7-1.3.4-.3.9-.5 1.4-.5zM69.2 61.9c-.6 0-1.2.1-1.7.4-.5.3-.9.7-1.2 1.2-.2.5-.3 1.1-.3 1.7 0 .6.1 1.2.4 1.7.3.5.7.9 1.2 1.2.5.3 1.1.4 1.8.4.5 0 1-.1 1.5-.3.4-.2.8-.4 1.1-.8l-.6-.8c-.5.5-1.1.8-1.9.8-.6 0-1.2-.2-1.6-.5-.4-.4-.7-.8-.7-1.4h5.3v-.4c0-.7-.1-1.2-.4-1.7-.3-.5-.6-.9-1.1-1.2-.6-.1-1.2-.3-1.8-.3zm-2.1 2.9c.1-.6.3-1 .7-1.3.4-.3.9-.5 1.4-.5.6 0 1 .2 1.4.5.4.3.6.8.7 1.3h-4.2zM1.1 52.5h1.2v-2.8h1.4l2.1 2.8h1.4l-2.6-3.4L7.1 46H5.8l-2.1 2.7H2.3V46H1.1zM1.1 30v6.5h1.1l4-4.8v4.8h1.2V30H6.3l-4 4.7V30zM55.8 68.5V62h-1.2v2.7h-3.7V62h-1.1v6.5h1.1v-2.8h3.7v2.8zM76.5 46.3c-.5-.3-1.1-.4-1.7-.4-.6 0-1.2.1-1.7.4-.5.3-.9.7-1.2 1.2-.3.5-.4 1.1-.4 1.7s.1 1.2.4 1.7c.3.5.7.9 1.2 1.2.5.3 1.1.4 1.7.4.6 0 1.2-.1 1.7-.4.5-.3.9-.7 1.2-1.2.3-.5.4-1.1.4-1.7s-.1-1.2-.4-1.7c-.3-.5-.7-.9-1.2-1.2zm.2 4.1c-.2.3-.4.6-.8.8-.3.2-.7.3-1.1.3s-.8-.1-1.1-.3c-.3-.2-.6-.5-.8-.8-.2-.4-.3-.7-.3-1.2s.1-.8.3-1.2c.2-.4.5-.6.8-.8.3-.2.7-.3 1.1-.3s.8.1 1.1.3c.3.2.6.5.8.8.2.3.3.7.3 1.2s-.1.9-.3 1.2zM31.8 52.5V46h-6v6.5H27V47h3.7v5.5zM84.9 84.5l-2.6-3.4 2.4-3.1h-1.2l-2.1 2.7H80V78h-1.2v6.5H80v-2.8h1.3l2.2 2.8zM18.5 30l-.1 2.2c-.1 1-.2 1.8-.3 2.4-.2.6-.4.9-.9.9h-.3V38H18v-1.5h5.4V38h1.1v-2.5h-1V30h-5zm3.9 5.4h-3.6c.3-.2.5-.6.6-1.1.1-.5.2-1.2.2-2l.1-1.2h2.8v4.3zM173 47h2.4v5.5h1.1V47h2.4v-1H173zM2.2 84.1c.5.3 1.1.4 1.8.4.6 0 1.1-.1 1.6-.4.5-.2.8-.6 1.1-1l-.9-.6c-.2.3-.5.5-.8.7-.3.2-.6.2-1 .2s-.8-.1-1.1-.3c-.4-.1-.7-.3-.9-.7-.2-.4-.3-.8-.3-1.2 0-.4.1-.8.3-1.2.2-.4.5-.6.8-.8.4-.2.7-.3 1.2-.3.4 0 .7.1 1 .2.3.2.6.4.8.7l.9-.6c-.3-.4-.6-.8-1.1-1-.5-.2-1-.4-1.6-.4-.7 0-1.3.1-1.8.4-.5.4-.9.8-1.2 1.3-.3.5-.4 1.1-.4 1.7s.1 1.2.4 1.7c.3.5.7.9 1.2 1.2zM1.1 68.5h1.2v-2.8h1.4l2.1 2.8h1.4l-2.6-3.4L7.1 62H5.8l-2.1 2.7H2.3V62H1.1zM142.7 46v6.5h1.2v-2.8h3.7v2.8h1.1V46h-1.1v2.7h-3.7V46zM113.8 30v6.5h1.2v-2.8h3.7v2.8h1.2V30h-1.2v2.7H115V30zM124.4 70.3l.6-1.7c.1-.2.1-.4.2-.5v-.4c0-.2-.1-.4-.2-.6-.1-.2-.3-.2-.6-.2-.2 0-.4.1-.6.2-.2.2-.2.4-.2.6 0 .2 0 .3.1.5.1.1.2.2.4.3l-.5 1.8h.8zM109.2 46v8.9h1.2v-3.4c.3.3.6.6 1 .8.4.2.8.3 1.3.3.6 0 1.2-.1 1.7-.4.5-.3.9-.7 1.2-1.2.3-.5.4-1.1.4-1.7s-.1-1.2-.4-1.7c-.3-.5-.7-.9-1.2-1.2-.5-.3-1.1-.4-1.7-.4-.5 0-.9.1-1.3.3-.4.2-.7.4-1 .8v-1h-1.2zm1.4 2c.2-.3.5-.6.8-.8.3-.2.7-.3 1.1-.3.4 0 .8.1 1.1.3.3.2.6.5.8.8.2.3.3.7.3 1.2s-.1.8-.3 1.2c-.2.3-.4.6-.8.8-.3.2-.7.3-1.1.3-.4 0-.8-.1-1.1-.3-.3-.2-.6-.5-.8-.8-.2-.4-.3-.7-.3-1.2s.1-.8.3-1.2zM77.5 68.5h1.2V63h3.6v-1h-4.8zM33.9 47.5c-.3.5-.4 1.1-.4 1.7s.1 1.2.4 1.7c.3.5.7.9 1.2 1.2.5.3 1.1.4 1.7.4.6 0 1.2-.1 1.7-.4.5-.3.9-.7 1.2-1.2.3-.5.4-1.1.4-1.7s-.1-1.2-.4-1.7c-.3-.5-.7-.9-1.2-1.2-.5-.3-1.1-.4-1.7-.4-.6 0-1.2.1-1.7.4-.5.3-.9.7-1.2 1.2zm1.1.5c.2-.4.5-.6.8-.8.3-.2.7-.3 1.1-.3s.8.1 1.1.3c.3.2.6.5.8.8.2.3.3.7.3 1.2s-.1.8-.3 1.2c-.2.3-.4.6-.8.8-.3.2-.7.3-1.1.3s-.8-.1-1.1-.3c-.3-.2-.6-.5-.8-.8-.2-.4-.3-.7-.3-1.2s.1-.8.3-1.2zM33.2 68.4c.3.1.5.1.7.1.5 0 .8-.2 1.1-.5.3-.4.4-.8.6-1.4.1-.6.2-1.3.2-2.2l.1-1.4h2.8v5.5h1.2V62h-5l-.1 2.4c0 .7-.1 1.3-.1 1.7 0 .4-.2.7-.3 1-.2.3-.4.4-.7.4h-.3l-.2.9zM59.3 66.7V62h-1.2v6.5h1.1l3.9-4.8v4.8h1.2V62h-1.1zM145.8 30v8.9h1.2v-3.4c.3.3.6.6 1 .8.4.2.8.3 1.3.3.6 0 1.2-.1 1.7-.4.5-.3.9-.7 1.2-1.2.3-.5.4-1.1.4-1.7s-.1-1.2-.4-1.7c-.3-.5-.7-.9-1.2-1.2-.5-.3-1.1-.4-1.7-.4-.5 0-.9.1-1.3.3-.4.2-.7.4-1 .8v-1h-1.2zm1.4 2c.2-.3.5-.6.8-.8.3-.2.7-.3 1.1-.3.4 0 .8.1 1.1.3.3.2.6.5.8.8.2.3.3.7.3 1.2s-.1.8-.3 1.2c-.2.3-.4.6-.8.8-.3.2-.7.3-1.1.3-.4 0-.8-.1-1.1-.3-.3-.2-.6-.5-.8-.8-.2-.4-.3-.7-.3-1.2s.1-.8.3-1.2zM113.5 62v6.5h1.2v-2.7h1.3c.1.5.3 1 .5 1.5.3.4.7.8 1.1 1 .5.2 1 .4 1.6.4.6 0 1.2-.1 1.7-.4.5-.3.9-.7 1.2-1.2.3-.5.4-1.1.4-1.7s-.1-1.2-.4-1.7c-.3-.5-.7-.9-1.2-1.2-.5-.3-1.1-.4-1.7-.4-.6 0-1.1.1-1.5.3-.5.2-.8.5-1.1 1-.3.4-.5.9-.6 1.4h-1.3V62h-1.2zm3.9 2c.2-.4.4-.6.8-.8.3-.2.7-.3 1.1-.3.4 0 .8.1 1.1.3.3.2.6.5.8.8.2.3.3.7.3 1.2s-.1.9-.3 1.2c-.2.3-.4.6-.8.8-.3.2-.7.3-1.1.3-.4 0-.8-.1-1.1-.3-.3-.2-.6-.5-.8-.8-.2-.4-.3-.8-.3-1.2 0-.4.1-.8.3-1.2zM47.6 79.5c-.3.5-.4 1.1-.4 1.7s.1 1.2.4 1.7c.3.5.7.9 1.2 1.2.5.3 1.1.4 1.7.4.6 0 1.2-.1 1.7-.4.5-.3.9-.7 1.2-1.2.3-.5.4-1.1.4-1.7s-.1-1.2-.4-1.7c-.3-.5-.7-.9-1.2-1.2-.5-.3-1.1-.4-1.7-.4-.6 0-1.2.1-1.7.4-.5.3-.9.7-1.2 1.2zm1.8-.3c.3-.2.7-.3 1.1-.3s.8.1 1.1.3c.3.2.6.5.8.8.2.3.3.7.3 1.2s-.1.8-.3 1.2c-.2.3-.4.6-.8.8-.3.2-.7.3-1.1.3s-.8-.1-1.1-.3c-.3-.2-.6-.5-.8-.8-.2-.4-.3-.7-.3-1.2s.1-.8.3-1.2c.2-.3.5-.6.8-.8zM121.9 77.1c-.5.7-.8 1.8-.8 3.1 0 1.4.3 2.4.9 3.2.6.7 1.5 1.1 2.6 1.1.7 0 1.2-.1 1.7-.4.5-.3.9-.6 1.2-1.1.3-.5.4-1 .4-1.7 0-.6-.1-1.2-.4-1.6-.3-.5-.6-.9-1.1-1.1-.5-.3-1-.4-1.6-.4-.5 0-1 .1-1.5.3-.4.2-.8.6-1.1 1 .1-.8.3-1.5.7-1.9.4-.4 1-.8 1.9-1l2.7-.6-.2-1.1-3 .7c-1 .3-1.9.8-2.4 1.5zm1.1 2.7c.4-.4.9-.6 1.6-.6.6 0 1.2.2 1.5.6.4.4.6.9.6 1.6 0 .4-.1.8-.3 1.1-.2.3-.4.6-.8.8-.3.2-.7.3-1.1.3-.4 0-.8-.1-1.1-.3-.3-.2-.6-.4-.8-.8-.2-.3-.3-.7-.3-1.1.1-.7.3-1.2.7-1.6zM88.6 62.3c-.5-.3-1.1-.4-1.7-.4-.5 0-.9.1-1.3.3-.4.2-.7.4-1 .8v-1h-1.1v8.9h1.2v-3.4c.3.3.6.6 1 .8.4.2.8.3 1.3.3.6 0 1.2-.1 1.7-.4.5-.3.9-.7 1.2-1.2.3-.5.4-1.1.4-1.7s-.1-1.2-.4-1.7c-.4-.6-.8-1-1.3-1.3zm.1 4.1c-.2.3-.4.6-.8.8-.3.2-.7.3-1.1.3-.4 0-.8-.1-1.1-.3-.3-.2-.6-.5-.8-.8-.2-.4-.3-.7-.3-1.2s.1-.8.3-1.2c.2-.3.5-.6.8-.8.3-.2.7-.3 1.1-.3.4 0 .8.1 1.1.3.3.2.6.5.8.8.2.3.3.7.3 1.2s-.1.9-.3 1.2zM107.7 62h-1.2v6.5h2.8c.9 0 1.5-.2 2-.6.5-.4.7-.9.7-1.6 0-.7-.2-1.2-.6-1.6-.4-.4-1.1-.6-1.9-.6h-1.8V62zm1.5 3c.5 0 1 .1 1.2.3.3.2.4.5.4.9s-.1.8-.4 1c-.3.2-.7.3-1.2.3h-1.5V65h1.5zM54.6 46.3c-.5-.3-1-.4-1.7-.4s-1.2.1-1.7.4c-.5.3-.9.7-1.2 1.2-.3.5-.4 1.1-.4 1.7 0 .6.1 1.2.4 1.7.3.5.7.9 1.2 1.2.5.3 1.1.4 1.8.4.5 0 1-.1 1.5-.3.4-.2.8-.4 1.1-.8l-.6-.7c-.5.5-1.1.8-1.9.8-.6 0-1.2-.2-1.6-.5-.4-.4-.7-.8-.7-1.4h5.3v-.4c0-.7-.1-1.2-.4-1.7-.3-.5-.7-.9-1.1-1.2zm-3.8 2.5c.1-.6.3-1 .7-1.3.4-.3.9-.5 1.4-.5s1 .2 1.4.5c.4.3.6.8.7 1.3h-4.2zM160.2 62h1.2v6.5h-1.2zM24.3 84.1c.5.3 1.1.4 1.7.4s1.2-.1 1.7-.4c.5-.3.9-.7 1.2-1.2.3-.5.4-1.1.4-1.7s0-1.2-.3-1.7-.7-.9-1.2-1.2c-.5-.3-1.1-.4-1.7-.4s-1.2.1-1.7.4c-.5.3-.9.7-1.2 1.2-.3.5-.4 1.1-.4 1.7s.1 1.2.4 1.7c.2.5.6.9 1.1 1.2zm-.2-4.1c.2-.4.5-.6.8-.8.3-.2.7-.3 1.1-.3s.8.1 1.1.3c.3.2.6.5.8.8.2.3.3.7.3 1.2s-.1.8-.3 1.2c-.2.3-.4.6-.8.8-.3.2-.7.3-1.1.3s-.8-.1-1.1-.3c-.3-.2-.6-.5-.8-.8-.2-.4-.3-.7-.3-1.2s.2-.8.3-1.2zM85.3 47.6c0-.5-.2-.9-.6-1.2-.4-.3-1-.4-1.8-.4h-3v6.5H83c.8 0 1.5-.2 1.9-.5.4-.3.6-.7.6-1.3 0-.8-.4-1.4-1.3-1.6.3-.1.6-.3.8-.6.2-.2.3-.5.3-.9zm-4.3-.7h1.8c.9 0 1.4.3 1.4.9 0 .3-.1.5-.4.7-.2.2-.6.2-1 .2H81v-1.8zm3.3 3.7c0 .3-.1.6-.4.7-.2.2-.6.2-1.1.2H81v-1.9h2c.5 0 .8.1 1.1.2.1.2.2.5.2.8zM92.8 69.7c-.2.2-.4.2-.7.2-.4 0-.8-.2-1.2-.5l-.5.9c.2.2.4.3.7.4.3.1.6.2.9.2.5 0 1-.1 1.3-.4.4-.3.7-.7 1-1.4l3.1-7.1h-1.1l-2.2 5.2-2.2-5.2h-1.2l2.9 6.5-.2.5c-.3.3-.4.5-.6.7zM129 50.4l-2.5-4.4h-1.2v6.5h1v-4.8l2.4 4h.5l2.5-4v4.8h1V46h-1.1zM16.1 52.5h1v-4.8l2.4 4h.6l2.4-4v4.8h1V46h-1.1l-2.6 4.4-2.5-4.4h-1.2zM153.3 78v8.9h1.2v-3.4c.3.3.6.6 1 .8.4.2.8.3 1.3.3.6 0 1.2-.1 1.7-.4.5-.3.9-.7 1.2-1.2.3-.5.4-1.1.4-1.7s-.1-1.2-.4-1.7c-.3-.5-.7-.9-1.2-1.2-.5-.3-1.1-.4-1.7-.4-.5 0-.9.1-1.3.3-.4.2-.7.4-1 .8v-1h-1.2zm1.5 2c.2-.3.5-.6.8-.8.3-.2.7-.3 1.1-.3.4 0 .8.1 1.1.3.3.2.6.5.8.8.2.3.3.7.3 1.2s-.1.8-.3 1.2c-.2.3-.4.6-.8.8-.3.2-.7.3-1.1.3-.4 0-.8-.1-1.1-.3-.3-.2-.6-.5-.8-.8-.2-.4-.3-.7-.3-1.2s.1-.8.3-1.2zM121.9 46.3c-.5-.3-1-.4-1.7-.4-.6 0-1.2.1-1.7.4-.5.3-.9.7-1.2 1.2-.3.5-.4 1.1-.4 1.7 0 .6.1 1.2.4 1.7.3.5.7.9 1.2 1.2.5.3 1.1.4 1.8.4.5 0 1-.1 1.5-.3.4-.2.8-.4 1.1-.8l-.6-.8c-.5.5-1.1.8-1.9.8-.6 0-1.2-.2-1.6-.5-.4-.4-.7-.8-.7-1.4h5.3v-.4c0-.7-.1-1.2-.4-1.7-.2-.4-.6-.8-1.1-1.1zm-3.7 2.5c.1-.6.3-1 .7-1.3.4-.3.9-.5 1.4-.5.6 0 1 .2 1.4.5.4.3.6.8.7 1.3h-4.2zM103.8 36.5l1.4-2.1h2v2.1h1.1V30h-2.8c-.9 0-1.6.2-2.1.6-.5.4-.8.9-.8 1.7 0 .5.1.9.4 1.3.3.3.6.6 1.1.7l-1.6 2.2h1.3zm0-4.2c0-.9.6-1.3 1.7-1.3h1.7v2.6h-1.8c-.5 0-1-.1-1.2-.3-.3-.3-.4-.6-.4-1zM55.4 79.5c-.3.5-.4 1.1-.4 1.7s.1 1.2.4 1.7c.3.5.7.9 1.2 1.2.5.3 1.1.4 1.8.4.6 0 1.1-.1 1.6-.4.5-.2.8-.6 1.1-1l-.9-.6c-.2.3-.5.5-.8.7-.3.2-.6.2-1 .2s-.8-.1-1.1-.3c-.3-.2-.6-.5-.8-.8-.2-.4-.3-.8-.3-1.2 0-.4.1-.8.3-1.2.2-.4.5-.6.8-.8.3-.2.7-.3 1.1-.3.4 0 .7.1 1 .2.3.2.6.4.8.7l.9-.6c-.3-.4-.6-.8-1.1-1-.5-.2-1-.4-1.6-.4-.7 0-1.3.1-1.8.4-.5.5-.9.9-1.2 1.4zM96.7 44.6l2.7-.6-.1-1-3 .7c-1.1.2-2 .7-2.5 1.5-.5.7-.8 1.8-.8 3.1 0 1.4.3 2.4.9 3.2.6.7 1.5 1.1 2.6 1.1.7 0 1.2-.1 1.7-.4.5-.3.9-.6 1.2-1.1.3-.5.4-1 .4-1.7 0-.6-.1-1.2-.4-1.6-.3-.5-.6-.9-1.1-1.1-.5-.3-1-.4-1.6-.4-.5 0-1 .1-1.5.3-.4.2-.8.6-1.1 1 .1-.8.3-1.5.7-1.9.5-.6 1.1-.9 1.9-1.1zm-1.8 3.2c.4-.4.9-.6 1.6-.6s1.1.2 1.5.6c.4.4.6.9.6 1.6 0 .4-.1.8-.3 1.1-.2.3-.4.6-.8.8-.3.2-.7.3-1.1.3-.4 0-.8-.1-1.1-.3-.3-.2-.6-.4-.8-.8-.2-.3-.3-.7-.3-1.1.1-.7.3-1.2.7-1.6zM181 65.2c0-.7-.1-1.2-.4-1.7-.3-.5-.6-.9-1.1-1.2-.5-.3-1-.4-1.7-.4-.6 0-1.2.1-1.7.4-.5.3-.9.7-1.2 1.2-.3.5-.4 1.1-.4 1.7 0 .6.1 1.2.4 1.7.3.5.7.9 1.2 1.2.5.3 1.1.4 1.8.4.5 0 1-.1 1.5-.3.4-.2.8-.4 1.1-.8l-.6-.8c-.5.5-1.1.8-1.9.8-.6 0-1.2-.2-1.6-.5-.4-.4-.7-.8-.7-1.4h5.3v-.3zm-5.3-.4c.1-.6.3-1 .7-1.3.4-.3.9-.5 1.4-.5s1 .2 1.4.5c.4.3.6.8.7 1.3h-4.2zM154 34.9c.3.5.7.9 1.2 1.2.5.3 1.1.4 1.8.4.5 0 1-.1 1.5-.3.4-.2.8-.4 1.1-.8l-.6-.8c-.5.5-1.1.8-1.9.8-.6 0-1.2-.2-1.6-.5-.4-.4-.7-.8-.7-1.4h5.3v-.4c0-.7-.1-1.2-.4-1.7-.3-.5-.6-.9-1.1-1.2-.5-.3-1-.4-1.7-.4-.6 0-1.2.1-1.7.4-.5.3-.9.7-1.2 1.2-.3.5-.4 1.1-.4 1.7 0 .7.1 1.3.4 1.8zm1.4-3.5c.4-.3.9-.5 1.4-.5s1 .2 1.4.5c.4.3.6.8.7 1.3h-4.2c.1-.5.4-.9.7-1.3zM9.6 30v6.5h1.2v-2.8h3.7v2.8h1.2V30h-1.2v2.7h-3.7V30zM216.6 35.1l-.9-.6c-.2.3-.5.5-.8.7-.3.2-.6.2-1 .2s-.8-.1-1.1-.3c-.3-.2-.6-.5-.8-.8-.2-.4-.3-.8-.3-1.2 0-.4.1-.8.3-1.2.2-.4.5-.6.8-.8.3-.2.7-.3 1.1-.3.4 0 .7.1 1 .2.3.2.6.4.8.7l.9-.6c-.3-.4-.6-.8-1.1-1-.5-.2-1-.4-1.6-.4-.7 0-1.3.1-1.8.4-.5.3-.9.7-1.2 1.2-.3.5-.4 1.1-.4 1.7s.1 1.2.4 1.7c.3.5.7.9 1.2 1.2.5.3 1.1.4 1.8.4.6 0 1.1-.1 1.6-.4.4 0 .8-.3 1.1-.8zM81.7 30h-1.2v6.5h2.8c.9 0 1.5-.2 2-.6.5-.4.7-.9.7-1.6 0-.7-.2-1.2-.6-1.6-.4-.4-1.1-.6-1.9-.6h-1.8V30zm1.5 3c.5 0 .9.1 1.2.3.3.2.4.5.4.9s-.1.8-.4 1c-.3.2-.7.3-1.2.3h-1.5V33h1.5zM201 36.5V30h-1.1l-2.6 4.4-2.6-4.4h-1.2v6.5h1.1v-4.8l2.4 4h.5l2.4-4v4.8zM227 32.2h-1.8V30H224v6.5h2.8c.9 0 1.5-.2 2-.6.5-.4.7-.9.7-1.6 0-.7-.2-1.2-.6-1.6-.4-.3-1.1-.5-1.9-.5zm.9 3.1c-.3.2-.7.3-1.2.3h-1.5V33h1.5c.5 0 1 .1 1.2.3.3.2.4.5.4.9 0 .5-.1.8-.4 1.1zM222.2 78.3c-.5-.3-1.1-.4-1.7-.4-.6 0-1.1.1-1.5.3-.5.2-.8.5-1.1 1-.3.4-.5.9-.6 1.4H216V78h-1.2v6.5h1.2v-2.7h1.3c.1.5.3 1 .5 1.5.3.4.7.8 1.2 1 .5.2 1 .4 1.6.4.6 0 1.2-.1 1.7-.4.5-.3.9-.7 1.2-1.2.3-.5.4-1.1.4-1.7s-.1-1.2-.4-1.7c-.4-.7-.8-1.1-1.3-1.4zm.1 4.1c-.2.3-.4.6-.8.8-.3.2-.7.3-1.1.3-.4 0-.8-.1-1.1-.3s-.6-.5-.8-.8c-.2-.4-.3-.8-.3-1.2 0-.4.1-.8.3-1.2.2-.4.4-.6.8-.8.3-.2.7-.3 1.1-.3.4 0 .8.1 1.1.3.3.2.6.5.8.8.2.3.3.7.3 1.2s-.1.9-.3 1.2zM225.6 82.9c-.2 0-.4.1-.6.2-.2.2-.2.4-.2.6 0 .2.1.4.2.6.2.2.4.2.6.2.2 0 .4-.1.6-.2.2-.2.2-.4.2-.6 0-.2-.1-.4-.2-.6-.2-.2-.4-.2-.6-.2zM191.1 62v6.5h1.2v-2.8h3.7v2.8h1.2V62H196v2.7h-3.7V62zM87.3 52.4l-.5 1.8h.8l.6-1.7c.1-.2.1-.4.2-.5v-.4c0-.2-.1-.4-.2-.6-.1-.2-.3-.2-.6-.2-.2 0-.4.1-.6.2s-.2.4-.2.6c0 .2 0 .3.1.5s.3.3.4.3zM71.7 35.5l-.1 1c.3.1.5.1.7.1.5 0 .8-.2 1.1-.5.3-.4.4-.8.6-1.4.1-.6.2-1.3.2-2.2l.1-1.4h2.8v5.5h1.2V30h-5l-.1 2.4c0 .7-.1 1.3-.1 1.7 0 .4-.2.7-.3 1-.2.3-.4.4-.7.4h-.4zM207.4 68.5l1.4-2.1h2v2.1h1.1V62H209c-.9 0-1.6.2-2.1.6-.5.4-.8.9-.8 1.7 0 .5.1.9.4 1.3.3.3.6.6 1.1.7l-1.6 2.2h1.4zm0-4.2c0-.9.6-1.3 1.7-1.3h1.7v2.6H209c-.5 0-1-.1-1.2-.3-.3-.3-.4-.6-.4-1zM137.2 79.5c-.3.5-.4 1.1-.4 1.7s.1 1.2.4 1.7c.3.5.7.9 1.2 1.2.5.3 1.1.4 1.7.4.6 0 1.2-.1 1.7-.4.5-.3.9-.7 1.2-1.2.3-.5.4-1.1.4-1.7s-.1-1.2-.4-1.7c-.3-.5-.7-.9-1.2-1.2-.5-.3-1.1-.4-1.7-.4-.6 0-1.2.1-1.7.4-.5.3-.9.7-1.2 1.2zm1.1.5c.2-.4.5-.6.8-.8.3-.2.7-.3 1.1-.3.4 0 .8.1 1.1.3.3.2.6.5.8.8.2.3.3.7.3 1.2s-.1.8-.3 1.2c-.2.3-.4.6-.8.8-.3.2-.7.3-1.1.3-.4 0-.8-.1-1.1-.3-.3-.2-.6-.5-.8-.8-.2-.4-.3-.7-.3-1.2s.1-.8.3-1.2zM195.8 84.5v-3.9c0-.9-.2-1.5-.7-2-.5-.4-1.2-.7-2.1-.7-.5 0-1 .1-1.5.2s-.9.3-1.2.6l.5.9c.3-.2.6-.4.9-.5.4-.1.7-.2 1.1-.2.6 0 1 .1 1.3.4.3.3.4.7.4 1.2v.2h-1.9c-.9 0-1.6.2-2 .5-.4.3-.6.8-.6 1.4s.2 1 .6 1.4c.4.4 1 .5 1.7.5.5 0 .9-.1 1.3-.2.4-.2.6-.4.8-.7v.9h1.4zm-1.1-2c-.1.4-.4.7-.7.9-.3.2-.7.3-1.2.3-.4 0-.8-.1-1.1-.3-.3-.2-.4-.4-.4-.8 0-.7.5-1 1.5-1h1.8v.9zM191.2 36.5V30h-1l-4 4.7V30H185v6.5h1.1l3.9-4.8v4.8zM207.5 82.7V78h-1.2v6.5h1.1l3.9-4.8v4.8h1.2V78h-1.1zM134.8 47.5c-.3.5-.4 1.1-.4 1.7 0 .6.1 1.2.4 1.7.3.5.7.9 1.2 1.2.5.3 1.1.4 1.8.4.5 0 1-.1 1.5-.3.4-.2.8-.4 1.1-.8l-.6-.8c-.5.5-1.1.8-1.9.8-.6 0-1.2-.2-1.6-.5-.4-.4-.7-.8-.7-1.4h5.3v-.4c0-.7-.1-1.2-.4-1.7-.3-.5-.6-.9-1.1-1.2-.5-.3-1-.4-1.7-.4-.6 0-1.2.1-1.7.4-.5.4-.9.8-1.2 1.3zm1.5-.1c.4-.3.9-.5 1.4-.5.6 0 1 .2 1.4.5.4.3.6.8.7 1.3h-4.2c.1-.5.3-.9.7-1.3zM188.3 84c.4-.3.6-.7.6-1.3 0-.8-.4-1.4-1.3-1.6.3-.1.6-.3.8-.6.2-.3.3-.6.3-.9 0-.5-.2-.9-.6-1.2-.4-.3-1-.4-1.8-.4h-3v6.5h3.1c.8 0 1.4-.2 1.9-.5zm-3.9-5.1h1.8c.9 0 1.4.3 1.4.9 0 .3-.1.5-.4.7-.2.2-.6.2-1 .2h-1.8v-1.8zm0 4.6v-1.9h2c.5 0 .8.1 1.1.2.2.2.3.4.3.7 0 .3-.1.6-.4.7-.2.2-.6.2-1.1.2h-1.9zM179.7 31.2c.3-.2.7-.3 1.2-.3.4 0 .7.1 1 .2.3.2.6.4.8.7l.9-.6c-.3-.4-.6-.8-1.1-1-.5-.2-1-.4-1.6-.4-.7 0-1.3.1-1.8.4-.5.3-.9.7-1.2 1.2-.3.5-.4 1.1-.4 1.7s.1 1.2.4 1.7c.3.5.7.9 1.2 1.2.5.3 1.1.4 1.8.4.6 0 1.1-.1 1.6-.4.5-.2.8-.6 1.1-1l-.9-.6c-.2.3-.5.5-.8.7-.3.2-.6.2-1 .2s-.8-.1-1.2-.3c-.3-.2-.6-.5-.8-.8-.2-.4-.3-.8-.3-1.2 0-.4.1-.8.3-1.2.2-.1.5-.4.8-.6zM122 31.5c-.3.5-.4 1.1-.4 1.7 0 .6.1 1.2.4 1.7.3.5.7.9 1.2 1.2.5.3 1.1.4 1.8.4.5 0 1-.1 1.5-.3.4-.2.8-.4 1.1-.8l-.6-.8c-.5.5-1.1.8-1.9.8-.6 0-1.2-.2-1.6-.5-.4-.4-.7-.8-.7-1.4h5.3v-.4c0-.7-.1-1.2-.4-1.7-.3-.5-.6-.9-1.1-1.2-.5-.3-1-.4-1.6-.4-.6 0-1.2.1-1.7.4-.7.4-1.1.8-1.3 1.3zm2.8-.6c.6 0 1 .2 1.4.5.4.3.6.8.7 1.3h-4.2c.1-.6.3-1 .7-1.3.4-.3.8-.5 1.4-.5zM129.8 36.5h1.2V31h3.7v5.5h1.1V30h-6zM142.4 30.3c-.5-.3-1-.4-1.7-.4-.6 0-1.2.1-1.7.4-.5.3-.9.7-1.2 1.2-.3.5-.4 1.1-.4 1.7 0 .6.1 1.2.4 1.7.3.5.7.9 1.2 1.2.5.3 1.1.4 1.8.4.5 0 1-.1 1.5-.3.4-.2.8-.4 1.1-.8l-.6-.8c-.5.5-1.1.8-1.9.8-.6 0-1.2-.2-1.6-.5-.4-.4-.7-.8-.7-1.4h5.3v-.4c0-.7-.1-1.2-.4-1.7-.2-.4-.6-.8-1.1-1.1zm-3.7 2.5c.1-.6.3-1 .7-1.3.4-.3.9-.5 1.4-.5.6 0 1 .2 1.4.5.4.3.6.8.7 1.3h-4.2zM98.9 64.2c-.1 1-.2 1.8-.3 2.4-.2.6-.4.9-.9.9h-.3V70h1.1v-1.5h5.4V70h1.1v-2.5h-1V62h-5l-.1 2.2zm.8 2.1c.1-.5.2-1.2.2-2l.1-1.3h2.8v4.4h-3.6c.2-.2.4-.6.5-1.1zM171.2 30.3c-.5.3-.9.7-1.2 1.2-.3.5-.4 1.1-.4 1.7s.1 1.2.4 1.7c.3.5.7.9 1.2 1.2.5.3 1.1.4 1.7.4.6 0 1.2-.1 1.7-.4.5-.3.9-.7 1.2-1.2.3-.5.4-1.1.4-1.7s-.1-1.2-.4-1.7c-.3-.5-.7-.9-1.2-1.2-.5-.3-1.1-.4-1.7-.4-.6 0-1.2.2-1.7.4zm3.7 1.7c.2.3.3.7.3 1.2s-.1.8-.3 1.2c-.2.3-.4.6-.8.8-.3.2-.7.3-1.1.3-.4 0-.8-.1-1.1-.3-.3-.2-.6-.5-.8-.8-.2-.4-.3-.7-.3-1.2s.1-.8.3-1.2c.2-.4.5-.6.8-.8.3-.2.7-.3 1.1-.3.4 0 .8.1 1.1.3.3.2.6.5.8.8zM88.7 33.7h3.7v2.8h1.2V30h-1.2v2.7h-3.7V30h-1.2v6.5h1.2zM96 31.6c.3-.2.6-.4.9-.5.4-.1.7-.2 1.1-.2.6 0 1 .1 1.3.4.3.3.4.7.4 1.2v.2h-1.9c-.9 0-1.6.2-2 .5-.4.3-.6.8-.6 1.4 0 .6.2 1 .6 1.4.4.4 1 .5 1.7.5.5 0 .9-.1 1.3-.2.4-.2.6-.4.8-.7v.9h1.1v-3.9c0-.9-.2-1.5-.7-2-.5-.4-1.2-.7-2.1-.7-.5 0-1 .1-1.5.2s-.9.3-1.2.6l.8.9zm3.8 2.9c-.1.4-.4.7-.7.9-.3.2-.7.3-1.2.3s-.8-.1-1.1-.3c-.3-.2-.4-.4-.4-.8 0-.7.5-1 1.5-1h1.8v.9zM220.4 36.5V31h2.4v-1h-5.9v1h2.4v5.5zM187.3 54.3l.6-1.7c.1-.2.1-.4.2-.5v-.4c0-.2-.1-.4-.2-.6-.1-.2-.3-.2-.6-.2-.2 0-.4.1-.6.2-.2.2-.2.4-.2.6 0 .2 0 .3.1.5.1.1.2.2.4.3l-.5 1.8h.8zM176.5 84.1c.5.3 1.1.4 1.7.4.6 0 1.2-.1 1.7-.4.5-.3.9-.7 1.2-1.2.3-.5.4-1.1.4-1.7s-.1-1.2-.4-1.7c-.3-.5-.7-.9-1.2-1.2-.5-.3-1.1-.4-1.7-.4-.6 0-1.2.1-1.7.4-.5.3-.9.7-1.2 1.2-.3.5-.4 1.1-.4 1.7s.1 1.2.4 1.7c.2.5.6.9 1.2 1.2zm-.2-4.1c.2-.4.5-.6.8-.8.3-.2.7-.3 1.1-.3.4 0 .8.1 1.1.3.3.2.6.5.8.8.2.3.3.7.3 1.2s-.1.8-.3 1.2c-.2.3-.4.6-.8.8-.3.2-.7.3-1.1.3-.4 0-.8-.1-1.1-.3-.3-.2-.6-.5-.8-.8-.2-.4-.3-.7-.3-1.2s.1-.8.3-1.2zM184.9 51.9c.5-.4.7-.9.7-1.6 0-.7-.2-1.2-.6-1.6-.4-.4-1.1-.6-1.9-.6h-1.8V46h-1.2v6.5h2.8c.9 0 1.6-.2 2-.6zm-3.6-.3V49h1.5c.5 0 .9.1 1.2.3.3.2.4.5.4.9s-.1.8-.4 1c-.3.2-.7.3-1.2.3l-1.5.1zM184 65.7h3.7v2.8h1.2V62h-1.2v2.7H184V62h-1.2v6.5h1.2zM43.1 49.7h3.7v2.8H48V46h-1.2v2.7h-3.7V46h-1.2v6.5h1.2zM27.3 30h-1.2v6.5h1.1l3.9-4.8v4.8h1.2V30h-1.1l-3.9 4.7zM202.8 80.7h-3.7V78H198v6.5h1.1v-2.8h3.7v2.8h1.2V78h-1.2zM170.7 77.9c-.9 0-1.7.2-2.5.6l.3.9c.7-.3 1.4-.5 2-.5.5 0 .9.1 1.2.2.3.2.5.4.5.7 0 .3-.1.5-.4.6-.3.2-.6.2-1 .2h-1.1v.8h1.2c.5 0 .9.1 1.1.2.3.2.4.4.4.7 0 .3-.2.6-.5.8-.3.2-.8.3-1.3.3-.4 0-.8-.1-1.2-.2-.4-.1-.8-.3-1.1-.5l-.4.9 1.2.6c.5.1.9.2 1.4.2.6 0 1.1-.1 1.5-.2.5-.2.8-.4 1.1-.7.3-.3.4-.6.4-1s-.1-.7-.4-.9c-.2-.3-.6-.4-1-.6.4-.1.6-.3.9-.6.2-.3.3-.5.3-.9 0-.3-.1-.6-.4-.9-.2-.3-.6-.5-1-.6-.2 0-.7-.1-1.2-.1zM148.6 76.6l2.7-.6-.2-1.1-3 .7c-1.1.2-2 .7-2.5 1.5-.5.7-.8 1.8-.8 3.1 0 1.4.3 2.4.9 3.2.6.7 1.5 1.1 2.6 1.1.7 0 1.2-.1 1.7-.4.5-.3.9-.6 1.2-1.1.3-.5.4-1 .4-1.7 0-.6-.1-1.2-.4-1.6-.3-.5-.6-.9-1.1-1.1-.5-.3-1-.4-1.6-.4-.5 0-1 .1-1.5.3-.4.2-.8.6-1.1 1 .1-.8.3-1.5.7-1.9.5-.5 1.1-.8 2-1zm-1.8 3.2c.4-.4.9-.6 1.6-.6s1.1.2 1.5.6c.4.4.6.9.6 1.6 0 .4-.1.8-.3 1.1-.2.3-.4.6-.8.8-.3.2-.7.3-1.1.3-.4 0-.8-.1-1.1-.3-.3-.2-.6-.4-.8-.8-.2-.3-.3-.7-.3-1.1.1-.7.3-1.2.7-1.6zM47.1 31.7v4.8h1.2V30h-1.1l-3.9 4.7V30h-1.2v6.5h1.1zM159.2 47.5c-.3.5-.4 1.1-.4 1.7s.1 1.2.4 1.7c.3.5.7.9 1.2 1.2.5.3 1.1.4 1.7.4.6 0 1.2-.1 1.7-.4.5-.3.9-.7 1.2-1.2.3-.5.4-1.1.4-1.7s-.1-1.2-.4-1.7c-.3-.5-.7-.9-1.2-1.2-.5-.3-1.1-.4-1.7-.4-.6 0-1.2.1-1.7.4-.5.3-.9.7-1.2 1.2zm1.8-.3c.3-.2.7-.3 1.1-.3.4 0 .8.1 1.1.3.3.2.6.5.8.8.2.3.3.7.3 1.2s-.1.8-.3 1.2c-.2.3-.4.6-.8.8-.3.2-.7.3-1.1.3-.4 0-.8-.1-1.1-.3-.3-.2-.6-.5-.8-.8-.2-.4-.3-.7-.3-1.2s.1-.8.3-1.2c.2-.3.5-.6.8-.8zM95.4 78v8.9h1.2v-3.4c.3.3.6.6 1 .8.4.2.8.3 1.3.3.6 0 1.2-.1 1.7-.4.5-.3.9-.7 1.2-1.2.3-.5.4-1.1.4-1.7s-.1-1.2-.4-1.7c-.3-.5-.7-.9-1.2-1.2-.5-.3-1.1-.4-1.7-.4-.5 0-.9.1-1.3.3-.4.2-.7.4-1 .8v-1h-1.2zm1.5 2c.2-.3.5-.6.8-.8.3-.2.7-.3 1.1-.3.4 0 .8.1 1.1.3.3.2.6.5.8.8.2.3.3.7.3 1.2s-.1.8-.3 1.2c-.2.3-.4.6-.8.8-.3.2-.7.3-1.1.3-.4 0-.8-.1-1.1-.3-.3-.2-.6-.5-.8-.8-.2-.4-.3-.7-.3-1.2s.1-.8.3-1.2zM155.9 48.7h-3.7V46H151v6.5h1.2v-2.8h3.7v2.8h1.2V46h-1.2zM156.7 64.2H155V62h-1.2v6.5h2.7c.9 0 1.5-.2 2-.6.5-.4.7-.9.7-1.6 0-.7-.2-1.2-.6-1.6-.5-.3-1.1-.5-1.9-.5zm.9 3.1c-.3.2-.7.3-1.2.3h-1.5V65h1.5c.5 0 .9.1 1.2.3.3.2.4.5.4.9 0 .5-.1.8-.4 1.1zM115.7 83.7l2.4-4v4.8h1.1V78h-1.1l-2.6 4.4-2.6-4.4h-1.2v6.5h1.1v-4.8l2.4 4zM43.1 68.1c.5.3 1.1.4 1.8.4.5 0 1-.1 1.5-.3.4-.2.8-.4 1.1-.8l-.6-.8c-.5.5-1.1.8-1.9.8-.6 0-1.2-.2-1.6-.5-.4-.4-.7-.8-.7-1.4H48v-.4c0-.7-.1-1.2-.4-1.7-.3-.5-.6-.9-1.1-1.2-.5-.3-1-.4-1.7-.4s-1.2.1-1.7.4c-.5.3-.9.7-1.2 1.2-.3.5-.4 1.1-.4 1.7 0 .6.1 1.2.4 1.7.3.6.7 1 1.2 1.3zm.2-4.7c.4-.3.9-.5 1.4-.5.6 0 1 .2 1.4.5.4.3.6.8.7 1.3h-4.2c.1-.5.3-.9.7-1.3zM106.6 84.5c.6 0 1.2-.1 1.7-.4.5-.3.9-.7 1.2-1.2.3-.5.4-1.1.4-1.7s-.1-1.2-.4-1.7c-.3-.5-.7-.9-1.2-1.2-.5-.3-1.1-.4-1.7-.4-.6 0-1.2.1-1.7.4-.5.3-.9.7-1.2 1.2-.3.5-.4 1.1-.4 1.7s.1 1.2.4 1.7c.3.5.7.9 1.2 1.2.5.3 1.1.4 1.7.4zm-2.1-3.3c0-.4.1-.8.3-1.2.2-.4.5-.6.8-.8.3-.2.7-.3 1.1-.3.4 0 .8.1 1.1.3.3.2.6.5.8.8.2.3.3.7.3 1.2s-.1.8-.3 1.2c-.2.3-.4.6-.8.8-.3.2-.7.3-1.1.3-.4 0-.8-.1-1.1-.3-.3-.2-.6-.5-.8-.8-.3-.3-.3-.7-.3-1.2zM68.5 78v6.5h2.8c.9 0 1.5-.2 2-.6.5-.4.7-.9.7-1.6 0-.7-.2-1.2-.6-1.6-.4-.4-1.1-.6-1.9-.6h-1.8V78h-1.2zm2.7 3c.5 0 .9.1 1.2.3.3.2.4.5.4.9s-.1.8-.4 1c-.3.2-.7.3-1.2.3h-1.5V81h1.5zM168.8 47.2c.3-.2.7-.3 1.1-.3.4 0 .7.1 1 .2.3.2.6.4.8.7l.9-.6c-.3-.4-.6-.8-1.1-1-.5-.2-1-.4-1.6-.4-.7 0-1.3.1-1.8.4-.5.3-.9.7-1.2 1.2-.3.5-.4 1.1-.4 1.7s.1 1.2.4 1.7c.3.5.7.9 1.2 1.2.5.3 1.1.4 1.8.4.6 0 1.1-.1 1.6-.4.5-.2.8-.6 1.1-1l-.9-.6c-.2.3-.5.5-.8.7-.3.2-.6.2-1 .2s-.8-.1-1.1-.3c-.3-.2-.6-.5-.8-.8-.2-.4-.3-.8-.3-1.2 0-.4.1-.8.3-1.2.2-.1.5-.4.8-.6zM139.5 62.3c-.5.3-.9.7-1.2 1.2-.3.5-.4 1.1-.4 1.7s.1 1.2.4 1.7c.3.5.7.9 1.2 1.2.5.3 1.1.4 1.7.4.6 0 1.2-.1 1.7-.4.5-.3.9-.7 1.2-1.2.3-.5.4-1.1.4-1.7s-.1-1.2-.4-1.7c-.3-.5-.7-.9-1.2-1.2-.5-.3-1.1-.4-1.7-.4-.6 0-1.2.2-1.7.4zm3.6 1.7c.2.3.3.7.3 1.2s-.1.8-.3 1.2c-.2.3-.4.6-.8.8-.3.2-.7.3-1.1.3-.4 0-.8-.1-1.1-.3-.3-.2-.6-.5-.8-.8-.2-.4-.3-.7-.3-1.2s.1-.8.3-1.2c.2-.4.5-.6.8-.8.3-.2.7-.3 1.1-.3.4 0 .8.1 1.1.3.3.2.6.5.8.8zM201.8 61.9c-.5 0-1 .1-1.5.2s-.9.3-1.2.6l.5.9c.3-.2.6-.4.9-.5.4-.1.7-.2 1.1-.2.6 0 1 .1 1.3.4.3.3.4.7.4 1.2v.2h-1.9c-.9 0-1.6.2-2 .5-.4.3-.6.8-.6 1.4s.2 1 .6 1.4c.4.4 1 .5 1.7.5.5 0 .9-.1 1.3-.2.4-.2.6-.4.8-.7v.9h1.1v-3.9c0-.9-.2-1.5-.7-2-.2-.5-.9-.7-1.8-.7zm1.6 4.6c-.1.4-.4.7-.7.9-.3.2-.7.3-1.2.3-.4 0-.8-.1-1.1-.3-.3-.2-.4-.4-.4-.8 0-.7.5-1 1.5-1h1.8v.9zM57.6 30l2.9 6.5-.2.5c-.2.4-.3.6-.5.8-.2.2-.4.2-.7.2-.4 0-.8-.2-1.2-.5l-.5.9c.2.2.4.3.7.4.3.1.6.2.9.2.5 0 1-.1 1.3-.4.4-.3.7-.7 1-1.4l3.1-7.1h-1.1l-2.2 5.2-2.3-5.3h-1.2zM209 34.9c.3-.5.4-1.1.4-1.7s-.1-1.2-.4-1.7c-.3-.5-.7-.9-1.2-1.2-.5-.3-1.1-.4-1.7-.4-.6 0-1.2.1-1.7.4-.5.3-.9.7-1.2 1.2-.3.5-.4 1.1-.4 1.7s.1 1.2.4 1.7c.3.5.7.9 1.2 1.2.5.3 1.1.4 1.7.4.6 0 1.2-.1 1.7-.4.5-.3.9-.7 1.2-1.2zm-1.9.3c-.3.2-.7.3-1.1.3-.4 0-.8-.1-1.1-.3-.3-.2-.6-.5-.8-.8-.2-.4-.3-.7-.3-1.2s.1-.8.3-1.2c.2-.4.5-.6.8-.8.3-.2.7-.3 1.1-.3.4 0 .8.1 1.1.3.3.2.6.5.8.8.2.3.3.7.3 1.2s-.1.8-.3 1.2c-.2.4-.4.6-.8.8zM166.8 84.5v-3.9c0-.9-.2-1.5-.7-2-.5-.4-1.2-.7-2.1-.7-.5 0-1 .1-1.5.2s-.9.3-1.2.6l.5.9c.3-.2.6-.4.9-.5.4-.1.7-.2 1.1-.2.6 0 1 .1 1.3.4.3.3.4.7.4 1.2v.2h-1.9c-.9 0-1.6.2-2 .5-.4.3-.6.8-.6 1.4s.2 1 .6 1.4c.4.4 1 .5 1.7.5.5 0 .9-.1 1.3-.2.4-.2.6-.4.8-.7v.9h1.4zm-1.2-2c-.1.4-.4.7-.7.9-.3.2-.7.3-1.2.3-.4 0-.8-.1-1.1-.3-.3-.2-.4-.4-.4-.8 0-.7.5-1 1.5-1h1.8v.9zM66.3 30.1c-.5.1-.9.3-1.2.6l.5.9c.3-.2.6-.4.9-.5.4-.1.7-.2 1.1-.2.6 0 1 .1 1.3.4.3.3.4.7.4 1.2v.2h-1.9c-.9 0-1.6.2-2 .5-.4.3-.6.8-.6 1.4 0 .6.2 1 .6 1.4.4.4 1 .5 1.7.5.5 0 .9-.1 1.3-.2.4-.2.6-.4.8-.7v.9h1.1v-3.9c0-.9-.2-1.5-.7-2-.5-.4-1.2-.7-2.1-.7-.2 0-.7.1-1.2.2zm3.1 4.4c-.1.4-.4.7-.7.9-.3.2-.7.3-1.2.3s-.8-.1-1.1-.3c-.3-.2-.4-.4-.4-.8 0-.7.5-1 1.5-1h1.8v.9zM171.7 67.4h-2.9V62h-1.1v5.4h-2.9V62h-1.2v6.5h9.3V62h-1.2zM88.3 79h2.4v5.5h1.2V79h2.3v-1h-5.9zM150.7 65.1c.3-.1.6-.3.8-.6.2-.3.3-.6.3-.9 0-.5-.2-.9-.6-1.2-.4-.3-1-.4-1.8-.4h-3v6.5h3.1c.8 0 1.5-.2 1.9-.5.4-.3.6-.7.6-1.3-.1-.9-.5-1.4-1.3-1.6zm-3.3-2.2h1.8c.9 0 1.4.3 1.4.9 0 .3-.1.5-.4.7-.2.2-.6.2-1 .2h-1.8v-1.8zm3 4.4c-.2.2-.6.2-1.1.2h-1.9v-1.9h2c.5 0 .8.1 1.1.2.2.2.3.4.3.7 0 .4-.2.7-.4.8zM49.5 38h1.1v-1.5H56V38h1.1v-2.5h-1V30h-5l-.1 2.2c-.1 1-.2 1.8-.3 2.4-.2.6-.4.9-.9.9h-.3V38zm2.4-3.7c.1-.5.2-1.2.2-2l.1-1.2H55v4.4h-3.6c.2-.3.4-.7.5-1.2zM163.9 117.7v-7.8h-3.7c-1.2 0-2.1.2-2.7.8-.7.5-1 1.2-1 2.1 0 .6.1 1.1.4 1.5.3.4.7.7 1.2.9l-1.8 2.5h2.4l1.5-2.2h1.7v2.2h2zm-3.7-3.7c-.5 0-.8-.1-1.1-.3-.2-.2-.3-.5-.3-.9s.1-.7.4-.8c.3-.2.6-.3 1.1-.3h1.7v2.2h-1.8zM90.4 113.1v4.6h2.2v-7.8h-2l-3.8 4.7v-4.7h-2.3v7.8h2.1zM80.8 117.3c.6-.3 1.1-.8 1.4-1.4.3-.6.5-1.3.5-2.1s-.2-1.5-.5-2.1c-.3-.6-.8-1.1-1.4-1.4-.6-.3-1.2-.5-2-.5-1.1 0-1.9.3-2.4 1v-.9h-2.2v10.6h2.3v-3.6c.6.6 1.3.9 2.3.9.8 0 1.4-.1 2-.5zm-3.8-1.9c-.4-.4-.5-.9-.5-1.6 0-.7.2-1.2.5-1.6.4-.4.9-.6 1.4-.6s1 .2 1.4.6c.4.4.6.9.6 1.6 0 .7-.2 1.2-.6 1.6-.4.4-.8.6-1.4.6s-1-.2-1.4-.6zM64.2 117.7h2.2v-5.9h3.3v5.9h2.2v-7.8h-7.7zM136.3 117.7h2.2v-2.9h3.4v2.9h2.2v-7.8h-2.2v3.1h-3.4v-3.1h-2.2zM166.1 110.2c-.3.2-.4.6-.4 1s.1.7.4 1c.3.3.6.4 1 .4s.7-.1 1-.4c.3-.3.4-.6.4-1s-.1-.7-.4-1c-.3-.3-.6-.4-1-.4s-.7.2-1 .4zM114.6 113.8c0-.8-.2-1.5-.5-2.1-.3-.6-.8-1.1-1.4-1.4-.6-.3-1.3-.5-2.1-.5s-1.5.2-2.1.5c-.6.3-1.1.8-1.5 1.4-.4.6-.5 1.3-.5 2.1s.2 1.5.5 2.1c.4.6.9 1.1 1.6 1.4.7.3 1.5.5 2.3.5 1.4 0 2.5-.4 3.2-1.3l-1.2-1.3c-.3.3-.6.5-.9.6-.3.1-.7.2-1.1.2-.6 0-1.1-.1-1.5-.4-.4-.3-.6-.7-.8-1.1h5.9c.1-.4.1-.6.1-.7zm-6-.7c.1-.5.3-.9.6-1.2s.8-.4 1.3-.4.9.2 1.3.4c.3.3.6.7.6 1.2h-3.8zM17.3 117.7h2.2v-7.8h-7.7v7.8H14v-5.9h3.3zM134.3 113.8c0-.8-.2-1.5-.5-2.1-.3-.6-.8-1.1-1.4-1.4-.6-.3-1.3-.5-2.1-.5s-1.5.2-2.1.5c-.6.3-1.1.8-1.5 1.4-.4.6-.5 1.3-.5 2.1s.2 1.5.5 2.1c.4.6.9 1.1 1.6 1.4.7.3 1.5.5 2.3.5 1.4 0 2.5-.4 3.2-1.3l-1.2-1.3c-.3.3-.6.5-.9.6-.3.1-.7.2-1.1.2-.6 0-1.1-.1-1.5-.4-.4-.3-.6-.7-.8-1.1h5.9c.1-.4.1-.6.1-.7zm-5.9-.7c.1-.5.3-.9.6-1.2.3-.3.8-.4 1.3-.4s.9.2 1.3.4c.3.3.6.7.6 1.2h-3.8zM104.6 117.7v-7.8h-2.1l-2.6 4.5-2.5-4.5H95v7.8h2V113l2.3 4h1l2.3-3.9v4.6zM168.5 116.4c0-.4-.1-.7-.4-1-.3-.3-.6-.4-1-.4s-.7.1-1 .4c-.3.3-.4.6-.4 1s.1.7.4 1 .6.4 1 .4.7-.1 1-.4c.3-.3.4-.6.4-1zM154.6 109.9h-2.1l-3.7 4.7v-4.7h-2.3v7.8h2.1l3.8-4.6v4.6h2.2zM3.3 108.1c-.8.4-1.5 1.1-2 1.9-.5.8-.7 1.7-.7 2.7 0 1 .2 1.9.7 2.7.5.8 1.1 1.4 2 1.9.8.4 1.8.7 2.8.7.9 0 1.7-.2 2.4-.5s1.3-.8 1.8-1.3l-1.5-1.4c-.7.8-1.5 1.2-2.5 1.2-.6 0-1.2-.1-1.7-.4-.5-.3-.9-.7-1.2-1.2-.3-.5-.4-1-.4-1.7 0-.6.1-1.2.4-1.7.3-.5.7-.9 1.2-1.1.5-.3 1.1-.4 1.7-.4 1 0 1.9.4 2.5 1.2l1.5-1.4c-.5-.6-1.1-1-1.8-1.3-.7-.3-1.5-.5-2.4-.5-1.1-.1-2 .1-2.8.6zM21.8 111.8c-.4.6-.5 1.3-.5 2.1s.2 1.5.5 2.1c.4.6.9 1.1 1.5 1.4.7.3 1.4.5 2.2.5s1.6-.2 2.2-.5c.6-.3 1.2-.8 1.5-1.4.4-.6.5-1.3.5-2.1s-.2-1.5-.5-2.1c-.4-.6-.9-1.1-1.5-1.4a5.09 5.09 0 0 0-4.4 0c-.6.3-1.1.7-1.5 1.4zm2.3.5c.4-.4.9-.6 1.4-.6s1 .2 1.4.6c.4.4.6.9.6 1.6 0 .7-.2 1.2-.6 1.6-.4.4-.8.6-1.4.6s-1.1-.2-1.4-.6c-.4-.4-.6-.9-.6-1.6.1-.7.3-1.3.6-1.6zM35.3 111.7c.8 0 1.3.4 1.7 1.1l1.7-.9c-.3-.6-.7-1.1-1.3-1.5-.6-.3-1.3-.5-2.1-.5s-1.6.2-2.2.5c-.7.3-1.2.8-1.5 1.4-.4.6-.5 1.3-.5 2.1s.2 1.5.5 2.1c.4.6.9 1.1 1.5 1.4.7.3 1.4.5 2.2.5.8 0 1.5-.2 2.1-.5.6-.3 1.1-.8 1.3-1.4l-1.7-1c-.4.7-1 1.1-1.7 1.1-.6 0-1.1-.2-1.5-.6-.4-.4-.6-.9-.6-1.6 0-.7.2-1.2.6-1.6.4-.4.9-.6 1.5-.6zM46.1 110.3a5.09 5.09 0 0 0-4.4 0c-.6.3-1.2.8-1.5 1.4-.4.6-.5 1.3-.5 2.1s.2 1.5.5 2.1c.4.6.9 1.1 1.5 1.4.7.3 1.4.5 2.2.5.8 0 1.6-.2 2.2-.5.6-.3 1.2-.8 1.5-1.4.4-.6.5-1.3.5-2.1s-.2-1.5-.5-2.1c-.4-.6-.9-1-1.5-1.4zm-.8 5.1c-.4.4-.8.6-1.4.6-.6 0-1.1-.2-1.4-.6-.4-.4-.6-.9-.6-1.6 0-.7.2-1.2.6-1.6.4-.4.9-.6 1.4-.6.6 0 1 .2 1.4.6.4.4.6.9.6 1.6 0 .7-.2 1.2-.6 1.6zM118.8 114.8h3.3v2.9h2.3v-7.8h-2.3v3.1h-3.3v-3.1h-2.3v7.8h2.3zM58.1 114.1c0-.7-.2-1.4-.5-1.9s-.7-1-1.3-1.3c-.6-.3-1.2-.5-2-.5-.6 0-1.1.1-1.5.3-.5.2-.9.5-1.2.8.1-.7.3-1.3.8-1.7.4-.4 1.1-.7 2-.9l3.3-.7-.3-1.9-3.7.7c-1.4.3-2.5.9-3.1 1.8-.7.9-1 2.2-1 3.7 0 1.7.4 3 1.2 3.8.8.9 1.8 1.3 3.2 1.3.8 0 1.6-.2 2.2-.5.6-.3 1.1-.8 1.5-1.3.2-.3.4-1 .4-1.7zm-2.8 1.5c-.3.4-.8.6-1.4.6-.6 0-1-.2-1.4-.5-.4-.4-.5-.9-.5-1.4 0-.6.2-1.1.5-1.4.4-.3.8-.5 1.4-.5.6 0 1 .2 1.4.5.4.3.5.8.5 1.4 0 .4-.2.9-.5 1.3zM136.8 208.5h1.1V206h-1v-5.5h-5l-.1 2.2c-.1 1-.2 1.8-.3 2.4-.2.6-.4.9-.9.9h-.3v2.5h1.1V207h5.4v1.5zm-1.1-2.5h-3.6c.3-.2.5-.6.5-1.1.1-.5.2-1.2.2-2l.1-1.2h2.8v4.3zM141 221.2v-4.7h-1.2v6.5h1.1l4-4.7v4.7h1.1v-6.5h-1zM136.5 216.9c-.5-.3-1.1-.4-1.7-.4-.5 0-.9.1-1.3.3-.4.2-.7.4-1 .8v-1h-1.1v8.9h1.2V222c.3.3.6.6 1 .8.4.2.8.3 1.3.3.6 0 1.2-.1 1.7-.4.5-.3.9-.7 1.2-1.2.3-.5.4-1.1.4-1.7 0-.7-.1-1.2-.4-1.7-.4-.6-.8-.9-1.3-1.2zm.1 4.1c-.2.3-.4.6-.8.8-.3.2-.7.3-1.1.3-.4 0-.8-.1-1.1-.3-.3-.2-.6-.5-.8-.8-.2-.4-.3-.8-.3-1.2s.1-.8.3-1.2c.2-.3.5-.6.8-.8.3-.2.7-.3 1.1-.3.4 0 .8.1 1.1.3.3.2.6.5.8.8.2.3.3.7.3 1.2s-.1.8-.3 1.2zM144.4 202.3v4.7h1.2v-6.5h-1.1l-3.9 4.7v-4.7h-1.2v6.5h1.1zM148 190.8c.4.2.8.3 1.3.3.6 0 1.2-.1 1.7-.4.5-.3.9-.7 1.2-1.2.3-.5.4-1.1.4-1.7 0-.7-.1-1.2-.4-1.7-.3-.5-.7-.9-1.2-1.2-.5-.3-1.1-.4-1.7-.4-.5 0-.9.1-1.3.3-.4.2-.7.4-1 .8v-1h-1.1v8.9h1.2V190c.2.4.5.6.9.8zm-1-3c0-.4.1-.8.3-1.2.2-.3.5-.6.8-.8.3-.2.7-.3 1.1-.3.4 0 .8.1 1.1.3.3.2.6.5.8.8.2.3.3.7.3 1.2s-.1.8-.3 1.2c-.2.3-.4.6-.8.8-.3.2-.7.3-1.1.3-.4 0-.8-.1-1.1-.3-.3-.2-.6-.5-.8-.8-.2-.4-.3-.8-.3-1.2zM142.4 191h1.2v-6.5h-6v6.5h1.1v-5.5h3.7zM147.2 217.5h2.4v5.5h1.2v-5.5h2.4v-1h-6zM104.2 191v-6.5H103v2.8h-3.7v-2.8h-1.1v6.5h1.1v-2.7h3.7v2.7zM116 185.8c.3-.2.7-.3 1.1-.3.4 0 .7.1 1 .2.3.2.6.4.8.7l.9-.6c-.3-.4-.6-.8-1.1-1-.5-.2-1-.4-1.6-.4-.7 0-1.3.1-1.8.4-.5.3-.9.7-1.2 1.2-.3.5-.4 1.1-.4 1.7 0 .6.1 1.2.4 1.7.3.5.7.9 1.2 1.2.5.3 1.1.4 1.8.4.6 0 1.1-.1 1.6-.4.5-.2.8-.6 1.1-1l-.9-.6c-.2.3-.5.5-.8.7-.3.2-.6.2-1 .2s-.8-.1-1.1-.3c-.3-.2-.6-.5-.8-.8-.2-.3-.3-.8-.3-1.2 0-.4.1-.8.3-1.2.2-.2.4-.4.8-.6zM104.2 168.5h-1.1l-2.6 4.4-2.5-4.4h-1.2v6.5h1v-4.7l2.4 4h.5l2.5-4v4.7h1zM58.3 175v-6.5h-2.8c-.9 0-1.6.2-2.1.6-.5.4-.8.9-.8 1.7 0 .5.1.9.4 1.3.3.3.6.6 1.1.7l-1.6 2.2h1.3l1.4-2.1h2v2.1h1.1zm-2.8-2.9c-.5 0-1-.1-1.2-.3-.3-.2-.4-.5-.4-1 0-.9.6-1.3 1.7-1.3h1.7v2.6h-1.8zM196.1 154.7h-1.8v-2.2h-1.2v6.5h2.8c.9 0 1.5-.2 2-.5.5-.4.7-.9.7-1.6 0-.7-.2-1.2-.6-1.6-.5-.4-1.1-.6-1.9-.6zm.9 3.1c-.3.2-.7.3-1.2.3h-1.5v-2.5h1.5c.5 0 1 .1 1.2.3.3.2.4.5.4.9 0 .5-.1.8-.4 1zM34 192.5V190h-1v-5.5h-5l-.1 2.2c-.1 1-.2 1.8-.3 2.4-.2.6-.4.9-.9.9h-.3v2.5h1.1V191h5.4v1.5H34zm-2.2-2.5h-3.6c.3-.2.5-.6.6-1.1.1-.5.2-1.2.2-2l.1-1.2h2.8v4.3zM48.8 191v-6.5h-5l-.1 2.4c0 .7-.1 1.3-.1 1.7 0 .4-.2.7-.3 1-.2.3-.4.4-.7.4h-.3l-.1 1c.3.1.5.1.7.1.5 0 .8-.2 1.1-.5.3-.4.4-.8.6-1.4.1-.6.2-1.3.2-2.2l.1-1.4h2.8v5.5h1.1zM123.7 191v-5.5h2.3v-1h-5.9v1h2.4v5.5zM166.5 182.1c-.2 0-.3.1-.4.2-.1.1-.2.3-.2.5s.1.3.2.5c.1.1.3.2.4.2.2 0 .3-.1.4-.2.1-.1.2-.3.2-.5s-.1-.3-.2-.5c-.1-.1-.2-.2-.4-.2zM131.5 175v-6.5h-1.1l-4 4.7v-4.7h-1.1v6.5h1l4-4.7v4.7zM175.5 160.5V158h-1v-5.5h-5l-.1 2.2c-.1 1-.2 1.8-.3 2.4-.2.6-.4.9-.9.9h-.3v2.5h1.1V159h5.4v1.5h1.1zm-2.1-2.5h-3.6c.3-.2.5-.6.5-1.1.1-.5.2-1.2.2-2l.1-1.2h2.8v4.3zM160.5 191v-6.5h-1.1l-4 4.7v-4.7h-1.1v6.5h1l4-4.7v4.7zM144 176.4V174h-1v-5.5h-1.2v5.5H139v-5.5h-1.2v5.5h-2.9v-5.5h-1.1v6.5h9.1v1.4zM151.5 175v-6.5h-1.1l-4 4.7v-4.7h-1.1v6.5h1l4-4.7v4.7zM146.2 159v-3.9c0-.9-.2-1.5-.7-2-.5-.4-1.2-.7-2.1-.7-.5 0-1 .1-1.5.2s-.9.3-1.2.6l.5.9c.3-.2.6-.4.9-.5.4-.1.7-.2 1.1-.2.6 0 1 .1 1.3.4.3.3.4.7.4 1.2v.2H143c-.9 0-1.6.2-2 .5-.4.3-.6.8-.6 1.4 0 .6.2 1 .6 1.4.4.4 1 .5 1.7.5.5 0 .9-.1 1.3-.2.4-.2.6-.4.8-.7v.9h1.4zm-1.2-2c-.1.4-.4.7-.7.9-.3.2-.7.3-1.2.3-.4 0-.8-.1-1.1-.3-.3-.2-.4-.4-.4-.8 0-.7.5-1 1.5-1h1.8v.9zM174.2 188.9l-2.6-4.4h-1.2v6.5h1.1v-4.7l2.4 4h.5l2.4-4v4.7h1.1v-6.5h-1.1zM167.1 201.8c.3-.2.7-.3 1.1-.3.4 0 .7.1 1 .2.3.2.6.4.8.7l.9-.6c-.3-.4-.6-.8-1.1-1-.5-.2-1-.4-1.6-.4-.7 0-1.3.1-1.8.4-.5.3-.9.7-1.2 1.2-.3.5-.4 1.1-.4 1.7 0 .6.1 1.2.4 1.7.3.5.7.9 1.2 1.2.5.3 1.1.4 1.8.4.6 0 1.1-.1 1.6-.4.5-.2.8-.6 1.1-1l-.9-.6c-.2.3-.5.5-.8.7-.3.2-.6.2-1 .2s-.8-.1-1.1-.3c-.3-.2-.6-.5-.8-.8-.2-.3-.3-.8-.3-1.2 0-.4.1-.8.3-1.2.2-.2.5-.4.8-.6zM167.1 190.8c.4-.2.8-.4 1.1-.8l-.6-.8c-.5.5-1.1.8-1.9.8-.6 0-1.2-.2-1.6-.5-.4-.4-.7-.8-.7-1.4h5.3v-.4c0-.7-.1-1.2-.4-1.7-.3-.5-.6-.9-1.1-1.2-.5-.3-1-.4-1.7-.4-.6 0-1.2.1-1.7.4-.5.3-.9.7-1.2 1.2-.3.5-.4 1.1-.4 1.7 0 .6.1 1.2.4 1.7.3.5.7.9 1.2 1.2.5.3 1.1.4 1.8.4.6.1 1.1 0 1.5-.2zM164 186c.4-.3.9-.5 1.4-.5.6 0 1 .2 1.4.5.4.3.6.8.7 1.3h-4.2c.1-.5.3-1 .7-1.3zM171.3 201.5h2.4v5.5h1.1v-5.5h2.4v-1h-5.9zM155.4 207v-6.5h-1.1l-2.7 4.4-2.5-4.4h-1.2v6.5h1.1v-4.7l2.4 4h.5l2.4-4v4.7zM162.1 200.9c-.5-.3-1.1-.4-1.7-.4-.6 0-1.2.1-1.7.4-.5.3-.9.7-1.2 1.2-.3.5-.4 1.1-.4 1.7 0 .6.1 1.2.4 1.7.3.5.7.9 1.2 1.2.5.3 1.1.4 1.7.4.6 0 1.2-.1 1.7-.4.5-.3.9-.7 1.2-1.2.3-.5.4-1.1.4-1.7 0-.6-.1-1.2-.4-1.7-.3-.5-.6-.9-1.2-1.2zm.2 4.1c-.2.3-.4.6-.8.8-.3.2-.7.3-1.1.3-.4 0-.8-.1-1.1-.3-.3-.2-.6-.5-.8-.8-.2-.4-.3-.8-.3-1.2s.1-.8.3-1.2c.2-.4.5-.6.8-.8.3-.2.7-.3 1.1-.3.4 0 .8.1 1.1.3.3.2.6.5.8.8.2.3.3.7.3 1.2s-.1.8-.3 1.2zM28 201.8c.3-.2.7-.3 1.1-.3.4 0 .7.1 1 .2.3.2.6.4.8.7l.9-.6c-.3-.4-.6-.8-1.1-1-.5-.2-1-.4-1.6-.4-.7 0-1.3.1-1.8.4-.5.3-.9.7-1.2 1.2-.3.5-.4 1.1-.4 1.7 0 .6.1 1.2.4 1.7.3.5.7.9 1.2 1.2.5.3 1.1.4 1.8.4.6 0 1.1-.1 1.6-.4.5-.2.8-.6 1.1-1l-.9-.6c-.2.3-.5.5-.8.7-.3.2-.6.2-1 .2s-.8-.1-1.1-.3c-.3-.2-.6-.5-.8-.8-.2-.3-.3-.8-.3-1.2 0-.4.1-.8.3-1.2.2-.2.5-.4.8-.6zM161.6 221.4c-.2 0-.4.1-.6.2-.2.2-.2.3-.2.6 0 .2.1.4.2.6.2.2.4.2.6.2.2 0 .4-.1.6-.2.2-.2.2-.4.2-.6 0-.2-.1-.4-.2-.6-.2-.1-.4-.2-.6-.2zM157.3 218.7h-1.8v-2.2h-1.2v6.5h2.8c.9 0 1.5-.2 2-.5.5-.4.7-.9.7-1.6 0-.7-.2-1.2-.6-1.6-.4-.4-1-.6-1.9-.6zm1 3.1c-.3.2-.7.3-1.2.3h-1.5v-2.5h1.5c.5 0 1 .1 1.2.3.3.2.4.5.4.9 0 .5-.2.8-.4 1zM27.4 214.3c-.1.1-.2.3-.2.5s.1.3.2.5c.1.1.3.2.4.2.2 0 .3-.1.4-.2.1-.1.2-.3.2-.5s-.1-.3-.2-.5c-.1-.1-.3-.2-.4-.2-.1 0-.3.1-.4.2zM29.7 214.3c-.1.1-.2.3-.2.5s.1.3.2.5c.1.1.3.2.4.2.2 0 .3-.1.4-.2.1-.1.2-.3.2-.5s-.1-.3-.2-.5c-.1-.1-.3-.2-.4-.2-.2 0-.3.1-.4.2zM190.3 186.2h5.5v1h-5.5zM179.6 205.2v-4.7h-1.2v6.5h1.1l3.9-4.7v4.7h1.2v-6.5h-1.1zM181.4 158.8c.4-.2.8-.4 1.1-.8l-.6-.8c-.5.5-1.1.8-1.9.8-.6 0-1.2-.2-1.6-.5-.4-.4-.7-.8-.7-1.4h5.3v-.4c0-.7-.1-1.2-.4-1.7-.3-.5-.6-.9-1.1-1.2-.5-.3-1-.4-1.7-.4-.6 0-1.2.1-1.7.4-.5.3-.9.7-1.2 1.2-.3.5-.4 1.1-.4 1.7 0 .6.1 1.2.4 1.7.3.5.7.9 1.2 1.2.5.3 1.1.4 1.8.4.6.1 1.1 0 1.5-.2zm-3.1-4.8c.4-.3.9-.5 1.4-.5.6 0 1 .2 1.4.5.4.3.6.8.7 1.3h-4.2c.1-.5.3-1 .7-1.3zM190.8 159v-6.5h-1.2v2.8h-3.7v-2.8h-1.2v6.5h1.2v-2.7h3.7v2.7zM182.5 184.5c-.5 0-1 .1-1.5.2s-.9.3-1.2.6l.5.9c.3-.2.6-.4.9-.5.4-.1.7-.2 1.1-.2.6 0 1 .1 1.3.4.3.3.4.7.4 1.2v.2h-1.9c-.9 0-1.6.2-2 .5-.4.3-.6.8-.6 1.4 0 .6.2 1 .6 1.4.4.4 1 .5 1.7.5.5 0 .9-.1 1.3-.2.4-.2.6-.4.8-.7v.9h1.1v-3.9c0-.9-.2-1.5-.7-2-.2-.5-.9-.7-1.8-.7zm1.6 4.5c-.1.4-.4.7-.7.9-.3.2-.7.3-1.2.3-.4 0-.8-.1-1.1-.3-.3-.2-.4-.4-.4-.8 0-.7.5-1 1.5-1h1.8v.9zM104.2 207.1c.6 0 1.2-.1 1.7-.4.5-.3.9-.7 1.2-1.2.3-.5.4-1.1.4-1.7 0-.6-.1-1.2-.4-1.7-.3-.5-.7-.9-1.2-1.2-.5-.3-1.1-.4-1.7-.4-.6 0-1.2.1-1.7.4-.5.3-.9.7-1.2 1.2-.3.5-.4 1.1-.4 1.7 0 .6.1 1.2.4 1.7.3.5.7.9 1.2 1.2.4.2 1 .4 1.7.4zm-2.2-3.3c0-.4.1-.8.3-1.2.2-.4.5-.6.8-.8.3-.2.7-.3 1.1-.3.4 0 .8.1 1.1.3.3.2.6.5.8.8.2.3.3.7.3 1.2s-.1.8-.3 1.2c-.2.3-.4.6-.8.8-.3.2-.7.3-1.1.3-.4 0-.8-.1-1.1-.3-.3-.2-.6-.5-.8-.8-.2-.4-.3-.8-.3-1.2zM33.6 170c-.3-.5-.7-.9-1.2-1.2-.5-.3-1.1-.4-1.7-.4-.5 0-.9.1-1.3.3-.4.2-.7.4-1 .8v-1h-1.1v8.9h1.2V174c.3.3.6.6 1 .8.4.2.8.3 1.3.3.6 0 1.2-.1 1.7-.4.5-.3.9-.7 1.2-1.2.3-.5.4-1.1.4-1.7-.1-.7-.3-1.3-.5-1.8zm-1.1 3c-.2.3-.4.6-.8.8-.3.2-.7.3-1.1.3-.4 0-.8-.1-1.1-.3-.3-.2-.6-.5-.8-.8-.2-.4-.3-.8-.3-1.2s.1-.8.3-1.2c.2-.3.5-.6.8-.8.3-.2.7-.3 1.1-.3.4 0 .8.1 1.1.3.3.2.6.5.8.8.2.3.3.7.3 1.2s-.1.8-.3 1.2zM49.3 207.1c.2 0 .4-.1.6-.2.2-.2.2-.4.2-.6 0-.2-.1-.4-.2-.6-.2-.2-.3-.2-.6-.2s-.4.1-.6.2c-.2.2-.2.3-.2.6 0 .2.1.4.2.6.2.1.4.2.6.2zM42.5 152.5h-1.2v2.8h-3.7v-2.8h-1.2v6.5h1.2v-2.7h3.7v2.7h1.2zM34.9 158h-1v-5.5h-5l-.1 2.2c-.1 1-.2 1.8-.3 2.4-.2.6-.4.9-.9.9h-.3v2.5h1.1V159h5.4v1.5h1.1V158zm-2.2 0h-3.6c.3-.2.5-.6.6-1.1.1-.5.2-1.2.2-2l.1-1.2h2.8v4.3zM36.5 190.6c.5.3 1.1.4 1.7.4.6 0 1.2-.1 1.7-.4.5-.3.9-.7 1.2-1.2.3-.5.4-1.1.4-1.7 0-.6-.1-1.2-.4-1.7-.3-.5-.7-.9-1.2-1.2-.5-.3-1.1-.4-1.7-.4-.6 0-1.2.1-1.7.4-.5.3-.9.7-1.2 1.2-.3.5-.4 1.1-.4 1.7 0 .6.1 1.2.4 1.7.3.6.7 1 1.2 1.2zm-.1-4c.2-.4.5-.6.8-.8.3-.2.7-.3 1.1-.3s.8.1 1.1.3c.3.2.6.5.8.8.2.3.3.7.3 1.2s-.1.8-.3 1.2c-.2.3-.4.6-.8.8-.3.2-.7.3-1.1.3s-.8-.1-1.1-.3c-.3-.2-.6-.5-.8-.8-.2-.4-.3-.8-.3-1.2s.1-.9.3-1.2zM50.8 168.5h-1.1l-2.6 4.4-2.5-4.4h-1.2v6.5h1v-4.7l2.4 4h.6l2.4-4v4.7h1zM66.5 186.3v4.7h1.2v-6.5h-1.1l-3.9 4.7v-4.7h-1.2v6.5h1.1zM66.4 206c.3.3.6.6 1 .8.4.2.8.3 1.3.3.6 0 1.2-.1 1.7-.4.5-.3.9-.7 1.2-1.2.3-.5.4-1.1.4-1.7 0-.7-.1-1.2-.4-1.7-.3-.5-.7-.9-1.2-1.2-.5-.3-1.1-.4-1.7-.4-.5 0-.9.1-1.3.3-.4.2-.7.4-1 .8v-1h-1.1v8.9h1.2V206zm.2-3.4c.2-.3.5-.6.8-.8.3-.2.7-.3 1.1-.3.4 0 .8.1 1.1.3.3.2.6.5.8.8.2.3.3.7.3 1.2s-.1.8-.3 1.2c-.2.3-.4.6-.8.8-.3.2-.7.3-1.1.3-.4 0-.8-.1-1.1-.3-.3-.2-.6-.5-.8-.8-.2-.4-.3-.8-.3-1.2s.1-.9.3-1.2zM61.6 142.3l2.5-4v4.7h1v-6.5H64l-2.6 4.4-2.5-4.4h-1.2v6.5h1v-4.7l2.4 4zM58.8 152.5h-1.1l-3.9 4.7v-4.7h-1.2v6.5h1.1l3.9-4.7v4.7h1.2zM53.2 140.8c0-.7-.2-1.2-.6-1.6-.4-.4-1.1-.6-1.9-.6H49v-2.2h-1.2v6.5h2.7c.9 0 1.5-.2 2-.5s.7-.9.7-1.6zm-1.6 1c-.3.2-.7.3-1.2.3h-1.5v-2.5h1.5c.5 0 .9.1 1.2.3.3.2.4.5.4.9.1.5-.1.8-.4 1zM50.5 154.1c-.3-.5-.7-.9-1.2-1.2-.5-.3-1.1-.4-1.7-.4-.6 0-1.2.1-1.7.4-.5.3-.9.7-1.2 1.2-.3.5-.4 1.1-.4 1.7 0 .6.1 1.2.4 1.7.3.5.7.9 1.2 1.2.5.3 1.1.4 1.7.4.6 0 1.2-.1 1.7-.4.5-.3.9-.7 1.2-1.2.3-.5.4-1.1.4-1.7 0-.7-.2-1.2-.4-1.7zm-1.1 2.9c-.2.3-.4.6-.8.8-.3.2-.7.3-1.1.3s-.8-.1-1.1-.3c-.3-.2-.6-.5-.8-.8-.2-.4-.3-.8-.3-1.2s.1-.8.3-1.2c.2-.4.5-.6.8-.8.3-.2.7-.3 1.1-.3s.8.1 1.1.3c.3.2.6.5.8.8.2.3.3.7.3 1.2s-.1.8-.3 1.2zM1.1 223h1.2v-5.5H6v5.5h1.1v-6.5h-6zM1.3 191h1.2v-7.5h5v7.5h1.2v-8.6H1.3zM8.4 140.7c0-.6-.2-1-.5-1.4-.3-.4-.7-.6-1.3-.7.4-.2.7-.4 1-.7.2-.3.4-.7.4-1.2 0-.7-.3-1.3-.8-1.6-.5-.4-1.3-.6-2.2-.6H1.3v8.6h3.9c1 0 1.8-.2 2.4-.6.6-.5.8-1.1.8-1.8zm-5.9-5.3h2.4c.6 0 1 .1 1.4.4.3.2.5.6.5 1 0 .5-.2.8-.5 1-.3.2-.8.4-1.4.4H2.5v-2.8zm2.7 6.6H2.5v-2.9h2.7c.7 0 1.1.1 1.5.4.3.2.5.6.5 1.1 0 .9-.7 1.4-2 1.4zM7.1 152.5h-6v6.5h1.2v-5.5H6v5.5h1.1zM14.5 216.9c-.5-.3-1.1-.4-1.7-.4-.5 0-.9.1-1.3.3-.4.2-.7.4-1 .8v-1H9.4v8.9h1.2V222c.3.3.6.6 1 .8.4.2.8.3 1.3.3.6 0 1.2-.1 1.7-.4.5-.3.9-.7 1.2-1.2.3-.5.4-1.1.4-1.7 0-.7-.1-1.2-.4-1.7-.4-.6-.8-.9-1.3-1.2zm.1 4.1c-.2.3-.4.6-.8.8-.3.2-.7.3-1.1.3-.4 0-.8-.1-1.1-.3-.3-.2-.6-.5-.8-.8-.2-.4-.3-.8-.3-1.2s.1-.8.3-1.2c.2-.3.5-.6.8-.8.3-.2.7-.3 1.1-.3.4 0 .8.1 1.1.3.3.2.6.5.8.8.2.3.3.7.3 1.2s-.1.8-.3 1.2zM24.8 174.5c.4-.3.6-.8.6-1.3 0-.8-.4-1.4-1.3-1.6.3-.1.6-.3.8-.6.2-.3.3-.6.3-.9 0-.5-.2-.9-.6-1.2-.4-.3-1-.4-1.8-.4h-3v6.5h3.1c.8 0 1.5-.2 1.9-.5zm-3.9-5.1h1.8c.9 0 1.4.3 1.4.9 0 .3-.1.5-.4.7-.2.2-.6.2-1 .2h-1.8v-1.8zm0 4.7v-1.9h2c.5 0 .8.1 1.1.2.2.2.3.4.3.7 0 .3-.1.6-.4.7-.2.2-.6.2-1.1.2h-1.9zM26.2 157.5c.3-.5.4-1.1.4-1.7 0-.6-.1-1.2-.4-1.7-.3-.5-.7-.9-1.2-1.2-.5-.3-1.1-.4-1.7-.4-.6 0-1.2.1-1.7.4-.5.3-.9.7-1.2 1.2-.3.5-.4 1.1-.4 1.7 0 .6.1 1.2.4 1.7.3.5.7.9 1.2 1.2.5.3 1.1.4 1.7.4.6 0 1.2-.1 1.7-.4.5-.3.9-.7 1.2-1.2zm-1-.5c-.2.3-.4.6-.8.8-.3.2-.7.3-1.1.3s-.8-.1-1.1-.3c-.3-.2-.6-.5-.8-.8-.2-.4-.3-.8-.3-1.2s.1-.8.3-1.2c.2-.4.5-.6.8-.8.3-.2.7-.3 1.1-.3s.8.1 1.1.3c.3.2.6.5.8.8.2.3.3.7.3 1.2s-.1.8-.3 1.2zM18.1 142c.3.3.6.6 1 .8.4.2.8.3 1.3.3.6 0 1.2-.1 1.7-.4.5-.3.9-.7 1.2-1.2.3-.5.4-1.1.4-1.7 0-.7-.1-1.2-.4-1.7-.3-.5-.7-.9-1.2-1.2-.5-.3-1.1-.4-1.7-.4-.5 0-.9.1-1.3.3-.4.2-.7.4-1 .8v-1H17v8.9h1.2V142zm.3-3.4c.2-.3.5-.6.8-.8.3-.2.7-.3 1.1-.3.4 0 .8.1 1.1.3.3.2.6.5.8.8.2.3.3.7.3 1.2s-.1.8-.3 1.2c-.2.3-.4.6-.8.8-.3.2-.7.3-1.1.3-.4 0-.8-.1-1.1-.3-.3-.2-.6-.5-.8-.8-.2-.4-.3-.8-.3-1.2s.1-.9.3-1.2zM15.5 155.8c0-.6-.1-1.2-.4-1.7-.3-.5-.7-.9-1.2-1.2-.5-.3-1.1-.4-1.7-.4-.6 0-1.2.1-1.7.4-.5.3-.9.7-1.2 1.2-.3.5-.4 1.1-.4 1.7 0 .6.1 1.2.4 1.7.3.5.7.9 1.2 1.2.5.3 1.1.4 1.7.4.6 0 1.2-.1 1.7-.4.5-.3.9-.7 1.2-1.2.3-.5.4-1.1.4-1.7zm-1.4 1.2c-.2.3-.4.6-.8.8-.3.2-.7.3-1.1.3-.4 0-.8-.1-1.1-.3-.3-.2-.6-.5-.8-.8-.2-.4-.3-.8-.3-1.2s.1-.8.3-1.2c.2-.4.5-.6.8-.8.3-.2.7-.3 1.1-.3.4 0 .8.1 1.1.3.3.2.6.5.8.8.2.3.3.7.3 1.2s-.1.8-.3 1.2zM9.7 174.6c.5.3 1.1.4 1.7.4.6 0 1.2-.1 1.7-.4.5-.3.9-.7 1.2-1.2.3-.5.4-1.1.4-1.7 0-.6-.1-1.2-.4-1.7-.3-.5-.7-.9-1.2-1.2-.5-.3-1.1-.4-1.7-.4-.6 0-1.2.1-1.7.4-.5.3-.9.7-1.2 1.2-.3.5-.4 1.1-.4 1.7 0 .6.1 1.2.4 1.7.3.6.7 1 1.2 1.2zm-.2-4c.2-.4.5-.6.8-.8.3-.2.7-.3 1.1-.3s.8.1 1.1.3c.3.2.6.5.8.8.2.3.3.7.3 1.2s-.1.8-.3 1.2c-.2.3-.4.6-.8.8-.3.2-.7.3-1.1.3s-.8-.1-1.1-.3c-.3-.2-.6-.5-.8-.8-.2-.4-.3-.8-.3-1.2s.1-.9.3-1.2zM2 207h1.2v-8.6H.1v1.1H2zM107.5 190.6c.5.3 1.1.4 1.7.4.6 0 1.2-.1 1.7-.4.5-.3.9-.7 1.2-1.2.3-.5.4-1.1.4-1.7 0-.6-.1-1.2-.4-1.7-.3-.5-.7-.9-1.2-1.2-.5-.3-1.1-.4-1.7-.4-.6 0-1.2.1-1.7.4-.5.3-.9.7-1.2 1.2-.3.5-.4 1.1-.4 1.7 0 .6.1 1.2.4 1.7.3.6.7 1 1.2 1.2zm-.1-4c.2-.4.5-.6.8-.8.3-.2.7-.3 1.1-.3.4 0 .8.1 1.1.3.3.2.6.5.8.8.2.3.3.7.3 1.2s-.1.8-.3 1.2c-.2.3-.4.6-.8.8-.3.2-.7.3-1.1.3-.4 0-.8-.1-1.1-.3-.3-.2-.6-.5-.8-.8-.2-.4-.3-.8-.3-1.2s.1-.9.3-1.2zM115.1 158.7c.5.3 1.1.4 1.8.4.5 0 1-.1 1.5-.3.4-.2.8-.4 1.1-.8l-.6-.8c-.5.5-1.1.8-1.9.8-.6 0-1.2-.2-1.6-.5-.4-.4-.7-.8-.7-1.4h5.3v-.4c0-.7-.1-1.2-.4-1.7-.3-.5-.6-.9-1.1-1.2-.5-.3-1-.4-1.7-.4-.6 0-1.2.1-1.7.4-.5.3-.9.7-1.2 1.2-.3.5-.4 1.1-.4 1.7 0 .6.1 1.2.4 1.7.2.6.6 1 1.2 1.3zm.1-4.7c.4-.3.9-.5 1.4-.5.6 0 1 .2 1.4.5.4.3.6.8.7 1.3h-4.2c.1-.5.4-1 .7-1.3zM121.8 175h1.2v-6.5h-6v6.5h1.2v-5.5h3.6zM113.8 138.3l2.4 4h.5l2.4-4v4.7h1.1v-6.5h-1.1l-2.7 4.4-2.5-4.4h-1.2v6.5h1.1zM110.4 155.6l2.4-3.1h-1.3l-2.1 2.8h-1.3v-2.8h-1.2v6.5h1.2v-2.7h1.3l2.2 2.7h1.4zM132.1 137.5h2.4v-1h-5.9v1h2.3v5.5h1.2zM163.2 158.5c.4-.3.6-.8.6-1.3 0-.8-.4-1.4-1.3-1.6.3-.1.6-.3.8-.6.2-.3.3-.6.3-.9 0-.5-.2-.9-.6-1.2-.4-.3-1-.4-1.8-.4h-3v6.5h3.1c.8 0 1.5-.2 1.9-.5zm-3.9-5.1h1.8c.9 0 1.4.3 1.4.9 0 .3-.1.5-.4.7-.2.2-.6.2-1 .2h-1.8v-1.8zm0 4.7v-1.9h2c.5 0 .8.1 1.1.2.2.2.3.4.3.7 0 .3-.1.6-.4.7-.2.2-.6.2-1.1.2h-1.9zM164.3 183.4c.2 0 .3-.1.4-.2.1-.1.2-.3.2-.5s-.1-.3-.2-.5c-.1-.1-.3-.2-.4-.2-.2 0-.3.1-.4.2-.1.1-.2.3-.2.5s.1.3.2.5c0 .1.2.2.4.2zM6.2 174.5c.4-.3.6-.8.6-1.3 0-.8-.4-1.4-1.3-1.6.3-.1.6-.3.8-.6.2-.3.3-.6.3-.9 0-.5-.2-.9-.6-1.2-.4-.3-1-.4-1.8-.4h-3v6.5h3.1c.8 0 1.4-.2 1.9-.5zm-3.9-5.1H4c.9 0 1.4.3 1.4.9 0 .3-.1.5-.4.7-.2.2-.6.2-1 .2H2.3v-1.8zm0 4.7v-1.9h2c.5 0 .8.1 1.1.2.2.2.3.4.3.7 0 .3-.1.6-.4.7-.2.2-.6.2-1.1.2H2.3zM152.7 158.1c.3-.3.4-.6.4-1s-.1-.7-.4-.9c-.2-.3-.6-.4-1-.6.4-.1.6-.3.9-.6.2-.3.3-.5.3-.9 0-.3-.1-.6-.4-.9-.2-.3-.6-.5-1-.6-.4-.1-.9-.2-1.4-.2-.9 0-1.7.2-2.5.6l.3.9c.7-.3 1.4-.5 2-.5.5 0 .9.1 1.2.2.3.2.5.4.5.7 0 .3-.1.5-.4.6-.3.2-.6.2-1 .2h-1.1v.8h1.2c.5 0 .9.1 1.1.2.3.2.4.4.4.7 0 .3-.2.6-.5.8-.3.2-.8.3-1.3.3-.4 0-.8-.1-1.2-.2-.4-.1-.8-.3-1.1-.5l-.4.9c.4.2.8.4 1.2.5.5.1.9.2 1.4.2.6 0 1.1-.1 1.5-.2.7.1 1-.2 1.3-.5zM154 175.1c.2 0 .4-.1.6-.2.2-.2.2-.4.2-.6 0-.2-.1-.4-.2-.6-.2-.2-.3-.2-.6-.2-.2 0-.4.1-.6.2-.2.2-.2.3-.2.6 0 .2.1.4.2.6.2.1.4.2.6.2zM133.9 158c.3.3.6.6 1 .8.4.2.8.3 1.3.3.6 0 1.2-.1 1.7-.4.5-.3.9-.7 1.2-1.2.3-.5.4-1.1.4-1.7 0-.7-.1-1.2-.4-1.7-.3-.5-.7-.9-1.2-1.2-.5-.3-1.1-.4-1.7-.4-.5 0-.9.1-1.3.3-.4.2-.7.4-1 .8v-1h-1.1v8.9h1.2V158zm.3-3.4c.2-.3.5-.6.8-.8.3-.2.7-.3 1.1-.3.4 0 .8.1 1.1.3.3.2.6.5.8.8.2.3.3.7.3 1.2s-.1.8-.3 1.2c-.2.3-.4.6-.8.8-.3.2-.7.3-1.1.3-.4 0-.8-.1-1.1-.3-.3-.2-.6-.5-.8-.8-.2-.4-.3-.8-.3-1.2s.1-.9.3-1.2zM109.2 143h1.2v-6.5h-1l-4 4.7v-4.7h-1.2v6.5h1.1l3.9-4.7zM90.6 166.1c-.2 0-.3.1-.4.2-.1.1-.2.3-.2.5s.1.3.2.5c.1.1.3.2.4.2s.3-.1.4-.2c.1-.1.2-.3.2-.5s-.1-.3-.2-.5c-.1-.1-.2-.2-.4-.2zM86.4 158.6c.3-.4.4-.8.6-1.4.1-.6.2-1.3.2-2.2l.1-1.4H90v5.5h1.2v-6.5h-5l-.1 2.4c0 .7-.1 1.3-.1 1.7 0 .4-.2.7-.3 1-.2.3-.4.4-.7.4h-.3l-.1 1c.3.1.5.1.7.1.4-.1.8-.3 1.1-.6zM85.3 141.5c.3-.5.4-1.1.4-1.7 0-.7-.1-1.2-.4-1.7-.3-.5-.7-.9-1.2-1.2-.5-.3-1.1-.4-1.7-.4-.5 0-.9.1-1.3.3-.4.2-.7.4-1 .8v-1H79v8.9h1.2V142c.3.3.6.6 1 .8.4.2.8.3 1.3.3.6 0 1.2-.1 1.7-.4.4-.3.8-.7 1.1-1.2zm-1.9.3c-.3.2-.7.3-1.1.3-.4 0-.8-.1-1.1-.3-.3-.2-.6-.5-.8-.8-.2-.4-.3-.8-.3-1.2s.1-.8.3-1.2c.2-.3.5-.6.8-.8.3-.2.7-.3 1.1-.3.4 0 .8.1 1.1.3.3.2.6.5.8.8.2.3.3.7.3 1.2s-.1.8-.3 1.2c-.2.3-.4.6-.8.8zM82.4 158.7c.5-.3.9-.6 1.2-1.1.3-.5.4-1 .4-1.7 0-.6-.1-1.2-.4-1.6-.3-.5-.6-.9-1.1-1.1-.5-.3-1-.4-1.6-.4-.5 0-1 .1-1.5.3-.4.2-.8.6-1.1 1 .1-.8.3-1.5.7-1.9.4-.4 1-.8 1.9-1l2.7-.6-.2-1.1-3 .7c-1.1.2-2 .7-2.5 1.5s-.8 1.8-.8 3.1c0 1.4.3 2.4.9 3.2.6.8 1.5 1.1 2.6 1.1.7 0 1.3-.1 1.8-.4zm-3.6-1.6c-.2-.3-.3-.7-.3-1.1 0-.6.2-1.2.6-1.6.4-.4.9-.6 1.6-.6.6 0 1.1.2 1.5.6.4.4.6.9.6 1.6 0 .4-.1.8-.3 1.1-.2.3-.4.6-.8.8-.3.2-.7.3-1.1.3-.4 0-.8-.1-1.1-.3-.2-.2-.5-.5-.7-.8zM77.3 174.7c.5-.3.9-.7 1.2-1.2.3-.5.4-1.1.4-1.7 0-.7-.1-1.2-.4-1.7-.3-.5-.7-.9-1.2-1.2-.5-.3-1.1-.4-1.7-.4-.5 0-.9.1-1.3.3-.4.2-.7.4-1 .8v-1h-1.1v8.9h1.2V174c.3.3.6.6 1 .8.4.2.8.3 1.3.3s1.1-.2 1.6-.4zm-2.9-.9c-.3-.2-.6-.5-.8-.8-.2-.4-.3-.8-.3-1.2s.1-.8.3-1.2c.2-.3.5-.6.8-.8.3-.2.7-.3 1.1-.3.4 0 .8.1 1.1.3.3.2.6.5.8.8.2.3.3.7.3 1.2s-.1.8-.3 1.2c-.2.3-.4.6-.8.8-.3.2-.7.3-1.1.3-.4-.1-.8-.1-1.1-.3zM72.4 185.5h2.4v-1h-5.9v1h2.4v5.5h1.1zM111.6 175v-3.9c0-.9-.2-1.5-.7-2-.5-.4-1.2-.7-2.1-.7-.5 0-1 .1-1.5.2s-.9.3-1.2.6l.5.9c.3-.2.6-.4.9-.5.4-.1.7-.2 1.1-.2.6 0 1 .1 1.3.4.3.3.4.7.4 1.2v.2h-1.9c-.9 0-1.6.2-2 .5-.4.3-.6.8-.6 1.4 0 .6.2 1 .6 1.4.4.4 1 .5 1.7.5.5 0 .9-.1 1.3-.2.4-.2.6-.4.8-.7v.9h1.4zm-1.2-2c-.1.4-.4.7-.7.9-.3.2-.7.3-1.2.3-.4 0-.8-.1-1.1-.3-.3-.2-.4-.4-.4-.8 0-.7.5-1 1.5-1h1.8v.9zM90.1 174.7c.5.3 1.1.4 1.8.4.5 0 1-.1 1.5-.3.4-.2.8-.4 1.1-.8l-.6-.8c-.5.5-1.1.8-1.9.8-.6 0-1.2-.2-1.6-.5-.4-.4-.7-.8-.7-1.4H95v-.4c0-.7-.1-1.2-.4-1.7-.3-.5-.6-.9-1.1-1.2-.5-.3-1-.4-1.7-.4s-1.2.1-1.7.4c-.5.3-.9.7-1.2 1.2-.3.5-.4 1.1-.4 1.7 0 .6.1 1.2.4 1.7.3.6.7 1 1.2 1.3zm.2-4.7c.4-.3.9-.5 1.4-.5.6 0 1 .2 1.4.5.4.3.6.8.7 1.3h-4.2c.1-.5.3-1 .7-1.3zM105.7 152.5h-5.9v1h2.4v5.5h1.1v-5.5h2.4zM132.8 188.8c0-.7-.2-1.2-.6-1.6-.4-.4-1.1-.6-1.9-.6h-1.8v-2.2h-1.2v6.5h2.8c.9 0 1.5-.2 2-.5.4-.3.7-.9.7-1.6zm-1.6 1c-.3.2-.7.3-1.2.3h-1.5v-2.5h1.5c.5 0 1 .1 1.2.3.3.2.4.5.4.9 0 .5-.2.8-.4 1zM95.9 190.5c.5-.4.7-.9.7-1.6 0-.7-.2-1.2-.6-1.6-.4-.4-1.1-.6-1.9-.6h-1.8v-2.2h-1.2v6.5h2.8c.9 0 1.6-.2 2-.5zm-3.6-.4v-2.5h1.5c.5 0 .9.1 1.2.3.3.2.4.5.4.9s-.1.8-.4 1c-.3.2-.7.3-1.2.3h-1.5zM98.9 158l-.6-.8c-.5.5-1.1.8-1.9.8-.6 0-1.2-.2-1.6-.5-.4-.4-.7-.8-.7-1.4h5.3v-.4c0-.7-.1-1.2-.4-1.7-.3-.5-.6-.9-1.1-1.2-.5-.3-1-.4-1.7-.4-.6 0-1.2.1-1.7.4-.5.3-.9.7-1.2 1.2-.3.5-.4 1.1-.4 1.7 0 .6.1 1.2.4 1.7.3.5.7.9 1.2 1.2.5.3 1.1.4 1.8.4.5 0 1-.1 1.5-.3.5-.1.8-.3 1.1-.7zm-4.2-4c.4-.3.9-.5 1.4-.5.6 0 1 .2 1.4.5.4.3.6.8.7 1.3H94c.1-.5.3-1 .7-1.3zM94.2 223h1.2v-5.5h3.7v5.5h1.1v-6.5h-6zM92.2 166.7c0 .2.1.3.2.5.1.1.3.2.4.2.2 0 .3-.1.4-.2.1-.1.2-.3.2-.5s-.1-.3-.2-.5c-.1-.1-.3-.2-.4-.2-.2 0-.3.1-.4.2-.1.2-.2.4-.2.5zM96.6 207.1c.5 0 1-.1 1.5-.3.4-.2.8-.4 1.1-.8l-.6-.8c-.5.5-1.1.8-1.9.8-.6 0-1.2-.2-1.6-.5-.4-.4-.7-.8-.7-1.4h5.3v-.4c0-.7-.1-1.2-.4-1.7-.3-.5-.6-.9-1.1-1.2-.5-.3-1-.4-1.7-.4-.6 0-1.2.1-1.7.4-.5.3-.9.7-1.2 1.2-.3.5-.4 1.1-.4 1.7 0 .6.1 1.2.4 1.7.3.5.7.9 1.2 1.2.5.3 1.1.5 1.8.5zm-1.7-5.1c.4-.3.9-.5 1.4-.5.6 0 1 .2 1.4.5.4.3.6.8.7 1.3h-4.2c.1-.5.4-1 .7-1.3zM76.7 143v-6.5h-6v6.5h1.2v-5.5h3.6v5.5zM90.2 203.3h-3.7v-2.8h-1.1v6.5h1.1v-2.7h3.7v2.7h1.2v-6.5h-1.2zM93.6 136.5h-1.1l-3.9 4.7v-4.7h-1.2v6.5h1.1l3.9-4.7v4.7h1.2zM63.3 153.5h2.3v5.5h1.2v-5.5h2.4v-1h-5.9zM87.6 216.9c-.5-.3-1.1-.4-1.7-.4-.6 0-1.2.1-1.7.4-.5.3-.9.7-1.2 1.2-.3.5-.4 1.1-.4 1.7 0 .6.1 1.2.4 1.7.3.5.7.9 1.2 1.2.5.3 1.1.4 1.7.4.6 0 1.2-.1 1.7-.4.5-.3.9-.7 1.2-1.2.3-.5.4-1.1.4-1.7 0-.6-.1-1.2-.4-1.7-.3-.5-.7-.9-1.2-1.2zm.2 4.1c-.2.3-.4.6-.8.8-.3.2-.7.3-1.1.3s-.8-.1-1.1-.3c-.3-.2-.6-.5-.8-.8-.2-.4-.3-.8-.3-1.2s.1-.8.3-1.2c.2-.4.5-.6.8-.8.3-.2.7-.3 1.1-.3s.8.1 1.1.3c.3.2.6.5.8.8.2.3.3.7.3 1.2s-.1.8-.3 1.2zM84 190.6c.3-.4.4-.8.6-1.4.1-.6.2-1.3.2-2.2l.1-1.4h2.8v5.5h1.2v-6.5h-5l-.1 2.4c0 .7-.1 1.3-.1 1.7 0 .4-.2.7-.3 1-.2.3-.4.4-.7.4h-.3l-.1 1c.3.1.5.1.7.1.4-.1.8-.3 1-.6zM75.5 159v-3.9c0-.9-.2-1.5-.7-2-.5-.4-1.2-.7-2.1-.7-.5 0-1 .1-1.5.2s-.9.3-1.2.6l.5.9c.3-.2.6-.4.9-.5.4-.1.7-.2 1.1-.2.6 0 1 .1 1.3.4.3.3.4.7.4 1.2v.2h-1.9c-.9 0-1.6.2-2 .5-.4.3-.6.8-.6 1.4 0 .6.2 1 .6 1.4.4.4 1 .5 1.7.5.5 0 .9-.1 1.3-.2.4-.2.6-.4.8-.7v.9h1.4zm-1.2-2c-.1.4-.4.7-.7.9-.3.2-.7.3-1.2.3-.4 0-.8-.1-1.1-.3-.3-.2-.4-.4-.4-.8 0-.7.5-1 1.5-1h1.8v.9zM69.9 175v-6.5h-6v6.5h1.2v-5.5h3.6v5.5zM135.7 143h2.8c.9 0 1.5-.2 2-.5.5-.4.7-.9.7-1.6 0-.7-.2-1.2-.6-1.6-.4-.4-1.1-.6-1.9-.6h-1.8v-2.2h-1.2v6.5zm1.2-3.4h1.5c.5 0 1 .1 1.2.3.3.2.4.5.4.9s-.1.8-.4 1c-.3.2-.7.3-1.2.3h-1.5v-2.5zM127.1 159v-8.6h-3.2v1.1h1.9v7.5zM124.5 206.6c.5.3 1.1.4 1.7.4s1.2-.1 1.7-.4c.5-.3.9-.7 1.2-1.2.3-.5.4-1.1.4-1.7 0-.6-.1-1.2-.4-1.7-.3-.5-.7-.9-1.2-1.2-.5-.3-1.1-.4-1.7-.4s-1.2.1-1.7.4c-.5.3-.9.7-1.2 1.2-.3.5-.4 1.1-.4 1.7 0 .6.1 1.2.4 1.7.3.6.7 1 1.2 1.2zm-.1-4c.2-.4.5-.6.8-.8.3-.2.7-.3 1.1-.3.4 0 .8.1 1.1.3.3.2.6.5.8.8.2.3.3.7.3 1.2s-.1.8-.3 1.2c-.2.3-.4.6-.8.8-.3.2-.7.3-1.1.3-.4 0-.8-.1-1.1-.3-.3-.2-.6-.5-.8-.8-.2-.4-.3-.8-.3-1.2s.1-.9.3-1.2zM85.6 175h1.2v-6.5h-1.1l-3.9 4.7v-4.7h-1.2v6.5h1.1l3.9-4.7zM128.1 216.9c-.5-.3-1.1-.4-1.7-.4s-1.2.1-1.7.4c-.5.3-.9.7-1.2 1.2-.3.5-.4 1.1-.4 1.7 0 .6.1 1.2.4 1.7.3.5.7.9 1.2 1.2.5.3 1.1.4 1.7.4s1.2-.1 1.7-.4c.5-.3.9-.7 1.2-1.2.3-.5.4-1.1.4-1.7 0-.6-.1-1.2-.4-1.7-.3-.5-.7-.9-1.2-1.2zm.2 4.1c-.2.3-.4.6-.8.8-.3.2-.7.3-1.1.3s-.8-.1-1.1-.3c-.3-.2-.6-.5-.8-.8-.2-.4-.3-.8-.3-1.2s.1-.8.3-1.2c.2-.4.5-.6.8-.8.3-.2.7-.3 1.1-.3s.8.1 1.1.3c.3.2.6.5.8.8.2.3.3.7.3 1.2s-.2.8-.3 1.2zM127.5 139.1c0-.9-.2-1.5-.7-2-.5-.4-1.2-.7-2.1-.7-.5 0-1 .1-1.5.2s-.9.3-1.2.6l.5.9c.3-.2.6-.4.9-.5.4-.1.7-.2 1.1-.2.6 0 1 .1 1.3.4.3.3.4.7.4 1.2v.2h-1.9c-.9 0-1.6.2-2 .5-.4.3-.6.8-.6 1.4 0 .6.2 1 .6 1.4.4.4 1 .5 1.7.5.5 0 .9-.1 1.3-.2.4-.2.6-.4.8-.7v.9h1.1v-3.9zm-1.1 1.9c-.1.4-.4.7-.7.9-.3.2-.7.3-1.2.3s-.8-.1-1.1-.3c-.3-.2-.4-.4-.4-.8 0-.7.5-1 1.5-1h1.8v.9zM114.7 219.6c.3-.1.6-.3.8-.6.2-.3.3-.6.3-.9 0-.5-.2-.9-.6-1.2-.4-.3-1-.4-1.8-.4h-3v6.5h3.1c.8 0 1.5-.2 1.9-.5.4-.3.6-.8.6-1.3 0-.8-.4-1.4-1.3-1.6zm-3.2-2.2h1.8c.9 0 1.4.3 1.4.9 0 .3-.1.5-.4.7-.2.2-.6.2-1 .2h-1.8v-1.8zm3 4.5c-.2.2-.6.2-1.1.2h-1.9v-1.9h2c.5 0 .8.1 1.1.2.2.2.3.4.3.7-.1.4-.2.6-.4.8zM114 206.7c.5-.3.9-.6 1.2-1.1.3-.5.4-1 .4-1.7 0-.6-.1-1.2-.4-1.6-.3-.5-.6-.9-1.1-1.1-.5-.3-1-.4-1.6-.4-.5 0-1 .1-1.5.3-.4.2-.8.6-1.1 1 .1-.8.3-1.5.7-1.9.4-.4 1-.8 1.9-1l2.7-.6-.2-1.1-3 .7c-1.1.2-2 .7-2.5 1.5s-.8 1.8-.8 3.1c0 1.4.3 2.4.9 3.2.6.8 1.5 1.1 2.6 1.1.7 0 1.3-.1 1.8-.4zm-3.6-1.6c-.2-.3-.3-.7-.3-1.1 0-.6.2-1.2.6-1.6.4-.4.9-.6 1.6-.6.6 0 1.1.2 1.5.6.4.4.6.9.6 1.6 0 .4-.1.8-.3 1.1-.2.3-.4.6-.8.8-.3.2-.7.3-1.1.3-.4 0-.8-.1-1.1-.3-.2-.2-.5-.5-.7-.8zM107 216.9c-.5-.3-1.1-.4-1.7-.4-.6 0-1.2.1-1.7.4-.5.3-.9.7-1.2 1.2-.3.5-.4 1.1-.4 1.7 0 .6.1 1.2.4 1.7.3.5.7.9 1.2 1.2.5.3 1.1.4 1.7.4.6 0 1.2-.1 1.7-.4.5-.3.9-.7 1.2-1.2.3-.5.4-1.1.4-1.7 0-.6-.1-1.2-.4-1.7-.3-.5-.7-.9-1.2-1.2zm.2 4.1c-.2.3-.4.6-.8.8-.3.2-.7.3-1.1.3-.4 0-.8-.1-1.1-.3-.3-.2-.6-.5-.8-.8-.2-.4-.3-.8-.3-1.2s.1-.8.3-1.2c.2-.4.5-.6.8-.8.3-.2.7-.3 1.1-.3.4 0 .8.1 1.1.3.3.2.6.5.8.8.2.3.3.7.3 1.2s-.1.8-.3 1.2zM116.8 217.5h2.3v5.5h1.2v-5.5h2.4v-1h-5.9zM117.4 207l1.9-2.5 1.8 2.5h1.4l-2.6-3.3 2.4-3.2H121l-1.7 2.4-1.8-2.4h-1.3l2.4 3.2-2.5 3.3zM101.9 143v-6.5h-1.2v2.8h-3.6v-2.8h-1.2v6.5h1.2v-2.7h3.6v2.7zM30.6 216.9c-.5-.3-1-.4-1.7-.4s-1.2.1-1.7.4c-.5.3-.9.7-1.2 1.2-.3.5-.4 1.1-.4 1.7 0 .6.1 1.2.4 1.7.3.5.7.9 1.2 1.2.5.3 1.1.4 1.8.4.5 0 1-.1 1.5-.3.4-.2.8-.4 1.1-.8l-.6-.8c-.5.5-1.1.8-1.9.8-.6 0-1.2-.2-1.6-.5-.4-.4-.7-.8-.7-1.4h5.3v-.4c0-.7-.1-1.2-.4-1.7-.2-.4-.6-.8-1.1-1.1zm-3.7 2.4c.1-.6.3-1 .7-1.3.4-.3.9-.5 1.4-.5.6 0 1 .2 1.4.5.4.3.6.8.7 1.3h-4.2zM12.7 204.9l-2.5-4.4H8.9v6.5H10v-4.7l2.4 4h.5l2.5-4v4.7h1v-6.5h-1.1zM35.4 204.9h1.9v2.1h1.1v-6.5h-2.8c-.9 0-1.6.2-2.1.6-.5.4-.8.9-.8 1.7 0 .5.1.9.4 1.3.3.3.6.6 1.1.7l-1.6 2.2h1.3l1.4-2.1h.1zm-1.5-2.1c0-.9.6-1.3 1.7-1.3h1.7v2.6h-1.8c-.5 0-1-.1-1.2-.3-.3-.2-.4-.5-.4-1zM41.5 171.8c0-.7-.1-1.2-.4-1.7-.3-.5-.6-.9-1.1-1.2-.5-.3-1-.4-1.7-.4s-1.2.1-1.7.4c-.5.3-.9.7-1.2 1.2-.3.5-.4 1.1-.4 1.7 0 .6.1 1.2.4 1.7.3.5.7.9 1.2 1.2.5.3 1.1.4 1.8.4.5 0 1-.1 1.5-.3.4-.2.8-.4 1.1-.8l-.6-.8c-.5.5-1.1.8-1.9.8-.6 0-1.2-.2-1.6-.5-.4-.4-.7-.8-.7-1.4h5.3v-.3zm-5.2-.5c.1-.6.3-1 .7-1.3.4-.3.9-.5 1.4-.5.6 0 1 .2 1.4.5.4.3.6.8.7 1.3h-4.2zM37.8 220.9l-2.6-4.4H34v6.5h1.1v-4.7l2.4 4h.5l2.4-4v4.7h1.1v-6.5h-1.1zM26.4 142.6c.5.3 1.1.4 1.7.4.6 0 1.2-.1 1.7-.4.5-.3.9-.7 1.2-1.2.3-.5.4-1.1.4-1.7 0-.6-.1-1.2-.4-1.7-.3-.5-.7-.9-1.2-1.2-.5-.3-1.1-.4-1.7-.4-.6 0-1.2.1-1.7.4-.5.3-.9.7-1.2 1.2-.3.5-.4 1.1-.4 1.7 0 .6.1 1.2.4 1.7.3.6.7 1 1.2 1.2zm-.2-4c.2-.4.5-.6.8-.8.3-.2.7-.3 1.1-.3.4 0 .8.1 1.1.3.3.2.6.5.8.8.2.3.3.7.3 1.2s-.1.8-.3 1.2c-.2.3-.4.6-.8.8-.3.2-.7.3-1.1.3-.4 0-.8-.1-1.1-.3-.3-.2-.6-.5-.8-.8-.2-.4-.3-.8-.3-1.2s.1-.9.3-1.2zM23 200.9c-.5-.3-1-.4-1.7-.4-.6 0-1.2.1-1.7.4-.5.3-.9.7-1.2 1.2-.3.5-.4 1.1-.4 1.7 0 .6.1 1.2.4 1.7.3.5.7.9 1.2 1.2.5.3 1.1.4 1.8.4.5 0 1-.1 1.5-.3.4-.2.8-.4 1.1-.8l-.6-.8c-.5.5-1.1.8-1.9.8-.6 0-1.2-.2-1.6-.5-.4-.4-.7-.8-.7-1.4h5.3v-.4c0-.7-.1-1.2-.4-1.7-.2-.4-.6-.8-1.1-1.1zm-3.7 2.4c.1-.6.3-1 .7-1.3.4-.3.9-.5 1.4-.5.6 0 1 .2 1.4.5.4.3.6.8.7 1.3h-4.2zM25.3 186.1c-.3-.5-.7-.9-1.2-1.2-.5-.3-1.1-.4-1.7-.4-.6 0-1.2.1-1.7.4-.5.3-.9.7-1.2 1.2-.3.5-.4 1.1-.4 1.7 0 .6.1 1.2.4 1.7.3.5.7.9 1.2 1.2.5.3 1.1.4 1.7.4.6 0 1.2-.1 1.7-.4.5-.3.9-.7 1.2-1.2.3-.5.4-1.1.4-1.7 0-.7-.1-1.2-.4-1.7zm-1 2.9c-.2.3-.4.6-.8.8-.3.2-.7.3-1.1.3s-.8-.1-1.1-.3c-.3-.2-.6-.5-.8-.8-.2-.4-.3-.8-.3-1.2s.1-.8.3-1.2c.2-.4.5-.6.8-.8.3-.2.7-.3 1.1-.3s.8.1 1.1.3c.3.2.6.5.8.8.2.3.3.7.3 1.2s-.1.8-.3 1.2zM15 138.2c0-.3-.1-.6-.4-.9-.2-.3-.6-.5-1-.6-.4-.1-.9-.2-1.4-.2-.9 0-1.7.2-2.5.6l.3.9c.7-.3 1.4-.5 2-.5.5 0 .9.1 1.2.2.3.2.5.4.5.7 0 .3-.1.5-.4.6-.3.2-.6.2-1 .2h-1.1v.8h1.2c.5 0 .9.1 1.1.2.3.2.4.4.4.7 0 .3-.2.6-.5.8-.3.2-.8.3-1.3.3-.4 0-.8-.1-1.2-.2-.4-.1-.8-.3-1.1-.5l-.4.9c.4.2.8.4 1.2.5.5.1.9.2 1.4.2.6 0 1.1-.1 1.5-.2.5-.2.8-.4 1.1-.7.3-.3.4-.6.4-1s-.1-.7-.4-.9c-.2-.3-.6-.4-1-.6.4-.1.6-.3.9-.6.3-.1.5-.4.5-.7zM17.5 186c-.3-.5-.7-.9-1.2-1.2-.5-.3-1.1-.4-1.7-.4-.5 0-.9.1-1.3.3-.4.2-.7.4-1 .8v-1h-1.1v8.9h1.2V190c.3.3.6.6 1 .8.4.2.8.3 1.3.3.6 0 1.2-.1 1.7-.4.5-.3.9-.7 1.2-1.2.3-.5.4-1.1.4-1.7-.1-.7-.3-1.3-.5-1.8zm-1.1 3c-.2.3-.4.6-.8.8-.3.2-.7.3-1.1.3-.4 0-.8-.1-1.1-.3-.3-.2-.6-.5-.8-.8-.2-.4-.3-.8-.3-1.2s.1-.8.3-1.2c.2-.3.5-.6.8-.8.3-.2.7-.3 1.1-.3.4 0 .8.1 1.1.3.3.2.6.5.8.8.2.3.3.7.3 1.2s-.1.8-.3 1.2zM47.6 208.6V206h-1.1v-5.5h-1.1v5.5h-3.6v-5.5h-1.2v6.5h5.9v1.6zM19 221.2v-4.7h-1.2v6.5h1.1l4-4.7v4.7H24v-6.5h-1zM45.5 143v-6.5h-5l-.1 2.4c0 .7-.1 1.3-.1 1.7 0 .4-.2.7-.3 1-.2.3-.4.4-.7.4H39l-.1 1c.3.1.5.1.7.1.5 0 .8-.2 1.1-.5.3-.4.4-.8.6-1.4.1-.6.2-1.3.2-2.2l.1-1.4h2.8v5.5h1.1zM54.2 151.2c.3.3.8.4 1.4.4.6 0 1.1-.1 1.4-.4.3-.3.5-.7.5-1.3h-.8c0 .3-.1.5-.3.7-.2.2-.5.3-.8.3-.3 0-.6-.1-.8-.3-.2-.2-.3-.4-.3-.7h-.8c0 .6.2 1.1.5 1.3zM54.2 136.5h1.2v6.5h-1.2zM34.8 137.8c.3-.2.7-.3 1.1-.3.4 0 .7.1 1 .2.3.2.6.4.8.7l.9-.6c-.3-.4-.6-.8-1.1-1-.5-.2-1-.4-1.6-.4-.7 0-1.3.1-1.8.4-.5.3-.9.7-1.2 1.2-.3.5-.4 1.1-.4 1.7 0 .6.1 1.2.4 1.7.3.5.7.9 1.2 1.2.5.3 1.1.4 1.8.4.6 0 1.1-.1 1.6-.4.5-.2.8-.6 1.1-1l-.9-.6c-.2.3-.5.5-.8.7-.3.2-.6.2-1 .2s-.8-.1-1.1-.3c-.3-.2-.6-.5-.8-.8-.2-.3-.3-.8-.3-1.2 0-.4.1-.8.3-1.2.2-.2.5-.4.8-.6zM79.7 219.3H76v-2.8h-1.2v6.5H76v-2.7h3.7v2.7h1.1v-6.5h-1.1zM73.3 216.5h-1.2l-1.8 2.8H69v-2.8h-1.1v2.8h-1.3l-1.8-2.8h-1.2l2.1 3.1-2.3 3.4h1.4l1.8-2.7h1.3v2.7H69v-2.7h1.3l1.8 2.7h1.4l-2.2-3.3zM78.6 207h1.2v-6.5h-1.1l-3.9 4.7v-4.7h-1.2v6.5h1.1l3.9-4.7zM80 184.9c-.5-.3-1-.4-1.7-.4-.6 0-1.2.1-1.7.4-.5.3-.9.7-1.2 1.2-.3.5-.4 1.1-.4 1.7 0 .6.1 1.2.4 1.7.3.5.7.9 1.2 1.2.5.3 1.1.4 1.8.4.5 0 1-.1 1.5-.3.4-.2.8-.4 1.1-.8l-.6-.8c-.5.5-1.1.8-1.9.8-.6 0-1.2-.2-1.6-.5-.4-.4-.7-.8-.7-1.4h5.3v-.4c0-.7-.1-1.2-.4-1.7-.2-.4-.6-.8-1.1-1.1zm-3.7 2.4c.1-.6.3-1 .7-1.3.4-.3.9-.5 1.4-.5.6 0 1 .2 1.4.5.4.3.6.8.7 1.3h-4.2zM50.8 220.9l-2.6-4.4H47v6.5h1.1v-4.7l2.4 4h.5l2.4-4v4.7h1.1v-6.5h-1.1zM55.8 191v-2.7H57l1.8 2.7h1.4l-2.2-3.3 2-3.2h-1.2l-1.8 2.8h-1.2v-2.8h-1.2v2.8h-1.3l-1.7-2.8h-1.3l2.1 3.1-2.3 3.4h1.4l1.8-2.7h1.3v2.7zM56.5 199.5h5v7.5h1.2v-8.6h-7.4v8.6h1.2zM61.3 216.9c-.5-.3-1.1-.4-1.7-.4-.6 0-1.2.1-1.7.4-.5.3-.9.7-1.2 1.2-.3.5-.4 1.1-.4 1.7 0 .6.1 1.2.4 1.7.3.5.7.9 1.2 1.2.5.3 1.1.4 1.7.4.6 0 1.2-.1 1.7-.4.5-.3.9-.7 1.2-1.2.3-.5.4-1.1.4-1.7 0-.6-.1-1.2-.4-1.7-.3-.5-.7-.9-1.2-1.2zm.2 4.1c-.2.3-.4.6-.8.8-.3.2-.7.3-1.1.3s-.8-.1-1.1-.3c-.3-.2-.6-.5-.8-.8-.2-.4-.3-.8-.3-1.2s.1-.8.3-1.2c.2-.4.5-.6.8-.8.3-.2.7-.3 1.1-.3s.8.1 1.1.3c.3.2.6.5.8.8.2.3.3.7.3 1.2s-.2.8-.3 1.2z"/></svg>