<svg xmlns="http://www.w3.org/2000/svg" viewBox="0 0 247 70" style="enable-background:new 0 0 247 70" xml:space="preserve"><path d="M.7 29.6V21h1.5c.5-.4 1-1.1 1.5-1.9.5-.8.8-1.9 1.2-3.3.3-1.4.5-3.1.7-5.3L6.1.7h14.4V21H23v8.6h-3.4V24H4.1v5.6H.7zM6.4 21H17V3.8H9.2l-.4 6.8c-.1 1.6-.3 3.1-.5 4.4-.2 1.3-.5 2.5-.9 3.5-.2 1-.6 1.8-1 2.5zm18.2 3v-2.9h.6c.5 0 .9-.1 1.2-.3.3-.2.6-.6.8-1.1.2-.5.4-1.2.5-2.1.1-.9.2-2 .2-3.3l.3-7.7h12.2V24h-3.3V9.5h-5.7l-.3 5.9c-.1 1.4-.2 2.7-.4 3.8-.2 1.1-.5 2-1 2.7-.4.7-1 1.2-1.6 1.6-.7.3-1.5.5-2.4.5h-1.1zm30.2 0V9.4h-4.2c-1 0-1.8.2-2.3.7-.6.5-.8 1.1-.8 1.8s.3 1.3.8 1.8c.5.4 1.2.7 2.2.7h5.4v2.8h-5.4c-1.3 0-2.4-.2-3.3-.6-.9-.4-1.7-1-2.2-1.8-.5-.8-.8-1.7-.8-2.8 0-1.1.3-2 .8-2.8.5-.8 1.3-1.4 2.2-1.9 1-.4 2.1-.7 3.5-.7H58V24h-3.2zm-11.5 0 4.9-8.8h3.5L46.8 24h-3.5zm28.5 6.5c-.5 0-1 0-1.4-.1-.4-.1-.7-.2-.9-.2l.8-2.8c.6.2 1.2.2 1.7.2s.9-.2 1.3-.5.7-.9 1-1.7l.4-1.2-6.4-17.7h3.6L76.3 20h.2L81 6.5h3.6l-7.2 19.8c-.3.9-.8 1.7-1.3 2.3-.5.6-1.1 1.1-1.8 1.4-.7.4-1.5.5-2.5.5zM87.2 24V6.5h3.4v7.3h1.6L98 6.5h4.2L95.4 15l6.8 9H98l-5.3-7h-2.2v7h-3.3zm17.1 6.5v-24h3.3v2.8h.3c.2-.4.5-.8.9-1.3s.9-.9 1.5-1.2c.7-.4 1.5-.5 2.6-.5 1.4 0 2.7.4 3.8 1.1s2 1.7 2.6 3.1c.6 1.3 1 3 1 4.8 0 1.9-.3 3.5-.9 4.9-.6 1.3-1.5 2.4-2.6 3.1-1.1.7-2.4 1.1-3.8 1.1-1.1 0-1.9-.2-2.6-.5-.7-.4-1.2-.8-1.6-1.2-.4-.5-.7-.9-.9-1.3h-.2v9.3h-3.4zm3.3-15.2c0 1.2.2 2.3.5 3.2.4.9.9 1.6 1.5 2.2.7.5 1.5.8 2.5.8s1.9-.3 2.5-.8c.7-.5 1.2-1.3 1.5-2.2.4-.9.5-2 .5-3.1 0-1.2-.2-2.2-.5-3.1-.3-.9-.9-1.6-1.5-2.2-.7-.5-1.5-.8-2.6-.8-1 0-1.8.3-2.5.8s-1.2 1.2-1.5 2.1c-.2.8-.4 1.9-.4 3.1zm23.3 9.1c-1.7 0-3.2-.4-4.4-1.1-1.2-.7-2.2-1.8-2.9-3.1-.7-1.3-1-2.9-1-4.7 0-1.8.3-3.4 1-4.7.7-1.4 1.6-2.4 2.8-3.2 1.2-.8 2.6-1.1 4.2-1.1 1 0 1.9.2 2.9.5.9.3 1.8.8 2.5 1.5s1.3 1.6 1.7 2.7c.4 1.1.6 2.5.6 4v1.2h-13.9v-2.5H135c0-.9-.2-1.7-.5-2.4-.4-.7-.9-1.2-1.5-1.6-.7-.4-1.4-.6-2.3-.6-1 0-1.8.2-2.5.7-.7.5-1.3 1.1-1.6 1.8-.4.7-.6 1.5-.6 2.4v2c0 1.2.2 2.2.6 3 .4.8 1 1.4 1.7 1.9.7.4 1.6.6 2.6.6.6 0 1.2-.1 1.8-.3.5-.2 1-.5 1.4-.8.4-.4.7-.8.9-1.4l3.2.6c-.3.9-.7 1.8-1.4 2.5s-1.5 1.3-2.5 1.6c-1 .3-2.1.5-3.4.5zm10.6-.4V6.5h14.2V24h-3.3V9.5h-7.6V24h-3.3zm16.8 0v-2.9h.6c.5 0 .9-.1 1.2-.3.3-.2.6-.6.8-1.1.2-.5.4-1.2.5-2.1.1-.9.2-2 .2-3.3l.3-7.7h12.2V24h-3.3V9.5h-5.7l-.3 5.9c-.1 1.4-.2 2.7-.4 3.8-.2 1.1-.5 2-1 2.7-.4.7-1 1.2-1.6 1.6-.7.3-1.5.5-2.4.5h-1.1zm27.3.4c-1.7 0-3.2-.4-4.4-1.1-1.2-.7-2.2-1.8-2.9-3.1-.7-1.3-1-2.9-1-4.7 0-1.8.3-3.4 1-4.7.7-1.4 1.6-2.4 2.8-3.2 1.2-.8 2.6-1.1 4.2-1.1 1 0 1.9.2 2.9.5.9.3 1.8.8 2.5 1.5s1.3 1.6 1.7 2.7c.4 1.1.6 2.5.6 4v1.2h-13.9v-2.5h10.5c0-.9-.2-1.7-.5-2.4-.4-.7-.9-1.2-1.5-1.6-.7-.4-1.4-.6-2.3-.6-1 0-1.8.2-2.5.7-.7.5-1.2 1.1-1.6 1.8-.4.7-.6 1.5-.6 2.4v2c0 1.2.2 2.2.6 3 .4.8 1 1.4 1.7 1.9.7.4 1.6.6 2.6.6.6 0 1.2-.1 1.8-.3.5-.2 1-.5 1.4-.8.4-.4.7-.8.9-1.4l3.2.6c-.3.9-.7 1.8-1.4 2.5s-1.5 1.3-2.5 1.6c-.9.3-2.1.5-3.3.5zM208 13.8v2.9h-9.5v-2.9h9.5zm-8.5-7.3V24h-3.3V6.5h3.3zm10.9 0V24h-3.3V6.5h3.3zm7.2 12.7 7.7-12.7h3.7V24h-3.3V11.3L218 24h-3.7V6.5h3.3v12.7zm25.7 4.8V9.4h-4.2c-1 0-1.8.2-2.3.7-.6.5-.8 1.1-.8 1.8s.3 1.3.8 1.8c.5.4 1.2.7 2.2.7h5.4v2.8H239c-1.3 0-2.4-.2-3.3-.6-.9-.4-1.7-1-2.2-1.8-.5-.8-.8-1.7-.8-2.8 0-1.1.3-2 .8-2.8.5-.8 1.3-1.4 2.2-1.9 1-.4 2.1-.7 3.5-.7h7.4V24h-3.3zm-11.4 0 4.9-8.8h3.5l-4.9 8.8h-3.5zM36.8 58.2l7.7-12.7h3.7V63h-3.3V50.3L37.1 63h-3.7V45.5h3.3v12.7zm25.1.6 5.6-13.2h2.9L63.1 63h-2.5l-7.2-17.5h2.9l5.6 13.3zm-6.5-13.3V63h-3.3V45.5h3.3zm13 17.5V45.5h3.3V63h-3.3zm17-4.2L91 45.5h3L86.7 63h-2.5L77 45.5h2.9l5.5 13.3zm-6.5-13.3V63h-3.3V45.5h3.3zM92 63V45.5h3.3V63H92zm8.7 6.5c-.5 0-1 0-1.4-.1-.4-.1-.7-.2-.9-.2l.8-2.8c.6.2 1.2.2 1.7.2s.9-.2 1.3-.5.7-.9 1-1.7l.4-1.2-6.4-17.7h3.6l4.4 13.5h.2l4.4-13.5h3.6l-7.2 19.8c-.3.9-.8 1.7-1.3 2.3-.5.6-1.1 1.1-1.8 1.4s-1.5.5-2.4.5zm27.1-16.7v2.9h-9.5v-2.9h9.5zm-8.5-7.3V63H116V45.5h3.3zm10.9 0V63h-3.3V45.5h3.3zm7.2 12.7 7.7-12.7h3.7V63h-3.3V50.3L137.8 63h-3.7V45.5h3.3v12.7zm13.2-9.7v-2.9h14.7v2.9h-5.7V63h-3.3V48.5h-5.7zM175 63.4c-1.7 0-3.2-.4-4.4-1.1-1.2-.7-2.2-1.8-2.9-3.1-.7-1.3-1-2.9-1-4.7 0-1.8.3-3.4 1-4.7.7-1.4 1.6-2.4 2.8-3.2 1.2-.8 2.6-1.1 4.2-1.1 1 0 1.9.2 2.9.5.9.3 1.8.8 2.5 1.5s1.3 1.6 1.7 2.7c.4 1.1.6 2.5.6 4v1.2h-13.9v-2.5H179c0-.9-.2-1.7-.5-2.4-.4-.7-.9-1.2-1.5-1.6-.7-.4-1.4-.6-2.3-.6-1 0-1.8.2-2.5.7-.7.5-1.2 1.1-1.6 1.8-.4.7-.6 1.5-.6 2.4v2c0 1.2.2 2.2.6 3 .4.8 1 1.4 1.7 1.9.7.4 1.6.6 2.6.6.6 0 1.2-.1 1.8-.3.5-.2 1-.5 1.4-.8.4-.4.7-.8.9-1.4l3.2.6c-.3.9-.7 1.8-1.4 2.5s-1.5 1.3-2.5 1.6c-.9.3-2.1.5-3.3.5zm9-14.9v-2.9h14.7v2.9H193V63h-3.3V48.5H184zm22 14.9c-1.1 0-2.1-.2-3-.6-.9-.4-1.6-1-2.1-1.8s-.8-1.8-.8-2.9c0-1 .2-1.8.6-2.4.4-.6.9-1.1 1.5-1.5s1.4-.7 2.2-.8c.8-.2 1.6-.3 2.4-.4 1-.1 1.9-.2 2.5-.3.7-.1 1.1-.2 1.4-.4s.4-.5.4-.9v-.1c0-1-.3-1.8-.8-2.3-.6-.5-1.4-.8-2.5-.8s-2 .3-2.7.8c-.7.5-1.1 1.1-1.4 1.7l-3.2-.7c.4-1.1.9-1.9 1.7-2.6.7-.7 1.6-1.1 2.5-1.4 1-.3 2-.5 3-.5.7 0 1.4.1 2.2.2.8.2 1.5.5 2.2.9.7.4 1.3 1 1.7 1.9.4.8.7 1.8.7 3.1V63h-3.3v-2.4h-.1c-.2.4-.6.9-1 1.3s-1 .8-1.7 1.1-1.5.4-2.4.4zm.7-2.7c.9 0 1.7-.2 2.4-.6.7-.4 1.2-.9 1.5-1.5.4-.6.5-1.3.5-1.9v-2.2c-.1.1-.4.2-.7.3-.3.1-.7.2-1.2.3-.4.1-.9.1-1.3.2s-.8.1-1 .1c-.7.1-1.3.2-1.8.4s-1 .5-1.3.9c-.3.4-.5.8-.5 1.5 0 .8.3 1.5.9 1.9.8.3 1.6.6 2.5.6z" style="fill:#0d1907"/></svg>