<?xml version="1.0" encoding="utf-8"?>
<!-- Generator: Adobe Illustrator 25.2.3, SVG Export Plug-In . SVG Version: 6.00 Build 0)  -->
<svg version="1.1" id="Layer_1" xmlns="http://www.w3.org/2000/svg" xmlns:xlink="http://www.w3.org/1999/xlink" x="0px" y="0px"
	 viewBox="0 0 236 74" style="enable-background:new 0 0 236 74;" xml:space="preserve">
<style type="text/css">
	.st0{fill:#0D1907;}
</style>
<path class="st0" d="M22,9.3h-3.8c-0.1-0.8-0.4-1.5-0.8-2.1C17,6.6,16.5,6.1,16,5.6c-0.6-0.4-1.2-0.7-1.9-1
	c-0.7-0.2-1.4-0.3-2.2-0.3c-1.4,0-2.7,0.4-3.8,1.1C6.9,6.1,6,7.2,5.3,8.6c-0.6,1.4-1,3.1-1,5.1c0,2,0.3,3.7,1,5.1
	C6,20.1,6.9,21.2,8,21.9c1.1,0.7,2.4,1.1,3.8,1.1c0.8,0,1.5-0.1,2.2-0.3c0.7-0.2,1.3-0.5,1.9-1c0.6-0.4,1.1-0.9,1.4-1.5
	c0.4-0.6,0.7-1.3,0.8-2.1l3.8,0c-0.2,1.2-0.6,2.3-1.2,3.4c-0.6,1-1.3,1.9-2.2,2.6c-0.9,0.7-1.9,1.3-3.1,1.7
	c-1.2,0.4-2.4,0.6-3.8,0.6c-2.1,0-4-0.5-5.7-1.5c-1.7-1-3-2.5-4-4.4c-1-1.9-1.4-4.2-1.4-6.8c0-2.6,0.5-4.9,1.4-6.8
	c1-1.9,2.3-3.4,4-4.4c1.7-1,3.6-1.5,5.7-1.5c1.3,0,2.5,0.2,3.7,0.6c1.1,0.4,2.2,0.9,3.1,1.6c0.9,0.7,1.7,1.6,2.3,2.6
	C21.4,6.8,21.8,8,22,9.3z M33.5,26.4c-1.8,0-3.4-0.4-4.7-1.2c-1.3-0.8-2.3-1.9-3-3.3c-0.7-1.4-1.1-3.1-1.1-5c0-1.9,0.4-3.6,1.1-5
	c0.7-1.4,1.7-2.6,3-3.4c1.3-0.8,2.8-1.2,4.5-1.2c1,0,2.1,0.2,3,0.5c1,0.3,1.9,0.9,2.6,1.6c0.8,0.7,1.4,1.7,1.8,2.9
	c0.5,1.2,0.7,2.6,0.7,4.3v1.3H26.7v-2.7h11.2c0-0.9-0.2-1.8-0.6-2.5c-0.4-0.7-0.9-1.3-1.6-1.8c-0.7-0.4-1.5-0.6-2.4-0.6
	c-1,0-1.9,0.2-2.7,0.7c-0.7,0.5-1.3,1.1-1.7,1.9c-0.4,0.8-0.6,1.6-0.6,2.6v2.1c0,1.2,0.2,2.3,0.7,3.2c0.4,0.9,1.1,1.5,1.8,2
	c0.8,0.5,1.7,0.7,2.8,0.7c0.7,0,1.3-0.1,1.9-0.3c0.6-0.2,1.1-0.5,1.5-0.9c0.4-0.4,0.7-0.9,0.9-1.5l3.4,0.6c-0.3,1-0.8,1.9-1.5,2.6
	c-0.7,0.7-1.6,1.3-2.6,1.8C36,26.2,34.8,26.4,33.5,26.4z M43.3,26l0-3.1h0.7c0.5,0,0.9-0.1,1.3-0.3c0.4-0.2,0.6-0.6,0.9-1.1
	c0.2-0.5,0.4-1.3,0.5-2.2c0.1-0.9,0.2-2.1,0.3-3.5l0.3-8.2h12.9V26h-3.5V10.6h-6.1l-0.3,6.3c-0.1,1.5-0.2,2.9-0.5,4
	c-0.2,1.1-0.6,2.1-1,2.9c-0.5,0.8-1,1.3-1.7,1.7c-0.7,0.4-1.6,0.6-2.6,0.6H43.3z M72.3,26.4c-1.8,0-3.4-0.4-4.7-1.2
	c-1.3-0.8-2.3-1.9-3-3.3c-0.7-1.4-1.1-3.1-1.1-5c0-1.9,0.4-3.6,1.1-5c0.7-1.4,1.7-2.6,3-3.4c1.3-0.8,2.8-1.2,4.5-1.2
	c1,0,2.1,0.2,3,0.5c1,0.3,1.9,0.9,2.6,1.6c0.8,0.7,1.4,1.7,1.8,2.9c0.5,1.2,0.7,2.6,0.7,4.3v1.3H65.5v-2.7h11.2
	c0-0.9-0.2-1.8-0.6-2.5c-0.4-0.7-0.9-1.3-1.6-1.8c-0.7-0.4-1.5-0.6-2.4-0.6c-1,0-1.9,0.2-2.7,0.7c-0.7,0.5-1.3,1.1-1.7,1.9
	c-0.4,0.8-0.6,1.6-0.6,2.6v2.1c0,1.2,0.2,2.3,0.7,3.2c0.4,0.9,1.1,1.5,1.8,2c0.8,0.5,1.7,0.7,2.8,0.7c0.7,0,1.3-0.1,1.9-0.3
	c0.6-0.2,1.1-0.5,1.5-0.9c0.4-0.4,0.7-0.9,0.9-1.5l3.4,0.6c-0.3,1-0.8,1.9-1.5,2.6c-0.7,0.7-1.6,1.3-2.6,1.8
	C74.8,26.2,73.6,26.4,72.3,26.4z M96.1,15.2v3.1h-10v-3.1H96.1z M87.1,7.5V26h-3.5V7.5H87.1z M98.7,7.5V26h-3.5V7.5H98.7z
	 M111.4,1.3h4.5l7.9,19.2h0.3L132,1.3h4.5V26H133V8.1h-0.2L125.4,26h-2.9l-7.3-17.9H115V26h-3.6V1.3z M143.7,13.8h5.4
	c2.3,0,4,0.6,5.2,1.7c1.2,1.1,1.8,2.6,1.8,4.4c0,1.2-0.3,2.2-0.8,3.1c-0.5,0.9-1.3,1.7-2.4,2.2c-1.1,0.5-2.3,0.8-3.9,0.8H141V7.5
	h3.5v15.4h4.6c1,0,1.9-0.3,2.6-0.8c0.7-0.5,1-1.2,1-2.1c0-0.9-0.3-1.6-1-2.2c-0.7-0.6-1.5-0.9-2.6-0.9h-5.4V13.8z M158.8,26V7.5h3.6
	V26H158.8z M166.6,33V7.5h3.5v3h0.3c0.2-0.4,0.5-0.8,0.9-1.3c0.4-0.5,0.9-0.9,1.6-1.3c0.7-0.4,1.6-0.6,2.8-0.6c1.5,0,2.8,0.4,4,1.1
	c1.2,0.8,2.1,1.8,2.8,3.3c0.7,1.4,1,3.1,1,5.1s-0.3,3.7-1,5.2c-0.7,1.4-1.6,2.5-2.8,3.3c-1.2,0.8-2.5,1.1-4,1.1
	c-1.1,0-2-0.2-2.8-0.6c-0.7-0.4-1.3-0.8-1.7-1.3c-0.4-0.5-0.7-1-0.9-1.4h-0.2V33H166.6z M170.1,16.7c0,1.3,0.2,2.4,0.6,3.4
	c0.4,1,0.9,1.8,1.6,2.3c0.7,0.5,1.6,0.8,2.6,0.8c1.1,0,2-0.3,2.7-0.9c0.7-0.6,1.3-1.4,1.6-2.4c0.4-1,0.6-2.1,0.6-3.3
	c0-1.2-0.2-2.3-0.6-3.3c-0.4-1-0.9-1.7-1.6-2.3c-0.7-0.6-1.6-0.8-2.7-0.8c-1,0-1.9,0.3-2.7,0.8c-0.7,0.5-1.3,1.3-1.6,2.3
	C170.3,14.3,170.1,15.4,170.1,16.7z M189.6,13.8h5.4c2.3,0,4,0.6,5.2,1.7c1.2,1.1,1.8,2.6,1.8,4.4c0,1.2-0.3,2.2-0.8,3.1
	c-0.5,0.9-1.3,1.7-2.4,2.2c-1.1,0.5-2.3,0.8-3.9,0.8h-8.1V7.5h3.5v15.4h4.6c1,0,1.9-0.3,2.6-0.8c0.7-0.5,1-1.2,1-2.1
	c0-0.9-0.3-1.6-1-2.2c-0.7-0.6-1.5-0.9-2.6-0.9h-5.4V13.8z M204.7,26V7.5h3.6V26H204.7z M212.4,7.5h3.5v15.4h6.4V7.5h3.5v15.4h6.4
	V7.5h3.5V26h-23.4V7.5z M50.1,50.3h-3.8c-0.1-0.8-0.4-1.5-0.8-2.1c-0.4-0.6-0.9-1.1-1.4-1.6c-0.6-0.4-1.2-0.7-1.9-1
	c-0.7-0.2-1.4-0.3-2.2-0.3c-1.4,0-2.7,0.4-3.8,1.1c-1.1,0.7-2,1.8-2.7,3.2c-0.6,1.4-1,3.1-1,5.1c0,2,0.3,3.7,1,5.1
	c0.7,1.4,1.5,2.4,2.7,3.1c1.1,0.7,2.4,1.1,3.8,1.1c0.8,0,1.5-0.1,2.2-0.3c0.7-0.2,1.3-0.5,1.9-1c0.6-0.4,1.1-0.9,1.4-1.5
	c0.4-0.6,0.7-1.3,0.8-2.1l3.8,0c-0.2,1.2-0.6,2.3-1.2,3.4c-0.6,1-1.3,1.9-2.2,2.6c-0.9,0.7-1.9,1.3-3.1,1.7
	c-1.2,0.4-2.4,0.6-3.8,0.6c-2.1,0-4-0.5-5.7-1.5c-1.7-1-3-2.5-4-4.4c-1-1.9-1.4-4.2-1.4-6.8c0-2.6,0.5-4.9,1.4-6.8
	c1-1.9,2.3-3.4,4-4.4c1.7-1,3.6-1.5,5.7-1.5c1.3,0,2.5,0.2,3.7,0.6c1.1,0.4,2.2,0.9,3.1,1.6c0.9,0.7,1.7,1.6,2.3,2.6
	C49.5,47.8,49.9,49,50.1,50.3z M60.1,72.3v-8.5h1.5c0.4-0.4,0.7-0.8,1-1.3c0.3-0.5,0.5-1.1,0.7-1.8c0.2-0.7,0.4-1.5,0.5-2.4
	c0.1-0.9,0.2-1.9,0.3-3.1l0.6-6.9h12.6v15.4h2.8v8.5h-3.5V67H63.7v5.3H60.1z M65.5,63.9h8.3V51.5h-5.8l-0.4,3.8
	c-0.2,1.9-0.4,3.6-0.7,5.1C66.6,61.9,66.1,63,65.5,63.9z M90.1,48.1c1.8,0,3.4,0.4,4.7,1.2c1.3,0.8,2.3,1.9,3,3.3
	c0.7,1.4,1.1,3.1,1.1,5c0,1.9-0.4,3.6-1.1,5c-0.7,1.4-1.7,2.6-3,3.4c-1.3,0.8-2.8,1.2-4.5,1.2c-1.1,0-2.1-0.2-3.1-0.5
	s-1.9-0.9-2.6-1.6c-0.8-0.7-1.4-1.7-1.8-2.9c-0.5-1.2-0.7-2.6-0.7-4.3v-1.3h14.8v2.7H85.7c0,0.9,0.2,1.8,0.6,2.5
	c0.4,0.7,0.9,1.3,1.6,1.7c0.7,0.4,1.5,0.6,2.5,0.6c1,0,1.9-0.2,2.7-0.7c0.7-0.5,1.3-1.1,1.7-1.9c0.4-0.8,0.6-1.7,0.6-2.6v-2.1
	c0-1.2-0.2-2.3-0.7-3.2c-0.4-0.9-1-1.5-1.8-2c-0.8-0.5-1.7-0.7-2.8-0.7c-0.7,0-1.3,0.1-1.9,0.3c-0.6,0.2-1.1,0.5-1.5,0.9
	c-0.4,0.4-0.7,0.9-0.9,1.5l-3.4-0.6c0.3-1,0.8-1.9,1.5-2.6c0.7-0.8,1.6-1.3,2.7-1.8C87.6,48.3,88.8,48.1,90.1,48.1z M102.3,74V48.5
	h3.5v3h0.3c0.2-0.4,0.5-0.8,0.9-1.3c0.4-0.5,0.9-0.9,1.6-1.3c0.7-0.4,1.6-0.6,2.8-0.6c1.5,0,2.8,0.4,4,1.1c1.2,0.8,2.1,1.8,2.8,3.3
	c0.7,1.4,1,3.1,1,5.1s-0.3,3.7-1,5.2c-0.7,1.4-1.6,2.5-2.8,3.3c-1.2,0.8-2.5,1.1-4,1.1c-1.1,0-2-0.2-2.8-0.6
	c-0.7-0.4-1.3-0.8-1.7-1.3c-0.4-0.5-0.7-1-0.9-1.4h-0.2V74H102.3z M105.8,57.7c0,1.3,0.2,2.4,0.6,3.4c0.4,1,0.9,1.8,1.6,2.3
	c0.7,0.5,1.6,0.8,2.6,0.8c1.1,0,2-0.3,2.7-0.9c0.7-0.6,1.3-1.4,1.6-2.4c0.4-1,0.6-2.1,0.6-3.3c0-1.2-0.2-2.3-0.6-3.3
	c-0.4-1-0.9-1.7-1.6-2.3c-0.7-0.6-1.6-0.8-2.7-0.8c-1,0-1.9,0.3-2.7,0.8c-0.7,0.5-1.3,1.3-1.6,2.3C106,55.3,105.8,56.4,105.8,57.7z
	 M124.2,74c-0.5,0-1,0-1.5-0.1c-0.4-0.1-0.8-0.2-1-0.3l0.9-3c0.7,0.2,1.2,0.3,1.8,0.2c0.5,0,1-0.2,1.4-0.6c0.4-0.4,0.8-1,1.1-1.8
	l0.4-1.2l-6.8-18.8h3.9l4.7,14.4h0.2l4.7-14.4h3.9l-7.6,21c-0.4,1-0.8,1.8-1.4,2.5c-0.5,0.7-1.2,1.2-2,1.5
	C126.1,73.8,125.2,74,124.2,74z M150.9,62.5l6-14.1h3.1L152.3,67h-2.7L142,48.5h3.1L150.9,62.5z M144.1,48.5V67h-3.5V48.5H144.1z
	 M157.9,67V48.5h3.5V67H157.9z M173.6,67.4c-1.8,0-3.4-0.4-4.7-1.2c-1.3-0.8-2.3-1.9-3-3.3c-0.7-1.4-1.1-3.1-1.1-5
	c0-1.9,0.4-3.6,1.1-5c0.7-1.4,1.7-2.6,3-3.4c1.3-0.8,2.8-1.2,4.5-1.2c1,0,2.1,0.2,3,0.5c1,0.3,1.9,0.9,2.6,1.6
	c0.8,0.7,1.4,1.7,1.8,2.9c0.5,1.2,0.7,2.6,0.7,4.3v1.3h-14.7v-2.7H178c0-0.9-0.2-1.8-0.6-2.5c-0.4-0.7-0.9-1.3-1.6-1.8
	c-0.7-0.4-1.5-0.6-2.4-0.6c-1,0-1.9,0.2-2.7,0.7c-0.7,0.5-1.3,1.1-1.7,1.9c-0.4,0.8-0.6,1.6-0.6,2.6v2.1c0,1.2,0.2,2.3,0.7,3.2
	c0.4,0.9,1.1,1.5,1.8,2c0.8,0.5,1.7,0.7,2.8,0.7c0.7,0,1.3-0.1,1.9-0.3c0.6-0.2,1.1-0.5,1.5-0.9c0.4-0.4,0.7-0.9,0.9-1.5l3.4,0.6
	c-0.3,1-0.8,1.9-1.5,2.6c-0.7,0.7-1.6,1.3-2.6,1.8C176.1,67.2,174.9,67.4,173.6,67.4z M197.4,56.2v3.1h-10v-3.1H197.4z M188.4,48.5
	V67h-3.5V48.5H188.4z M199.9,48.5V67h-3.5V48.5H199.9z M204.1,67V48.5h3.6V67H204.1z M205.9,45.6c-0.6,0-1.2-0.2-1.6-0.6
	c-0.4-0.4-0.7-0.9-0.7-1.5c0-0.6,0.2-1.1,0.7-1.5c0.5-0.4,1-0.6,1.6-0.6c0.6,0,1.2,0.2,1.6,0.6c0.4,0.4,0.7,0.9,0.7,1.5
	c0,0.6-0.2,1.1-0.7,1.5C207.1,45.4,206.5,45.6,205.9,45.6z"/>
</svg>
