<?xml version="1.0" encoding="utf-8"?>
<!-- Generator: Adobe Illustrator 25.2.3, SVG Export Plug-In . SVG Version: 6.00 Build 0)  -->
<svg version="1.1" id="Layer_1" xmlns="http://www.w3.org/2000/svg" xmlns:xlink="http://www.w3.org/1999/xlink" x="0px" y="0px"
	 viewBox="0 0 192 47" style="enable-background:new 0 0 192 47;" xml:space="preserve">
<style type="text/css">
	.st0{fill:url(#SVGID_1_);}
	.st1{fill:#FFFFFF;}
</style>
<radialGradient id="SVGID_1_" cx="94.6667" cy="1004.6971" r="117.2252" gradientTransform="matrix(1 0 0 0.6249 0 -632.7352)" gradientUnits="userSpaceOnUse">
	<stop  offset="0.1453" style="stop-color:#5DE52D"/>
	<stop  offset="0.905" style="stop-color:#00882E"/>
</radialGradient>
<path class="st0" d="M26.5,0h139C180.1,0,192,10.6,192,23.5l0,0c0,12.9-11.9,23.5-26.5,23.5h-139C11.9,47,0,36.4,0,23.5l0,0
	C0,10.6,11.9,0,26.5,0z"/>
<g>
	<path class="st1" d="M41.8,12.3v18.9h-3.9V12.3H41.8z M26.5,31.2l5.9-10l-5.7-8.9h4.9l4.2,7.8h8l4.1-7.8h4.9l-5.5,8.9l5.8,10h-4.8
		l-4-7.4h-9.1l-4.1,7.4H26.5z M59.6,31.5c-0.9,0-1.7-0.2-2.4-0.5s-1.3-0.8-1.7-1.4c-0.4-0.6-0.6-1.4-0.6-2.3c0-0.8,0.1-1.4,0.4-2
		c0.3-0.5,0.7-1,1.2-1.3s1.1-0.6,1.7-0.7c0.6-0.2,1.3-0.3,2-0.4c0.8-0.1,1.5-0.2,2-0.2c0.5-0.1,0.9-0.2,1.1-0.4
		c0.2-0.2,0.3-0.4,0.3-0.7v-0.1c0-0.6-0.2-1-0.6-1.4c-0.4-0.3-0.9-0.5-1.6-0.5c-0.7,0-1.3,0.2-1.7,0.5s-0.7,0.7-0.8,1.2L55.3,21
		c0.2-0.9,0.5-1.6,1.1-2.2c0.5-0.6,1.2-1.1,2.1-1.5c0.9-0.3,1.9-0.5,3-0.5c0.8,0,1.5,0.1,2.3,0.3c0.7,0.2,1.4,0.5,1.9,0.9
		c0.6,0.4,1,0.9,1.3,1.5s0.5,1.3,0.5,2.2v9.6h-3.7v-2h-0.1c-0.2,0.4-0.5,0.8-0.9,1.2c-0.4,0.3-0.8,0.6-1.4,0.8
		C60.9,31.4,60.3,31.5,59.6,31.5z M60.7,28.8c0.6,0,1.1-0.1,1.5-0.3c0.4-0.2,0.8-0.5,1-0.9c0.3-0.4,0.4-0.8,0.4-1.3v-1.5
		c-0.1,0.1-0.3,0.2-0.5,0.2c-0.2,0.1-0.4,0.1-0.7,0.2c-0.3,0-0.5,0.1-0.8,0.1s-0.5,0.1-0.7,0.1c-0.5,0.1-0.9,0.2-1.2,0.3
		c-0.3,0.1-0.6,0.3-0.8,0.6c-0.2,0.2-0.3,0.6-0.3,0.9c0,0.5,0.2,0.9,0.6,1.2C59.6,28.6,60.1,28.8,60.7,28.8z M80.5,22.6v3.1h-7.4
		v-3.1H80.5z M74.4,17v14.2h-3.8V17H74.4z M82.9,17v14.2h-3.7V17H82.9z M86.7,28.5v7.3h-3.8v-7.3H86.7z M93.1,31.5
		c-0.9,0-1.7-0.2-2.4-0.5c-0.7-0.3-1.3-0.8-1.7-1.4c-0.4-0.6-0.6-1.4-0.6-2.3c0-0.8,0.1-1.4,0.4-2c0.3-0.5,0.7-1,1.2-1.3
		s1.1-0.6,1.7-0.7c0.6-0.2,1.3-0.3,2-0.4c0.8-0.1,1.5-0.2,2-0.2c0.5-0.1,0.9-0.2,1.1-0.4c0.2-0.2,0.3-0.4,0.3-0.7v-0.1
		c0-0.6-0.2-1-0.6-1.4c-0.4-0.3-0.9-0.5-1.6-0.5s-1.3,0.2-1.7,0.5c-0.4,0.3-0.7,0.7-0.8,1.2L88.8,21c0.2-0.9,0.5-1.6,1.1-2.2
		c0.5-0.6,1.2-1.1,2.1-1.5c0.9-0.3,1.9-0.5,3-0.5c0.8,0,1.5,0.1,2.3,0.3c0.7,0.2,1.4,0.5,1.9,0.9c0.6,0.4,1,0.9,1.3,1.5
		s0.5,1.3,0.5,2.2v9.6h-3.7v-2h-0.1c-0.2,0.4-0.5,0.8-0.9,1.2C96,30.8,95.5,31,95,31.2C94.4,31.4,93.8,31.5,93.1,31.5z M94.2,28.8
		c0.6,0,1.1-0.1,1.5-0.3c0.4-0.2,0.8-0.5,1-0.9c0.3-0.4,0.4-0.8,0.4-1.3v-1.5C97,24.9,96.8,25,96.6,25c-0.1-0.1-0.4,0-0.6,0
		c-0.3,0-0.5,0.1-0.8,0.1s-0.5,0.1-0.7,0.1c-0.5,0.1-0.9,0.2-1.2,0.3c-0.3,0.1-0.6,0.3-0.8,0.6c-0.2,0.2-0.3,0.6-0.3,0.9
		c0,0.5,0.2,0.9,0.6,1.2C93.1,28.6,93.6,28.8,94.2,28.8z M121.2,23v2.3H112V23H121.2z M116.6,31.5c-1.4,0-2.7-0.3-3.7-0.9
		c-1-0.6-1.8-1.5-2.4-2.6s-0.8-2.4-0.8-3.8c0-1.5,0.3-2.7,0.8-3.8c0.6-1.1,1.4-2,2.4-2.6s2.3-0.9,3.7-0.9c1.4,0,2.7,0.3,3.7,0.9
		s1.9,1.5,2.4,2.6c0.6,1.1,0.8,2.4,0.8,3.8c0,1.5-0.3,2.7-0.8,3.8c-0.6,1.1-1.4,2-2.4,2.6C119.2,31.2,118,31.5,116.6,31.5z
		 M116.6,28.4c0.7,0,1.2-0.2,1.6-0.6s0.8-0.9,1-1.5s0.3-1.4,0.3-2.2c0-0.8-0.1-1.6-0.3-2.2c-0.2-0.6-0.6-1.2-1-1.5
		c-0.4-0.4-1-0.6-1.6-0.6c-0.7,0-1.2,0.2-1.7,0.6c-0.4,0.4-0.8,0.9-1,1.5s-0.3,1.4-0.3,2.2c0,0.8,0.1,1.6,0.3,2.2
		c0.2,0.6,0.6,1.2,1,1.5C115.4,28.3,115.9,28.4,116.6,28.4z M136,22.6v3.1h-7.4v-3.1H136z M129.9,17v14.2h-3.8V17H129.9z M138.5,17
		v14.2h-3.7V17H138.5z M141.5,31.2V17h3.9v14.2H141.5z M143.5,15.2c-0.6,0-1.1-0.2-1.5-0.6s-0.6-0.9-0.6-1.4s0.2-1,0.6-1.4
		c0.4-0.4,0.9-0.6,1.5-0.6s1.1,0.2,1.5,0.6c0.4,0.4,0.6,0.9,0.6,1.4s-0.2,1-0.6,1.4C144.6,15,144.1,15.2,143.5,15.2z M157,26.9
		l3.8-9.8h3l-5.5,14.2h-2.6L150.3,17h3L157,26.9z M152.3,17v14.2h-3.8V17H152.3z M161.8,31.2V17h3.7v14.2H161.8z"/>
</g>
</svg>
