<?xml version="1.0" encoding="utf-8"?>
<!-- Generator: Adobe Illustrator 25.2.3, SVG Export Plug-In . SVG Version: 6.00 Build 0)  -->
<svg version="1.1" id="Layer_1" xmlns="http://www.w3.org/2000/svg" xmlns:xlink="http://www.w3.org/1999/xlink" x="0px" y="0px"
	 viewBox="0 0 222.9 63.4" style="enable-background:new 0 0 222.9 63.4;" xml:space="preserve">
<style type="text/css">
	.st0{fill:#6A6165;}
	.st1{fill:#525252;}
</style>
<g>
	<path class="st0" d="M3.4,54.6C3.2,54.8,3,55,2.7,55.2c-0.3,0.1-0.5,0.2-0.9,0.3v-0.6c0.5,0,0.8-0.2,1.1-0.4
		c0.3-0.3,0.4-0.6,0.6-0.9H4v9.8H3.4V54.6z M7.9,53.4c0.4,0,0.7,0.1,1,0.2c0.3,0.1,0.5,0.3,0.7,0.5c0.2,0.2,0.3,0.5,0.4,0.8
		c0.1,0.3,0.1,0.6,0.1,1v0.2c0,0.5-0.1,0.9-0.3,1.3c-0.2,0.4-0.5,0.6-1,0.8c0.4,0.1,0.8,0.4,1,0.7c0.2,0.4,0.3,0.8,0.3,1.3v0.8
		c0,0.4,0,0.7-0.1,1c-0.1,0.3-0.2,0.6-0.4,0.8c-0.2,0.2-0.4,0.4-0.7,0.5c-0.3,0.1-0.6,0.2-1,0.2c-0.4,0-0.7-0.1-1-0.2
		c-0.3-0.1-0.5-0.3-0.7-0.5c-0.2-0.2-0.3-0.5-0.4-0.8c-0.1-0.3-0.1-0.6-0.1-1v-0.6h0.6v0.6c0,0.3,0,0.5,0.1,0.7
		c0.1,0.2,0.1,0.4,0.3,0.6c0.1,0.2,0.3,0.3,0.5,0.4c0.2,0.1,0.4,0.1,0.7,0.1c0.5,0,0.9-0.2,1.1-0.5c0.2-0.4,0.3-0.8,0.3-1.4v-0.8
		c0-0.5-0.1-0.9-0.4-1.2c-0.2-0.3-0.6-0.4-1.1-0.5H7.3v-0.6H8c0.4,0,0.8-0.2,1-0.5c0.3-0.3,0.4-0.7,0.4-1.2v-0.3
		c0-0.6-0.1-1-0.3-1.4C8.8,54.2,8.5,54,7.9,54S7,54.2,6.8,54.5c-0.2,0.3-0.3,0.8-0.3,1.3v0.4H5.8v-0.3c0-0.4,0-0.7,0.1-1
		c0.1-0.3,0.2-0.6,0.4-0.8c0.2-0.2,0.4-0.4,0.7-0.5C7.2,53.5,7.6,53.4,7.9,53.4z M12.2,62.1v1.2h-0.6v-1.2H12.2z M15.6,54.6
		c-0.2,0.2-0.4,0.4-0.7,0.6c-0.3,0.1-0.5,0.2-0.9,0.3v-0.6c0.5,0,0.8-0.2,1.1-0.4c0.3-0.3,0.4-0.6,0.6-0.9h0.5v9.8h-0.6V54.6z
		 M20.2,53.4c0.4,0,0.7,0.1,1,0.2c0.3,0.1,0.5,0.3,0.7,0.5c0.2,0.2,0.3,0.5,0.4,0.8c0.1,0.3,0.1,0.6,0.1,1c0,0.5-0.1,0.9-0.3,1.3
		c-0.2,0.4-0.4,0.7-0.7,1.1c-0.3,0.3-0.5,0.7-0.9,1c-0.3,0.3-0.6,0.6-0.9,1c-0.3,0.3-0.5,0.7-0.7,1.1c-0.2,0.4-0.3,0.8-0.3,1.3v0.1
		h3.5v0.6h-4.1v-0.5c0-0.6,0.1-1.1,0.3-1.5c0.2-0.4,0.4-0.8,0.7-1.2c0.3-0.4,0.6-0.7,0.9-1c0.3-0.3,0.6-0.6,0.9-1
		c0.3-0.3,0.5-0.7,0.7-1c0.2-0.4,0.3-0.8,0.3-1.2c0-0.6-0.1-1-0.3-1.4c-0.2-0.4-0.6-0.5-1.2-0.5c-0.3,0-0.5,0.1-0.7,0.2
		c-0.2,0.1-0.3,0.2-0.5,0.4c-0.1,0.2-0.2,0.4-0.3,0.6c0,0.2-0.1,0.5-0.1,0.7v0.7h-0.6v-0.6c0-0.4,0-0.7,0.1-1
		c0.1-0.3,0.2-0.6,0.4-0.8c0.2-0.2,0.4-0.4,0.6-0.5C19.5,53.5,19.8,53.4,20.2,53.4z M24.4,62.1v1.2h-0.6v-1.2H24.4z M28,53.4
		c0.4,0,0.7,0.1,1,0.2c0.3,0.1,0.5,0.3,0.7,0.5c0.2,0.2,0.3,0.5,0.4,0.8c0.1,0.3,0.1,0.6,0.1,1c0,0.5-0.1,0.9-0.3,1.3
		c-0.2,0.4-0.4,0.7-0.7,1.1c-0.3,0.3-0.5,0.7-0.9,1c-0.3,0.3-0.6,0.6-0.9,1c-0.3,0.3-0.5,0.7-0.7,1.1c-0.2,0.4-0.3,0.8-0.3,1.3v0.1
		h3.5v0.6h-4.1v-0.5c0-0.6,0.1-1.1,0.3-1.5c0.2-0.4,0.4-0.8,0.7-1.2c0.3-0.4,0.6-0.7,0.9-1c0.3-0.3,0.6-0.6,0.9-1
		c0.3-0.3,0.5-0.7,0.7-1c0.2-0.4,0.3-0.8,0.3-1.2c0-0.6-0.1-1-0.3-1.4C29,54.2,28.6,54,28,54c-0.3,0-0.5,0.1-0.7,0.2
		c-0.2,0.1-0.3,0.2-0.5,0.4c-0.1,0.2-0.2,0.4-0.3,0.6c0,0.2-0.1,0.5-0.1,0.7v0.7h-0.6v-0.6c0-0.4,0-0.7,0.1-1
		c0.1-0.3,0.2-0.6,0.4-0.8c0.2-0.2,0.4-0.4,0.6-0.5C27.3,53.5,27.7,53.4,28,53.4z M31.6,55.9c0-0.4,0-0.7,0.1-1
		c0.1-0.3,0.2-0.6,0.4-0.8c0.2-0.2,0.4-0.4,0.7-0.5c0.3-0.1,0.6-0.2,1-0.2c0.4,0,0.7,0.1,1,0.2c0.3,0.1,0.5,0.3,0.7,0.5
		c0.2,0.2,0.3,0.5,0.4,0.8c0.1,0.3,0.1,0.6,0.1,1v5c0,0.4,0,0.7-0.1,1c-0.1,0.3-0.2,0.6-0.4,0.8c-0.2,0.2-0.4,0.4-0.7,0.5
		c-0.3,0.1-0.6,0.2-1,0.2c-0.4,0-0.7-0.1-1-0.2c-0.3-0.1-0.5-0.3-0.7-0.5c-0.2-0.2-0.3-0.5-0.4-0.8c-0.1-0.3-0.1-0.6-0.1-1V55.9z
		 M32.2,60.9c0,0.5,0.1,1,0.3,1.3c0.2,0.3,0.6,0.5,1.2,0.5c0.5,0,0.9-0.2,1.2-0.5c0.2-0.4,0.3-0.8,0.3-1.3v-5.1c0-0.5-0.1-1-0.3-1.3
		c-0.2-0.4-0.6-0.5-1.2-0.5c-0.5,0-0.9,0.2-1.2,0.5c-0.2,0.3-0.3,0.8-0.3,1.3V60.9z M39.5,53.4c0.4,0,0.7,0.1,1,0.2
		c0.3,0.1,0.5,0.3,0.7,0.5c0.2,0.2,0.3,0.5,0.4,0.8c0.1,0.3,0.1,0.6,0.1,1c0,0.5-0.1,0.9-0.3,1.3c-0.2,0.4-0.4,0.7-0.7,1.1
		c-0.3,0.3-0.5,0.7-0.9,1c-0.3,0.3-0.6,0.6-0.9,1c-0.3,0.3-0.5,0.7-0.7,1.1c-0.2,0.4-0.3,0.8-0.3,1.3v0.1h3.5v0.6h-4.1v-0.5
		c0-0.6,0.1-1.1,0.3-1.5c0.2-0.4,0.4-0.8,0.7-1.2c0.3-0.4,0.6-0.7,0.9-1c0.3-0.3,0.6-0.6,0.9-1c0.3-0.3,0.5-0.7,0.7-1
		c0.2-0.4,0.3-0.8,0.3-1.2c0-0.6-0.1-1-0.3-1.4C40.4,54.2,40,54,39.5,54c-0.3,0-0.5,0.1-0.7,0.2c-0.2,0.1-0.3,0.2-0.5,0.4
		c-0.1,0.2-0.2,0.4-0.3,0.6c0,0.2-0.1,0.5-0.1,0.7v0.7h-0.6v-0.6c0-0.4,0-0.7,0.1-1c0.1-0.3,0.2-0.6,0.4-0.8
		c0.2-0.2,0.4-0.4,0.6-0.5C38.8,53.5,39.1,53.4,39.5,53.4z M44.9,54.6c-0.2,0.2-0.4,0.4-0.7,0.6c-0.3,0.1-0.5,0.2-0.9,0.3v-0.6
		c0.5,0,0.8-0.2,1.1-0.4c0.3-0.3,0.4-0.6,0.6-0.9h0.5v9.8h-0.6V54.6z M54.8,58.4l-0.7,1.1v3.8h-0.6v-3.8l-0.6-1.1l-2.3,4.9h-0.7
		l2.6-5.5L50,53.5h0.7l2.9,5v-5h0.6v5l2.9-5h0.7l-2.4,4.3l2.5,5.5h-0.7L54.8,58.4z M59.8,62.1v1.2h-0.6v-1.2H59.8z M64.8,61.1
		l-0.5,2.2h-0.6l2.1-9.8h0.9l2.2,9.8h-0.6l-0.5-2.2H64.8z M64.9,60.6h2.9l-1.4-6.3L64.9,60.6z M73.7,63.3h-0.6L71,54.6v8.7h-0.6
		v-9.8h0.9l2.1,8.7l2-8.7h0.9v9.8h-0.6v-8.7L73.7,63.3z M78.5,62.1v1.2h-0.6v-1.2H78.5z M80,55.9c0-0.4,0-0.7,0.1-1
		c0.1-0.3,0.2-0.6,0.4-0.8c0.2-0.2,0.4-0.4,0.7-0.5c0.3-0.1,0.6-0.2,1-0.2c0.4,0,0.7,0.1,1,0.2c0.3,0.1,0.5,0.3,0.7,0.5
		c0.2,0.2,0.3,0.5,0.4,0.8c0.1,0.3,0.1,0.6,0.1,1v5c0,0.4,0,0.7-0.1,1c-0.1,0.3-0.2,0.6-0.4,0.8c-0.2,0.2-0.4,0.4-0.7,0.5
		c-0.3,0.1-0.6,0.2-1,0.2c-0.4,0-0.7-0.1-1-0.2c-0.3-0.1-0.5-0.3-0.7-0.5c-0.2-0.2-0.3-0.5-0.4-0.8c-0.1-0.3-0.1-0.6-0.1-1V55.9z
		 M80.7,60.9c0,0.5,0.1,1,0.3,1.3c0.2,0.3,0.6,0.5,1.2,0.5c0.5,0,0.9-0.2,1.2-0.5c0.2-0.4,0.3-0.8,0.3-1.3v-5.1c0-0.5-0.1-1-0.3-1.3
		c-0.2-0.4-0.6-0.5-1.2-0.5c-0.5,0-0.9,0.2-1.2,0.5c-0.2,0.3-0.3,0.8-0.3,1.3V60.9z M87.7,54.6c-0.2,0.2-0.4,0.4-0.7,0.6
		c-0.3,0.1-0.5,0.2-0.9,0.3v-0.6c0.5,0,0.8-0.2,1.1-0.4c0.3-0.3,0.4-0.6,0.6-0.9h0.5v9.8h-0.6V54.6z M90.8,62.1v1.2h-0.6v-1.2H90.8z
		 M92.3,55.9c0-0.4,0-0.7,0.1-1c0.1-0.3,0.2-0.6,0.4-0.8c0.2-0.2,0.4-0.4,0.7-0.5c0.3-0.1,0.6-0.2,1-0.2c0.4,0,0.7,0.1,1,0.2
		c0.3,0.1,0.5,0.3,0.7,0.5c0.2,0.2,0.3,0.5,0.4,0.8c0.1,0.3,0.1,0.6,0.1,1v5c0,0.4,0,0.7-0.1,1c-0.1,0.3-0.2,0.6-0.4,0.8
		c-0.2,0.2-0.4,0.4-0.7,0.5c-0.3,0.1-0.6,0.2-1,0.2c-0.4,0-0.7-0.1-1-0.2c-0.3-0.1-0.5-0.3-0.7-0.5c-0.2-0.2-0.3-0.5-0.4-0.8
		c-0.1-0.3-0.1-0.6-0.1-1V55.9z M92.9,60.9c0,0.5,0.1,1,0.3,1.3c0.2,0.3,0.6,0.5,1.2,0.5c0.5,0,0.9-0.2,1.2-0.5
		c0.2-0.4,0.3-0.8,0.3-1.3v-5.1c0-0.5-0.1-1-0.3-1.3C95.4,54.2,95,54,94.5,54c-0.5,0-0.9,0.2-1.2,0.5c-0.2,0.3-0.3,0.8-0.3,1.3V60.9
		z M101.6,54.1H98v-0.6h4.3v0.6l-2.8,9.2h-0.7L101.6,54.1z M104.4,62.1v1.2h-0.6v-1.2H104.4z M105.9,55.9c0-0.4,0-0.7,0.1-1
		c0.1-0.3,0.2-0.6,0.4-0.8c0.2-0.2,0.4-0.4,0.7-0.5c0.3-0.1,0.6-0.2,1-0.2s0.7,0.1,1,0.2c0.3,0.1,0.5,0.3,0.7,0.5
		c0.2,0.2,0.3,0.5,0.4,0.8c0.1,0.3,0.1,0.6,0.1,1v5c0,0.4,0,0.7-0.1,1c-0.1,0.3-0.2,0.6-0.4,0.8c-0.2,0.2-0.4,0.4-0.7,0.5
		c-0.3,0.1-0.6,0.2-1,0.2s-0.7-0.1-1-0.2c-0.3-0.1-0.5-0.3-0.7-0.5c-0.2-0.2-0.3-0.5-0.4-0.8c-0.1-0.3-0.1-0.6-0.1-1V55.9z
		 M106.6,60.9c0,0.5,0.1,1,0.3,1.3c0.2,0.3,0.6,0.5,1.2,0.5s0.9-0.2,1.2-0.5c0.2-0.4,0.4-0.8,0.4-1.3v-5.1c0-0.5-0.1-1-0.4-1.3
		c-0.2-0.4-0.6-0.5-1.2-0.5s-0.9,0.2-1.2,0.5c-0.2,0.3-0.3,0.8-0.3,1.3V60.9z M113.6,54.6c-0.2,0.2-0.4,0.4-0.7,0.6
		c-0.3,0.1-0.5,0.2-0.9,0.3v-0.6c0.5,0,0.8-0.2,1.1-0.4c0.3-0.3,0.4-0.6,0.6-0.9h0.5v9.8h-0.6V54.6z M116.7,62.1v1.2h-0.6v-1.2
		H116.7z M118.2,55.9c0-0.4,0-0.7,0.1-1c0.1-0.3,0.2-0.6,0.4-0.8c0.2-0.2,0.4-0.4,0.7-0.5c0.3-0.1,0.6-0.2,1-0.2s0.7,0.1,1,0.2
		c0.3,0.1,0.5,0.3,0.7,0.5c0.2,0.2,0.3,0.5,0.4,0.8c0.1,0.3,0.1,0.6,0.1,1v5c0,0.4,0,0.7-0.1,1c-0.1,0.3-0.2,0.6-0.4,0.8
		c-0.2,0.2-0.4,0.4-0.7,0.5c-0.3,0.1-0.6,0.2-1,0.2s-0.7-0.1-1-0.2c-0.3-0.1-0.5-0.3-0.7-0.5c-0.2-0.2-0.3-0.5-0.4-0.8
		c-0.1-0.3-0.1-0.6-0.1-1V55.9z M118.8,60.9c0,0.5,0.1,1,0.4,1.3c0.2,0.3,0.6,0.5,1.2,0.5s0.9-0.2,1.2-0.5c0.2-0.4,0.3-0.8,0.3-1.3
		v-5.1c0-0.5-0.1-1-0.3-1.3c-0.2-0.4-0.6-0.5-1.2-0.5s-0.9,0.2-1.2,0.5c-0.2,0.3-0.4,0.8-0.4,1.3V60.9z M123.9,55.9
		c0-0.4,0-0.7,0.1-1c0.1-0.3,0.2-0.6,0.4-0.8c0.2-0.2,0.4-0.4,0.7-0.5c0.3-0.1,0.6-0.2,1-0.2s0.7,0.1,1,0.2c0.3,0.1,0.5,0.3,0.7,0.5
		c0.2,0.2,0.3,0.5,0.4,0.8c0.1,0.3,0.1,0.6,0.1,1v5c0,0.4,0,0.7-0.1,1c-0.1,0.3-0.2,0.6-0.4,0.8c-0.2,0.2-0.4,0.4-0.7,0.5
		c-0.3,0.1-0.6,0.2-1,0.2s-0.7-0.1-1-0.2c-0.3-0.1-0.5-0.3-0.7-0.5c-0.2-0.2-0.3-0.5-0.4-0.8c-0.1-0.3-0.1-0.6-0.1-1V55.9z
		 M124.6,60.9c0,0.5,0.1,1,0.3,1.3c0.2,0.3,0.6,0.5,1.2,0.5s0.9-0.2,1.2-0.5c0.2-0.4,0.3-0.8,0.3-1.3v-5.1c0-0.5-0.1-1-0.3-1.3
		c-0.2-0.4-0.6-0.5-1.2-0.5s-0.9,0.2-1.2,0.5c-0.2,0.3-0.3,0.8-0.3,1.3V60.9z M131.8,53.4c0.4,0,0.7,0.1,1,0.2
		c0.3,0.1,0.5,0.3,0.7,0.5c0.2,0.2,0.3,0.5,0.4,0.8c0.1,0.3,0.1,0.6,0.1,1v0.2c0,0.5-0.1,0.9-0.3,1.3c-0.2,0.4-0.5,0.6-1,0.8
		c0.4,0.1,0.8,0.4,1,0.7c0.2,0.4,0.3,0.8,0.3,1.3v0.8c0,0.4,0,0.7-0.1,1c-0.1,0.3-0.2,0.6-0.4,0.8c-0.2,0.2-0.4,0.4-0.7,0.5
		c-0.3,0.1-0.6,0.2-1,0.2c-0.4,0-0.7-0.1-1-0.2c-0.3-0.1-0.5-0.3-0.7-0.5c-0.2-0.2-0.3-0.5-0.4-0.8c-0.1-0.3-0.1-0.6-0.1-1v-0.6h0.6
		v0.6c0,0.3,0,0.5,0.1,0.7c0.1,0.2,0.1,0.4,0.3,0.6c0.1,0.2,0.3,0.3,0.5,0.4c0.2,0.1,0.4,0.1,0.7,0.1c0.5,0,0.9-0.2,1.1-0.5
		c0.2-0.4,0.3-0.8,0.3-1.4v-0.8c0-0.5-0.1-0.9-0.4-1.2c-0.2-0.3-0.6-0.4-1.1-0.5h-0.7v-0.6h0.7c0.4,0,0.8-0.2,1-0.5
		c0.3-0.3,0.4-0.7,0.4-1.2v-0.3c0-0.6-0.1-1-0.3-1.4s-0.6-0.5-1.1-0.5s-0.9,0.2-1.1,0.5c-0.2,0.3-0.3,0.8-0.3,1.3v0.4h-0.6v-0.3
		c0-0.4,0-0.7,0.1-1c0.1-0.3,0.2-0.6,0.4-0.8c0.2-0.2,0.4-0.4,0.7-0.5C131.1,53.5,131.4,53.4,131.8,53.4z M136.1,62.1v1.2h-0.6v-1.2
		H136.1z M139.6,53.5c0.7,0,1.3,0.2,1.6,0.6c0.3,0.4,0.5,0.9,0.5,1.6v0.9c0,1.1-0.5,1.8-1.4,2c0.5,0.1,0.9,0.3,1.1,0.7
		c0.2,0.3,0.3,0.8,0.3,1.3v1.5c0,0.2,0,0.4,0,0.6c0,0.2,0.1,0.4,0.2,0.5h-0.7c-0.1-0.1-0.1-0.3-0.2-0.5c0-0.2,0-0.4,0-0.7v-1.5
		c0-0.3,0-0.6-0.1-0.8s-0.2-0.4-0.4-0.5c-0.2-0.1-0.4-0.2-0.6-0.3c-0.2-0.1-0.5-0.1-0.8-0.1h-1v4.4h-0.6v-9.8H139.6z M139.3,58.3
		c0.3,0,0.5,0,0.8-0.1c0.2,0,0.4-0.1,0.6-0.3c0.2-0.1,0.3-0.3,0.4-0.5s0.1-0.5,0.1-0.8v-0.9c0-0.5-0.1-0.9-0.3-1.2
		c-0.2-0.3-0.6-0.4-1.1-0.4h-1.4v4.2H139.3z M144.1,62.1v1.2h-0.6v-1.2H144.1z M145.5,55.9c0-0.4,0-0.7,0.1-1
		c0.1-0.3,0.2-0.6,0.4-0.8c0.2-0.2,0.4-0.4,0.7-0.5c0.3-0.1,0.6-0.2,1-0.2s0.7,0.1,1,0.2c0.3,0.1,0.5,0.3,0.7,0.5
		c0.2,0.2,0.3,0.5,0.4,0.8c0.1,0.3,0.1,0.6,0.1,1v5c0,0.4,0,0.7-0.1,1c-0.1,0.3-0.2,0.6-0.4,0.8c-0.2,0.2-0.4,0.4-0.7,0.5
		c-0.3,0.1-0.6,0.2-1,0.2s-0.7-0.1-1-0.2c-0.3-0.1-0.5-0.3-0.7-0.5c-0.2-0.2-0.3-0.5-0.4-0.8c-0.1-0.3-0.1-0.6-0.1-1V55.9z
		 M146.2,60.9c0,0.5,0.1,1,0.4,1.3c0.2,0.3,0.6,0.5,1.2,0.5s0.9-0.2,1.2-0.5c0.2-0.4,0.4-0.8,0.4-1.3v-5.1c0-0.5-0.1-1-0.4-1.3
		c-0.2-0.4-0.6-0.5-1.2-0.5s-0.9,0.2-1.2,0.5c-0.2,0.3-0.4,0.8-0.4,1.3V60.9z M151.3,55.9c0-0.4,0-0.7,0.1-1
		c0.1-0.3,0.2-0.6,0.4-0.8c0.2-0.2,0.4-0.4,0.7-0.5c0.3-0.1,0.6-0.2,1-0.2s0.7,0.1,1,0.2c0.3,0.1,0.5,0.3,0.7,0.5
		c0.2,0.2,0.3,0.5,0.4,0.8c0.1,0.3,0.1,0.6,0.1,1v5c0,0.4,0,0.7-0.1,1c-0.1,0.3-0.2,0.6-0.4,0.8c-0.2,0.2-0.4,0.4-0.7,0.5
		c-0.3,0.1-0.6,0.2-1,0.2s-0.7-0.1-1-0.2c-0.3-0.1-0.5-0.3-0.7-0.5c-0.2-0.2-0.3-0.5-0.4-0.8c-0.1-0.3-0.1-0.6-0.1-1V55.9z
		 M151.9,60.9c0,0.5,0.1,1,0.4,1.3c0.2,0.3,0.6,0.5,1.2,0.5s0.9-0.2,1.2-0.5c0.2-0.4,0.3-0.8,0.3-1.3v-5.1c0-0.5-0.1-1-0.3-1.3
		c-0.2-0.4-0.6-0.5-1.2-0.5s-0.9,0.2-1.2,0.5c-0.2,0.3-0.4,0.8-0.4,1.3V60.9z M157,55.9c0-0.4,0-0.7,0.1-1c0.1-0.3,0.2-0.6,0.4-0.8
		c0.2-0.2,0.4-0.4,0.7-0.5c0.3-0.1,0.6-0.2,1-0.2s0.7,0.1,1,0.2c0.3,0.1,0.5,0.3,0.7,0.5c0.2,0.2,0.3,0.5,0.4,0.8
		c0.1,0.3,0.1,0.6,0.1,1v5c0,0.4,0,0.7-0.1,1c-0.1,0.3-0.2,0.6-0.4,0.8c-0.2,0.2-0.4,0.4-0.7,0.5c-0.3,0.1-0.6,0.2-1,0.2
		s-0.7-0.1-1-0.2c-0.3-0.1-0.5-0.3-0.7-0.5c-0.2-0.2-0.3-0.5-0.4-0.8c-0.1-0.3-0.1-0.6-0.1-1V55.9z M157.7,60.9c0,0.5,0.1,1,0.4,1.3
		c0.2,0.3,0.6,0.5,1.2,0.5s0.9-0.2,1.2-0.5c0.2-0.4,0.3-0.8,0.3-1.3v-5.1c0-0.5-0.1-1-0.3-1.3c-0.2-0.4-0.6-0.5-1.2-0.5
		s-0.9,0.2-1.2,0.5c-0.2,0.3-0.4,0.8-0.4,1.3V60.9z M166.4,54.1h-3.6v-0.6h4.3v0.6l-2.8,9.2h-0.7L166.4,54.1z M170.7,53.4
		c0.7,0,1.3,0.2,1.7,0.6s0.6,1,0.6,1.7v0.3c0,0.5-0.1,0.9-0.3,1.3c-0.2,0.4-0.5,0.6-1,0.7c0.5,0.1,0.8,0.4,1,0.8
		c0.2,0.4,0.3,0.8,0.3,1.3V61c0,0.7-0.2,1.3-0.6,1.7c-0.4,0.4-0.9,0.7-1.7,0.7c-0.8,0-1.3-0.2-1.7-0.7c-0.4-0.4-0.5-1-0.5-1.8v-0.7
		c0-0.5,0.1-1,0.3-1.3c0.2-0.4,0.5-0.6,1-0.8c-0.5-0.1-0.8-0.4-1-0.7c-0.2-0.4-0.3-0.8-0.3-1.3v-0.3c0-0.7,0.2-1.3,0.5-1.7
		C169.4,53.6,169.9,53.4,170.7,53.4z M170.7,54c-0.5,0-0.9,0.2-1.2,0.5c-0.3,0.3-0.4,0.8-0.4,1.3v0.4c0,1.1,0.5,1.7,1.6,1.7
		s1.6-0.6,1.6-1.7v-0.4c0-0.6-0.1-1-0.4-1.3C171.6,54.2,171.2,54,170.7,54z M170.7,58.5c-1.1,0-1.6,0.6-1.6,1.7V61
		c0,0.6,0.1,1,0.4,1.4c0.3,0.3,0.7,0.5,1.2,0.5c0.5,0,0.9-0.2,1.2-0.5c0.3-0.3,0.4-0.8,0.4-1.4v-0.7
		C172.3,59.1,171.7,58.5,170.7,58.5z M176.5,53.4c0.4,0,0.7,0.1,1,0.2c0.3,0.1,0.5,0.3,0.7,0.5c0.2,0.2,0.3,0.5,0.4,0.8
		c0.1,0.3,0.1,0.6,0.1,1V56H178v-0.2c0-0.5-0.1-1-0.3-1.3c-0.2-0.3-0.6-0.5-1.1-0.5c-0.3,0-0.5,0-0.7,0.1c-0.2,0.1-0.3,0.2-0.5,0.4
		c-0.1,0.2-0.2,0.4-0.3,0.6c-0.1,0.2-0.1,0.5-0.1,0.8v2.3c0.2-0.3,0.4-0.5,0.7-0.6c0.3-0.2,0.6-0.3,1.1-0.3c0.3,0,0.6,0.1,0.9,0.2
		s0.4,0.3,0.6,0.5c0.2,0.2,0.3,0.5,0.3,0.8c0.1,0.3,0.1,0.6,0.1,1v1.2c0,0.4,0,0.7-0.1,1c-0.1,0.3-0.2,0.6-0.4,0.8
		c-0.2,0.2-0.4,0.4-0.7,0.5c-0.3,0.1-0.6,0.2-1,0.2c-0.4,0-0.7-0.1-1-0.2c-0.3-0.1-0.5-0.3-0.7-0.5c-0.2-0.2-0.3-0.5-0.4-0.8
		c-0.1-0.3-0.1-0.6-0.1-1v-5c0-0.4,0-0.7,0.1-1c0.1-0.3,0.2-0.6,0.4-0.8c0.2-0.2,0.4-0.4,0.7-0.5C175.8,53.5,176.1,53.4,176.5,53.4z
		 M176.5,57.9c-0.6,0-0.9,0.2-1.2,0.5c-0.2,0.3-0.3,0.8-0.3,1.3v1.2c0,0.5,0.1,1,0.3,1.3c0.2,0.3,0.6,0.5,1.2,0.5
		c0.5,0,0.9-0.2,1.2-0.5c0.2-0.3,0.4-0.8,0.4-1.3v-1.2c0-0.5-0.1-1-0.4-1.3C177.4,58.1,177,57.9,176.5,57.9z M180.8,62.1v1.2h-0.6
		v-1.2H180.8z M184.2,54.6c-0.2,0.2-0.4,0.4-0.7,0.6c-0.3,0.1-0.5,0.2-0.9,0.3v-0.6c0.5,0,0.8-0.2,1.1-0.4c0.3-0.3,0.4-0.6,0.6-0.9
		h0.5v9.8h-0.6V54.6z M188.8,53.4c0.4,0,0.7,0.1,1,0.2c0.3,0.1,0.5,0.3,0.7,0.5c0.2,0.2,0.3,0.5,0.4,0.8c0.1,0.3,0.1,0.6,0.1,1
		c0,0.5-0.1,0.9-0.3,1.3c-0.2,0.4-0.4,0.7-0.7,1.1c-0.3,0.3-0.5,0.7-0.9,1c-0.3,0.3-0.6,0.6-0.9,1c-0.3,0.3-0.5,0.7-0.7,1.1
		c-0.2,0.4-0.3,0.8-0.3,1.3v0.1h3.5v0.6h-4.1v-0.5c0-0.6,0.1-1.1,0.3-1.5c0.2-0.4,0.4-0.8,0.7-1.2c0.3-0.4,0.6-0.7,0.9-1
		c0.3-0.3,0.6-0.6,0.9-1c0.3-0.3,0.5-0.7,0.7-1c0.2-0.4,0.3-0.8,0.3-1.2c0-0.6-0.1-1-0.3-1.4c-0.2-0.4-0.6-0.5-1.2-0.5
		c-0.3,0-0.5,0.1-0.7,0.2c-0.2,0.1-0.3,0.2-0.5,0.4c-0.1,0.2-0.2,0.4-0.3,0.6c0,0.2-0.1,0.5-0.1,0.7v0.7h-0.6v-0.6
		c0-0.4,0-0.7,0.1-1c0.1-0.3,0.2-0.6,0.4-0.8c0.2-0.2,0.4-0.4,0.6-0.5C188.1,53.5,188.4,53.4,188.8,53.4z M193,62.1v1.2h-0.6v-1.2
		H193z M196.6,53.4c0.4,0,0.7,0.1,1,0.2c0.3,0.1,0.5,0.3,0.7,0.5c0.2,0.2,0.3,0.5,0.4,0.8c0.1,0.3,0.1,0.6,0.1,1
		c0,0.5-0.1,0.9-0.3,1.3c-0.2,0.4-0.4,0.7-0.7,1.1c-0.3,0.3-0.5,0.7-0.9,1c-0.3,0.3-0.6,0.6-0.9,1c-0.3,0.3-0.5,0.7-0.7,1.1
		c-0.2,0.4-0.3,0.8-0.3,1.3v0.1h3.5v0.6h-4.1v-0.5c0-0.6,0.1-1.1,0.3-1.5c0.2-0.4,0.4-0.8,0.7-1.2c0.3-0.4,0.6-0.7,0.9-1
		c0.3-0.3,0.6-0.6,0.9-1c0.3-0.3,0.5-0.7,0.7-1c0.2-0.4,0.3-0.8,0.3-1.2c0-0.6-0.1-1-0.3-1.4c-0.2-0.4-0.6-0.5-1.2-0.5
		c-0.3,0-0.5,0.1-0.7,0.2c-0.2,0.1-0.3,0.2-0.5,0.4c-0.1,0.2-0.2,0.4-0.3,0.6c0,0.2-0.1,0.5-0.1,0.7v0.7h-0.6v-0.6
		c0-0.4,0-0.7,0.1-1c0.1-0.3,0.2-0.6,0.4-0.8c0.2-0.2,0.4-0.4,0.6-0.5C195.9,53.5,196.3,53.4,196.6,53.4z M202.1,54.6
		c-0.2,0.2-0.4,0.4-0.7,0.6c-0.3,0.1-0.5,0.2-0.9,0.3v-0.6c0.5,0,0.8-0.2,1.1-0.4c0.3-0.3,0.4-0.6,0.6-0.9h0.5v9.8h-0.6V54.6z"/>
	<path class="st1" d="M6.7,1.7V0.2H0.1v1.6h2.4v12.8h1.7V1.7H6.7z M15.2,14.5L11.9,0.2h-1.7L6.9,14.5h1.8l0.7-3.4h3.3l0.7,3.4H15.2z
		 M12.4,9.6H9.7L11.1,3L12.4,9.6z M22.7,1.7V0.2h-5.4v6.4h-1V8h1v6.5H19V8h1.6V6.6H19V1.7H22.7z M31,14.5L27.7,0.2H26l-3.3,14.3h1.8
		l0.7-3.4h3.3l0.7,3.4H31z M28.2,9.6h-2.7L26.8,3L28.2,9.6z M41.8,14.5V0.2h-1.6l-2.9,8l-2.9-8h-1.6v14.3h1.7v-10l2.2,6.5h1.1
		l2.3-6.7v10.2H41.8z M50.5,1.7V0.2H45v6.4h-1V8h1v6.5h1.7V8h1.6V6.6h-1.6V1.7H50.5z M58.8,14.5L55.5,0.2h-1.7l-3.3,14.3h1.8
		l0.7-3.4h3.3l0.7,3.4H58.8z M56,9.6h-2.7L54.6,3L56,9.6z M71.4,10.3c0-3.2-1.3-4.2-3.4-4.2h-1.5V1.7h4.3V0.2h-6.1v14.3H68
		C70.2,14.5,71.4,13.5,71.4,10.3z M69.7,10.3c0,1.9-0.6,2.7-1.7,2.7h-1.5V7.7H68C69.1,7.7,69.7,8.4,69.7,10.3z M80.8,14.5V0.2h-1.6
		l-3.5,10v-10H74v14.3h1.6l3.5-9.9v9.9H80.8z M90.5,7.3c0-4-0.1-5.3-1-6.3c-0.6-0.6-1.3-1-2.5-1s-1.9,0.4-2.5,1c-0.9,1-1,2.3-1,6.3
		c0,4,0.1,5.3,1,6.3c0.6,0.6,1.3,1,2.5,1s1.9-0.4,2.5-1C90.4,12.6,90.5,11.3,90.5,7.3z M88.7,7.3c0,3.4-0.1,4.6-0.6,5.2
		c-0.2,0.3-0.6,0.5-1.2,0.5c-0.6,0-0.9-0.2-1.2-0.5c-0.5-0.7-0.6-1.8-0.6-5.2c0-3.4,0.1-4.6,0.6-5.2C86,1.8,86.4,1.6,87,1.6
		c0.6,0,0.9,0.2,1.2,0.5C88.6,2.8,88.7,3.9,88.7,7.3z M99.5,14.5V0.2h-6v7.6c0,4.9-1,5.2-2,5.2h-0.2v1.6h0.5c1.8,0,3.3-0.6,3.3-6.4
		V1.7h2.6v12.8H99.5z M109.1,7.3c0-4-0.1-5.3-1-6.3c-0.6-0.6-1.3-1-2.5-1c-1.1,0-1.9,0.4-2.5,1c-0.9,1-1,2.3-1,6.3
		c0,4,0.1,5.3,1,6.3c0.6,0.6,1.3,1,2.5,1c1.1,0,1.9-0.4,2.5-1C109,12.6,109.1,11.3,109.1,7.3z M107.4,7.3c0,3.4-0.1,4.6-0.6,5.2
		c-0.2,0.3-0.6,0.5-1.2,0.5c-0.6,0-0.9-0.2-1.2-0.5c-0.5-0.7-0.6-1.8-0.6-5.2c0-3.4,0.1-4.6,0.6-5.2c0.2-0.3,0.6-0.5,1.2-0.5
		c0.6,0,0.9,0.2,1.2,0.5C107.3,2.8,107.4,3.9,107.4,7.3z M117.2,1.7V0.2h-5.4v14.3h1.7V1.7H117.2z M126.2,14.5V0.2h-1.6l-3.5,10v-10
		h-1.7v14.3h1.6l3.5-9.9v9.9H126.2z M135.8,14.5V0.2h-3.2c-2.2,0-3.4,0.9-3.4,4.1c0,2,0.5,3.2,1.7,3.7l-2.2,6.5h1.8l2-6.2h1.6v6.2
		H135.8z M134,6.8h-1.5c-1.3,0-1.6-1-1.6-2.6c0-1.5,0.3-2.5,1.6-2.5h1.5V6.8z M145.9,14.5V0.2h-6v7.6c0,4.9-1,5.2-2,5.2h-0.2v1.6
		h0.5c1.8,0,3.3-0.6,3.3-6.4V1.7h2.6v12.8H145.9z M158.6,14.5V0.2h-1.7v14.3H158.6z M155.5,10.3c0-3.2-1.2-4.2-3.4-4.2h-1.5v-6h-1.7
		v14.3h3.2C154.3,14.5,155.5,13.5,155.5,10.3z M153.8,10.3c0,1.9-0.6,2.6-1.7,2.6h-1.5V7.7h1.5C153.2,7.7,153.8,8.4,153.8,10.3z
		 M168.8,0.2h-1.9L163.3,7l3.9,7.5h0.3v2.9h1.7v-4.4h-0.8l-3.2-6L168.8,0.2z M163.3,14.5V0.2h-1.7v14.3H163.3z M182.4,0.2h-1.9
		L176.9,7l3.9,7.5h0.3v2.9h1.7v-4.4H182l-3.2-6L182.4,0.2z M176.9,14.5V0.2h-1.7v14.3H176.9z M191.1,7.3c0-4-0.1-5.3-1-6.3
		c-0.6-0.6-1.3-1-2.5-1c-1.1,0-1.9,0.4-2.5,1c-0.9,1-1,2.3-1,6.3c0,4,0.1,5.3,1,6.3c0.6,0.6,1.3,1,2.5,1c1.1,0,1.9-0.4,2.5-1
		C191,12.6,191.1,11.3,191.1,7.3z M189.4,7.3c0,3.4-0.1,4.6-0.6,5.2c-0.2,0.3-0.6,0.5-1.2,0.5c-0.6,0-0.9-0.2-1.2-0.5
		c-0.5-0.7-0.6-1.8-0.6-5.2c0-3.4,0.1-4.6,0.6-5.2c0.2-0.3,0.6-0.5,1.2-0.5c0.6,0,0.9,0.2,1.2,0.5C189.3,2.8,189.4,3.9,189.4,7.3z
		 M200.2,11h-1.7c0,0.6-0.1,1.2-0.5,1.7c-0.2,0.3-0.6,0.5-1.1,0.5c-0.6,0-0.9-0.2-1.2-0.5c-0.5-0.7-0.6-1.8-0.6-5.2
		c0-3.4,0.1-4.6,0.6-5.2c0.2-0.3,0.6-0.5,1.2-0.5c0.5,0,0.9,0.2,1.1,0.5c0.3,0.4,0.4,1,0.5,1.6h1.7c0-1.2-0.4-2.2-1-2.8
		c-0.6-0.5-1.3-0.8-2.3-0.8c-1.1,0-1.9,0.4-2.5,1c-0.9,1.1-1,2.3-1,6.3c0,4,0.1,5.2,1,6.3c0.5,0.6,1.3,1,2.5,1
		c0.9,0,1.7-0.3,2.2-0.8C199.8,13.2,200.2,12.2,200.2,11z M209.3,14.5V0.2h-6.6v14.3h1.7V1.7h3.2v12.8H209.3z M219.4,14.5l-3.3-14.3
		h-1.7l-3.3,14.3h1.8l0.7-3.4h3.3l0.7,3.4H219.4z M216.6,9.6h-2.7l1.3-6.6L216.6,9.6z M222.9,15.6v-3.1h-1.9V17L222.9,15.6z
		 M9.2,40.1v-4.1H8.1V23.2h-6v5.8c0,2.8-0.4,5.1-1.2,7H0v4.1h1.7v-2.6h5.9v2.6H9.2z M6.3,35.9H2.7c0.7-1.9,1.1-4,1.1-6.6v-4.6h2.6
		V35.9z M10.7,34.1c0,2.4,1.4,3.6,3.3,3.6c1.1,0,1.9-0.4,2.5-1c0.9-1,1-2.3,1-6.3s-0.1-5.3-1-6.3c-0.5-0.6-1.3-1-2.5-1
		c-1,0-1.8,0.3-2.3,0.9c-0.7,0.7-1,1.7-1,2.8h1.7c0-1,0.3-2.2,1.6-2.2c0.6,0,0.9,0.2,1.2,0.5c0.5,0.6,0.6,1.7,0.6,4.7h-5.1V34.1z
		 M12.4,31.2h3.4c0,2.7-0.1,3.7-0.6,4.3c-0.2,0.3-0.6,0.5-1.2,0.5c-1,0-1.6-0.8-1.6-2V31.2z M26.8,27.3c0-3.2-1.2-4.2-3.4-4.2h-3.2
		v14.3h1.7v-6h1.5C25.5,31.5,26.8,30.5,26.8,27.3z M25.1,27.3c0,1.9-0.6,2.6-1.7,2.6h-1.4v-5.3h1.4C24.5,24.7,25.1,25.4,25.1,27.3z
		 M31,37.5V23.2h-1.7v14.3H31z M41.1,37.5V23.2h-6v7.6c0,4.9-1,5.2-2,5.2H33v1.6h0.5c1.8,0,3.3-0.6,3.3-6.4v-6.3h2.6v12.8H41.1z
		 M45.8,37.5V23.2h-1.7v14.3H45.8z M50.6,37.5V23.2h-1.7v14.3H50.6z M56.4,37.5l-4-7.6l3.7-6.8h-1.9L50.6,30l3.9,7.5H56.4z
		 M69.7,23.2h-1.9L64.2,30l3.9,7.5h0.3v2.9h1.7v-4.4h-0.8l-3.2-6L69.7,23.2z M64.2,37.5V23.2h-1.7v14.3H64.2z M77.7,23.2h-1.9
		l-1.6,6.1l-1.6-6.1h-1.9l2.6,8.5h-1.4v1.1h1.4v4.7H75v-4.7h1.4v-1.1H75L77.7,23.2z M86.1,27.3c0-3.2-1.2-4.2-3.4-4.2h-3.2v14.3h1.7
		v-6h1.5C84.8,31.5,86.1,30.5,86.1,27.3z M84.3,27.3c0,1.9-0.6,2.6-1.7,2.6h-1.4v-5.3h1.4C83.8,24.7,84.3,25.4,84.3,27.3z
		 M94.7,37.5l-3.3-14.3h-1.7l-3.3,14.3h1.8l0.7-3.4h3.3l0.7,3.4H94.7z M91.9,32.6h-2.7l1.3-6.6L91.9,32.6z M103.9,37.5V23.2h-6v7.6
		c0,4.9-1,5.2-2,5.2h-0.2v1.6h0.5c1.8,0,3.3-0.6,3.3-6.4v-6.3h2.6v12.8H103.9z M116.5,37.5v-1.6h-3.8v-4.9h3.3v-1.6h-3.3v-4.8h3.8
		v-1.6H111v14.3H116.5z M128.1,37.5V23.2h-1.6l-2.9,8l-2.9-8h-1.6v14.3h1.7v-10L123,34h1.1l2.3-6.7v10.2H128.1z M136.6,37.5v-1.6
		h-3.8v-4.9h3.3v-1.6h-3.3v-4.8h3.8v-1.6h-5.5v14.3H136.6z M145.6,34h-1.7c0,0.6-0.1,1.2-0.5,1.7c-0.2,0.3-0.6,0.5-1.1,0.5
		c-0.6,0-0.9-0.2-1.2-0.5c-0.5-0.7-0.6-1.8-0.6-5.2c0-3.4,0.1-4.6,0.6-5.2c0.2-0.3,0.6-0.5,1.2-0.5c0.5,0,0.9,0.2,1.1,0.5
		c0.3,0.4,0.4,1,0.5,1.6h1.7c0-1.2-0.4-2.2-1-2.8c-0.6-0.5-1.3-0.8-2.3-0.8c-1.1,0-1.9,0.4-2.5,1c-0.9,1.1-1,2.3-1,6.3
		s0.1,5.2,1,6.3c0.5,0.6,1.3,1,2.5,1c0.9,0,1.7-0.3,2.2-0.8C145.2,36.2,145.6,35.2,145.6,34z M150,37.5v-2h-2v2H150z"/>
</g>
</svg>
