<svg xmlns="http://www.w3.org/2000/svg" viewBox="0 0 236 47.8" style="enable-background:new 0 0 236 47.8" xml:space="preserve"><radialGradient id="a" cx="-243.884" cy="69.688" r=".97" fx="-243.884" fy="69.688" gradientTransform="matrix(182.2052 43.1158 23.9484 -101.2046 42840.508 17533.557)" gradientUnits="userSpaceOnUse"><stop offset=".55" style="stop-color:#f84ac7"/><stop offset=".918" style="stop-color:#941570"/></radialGradient><path d="M23.9 0h188.2C225.3 0 236 10.7 236 23.9s-10.7 23.9-23.9 23.9H23.9C10.7 47.8 0 37.1 0 23.9S10.7 0 23.9 0z" style="fill:url(#a)"/><path d="m77.6 27 4.4-9.9h1.8l-5.4 12.5h-1.6l-5.3-12.5h1.8l4.3 9.9zm-4.9-9.9v12.5h-1.9V17.1h1.9zm9.9 12.5V17.1h1.9v12.5h-1.9zm7.3-2.8 6-9.7h2.2v12.5h-1.9v-9.7l-6 9.7H88V17.1h1.9v9.7zm20.2-4.3v1.8h-6.9v-1.8h6.9zm-6.4-5.4v12.5h-1.9V17.1h1.9zm7.9 0v12.5h-1.9V17.1h1.9zm8.8 12.8c-1.2 0-2.3-.3-3.1-.8-.9-.5-1.5-1.3-2-2.3-.5-1-.7-2.1-.7-3.4s.2-2.4.7-3.4c.5-1 1.1-1.8 2-2.3.8-.6 1.8-.8 3-.8.7 0 1.3.1 1.9.3.6.2 1.2.6 1.7 1.1.5.5.9 1.1 1.2 1.9.3.8.5 1.8.5 3v.8h-9.7v-1.7h7.7c0-.7-.1-1.3-.4-1.9-.3-.6-.7-1-1.2-1.3-.5-.3-1.1-.5-1.8-.5-.8 0-1.4.2-2 .6-.6.4-1 .9-1.3 1.5-.3.6-.4 1.3-.4 1.9v1.1c0 .9.2 1.8.5 2.4.3.7.8 1.2 1.4 1.5.6.3 1.3.5 2 .5.5 0 1-.1 1.4-.2.4-.1.8-.4 1.1-.7.3-.3.5-.7.7-1.1l1.9.5c-.2.6-.5 1.2-1 1.7s-1 .8-1.7 1.1c-.8.3-1.6.5-2.4.5zm8.1 4.4V17.1h1.9v2h.2c.1-.2.3-.5.6-.8.3-.3.6-.6 1.1-.9.5-.3 1.1-.4 1.9-.4 1.1 0 2 .3 2.8.8.8.5 1.4 1.3 1.9 2.2.5 1 .7 2.1.7 3.4 0 1.3-.2 2.5-.7 3.5-.5 1-1.1 1.7-1.9 2.3-.8.5-1.7.8-2.8.8-.8 0-1.5-.1-1.9-.4-.5-.3-.9-.6-1.1-.9-.3-.3-.5-.6-.6-.9h-.2v6.6h-1.9zm1.9-11c0 .9.1 1.8.4 2.5.3.7.7 1.3 1.2 1.7.5.4 1.2.6 2 .6s1.5-.2 2-.6c.5-.4 1-1 1.2-1.7.3-.7.4-1.5.4-2.4 0-.9-.1-1.7-.4-2.4-.3-.7-.7-1.3-1.2-1.7-.5-.4-1.2-.6-2-.6s-1.4.2-2 .6c-.5.4-.9.9-1.2 1.6-.3.7-.4 1.5-.4 2.4zm15.8 6.6c-.8 0-1.5-.1-2.2-.4-.6-.3-1.2-.7-1.5-1.3-.4-.6-.6-1.3-.6-2.1 0-.7.1-1.3.4-1.7.3-.5.7-.8 1.1-1.1.5-.3 1-.4 1.6-.6.6-.1 1.2-.2 1.7-.3.8-.1 1.4-.2 1.9-.2.5-.1.8-.1 1-.3.2-.1.3-.3.3-.7v-.1c0-.8-.2-1.4-.7-1.9-.4-.4-1.1-.7-2-.7-.9 0-1.6.2-2.2.6-.5.4-.9.8-1.1 1.3l-1.8-.7c.3-.8.8-1.4 1.3-1.8.5-.4 1.1-.7 1.8-.9.7-.2 1.3-.3 1.9-.3.4 0 .9 0 1.4.1.5.1 1 .3 1.5.6s.9.7 1.2 1.3c.3.6.5 1.4.5 2.4v8.3H150v-1.7h-.1c-.1.3-.3.6-.7.9-.3.3-.7.6-1.2.8-.4.4-1.1.5-1.8.5zm.3-1.7c.8 0 1.4-.1 1.9-.4.5-.3.9-.7 1.2-1.2.3-.5.4-1 .4-1.5v-1.8c-.1.1-.3.2-.5.3-.3.1-.6.1-.9.2-.4.1-.7.1-1 .1-.3 0-.6.1-.8.1-.5.1-1 .2-1.4.3-.4.1-.8.4-1 .6-.3.3-.4.7-.4 1.2 0 .7.2 1.2.7 1.5.4.4 1 .6 1.8.6zm7.9 1.4v-1.8h.5c.4 0 .7-.1.9-.2.2-.2.5-.4.6-.8.2-.4.3-.9.4-1.6.1-.7.1-1.5.2-2.6l.2-5.6h8.4v12.5h-1.9V18.9H159l-.2 4.5c0 1-.1 1.9-.3 2.7-.1.8-.3 1.4-.6 2-.3.5-.6.9-1.1 1.2-.5.3-1 .4-1.7.4h-.7zm19.8.3c-1.1 0-2.1-.3-3-.8-.9-.5-1.5-1.3-2-2.3-.5-1-.7-2.1-.7-3.4 0-1.3.2-2.4.7-3.4.5-1 1.1-1.7 2-2.3.9-.5 1.8-.8 3-.8 1.1 0 2.1.3 3 .8.9.5 1.5 1.3 2 2.3.5 1 .7 2.1.7 3.4 0 1.3-.2 2.4-.7 3.4-.5 1-1.1 1.7-2 2.3-.9.5-1.9.8-3 .8zm0-1.8c.9 0 1.6-.2 2.1-.7.6-.4 1-1 1.2-1.7.3-.7.4-1.5.4-2.3 0-.8-.1-1.6-.4-2.3-.3-.7-.7-1.3-1.2-1.8-.6-.4-1.3-.7-2.1-.7-.9 0-1.6.2-2.1.7-.6.4-1 1-1.2 1.8-.3.7-.4 1.5-.4 2.3 0 .8.1 1.6.4 2.3.3.7.7 1.3 1.2 1.7.5.5 1.2.7 2.1.7zm8.6 1.5V17.1h5.1c1.3 0 2.4.3 3.2.9.8.6 1.2 1.4 1.2 2.4 0 .8-.2 1.4-.7 1.8-.5.4-1 .7-1.7.8.5.1.9.2 1.3.5s.8.6 1.1 1.1c.3.5.4 1 .4 1.7 0 .6-.2 1.2-.5 1.7s-.8.9-1.4 1.2c-.6.3-1.3.4-2.2.4h-5.8zm1.8-1.7h4.1c.7 0 1.2-.2 1.6-.5.4-.3.6-.7.6-1.3 0-.6-.2-1.2-.6-1.5-.4-.4-.9-.6-1.6-.6h-4.1v3.9zm0-5.6h3.3c.5 0 1-.1 1.3-.2.4-.1.7-.4.9-.6.2-.3.3-.6.3-1 0-.5-.2-.9-.7-1.2-.4-.3-1-.5-1.8-.5h-3.3v3.5zM48.5 32.9c-1.4 0-2.6-.2-3.7-.7-1.1-.5-1.9-1.1-2.5-2-.6-.8-.9-1.8-.9-2.9 0-.8.2-1.6.5-2.3.4-.7.8-1.3 1.4-1.8.6-.5 1.3-.8 2-.9v-.1c-1-.2-1.8-.8-2.4-1.6s-.9-1.8-.9-2.8c0-1 .3-1.9.8-2.7.5-.8 1.3-1.4 2.3-1.9 1-.5 2-.7 3.3-.7 1.2 0 2.3.2 3.2.7 1 .5 1.7 1.1 2.3 1.9.5.8.8 1.7.8 2.7 0 1.1-.3 2-.9 2.8-.6.8-1.4 1.4-2.3 1.6v.1c.7.1 1.4.4 2 .9.6.5 1.1 1.1 1.4 1.8.4.7.5 1.5.6 2.3 0 1.1-.3 2-.9 2.9-.6.8-1.4 1.5-2.5 2-1 .5-2.3.7-3.6.7zm0-2.4c.8 0 1.5-.1 2.1-.4.6-.3 1.1-.7 1.4-1.2.3-.5.5-1.1.5-1.7 0-.7-.2-1.3-.5-1.8s-.8-.9-1.4-1.3-1.3-.5-2.1-.5-1.5.2-2.1.5-1.1.7-1.4 1.3c-.3.5-.5 1.1-.5 1.8s.2 1.2.5 1.7.8.9 1.4 1.2c.5.2 1.2.4 2.1.4zm0-9.3c.7 0 1.2-.1 1.8-.4.5-.3.9-.6 1.2-1.1.3-.5.4-1 .5-1.7 0-.6-.2-1.2-.4-1.6-.3-.5-.7-.8-1.2-1.1-.5-.3-1.1-.4-1.8-.4s-1.3.1-1.8.4c-.5.3-.9.6-1.2 1.1-.3.5-.4 1-.4 1.6 0 .6.1 1.2.4 1.7.3.5.7.8 1.2 1.1.4.3 1 .4 1.7.4z" style="fill:#fff"/></svg>