<svg version="1.1" id="Layer_1" xmlns="http://www.w3.org/2000/svg" x="0" y="0" viewBox="0 0 236 47.8" style="enable-background:new 0 0 236 47.8" xml:space="preserve"><style>.st1{fill:#fff}</style><radialGradient id="SVGID_1_" cx="-243.905" cy="69.58" r="1.026" fx="-243.906" fy="69.58" gradientTransform="matrix(181.9308 44.2042 22.4594 -83.9259 42877.672 16594.764)" gradientUnits="userSpaceOnUse"><stop offset="0" style="stop-color:#ffc34f"/><stop offset=".513" style="stop-color:#ff8d3b"/><stop offset="1" style="stop-color:#cb4810"/></radialGradient><path d="M23.9 0h188.2C225.3 0 236 10.7 236 23.9s-10.7 23.9-23.9 23.9H23.9C10.7 47.8 0 37.1 0 23.9S10.7 0 23.9 0z" style="fill:url(#SVGID_1_)"/><path class="st1" d="M80.3 29.8V17.3h5.1c1.4 0 2.4.3 3.2.9.8.6 1.2 1.4 1.2 2.4 0 .8-.2 1.4-.7 1.8-.5.4-1 .7-1.7.8.5.1.9.2 1.3.5s.8.6 1.1 1.1c.3.5.4 1 .4 1.7 0 .6-.2 1.2-.5 1.7s-.8.9-1.4 1.2c-.6.3-1.3.4-2.2.4h-5.8zm1.9-1.7h4.1c.7 0 1.2-.2 1.6-.5.4-.3.6-.7.6-1.3 0-.6-.2-1.2-.6-1.5-.4-.4-.9-.6-1.6-.6h-4.1v3.9zm0-5.6h3.3c.5 0 1-.1 1.3-.2.4-.1.7-.4.8-.6.2-.3.3-.6.3-1 0-.5-.2-.9-.7-1.2-.4-.3-1-.5-1.8-.5h-3.3v3.5zm13 4.5 6-9.7h2.2v12.5h-1.9v-9.7l-6 9.7h-2.3V17.3h1.9V27zm10.1-7.9v-1.8h10.2v1.8h-4.1v10.7h-1.9V19.1h-4.2zm16 11c-.8 0-1.5-.1-2.2-.4-.6-.3-1.2-.7-1.5-1.3-.4-.6-.6-1.3-.6-2.1 0-.7.1-1.3.4-1.7.3-.5.7-.8 1.1-1.1.5-.3 1-.4 1.6-.6.6-.1 1.2-.2 1.7-.3.8-.1 1.4-.2 1.9-.2.5-.1.8-.1 1-.3.2-.1.3-.3.3-.7v-.1c0-.8-.2-1.4-.7-1.9-.4-.4-1.1-.7-2-.7-.9 0-1.6.2-2.2.6-.5.4-.9.8-1.1 1.3l-1.8-.7c.3-.8.8-1.4 1.3-1.8.5-.4 1.1-.7 1.8-.9.7-.2 1.3-.3 1.9-.3.4 0 .9 0 1.4.1.5.1 1 .3 1.5.6s.9.7 1.2 1.3c.3.6.5 1.4.5 2.4v8.3h-1.9v-1.7h.1c-.1.3-.3.6-.7.9-.3.3-.7.6-1.2.8-.5.4-1.1.5-1.8.5zm.3-1.7c.8 0 1.4-.1 1.9-.4.5-.3.9-.7 1.2-1.2.3-.5.4-1 .4-1.5v-1.8c-.1.1-.3.2-.5.3-.3.1-.6.1-.9.2-.4.1-.7.1-1 .1-.3 0-.6.1-.8.1-.5.1-1 .2-1.4.3-.4.1-.8.4-1 .6-.3.3-.4.7-.4 1.2 0 .7.2 1.2.7 1.5.4.4 1 .6 1.8.6zm15.8-1.2 4.4-9.9h1.8l-5.4 12.5h-1.6l-5.3-12.5h1.8l4.3 9.9zm-4.9-9.9v12.5h-1.9V17.3h1.9zm9.9 12.5V17.3h1.9v12.5h-1.9zm7.3-2.8 6-9.7h2.2v12.5H156v-9.7l-6 9.7h-2.3V17.3h1.9V27zm20.2-4.3v1.8H163v-1.8h6.9zm-6.4-5.4v12.5h-1.9V17.3h1.9zm7.9 0v12.5h-1.9V17.3h1.9zm8.6 12.8c-1.1 0-2.1-.3-3-.8-.8-.5-1.5-1.3-2-2.3-.5-1-.7-2.1-.7-3.4 0-1.3.2-2.4.7-3.4.5-1 1.1-1.7 2-2.3.9-.5 1.8-.8 3-.8s2.1.3 3 .8c.9.5 1.5 1.3 2 2.3.5 1 .7 2.1.7 3.4 0 1.3-.2 2.4-.7 3.4-.5 1-1.1 1.7-2 2.3-.9.5-1.8.8-3 .8zm0-1.8c.9 0 1.6-.2 2.1-.7.6-.4 1-1 1.2-1.7.3-.7.4-1.5.4-2.3 0-.8-.1-1.6-.4-2.3-.3-.7-.7-1.3-1.2-1.8-.6-.4-1.3-.7-2.1-.7s-1.6.2-2.1.7c-.6.4-1 1-1.2 1.8-.3.7-.4 1.5-.4 2.3 0 .8.1 1.6.4 2.3.3.7.7 1.3 1.2 1.7.6.5 1.3.7 2.1.7zm8.7 1.5V17.3h5.1c1.4 0 2.4.3 3.2.9.8.6 1.2 1.4 1.2 2.4 0 .8-.2 1.4-.7 1.8-.5.4-1 .7-1.7.8.5.1.9.2 1.3.5s.8.6 1.1 1.1c.3.5.4 1 .4 1.7 0 .6-.2 1.2-.5 1.7s-.8.9-1.4 1.2c-.6.3-1.3.4-2.2.4h-5.8zm1.8-1.7h4.1c.7 0 1.2-.2 1.6-.5.4-.3.6-.7.6-1.3 0-.6-.2-1.2-.6-1.5-.4-.4-.9-.6-1.6-.6h-4.1v3.9zm0-5.6h3.3c.5 0 1-.1 1.3-.2.4-.1.7-.4.8-.6.2-.3.3-.6.3-1 0-.5-.2-.9-.7-1.2-.4-.3-1-.5-1.8-.5h-3.3v3.5zM45.2 14v19.9h-3V17h-.1l-4.8 3.1v-2.9l5-3.2h2.9zm12.3 20.1c-1.3 0-2.5-.2-3.6-.7-1-.5-1.9-1.1-2.5-1.9-.6-.8-.9-1.8-1-2.9h3c0 .6.2 1.1.6 1.5.4.4.8.8 1.4 1 .6.2 1.2.3 1.9.3.8 0 1.5-.1 2.1-.4.6-.3 1.1-.6 1.4-1.1.3-.5.5-1.1.5-1.7 0-.7-.2-1.3-.5-1.8s-.8-.9-1.5-1.2c-.6-.3-1.4-.4-2.3-.4h-1.7v-2.4H57c.7 0 1.4-.1 1.9-.4.6-.3 1-.6 1.3-1.1.3-.5.5-1 .5-1.7 0-.6-.1-1.1-.4-1.6-.3-.5-.7-.8-1.2-1.1-.5-.3-1.1-.4-1.8-.4-.6 0-1.3.1-1.8.4-.6.2-1 .6-1.4 1-.3.4-.5 1-.6 1.6h-2.9c0-1.1.3-2 1-2.8.6-.8 1.4-1.5 2.4-1.9 1-.5 2.1-.7 3.3-.7 1.3 0 2.4.2 3.3.7.9.5 1.6 1.1 2.2 2 .5.8.8 1.7.8 2.7 0 1.1-.3 2.1-.9 2.8-.6.8-1.4 1.3-2.5 1.6v.2c1.3.2 2.3.7 3.1 1.6.7.8 1.1 1.9 1.1 3.2 0 1.1-.3 2.1-.9 2.9-.6.9-1.4 1.5-2.5 2-1 .4-2.2.7-3.5.7z"/></svg>