<svg xmlns="http://www.w3.org/2000/svg" viewBox="0 0 233 56" style="enable-background:new 0 0 233 56" xml:space="preserve"><path d="M1.2 49.2.8 51H.3l1.8-8.1h.8L4.7 51h-.5l-.4-1.8H1.2zm.1-.4h2.4l-1.2-5.2-1.2 5.2zM8.5 51H8l-1.7-7.1V51h-.5v-8.1h.8L8.3 50l1.7-7.1h.8V51h-.5v-7.2L8.5 51zm4-1v1H12v-1h.5zm1.3-5.1c0-.3 0-.6.1-.8.1-.3.2-.5.3-.6.1-.2.3-.3.6-.4.2-.1.5-.1.8-.1.3 0 .6 0 .8.1.2.1.4.2.6.4.1.2.3.4.3.6.1.2.1.5.1.8V49c0 .3 0 .6-.1.8-.1.2-.2.5-.3.6-.1.2-.3.3-.6.4-.2.1-.5.1-.8.1-.3 0-.6 0-.8-.1-.2-.1-.4-.2-.6-.4-.1-.2-.3-.4-.3-.6-.1-.3-.1-.5-.1-.8v-4.1zm.5 4.2c0 .4.1.8.3 1.1.2.3.5.4 1 .4s.8-.1 1-.4c.2-.3.3-.7.3-1.1v-4.2c0-.4-.1-.8-.3-1.1-.2-.3-.5-.4-1-.4s-.8.1-1 .4c-.2.3-.3.6-.3 1.1v4.2zm5.8-5.3c-.1.2-.3.3-.5.5-.2.1-.4.2-.7.2V44c.4 0 .7-.1.9-.4.2-.2.4-.5.5-.8h.4V51h-.5v-7.2zm2.5 6.2v1h-.5v-1h.5zm1.3-5.1c0-.3 0-.6.1-.8.1-.3.2-.5.3-.6.1-.2.3-.3.6-.4.2-.1.5-.1.8-.1.3 0 .6 0 .8.1.2.1.4.2.6.4.1.2.3.4.3.6.1.2.1.5.1.8V49c0 .3 0 .6-.1.8-.1.2-.2.5-.3.6-.1.2-.3.3-.6.4-.2.1-.5.1-.8.1-.3 0-.6 0-.8-.1-.2-.1-.4-.2-.6-.4-.1-.2-.3-.4-.3-.6-.1-.3-.1-.5-.1-.8v-4.1zm.5 4.2c0 .4.1.8.3 1.1.2.3.5.4 1 .4.4 0 .8-.1 1-.4.2-.3.3-.7.3-1.1v-4.2c0-.4-.1-.8-.3-1.1-.2-.3-.5-.4-1-.4-.4 0-.8.1-1 .4-.2.3-.3.6-.3 1.1v4.2zm7.2-5.7h-3v-.5h3.5v.5L29.8 51h-.5l2.3-7.6zm2.3 6.6v1h-.5v-1h.5zm1.2-5.1c0-.3 0-.6.1-.8.1-.3.2-.5.3-.6.1-.2.3-.3.6-.4.2-.1.5-.1.8-.1.3 0 .6 0 .8.1.2.1.4.2.6.4.1.2.3.4.3.6.1.2.1.5.1.8V49c0 .3 0 .6-.1.8-.1.2-.2.5-.3.6-.1.2-.3.3-.6.4-.2.1-.5.1-.8.1-.3 0-.6 0-.8-.1-.2-.1-.4-.2-.6-.4-.1-.2-.3-.4-.3-.6-.1-.3-.1-.5-.1-.8v-4.1zm.5 4.2c0 .4.1.8.3 1.1.2.3.5.4 1 .4.4 0 .8-.1 1-.4.2-.3.3-.7.3-1.1v-4.2c0-.4-.1-.8-.3-1.1-.2-.3-.5-.4-1-.4-.4 0-.8.1-1 .4-.2.3-.3.6-.3 1.1v4.2zm5.8-5.3c-.1.2-.3.3-.5.5-.2.1-.4.2-.7.2V44c.4 0 .7-.1.9-.4.2-.2.4-.5.5-.8h.4V51h-.5v-7.2zM44 50v1h-.5v-1h.5zm1.2-5.1c0-.3 0-.6.1-.8.1-.3.2-.5.3-.6.1-.2.3-.3.6-.4.2-.1.5-.1.8-.1s.6 0 .8.1c.2.1.4.2.6.4.1.2.3.4.3.6.1.2.1.5.1.8V49c0 .3 0 .6-.1.8-.1.2-.2.5-.3.6-.1.2-.3.3-.6.4-.2.1-.5.1-.8.1s-.6 0-.8-.1c-.2-.1-.4-.2-.6-.4-.1-.2-.3-.4-.3-.6-.1-.3-.1-.5-.1-.8v-4.1zm.5 4.2c0 .4.1.8.3 1.1.2.3.5.4 1 .4s.8-.1 1-.4c.2-.3.3-.7.3-1.1v-4.2c0-.4-.1-.8-.3-1.1-.2-.3-.5-.4-1-.4s-.8.1-1 .4c-.2.3-.3.6-.3 1.1v4.2zm4.2-4.2c0-.3 0-.6.1-.8.1-.3.2-.5.3-.6.1-.2.3-.3.6-.4.2-.1.5-.1.8-.1s.6 0 .8.1c.2.1.4.2.6.4.1.2.3.4.3.6.1.2.1.5.1.8V49c0 .3 0 .6-.1.8-.1.2-.2.5-.3.6-.1.2-.3.3-.6.4-.2.1-.5.1-.8.1s-.6 0-.8-.1c-.2-.1-.4-.2-.6-.4-.1-.2-.3-.4-.3-.6-.1-.3-.1-.5-.1-.8v-4.1zm.6 4.2c0 .4.1.8.3 1.1.2.3.5.4 1 .4s.8-.1 1-.4c.2-.3.3-.7.3-1.1v-4.2c0-.4-.1-.8-.3-1.1-.2-.3-.5-.4-1-.4s-.8.1-1 .4c-.2.3-.3.6-.3 1.1v4.2zm5.9-6.2c.3 0 .6.1.8.2.2.1.4.2.5.4l.3.6c.1.2.1.5.1.8v.2c0 .4-.1.7-.3 1-.2.3-.4.5-.8.6.4.1.6.3.8.6.2.3.3.6.3 1v.7c0 .3 0 .6-.1.8-.1.2-.2.5-.3.6-.1.2-.3.3-.5.4-.2.1-.5.1-.8.1-.3 0-.6 0-.8-.1-.2-.1-.4-.2-.5-.4l-.3-.6c-.1-.3-.1-.5-.1-.8v-.5h.5v.5c0 .2 0 .4.1.6 0 .2.1.3.2.5.1.1.2.2.4.3.2.1.3.1.6.1.4 0 .8-.1.9-.4.2-.3.3-.7.3-1.1v-.6c0-.4-.1-.7-.3-1-.2-.2-.5-.4-.9-.4H56v-.5h.6c.4 0 .7-.2.9-.4.2-.2.3-.6.3-1v-.3c0-.5-.1-.8-.3-1.1s-.5-.4-.9-.4-.8.1-.9.4c-.2.3-.3.6-.3 1.1v.3h-.5v-.3c0-.3 0-.6.1-.8.1-.3.2-.5.3-.6.1-.2.3-.3.5-.4.1-.1.3-.1.6-.1zm3.5 7.1v1h-.5v-1h.5zm3-7.1c.6 0 1.1.2 1.3.5.3.3.4.8.4 1.3v.7c0 .9-.4 1.5-1.2 1.7.4.1.7.3.9.6.2.3.3.6.3 1.1v1.7c0 .2.1.3.2.4h-.6c-.1-.1-.1-.3-.1-.4v-1.9c0-.3 0-.5-.1-.7s-.2-.3-.3-.4c-.1-.1-.3-.2-.5-.2s-.4-.1-.6-.1h-.8V51h-.5v-8.1h1.6zm-.3 4c.2 0 .4 0 .6-.1.2 0 .3-.1.5-.2.1-.1.2-.2.3-.4.1-.2.1-.4.1-.7v-.8c0-.4-.1-.8-.3-1-.2-.2-.5-.4-.9-.4h-1.1v3.5h.8zm3.9 3.1v1H66v-1h.5zm1.3-5.1c0-.3 0-.6.1-.8.1-.3.2-.5.3-.6.1-.2.3-.3.6-.4.2-.1.5-.1.8-.1s.6 0 .8.1c.2.1.4.2.6.4.1.2.3.4.3.6.1.2.1.5.1.8V49c0 .3 0 .6-.1.8-.1.2-.2.5-.3.6-.1.2-.3.3-.6.4-.2.1-.5.1-.8.1s-.6 0-.8-.1c-.2-.1-.4-.2-.6-.4-.1-.2-.3-.4-.3-.6-.1-.3-.1-.5-.1-.8v-4.1zm.5 4.2c0 .4.1.8.3 1.1.2.3.5.4 1 .4s.8-.1 1-.4c.2-.3.3-.7.3-1.1v-4.2c0-.4-.1-.8-.3-1.1-.2-.3-.5-.4-1-.4s-.8.1-1 .4c-.2.3-.3.6-.3 1.1v4.2zm4.2-4.2c0-.3 0-.6.1-.8.1-.3.2-.5.3-.6.1-.2.3-.3.6-.4.2-.1.5-.1.8-.1s.6 0 .8.1c.2.1.4.2.6.4.1.2.3.4.3.6.1.2.1.5.1.8V49c0 .3 0 .6-.1.8-.1.2-.2.5-.3.6-.1.2-.3.3-.6.4-.2.1-.5.1-.8.1s-.6 0-.8-.1c-.2-.1-.4-.2-.6-.4-.1-.2-.3-.4-.3-.6-.1-.3-.1-.5-.1-.8v-4.1zm.5 4.2c0 .4.1.8.3 1.1.2.3.5.4 1 .4s.8-.1 1-.4c.2-.3.3-.7.3-1.1v-4.2c0-.4-.1-.8-.3-1.1-.2-.3-.5-.4-1-.4s-.8.1-1 .4c-.2.3-.3.6-.3 1.1v4.2zm4.2-4.2c0-.3 0-.6.1-.8.1-.3.2-.5.3-.6.1-.2.3-.3.6-.4.2-.1.5-.1.8-.1s.6 0 .8.1c.2.1.4.2.6.4.1.2.3.4.3.6.1.2.1.5.1.8V49c0 .3 0 .6-.1.8-.1.2-.2.5-.3.6-.1.2-.3.3-.6.4-.2.1-.5.1-.8.1s-.6 0-.8-.1c-.2-.1-.4-.2-.6-.4-.1-.2-.3-.4-.3-.6-.1-.3-.1-.5-.1-.8v-4.1zm.6 4.2c0 .4.1.8.3 1.1.2.3.5.4 1 .4s.8-.1 1-.4c.2-.3.3-.7.3-1.1v-4.2c0-.4-.1-.8-.3-1.1-.2-.3-.5-.4-1-.4s-.8.1-1 .4c-.2.3-.3.6-.3 1.1v4.2zm7.1-5.7h-3v-.5h3.5v.5L83.2 51h-.5l2.2-7.6zm3.6-.5c.6 0 1.1.2 1.4.5.3.4.5.8.5 1.4v.3c0 .4-.1.8-.3 1.1-.2.3-.4.5-.8.6.4.1.7.3.8.6.2.3.2.7.2 1.1v.6c0 .6-.2 1.1-.5 1.4-.3.4-.8.6-1.4.6-.6 0-1.1-.2-1.4-.5-.3-.4-.4-.9-.4-1.5v-.6c0-.4.1-.8.2-1.1.2-.3.4-.5.9-.6-.4-.1-.7-.3-.8-.6-.2-.3-.2-.7-.2-1.1v-.3c0-.6.1-1.1.4-1.4.3-.4.8-.5 1.4-.5zm0 .4c-.4 0-.8.1-1 .4-.2.3-.3.6-.3 1.1v.3c0 .9.4 1.4 1.3 1.4s1.3-.5 1.3-1.4v-.3c0-.5-.1-.8-.3-1.1-.3-.2-.6-.4-1-.4zm0 3.7c-.9 0-1.3.5-1.3 1.4v.6c0 .5.1.8.3 1.1.2.3.5.4 1 .4.4 0 .8-.1 1-.4.2-.3.3-.6.3-1.1v-.6c0-.9-.4-1.4-1.3-1.4zm4.8-4.1c.3 0 .6 0 .8.1.2.1.4.2.5.4l.3.6c.1.2.1.5.1.8v.2h-.5v-.1c0-.4-.1-.8-.3-1.1-.2-.3-.5-.4-.9-.4-.2 0-.4 0-.6.1-.2.1-.3.2-.4.3-.1.1-.2.3-.2.5s-.1.4-.1.6v1.9c.1-.2.3-.4.5-.5.2-.1.5-.2.9-.2.3 0 .5 0 .7.1.2.1.4.2.5.4l.3.6c.1.2.1.5.1.8v1c0 .3 0 .6-.1.8-.1.2-.2.5-.3.6-.1.2-.3.3-.6.4-.2.1-.5.1-.8.1-.3 0-.6 0-.8-.1-.2-.1-.4-.2-.6-.4-.1-.2-.3-.4-.3-.6-.1-.3-.1-.5-.1-.8v-4.1c0-.3 0-.6.1-.8.1-.3.2-.5.3-.7.1-.2.3-.3.6-.4.3-.1.6-.1.9-.1zm0 3.7c-.5 0-.8.1-1 .4-.2.3-.3.6-.3 1.1v1c0 .4.1.8.3 1.1.2.3.5.4 1 .4.4 0 .8-.1 1-.4.2-.3.3-.6.3-1.1v-1c0-.4-.1-.8-.3-1.1-.3-.3-.6-.4-1-.4zm3.5 3.4v1h-.5v-1h.5zm2.8-6.2c-.1.2-.3.3-.5.5-.2.1-.4.2-.7.2V44c.4 0 .7-.1.9-.4.2-.2.4-.5.5-.8h.4V51h-.5v-7.2zm3.8-.9c.3 0 .6.1.8.2.2.1.4.2.5.4.1.2.2.4.3.7.1.2.1.5.1.8 0 .4-.1.7-.2 1-.1.3-.3.6-.5.9-.2.3-.5.5-.7.8-.3.3-.5.5-.7.8-.2.3-.4.6-.5.9-.1.3-.2.7-.2 1.1v.1h2.9v.4h-3.4v-.4c0-.5.1-.9.2-1.3s.3-.7.5-1c.2-.3.5-.6.7-.8.3-.3.5-.5.7-.8.2-.3.4-.5.6-.8.1-.3.2-.6.2-1 0-.5-.1-.8-.3-1.1-.2-.3-.5-.4-1-.4-.2 0-.4 0-.6.1-.2.1-.3.2-.4.3-.1.1-.2.3-.2.5s-.1.4-.1.6v.6h-.5V45c0-.3 0-.6.1-.8.1-.3.2-.5.3-.7.1-.2.3-.3.5-.4.3-.2.6-.2.9-.2zm3.5 7.1v1h-.5v-1h.5zm3-7.1c.3 0 .6.1.8.2.2.1.4.2.5.4.1.2.2.4.3.7.1.2.1.5.1.8 0 .4-.1.7-.2 1-.1.3-.3.6-.5.9-.2.3-.4.5-.7.8-.3.3-.5.5-.7.8-.2.3-.4.6-.5.9-.1.3-.2.7-.2 1.1v.1h2.9v.4h-3.4v-.4c0-.5.1-.9.2-1.3s.3-.7.5-1c.2-.3.5-.6.7-.8.3-.3.5-.5.7-.8.2-.3.4-.5.6-.8.1-.3.2-.6.2-1 0-.5-.1-.8-.3-1.1-.2-.3-.5-.4-1-.4-.2 0-.4 0-.6.1-.2.1-.3.2-.4.3-.1.1-.2.3-.2.5s-.1.4-.1.6v.6h-.5V45c0-.3 0-.6.1-.8.1-.3.2-.5.3-.7.1-.2.3-.3.5-.4.3-.2.6-.2.9-.2zm4.5.9c-.1.2-.3.3-.5.5-.2.1-.4.2-.7.2V44c.4 0 .7-.1.9-.4.2-.2.4-.5.5-.8h.4V51h-.5v-7.2zm4.1 1.1c0-.3 0-.6.1-.8.1-.3.2-.5.3-.6.1-.2.3-.3.6-.4.2-.1.5-.2.8-.2.3 0 .6.1.8.2.2.1.4.2.6.4.1.2.3.4.3.6.1.2.1.5.1.8V49c0 .3 0 .6-.1.8-.1.2-.2.5-.3.6-.1.2-.3.3-.6.4-.2.1-.5.1-.8.1-.3 0-.6 0-.8-.1-.2-.1-.4-.2-.6-.4l-.3-.6c-.1-.3-.1-.5-.1-.8v-4.1zm.5 4.2c0 .4.1.8.3 1.1.2.3.5.4 1 .4.4 0 .8-.1 1-.4.2-.3.3-.7.3-1.1v-4.2c0-.4-.1-.8-.3-1.1-.2-.3-.5-.4-1-.4-.4 0-.8.1-1 .4-.2.3-.3.6-.3 1.1v4.2zm5.8 1.9v-7.6h-1.6v-.5h3.8v.5h-1.6V51h-.6zm7-7.2c-.1.2-.3.3-.5.5-.2.1-.4.2-.7.2V44c.4 0 .7-.1.9-.4.2-.2.4-.5.5-.8h.4V51h-.5v-7.2zm3.7-.9c.3 0 .6.1.8.2.2.1.4.2.5.4l.3.6c.1.2.1.5.1.8v.2c0 .4-.1.7-.3 1-.2.3-.4.5-.8.6.4.1.6.3.8.6.2.3.3.6.3 1v.7c0 .3 0 .6-.1.8-.1.2-.2.5-.3.6-.1.2-.3.3-.5.4-.2.1-.5.1-.8.1-.3 0-.6 0-.8-.1-.2-.1-.4-.2-.5-.4l-.3-.6c-.1-.3-.1-.5-.1-.8v-.5h.5v.5c0 .2 0 .4.1.6 0 .2.1.3.2.5.1.1.2.2.4.3.2.1.3.1.6.1.4 0 .8-.1.9-.4.2-.3.3-.7.3-1.1v-.6c0-.4-.1-.7-.3-1-.2-.2-.5-.4-.9-.4h-.6v-.5h.6c.4 0 .7-.2.9-.4.2-.2.3-.6.3-1v-.3c0-.5-.1-.8-.3-1.1-.2-.3-.5-.4-.9-.4s-.8.1-.9.4c-.2.3-.3.6-.3 1.1v.3h-.5v-.3c0-.3 0-.6.1-.8.1-.3.2-.5.3-.6.1-.2.3-.3.5-.4.2-.1.4-.1.7-.1zm3.6 7.1v1h-.5v-1h.5zm2.8-6.2c-.1.2-.3.3-.5.5-.2.1-.4.2-.7.2V44c.4 0 .7-.1.9-.4.2-.2.4-.5.5-.8h.4V51h-.5v-7.2zm3.8-.9c.3 0 .6.1.8.2.2.1.4.2.5.4.1.2.2.4.3.7.1.2.1.5.1.8 0 .4-.1.7-.2 1-.1.3-.3.6-.5.9-.2.3-.4.5-.7.8-.3.3-.5.5-.7.8-.2.3-.4.6-.5.9-.1.3-.2.7-.2 1.1v.1h2.9v.4h-3.4v-.4c0-.5.1-.9.2-1.3s.3-.7.5-1c.2-.3.5-.6.7-.8.3-.3.5-.5.7-.8.2-.3.4-.5.6-.8.1-.3.2-.6.2-1 0-.5-.1-.8-.3-1.1-.2-.3-.5-.4-1-.4-.2 0-.4 0-.6.1-.2.1-.3.2-.4.3-.1.1-.2.3-.2.5s-.1.4-.1.6v.6h-.5V45c0-.3 0-.6.1-.8.1-.3.2-.5.3-.7.1-.2.3-.3.5-.4.3-.2.5-.2.9-.2zm3.4 7.1v1h-.5v-1h.5zm3-7.1c.3 0 .6.1.8.2.2.1.4.2.5.4.1.2.2.4.3.7.1.2.1.5.1.8 0 .4-.1.7-.2 1-.1.3-.3.6-.5.9-.2.3-.4.5-.7.8-.3.3-.5.5-.7.8-.2.3-.4.6-.5.9-.1.3-.2.7-.2 1.1v.1h2.9v.4h-3.4v-.4c0-.5.1-.9.2-1.3s.3-.7.5-1c.2-.3.5-.6.7-.8.3-.3.5-.5.7-.8.2-.3.4-.5.6-.8.1-.3.2-.6.2-1 0-.5-.1-.8-.3-1.1-.2-.3-.5-.4-1-.4-.2 0-.4 0-.6.1-.2.1-.3.2-.4.3-.1.1-.2.3-.2.5s-.1.4-.1.6v.6h-.5V45c0-.3 0-.6.1-.8.1-.3.2-.5.3-.7.1-.2.3-.3.5-.4.3-.2.6-.2.9-.2zm2.9 2c0-.3 0-.6.1-.8.1-.3.2-.5.3-.6.1-.2.3-.3.6-.4.2-.1.5-.1.8-.1.3 0 .6 0 .8.1.2.1.4.2.6.4.1.2.3.4.3.6.1.2.1.5.1.8V49c0 .3 0 .6-.1.8-.1.2-.2.5-.3.6-.1.2-.3.3-.6.4-.2.1-.5.1-.8.1-.3 0-.6 0-.8-.1-.2-.1-.4-.2-.6-.4-.1-.2-.3-.4-.3-.6-.1-.3-.1-.5-.1-.8v-4.1zm.6 4.2c0 .4.1.8.3 1.1.2.3.5.4 1 .4.4 0 .8-.1 1-.4.2-.3.3-.7.3-1.1v-4.2c0-.4-.1-.8-.3-1.1-.2-.3-.5-.4-1-.4-.4 0-.8.1-1 .4-.2.3-.3.6-.3 1.1v4.2zm6-6.2c.3 0 .6.1.8.2.2.1.4.2.5.4.1.2.2.4.3.7.1.2.1.5.1.8 0 .4-.1.7-.2 1-.1.3-.3.6-.5.9-.2.3-.4.5-.7.8-.3.3-.5.5-.7.8-.2.3-.4.6-.5.9-.1.3-.2.7-.2 1.1v.1h2.9v.4H160v-.4c0-.5.1-.9.2-1.3s.3-.7.5-1c.2-.3.5-.6.7-.8.3-.3.5-.5.7-.8.2-.3.4-.5.6-.8.1-.3.2-.6.2-1 0-.5-.1-.8-.3-1.1-.2-.3-.5-.4-1-.4-.2 0-.4 0-.6.1-.2.1-.3.2-.4.3-.1.1-.2.3-.2.5s-.1.4-.1.6v.6h-.5V45c0-.3 0-.6.1-.8.1-.3.2-.5.3-.7.1-.2.3-.3.5-.4.3-.2.5-.2.9-.2zm4.4.9c-.1.2-.3.3-.5.5-.2.1-.4.2-.7.2V44c.4 0 .7-.1.9-.4.2-.2.4-.5.5-.8h.4V51h-.6v-7.2zm4.8-.4V51h-.5v-8.1h3.1v.5h-2.6zm4.3 6.6v1h-.5v-1h.5z" style="fill:#6a6165"/><path d="M2.7 4.9c.9 0 1.6.2 2 .7.5.4.7 1.1.7 2v1.3c0 .9-.2 1.6-.6 2.1-.4.5-1.1.7-2 .7H0V.1h4.9v1.2H1.3v3.6h1.4zm0 5.7c.5 0 .8-.1 1-.4.3-.3.4-.7.4-1.2V7.6c0-.6-.1-1-.4-1.2s-.6-.3-1-.3H1.3v4.5h1.4zm7.4-4.3-1.7 5.4H7V.1h1.1v8.7l1.2-3.7 1.7-5h1.4v11.6h-1.2V2.5l-1.1 3.8zM14 2.9c0-.9.2-1.6.6-2.1.4-.5 1.1-.8 2-.8s1.6.3 2 .8c.4.5.7 1.2.7 2.1v6c0 .9-.2 1.6-.7 2.1-.4.5-1.1.8-2 .8s-1.6-.3-2-.8c-.4-.5-.6-1.2-.6-2.1v-6zM15.3 9c0 .5.1.9.3 1.2.2.3.6.4 1 .4.5 0 .8-.1 1-.4.2-.3.3-.7.3-1.2V2.9c0-.5-.1-.9-.3-1.2-.2-.3-.6-.4-1-.4-.5 0-.8.1-1 .4-.2.3-.3.7-.3 1.2V9zm8.1-7.7-.3 7.6c0 .5-.1.9-.1 1.2-.1.4-.2.7-.4.9-.2.2-.4.4-.7.6-.3.1-.7.2-1.1.2h-.2v-1.2c.3 0 .5 0 .6-.1.2-.1.3-.2.4-.3.1-.1.2-.3.2-.5s.1-.5.1-.7l.3-8.8h4.7v11.6h-1.3V1.3h-2.2zm5.1 1.6c0-.9.2-1.6.6-2.1.4-.5 1.1-.8 2-.8.9 0 1.6.3 2 .8.4.5.7 1.2.7 2.1v6c0 .9-.2 1.6-.7 2.1-.4.5-1.1.8-2 .8-.9 0-1.6-.3-2-.8-.4-.5-.6-1.2-.6-2.1v-6zM29.8 9c0 .5.1.9.3 1.2.2.3.6.4 1 .4.5 0 .8-.1 1-.4.2-.3.3-.7.3-1.2V2.9c0-.5-.1-.9-.3-1.2-.2-.3-.6-.4-1-.4-.5 0-.8.1-1 .4-.2.3-.3.7-.3 1.2V9zm6.9-7.7v10.4h-1.3V.1H40v1.2h-3.3zm8 5L43 11.7h-1.3V.1h1.1v8.7L44 5.1l1.7-5h1.4v11.6H46V2.5l-1.3 3.8zm8.1.3c-.2.3-.5.5-.8.7-.3.2-.7.2-1 .2-.4 0-.7-.1-1-.2-.3-.1-.5-.3-.7-.6-.2-.3-.3-.5-.4-.9-.1-.3-.1-.7-.1-1.1V.1H50v4.5c0 .5.1.9.4 1.2.2.3.6.5 1.1.5.8 0 1.3-.5 1.4-1.4V.1h1.3v11.6h-1.3V6.6zm7.1-1.3v1.2h-2.8v4.1h3.5v1.2h-4.8V.1h4.8v1.2h-3.5v4h2.8zM64.6 0c.9 0 1.6.3 2 .8.4.5.6 1.2.6 2.1v1H66v-1c0-.5-.1-.9-.3-1.2-.2-.3-.6-.4-1-.4-.5 0-.8.1-1 .4-.2.3-.3.7-.3 1.2V9c0 .5.1.9.3 1.2.2.3.6.4 1 .4.5 0 .8-.1 1-.4.2-.3.3-.7.3-1.2V7.5h1.2v1.4c0 .9-.2 1.6-.6 2.1-.4.5-1.1.8-2 .8-.9 0-1.5-.3-2-.8-.4-.5-.6-1.2-.6-2.1v-6c0-.4 0-.8.1-1.2.1-.4.3-.7.5-.9.2-.3.5-.4.8-.6.4-.1.7-.2 1.2-.2zm6.1 6.7L70 7.8v3.9h-1.3V.1H70v5.6L73.1.1h1.3l-2.9 5.3 3 6.3h-1.3l-2.5-5zm6.4 2.7-.4 2.3h-1.2L77.7.1h1.9l2.2 11.6h-1.3l-.4-2.3h-3zm.2-1.1h2.6l-1.3-6.7-1.3 6.7zm8.9-1.5c-.5 0-1 .1-1.3.4-.3.2-.4.7-.4 1.3v2.7c0 .2-.1.4-.2.5H83c.1-.2.2-.4.2-.6V8.5c0-.6.1-1.2.3-1.6.2-.4.6-.7 1.1-.9-1-.3-1.4-1.1-1.4-2.4v-.8c0-.9.2-1.5.6-2 .4-.5 1.1-.7 2-.7h2.6v11.6h-1.3v-5h-.9zm-.4-5.5c-.5 0-.8.1-1 .4-.2.3-.3.7-.3 1.2V4c0 .6.1 1.1.4 1.3.3.2.7.3 1.2.3h1V1.3h-1.3zm12.9 12v-1.6H94v1.6h-1.2v-2.7h.7c.2-.2.3-.5.4-.7.1-.3.1-.6.1-.9l.4-8.8h4.7v10.5h.9v2.7h-1.3zm-3.5-4.4c0 .4-.1.8-.1 1-.1.3-.2.5-.4.7h3.1V1.3h-2.2l-.4 7.6zm6.1-6c0-.9.2-1.6.6-2.1.4-.5 1.1-.8 2-.8.9 0 1.6.3 2 .8.4.5.7 1.2.7 2.1v6c0 .9-.2 1.6-.7 2.1-.4.5-1.1.8-2 .8-.9 0-1.6-.3-2-.8-.4-.5-.6-1.2-.6-2.1v-6zm1.3 6.1c0 .5.1.9.3 1.2.2.3.6.4 1 .4.5 0 .8-.1 1-.4.2-.3.3-.7.3-1.2V2.9c0-.5-.1-.9-.3-1.2-.2-.3-.6-.4-1-.4-.5 0-.8.1-1 .4-.2.3-.3.7-.3 1.2V9zm8.2-4.1c.9 0 1.6.2 2 .7.5.4.7 1.1.7 2.1V9c0 .9-.2 1.6-.6 2.1-.4.5-1.1.7-2 .7h-2.7V.1h4.9v1.2h-3.6v3.6h1.3zm.1 5.7c.5 0 .8-.1 1-.4.2-.3.3-.7.3-1.2V7.6c0-.6-.1-1-.4-1.2-.2-.2-.6-.3-1.1-.3h-1.4v4.5h1.6zm5.6-1.2-.4 2.3h-1.2L117.1.1h1.9l2.2 11.6h-1.3l-.4-2.3h-3zm.2-1.1h2.6L118 1.6l-1.3 6.7zm8.4-8.2c.9 0 1.6.2 1.9.6.4.4.6 1.1.6 1.9v.5c0 .6-.1 1.1-.3 1.5-.2.4-.6.6-1.1.8.6.2 1 .4 1.2.9.2.4.4 1 .4 1.6v1c0 .9-.2 1.5-.6 2-.4.5-1.1.7-2 .7h-2.7V.1h2.6zm-.3 4.9c.5 0 .9-.1 1.2-.3.3-.2.4-.6.4-1.2v-.7c0-.5-.1-.9-.3-1.1-.2-.3-.5-.4-1-.4h-1.3V5h1zm.4 5.6c.9 0 1.4-.5 1.4-1.6V8c0-.7-.1-1.1-.4-1.3-.3-.3-.7-.4-1.2-.4h-1.1v4.3h1.3zm6.1-3.9-.7 1.1v3.9h-1.3V.1h1.3v5.6l3.1-5.6h1.3l-2.9 5.3 3 6.3h-1.3l-2.5-5zm6.5 2.7-.4 2.3h-1.2L138.4.1h1.9l2.2 11.6h-1.3l-.4-2.3h-3zm.1-1.1h2.6l-1.3-6.7-1.3 6.7zm10.8-1.6-.7 1.1v3.9h-1.3V.1h1.3v5.6l3.1-5.6h1.3l-2.9 5.3 3 6.3h-1.3l-2.5-5zm9.3-5.4v10.4h-1.3V.1h5.4v11.6h-1.3V1.3H158zm8.9 5-1.7 5.4h-1.3V.1h1.1v8.7l1.2-3.7 1.7-5h1.4v11.6h-1.2V2.5l-1.2 3.8zm12 7v-1.6h-8V.1h1.3v10.4h2.2V.1h1.3v10.4h2.2V.1h1.3v10.5h.9v2.7h-1.2zm6.9-8v1.2H183v4.1h3.5v1.2h-4.8V.1h4.8v1.2H183v4h2.8zm2.7 6.4h-.5v-1.6h1.2v1.5l-.6 1.6h-.5l.4-1.5zM1.3 25.5v5.2H0V19.1h1.3v5.2h2.9v-5.2h1.3v11.6H4.1v-5.2H1.3zm9.9-1.2v1.2H8.4v4.1h3.5v1.2H7.1V19.1h4.8v1.2H8.4v4h2.8zm8.1 1.5c-.5 0-1 .1-1.3.4-.3.2-.4.7-.4 1.3v2.7c0 .2-.1.4-.2.5h-1.3c.1-.2.2-.4.2-.6v-2.5c0-.6.1-1.2.3-1.6.2-.4.6-.7 1.1-.9-1-.3-1.4-1.1-1.4-2.4v-.9c0-.9.2-1.5.6-2 .4-.5 1.1-.7 2-.7h2.6v11.6h-1.3v-5h-.9zm-.3-5.5c-.5 0-.8.1-1 .4-.2.3-.3.7-.3 1.2V23c0 .6.1 1.1.4 1.3.3.2.7.3 1.2.3h1v-4.3H19zm6.8-1.2c.9 0 1.6.2 1.9.6.4.4.6 1.1.6 1.9v.5c0 .6-.1 1.1-.3 1.5-.2.4-.6.6-1.1.8.6.2 1 .4 1.2.9.2.4.4 1 .4 1.6v1c0 .9-.2 1.5-.6 2-.4.5-1.1.7-2 .7h-2.7V19.1h2.6zm-.3 4.9c.5 0 .9-.1 1.2-.3.3-.2.4-.6.4-1.2v-.7c0-.5-.1-.9-.3-1.1-.2-.3-.5-.4-1-.4h-1.3V24h1zm.4 5.6c.9 0 1.4-.5 1.4-1.6v-1c0-.7-.1-1.1-.4-1.3-.3-.3-.7-.4-1.2-.4h-1.1v4.3h1.3zm6.6-9.3-.3 7.6c0 .5-.1.9-.1 1.2-.1.4-.2.7-.4.9-.2.2-.4.4-.7.6-.3.1-.7.2-1.1.2h-.2v-1.2c.3 0 .5 0 .6-.1.2-.1.3-.2.4-.3.1-.1.2-.3.2-.5s.1-.5.1-.7l.3-8.8H36v11.6h-1.3V20.3h-2.2zm8.2 5.5c-.5 0-1 .1-1.3.4-.3.2-.4.7-.4 1.3v2.7c0 .2-.1.4-.2.5h-1.3c.1-.2.2-.4.2-.6v-2.5c0-.6.1-1.2.3-1.6.2-.4.6-.7 1.1-.9-1-.3-1.4-1.1-1.4-2.4v-.9c0-.9.2-1.5.6-2 .4-.5 1.1-.7 2-.7h2.6v11.6h-1.3v-5h-.9zm-.3-5.5c-.5 0-.8.1-1 .4-.3.3-.4.7-.4 1.2V23c0 .6.1 1.1.4 1.3.3.2.7.3 1.2.3h1v-4.3h-1.2zm8.3 4v1.2h-2.8v4.1h3.5v1.2h-4.8V19.1h4.8v1.2h-3.5v4h2.8zm4 6.4V20.3h-2.1v-1.2h5.6v1.2H54v10.4h-1.3zM59.9 19c.9 0 1.6.3 2 .8.4.5.6 1.2.6 2.1v1h-1.2v-1.1c0-.5-.1-.9-.3-1.2-.2-.3-.6-.4-1-.4-.5 0-.8.1-1 .4-.2.3-.3.7-.3 1.2V28c0 .5.1.9.3 1.2.2.3.6.4 1 .4.5 0 .8-.1 1-.4.2-.3.3-.7.3-1.2v-1.5h1.2v1.4c0 .9-.2 1.6-.6 2.1-.4.5-1.1.8-2 .8-.9 0-1.5-.3-2-.8-.4-.5-.6-1.2-.6-2.1v-6c0-.4 0-.8.1-1.2.1-.4.3-.7.5-.9.2-.3.5-.4.8-.6.4-.1.8-.2 1.2-.2zm7.2 6.8c-.5 0-1 .1-1.3.4-.3.2-.4.7-.4 1.3v2.7c0 .2-.1.4-.2.5h-1.3c.1-.2.2-.4.2-.6v-2.5c0-.6.1-1.2.3-1.6.2-.4.6-.7 1.1-.9-1-.3-1.4-1.1-1.4-2.4v-.9c0-.9.2-1.5.6-2 .4-.5 1.1-.7 2-.7h2.6v11.6H68v-5h-.9zm-.4-5.5c-.5 0-.8.1-1 .4-.2.3-.3.7-.3 1.2V23c0 .6.1 1.1.4 1.3.3.2.7.3 1.2.3h1v-4.3h-1.3zm9.6 0-.3 7.5c0 .5-.1.9-.1 1.2-.1.4-.2.7-.4.9-.2.2-.4.4-.7.6-.3.1-.7.2-1.1.2h-.2v-1.2c.3 0 .5 0 .6-.1.2-.1.3-.2.4-.3.1-.1.2-.3.2-.5s.1-.5.1-.7l.3-8.8h4.7v11.6h-1.3V20.3h-2.2zm9.4 4v1.2h-2.8v4.1h3.5v1.2h-4.8V19.1h4.8v1.2h-3.5v4h2.8zm4.1 1.4-.7 1.1v3.9h-1.3V19.1h1.3v5.6l3.1-5.6h1.3l-2.9 5.3 3 6.3h-1.3l-2.5-5zm6.5 2.7-.4 2.3h-1.2l2.2-11.6h1.9l2.2 11.6h-1.3l-.4-2.3h-3zm.2-1.1H99l-1.3-6.7-1.2 6.7zm8.4-8.2c.9 0 1.6.3 2 .8.4.5.6 1.2.6 2.1v1.4c0 .9-.2 1.6-.7 2.1-.4.5-1.1.7-2 .7h-1.1v4.6h-1.3V19.1h2.5zm-.1 5.9c.5 0 .8-.1 1.1-.3.2-.2.3-.6.3-1.2V22c0-.5-.1-.9-.3-1.2-.2-.3-.5-.4-1-.4h-1.2V25h1.1zm6.5-6c.9 0 1.6.3 2 .8.4.5.6 1.2.6 2.1v1h-1.2v-1.1c0-.5-.1-.9-.3-1.2-.2-.3-.6-.4-1-.4-.5 0-.8.1-1 .4-.2.3-.3.7-.3 1.2V28c0 .5.1.9.3 1.2.2.3.6.4 1 .4.5 0 .8-.1 1-.4.2-.3.3-.7.3-1.2v-1.5h1.2v1.4c0 .9-.2 1.6-.6 2.1-.4.5-1.1.8-2 .8-.9 0-1.5-.3-2-.8-.4-.5-.6-1.2-.6-2.1v-6c0-.4.1-.8.1-1.2.1-.4.3-.7.5-.9.2-.3.5-.4.8-.6.4-.1.8-.2 1.2-.2zm5.9 11.7V20.3h-2.1v-1.2h5.6v1.2h-2.1v10.4h-1.4zm7.4-11.6c.9 0 1.6.2 1.9.6.4.4.6 1.1.6 1.9v.5c0 .6-.1 1.1-.3 1.5-.2.4-.6.6-1.1.8.6.2 1 .4 1.2.9.2.4.4 1 .4 1.6v1c0 .9-.2 1.5-.6 2-.4.5-1.1.7-2 .7H122V19.1h2.6zm-.4 4.9c.5 0 .9-.1 1.2-.3.3-.2.4-.6.4-1.2v-.7c0-.5-.1-.9-.3-1.1-.2-.3-.5-.4-1-.4h-1.3V24h1zm.4 5.6c.9 0 1.4-.5 1.4-1.6v-1c0-.7-.1-1.1-.4-1.3-.3-.3-.7-.4-1.2-.4h-1.1v4.3h1.3zm8.3-5.3v1.2h-2.8v4.1h3.5v1.2h-4.8V19.1h4.8v1.2h-3.5v4h2.8zm3.5 1.2v5.2h-1.3V19.1h1.3v5.2h2.9v-5.2h1.3v11.6h-1.3v-5.2h-2.9zm7.1 0v5.2h-1.3V19.1h1.3v5.2h2.9v-5.2h1.3v11.6h-1.3v-5.2h-2.9zm8.3-1.8c.9 0 1.6.2 2 .7.4.5.7 1.2.7 2.1v1.4c0 .9-.2 1.6-.6 2.1-.4.5-1.1.7-2 .7h-2.5V19.1h1.3v4.6h1.1zm5-4.6v11.6h-1.3V19.1h1.3zm-4.9 10.5c.5 0 .8-.1 1-.4.2-.3.3-.7.3-1.2v-1.5c0-.6-.1-1-.3-1.2-.2-.2-.6-.4-1.1-.4h-1.1v4.7h1.2zm10.9 1.1h-1.2l-1.9-9.2v9.3h-1.1V19.1h1.8l1.9 9.3 1.8-9.3h1.8v11.6h-1.2v-9.3l-1.9 9.3zM172.9 19c.9 0 1.6.3 2 .8.4.5.6 1.2.6 2.1v1h-1.2v-1.1c0-.5-.1-.9-.3-1.2-.2-.3-.6-.4-1-.4-.5 0-.8.1-1 .4-.2.3-.3.7-.3 1.2V28c0 .5.1.9.3 1.2.2.3.6.4 1 .4.5 0 .8-.1 1-.4.2-.3.3-.7.3-1.2v-1.5h1.2v1.4c0 .9-.2 1.6-.6 2.1-.4.5-1.1.8-2 .8-.9 0-1.5-.3-2-.8-.4-.5-.6-1.2-.6-2.1v-6c0-.4 0-.8.1-1.2.1-.4.3-.7.5-.9.2-.3.5-.4.8-.6.4-.1.8-.2 1.2-.2zm6.7.1c.9 0 1.6.3 2 .8.4.5.6 1.2.6 2.1v1.4c0 .9-.2 1.6-.7 2.1-.4.5-1.1.7-2 .7h-1.1v4.6H177V19.1h2.6zm-.1 5.9c.5 0 .8-.1 1.1-.3.2-.2.3-.6.3-1.2V22c0-.5-.1-.9-.3-1.2-.2-.3-.5-.4-1-.4h-1.2V25h1.1zm8.2-.7v1.2h-2.8v4.1h3.5v1.2h-4.8V19.1h4.8v1.2h-3.5v4h2.8zm7.9 8v-1.6h-4.7v1.6h-1.2v-2.7h.7c.2-.2.3-.5.4-.7.1-.3.1-.6.1-.9l.4-8.8h4.7v10.5h.9v2.7h-1.3zm-3.5-4.4c0 .4-.1.8-.1 1-.1.3-.2.5-.4.7h3.1v-9.3h-2.2l-.4 7.6zm8.7-8.9c.9 0 1.6.3 2 .8.4.5.6 1.2.6 2.1v1h-1.2v-1.1c0-.5-.1-.9-.3-1.2-.2-.3-.6-.4-1-.4-.5 0-.8.1-1 .4-.2.3-.3.7-.3 1.2V28c0 .5.1.9.3 1.2.2.3.6.4 1 .4.5 0 .8-.1 1-.4.2-.3.3-.7.3-1.2v-1.5h1.2v1.4c0 .9-.2 1.6-.6 2.1-.4.5-1.1.8-2 .8-.9 0-1.5-.3-2-.8-.4-.5-.6-1.2-.6-2.1v-6c0-.4.1-.8.2-1.2.1-.4.3-.7.5-.9.2-.3.5-.4.8-.6.3-.1.7-.2 1.1-.2zm5.9 11.7V20.3h-2.1v-1.2h5.6v1.2H208v10.4h-1.3zm7.4-11.6c.9 0 1.6.2 1.9.6.4.4.6 1.1.6 1.9v.5c0 .6-.1 1.1-.3 1.5-.2.4-.6.6-1.1.8.6.2 1 .4 1.2.9.2.4.4 1 .4 1.6v1c0 .9-.2 1.5-.6 2-.4.5-1.1.7-2 .7h-2.7V19.1h2.6zm-.4 4.9c.5 0 .9-.1 1.2-.3.3-.2.4-.6.4-1.2v-.7c0-.5-.1-.9-.3-1.1-.2-.3-.5-.4-1-.4h-1.3V24h1zm.4 5.6c.9 0 1.4-.5 1.4-1.6v-1c0-.7-.1-1.1-.4-1.3-.3-.3-.7-.4-1.2-.4h-1.1v4.3h1.3zm4.1-7.7c0-.9.2-1.6.6-2.1.4-.5 1.1-.8 2-.8.9 0 1.6.3 2 .8.4.5.7 1.2.7 2.1v6c0 .9-.2 1.6-.7 2.1-.4.5-1.1.8-2 .8-.9 0-1.6-.3-2-.8-.4-.5-.6-1.2-.6-2.1v-6zm1.3 6.1c0 .5.1.9.3 1.2.2.3.6.4 1 .4.5 0 .8-.1 1-.4.2-.3.3-.7.3-1.2v-6.1c0-.5-.1-.9-.3-1.2-.2-.3-.6-.4-1-.4-.5 0-.8.1-1 .4-.2.3-.3.7-.3 1.2V28zm9.9 2.7h-1.2l-1.9-9.2v9.3h-1.1V19.1h1.8l1.9 9.3 1.8-9.3h1.8v11.6h-1.2v-9.3l-1.9 9.3z" style="fill:#525252"/></svg>