<svg width="264" height="32" fill="none" xmlns="http://www.w3.org/2000/svg"><path d="M.872 25V.273H6.1v10.202h10.613V.273h5.216V25h-5.216V14.786H6.1V25H.872Zm33.65.362c-1.876 0-3.498-.398-4.866-1.195-1.36-.805-2.41-1.924-3.151-3.357-.74-1.44-1.111-3.11-1.111-5.01 0-1.916.37-3.59 1.11-5.023.741-1.44 1.792-2.56 3.152-3.357 1.368-.804 2.99-1.207 4.866-1.207 1.875 0 3.493.403 4.853 1.207 1.369.797 2.423 1.916 3.164 3.357.74 1.433 1.11 3.107 1.11 5.023 0 1.9-.37 3.57-1.11 5.01a8.156 8.156 0 0 1-3.164 3.357c-1.36.797-2.978 1.195-4.853 1.195Zm.024-3.984c.853 0 1.565-.242 2.137-.725.571-.49 1.002-1.159 1.292-2.004.298-.845.447-1.807.447-2.886 0-1.078-.15-2.04-.447-2.885-.29-.845-.72-1.513-1.292-2.004-.572-.491-1.284-.737-2.137-.737-.861 0-1.586.246-2.173.737-.58.49-1.019 1.159-1.316 2.004-.29.845-.435 1.807-.435 2.886 0 1.078.145 2.04.434 2.885.298.845.737 1.513 1.317 2.004.587.483 1.312.725 2.173.725ZM46.994 25V6.455h7.908c2.286 0 4.093.434 5.422 1.304 1.328.869 1.992 2.104 1.992 3.706 0 1.006-.375 1.844-1.123 2.512-.749.668-1.787 1.118-3.115 1.352 1.11.08 2.056.334 2.837.76.789.419 1.389.962 1.8 1.63a4.1 4.1 0 0 1 .627 2.222c0 1.055-.282 1.96-.845 2.717-.556.756-1.373 1.336-2.451 1.738-1.07.403-2.379.604-3.924.604h-9.128Zm4.793-3.852h4.335c.716 0 1.276-.169 1.678-.507.41-.346.616-.817.616-1.412 0-.66-.205-1.18-.616-1.558-.402-.378-.962-.567-1.678-.567h-4.335v4.044Zm0-7.063h3.224c.515 0 .954-.072 1.316-.217.37-.153.652-.37.845-.652.202-.282.302-.616.302-1.002 0-.572-.23-1.019-.688-1.34-.459-.322-1.087-.483-1.884-.483h-3.115v3.694ZM71.872 25.35c-1.183 0-2.237-.205-3.163-.616a5.093 5.093 0 0 1-2.198-1.847c-.53-.82-.796-1.843-.796-3.067 0-1.03.189-1.895.567-2.596.378-.7.893-1.263 1.545-1.69a7.495 7.495 0 0 1 2.222-.966c.837-.217 1.714-.37 2.632-.459a66.84 66.84 0 0 0 2.608-.313c.66-.105 1.139-.258 1.437-.46.298-.2.447-.498.447-.893v-.072c0-.765-.242-1.357-.725-1.775-.475-.419-1.15-.628-2.028-.628-.926 0-1.662.205-2.21.616-.547.402-.91.91-1.086 1.521l-4.757-.386c.241-1.127.716-2.101 1.424-2.922.709-.83 1.622-1.465 2.741-1.908 1.127-.45 2.43-.676 3.912-.676 1.03 0 2.016.12 2.958.362a7.74 7.74 0 0 1 2.523 1.123 5.456 5.456 0 0 1 1.751 1.956c.427.789.64 1.735.64 2.838V25h-4.878v-2.572h-.145a5.233 5.233 0 0 1-1.195 1.534 5.53 5.53 0 0 1-1.799 1.026c-.7.241-1.51.362-2.427.362Zm1.473-3.55c.757 0 1.425-.149 2.004-.446a3.55 3.55 0 0 0 1.365-1.232c.33-.515.495-1.099.495-1.75v-1.969a2.758 2.758 0 0 1-.664.29c-.274.08-.584.157-.93.23-.346.064-.692.124-1.038.18l-.942.133a6.36 6.36 0 0 0-1.582.423c-.45.193-.8.455-1.05.785-.25.322-.374.724-.374 1.207 0 .7.253 1.236.76 1.606.515.362 1.167.543 1.956.543ZM97.173 25V10.487h-3.477c-.942 0-1.659.217-2.15.652-.49.435-.732.95-.724 1.546-.008.603.225 1.114.7 1.533.483.41 1.192.616 2.125.616h5.24v3.477h-5.24c-1.585 0-2.958-.241-4.117-.724-1.159-.483-2.052-1.155-2.68-2.017-.628-.869-.938-1.88-.93-3.03-.008-1.208.302-2.266.93-3.176.628-.917 1.525-1.63 2.692-2.137 1.175-.515 2.56-.772 4.154-.772h8.27V25h-4.793Zm-11.784 0 5.155-9.66h4.915L90.314 25h-4.926Zm37.317 6.303V.273h5.132v31.03h-5.132Zm0-5.94c-1.425 0-2.725-.23-3.9-.689a8.976 8.976 0 0 1-3.042-1.968 8.89 8.89 0 0 1-1.98-3.03c-.467-1.176-.701-2.468-.701-3.876 0-1.425.234-2.72.701-3.888a8.737 8.737 0 0 1 1.98-3.03 8.74 8.74 0 0 1 3.042-1.969c1.175-.466 2.475-.7 3.9-.7h.954v19.15h-.954Zm0-4.01h.568V10.223h-.568c-.692 0-1.308.145-1.847.434-.539.29-.994.688-1.365 1.196a5.453 5.453 0 0 0-.845 1.762 8.255 8.255 0 0 0-.277 2.186c0 1.03.169 1.968.507 2.813.338.837.833 1.505 1.485 2.004.652.491 1.433.737 2.342.737Zm5.132 4.01h-.954V6.212h.954c1.424 0 2.724.234 3.899.7a8.735 8.735 0 0 1 3.043 1.968 8.766 8.766 0 0 1 1.98 3.03c.467 1.168.7 2.464.7 3.889 0 1.408-.233 2.7-.7 3.875a8.92 8.92 0 0 1-1.98 3.031 8.97 8.97 0 0 1-3.043 1.968c-1.175.459-2.475.688-3.899.688Zm0-4.01c.692 0 1.308-.14 1.847-.422.539-.29.994-.688 1.364-1.195.37-.507.652-1.095.845-1.763.194-.676.29-1.4.29-2.173 0-1.039-.173-1.976-.519-2.814-.338-.845-.829-1.517-1.473-2.016-.644-.499-1.429-.748-2.354-.748h-.568v11.132h.568Zm21.367 4.01c-1.875 0-3.497-.4-4.866-1.196-1.36-.805-2.41-1.924-3.151-3.357-.74-1.44-1.111-3.11-1.111-5.01 0-1.916.371-3.59 1.111-5.023.741-1.44 1.791-2.56 3.151-3.357 1.369-.804 2.991-1.207 4.866-1.207 1.876 0 3.494.403 4.854 1.207 1.368.797 2.423 1.916 3.163 3.357.741 1.433 1.111 3.107 1.111 5.023 0 1.9-.37 3.57-1.111 5.01a8.154 8.154 0 0 1-3.163 3.357c-1.36.797-2.978 1.195-4.854 1.195Zm.024-3.985c.854 0 1.566-.242 2.137-.725.572-.49 1.003-1.159 1.292-2.004.298-.845.447-1.807.447-2.886 0-1.078-.149-2.04-.447-2.885-.289-.845-.72-1.513-1.292-2.004-.571-.491-1.283-.737-2.137-.737-.861 0-1.585.246-2.173.737-.579.49-1.018 1.159-1.316 2.004-.29.845-.435 1.807-.435 2.886 0 1.078.145 2.04.435 2.885.298.845.737 1.513 1.316 2.004.588.483 1.312.725 2.173.725Zm12.449 10.576v-25.5h5.071V9.57h.229a6.776 6.776 0 0 1 .978-1.522c.435-.523.998-.958 1.69-1.304.701-.354 1.57-.53 2.608-.53 1.353 0 2.6.353 3.743 1.062 1.143.7 2.057 1.758 2.741 3.175.684 1.409 1.026 3.175 1.026 5.3 0 2.07-.334 3.816-1.002 5.24-.66 1.417-1.561 2.492-2.704 3.224-1.135.725-2.407 1.087-3.816 1.087-.998 0-1.847-.165-2.547-.495-.693-.33-1.26-.745-1.703-1.244a6.293 6.293 0 0 1-1.014-1.533h-.157v9.924h-5.143Zm5.034-16.227c0 1.103.153 2.065.459 2.886.306.82.749 1.46 1.328 1.92.58.45 1.284.676 2.113.676.837 0 1.546-.23 2.125-.688.58-.467 1.018-1.111 1.316-1.932.306-.83.459-1.783.459-2.862 0-1.07-.149-2.012-.447-2.825-.297-.813-.736-1.449-1.316-1.908-.579-.458-1.292-.688-2.137-.688-.837 0-1.545.222-2.125.664-.571.443-1.01 1.07-1.316 1.884-.306.813-.459 1.77-.459 2.873Zm27.444 3.586 5.023-12.858h3.912L195.859 25h-3.417l-7.063-18.545h3.899l4.878 12.858Zm-6.049-12.858V25h-4.914V6.455h4.914ZM200.459 25V6.455h4.853V25h-4.853Zm11.343 6.954c-.652 0-1.264-.052-1.835-.156-.563-.097-1.03-.222-1.401-.375l1.159-3.84c.604.186 1.148.287 1.63.303.491.016.914-.097 1.268-.338.362-.242.656-.652.882-1.232l.301-.785-6.652-19.076h5.409l3.839 13.619h.194l3.875-13.62h5.446l-7.209 20.55c-.346.998-.817 1.868-1.412 2.608a5.79 5.79 0 0 1-2.234 1.727c-.901.41-1.988.616-3.26.616ZM225.968 25l-.024-4.081h.615c.435 0 .809-.105 1.123-.314.322-.217.588-.567.797-1.05.21-.483.375-1.123.495-1.92.121-.805.201-1.795.242-2.97l.302-8.21h14.102V25h-4.902V10.5h-4.576l-.29 5.662c-.072 1.553-.262 2.89-.567 4.009-.298 1.118-.713 2.036-1.244 2.752-.531.709-1.171 1.232-1.92 1.57-.748.338-1.618.507-2.608.507h-1.545Zm26.928.35c-1.184 0-2.238-.205-3.164-.616a5.094 5.094 0 0 1-2.197-1.847c-.531-.82-.797-1.843-.797-3.067 0-1.03.189-1.895.567-2.596.379-.7.894-1.263 1.546-1.69a7.493 7.493 0 0 1 2.221-.966c.838-.217 1.715-.37 2.633-.459a66.871 66.871 0 0 0 2.607-.313c.661-.105 1.139-.258 1.437-.46.298-.2.447-.498.447-.893v-.072c0-.765-.241-1.357-.724-1.775-.475-.419-1.151-.628-2.029-.628-.925 0-1.662.205-2.209.616-.548.402-.91.91-1.087 1.521l-4.757-.386c.241-1.127.716-2.101 1.425-2.922.708-.83 1.622-1.465 2.74-1.908 1.127-.45 2.431-.676 3.912-.676 1.031 0 2.017.12 2.958.362.95.242 1.791.616 2.524 1.123a5.467 5.467 0 0 1 1.751 1.956c.426.789.639 1.735.639 2.838V25h-4.877v-2.572h-.145a5.224 5.224 0 0 1-1.196 1.534 5.523 5.523 0 0 1-1.799 1.026c-.7.241-1.509.362-2.426.362Zm1.473-3.55c.756 0 1.424-.149 2.004-.446a3.554 3.554 0 0 0 1.364-1.232c.33-.515.495-1.099.495-1.75v-1.969a2.754 2.754 0 0 1-.664.29c-.273.08-.583.157-.93.23a46.96 46.96 0 0 1-1.038.18l-.942.133a6.354 6.354 0 0 0-1.581.423c-.451.193-.801.455-1.051.785-.249.322-.374.724-.374 1.207 0 .7.254 1.236.761 1.606.515.362 1.167.543 1.956.543Z" fill="#0D1907"/></svg>