<?xml version="1.0" encoding="utf-8"?>
<!-- Generator: Adobe Illustrator 25.2.3, SVG Export Plug-In . SVG Version: 6.00 Build 0)  -->
<svg version="1.1" id="Layer_1" xmlns="http://www.w3.org/2000/svg" xmlns:xlink="http://www.w3.org/1999/xlink" x="0px" y="0px"
	 viewBox="0 0 259 32" style="enable-background:new 0 0 259 32;" xml:space="preserve">
<style type="text/css">
	.st0{fill:#0D1907;}
</style>
<path class="st0" d="M20.1,0.3V25H15V0.3H20.1z M0.1,25l7.8-13L0.4,0.3h6.4l5.6,10.2h10.4l5.4-10.2h6.4l-7.2,11.7L35,25h-6.2
	l-5.2-9.7H11.6L6.3,25H0.1z M43.3,25.4c-1.2,0-2.2-0.2-3.2-0.6c-0.9-0.4-1.7-1-2.2-1.8c-0.5-0.8-0.8-1.8-0.8-3.1
	c0-1,0.2-1.9,0.6-2.6c0.4-0.7,0.9-1.3,1.5-1.7c0.7-0.4,1.4-0.7,2.2-1c0.8-0.2,1.7-0.4,2.6-0.5c1.1-0.1,1.9-0.2,2.6-0.3
	c0.7-0.1,1.1-0.3,1.4-0.5c0.3-0.2,0.4-0.5,0.4-0.9v-0.1c0-0.8-0.2-1.4-0.7-1.8c-0.5-0.4-1.2-0.6-2-0.6c-0.9,0-1.7,0.2-2.2,0.6
	c-0.5,0.4-0.9,0.9-1.1,1.5l-4.8-0.4c0.2-1.1,0.7-2.1,1.4-2.9C39.9,8,40.9,7.3,42,6.9c1.1-0.5,2.4-0.7,3.9-0.7c1,0,2,0.1,3,0.4
	c0.9,0.2,1.8,0.6,2.5,1.1c0.7,0.5,1.3,1.2,1.8,2c0.4,0.8,0.6,1.7,0.6,2.8V25h-4.9v-2.6h-0.1C48.4,23,48,23.5,47.5,24
	c-0.5,0.4-1.1,0.8-1.8,1C45,25.2,44.2,25.4,43.3,25.4z M44.8,21.8c0.8,0,1.4-0.1,2-0.4c0.6-0.3,1-0.7,1.4-1.2
	c0.3-0.5,0.5-1.1,0.5-1.8v-2c-0.2,0.1-0.4,0.2-0.7,0.3c-0.3,0.1-0.6,0.2-0.9,0.2c-0.3,0.1-0.7,0.1-1,0.2c-0.3,0-0.7,0.1-0.9,0.1
	c-0.6,0.1-1.1,0.2-1.6,0.4c-0.5,0.2-0.8,0.5-1.1,0.8c-0.2,0.3-0.4,0.7-0.4,1.2c0,0.7,0.3,1.2,0.8,1.6C43.3,21.6,44,21.8,44.8,21.8z
	 M70.7,13.7v4H61v-4H70.7z M62.7,6.5V25h-4.9V6.5H62.7z M73.9,6.5V25H69V6.5H73.9z M78.8,21.5V31h-5v-9.5H78.8z M87.2,25.4
	c-1.2,0-2.2-0.2-3.2-0.6c-0.9-0.4-1.7-1-2.2-1.8C81.3,22.1,81,21,81,19.8c0-1,0.2-1.9,0.6-2.6c0.4-0.7,0.9-1.3,1.5-1.7
	c0.7-0.4,1.4-0.7,2.2-1c0.8-0.2,1.7-0.4,2.6-0.5c1.1-0.1,1.9-0.2,2.6-0.3c0.7-0.1,1.1-0.3,1.4-0.5c0.3-0.2,0.4-0.5,0.4-0.9v-0.1
	c0-0.8-0.2-1.4-0.7-1.8c-0.5-0.4-1.2-0.6-2-0.6c-0.9,0-1.7,0.2-2.2,0.6c-0.5,0.4-0.9,0.9-1.1,1.5l-4.8-0.4c0.2-1.1,0.7-2.1,1.4-2.9
	c0.7-0.8,1.6-1.5,2.7-1.9c1.1-0.5,2.4-0.7,3.9-0.7c1,0,2,0.1,3,0.4c0.9,0.2,1.8,0.6,2.5,1.1c0.7,0.5,1.3,1.2,1.8,2
	c0.4,0.8,0.6,1.7,0.6,2.8V25h-4.9v-2.6h-0.1c-0.3,0.6-0.7,1.1-1.2,1.5c-0.5,0.4-1.1,0.8-1.8,1C88.9,25.2,88.1,25.4,87.2,25.4z
	 M88.6,21.8c0.8,0,1.4-0.1,2-0.4c0.6-0.3,1-0.7,1.4-1.2c0.3-0.5,0.5-1.1,0.5-1.8v-2c-0.2,0.1-0.4,0.2-0.7,0.3
	c-0.3,0.1-0.6,0.2-0.9,0.2c-0.3,0.1-0.7,0.1-1,0.2c-0.3,0-0.7,0.1-0.9,0.1c-0.6,0.1-1.1,0.2-1.6,0.4c-0.5,0.2-0.8,0.5-1.1,0.8
	c-0.2,0.3-0.4,0.7-0.4,1.2c0,0.7,0.3,1.2,0.8,1.6C87.2,21.6,87.9,21.8,88.6,21.8z M118.3,31.3v-31h5.1v31H118.3z M118.3,25.4
	c-1.4,0-2.7-0.2-3.9-0.7c-1.2-0.5-2.2-1.1-3-2c-0.9-0.9-1.5-1.9-2-3c-0.5-1.2-0.7-2.5-0.7-3.9c0-1.4,0.2-2.7,0.7-3.9
	c0.5-1.2,1.1-2.2,2-3c0.9-0.9,1.9-1.5,3-2c1.2-0.5,2.5-0.7,3.9-0.7h1v19.1H118.3z M118.3,21.4h0.6V10.2h-0.6c-0.7,0-1.3,0.1-1.8,0.4
	c-0.5,0.3-1,0.7-1.4,1.2c-0.4,0.5-0.7,1.1-0.8,1.8c-0.2,0.7-0.3,1.4-0.3,2.2c0,1,0.2,2,0.5,2.8c0.3,0.8,0.8,1.5,1.5,2
	C116.7,21.1,117.4,21.4,118.3,21.4z M123.5,25.4h-1V6.2h1c1.4,0,2.7,0.2,3.9,0.7c1.2,0.5,2.2,1.1,3,2c0.9,0.8,1.5,1.9,2,3
	c0.5,1.2,0.7,2.5,0.7,3.9c0,1.4-0.2,2.7-0.7,3.9c-0.5,1.2-1.1,2.2-2,3c-0.9,0.8-1.9,1.5-3,2C126.2,25.1,124.9,25.4,123.5,25.4z
	 M123.5,21.4c0.7,0,1.3-0.1,1.8-0.4c0.5-0.3,1-0.7,1.4-1.2c0.4-0.5,0.7-1.1,0.8-1.8c0.2-0.7,0.3-1.4,0.3-2.2c0-1-0.2-2-0.5-2.8
	c-0.3-0.8-0.8-1.5-1.5-2c-0.6-0.5-1.4-0.7-2.4-0.7h-0.6v11.1H123.5z M144.8,25.4c-1.9,0-3.5-0.4-4.9-1.2c-1.4-0.8-2.4-1.9-3.2-3.4
	c-0.7-1.4-1.1-3.1-1.1-5c0-1.9,0.4-3.6,1.1-5c0.7-1.4,1.8-2.6,3.2-3.4c1.4-0.8,3-1.2,4.9-1.2c1.9,0,3.5,0.4,4.9,1.2
	c1.4,0.8,2.4,1.9,3.2,3.4c0.7,1.4,1.1,3.1,1.1,5c0,1.9-0.4,3.6-1.1,5c-0.7,1.4-1.8,2.6-3.2,3.4C148.3,25,146.7,25.4,144.8,25.4z
	 M144.9,21.4c0.9,0,1.6-0.2,2.1-0.7c0.6-0.5,1-1.2,1.3-2c0.3-0.8,0.4-1.8,0.4-2.9s-0.1-2-0.4-2.9c-0.3-0.8-0.7-1.5-1.3-2
	c-0.6-0.5-1.3-0.7-2.1-0.7c-0.9,0-1.6,0.2-2.2,0.7c-0.6,0.5-1,1.2-1.3,2c-0.3,0.8-0.4,1.8-0.4,2.9s0.1,2,0.4,2.9
	c0.3,0.8,0.7,1.5,1.3,2C143.3,21.1,144,21.4,144.9,21.4z M157.3,32V6.5h5.1v3.1h0.2c0.2-0.5,0.6-1,1-1.5c0.4-0.5,1-1,1.7-1.3
	c0.7-0.4,1.6-0.5,2.6-0.5c1.4,0,2.6,0.4,3.7,1.1c1.1,0.7,2.1,1.8,2.7,3.2c0.7,1.4,1,3.2,1,5.3c0,2.1-0.3,3.8-1,5.2
	c-0.7,1.4-1.6,2.5-2.7,3.2c-1.1,0.7-2.4,1.1-3.8,1.1c-1,0-1.8-0.2-2.5-0.5c-0.7-0.3-1.3-0.7-1.7-1.2c-0.4-0.5-0.8-1-1-1.5h-0.2V32
	H157.3z M162.4,15.7c0,1.1,0.2,2.1,0.5,2.9c0.3,0.8,0.7,1.5,1.3,1.9c0.6,0.5,1.3,0.7,2.1,0.7c0.8,0,1.5-0.2,2.1-0.7
	c0.6-0.5,1-1.1,1.3-1.9c0.3-0.8,0.5-1.8,0.5-2.9c0-1.1-0.1-2-0.4-2.8c-0.3-0.8-0.7-1.4-1.3-1.9c-0.6-0.5-1.3-0.7-2.1-0.7
	c-0.8,0-1.5,0.2-2.1,0.7c-0.6,0.4-1,1.1-1.3,1.9C162.5,13.7,162.4,14.6,162.4,15.7z M189.8,19.3l5-12.9h3.9L191.5,25h-3.4L181,6.5
	h3.9L189.8,19.3z M183.8,6.5V25h-4.9V6.5H183.8z M196.1,25V6.5h4.9V25H196.1z M207.4,32c-0.7,0-1.3-0.1-1.8-0.2
	c-0.6-0.1-1-0.2-1.4-0.4l1.2-3.8c0.6,0.2,1.1,0.3,1.6,0.3c0.5,0,0.9-0.1,1.3-0.3c0.4-0.2,0.7-0.7,0.9-1.2l0.3-0.8l-6.7-19.1h5.4
	l3.8,13.6h0.2l3.9-13.6h5.4L214.4,27c-0.3,1-0.8,1.9-1.4,2.6c-0.6,0.7-1.3,1.3-2.2,1.7C209.8,31.7,208.7,32,207.4,32z M221.6,25
	l0-4.1h0.6c0.4,0,0.8-0.1,1.1-0.3c0.3-0.2,0.6-0.6,0.8-1.1c0.2-0.5,0.4-1.1,0.5-1.9c0.1-0.8,0.2-1.8,0.2-3l0.3-8.2h14.1V25h-4.9
	V10.5h-4.6l-0.3,5.7c-0.1,1.6-0.3,2.9-0.6,4c-0.3,1.1-0.7,2-1.2,2.8c-0.5,0.7-1.2,1.2-1.9,1.6c-0.7,0.3-1.6,0.5-2.6,0.5H221.6z
	 M248.5,25.4c-1.2,0-2.2-0.2-3.2-0.6c-0.9-0.4-1.7-1-2.2-1.8c-0.5-0.8-0.8-1.8-0.8-3.1c0-1,0.2-1.9,0.6-2.6c0.4-0.7,0.9-1.3,1.5-1.7
	c0.7-0.4,1.4-0.7,2.2-1c0.8-0.2,1.7-0.4,2.6-0.5c1.1-0.1,1.9-0.2,2.6-0.3c0.7-0.1,1.1-0.3,1.4-0.5c0.3-0.2,0.4-0.5,0.4-0.9v-0.1
	c0-0.8-0.2-1.4-0.7-1.8c-0.5-0.4-1.2-0.6-2-0.6c-0.9,0-1.7,0.2-2.2,0.6c-0.5,0.4-0.9,0.9-1.1,1.5l-4.8-0.4c0.2-1.1,0.7-2.1,1.4-2.9
	c0.7-0.8,1.6-1.5,2.7-1.9c1.1-0.5,2.4-0.7,3.9-0.7c1,0,2,0.1,3,0.4c1,0.2,1.8,0.6,2.5,1.1c0.7,0.5,1.3,1.2,1.8,2
	c0.4,0.8,0.6,1.7,0.6,2.8V25h-4.9v-2.6H254c-0.3,0.6-0.7,1.1-1.2,1.5c-0.5,0.4-1.1,0.8-1.8,1C250.3,25.2,249.5,25.4,248.5,25.4z
	 M250,21.8c0.8,0,1.4-0.1,2-0.4c0.6-0.3,1-0.7,1.4-1.2c0.3-0.5,0.5-1.1,0.5-1.8v-2c-0.2,0.1-0.4,0.2-0.7,0.3
	c-0.3,0.1-0.6,0.2-0.9,0.2c-0.3,0.1-0.7,0.1-1,0.2c-0.3,0-0.7,0.1-0.9,0.1c-0.6,0.1-1.1,0.2-1.6,0.4c-0.4,0.2-0.8,0.5-1,0.8
	c-0.2,0.3-0.4,0.7-0.4,1.2c0,0.7,0.3,1.2,0.8,1.6C248.6,21.6,249.2,21.8,250,21.8z"/>
</svg>
