<?xml version="1.0" encoding="utf-8"?>
<!-- Generator: Adobe Illustrator 25.2.3, SVG Export Plug-In . SVG Version: 6.00 Build 0)  -->
<svg version="1.1" id="Layer_1" xmlns="http://www.w3.org/2000/svg" xmlns:xlink="http://www.w3.org/1999/xlink" x="0px" y="0px"
	 viewBox="0 0 194 149" style="enable-background:new 0 0 194 149;" xml:space="preserve">
<style type="text/css">
	.st0{fill:#0D1907;}
</style>
<path class="st0" d="M0.1,1.7h3.5v17.1h0.2L15.6,1.7h3.3V25h-3.5V7.9h-0.2L3.3,25H0.1V1.7z M32.9,20.8l5.6-13.3h2.9L34.1,25h-2.5
	L24.4,7.5h2.9L32.9,20.8z M26.4,7.5V25h-3.3V7.5H26.4z M39.4,25V7.5h3.3V25H39.4z M56.4,20.8L62,7.5H65L57.7,25h-2.5L48,7.5h2.9
	L56.4,20.8z M49.9,7.5V25h-3.3V7.5H49.9z M63,25V7.5h3.3V25H63z M71.7,31.5c-0.5,0-1,0-1.4-0.1c-0.4-0.1-0.7-0.2-0.9-0.2l0.8-2.8
	c0.6,0.2,1.2,0.2,1.7,0.2c0.5,0,0.9-0.2,1.3-0.5c0.4-0.3,0.7-0.9,1-1.7l0.4-1.2L68.2,7.5h3.6l4.4,13.5h0.2l4.4-13.5h3.6l-7.2,19.8
	c-0.3,0.9-0.8,1.7-1.3,2.3c-0.5,0.6-1.1,1.1-1.8,1.4C73.5,31.4,72.6,31.5,71.7,31.5z M98.9,14.8v2.9h-9.5v-2.9H98.9z M90.4,7.5V25
	H87V7.5H90.4z M101.2,7.5V25h-3.3V7.5H101.2z M108.5,20.2l7.7-12.7h3.7V25h-3.3V12.3L108.8,25h-3.7V7.5h3.3V20.2z M121.6,10.5V7.5
	h14.7v2.9h-5.7V25h-3.3V10.5H121.6z M146,25.4c-1.7,0-3.2-0.4-4.4-1.1c-1.2-0.7-2.2-1.8-2.9-3.1c-0.7-1.3-1-2.9-1-4.7
	c0-1.8,0.3-3.4,1-4.7c0.7-1.4,1.6-2.4,2.8-3.2c1.2-0.8,2.6-1.1,4.2-1.1c1,0,1.9,0.2,2.9,0.5s1.8,0.8,2.5,1.5
	c0.7,0.7,1.3,1.6,1.7,2.7c0.4,1.1,0.6,2.5,0.6,4v1.2h-13.9v-2.5h10.5c0-0.9-0.2-1.7-0.5-2.4c-0.4-0.7-0.9-1.2-1.5-1.6
	c-0.7-0.4-1.4-0.6-2.3-0.6c-1,0-1.8,0.2-2.5,0.7c-0.7,0.5-1.2,1.1-1.6,1.8c-0.4,0.7-0.6,1.5-0.6,2.4v2c0,1.2,0.2,2.2,0.6,3
	c0.4,0.8,1,1.4,1.7,1.9c0.7,0.4,1.6,0.6,2.6,0.6c0.6,0,1.2-0.1,1.8-0.3c0.5-0.2,1-0.5,1.4-0.8c0.4-0.4,0.7-0.8,0.9-1.4l3.2,0.6
	c-0.3,0.9-0.7,1.8-1.4,2.5c-0.7,0.7-1.5,1.3-2.5,1.6C148.4,25.2,147.2,25.4,146,25.4z M155.1,10.5V7.5h14.7v2.9h-5.7V25h-3.3V10.5
	H155.1z M171.8,10.5V7.5h14.7v2.9h-5.7V25h-3.3V10.5H171.8z M189.4,25V7.5h3.4V25H189.4z M191.2,4.9c-0.6,0-1.1-0.2-1.5-0.6
	c-0.4-0.4-0.6-0.9-0.6-1.4c0-0.6,0.2-1,0.6-1.4c0.4-0.4,0.9-0.6,1.5-0.6s1.1,0.2,1.5,0.6c0.4,0.4,0.6,0.9,0.6,1.4
	c0,0.6-0.2,1-0.6,1.4C192.2,4.7,191.7,4.9,191.2,4.9z M17.8,64V46.5h3.4v7.3h1.6l5.8-7.3h4.2L26.1,55l6.8,9h-4.2l-5.3-7h-2.2v7H17.8
	z M33.6,46.5h3.6l4.2,12.9l4.1-12.9H49l-6,17.2v6.8h-3.3v-6.8L33.6,46.5z M51.6,46.5h3.3v14.5h6V46.5h3.3v14.5h6V46.5h3.3V64H51.6
	V46.5z M85.1,64.4c-1.7,0-3.2-0.4-4.4-1.1c-1.2-0.7-2.2-1.8-2.9-3.1c-0.7-1.3-1-2.9-1-4.7c0-1.8,0.3-3.4,1-4.7
	c0.7-1.4,1.6-2.4,2.8-3.2c1.2-0.8,2.6-1.1,4.2-1.1c1,0,1.9,0.2,2.9,0.5c0.9,0.3,1.8,0.8,2.5,1.5c0.7,0.7,1.3,1.6,1.7,2.7
	c0.4,1.1,0.6,2.5,0.6,4v1.2H78.7v-2.5h10.5c0-0.9-0.2-1.7-0.5-2.4c-0.4-0.7-0.9-1.2-1.5-1.6c-0.7-0.4-1.4-0.6-2.3-0.6
	c-1,0-1.8,0.2-2.5,0.7c-0.7,0.5-1.2,1.1-1.6,1.8c-0.4,0.7-0.6,1.5-0.6,2.4v2c0,1.2,0.2,2.2,0.6,3c0.4,0.8,1,1.4,1.7,1.9
	c0.7,0.4,1.6,0.6,2.6,0.6c0.6,0,1.2-0.1,1.8-0.3c0.5-0.2,1-0.5,1.4-0.8c0.4-0.4,0.7-0.8,0.9-1.4l3.2,0.6c-0.3,0.9-0.7,1.8-1.4,2.5
	c-0.7,0.7-1.5,1.3-2.5,1.6C87.5,64.2,86.3,64.4,85.1,64.4z M99,59.2l7.7-12.7h3.7V64H107V51.3L99.4,64h-3.7V46.5H99V59.2z
	 M105.2,40.6h2.8c0,1.3-0.5,2.3-1.4,3.1c-0.9,0.8-2.1,1.2-3.7,1.2c-1.5,0-2.7-0.4-3.6-1.2C98.5,43,98,41.9,98,40.6h2.8
	c0,0.6,0.2,1.1,0.5,1.5c0.3,0.4,0.9,0.6,1.7,0.6c0.8,0,1.4-0.2,1.7-0.6C105.1,41.7,105.2,41.2,105.2,40.6z M112.1,49.5v-2.9h14.7
	v2.9h-5.7V64h-3.3V49.5H112.1z M132,70.5c-0.5,0-1,0-1.4-0.1c-0.4-0.1-0.7-0.2-0.9-0.2l0.8-2.8c0.6,0.2,1.2,0.2,1.7,0.2
	c0.5,0,0.9-0.2,1.3-0.5c0.4-0.3,0.7-0.9,1-1.7l0.4-1.2l-6.4-17.7h3.6l4.4,13.5h0.2l4.4-13.5h3.6l-7.2,19.8c-0.3,0.9-0.8,1.7-1.3,2.3
	c-0.5,0.6-1.1,1.1-1.8,1.4C133.7,70.4,132.9,70.5,132,70.5z M158.5,46.5v2.9h-7.8V64h-3.4V46.5H158.5z M168.1,64.4
	c-1.7,0-3.2-0.4-4.4-1.1c-1.2-0.7-2.2-1.8-2.9-3.1c-0.7-1.3-1-2.9-1-4.7c0-1.8,0.3-3.4,1-4.7c0.7-1.4,1.6-2.4,2.8-3.2
	c1.2-0.8,2.6-1.1,4.2-1.1c1,0,1.9,0.2,2.9,0.5c0.9,0.3,1.8,0.8,2.5,1.5s1.3,1.6,1.7,2.7c0.4,1.1,0.6,2.5,0.6,4v1.2h-13.9v-2.5h10.5
	c0-0.9-0.2-1.7-0.5-2.4c-0.4-0.7-0.9-1.2-1.5-1.6c-0.7-0.4-1.4-0.6-2.3-0.6c-1,0-1.8,0.2-2.5,0.7c-0.7,0.5-1.2,1.1-1.6,1.8
	c-0.4,0.7-0.6,1.5-0.6,2.4v2c0,1.2,0.2,2.2,0.6,3c0.4,0.8,1,1.4,1.7,1.9c0.7,0.4,1.6,0.6,2.6,0.6c0.6,0,1.2-0.1,1.8-0.3
	c0.5-0.2,1-0.5,1.4-0.8c0.4-0.4,0.7-0.8,0.9-1.4l3.2,0.6c-0.3,0.9-0.7,1.8-1.4,2.5c-0.7,0.7-1.5,1.3-2.5,1.6
	C170.5,64.2,169.4,64.4,168.1,64.4z M33.5,103.4c-1.1,0-2.1-0.2-3-0.6c-0.9-0.4-1.6-1-2.1-1.8c-0.5-0.8-0.8-1.8-0.8-2.9
	c0-1,0.2-1.8,0.6-2.4c0.4-0.6,0.9-1.1,1.5-1.5c0.6-0.4,1.4-0.7,2.2-0.8c0.8-0.2,1.6-0.3,2.4-0.4c1-0.1,1.9-0.2,2.5-0.3
	c0.7-0.1,1.1-0.2,1.4-0.4c0.3-0.2,0.4-0.5,0.4-0.9v-0.1c0-1-0.3-1.8-0.8-2.3c-0.6-0.5-1.4-0.8-2.5-0.8c-1.1,0-2,0.3-2.7,0.8
	c-0.7,0.5-1.1,1.1-1.4,1.7l-3.2-0.7c0.4-1.1,0.9-1.9,1.7-2.6c0.7-0.7,1.6-1.1,2.5-1.4c1-0.3,2-0.5,3-0.5c0.7,0,1.4,0.1,2.2,0.2
	c0.8,0.2,1.5,0.5,2.2,0.9c0.7,0.4,1.3,1,1.7,1.9c0.4,0.8,0.7,1.8,0.7,3.1V103h-3.3v-2.4h-0.1c-0.2,0.4-0.5,0.9-1,1.3
	c-0.4,0.4-1,0.8-1.7,1.1C35.3,103.2,34.4,103.4,33.5,103.4z M34.2,100.7c0.9,0,1.7-0.2,2.4-0.6c0.7-0.4,1.2-0.9,1.5-1.5
	c0.4-0.6,0.5-1.3,0.5-1.9v-2.2c-0.1,0.1-0.4,0.2-0.7,0.3c-0.3,0.1-0.7,0.2-1.2,0.3c-0.4,0.1-0.9,0.1-1.3,0.2c-0.4,0.1-0.8,0.1-1,0.1
	c-0.7,0.1-1.3,0.2-1.8,0.4c-0.5,0.2-1,0.5-1.3,0.9c-0.3,0.4-0.5,0.8-0.5,1.5c0,0.8,0.3,1.5,0.9,1.9
	C32.5,100.4,33.3,100.7,34.2,100.7z M46,109.5v-24h3.3v2.8h0.3c0.2-0.4,0.5-0.8,0.9-1.3c0.4-0.5,0.9-0.9,1.5-1.2
	c0.7-0.4,1.5-0.5,2.6-0.5c1.4,0,2.7,0.4,3.8,1.1c1.1,0.7,2,1.7,2.6,3.1c0.6,1.3,1,3,1,4.8c0,1.9-0.3,3.5-0.9,4.9
	c-0.6,1.3-1.5,2.4-2.6,3.1c-1.1,0.7-2.4,1.1-3.8,1.1c-1.1,0-1.9-0.2-2.6-0.5c-0.7-0.4-1.2-0.8-1.6-1.2s-0.7-0.9-0.9-1.3h-0.2v9.3H46
	z M49.3,94.3c0,1.2,0.2,2.3,0.5,3.2c0.4,0.9,0.9,1.6,1.5,2.2c0.7,0.5,1.5,0.8,2.5,0.8c1,0,1.9-0.3,2.5-0.8c0.7-0.5,1.2-1.3,1.5-2.2
	c0.4-0.9,0.5-2,0.5-3.1c0-1.2-0.2-2.2-0.5-3.1c-0.3-0.9-0.9-1.6-1.5-2.2c-0.7-0.5-1.5-0.8-2.6-0.8c-1,0-1.8,0.3-2.5,0.8
	c-0.7,0.5-1.2,1.2-1.5,2.1C49.5,92,49.3,93.1,49.3,94.3z M76.9,92.8v2.9h-9.5v-2.9H76.9z M68.4,85.5V103h-3.3V85.5H68.4z M79.3,85.5
	V103H76V85.5H79.3z M88.3,103.4c-1.1,0-2.1-0.2-3-0.6c-0.9-0.4-1.6-1-2.1-1.8c-0.5-0.8-0.8-1.8-0.8-2.9c0-1,0.2-1.8,0.6-2.4
	c0.4-0.6,0.9-1.1,1.5-1.5c0.6-0.4,1.4-0.7,2.2-0.8c0.8-0.2,1.6-0.3,2.4-0.4c1-0.1,1.9-0.2,2.5-0.3c0.7-0.1,1.1-0.2,1.4-0.4
	c0.3-0.2,0.4-0.5,0.4-0.9v-0.1c0-1-0.3-1.8-0.8-2.3c-0.6-0.5-1.4-0.8-2.5-0.8c-1.1,0-2,0.3-2.7,0.8c-0.7,0.5-1.1,1.1-1.4,1.7
	l-3.2-0.7c0.4-1.1,0.9-1.9,1.7-2.6c0.7-0.7,1.6-1.1,2.5-1.4c1-0.3,2-0.5,3-0.5c0.7,0,1.4,0.1,2.2,0.2c0.8,0.2,1.5,0.5,2.2,0.9
	c0.7,0.4,1.3,1,1.7,1.9c0.4,0.8,0.7,1.8,0.7,3.1V103h-3.3v-2.4h-0.1c-0.2,0.4-0.5,0.9-1,1.3c-0.4,0.4-1,0.8-1.7,1.1
	C90.1,103.2,89.2,103.4,88.3,103.4z M89,100.7c0.9,0,1.7-0.2,2.4-0.6c0.7-0.4,1.2-0.9,1.5-1.5c0.4-0.6,0.5-1.3,0.5-1.9v-2.2
	c-0.1,0.1-0.4,0.2-0.7,0.3c-0.3,0.1-0.7,0.2-1.2,0.3c-0.4,0.1-0.9,0.1-1.3,0.2c-0.4,0.1-0.8,0.1-1,0.1c-0.7,0.1-1.3,0.2-1.8,0.4
	c-0.5,0.2-1,0.5-1.3,0.9c-0.3,0.4-0.5,0.8-0.5,1.5c0,0.8,0.3,1.5,0.9,1.9C87.3,100.4,88.1,100.7,89,100.7z M99.4,103l0-2.9h0.6
	c0.5,0,0.9-0.1,1.2-0.3c0.3-0.2,0.6-0.6,0.8-1.1s0.4-1.2,0.5-2.1c0.1-0.9,0.2-2,0.2-3.3l0.3-7.7h12.2V103H112V88.5h-5.7l-0.3,5.9
	c-0.1,1.4-0.2,2.7-0.4,3.8c-0.2,1.1-0.5,2-1,2.7c-0.4,0.7-1,1.2-1.6,1.6c-0.7,0.3-1.5,0.5-2.4,0.5H99.4z M130.3,85.5v2.9h-7.8V103
	h-3.4V85.5H130.3z M115.7,95.2v-2.4h10.4v2.4H115.7z M137.6,103.4c-1.1,0-2.1-0.2-3-0.6c-0.9-0.4-1.6-1-2.1-1.8
	c-0.5-0.8-0.8-1.8-0.8-2.9c0-1,0.2-1.8,0.6-2.4c0.4-0.6,0.9-1.1,1.5-1.5s1.4-0.7,2.2-0.8s1.6-0.3,2.4-0.4c1-0.1,1.9-0.2,2.5-0.3
	c0.7-0.1,1.1-0.2,1.4-0.4c0.3-0.2,0.4-0.5,0.4-0.9v-0.1c0-1-0.3-1.8-0.8-2.3c-0.6-0.5-1.4-0.8-2.5-0.8c-1.1,0-2,0.3-2.7,0.8
	c-0.7,0.5-1.1,1.1-1.4,1.7l-3.2-0.7c0.4-1.1,0.9-1.9,1.7-2.6c0.7-0.7,1.6-1.1,2.5-1.4c1-0.3,2-0.5,3-0.5c0.7,0,1.4,0.1,2.2,0.2
	c0.8,0.2,1.5,0.5,2.2,0.9c0.7,0.4,1.3,1,1.7,1.9c0.4,0.8,0.7,1.8,0.7,3.1V103h-3.3v-2.4h-0.1c-0.2,0.4-0.5,0.9-1,1.3
	c-0.4,0.4-1,0.8-1.7,1.1C139.3,103.2,138.5,103.4,137.6,103.4z M138.3,100.7c0.9,0,1.7-0.2,2.4-0.6c0.7-0.4,1.2-0.9,1.5-1.5
	c0.4-0.6,0.5-1.3,0.5-1.9v-2.2c-0.1,0.1-0.4,0.2-0.7,0.3c-0.3,0.1-0.7,0.2-1.2,0.3c-0.4,0.1-0.9,0.1-1.3,0.2c-0.4,0.1-0.8,0.1-1,0.1
	c-0.7,0.1-1.3,0.2-1.8,0.4c-0.5,0.2-1,0.5-1.3,0.9c-0.3,0.4-0.5,0.8-0.5,1.5c0,0.8,0.3,1.5,0.9,1.9
	C136.5,100.4,137.3,100.7,138.3,100.7z M161.9,92.8v2.9h-9.5v-2.9H161.9z M153.4,85.5V103h-3.3V85.5H153.4z M164.3,85.5V103h-3.3
	V85.5H164.3z M0.8,147v-8h1.4c0.4-0.3,0.7-0.7,0.9-1.2c0.3-0.5,0.5-1,0.6-1.6c0.2-0.6,0.3-1.4,0.5-2.2c0.1-0.9,0.2-1.8,0.3-2.9
	l0.5-6.5H17v14.5h2.7v8h-3.3v-5H4.2v5H0.8z M5.9,139.1h7.8v-11.6H8.2l-0.4,3.6c-0.2,1.8-0.4,3.4-0.7,4.8
	C6.9,137.2,6.5,138.2,5.9,139.1z M29.1,124.2c1.7,0,3.2,0.4,4.4,1.1c1.2,0.7,2.2,1.8,2.9,3.1c0.7,1.3,1,2.9,1,4.7
	c0,1.8-0.3,3.4-1,4.7c-0.7,1.4-1.6,2.4-2.8,3.2c-1.2,0.8-2.6,1.1-4.2,1.1c-1,0-2-0.2-2.9-0.5c-0.9-0.3-1.8-0.8-2.5-1.5
	c-0.7-0.7-1.3-1.6-1.7-2.7c-0.4-1.1-0.6-2.5-0.6-4v-1.2h13.9v2.5H24.9c0,0.9,0.2,1.7,0.5,2.4c0.4,0.7,0.9,1.2,1.5,1.6
	c0.7,0.4,1.4,0.6,2.3,0.6c1,0,1.8-0.2,2.5-0.7c0.7-0.5,1.2-1.1,1.6-1.8c0.4-0.8,0.6-1.6,0.6-2.4v-2c0-1.2-0.2-2.2-0.6-3
	c-0.4-0.8-1-1.4-1.7-1.9c-0.7-0.4-1.6-0.6-2.6-0.6c-0.6,0-1.2,0.1-1.8,0.3c-0.5,0.2-1,0.5-1.4,0.8c-0.4,0.4-0.7,0.8-0.9,1.4
	l-3.2-0.6c0.3-0.9,0.7-1.8,1.4-2.5c0.7-0.7,1.5-1.3,2.5-1.6C26.7,124.4,27.8,124.2,29.1,124.2z M40.5,148.5v-24h3.3v2.8h0.3
	c0.2-0.4,0.5-0.8,0.9-1.3c0.4-0.5,0.9-0.9,1.5-1.2c0.7-0.4,1.5-0.5,2.6-0.5c1.4,0,2.7,0.4,3.8,1.1c1.1,0.7,2,1.7,2.6,3.1
	c0.6,1.3,1,3,1,4.8c0,1.9-0.3,3.5-0.9,4.9c-0.6,1.3-1.5,2.4-2.6,3.1c-1.1,0.7-2.4,1.1-3.8,1.1c-1.1,0-1.9-0.2-2.6-0.5
	c-0.7-0.4-1.2-0.8-1.6-1.2c-0.4-0.5-0.7-0.9-0.9-1.3h-0.2v9.3H40.5z M43.8,133.3c0,1.2,0.2,2.3,0.5,3.2c0.4,0.9,0.9,1.6,1.5,2.2
	c0.7,0.5,1.5,0.8,2.5,0.8c1,0,1.9-0.3,2.5-0.8c0.7-0.5,1.2-1.3,1.5-2.2c0.4-0.9,0.5-2,0.5-3.1c0-1.2-0.2-2.2-0.5-3.1
	c-0.3-0.9-0.9-1.6-1.5-2.2c-0.7-0.5-1.5-0.8-2.6-0.8c-1,0-1.8,0.3-2.5,0.8c-0.7,0.5-1.2,1.2-1.5,2.1C44,131,43.8,132.1,43.8,133.3z
	 M61.2,148.5c-0.5,0-1,0-1.4-0.1c-0.4-0.1-0.7-0.2-0.9-0.2l0.8-2.8c0.6,0.2,1.2,0.2,1.7,0.2c0.5,0,0.9-0.2,1.3-0.5
	c0.4-0.3,0.7-0.9,1-1.7l0.4-1.2l-6.4-17.7h3.6l4.4,13.5h0.2l4.4-13.5H74l-7.2,19.8c-0.3,0.9-0.8,1.7-1.3,2.3
	c-0.5,0.6-1.1,1.1-1.8,1.4C62.9,148.4,62.1,148.5,61.2,148.5z M86.3,137.8l5.6-13.2h2.9L87.6,142H85l-7.2-17.5h2.9L86.3,137.8z
	 M79.8,124.5V142h-3.3v-17.5H79.8z M92.9,142v-17.5h3.3V142H92.9z M107.6,142.4c-1.7,0-3.2-0.4-4.4-1.1c-1.2-0.7-2.2-1.8-2.9-3.1
	c-0.7-1.3-1-2.9-1-4.7c0-1.8,0.3-3.4,1-4.7c0.7-1.4,1.6-2.4,2.8-3.2c1.2-0.8,2.6-1.1,4.2-1.1c1,0,1.9,0.2,2.9,0.5
	c0.9,0.3,1.8,0.8,2.5,1.5c0.7,0.7,1.3,1.6,1.7,2.7c0.4,1.1,0.6,2.5,0.6,4v1.2h-13.9v-2.5h10.5c0-0.9-0.2-1.7-0.5-2.4
	c-0.4-0.7-0.9-1.2-1.5-1.6c-0.7-0.4-1.4-0.6-2.3-0.6c-1,0-1.8,0.2-2.5,0.7c-0.7,0.5-1.2,1.1-1.6,1.8c-0.4,0.7-0.6,1.5-0.6,2.4v2
	c0,1.2,0.2,2.2,0.6,3c0.4,0.8,1,1.4,1.7,1.9c0.7,0.4,1.6,0.6,2.6,0.6c0.6,0,1.2-0.1,1.8-0.3c0.5-0.2,1-0.5,1.4-0.8
	c0.4-0.4,0.7-0.8,0.9-1.4l3.2,0.6c-0.3,0.9-0.7,1.8-1.4,2.5c-0.7,0.7-1.5,1.3-2.5,1.6C110,142.2,108.9,142.4,107.6,142.4z
	 M130,131.8v2.9h-9.5v-2.9H130z M121.5,124.5V142h-3.3v-17.5H121.5z M132.4,124.5V142h-3.3v-17.5H132.4z M134.6,147v-8h1.4
	c0.4-0.3,0.7-0.7,0.9-1.2c0.3-0.5,0.5-1,0.6-1.6c0.2-0.6,0.3-1.4,0.5-2.2c0.1-0.9,0.2-1.8,0.3-2.9l0.5-6.5h11.9v14.5h2.7v8h-3.3v-5
	H138v5H134.6z M139.7,139.1h7.8v-11.6H142l-0.4,3.6c-0.2,1.8-0.4,3.4-0.7,4.8C140.7,137.2,140.2,138.2,139.7,139.1z M163.7,142.4
	c-1.7,0-3.2-0.4-4.4-1.1c-1.2-0.7-2.2-1.8-2.9-3.1c-0.7-1.3-1-2.9-1-4.7c0-1.8,0.3-3.4,1-4.7c0.7-1.4,1.6-2.4,2.8-3.2
	c1.2-0.8,2.6-1.1,4.2-1.1c1,0,1.9,0.2,2.9,0.5c0.9,0.3,1.8,0.8,2.5,1.5c0.7,0.7,1.3,1.6,1.7,2.7c0.4,1.1,0.6,2.5,0.6,4v1.2h-13.9
	v-2.5h10.5c0-0.9-0.2-1.7-0.5-2.4c-0.4-0.7-0.9-1.2-1.5-1.6c-0.7-0.4-1.4-0.6-2.3-0.6c-1,0-1.8,0.2-2.5,0.7
	c-0.7,0.5-1.2,1.1-1.6,1.8c-0.4,0.7-0.6,1.5-0.6,2.4v2c0,1.2,0.2,2.2,0.6,3c0.4,0.8,1,1.4,1.7,1.9c0.7,0.4,1.6,0.6,2.6,0.6
	c0.6,0,1.2-0.1,1.8-0.3c0.5-0.2,1-0.5,1.4-0.8c0.4-0.4,0.7-0.8,0.9-1.4l3.2,0.6c-0.3,0.9-0.7,1.8-1.4,2.5c-0.7,0.7-1.5,1.3-2.5,1.6
	C166.1,142.2,164.9,142.4,163.7,142.4z M174.3,148.5v-24h3.3v2.8h0.3c0.2-0.4,0.5-0.8,0.9-1.3c0.4-0.5,0.9-0.9,1.5-1.2
	c0.7-0.4,1.5-0.5,2.6-0.5c1.4,0,2.7,0.4,3.8,1.1c1.1,0.7,2,1.7,2.6,3.1c0.6,1.3,1,3,1,4.8c0,1.9-0.3,3.5-0.9,4.9
	c-0.6,1.3-1.5,2.4-2.6,3.1c-1.1,0.7-2.4,1.1-3.8,1.1c-1.1,0-1.9-0.2-2.6-0.5c-0.7-0.4-1.2-0.8-1.6-1.2c-0.4-0.5-0.7-0.9-0.9-1.3
	h-0.2v9.3H174.3z M177.6,133.3c0,1.2,0.2,2.3,0.5,3.2c0.4,0.9,0.9,1.6,1.5,2.2c0.7,0.5,1.5,0.8,2.5,0.8c1,0,1.9-0.3,2.5-0.8
	c0.7-0.5,1.2-1.3,1.5-2.2c0.4-0.9,0.5-2,0.5-3.1c0-1.2-0.2-2.2-0.5-3.1c-0.3-0.9-0.9-1.6-1.5-2.2c-0.7-0.5-1.5-0.8-2.6-0.8
	c-1,0-1.8,0.3-2.5,0.8c-0.7,0.5-1.2,1.2-1.5,2.1C177.8,131,177.6,132.1,177.6,133.3z"/>
</svg>
