<svg width="216" height="69" fill="none" xmlns="http://www.w3.org/2000/svg"><path d="M.457.727h4.125v7.591c0 .985.17 1.765.512 2.341.348.576.863.989 1.545 1.239.682.25 1.53.375 2.546.375.454 0 .943-.015 1.466-.046.53-.038 1.064-.087 1.602-.148a27.661 27.661 0 0 0 1.545-.238 15.42 15.42 0 0 0 1.319-.318v3.431c-.387.122-.819.232-1.296.33-.477.099-.981.182-1.511.25-.53.068-1.06.121-1.591.16-.53.037-1.042.056-1.534.056-1.78 0-3.326-.254-4.637-.761-1.303-.516-2.31-1.319-3.022-2.41C.813 11.49.457 10.07.457 8.32V.726Zm13.966 0h4.148V24h-4.148V.727ZM22.565 9.92V6.545h15.273V9.92H32.19V24h-3.977V9.92h-5.648ZM48.008 24.34c-1.704 0-3.181-.374-4.431-1.124-1.25-.75-2.22-1.8-2.91-3.148-.681-1.348-1.022-2.924-1.022-4.727 0-1.803.34-3.383 1.023-4.739.689-1.356 1.659-2.409 2.909-3.159 1.25-.75 2.727-1.125 4.431-1.125 1.705 0 3.182.375 4.432 1.125 1.25.75 2.216 1.803 2.898 3.16.69 1.355 1.034 2.935 1.034 4.738 0 1.803-.344 3.379-1.034 4.727-.682 1.349-1.648 2.398-2.898 3.148-1.25.75-2.727 1.125-4.431 1.125Zm.023-3.295c.925 0 1.697-.253 2.318-.76.622-.516 1.084-1.206 1.387-2.07.31-.863.466-1.825.466-2.886 0-1.068-.156-2.034-.466-2.897-.303-.871-.765-1.565-1.387-2.08-.62-.515-1.393-.772-2.318-.772-.947 0-1.735.257-2.363.772-.622.515-1.087 1.209-1.398 2.08-.303.863-.455 1.83-.455 2.897 0 1.061.152 2.023.455 2.887.31.863.776 1.553 1.398 2.068.628.508 1.416.761 2.363.761ZM67.801 24V6.545H82.54V24h-3.966V9.92h-6.841V24h-3.932ZM94.383 24.34c-1.704 0-3.181-.374-4.431-1.124-1.25-.75-2.22-1.8-2.91-3.148-.681-1.348-1.022-2.924-1.022-4.727 0-1.803.34-3.383 1.023-4.739.689-1.356 1.659-2.409 2.909-3.159 1.25-.75 2.727-1.125 4.431-1.125 1.705 0 3.182.375 4.432 1.125 1.25.75 2.216 1.803 2.898 3.16.689 1.355 1.034 2.935 1.034 4.738 0 1.803-.345 3.379-1.034 4.727-.682 1.349-1.648 2.398-2.898 3.148-1.25.75-2.727 1.125-4.431 1.125Zm.023-3.295c.924 0 1.697-.253 2.318-.76.622-.516 1.084-1.206 1.387-2.07.31-.863.466-1.825.466-2.886 0-1.068-.156-2.034-.466-2.897-.303-.871-.765-1.565-1.387-2.08-.62-.515-1.394-.772-2.318-.772-.947 0-1.735.257-2.363.772-.622.515-1.088 1.209-1.398 2.08-.303.863-.455 1.83-.455 2.897 0 1.061.152 2.023.455 2.887.31.863.776 1.553 1.398 2.068.628.508 1.416.761 2.363.761ZM116.284 19.216l5.182-12.67h3.318L117.727 24h-2.875l-6.897-17.455h3.284l5.045 12.67Zm-6.079-12.67V24h-3.966V6.545h3.966ZM122.534 24V6.545h3.932V24h-3.932ZM138.227 24.34c-1.704 0-3.182-.374-4.432-1.124-1.25-.75-2.219-1.8-2.909-3.148-.681-1.348-1.022-2.924-1.022-4.727 0-1.803.341-3.383 1.022-4.739.69-1.356 1.659-2.409 2.909-3.159 1.25-.75 2.728-1.125 4.432-1.125 1.705 0 3.182.375 4.432 1.125 1.25.75 2.216 1.803 2.898 3.16.689 1.355 1.034 2.935 1.034 4.738 0 1.803-.345 3.379-1.034 4.727-.682 1.349-1.648 2.398-2.898 3.148-1.25.75-2.727 1.125-4.432 1.125Zm.023-3.295c.924 0 1.697-.253 2.318-.76.621-.516 1.084-1.206 1.387-2.07.31-.863.465-1.825.465-2.886 0-1.068-.155-2.034-.465-2.897-.303-.871-.766-1.565-1.387-2.08-.621-.515-1.394-.772-2.318-.772-.947 0-1.735.257-2.364.772-.621.515-1.087 1.209-1.397 2.08-.303.863-.455 1.83-.455 2.897 0 1.061.152 2.023.455 2.887.31.863.776 1.553 1.397 2.068.629.508 1.417.761 2.364.761ZM161.628 6.545V9.92h-7.523V24h-4.023V6.545h11.546ZM169.23 24.352c-1.106 0-2.102-.197-2.989-.59a4.88 4.88 0 0 1-2.09-1.773c-.508-.78-.762-1.743-.762-2.887 0-.985.182-1.799.546-2.443a4.22 4.22 0 0 1 1.488-1.545 7.512 7.512 0 0 1 2.125-.875 17.328 17.328 0 0 1 2.466-.444c1.023-.106 1.852-.2 2.489-.284.636-.09 1.098-.227 1.386-.409.296-.19.443-.48.443-.875v-.068c0-.856-.253-1.519-.761-1.989-.508-.47-1.239-.704-2.193-.704-1.008 0-1.807.22-2.398.659-.583.44-.977.958-1.182 1.557l-3.841-.546c.303-1.06.803-1.947 1.5-2.659.697-.72 1.55-1.257 2.557-1.613 1.008-.364 2.121-.546 3.341-.546.841 0 1.678.099 2.512.296a7.074 7.074 0 0 1 2.284.977c.689.447 1.242 1.057 1.659 1.83.424.772.636 1.738.636 2.897V24h-3.954v-2.398h-.137c-.25.485-.602.94-1.057 1.364-.447.417-1.011.754-1.693 1.011-.674.25-1.466.375-2.375.375Zm1.068-3.023c.826 0 1.542-.162 2.148-.488.606-.333 1.072-.773 1.398-1.318.333-.546.5-1.14.5-1.784v-2.057c-.129.106-.349.204-.659.295-.303.091-.644.17-1.023.239-.379.068-.754.129-1.125.182l-.966.136a7.18 7.18 0 0 0-1.648.41c-.485.189-.867.454-1.147.795-.281.333-.421.765-.421 1.295 0 .758.277 1.33.83 1.716.553.386 1.257.58 2.113.58ZM190.31 24.34c-1.75 0-3.262-.363-4.534-1.09-1.266-.735-2.239-1.773-2.921-3.114-.682-1.348-1.023-2.935-1.023-4.761 0-1.796.341-3.371 1.023-4.727.69-1.364 1.652-2.425 2.886-3.182 1.235-.765 2.686-1.148 4.353-1.148 1.076 0 2.091.174 3.045.523.962.34 1.811.871 2.546 1.59.742.72 1.325 1.637 1.75 2.75.424 1.107.636 2.425.636 3.955v1.262h-14.307v-2.773h10.364c-.008-.788-.178-1.489-.511-2.102a3.727 3.727 0 0 0-1.398-1.466c-.591-.356-1.281-.534-2.068-.534-.841 0-1.58.204-2.216.613a4.223 4.223 0 0 0-1.489 1.591 4.589 4.589 0 0 0-.534 2.148v2.42c0 1.016.186 1.887.557 2.614a3.97 3.97 0 0 0 1.557 1.66c.666.378 1.447.567 2.341.567.598 0 1.14-.083 1.625-.25a3.613 3.613 0 0 0 1.261-.761c.356-.333.625-.746.807-1.239l3.841.432a5.993 5.993 0 0 1-1.387 2.66c-.674.75-1.538 1.333-2.591 1.75-1.053.408-2.257.613-3.613.613ZM200.097 9.92V6.545h15.272V9.92h-5.647V24h-3.978V9.92h-5.647ZM14.534 58.216l5.182-12.67h3.318L15.977 63h-2.875L6.205 45.545h3.284l5.045 12.67Zm-6.08-12.67V63H4.49V45.545h3.966ZM20.785 63V45.545h3.932V63h-3.932ZM40.852 52.568v3.375h-9.295v-3.375h9.295Zm-8.022-7.023V63h-3.966V45.545h3.966Zm10.715 0V63h-3.954V45.545h3.954ZM55.435 63.34c-1.75 0-3.262-.363-4.534-1.09-1.266-.735-2.24-1.773-2.92-3.114-.683-1.348-1.024-2.935-1.024-4.761 0-1.795.341-3.371 1.023-4.727.69-1.364 1.652-2.425 2.887-3.182 1.234-.765 2.685-1.148 4.352-1.148a8.81 8.81 0 0 1 3.045.523c.962.34 1.81.871 2.546 1.59.742.72 1.325 1.637 1.75 2.75.424 1.107.636 2.425.636 3.955v1.262H48.889v-2.773h10.364c-.008-.788-.178-1.489-.511-2.102a3.719 3.719 0 0 0-1.398-1.466c-.591-.356-1.28-.534-2.068-.534-.841 0-1.58.204-2.216.613a4.228 4.228 0 0 0-1.489 1.591 4.578 4.578 0 0 0-.534 2.148v2.42c0 1.016.185 1.887.557 2.614.371.72.89 1.273 1.557 1.66.666.378 1.446.567 2.34.567.599 0 1.14-.083 1.626-.25a3.607 3.607 0 0 0 1.26-.761 3.17 3.17 0 0 0 .808-1.239l3.84.432a5.988 5.988 0 0 1-1.386 2.66c-.674.75-1.538 1.333-2.59 1.75-1.054.408-2.258.613-3.614.613ZM74.614 63V45.545h7.33c2.067 0 3.7.413 4.897 1.24 1.205.825 1.807 1.976 1.807 3.454 0 .977-.341 1.776-1.023 2.397-.674.614-1.595 1.027-2.761 1.239.916.076 1.72.307 2.409.693a4.408 4.408 0 0 1 1.636 1.523c.394.629.591 1.352.591 2.17 0 .962-.254 1.8-.761 2.512-.5.704-1.231 1.253-2.194 1.647-.954.387-2.113.58-3.477.58h-8.454Zm3.852-3.239h4.602c.758 0 1.353-.178 1.784-.534.432-.363.648-.856.648-1.477 0-.72-.216-1.284-.648-1.693-.431-.417-1.026-.625-1.784-.625h-4.602v4.33Zm0-6.988h3.557c.56 0 1.041-.08 1.443-.239.401-.167.708-.398.92-.693.213-.303.319-.663.319-1.08 0-.598-.247-1.068-.74-1.409-.484-.34-1.158-.511-2.022-.511h-3.477v3.932ZM99.287 68.068v-8.454h1.386c.372-.288.682-.678.932-1.17.25-.5.455-1.088.614-1.762.166-.682.303-1.443.409-2.284a69.8 69.8 0 0 0 .284-2.739l.5-6.114h12.614v14.069h2.704v8.454h-3.977V63h-11.421v5.068h-4.045Zm5.614-8.454h7.193v-10.75h-5.114l-.273 2.795c-.151 1.849-.352 3.432-.602 4.75s-.651 2.386-1.204 3.205ZM129.528 63.34c-1.75 0-3.261-.363-4.534-1.09-1.265-.735-2.238-1.773-2.92-3.114-.682-1.348-1.023-2.935-1.023-4.761 0-1.795.341-3.371 1.023-4.727.689-1.364 1.651-2.425 2.886-3.182 1.235-.765 2.686-1.148 4.353-1.148 1.075 0 2.09.174 3.045.523.962.34 1.811.871 2.545 1.59.743.72 1.326 1.637 1.75 2.75.425 1.107.637 2.425.637 3.955v1.262h-14.307v-2.773h10.364c-.008-.788-.178-1.489-.512-2.102a3.718 3.718 0 0 0-1.397-1.466c-.591-.356-1.281-.534-2.069-.534-.841 0-1.579.204-2.216.613a4.229 4.229 0 0 0-1.488 1.591 4.565 4.565 0 0 0-.534 2.148v2.42c0 1.016.185 1.887.557 2.614.371.72.89 1.273 1.556 1.66.667.378 1.447.567 2.341.567.599 0 1.14-.083 1.625-.25a3.608 3.608 0 0 0 1.262-.761 3.16 3.16 0 0 0 .806-1.239l3.841.432a5.982 5.982 0 0 1-1.386 2.66c-.674.75-1.538 1.333-2.591 1.75-1.053.408-2.258.613-3.614.613ZM139.565 63l-.022-3.386h.602c.454 0 .837-.103 1.148-.307.31-.205.568-.546.772-1.023.205-.485.364-1.136.478-1.954.113-.819.193-1.838.238-3.057l.307-7.728h12.727V63h-3.977V48.92h-5.011l-.273 5.625c-.068 1.455-.231 2.716-.489 3.785-.25 1.06-.606 1.935-1.068 2.625-.454.689-1.026 1.204-1.716 1.545-.689.333-1.504.5-2.443.5h-1.273ZM164.98 63.352c-1.106 0-2.102-.197-2.989-.59a4.88 4.88 0 0 1-2.09-1.773c-.508-.78-.762-1.743-.762-2.887 0-.985.182-1.799.546-2.443a4.22 4.22 0 0 1 1.488-1.545 7.512 7.512 0 0 1 2.125-.875 17.328 17.328 0 0 1 2.466-.444c1.023-.106 1.852-.2 2.489-.284.636-.09 1.098-.227 1.386-.409.296-.19.443-.48.443-.875v-.068c0-.856-.253-1.519-.761-1.989-.508-.47-1.239-.704-2.193-.704-1.008 0-1.807.22-2.398.659-.583.44-.977.958-1.182 1.557l-3.841-.546c.303-1.06.803-1.947 1.5-2.659.697-.72 1.55-1.257 2.557-1.613 1.008-.364 2.121-.546 3.341-.546.841 0 1.678.099 2.512.296a7.076 7.076 0 0 1 2.284.977c.689.447 1.242 1.057 1.659 1.83.424.772.636 1.738.636 2.897V63h-3.954v-2.398h-.137c-.25.485-.602.94-1.057 1.364-.447.417-1.011.754-1.693 1.011-.674.25-1.466.375-2.375.375Zm1.068-3.022c.826 0 1.542-.163 2.148-.49.606-.332 1.072-.772 1.398-1.317.333-.546.5-1.14.5-1.784v-2.057c-.129.106-.349.204-.659.295-.303.091-.644.17-1.023.239-.379.068-.754.129-1.125.182l-.966.136a7.18 7.18 0 0 0-1.648.41c-.485.189-.867.454-1.147.795-.281.333-.421.765-.421 1.295 0 .758.277 1.33.83 1.716.553.386 1.257.58 2.113.58ZM181.696 45.545l3.523 6.444 3.579-6.444h4.353l-5.262 8.728L193.242 63h-4.33l-3.693-6.284L181.56 63h-4.364l5.318-8.727-5.182-8.728h4.364ZM200.264 56.16v-.296c.008-1.372.137-2.462.387-3.273.257-.81.621-1.462 1.09-1.955.47-.5 1.042-.958 1.716-1.375a7.929 7.929 0 0 0 1.239-.943c.371-.348.663-.735.875-1.159a3.23 3.23 0 0 0 .318-1.443c0-.599-.14-1.117-.42-1.557a2.854 2.854 0 0 0-1.137-1.023 3.388 3.388 0 0 0-1.579-.363c-.538 0-1.049.117-1.534.352a2.968 2.968 0 0 0-1.193 1.045c-.311.463-.485 1.05-.523 1.762h-4.046c.038-1.44.387-2.644 1.046-3.614a6.182 6.182 0 0 1 2.636-2.182c1.099-.485 2.311-.727 3.637-.727 1.447 0 2.719.254 3.818.761 1.106.508 1.966 1.231 2.579 2.17.622.933.932 2.039.932 3.32 0 .863-.14 1.635-.42 2.317a5.628 5.628 0 0 1-1.171 1.818 8.548 8.548 0 0 1-1.807 1.42c-.613.38-1.117.774-1.511 1.183a3.94 3.94 0 0 0-.864 1.443c-.181.545-.276 1.22-.284 2.023v.295h-3.784Zm1.978 7.09a2.425 2.425 0 0 1-1.762-.727 2.395 2.395 0 0 1-.739-1.773c0-.682.247-1.265.739-1.75a2.425 2.425 0 0 1 1.762-.727c.674 0 1.257.242 1.75.727.5.485.75 1.068.75 1.75 0 .462-.118.883-.353 1.261-.227.38-.53.682-.909.91-.371.22-.784.329-1.238.329Z" fill="#0D1907"/></svg>