<svg width="215" height="114" fill="none" xmlns="http://www.w3.org/2000/svg"><path d="M28.088 25V.273h9.055c1.755 0 3.208.29 4.36.869 1.15.572 2.011 1.348 2.583 2.33.571.974.857 2.073.857 3.296 0 1.03-.19 1.9-.567 2.608a4.672 4.672 0 0 1-1.522 1.69 6.704 6.704 0 0 1-2.076.918v.242c.82.04 1.622.306 2.402.797.79.483 1.441 1.17 1.956 2.064.515.894.773 1.98.773 3.26 0 1.264-.298 2.399-.893 3.405-.588.998-1.498 1.791-2.73 2.379-1.23.58-2.804.869-4.72.869h-9.478Zm3.73-3.2h5.386c1.787 0 3.066-.346 3.84-1.038.772-.692 1.158-1.558 1.158-2.596 0-.78-.197-1.497-.591-2.149-.395-.652-.958-1.171-1.69-1.557-.725-.387-1.586-.58-2.584-.58h-5.518v7.92Zm0-10.83h5c.837 0 1.59-.16 2.257-.483a3.952 3.952 0 0 0 1.606-1.352c.403-.588.604-1.28.604-2.077 0-1.022-.358-1.88-1.075-2.571-.716-.693-1.815-1.039-3.296-1.039h-5.095v7.522Zm21.084 8.971 8.174-13.486h3.888V25h-3.538V11.501L53.288 25h-3.924V6.455h3.538V19.94ZM66.837 9.57V6.455h15.648V9.57h-6.049V25H72.91V9.57h-6.073Zm23.32 15.84c-1.175 0-2.237-.217-3.187-.651-.95-.443-1.703-1.083-2.258-1.92-.547-.837-.821-1.864-.821-3.08 0-1.046.201-1.907.603-2.583a4.455 4.455 0 0 1 1.63-1.606 8.516 8.516 0 0 1 2.294-.893 22.829 22.829 0 0 1 2.584-.459l2.705-.314c.692-.088 1.195-.23 1.51-.422.313-.194.47-.508.47-.942v-.085c0-1.054-.298-1.871-.894-2.45-.587-.58-1.464-.87-2.632-.87-1.215 0-2.173.27-2.873.809-.692.531-1.171 1.123-1.437 1.775l-3.393-.773c.403-1.127.99-2.036 1.763-2.729a7.15 7.15 0 0 1 2.693-1.521 10.511 10.511 0 0 1 3.2-.483c.74 0 1.524.089 2.354.266a6.892 6.892 0 0 1 2.342.941c.732.46 1.332 1.115 1.799 1.968.467.846.7 1.944.7 3.297V25h-3.525v-2.535h-.145c-.234.466-.584.925-1.05 1.376-.468.45-1.067.825-1.8 1.123-.732.298-1.61.447-2.632.447Zm.785-2.897c.998 0 1.851-.197 2.56-.592.716-.394 1.26-.91 1.63-1.545a4.009 4.009 0 0 0 .567-2.065v-2.39c-.129.128-.378.249-.748.362a11.65 11.65 0 0 1-1.244.277c-.467.073-.922.141-1.364.206-.443.056-.813.104-1.111.145a8.96 8.96 0 0 0-1.92.446c-.572.21-1.03.511-1.376.906-.339.386-.508.901-.508 1.545 0 .894.33 1.57.99 2.029.66.45 1.502.676 2.524.676Zm22.903-1.98 5.989-14.078h3.115L115.185 25h-2.68l-7.606-18.545h3.078l5.868 14.078Zm-6.87-14.078V25h-3.537V6.455h3.537ZM120.812 25V6.455h3.513V25h-3.513Zm11.182-5.059 8.174-13.486h3.888V25h-3.537V11.501L132.381 25h-3.924V6.455h3.537V19.94Zm28.805-5.771v3.127h-10.046V14.17h10.046Zm-9.031-7.715V25h-3.538V6.455h3.538Zm11.554 0V25h-3.525V6.455h3.525Zm6.866 6.374h5.385c2.27 0 4.017.564 5.24 1.69 1.224 1.128 1.836 2.58 1.836 4.36 0 1.159-.274 2.201-.821 3.127-.548.925-1.349 1.658-2.403 2.197-1.055.531-2.338.797-3.852.797h-8.101V6.455h3.537v15.43h4.564c1.039 0 1.892-.27 2.56-.809.668-.547 1.002-1.244 1.002-2.089 0-.893-.334-1.622-1.002-2.185-.668-.572-1.521-.857-2.56-.857h-5.385v-3.116ZM185.281 25V6.455h3.61V25h-3.61ZM.801 71.349v-8.476h1.51c.386-.354.712-.777.977-1.268a7.86 7.86 0 0 0 .689-1.75c.193-.677.354-1.466.483-2.367.128-.91.241-1.948.338-3.115l.58-6.918h12.604v15.418h2.85v8.476h-3.526V66H4.376v5.349H.8Zm5.373-8.476h8.283V50.545H8.613l-.386 3.828c-.185 1.948-.419 3.638-.7 5.07-.282 1.426-.733 2.569-1.353 3.43ZM22.22 66l-.012-3.127h.664c.516 0 .946-.109 1.292-.326.354-.225.644-.604.87-1.135.225-.531.398-1.264.519-2.197.12-.942.21-2.126.265-3.55l.326-8.21h12.944V66h-3.538V50.57h-6.061l-.29 6.302c-.072 1.53-.23 2.866-.47 4.009-.234 1.143-.576 2.096-1.027 2.861-.45.757-1.03 1.324-1.739 1.703-.708.37-1.57.555-2.584.555H22.22Zm32.062 0V50.533h-4.444c-1.054 0-1.875.246-2.463.737-.587.49-.88 1.135-.88 1.932 0 .788.269 1.424.808 1.907.547.475 1.312.713 2.294.713h5.735v2.922h-5.735c-1.368 0-2.551-.226-3.55-.676-.99-.46-1.754-1.107-2.294-1.944-.53-.838-.797-1.828-.797-2.97 0-1.168.274-2.174.822-3.02.555-.852 1.348-1.512 2.378-1.98 1.038-.466 2.266-.7 3.682-.7h7.836V66h-3.392Zm-12.17 0 5.227-9.37h3.695L45.805 66H42.11Zm28.006 0V47.455h3.61v7.775h1.739l6.121-7.775h4.467l-7.183 9.019L86.139 66h-4.48l-5.59-7.413h-2.342V66h-3.61Zm18.146 6.954v-25.5h3.526v3.007h.302c.209-.386.51-.833.905-1.34.395-.507.942-.95 1.642-1.328.7-.387 1.626-.58 2.777-.58 1.497 0 2.833.378 4.009 1.135 1.175.757 2.096 1.847 2.765 3.272.676 1.425 1.014 3.14 1.014 5.144s-.334 3.722-1.002 5.155c-.668 1.425-1.586 2.523-2.753 3.296-1.167.765-2.5 1.147-3.997 1.147-1.127 0-2.048-.189-2.765-.567-.708-.379-1.263-.821-1.666-1.328a10.041 10.041 0 0 1-.93-1.353h-.217v9.84h-3.61Zm3.538-16.227c0 1.304.189 2.447.567 3.43.379.981.926 1.75 1.642 2.305.717.548 1.594.821 2.632.821 1.079 0 1.98-.285 2.705-.857.724-.58 1.272-1.364 1.642-2.354.378-.99.567-2.105.567-3.345 0-1.223-.185-2.322-.555-3.296-.362-.974-.91-1.743-1.642-2.306-.724-.563-1.63-.845-2.717-.845-1.046 0-1.931.27-2.656.809-.716.54-1.26 1.292-1.63 2.258-.37.965-.555 2.092-.555 3.38Zm24.759 9.647c-1.827 0-3.4-.39-4.721-1.17-1.312-.79-2.326-1.896-3.042-3.321-.708-1.433-1.063-3.111-1.063-5.035 0-1.9.355-3.574 1.063-5.023.716-1.449 1.714-2.58 2.994-3.393 1.288-.812 2.793-1.219 4.516-1.219 1.046 0 2.06.173 3.042.52.982.345 1.864.889 2.645 1.63.78.74 1.396 1.702 1.847 2.885.451 1.175.676 2.604.676 4.286v1.28h-14.742v-2.705h11.204c0-.95-.193-1.79-.579-2.523a4.389 4.389 0 0 0-1.63-1.75c-.692-.427-1.505-.64-2.439-.64-1.014 0-1.9.249-2.656.748a5.025 5.025 0 0 0-1.739 1.932 5.583 5.583 0 0 0-.604 2.571v2.113c0 1.24.218 2.294.652 3.164.443.869 1.059 1.533 1.848 1.992.789.45 1.71.676 2.765.676.684 0 1.308-.097 1.871-.29.563-.201 1.05-.499 1.461-.893.41-.395.724-.882.942-1.461l3.417.616a6.194 6.194 0 0 1-1.473 2.644c-.701.748-1.582 1.332-2.645 1.75-1.054.411-2.257.616-3.61.616ZM127.843 66V47.455h15.128V66h-3.538V50.57h-8.077V66h-3.513Zm19.275 0V47.455h3.61v7.775h1.738l6.122-7.775h4.467l-7.184 9.019L163.14 66h-4.48l-5.59-7.413h-2.342V66h-3.61Zm25.194.374c-1.739 0-3.256-.398-4.552-1.195-1.296-.797-2.302-1.912-3.018-3.345-.717-1.432-1.075-3.107-1.075-5.022 0-1.924.358-3.606 1.075-5.047.716-1.44 1.722-2.56 3.018-3.357 1.296-.797 2.813-1.195 4.552-1.195 1.739 0 3.256.398 4.552 1.195 1.296.797 2.302 1.916 3.018 3.357.717 1.44 1.075 3.123 1.075 5.047 0 1.916-.358 3.59-1.075 5.023-.716 1.432-1.722 2.547-3.018 3.344-1.296.797-2.813 1.195-4.552 1.195Zm.012-3.03c1.127 0 2.061-.298 2.801-.894.741-.595 1.288-1.388 1.642-2.378.362-.99.544-2.081.544-3.272 0-1.183-.182-2.27-.544-3.26-.354-.998-.901-1.8-1.642-2.403-.74-.604-1.674-.906-2.801-.906-1.135 0-2.077.302-2.825.906-.741.604-1.292 1.405-1.654 2.403-.355.99-.532 2.077-.532 3.26 0 1.191.177 2.282.532 3.272.362.99.913 1.783 1.654 2.378.748.596 1.69.894 2.825.894Zm23.839-15.89v3.116h-8.295V66h-3.562V47.455h11.857Zm10.084 18.92c-1.739 0-3.256-.398-4.552-1.195-1.296-.797-2.302-1.912-3.018-3.345-.717-1.432-1.075-3.107-1.075-5.022 0-1.924.358-3.606 1.075-5.047.716-1.44 1.722-2.56 3.018-3.357 1.296-.797 2.813-1.195 4.552-1.195 1.738 0 3.256.398 4.552 1.195 1.296.797 2.302 1.916 3.018 3.357.717 1.44 1.075 3.123 1.075 5.047 0 1.916-.358 3.59-1.075 5.023-.716 1.432-1.722 2.547-3.018 3.344-1.296.797-2.814 1.195-4.552 1.195Zm.012-3.03c1.127 0 2.061-.298 2.801-.894.741-.595 1.288-1.388 1.642-2.378.362-.99.543-2.081.543-3.272 0-1.183-.181-2.27-.543-3.26-.354-.998-.901-1.8-1.642-2.403-.74-.604-1.674-.906-2.801-.906-1.135 0-2.077.302-2.825.906-.741.604-1.292 1.405-1.654 2.403-.355.99-.532 2.077-.532 3.26 0 1.191.177 2.282.532 3.272.362.99.913 1.783 1.654 2.378.748.596 1.69.894 2.825.894ZM15.323 101.94l8.174-13.487h3.888V107h-3.538V93.501L15.71 107h-3.924V88.454h3.537v13.487Zm26.644.592 5.988-14.079h3.115L43.307 107h-2.68L33.02 88.454h3.079l5.868 14.079Zm-6.87-14.079V107h-3.538V88.454h3.537ZM48.932 107V88.454h3.514V107h-3.514Zm18.053-4.467 5.988-14.079h3.115L68.326 107h-2.68l-7.607-18.546h3.079l5.868 14.079Zm-6.87-14.079V107h-3.538V88.454h3.538ZM73.952 107V88.454h3.514V107h-3.514Zm9.263 6.955c-.54 0-1.03-.045-1.473-.133-.443-.081-.773-.169-.99-.266l.87-2.958c.66.177 1.247.254 1.762.229a2.11 2.11 0 0 0 1.365-.579c.402-.362.756-.954 1.062-1.775l.447-1.232-6.786-18.787h3.864l4.697 14.393h.193l4.697-14.392h3.875l-7.642 21.02c-.355.966-.806 1.783-1.353 2.451a5.25 5.25 0 0 1-1.956 1.521c-.756.339-1.634.508-2.632.508ZM112.08 96.17v3.127h-10.046V96.17h10.046Zm-9.031-7.716V107h-3.538V88.454h3.538Zm11.554 0V107h-3.525V88.454h3.525Zm7.688 13.487 8.174-13.487h3.887V107h-3.537V93.501L122.677 107h-3.924V88.454h3.538v13.487Zm13.935-10.371v-3.115h15.648v3.115h-6.049V107h-3.526V91.57h-6.073Zm25.916 15.804c-1.828 0-3.401-.39-4.721-1.171-1.312-.789-2.326-1.895-3.043-3.32-.708-1.433-1.062-3.111-1.062-5.035 0-1.9.354-3.574 1.062-5.023.717-1.449 1.715-2.58 2.994-3.392 1.288-.813 2.794-1.22 4.516-1.22 1.046 0 2.061.173 3.043.52.982.345 1.863.889 2.644 1.63.781.74 1.396 1.702 1.847 2.885.451 1.175.676 2.604.676 4.286v1.28h-14.742v-2.705h11.205c0-.95-.194-1.79-.58-2.523a4.382 4.382 0 0 0-1.63-1.75c-.692-.427-1.505-.64-2.439-.64-1.014 0-1.899.249-2.656.748a5.025 5.025 0 0 0-1.739 1.932 5.582 5.582 0 0 0-.603 2.571v2.113c0 1.24.217 2.294.652 3.164.442.869 1.058 1.533 1.847 1.992.789.451 1.71.676 2.765.676.684 0 1.308-.097 1.871-.29a4.034 4.034 0 0 0 1.461-.893c.411-.395.725-.882.942-1.461l3.417.616a6.197 6.197 0 0 1-1.473 2.644c-.7.748-1.582 1.332-2.644 1.751-1.055.41-2.258.615-3.61.615Zm9.646-15.804v-3.115h15.648v3.115h-6.049V107h-3.526V91.57h-6.073Zm23.32 15.841c-1.176 0-2.238-.218-3.188-.652a5.376 5.376 0 0 1-2.258-1.92c-.547-.837-.821-1.864-.821-3.079 0-1.046.202-1.908.604-2.584a4.453 4.453 0 0 1 1.63-1.606 8.515 8.515 0 0 1 2.294-.893 22.799 22.799 0 0 1 2.584-.459l2.704-.314c.693-.088 1.196-.23 1.51-.422.313-.194.47-.508.47-.942v-.085c0-1.054-.297-1.871-.893-2.45-.588-.58-1.465-.87-2.632-.87-1.216 0-2.173.27-2.874.809-.692.531-1.171 1.123-1.436 1.775l-3.393-.773c.402-1.127.99-2.036 1.763-2.729a7.143 7.143 0 0 1 2.692-1.521 10.514 10.514 0 0 1 3.2-.483c.74 0 1.525.089 2.354.266a6.885 6.885 0 0 1 2.342.942c.733.458 1.332 1.114 1.799 1.967.467.846.701 1.944.701 3.297V107h-3.526v-2.536h-.145c-.233.467-.583.926-1.05 1.377-.467.451-1.067.825-1.799 1.123-.733.298-1.61.447-2.632.447Zm.784-2.898c.999 0 1.852-.197 2.56-.592.716-.394 1.26-.909 1.63-1.545a4.013 4.013 0 0 0 .568-2.065v-2.39c-.129.128-.379.249-.749.362-.362.104-.777.197-1.244.277-.467.073-.921.141-1.364.206-.443.056-.813.104-1.111.144-.7.09-1.34.238-1.92.447-.571.21-1.03.511-1.376.906-.338.386-.507.901-.507 1.545 0 .894.33 1.57.99 2.029.66.45 1.501.676 2.523.676Z" fill="#0D1907"/></svg>