<?xml version="1.0" encoding="utf-8"?>
<!-- Generator: Adobe Illustrator 25.2.3, SVG Export Plug-In . SVG Version: 6.00 Build 0)  -->
<svg version="1.1" id="Layer_1" xmlns="http://www.w3.org/2000/svg" xmlns:xlink="http://www.w3.org/1999/xlink" x="0px" y="0px"
	 viewBox="0 0 236 47.8" style="enable-background:new 0 0 236 47.8;" xml:space="preserve">
<style type="text/css">
	.st0{fill:url(#SVGID_1_);}
	.st1{fill:#FFFFFF;}
</style>
<radialGradient id="SVGID_1_" cx="-804.4984" cy="341.9033" r="1.026" fx="-804.4994" fy="341.9033" gradientTransform="matrix(181.9308 44.2042 -22.4594 83.9259 154108.5312 6841.2383)" gradientUnits="userSpaceOnUse">
	<stop  offset="0" style="stop-color:#FFC34F"/>
	<stop  offset="0.513" style="stop-color:#FF8D3B"/>
	<stop  offset="1" style="stop-color:#CB4810"/>
</radialGradient>
<path class="st0" d="M23.9,0h188.2C225.3,0,236,10.7,236,23.9s-10.7,23.9-23.9,23.9H23.9C10.7,47.8,0,37.1,0,23.9S10.7,0,23.9,0z"/>
<path class="st1" d="M90.9,34.3v-5.4h1c0.3-0.3,0.5-0.6,0.7-0.9c0.2-0.3,0.3-0.7,0.5-1.1c0.1-0.4,0.3-1,0.4-1.6
	c0.1-0.6,0.2-1.4,0.3-2.2l0.4-5h8v10.7h1.9v5.4h-1.9v-3.6h-9.3v3.6H90.9z M94.1,28.9h6v-9h-4.2l-0.3,3.2c-0.1,1.3-0.3,2.5-0.5,3.4
	C94.8,27.6,94.5,28.3,94.1,28.9z M111.2,17.9c1.2,0,2.2,0.3,3.1,0.8c0.9,0.5,1.5,1.3,2,2.3c0.5,1,0.7,2.1,0.7,3.4
	c0,1.3-0.2,2.4-0.7,3.4c-0.5,1-1.1,1.7-2,2.3c-0.8,0.5-1.8,0.8-3,0.8c-0.7,0-1.3-0.1-1.9-0.3c-0.6-0.2-1.2-0.6-1.7-1.1
	c-0.5-0.5-0.9-1.1-1.2-1.9c-0.3-0.8-0.5-1.8-0.5-3v-0.8h9.7v1.7h-7.7c0,0.7,0.1,1.3,0.4,1.9c0.3,0.6,0.7,1,1.2,1.3
	c0.5,0.3,1.1,0.5,1.8,0.5c0.8,0,1.4-0.2,2-0.6c0.6-0.4,1-0.9,1.3-1.5c0.3-0.6,0.4-1.3,0.4-1.9V24c0-1-0.2-1.8-0.5-2.4
	c-0.3-0.7-0.8-1.1-1.4-1.5c-0.6-0.3-1.3-0.5-2-0.5c-0.5,0-1,0.1-1.4,0.2c-0.4,0.1-0.8,0.4-1.1,0.7c-0.3,0.3-0.5,0.7-0.7,1.1
	l-1.9-0.5c0.2-0.6,0.5-1.2,1-1.7c0.5-0.5,1-0.8,1.7-1.1C109.5,18,110.3,17.9,111.2,17.9z M119.9,35.4V18.2h1.9v2h0.2
	c0.1-0.2,0.3-0.5,0.6-0.8c0.3-0.3,0.6-0.6,1.1-0.9c0.5-0.3,1.1-0.4,1.9-0.4c1.1,0,2,0.3,2.8,0.8c0.8,0.5,1.4,1.3,1.9,2.2
	c0.5,1,0.7,2.1,0.7,3.4c0,1.3-0.2,2.5-0.7,3.5c-0.5,1-1.1,1.7-1.9,2.3c-0.8,0.5-1.7,0.8-2.8,0.8c-0.8,0-1.5-0.1-1.9-0.4
	c-0.5-0.3-0.9-0.6-1.1-0.9c-0.3-0.3-0.5-0.6-0.6-0.9h-0.2v6.6H119.9z M121.8,24.4c0,0.9,0.1,1.8,0.4,2.5c0.3,0.7,0.7,1.3,1.2,1.7
	c0.5,0.4,1.2,0.6,2,0.6c0.8,0,1.5-0.2,2-0.6c0.5-0.4,1-1,1.2-1.7c0.3-0.7,0.4-1.5,0.4-2.4c0-0.9-0.1-1.7-0.4-2.4
	c-0.3-0.7-0.7-1.3-1.2-1.7c-0.5-0.4-1.2-0.6-2-0.6c-0.8,0-1.4,0.2-2,0.6c-0.5,0.4-0.9,0.9-1.2,1.6C122,22.7,121.8,23.5,121.8,24.4z
	 M134.7,35.4c-0.3,0-0.6,0-0.9-0.1c-0.3,0-0.4-0.1-0.5-0.1l0.5-1.7c0.5,0.1,0.9,0.2,1.2,0.1c0.4,0,0.7-0.2,1-0.5
	c0.3-0.3,0.5-0.7,0.8-1.4l0.4-1l-4.6-12.6h2.1l3.5,10h0.1l3.5-10h2.1l-5.3,14.4c-0.2,0.6-0.5,1.2-0.9,1.6c-0.4,0.4-0.8,0.7-1.2,1
	C135.8,35.3,135.3,35.4,134.7,35.4z M153.2,28.1l4.4-9.9h1.8l-5.4,12.5h-1.6l-5.3-12.5h1.8L153.2,28.1z M148.2,18.2v12.5h-1.9V18.2
	H148.2z M158.1,30.7V18.2h1.9v12.5H158.1z M168.8,31c-1.2,0-2.3-0.3-3.1-0.8c-0.9-0.5-1.5-1.3-2-2.3c-0.5-1-0.7-2.1-0.7-3.4
	c0-1.3,0.2-2.4,0.7-3.4c0.5-1,1.1-1.8,2-2.3c0.9-0.6,1.8-0.8,3-0.8c0.7,0,1.3,0.1,1.9,0.3c0.6,0.2,1.2,0.6,1.7,1.1
	c0.5,0.5,0.9,1.1,1.2,1.9c0.3,0.8,0.5,1.8,0.5,3v0.8h-9.7v-1.7h7.7c0-0.7-0.1-1.3-0.4-1.9c-0.3-0.6-0.7-1-1.2-1.3
	c-0.5-0.3-1.1-0.5-1.8-0.5c-0.8,0-1.4,0.2-2,0.6c-0.6,0.4-1,0.9-1.3,1.5c-0.3,0.6-0.4,1.3-0.4,1.9v1.1c0,0.9,0.2,1.8,0.5,2.4
	c0.3,0.7,0.8,1.2,1.4,1.5c0.6,0.3,1.3,0.5,2.1,0.5c0.5,0,1-0.1,1.4-0.2c0.4-0.1,0.8-0.4,1.1-0.7c0.3-0.3,0.5-0.7,0.7-1.1l1.9,0.5
	c-0.2,0.6-0.5,1.2-1,1.7c-0.5,0.5-1,0.8-1.7,1.1C170.4,30.8,169.7,31,168.8,31z M185.3,23.6v1.8h-6.9v-1.8H185.3z M178.9,18.2v12.5
	h-1.9V18.2H178.9z M186.8,18.2v12.5h-1.9V18.2H186.8z"/>
<path class="st1" d="M57.1,13.9v19.9h-3V16.9h-0.1L49.2,20v-2.9l5-3.2H57.1z M69.4,34c-1.3,0-2.5-0.2-3.6-0.7
	c-1-0.5-1.9-1.1-2.5-1.9c-0.6-0.8-0.9-1.8-1-2.9h3c0,0.6,0.2,1.1,0.6,1.5c0.4,0.4,0.8,0.8,1.4,1c0.6,0.2,1.2,0.3,1.9,0.3
	c0.8,0,1.5-0.1,2.1-0.4c0.6-0.3,1.1-0.6,1.4-1.1c0.3-0.5,0.5-1.1,0.5-1.7c0-0.7-0.2-1.3-0.5-1.8c-0.3-0.5-0.8-0.9-1.5-1.2
	c-0.6-0.3-1.4-0.4-2.3-0.4h-1.7v-2.4H69c0.7,0,1.4-0.1,1.9-0.4c0.6-0.3,1-0.6,1.3-1.1c0.3-0.5,0.5-1,0.5-1.7c0-0.6-0.1-1.1-0.4-1.6
	c-0.3-0.5-0.7-0.8-1.2-1.1c-0.5-0.3-1.1-0.4-1.8-0.4c-0.6,0-1.3,0.1-1.8,0.4c-0.6,0.2-1,0.6-1.4,1c-0.3,0.4-0.5,1-0.6,1.6h-2.9
	c0-1.1,0.3-2,1-2.8c0.6-0.8,1.4-1.5,2.4-1.9c1-0.5,2.1-0.7,3.3-0.7c1.3,0,2.4,0.2,3.3,0.7c0.9,0.5,1.6,1.1,2.2,2
	c0.5,0.8,0.8,1.7,0.8,2.7c0,1.1-0.3,2.1-0.9,2.8c-0.6,0.8-1.4,1.3-2.5,1.6v0.2c1.3,0.2,2.3,0.7,3.1,1.6c0.7,0.8,1.1,1.9,1.1,3.2
	c0,1.1-0.3,2.1-0.9,2.9c-0.6,0.9-1.4,1.5-2.5,2C71.9,33.7,70.7,34,69.4,34z"/>
</svg>
