<?xml version="1.0" encoding="utf-8"?>
<!-- Generator: Adobe Illustrator 25.2.3, SVG Export Plug-In . SVG Version: 6.00 Build 0)  -->
<svg version="1.1" id="Layer_1" xmlns="http://www.w3.org/2000/svg" xmlns:xlink="http://www.w3.org/1999/xlink" x="0px" y="0px"
	 viewBox="0 0 120.8 120.8" style="enable-background:new 0 0 120.8 120.8;" xml:space="preserve">
<style type="text/css">
	.st0{fill:#F84AA8;}
	.st1{fill:url(#SVGID_1_);}
	.st2{fill:#FFFFFF;}
</style>
<g>
	<circle class="st0" cx="60.4" cy="60.4" r="60.4"/>
	
		<radialGradient id="SVGID_1_" cx="-301.5252" cy="112.6426" r="1" gradientTransform="matrix(111.2097 90.568 90.568 -111.2097 23343.0215 39855.8008)" gradientUnits="userSpaceOnUse">
		<stop  offset="0" style="stop-color:#FF6CDF"/>
		<stop  offset="0.5497" style="stop-color:#F84AC7"/>
		<stop  offset="1" style="stop-color:#941570"/>
	</radialGradient>
	<circle class="st1" cx="60.4" cy="60.4" r="60.4"/>
</g>
<path class="st2" d="M48,51c-0.6-2-1.9-3.4-3.8-4.2c-1.9-0.8-4.1-1-6.6-0.5c-1.8,0.3-3.3,0.9-4.6,1.7c-1.2,0.8-2.1,1.8-2.7,3
	c-0.6,1.2-0.7,2.4-0.5,3.7c0.2,1.1,0.6,2,1.3,2.7c0.7,0.7,1.5,1.2,2.4,1.6c0.9,0.4,1.9,0.6,2.8,0.8c1,0.2,1.8,0.3,2.6,0.3l4.4,0.4
	c1.1,0.1,2.4,0.3,3.8,0.5c1.4,0.3,2.8,0.7,4.1,1.3c1.4,0.6,2.6,1.5,3.6,2.7c1,1.2,1.7,2.7,2.1,4.6c0.4,2.2,0.2,4.3-0.6,6.3
	c-0.8,2-2.2,3.7-4.3,5.2c-2,1.4-4.6,2.5-7.7,3c-2.9,0.5-5.5,0.5-7.9,0c-2.3-0.6-4.2-1.6-5.7-3c-1.5-1.5-2.6-3.3-3.1-5.5l5.1-0.9
	c0.4,1.5,1.2,2.7,2.3,3.5c1.1,0.8,2.4,1.4,3.9,1.6c1.5,0.2,3.1,0.2,4.7-0.1c1.9-0.3,3.5-1,4.9-1.8c1.4-0.9,2.4-2,3.1-3.2
	c0.7-1.3,0.9-2.7,0.6-4.1c-0.2-1.4-0.8-2.4-1.7-3.1c-0.9-0.7-2-1.2-3.4-1.5c-1.3-0.3-2.8-0.5-4.3-0.7l-5.3-0.5
	c-3.4-0.3-6.1-1.2-8.3-2.6c-2.2-1.4-3.5-3.4-4-6.2c-0.4-2.3-0.2-4.4,0.8-6.3c0.9-1.9,2.4-3.6,4.3-4.9c1.9-1.3,4.2-2.2,6.8-2.7
	c2.6-0.5,5.1-0.4,7.3,0.1c2.2,0.6,4.1,1.5,5.6,2.9c1.5,1.4,2.5,3.1,2.9,5.2L48,51z M79.3,77.6c-3,0.5-5.6,0.3-8-0.6
	c-2.4-0.9-4.3-2.5-5.9-4.6c-1.6-2.2-2.6-4.8-3.2-7.9c-0.6-3.1-0.5-6,0.2-8.6c0.7-2.6,2-4.8,3.8-6.5c1.8-1.7,4.1-2.9,6.9-3.4
	c1.6-0.3,3.2-0.3,4.9-0.1c1.7,0.2,3.2,0.9,4.7,1.8c1.5,1,2.8,2.3,3.9,4.2s1.9,4.2,2.4,7l0.4,2l-23.6,4.3L65,61.1l18.8-3.4
	c-0.3-1.7-0.9-3.2-1.9-4.4c-0.9-1.2-2.1-2.1-3.5-2.7c-1.4-0.6-2.9-0.7-4.6-0.4c-1.9,0.3-3.4,1.1-4.6,2.3c-1.2,1.2-2,2.5-2.5,4.2
	c-0.5,1.6-0.5,3.3-0.2,4.9l0.5,2.7c0.4,2.3,1.2,4.2,2.3,5.7c1.1,1.4,2.4,2.5,4,3c1.6,0.6,3.3,0.7,5.2,0.3c1.2-0.2,2.3-0.6,3.3-1.1
	c0.9-0.5,1.7-1.2,2.3-2.1c0.6-0.9,1-1.8,1.2-3l4.8,0.5c-0.2,1.6-0.8,3.1-1.7,4.5c-0.9,1.4-2.2,2.5-3.7,3.5
	C83.2,76.6,81.4,77.2,79.3,77.6z"/>
</svg>
