<?xml version="1.0" encoding="utf-8"?>
<!-- Generator: Adobe Illustrator 25.2.3, SVG Export Plug-In . SVG Version: 6.00 Build 0)  -->
<svg version="1.1" id="Layer_1" xmlns="http://www.w3.org/2000/svg" xmlns:xlink="http://www.w3.org/1999/xlink" x="0px" y="0px"
	 viewBox="0 0 191.4 232.8" style="enable-background:new 0 0 191.4 232.8;" xml:space="preserve">
<g>
	<path d="M10.5,1.3v10.1H8.1V7.2H3.5v4.1H1.2V1.3h2.3v4h4.6v-4H10.5z M20.6,7.5c0,0,0,0.2,0,0.6h-5.9C14.8,8.6,15,9,15.4,9.3
		c0.4,0.3,0.9,0.4,1.5,0.4c0.4,0,0.8-0.1,1.1-0.2c0.3-0.1,0.6-0.3,0.9-0.6l1.2,1.3c-0.7,0.8-1.8,1.3-3.2,1.3c-0.9,0-1.7-0.2-2.3-0.5
		c-0.7-0.3-1.2-0.8-1.6-1.4c-0.4-0.6-0.5-1.3-0.5-2.1c0-0.8,0.2-1.4,0.5-2.1c0.4-0.6,0.9-1.1,1.5-1.4c0.6-0.3,1.3-0.5,2.1-0.5
		c0.8,0,1.4,0.2,2.1,0.5c0.6,0.3,1.1,0.8,1.4,1.4C20.4,6,20.6,6.7,20.6,7.5z M16.6,5.2c-0.5,0-0.9,0.1-1.3,0.4
		c-0.3,0.3-0.6,0.7-0.6,1.2h3.8c-0.1-0.5-0.3-0.9-0.6-1.2C17.5,5.3,17.1,5.2,16.6,5.2z M28.8,5.4h-4v5.9h-2.2V3.6h6.2V5.4z
		 M30.2,3.6h2.3v7.8h-2.3V3.6z M31.3,2.5c-0.4,0-0.8-0.1-1-0.4c-0.3-0.2-0.4-0.5-0.4-0.9s0.1-0.7,0.4-0.9c0.3-0.2,0.6-0.4,1-0.4
		c0.4,0,0.8,0.1,1,0.3c0.3,0.2,0.4,0.5,0.4,0.9c0,0.4-0.1,0.7-0.4,0.9C32,2.4,31.7,2.5,31.3,2.5z M39.8,7.3c0.5,0.1,0.8,0.4,1.1,0.7
		c0.3,0.3,0.4,0.7,0.4,1.1c0,0.5-0.2,0.9-0.5,1.3c-0.3,0.4-0.8,0.7-1.4,0.9c-0.6,0.2-1.3,0.3-2,0.3c-0.6,0-1.2-0.1-1.8-0.2
		c-0.6-0.1-1.1-0.3-1.6-0.6l0.6-1.6c0.8,0.4,1.7,0.6,2.7,0.6c0.5,0,0.9-0.1,1.2-0.2c0.3-0.2,0.5-0.4,0.5-0.7c0-0.3-0.1-0.4-0.3-0.6
		c-0.2-0.1-0.5-0.2-0.9-0.2h-1.6V6.7h1.4c0.4,0,0.7-0.1,0.9-0.2c0.2-0.1,0.3-0.3,0.3-0.5c0-0.3-0.1-0.4-0.4-0.6
		c-0.3-0.1-0.6-0.2-1.1-0.2c-0.8,0-1.6,0.2-2.5,0.5l-0.5-1.6c1.1-0.5,2.1-0.7,3.1-0.7c0.7,0,1.3,0.1,1.9,0.3c0.6,0.2,1,0.4,1.3,0.8
		C40.9,4.8,41,5.2,41,5.6c0,0.4-0.1,0.7-0.3,1C40.5,6.9,40.2,7.2,39.8,7.3z M49.3,5.4h-4v5.9h-2.2V3.6h6.2V5.4z M50.7,3.6H53v7.8
		h-2.3V3.6z M51.8,2.5c-0.4,0-0.8-0.1-1-0.4c-0.3-0.2-0.4-0.5-0.4-0.9s0.1-0.7,0.4-0.9c0.3-0.2,0.6-0.4,1-0.4s0.8,0.1,1,0.3
		c0.3,0.2,0.4,0.5,0.4,0.9c0,0.4-0.1,0.7-0.4,0.9C52.6,2.4,52.3,2.5,51.8,2.5z M63.1,8.4h-1.2v2.9h-2.3V3.6h2.3v3h1.2l2.1-3h2.4
		l-2.7,3.7l2.9,4h-2.7L63.1,8.4z M68.2,9.6v3.4h-2v-1.6h-1V9.6H68.2z M72.5,11.5c-0.8,0-1.6-0.2-2.2-0.5c-0.6-0.3-1.2-0.8-1.5-1.4
		c-0.4-0.6-0.5-1.3-0.5-2.1c0-0.8,0.2-1.5,0.5-2.1c0.4-0.6,0.9-1.1,1.5-1.4c0.7-0.3,1.4-0.5,2.2-0.5c0.8,0,1.6,0.2,2.2,0.5
		c0.6,0.3,1.2,0.8,1.5,1.4c0.4,0.6,0.5,1.3,0.5,2.1c0,0.8-0.2,1.5-0.5,2.1c-0.4,0.6-0.9,1.1-1.5,1.4C74.1,11.3,73.4,11.5,72.5,11.5z
		 M72.5,9.6c0.6,0,1.1-0.2,1.4-0.6c0.4-0.4,0.6-0.9,0.6-1.6c0-0.7-0.2-1.2-0.6-1.6c-0.4-0.4-0.8-0.6-1.4-0.6c-0.6,0-1.1,0.2-1.4,0.6
		c-0.4,0.4-0.6,0.9-0.6,1.6c0,0.7,0.2,1.2,0.6,1.6C71.5,9.4,72,9.6,72.5,9.6z M85.9,3.6v7.8h-2.3V5.4h-2.5l-0.1,1.4
		c0,1-0.1,1.9-0.3,2.5c-0.2,0.7-0.4,1.2-0.8,1.6c-0.3,0.4-0.8,0.6-1.4,0.6c-0.3,0-0.7-0.1-1.2-0.2l0.1-1.8c0.2,0,0.3,0,0.3,0
		c0.3,0,0.6-0.1,0.8-0.4C78.9,8.9,79,8.6,79,8.2c0.1-0.4,0.1-0.9,0.1-1.5l0.1-3.1H85.9z M97,9.5V13h-2.1v-1.7h-5.5V13h-2.1V9.5h0.3
		c0.5,0,0.8-0.3,1-0.9C88.9,8.1,89,7.3,89,6.3l0.1-2.7h6.8v5.9H97z M91.1,6.4c0,0.8-0.1,1.4-0.2,1.9c-0.1,0.5-0.3,0.9-0.5,1.1h3.3
		V5.4h-2.5L91.1,6.4z M101.7,3.5c1.2,0,2.1,0.3,2.8,0.9c0.6,0.6,1,1.4,1,2.6v4.4h-2.1v-1c-0.4,0.7-1.2,1.1-2.4,1.1
		c-0.6,0-1.1-0.1-1.6-0.3c-0.4-0.2-0.8-0.5-1-0.8C98.1,10,98,9.6,98,9.1c0-0.7,0.3-1.3,0.8-1.7c0.5-0.4,1.4-0.6,2.5-0.6h1.8
		c0-0.5-0.1-0.9-0.4-1.1c-0.3-0.3-0.7-0.4-1.3-0.4c-0.4,0-0.8,0.1-1.2,0.2c-0.4,0.1-0.7,0.3-1,0.5l-0.8-1.6c0.4-0.3,0.9-0.5,1.5-0.7
		C100.4,3.6,101,3.5,101.7,3.5z M101.5,10c0.4,0,0.7-0.1,1-0.3c0.3-0.2,0.5-0.4,0.6-0.8V8.1h-1.5c-0.9,0-1.4,0.3-1.4,0.9
		c0,0.3,0.1,0.5,0.3,0.7C100.8,9.9,101.1,10,101.5,10z M107.6,3.6h2.2v3h3.4v-3h2.3v7.8h-2.3V8.5h-3.4v2.9h-2.2V3.6z M125.6,3.6
		l-3.5,8.3c-0.4,0.9-0.8,1.5-1.3,1.9c-0.5,0.4-1.2,0.5-1.9,0.5c-0.4,0-0.8-0.1-1.2-0.2c-0.4-0.1-0.7-0.3-1-0.5l0.8-1.6
		c0.2,0.2,0.4,0.3,0.6,0.4c0.2,0.1,0.5,0.1,0.7,0.1c0.3,0,0.6-0.1,0.8-0.2c0.2-0.1,0.4-0.4,0.5-0.7l0-0.1l-3.4-7.8h2.3l2.2,5.3
		l2.2-5.3H125.6z M129.6,5.4v2h2.9v1.4h-2.9v2.6h-2.2V8.8h-1.1V7.4h1.1V3.6h6.2v1.8H129.6z M138.1,3.5c1.2,0,2.1,0.3,2.8,0.9
		c0.6,0.6,1,1.4,1,2.6v4.4h-2.1v-1c-0.4,0.7-1.2,1.1-2.4,1.1c-0.6,0-1.1-0.1-1.6-0.3c-0.4-0.2-0.8-0.5-1-0.8
		c-0.2-0.4-0.3-0.8-0.3-1.2c0-0.7,0.3-1.3,0.8-1.7c0.5-0.4,1.4-0.6,2.5-0.6h1.8c0-0.5-0.1-0.9-0.4-1.1c-0.3-0.3-0.7-0.4-1.3-0.4
		c-0.4,0-0.8,0.1-1.2,0.2c-0.4,0.1-0.7,0.3-1,0.5l-0.8-1.6c0.4-0.3,0.9-0.5,1.5-0.7C136.9,3.6,137.5,3.5,138.1,3.5z M137.9,10
		c0.4,0,0.7-0.1,1-0.3c0.3-0.2,0.5-0.4,0.6-0.8V8.1H138c-0.9,0-1.4,0.3-1.4,0.9c0,0.3,0.1,0.5,0.3,0.7C137.2,9.9,137.5,10,137.9,10z
		 M5.5,20.1c0.7,0,1.4,0.2,2,0.5c0.6,0.3,1,0.7,1.3,1.3c0.3,0.5,0.5,1.2,0.5,1.9c0,0.7-0.2,1.4-0.5,2c-0.4,0.6-0.9,1-1.5,1.3
		c-0.6,0.3-1.4,0.5-2.2,0.5c-1.4,0-2.4-0.4-3.2-1.3c-0.8-0.9-1.2-2.2-1.2-3.8c0-1.6,0.3-2.8,1-3.7c0.7-0.9,1.7-1.5,3.1-1.8l3.7-0.7
		L8.7,18l-3.3,0.7c-0.9,0.2-1.5,0.5-2,0.9c-0.4,0.4-0.7,1-0.8,1.7c0.3-0.4,0.7-0.6,1.2-0.8C4.4,20.2,4.9,20.1,5.5,20.1z M5,25.8
		c0.6,0,1-0.2,1.4-0.6c0.4-0.4,0.5-0.9,0.5-1.4c0-0.6-0.2-1.1-0.5-1.4C6,22.1,5.5,21.9,5,21.9c-0.6,0-1.1,0.2-1.4,0.5S3,23.2,3,23.8
		c0,0.6,0.2,1.1,0.5,1.4C3.9,25.6,4.4,25.8,5,25.8z M14.6,27.5c-0.8,0-1.6-0.2-2.2-0.5c-0.6-0.3-1.2-0.8-1.5-1.4
		c-0.4-0.6-0.5-1.3-0.5-2.1c0-0.8,0.2-1.5,0.5-2.1c0.4-0.6,0.9-1.1,1.5-1.4c0.7-0.3,1.4-0.5,2.2-0.5c0.8,0,1.6,0.2,2.2,0.5
		c0.6,0.3,1.2,0.8,1.5,1.4c0.4,0.6,0.5,1.3,0.5,2.1c0,0.8-0.2,1.5-0.5,2.1c-0.4,0.6-0.9,1.1-1.5,1.4C16.1,27.3,15.4,27.5,14.6,27.5z
		 M14.6,25.6c0.6,0,1.1-0.2,1.4-0.6c0.4-0.4,0.6-0.9,0.6-1.6c0-0.7-0.2-1.2-0.6-1.6c-0.4-0.4-0.8-0.6-1.4-0.6
		c-0.6,0-1.1,0.2-1.4,0.6c-0.4,0.4-0.6,0.9-0.6,1.6c0,0.7,0.2,1.2,0.6,1.6C13.5,25.4,14,25.6,14.6,25.6z M28,19.6v7.8h-2.3v-5.9
		h-2.5l-0.1,1.4c0,1-0.1,1.9-0.3,2.5c-0.2,0.7-0.4,1.2-0.8,1.6c-0.3,0.4-0.8,0.6-1.4,0.6c-0.3,0-0.7-0.1-1.2-0.2l0.1-1.8
		c0.2,0,0.3,0,0.3,0c0.3,0,0.6-0.1,0.8-0.4c0.2-0.3,0.3-0.6,0.3-0.9c0.1-0.4,0.1-0.9,0.1-1.5l0.1-3.1H28z M37.9,27.4v-4.7l-2.3,3.9
		h-1l-2.3-3.9v4.7h-2v-7.8h2.4l2.5,4.5l2.6-4.5h2.1l0,7.8H37.9z M45.4,19.5c1.2,0,2.1,0.3,2.8,0.9c0.6,0.6,1,1.4,1,2.6v4.4H47v-1
		c-0.4,0.7-1.2,1.1-2.4,1.1c-0.6,0-1.1-0.1-1.6-0.3c-0.4-0.2-0.8-0.5-1-0.8c-0.2-0.4-0.3-0.8-0.3-1.2c0-0.7,0.3-1.3,0.8-1.7
		c0.5-0.4,1.4-0.6,2.5-0.6h1.8c0-0.5-0.1-0.9-0.4-1.1c-0.3-0.3-0.7-0.4-1.3-0.4c-0.4,0-0.8,0.1-1.2,0.2c-0.4,0.1-0.7,0.3-1,0.5
		L42,20.4c0.4-0.3,0.9-0.5,1.5-0.7C44.1,19.6,44.7,19.5,45.4,19.5z M45.2,26c0.4,0,0.7-0.1,1-0.3c0.3-0.2,0.5-0.4,0.6-0.8v-0.8h-1.5
		c-0.9,0-1.4,0.3-1.4,0.9c0,0.3,0.1,0.5,0.3,0.7C44.5,25.9,44.8,26,45.2,26z M51.3,19.6h2.2v4.6l3.8-4.6h2.1v7.8h-2.2v-4.6l-3.8,4.6
		h-2.1V19.6z M55.2,18.8c-1.7,0-2.5-0.7-2.6-2.2h1.5c0,0.3,0.1,0.6,0.3,0.8c0.2,0.2,0.4,0.3,0.8,0.3c0.3,0,0.6-0.1,0.8-0.3
		c0.2-0.2,0.3-0.5,0.3-0.8h1.5C57.7,18,56.9,18.8,55.2,18.8z M68.3,21.4h-2.6v5.9h-2.2v-5.9h-2.6v-1.8h7.5V21.4z M73.8,22.1
		c1,0,1.8,0.2,2.3,0.7c0.5,0.4,0.8,1.1,0.8,1.9c0,0.9-0.3,1.5-0.9,2c-0.6,0.5-1.4,0.7-2.5,0.7l-3.8,0v-7.8H72v2.5H73.8z M77.7,19.6
		H80v7.8h-2.2V19.6z M73.3,25.8c0.4,0,0.8-0.1,1-0.3c0.2-0.2,0.3-0.5,0.3-0.9c0-0.4-0.1-0.7-0.3-0.8c-0.2-0.2-0.6-0.3-1-0.3l-1.3,0
		v2.3H73.3z M82.3,19.6h2.2v3H88v-3h2.3v7.8H88v-2.9h-3.4v2.9h-2.2V19.6z M104.6,24.4h-1.1v2.9h-2.2v-2.9h-1.1l-1.6,2.9h-2.7l2.4-4
		l-2.3-3.8h2.4l1.7,3h1.1v-3h2.2v3h1.1l1.7-3h2.4l-2.3,3.8l2.5,4h-2.7L104.6,24.4z M113.2,19.5c1.2,0,2.1,0.3,2.8,0.9
		c0.6,0.6,1,1.4,1,2.6v4.4h-2.1v-1c-0.4,0.7-1.2,1.1-2.4,1.1c-0.6,0-1.1-0.1-1.6-0.3c-0.4-0.2-0.8-0.5-1-0.8
		c-0.2-0.4-0.3-0.8-0.3-1.2c0-0.7,0.3-1.3,0.8-1.7c0.6-0.4,1.4-0.6,2.5-0.6h1.8c0-0.5-0.1-0.9-0.4-1.1c-0.3-0.3-0.7-0.4-1.3-0.4
		c-0.4,0-0.8,0.1-1.2,0.2c-0.4,0.1-0.7,0.3-1,0.5l-0.8-1.6c0.4-0.3,0.9-0.5,1.5-0.7C112,19.6,112.6,19.5,113.2,19.5z M113,26
		c0.4,0,0.7-0.1,1-0.3c0.3-0.2,0.5-0.4,0.6-0.8v-0.8h-1.5c-0.9,0-1.4,0.3-1.4,0.9c0,0.3,0.1,0.5,0.3,0.7C112.3,25.9,112.6,26,113,26
		z M121.8,21.4v2h2.9v1.4h-2.9v2.6h-2.2v-2.6h-1.1v-1.4h1.1v-3.8h6.2v1.8H121.8z M135.4,25.5V29h-2.1v-1.7h-5.5V29h-2.1v-3.5h0.3
		c0.5,0,0.8-0.3,1-0.9c0.2-0.6,0.3-1.4,0.3-2.4l0.1-2.7h6.8v5.9H135.4z M129.5,22.4c0,0.8-0.1,1.4-0.2,1.9c-0.1,0.5-0.3,0.9-0.5,1.1
		h3.3v-4.1h-2.5L129.5,22.4z M140.1,19.5c1.2,0,2.1,0.3,2.8,0.9c0.6,0.6,1,1.4,1,2.6v4.4h-2.1v-1c-0.4,0.7-1.2,1.1-2.4,1.1
		c-0.6,0-1.1-0.1-1.6-0.3c-0.4-0.2-0.8-0.5-1-0.8c-0.2-0.4-0.3-0.8-0.3-1.2c0-0.7,0.3-1.3,0.8-1.7c0.5-0.4,1.4-0.6,2.5-0.6h1.8
		c0-0.5-0.1-0.9-0.4-1.1c-0.3-0.3-0.7-0.4-1.3-0.4c-0.4,0-0.8,0.1-1.2,0.2c-0.4,0.1-0.7,0.3-1,0.5l-0.8-1.6c0.4-0.3,0.9-0.5,1.5-0.7
		C138.8,19.6,139.4,19.5,140.1,19.5z M139.9,26c0.4,0,0.7-0.1,1-0.3c0.3-0.2,0.5-0.4,0.6-0.8v-0.8H140c-0.9,0-1.4,0.3-1.4,0.9
		c0,0.3,0.1,0.5,0.3,0.7C139.2,25.9,139.5,26,139.9,26z M146,19.6h2.2v4.6l3.8-4.6h2.1v7.8h-2.2v-4.6l-3.8,4.6H146V19.6z
		 M149.9,18.8c-1.7,0-2.5-0.7-2.6-2.2h1.5c0,0.3,0.1,0.6,0.3,0.8c0.2,0.2,0.4,0.3,0.8,0.3c0.3,0,0.6-0.1,0.8-0.3
		c0.2-0.2,0.3-0.5,0.3-0.8h1.5C152.4,18,151.6,18.8,149.9,18.8z M163.9,19.6v7.8h-2.3v-5.9h-2.5l-0.1,1.4c0,1-0.1,1.9-0.3,2.5
		c-0.2,0.7-0.4,1.2-0.8,1.6c-0.3,0.4-0.8,0.6-1.4,0.6c-0.3,0-0.7-0.1-1.2-0.2l0.1-1.8c0.2,0,0.3,0,0.3,0c0.3,0,0.6-0.1,0.8-0.4
		c0.2-0.3,0.3-0.6,0.3-0.9c0.1-0.4,0.1-0.9,0.1-1.5l0.1-3.1H163.9z M169.3,19.5c1.2,0,2.1,0.3,2.8,0.9c0.6,0.6,1,1.4,1,2.6v4.4h-2.1
		v-1c-0.4,0.7-1.2,1.1-2.4,1.1c-0.6,0-1.1-0.1-1.6-0.3c-0.4-0.2-0.8-0.5-1-0.8c-0.2-0.4-0.3-0.8-0.3-1.2c0-0.7,0.3-1.3,0.8-1.7
		c0.6-0.4,1.4-0.6,2.5-0.6h1.8c0-0.5-0.1-0.9-0.4-1.1c-0.3-0.3-0.7-0.4-1.3-0.4c-0.4,0-0.8,0.1-1.2,0.2c-0.4,0.1-0.7,0.3-1,0.5
		l-0.8-1.6c0.4-0.3,0.9-0.5,1.5-0.7C168.1,19.6,168.7,19.5,169.3,19.5z M169.1,26c0.4,0,0.7-0.1,1-0.3c0.3-0.2,0.5-0.4,0.6-0.8v-0.8
		h-1.5c-0.9,0-1.4,0.3-1.4,0.9c0,0.3,0.1,0.5,0.3,0.7C168.4,25.9,168.7,26,169.1,26z M179.8,19.5c0.7,0,1.4,0.2,2,0.5
		c0.6,0.3,1.1,0.8,1.4,1.4c0.3,0.6,0.5,1.3,0.5,2.1c0,0.8-0.2,1.5-0.5,2.1c-0.3,0.6-0.8,1.1-1.4,1.4c-0.6,0.3-1.2,0.5-2,0.5
		c-1,0-1.8-0.3-2.3-0.9v3.6h-2.3V19.6h2.2v0.9C177.9,19.8,178.7,19.5,179.8,19.5z M179.4,25.6c0.6,0,1.1-0.2,1.4-0.6
		c0.4-0.4,0.6-0.9,0.6-1.6c0-0.7-0.2-1.2-0.6-1.6c-0.4-0.4-0.8-0.6-1.4-0.6s-1.1,0.2-1.4,0.6c-0.4,0.4-0.5,0.9-0.5,1.6
		c0,0.7,0.2,1.2,0.5,1.6C178.4,25.4,178.8,25.6,179.4,25.6z M186.3,22.3c-0.4,0-0.7-0.1-1-0.4c-0.3-0.3-0.4-0.6-0.4-1
		c0-0.4,0.1-0.7,0.4-1c0.3-0.3,0.6-0.4,1-0.4c0.4,0,0.7,0.1,1,0.4c0.3,0.3,0.4,0.6,0.4,1c0,0.4-0.1,0.7-0.4,1
		C187,22.2,186.7,22.3,186.3,22.3z M186.3,27.5c-0.4,0-0.7-0.1-1-0.4c-0.3-0.3-0.4-0.6-0.4-1c0-0.4,0.1-0.7,0.4-1
		c0.3-0.3,0.6-0.4,1-0.4c0.4,0,0.7,0.1,1,0.4c0.3,0.3,0.4,0.6,0.4,1c0,0.4-0.1,0.7-0.4,1C187,27.4,186.7,27.5,186.3,27.5z"/>
	<path d="M4.6,46.6H3.2v2.7H2.1v-6.5h1.2v2.7h1.4l2.1-2.7H8L5.5,46l2.6,3.4H6.8L4.6,46.6z M8.6,48.4v2.4H7.6v-1.4H6.8v-1H8.6z
		 M12,49.4v2.3h-1.2v-2.3l-2.8-6.5h1.2l2.2,5.2l2.3-5.2h1.1L12,49.4z M8.7,48.9H14v0.8H8.7V48.9z M19.5,42.8c0.6,0,1.2,0.1,1.7,0.4
		c0.5,0.3,0.9,0.7,1.2,1.2c0.3,0.5,0.4,1.1,0.4,1.7s-0.1,1.2-0.4,1.7c-0.3,0.5-0.7,0.9-1.2,1.2c-0.5,0.3-1.1,0.4-1.7,0.4
		c-0.5,0-0.9-0.1-1.3-0.3c-0.4-0.2-0.7-0.4-1-0.8v3.4H16v-8.9h1.1v1c0.3-0.4,0.6-0.6,1-0.8C18.5,42.9,19,42.8,19.5,42.8z M19.4,48.4
		c0.4,0,0.8-0.1,1.1-0.3c0.3-0.2,0.6-0.5,0.8-0.8c0.2-0.4,0.3-0.7,0.3-1.2s-0.1-0.8-0.3-1.2c-0.2-0.4-0.4-0.6-0.8-0.8
		c-0.3-0.2-0.7-0.3-1.1-0.3c-0.4,0-0.8,0.1-1.1,0.3c-0.3,0.2-0.6,0.5-0.8,0.8c-0.2,0.3-0.3,0.7-0.3,1.2s0.1,0.8,0.3,1.2
		c0.2,0.3,0.4,0.6,0.8,0.8C18.6,48.3,19,48.4,19.4,48.4z M26.7,42.8c0.9,0,1.6,0.2,2.1,0.7c0.5,0.4,0.7,1.1,0.7,2v3.9h-1.1v-0.9
		c-0.2,0.3-0.5,0.5-0.8,0.7c-0.4,0.2-0.8,0.2-1.3,0.2c-0.7,0-1.3-0.2-1.7-0.5c-0.4-0.4-0.6-0.8-0.6-1.4s0.2-1,0.6-1.4
		c0.4-0.4,1.1-0.5,2-0.5h1.9v-0.2c0-0.5-0.1-0.9-0.4-1.2c-0.3-0.3-0.7-0.4-1.3-0.4c-0.4,0-0.8,0.1-1.1,0.2c-0.4,0.1-0.7,0.3-0.9,0.5
		L24,43.7c0.3-0.3,0.7-0.5,1.2-0.6C25.7,42.9,26.2,42.8,26.7,42.8z M26.4,48.5c0.4,0,0.8-0.1,1.2-0.3c0.3-0.2,0.6-0.5,0.7-0.9v-0.9
		h-1.8c-1,0-1.5,0.3-1.5,1c0,0.3,0.1,0.6,0.4,0.8C25.6,48.4,26,48.5,26.4,48.5z M39.1,42.9v6.5H38v-4.7l-2.4,4h-0.5l-2.4-4v4.7h-1.1
		v-6.5h1.2l2.5,4.4l2.6-4.4H39.1z M47.9,48.3v2.5h-1.1v-1.5h-5.4v1.5h-1.1v-2.5h0.3c0.4,0,0.7-0.3,0.9-0.9c0.2-0.6,0.3-1.4,0.3-2.4
		l0.1-2.2h5v5.5H47.9z M42.9,45.2c0,0.8-0.1,1.5-0.2,2c-0.1,0.5-0.3,0.9-0.6,1.1h3.6v-4.4h-2.8L42.9,45.2z M51.8,42.8
		c0.9,0,1.6,0.2,2.1,0.7c0.5,0.4,0.7,1.1,0.7,2v3.9h-1.1v-0.9c-0.2,0.3-0.5,0.5-0.8,0.7c-0.4,0.2-0.8,0.2-1.3,0.2
		c-0.7,0-1.3-0.2-1.7-0.5c-0.4-0.4-0.6-0.8-0.6-1.4s0.2-1,0.6-1.4c0.4-0.4,1.1-0.5,2-0.5h1.9v-0.2c0-0.5-0.1-0.9-0.4-1.2
		c-0.3-0.3-0.7-0.4-1.3-0.4c-0.4,0-0.8,0.1-1.1,0.2c-0.4,0.1-0.7,0.3-0.9,0.5l-0.5-0.9c0.3-0.3,0.7-0.5,1.2-0.6
		C50.8,42.9,51.2,42.8,51.8,42.8z M51.5,48.5c0.4,0,0.8-0.1,1.2-0.3c0.3-0.2,0.6-0.5,0.7-0.9v-0.9h-1.8c-1,0-1.5,0.3-1.5,1
		c0,0.3,0.1,0.6,0.4,0.8C50.7,48.4,51,48.5,51.5,48.5z M59.5,49.4c-0.7,0-1.3-0.1-1.8-0.4c-0.5-0.3-0.9-0.7-1.2-1.2
		c-0.3-0.5-0.4-1.1-0.4-1.7s0.1-1.2,0.4-1.7c0.3-0.5,0.7-0.9,1.2-1.2c0.5-0.3,1.1-0.4,1.8-0.4c0.6,0,1.1,0.1,1.6,0.4
		c0.5,0.2,0.8,0.6,1.1,1l-0.9,0.6c-0.2-0.3-0.5-0.5-0.8-0.7c-0.3-0.2-0.6-0.2-1-0.2c-0.4,0-0.8,0.1-1.1,0.3
		c-0.3,0.2-0.6,0.5-0.8,0.8c-0.2,0.3-0.3,0.7-0.3,1.2c0,0.5,0.1,0.9,0.3,1.2c0.2,0.3,0.5,0.6,0.8,0.8c0.3,0.2,0.7,0.3,1.1,0.3
		c0.4,0,0.7-0.1,1-0.2c0.3-0.2,0.6-0.4,0.8-0.7l0.9,0.6c-0.3,0.4-0.6,0.8-1.1,1C60.6,49.3,60.1,49.4,59.5,49.4z M70.2,43.1
		c0.6,0,1.1,0.1,1.6,0.4c0.5,0.3,0.8,0.6,1.1,1.1c0.3,0.5,0.4,1,0.4,1.6c0,0.6-0.1,1.2-0.4,1.7c-0.3,0.5-0.7,0.9-1.2,1.1
		c-0.5,0.3-1.1,0.4-1.7,0.4c-1.1,0-2-0.4-2.6-1.1c-0.6-0.8-0.9-1.8-0.9-3.2c0-1.3,0.3-2.4,0.8-3.1c0.5-0.8,1.4-1.3,2.5-1.5l3-0.7
		l0.2,1.1l-2.7,0.6c-0.8,0.2-1.5,0.5-1.9,1c-0.4,0.4-0.7,1.1-0.7,1.9c0.3-0.4,0.6-0.7,1.1-1C69.2,43.2,69.7,43.1,70.2,43.1z
		 M70,48.5c0.4,0,0.8-0.1,1.1-0.3c0.3-0.2,0.6-0.4,0.8-0.8c0.2-0.3,0.3-0.7,0.3-1.1c0-0.6-0.2-1.2-0.6-1.6c-0.4-0.4-0.9-0.6-1.5-0.6
		c-0.6,0-1.2,0.2-1.6,0.6c-0.4,0.4-0.6,0.9-0.6,1.6c0,0.4,0.1,0.8,0.3,1.1c0.2,0.3,0.4,0.6,0.8,0.8C69.2,48.4,69.6,48.5,70,48.5z
		 M77.9,42.8c0.7,0,1.2,0.1,1.8,0.4c0.5,0.3,0.9,0.7,1.2,1.2c0.3,0.5,0.5,1.1,0.5,1.7s-0.2,1.2-0.5,1.7c-0.3,0.5-0.7,0.9-1.2,1.2
		c-0.5,0.3-1.1,0.4-1.8,0.4s-1.2-0.1-1.8-0.4c-0.5-0.3-0.9-0.7-1.2-1.2c-0.3-0.5-0.4-1.1-0.4-1.7s0.1-1.2,0.4-1.7
		c0.3-0.5,0.7-0.9,1.2-1.2C76.6,43,77.2,42.8,77.9,42.8z M77.9,43.8c-0.6,0-1.1,0.2-1.5,0.5c-0.4,0.4-0.7,0.8-0.7,1.4h4.6
		c-0.1-0.6-0.3-1.1-0.7-1.4C79,43.9,78.5,43.8,77.9,43.8z M77.9,48.5c0.6,0,1.1-0.2,1.5-0.5c0.4-0.4,0.7-0.8,0.7-1.4h-4.6
		c0.1,0.6,0.3,1.1,0.7,1.4C76.7,48.3,77.3,48.5,77.9,48.5z M88.5,42.9v6.5h-1.2v-5.5h-2.8l-0.1,1.4c0,0.9-0.1,1.6-0.2,2.2
		c-0.1,0.6-0.3,1-0.6,1.4c-0.3,0.4-0.6,0.5-1.1,0.5c-0.2,0-0.5,0-0.7-0.1l0.1-1c0.1,0,0.2,0,0.3,0c0.3,0,0.6-0.1,0.7-0.4
		c0.2-0.3,0.3-0.6,0.3-1c0-0.4,0.1-0.9,0.1-1.7l0.1-2.4H88.5z M90.8,42.9h1.2v6.5h-1.2V42.9z M91.3,41.6c-0.2,0-0.4-0.1-0.6-0.2
		c-0.1-0.1-0.2-0.3-0.2-0.5c0-0.2,0.1-0.4,0.2-0.5c0.2-0.2,0.3-0.2,0.6-0.2c0.2,0,0.4,0.1,0.6,0.2c0.2,0.1,0.2,0.3,0.2,0.5
		c0,0.2-0.1,0.4-0.2,0.6C91.8,41.6,91.6,41.6,91.3,41.6z M96.7,46.6h-1.3v2.7h-1.2v-6.5h1.2v2.7h1.4l2.1-2.7h1.3L97.7,46l2.6,3.4
		h-1.4L96.7,46.6z M106.2,43.9h-2.4v5.5h-1.2v-5.5h-2.4v-1h5.9V43.9z M113,46.2c0,0.1,0,0.2,0,0.4h-5.3c0.1,0.6,0.3,1,0.7,1.4
		c0.4,0.3,1,0.5,1.6,0.5c0.8,0,1.4-0.3,1.9-0.8l0.6,0.8c-0.3,0.3-0.7,0.6-1.1,0.8c-0.4,0.2-0.9,0.3-1.5,0.3c-0.7,0-1.3-0.1-1.8-0.4
		c-0.5-0.3-0.9-0.7-1.2-1.2c-0.3-0.5-0.4-1.1-0.4-1.7c0-0.6,0.1-1.2,0.4-1.7c0.3-0.5,0.7-0.9,1.2-1.2c0.5-0.3,1.1-0.4,1.7-0.4
		c0.6,0,1.2,0.1,1.7,0.4c0.5,0.3,0.9,0.7,1.1,1.2C112.9,44.9,113,45.5,113,46.2z M109.8,43.8c-0.6,0-1,0.2-1.4,0.5
		c-0.4,0.3-0.6,0.8-0.7,1.3h4.2c-0.1-0.5-0.3-1-0.7-1.3C110.8,44,110.4,43.8,109.8,43.8z M118.3,42.8c0.6,0,1.2,0.1,1.7,0.4
		c0.5,0.3,0.9,0.7,1.2,1.2c0.3,0.5,0.4,1.1,0.4,1.7s-0.1,1.2-0.4,1.7c-0.3,0.5-0.7,0.9-1.2,1.2c-0.5,0.3-1.1,0.4-1.7,0.4
		c-0.5,0-0.9-0.1-1.3-0.3c-0.4-0.2-0.7-0.4-1-0.8v3.4h-1.2v-8.9h1.1v1c0.3-0.4,0.6-0.6,1-0.8C117.4,42.9,117.8,42.8,118.3,42.8z
		 M118.2,48.4c0.4,0,0.8-0.1,1.1-0.3c0.3-0.2,0.6-0.5,0.8-0.8c0.2-0.4,0.3-0.7,0.3-1.2s-0.1-0.8-0.3-1.2c-0.2-0.4-0.4-0.6-0.8-0.8
		c-0.3-0.2-0.7-0.3-1.1-0.3c-0.4,0-0.8,0.1-1.1,0.3c-0.3,0.2-0.6,0.5-0.8,0.8c-0.2,0.3-0.3,0.7-0.3,1.2s0.1,0.8,0.3,1.2
		c0.2,0.3,0.4,0.6,0.8,0.8C117.4,48.3,117.8,48.4,118.2,48.4z M123.3,42.9h1.2v6.5h-1.2V42.9z M123.8,41.6c-0.2,0-0.4-0.1-0.6-0.2
		c-0.1-0.1-0.2-0.3-0.2-0.5c0-0.2,0.1-0.4,0.2-0.5c0.2-0.2,0.3-0.2,0.6-0.2c0.2,0,0.4,0.1,0.6,0.2c0.2,0.1,0.2,0.3,0.2,0.5
		c0,0.2-0.1,0.4-0.2,0.6C124.3,41.6,124.1,41.6,123.8,41.6z M126.7,42.9h1.2v2.8h3.7v-2.8h1.2v6.5h-1.2v-2.7h-3.7v2.7h-1.2V42.9z
		 M135,42.9h1.2v6.5H135V42.9z M135.6,41.6c-0.2,0-0.4-0.1-0.6-0.2c-0.1-0.1-0.2-0.3-0.2-0.5c0-0.2,0.1-0.4,0.2-0.5
		c0.2-0.2,0.3-0.2,0.6-0.2c0.2,0,0.4,0.1,0.6,0.2c0.2,0.1,0.2,0.3,0.2,0.5c0,0.2-0.1,0.4-0.2,0.6C136,41.6,135.9,41.6,135.6,41.6z
		 M138.5,42.9h1.2v2.8h3.7v-2.8h1.2v6.5h-1.2v-2.7h-3.7v2.7h-1.2V42.9z M145.6,48.3v2.4h-1.1v-1.4h-1.1v-1H145.6z M156.3,46.6H155
		v2.7h-1.2v-2.7h-1.3l-1.8,2.7h-1.4l2.2-3.4l-2.1-3.1h1.2l1.7,2.7h1.3v-2.7h1.2v2.7h1.3l1.7-2.7h1.3l-2.1,3.1l2.2,3.3h-1.4
		L156.3,46.6z M166.4,46.2c0,0.1,0,0.2,0,0.4h-5.3c0.1,0.6,0.3,1,0.7,1.4c0.4,0.3,1,0.5,1.6,0.5c0.8,0,1.4-0.3,1.9-0.8l0.6,0.8
		c-0.3,0.3-0.7,0.6-1.1,0.8c-0.4,0.2-0.9,0.3-1.5,0.3c-0.7,0-1.3-0.1-1.8-0.4c-0.5-0.3-0.9-0.7-1.2-1.2c-0.3-0.5-0.4-1.1-0.4-1.7
		c0-0.6,0.1-1.2,0.4-1.7c0.3-0.5,0.7-0.9,1.2-1.2c0.5-0.3,1.1-0.4,1.7-0.4c0.6,0,1.2,0.1,1.7,0.4c0.5,0.3,0.9,0.7,1.1,1.2
		C166.3,44.9,166.4,45.5,166.4,46.2z M163.2,43.8c-0.6,0-1,0.2-1.4,0.5c-0.4,0.3-0.6,0.8-0.7,1.3h4.2c-0.1-0.5-0.3-1-0.7-1.3
		C164.2,44,163.7,43.8,163.2,43.8z M170.7,46.6h-1.3v2.7h-1.2v-6.5h1.2v2.7h1.4l2.1-2.7h1.3l-2.5,3.1l2.6,3.4h-1.4L170.7,46.6z
		 M181.2,46.2c0,0.1,0,0.2,0,0.4h-5.3c0.1,0.6,0.3,1,0.7,1.4c0.4,0.3,1,0.5,1.6,0.5c0.8,0,1.4-0.3,1.9-0.8l0.6,0.8
		c-0.3,0.3-0.7,0.6-1.1,0.8c-0.4,0.2-0.9,0.3-1.5,0.3c-0.7,0-1.3-0.1-1.8-0.4c-0.5-0.3-0.9-0.7-1.2-1.2c-0.3-0.5-0.4-1.1-0.4-1.7
		c0-0.6,0.1-1.2,0.4-1.7c0.3-0.5,0.7-0.9,1.2-1.2c0.5-0.3,1.1-0.4,1.7-0.4c0.6,0,1.2,0.1,1.7,0.4c0.5,0.3,0.9,0.7,1.1,1.2
		C181,44.9,181.2,45.5,181.2,46.2z M178,43.8c-0.6,0-1,0.2-1.4,0.5c-0.4,0.3-0.6,0.8-0.7,1.3h4.2c-0.1-0.5-0.3-1-0.7-1.3
		C179,44,178.5,43.8,178,43.8z M4.4,58.8c0.9,0,1.6,0.2,2.1,0.7c0.5,0.4,0.7,1.1,0.7,2v3.9H6v-0.9c-0.2,0.3-0.5,0.5-0.8,0.7
		c-0.4,0.2-0.8,0.2-1.3,0.2c-0.7,0-1.3-0.2-1.7-0.5c-0.4-0.4-0.6-0.8-0.6-1.4c0-0.6,0.2-1,0.6-1.4c0.4-0.4,1.1-0.5,2-0.5H6v-0.2
		c0-0.5-0.1-0.9-0.4-1.2c-0.3-0.3-0.7-0.4-1.3-0.4c-0.4,0-0.8,0.1-1.1,0.2c-0.4,0.1-0.7,0.3-0.9,0.5l-0.5-0.9
		c0.3-0.3,0.7-0.5,1.2-0.6C3.4,58.9,3.9,58.8,4.4,58.8z M4.1,64.5c0.4,0,0.8-0.1,1.2-0.3C5.6,64,5.8,63.8,6,63.4v-0.9H4.2
		c-1,0-1.5,0.3-1.5,1c0,0.3,0.1,0.6,0.4,0.8C3.3,64.4,3.7,64.5,4.1,64.5z M15.9,64.3v2.5h-1.1v-1.5H9.3v1.5H8.2v-2.5h0.3
		c0.4,0,0.7-0.3,0.9-0.9c0.2-0.6,0.3-1.4,0.3-2.4l0.1-2.2h5v5.5H15.9z M10.8,61.2c0,0.8-0.1,1.5-0.2,2c-0.1,0.5-0.3,0.9-0.6,1.1h3.6
		v-4.4h-2.8L10.8,61.2z M19.7,58.8c0.9,0,1.6,0.2,2.1,0.7c0.5,0.4,0.7,1.1,0.7,2v3.9h-1.1v-0.9c-0.2,0.3-0.5,0.5-0.8,0.7
		c-0.4,0.2-0.8,0.2-1.3,0.2c-0.7,0-1.3-0.2-1.7-0.5c-0.4-0.4-0.6-0.8-0.6-1.4c0-0.6,0.2-1,0.6-1.4c0.4-0.4,1.1-0.5,2-0.5h1.9v-0.2
		c0-0.5-0.1-0.9-0.4-1.2c-0.3-0.3-0.7-0.4-1.3-0.4c-0.4,0-0.8,0.1-1.1,0.2c-0.4,0.1-0.7,0.3-0.9,0.5L17,59.7
		c0.3-0.3,0.7-0.5,1.2-0.6C18.7,58.9,19.2,58.8,19.7,58.8z M19.4,64.5c0.4,0,0.8-0.1,1.2-0.3c0.3-0.2,0.6-0.5,0.7-0.9v-0.9h-1.8
		c-1,0-1.5,0.3-1.5,1c0,0.3,0.1,0.6,0.4,0.8C18.6,64.4,19,64.5,19.4,64.5z M32.1,58.9v6.5H31v-4.7l-2.4,4h-0.5l-2.4-4v4.7h-1.1v-6.5
		h1.2l2.5,4.4l2.6-4.4H32.1z M40.9,64.3v2.5h-1.1v-1.5h-5.4v1.5h-1.1v-2.5h0.3c0.4,0,0.7-0.3,0.9-0.9c0.2-0.6,0.3-1.4,0.3-2.4
		l0.1-2.2h5v5.5H40.9z M35.9,61.2c0,0.8-0.1,1.5-0.2,2c-0.1,0.5-0.3,0.9-0.6,1.1h3.6v-4.4H36L35.9,61.2z M44.8,58.8
		c0.9,0,1.6,0.2,2.1,0.7c0.5,0.4,0.7,1.1,0.7,2v3.9h-1.1v-0.9c-0.2,0.3-0.5,0.5-0.8,0.7c-0.4,0.2-0.8,0.2-1.3,0.2
		c-0.7,0-1.3-0.2-1.7-0.5c-0.4-0.4-0.6-0.8-0.6-1.4c0-0.6,0.2-1,0.6-1.4c0.4-0.4,1.1-0.5,2-0.5h1.9v-0.2c0-0.5-0.1-0.9-0.4-1.2
		c-0.3-0.3-0.7-0.4-1.3-0.4c-0.4,0-0.8,0.1-1.1,0.2c-0.4,0.1-0.7,0.3-0.9,0.5l-0.5-0.9c0.3-0.3,0.7-0.5,1.2-0.6
		C43.8,58.9,44.2,58.8,44.8,58.8z M44.5,64.5c0.4,0,0.8-0.1,1.2-0.3c0.3-0.2,0.6-0.5,0.7-0.9v-0.9h-1.8c-1,0-1.5,0.3-1.5,1
		c0,0.3,0.1,0.6,0.4,0.8C43.7,64.4,44.1,64.5,44.5,64.5z M53.1,58.8c0.6,0,1.2,0.1,1.7,0.4c0.5,0.3,0.9,0.7,1.2,1.2
		c0.3,0.5,0.4,1.1,0.4,1.7c0,0.7-0.1,1.2-0.4,1.7c-0.3,0.5-0.7,0.9-1.2,1.2c-0.5,0.3-1.1,0.4-1.7,0.4c-0.5,0-0.9-0.1-1.3-0.3
		c-0.4-0.2-0.7-0.4-1-0.8v3.4h-1.2v-8.9h1.1v1c0.3-0.4,0.6-0.6,1-0.8C52.2,58.9,52.6,58.8,53.1,58.8z M53,64.4
		c0.4,0,0.8-0.1,1.1-0.3c0.3-0.2,0.6-0.5,0.8-0.8c0.2-0.4,0.3-0.7,0.3-1.2s-0.1-0.8-0.3-1.2c-0.2-0.4-0.4-0.6-0.8-0.8
		c-0.3-0.2-0.7-0.3-1.1-0.3c-0.4,0-0.8,0.1-1.1,0.3c-0.3,0.2-0.6,0.5-0.8,0.8c-0.2,0.3-0.3,0.7-0.3,1.2s0.1,0.8,0.3,1.2
		c0.2,0.3,0.4,0.6,0.8,0.8C52.2,64.3,52.6,64.4,53,64.4z M59.4,59.9v2.2h2.8V63h-2.8v2.4h-1.2V63h-0.8v-0.8h0.8v-3.3H63v1H59.4z
		 M66.7,58.8c0.9,0,1.6,0.2,2.1,0.7c0.5,0.4,0.7,1.1,0.7,2v3.9h-1.1v-0.9c-0.2,0.3-0.5,0.5-0.8,0.7c-0.4,0.2-0.8,0.2-1.3,0.2
		c-0.7,0-1.3-0.2-1.7-0.5c-0.4-0.4-0.6-0.8-0.6-1.4c0-0.6,0.2-1,0.6-1.4c0.4-0.4,1.1-0.5,2-0.5h1.9v-0.2c0-0.5-0.1-0.9-0.4-1.2
		c-0.3-0.3-0.7-0.4-1.3-0.4c-0.4,0-0.8,0.1-1.1,0.2c-0.4,0.1-0.7,0.3-0.9,0.5L64,59.7c0.3-0.3,0.7-0.5,1.2-0.6
		C65.7,58.9,66.2,58.8,66.7,58.8z M66.4,64.5c0.4,0,0.8-0.1,1.2-0.3c0.3-0.2,0.6-0.5,0.7-0.9v-0.9h-1.8c-1,0-1.5,0.3-1.5,1
		c0,0.3,0.1,0.6,0.4,0.8C65.6,64.4,66,64.5,66.4,64.5z M80.8,62.6h-1.3v2.7h-1.2v-2.7h-1.3l-1.8,2.7h-1.4l2.2-3.4l-2.1-3.1h1.2
		l1.7,2.7h1.3v-2.7h1.2v2.7h1.3l1.7-2.7h1.3L81.7,62l2.2,3.3h-1.4L80.8,62.6z M87.4,58.8c0.9,0,1.6,0.2,2.1,0.7
		c0.5,0.4,0.7,1.1,0.7,2v3.9h-1.1v-0.9c-0.2,0.3-0.5,0.5-0.8,0.7c-0.4,0.2-0.8,0.2-1.3,0.2c-0.7,0-1.3-0.2-1.7-0.5
		c-0.4-0.4-0.6-0.8-0.6-1.4c0-0.6,0.2-1,0.6-1.4c0.4-0.4,1.1-0.5,2-0.5H89v-0.2c0-0.5-0.1-0.9-0.4-1.2c-0.3-0.3-0.7-0.4-1.3-0.4
		c-0.4,0-0.8,0.1-1.1,0.2c-0.4,0.1-0.7,0.3-0.9,0.5l-0.5-0.9c0.3-0.3,0.7-0.5,1.2-0.6C86.4,58.9,86.9,58.8,87.4,58.8z M87.2,64.5
		c0.4,0,0.8-0.1,1.2-0.3c0.3-0.2,0.6-0.5,0.7-0.9v-0.9h-1.8c-1,0-1.5,0.3-1.5,1c0,0.3,0.1,0.6,0.4,0.8
		C86.4,64.4,86.7,64.5,87.2,64.5z M94.8,62.6h-1.3v2.7h-1.2v-6.5h1.2v2.7h1.4l2.1-2.7h1.3L95.8,62l2.6,3.4H97L94.8,62.6z M98.9,64.4
		v2.4h-1.1v-1.4H97v-1H98.9z M105.6,58.9v6.5h-1.2v-5.5h-3.7v5.5h-1.2v-6.5H105.6z M110.2,58.8c0.9,0,1.6,0.2,2.1,0.7
		c0.5,0.4,0.7,1.1,0.7,2v3.9h-1.1v-0.9c-0.2,0.3-0.5,0.5-0.8,0.7c-0.4,0.2-0.8,0.2-1.3,0.2c-0.7,0-1.3-0.2-1.7-0.5
		c-0.4-0.4-0.6-0.8-0.6-1.4c0-0.6,0.2-1,0.6-1.4c0.4-0.4,1.1-0.5,2-0.5h1.9v-0.2c0-0.5-0.1-0.9-0.4-1.2c-0.3-0.3-0.7-0.4-1.3-0.4
		c-0.4,0-0.8,0.1-1.1,0.2c-0.4,0.1-0.7,0.3-0.9,0.5l-0.5-0.9c0.3-0.3,0.7-0.5,1.2-0.6C109.2,58.9,109.7,58.8,110.2,58.8z
		 M109.9,64.5c0.4,0,0.8-0.1,1.2-0.3c0.3-0.2,0.6-0.5,0.7-0.9v-0.9H110c-1,0-1.5,0.3-1.5,1c0,0.3,0.1,0.6,0.4,0.8
		C109.1,64.4,109.5,64.5,109.9,64.5z M120.9,58.9l-3.1,7.1c-0.3,0.7-0.6,1.1-1,1.4c-0.4,0.3-0.8,0.4-1.3,0.4c-0.3,0-0.6-0.1-0.9-0.2
		c-0.3-0.1-0.5-0.2-0.7-0.4l0.5-0.9c0.3,0.3,0.7,0.5,1.2,0.5c0.3,0,0.5-0.1,0.7-0.2c0.2-0.1,0.4-0.4,0.5-0.8l0.2-0.5l-2.9-6.5h1.2
		l2.3,5.2l2.2-5.2H120.9z M125,61.1c0.8,0,1.4,0.2,1.9,0.6c0.4,0.4,0.6,0.9,0.6,1.6c0,0.7-0.2,1.2-0.7,1.6c-0.5,0.4-1.1,0.6-2,0.6
		l-2.7,0v-6.5h1.2v2.2L125,61.1z M128.5,58.9h1.2v6.5h-1.2V58.9z M124.7,64.5c0.5,0,0.9-0.1,1.2-0.3c0.3-0.2,0.4-0.5,0.4-1
		c0-0.4-0.1-0.7-0.4-0.9c-0.3-0.2-0.7-0.3-1.2-0.3l-1.5,0v2.5L124.7,64.5z M132.2,63.8c0.2,0,0.4,0.1,0.6,0.2
		c0.2,0.2,0.2,0.4,0.2,0.6c0,0.1,0,0.2,0,0.4c0,0.1-0.1,0.3-0.2,0.5l-0.6,1.7h-0.8l0.5-1.8c-0.2-0.1-0.3-0.2-0.4-0.3
		c-0.1-0.1-0.1-0.3-0.1-0.5c0-0.2,0.1-0.4,0.2-0.6C131.8,63.8,132,63.8,132.2,63.8z M143.9,62.6h-1.3v2.7h-1.2v-2.7h-1.3l-1.8,2.7
		H137l2.2-3.4l-2.1-3.1h1.2l1.7,2.7h1.3v-2.7h1.2v2.7h1.3l1.7-2.7h1.3l-2.1,3.1l2.2,3.3h-1.4L143.9,62.6z M151,65.4v2.3h-1.2v-2.3
		l-2.8-6.5h1.2l2.2,5.2l2.3-5.2h1.1L151,65.4z M157.5,62.6h-1.3v2.7H155v-6.5h1.2v2.7h1.4l2.1-2.7h1.3l-2.5,3.1l2.6,3.4h-1.4
		L157.5,62.6z M167.1,59.9h-2.4v5.5h-1.2v-5.5h-2.4v-1h5.9V59.9z M168.3,58.9h1.2v6.5h-1.2V58.9z M168.8,57.6
		c-0.2,0-0.4-0.1-0.6-0.2c-0.1-0.1-0.2-0.3-0.2-0.5c0-0.2,0.1-0.4,0.2-0.5c0.2-0.2,0.3-0.2,0.6-0.2c0.2,0,0.4,0.1,0.6,0.2
		c0.2,0.1,0.2,0.3,0.2,0.5c0,0.2-0.1,0.4-0.2,0.6C169.3,57.6,169.1,57.6,168.8,57.6z M177.3,58.9v6.5h-1.2v-5.5h-2.8l-0.1,1.4
		c0,0.9-0.1,1.6-0.2,2.2c-0.1,0.6-0.3,1-0.6,1.4c-0.3,0.4-0.6,0.5-1.1,0.5c-0.2,0-0.5,0-0.7-0.1l0.1-1c0.1,0,0.2,0,0.3,0
		c0.3,0,0.6-0.1,0.7-0.4c0.2-0.3,0.3-0.6,0.3-1c0-0.4,0.1-0.9,0.1-1.7l0.1-2.4H177.3z M179.6,58.9h1.2v6.5h-1.2V58.9z M180.1,57.6
		c-0.2,0-0.4-0.1-0.6-0.2c-0.1-0.1-0.2-0.3-0.2-0.5c0-0.2,0.1-0.4,0.2-0.5c0.2-0.2,0.3-0.2,0.6-0.2c0.2,0,0.4,0.1,0.6,0.2
		c0.2,0.1,0.2,0.3,0.2,0.5c0,0.2-0.1,0.4-0.2,0.6C180.6,57.6,180.4,57.6,180.1,57.6z M185.5,62.6h-1.3v2.7H183v-6.5h1.2v2.7h1.4
		l2.1-2.7h1.3l-2.5,3.1l2.6,3.4h-1.4L185.5,62.6z M190.6,63.8c0.2,0,0.4,0.1,0.6,0.2c0.2,0.2,0.2,0.4,0.2,0.6c0,0.1,0,0.2,0,0.4
		c0,0.1-0.1,0.3-0.2,0.5l-0.6,1.7h-0.8l0.5-1.8c-0.2-0.1-0.3-0.2-0.4-0.3c-0.1-0.1-0.1-0.3-0.1-0.5c0-0.2,0.1-0.4,0.2-0.6
		C190.2,63.8,190.4,63.8,190.6,63.8z M7.9,78.2c0,0.1,0,0.2,0,0.4H2.6c0.1,0.6,0.3,1,0.7,1.4c0.4,0.3,1,0.5,1.6,0.5
		c0.8,0,1.4-0.3,1.9-0.8l0.6,0.8c-0.3,0.3-0.7,0.6-1.1,0.8c-0.4,0.2-0.9,0.3-1.5,0.3c-0.7,0-1.3-0.1-1.8-0.4
		c-0.5-0.3-0.9-0.7-1.2-1.2c-0.3-0.5-0.4-1.1-0.4-1.7c0-0.6,0.1-1.2,0.4-1.7c0.3-0.5,0.7-0.9,1.2-1.2c0.5-0.3,1.1-0.4,1.7-0.4
		c0.6,0,1.2,0.1,1.7,0.4c0.5,0.3,0.9,0.7,1.1,1.2C7.8,76.9,7.9,77.5,7.9,78.2z M4.7,75.8c-0.6,0-1,0.2-1.4,0.5
		c-0.4,0.3-0.6,0.8-0.7,1.3h4.2c-0.1-0.5-0.3-1-0.7-1.3C5.7,76,5.3,75.8,4.7,75.8z M17.2,74.9v6.5h-1.1v-4.7l-2.4,4h-0.5l-2.4-4v4.7
		H9.7v-6.5H11l2.5,4.4l2.6-4.4H17.2z M28.7,74.9v6.5h-9.2v-6.5h1.2v5.5h2.9v-5.5h1.2v5.5h2.8v-5.5H28.7z M36.9,78.2
		c0,0.1,0,0.2,0,0.4h-5.3c0.1,0.6,0.3,1,0.7,1.4c0.4,0.3,1,0.5,1.6,0.5c0.8,0,1.4-0.3,1.9-0.8l0.6,0.8c-0.3,0.3-0.7,0.6-1.1,0.8
		c-0.4,0.2-0.9,0.3-1.5,0.3c-0.7,0-1.3-0.1-1.8-0.4c-0.5-0.3-0.9-0.7-1.2-1.2c-0.3-0.5-0.4-1.1-0.4-1.7c0-0.6,0.1-1.2,0.4-1.7
		c0.3-0.5,0.7-0.9,1.2-1.2c0.5-0.3,1.1-0.4,1.7-0.4s1.2,0.1,1.7,0.4c0.5,0.3,0.9,0.7,1.1,1.2C36.7,76.9,36.9,77.5,36.9,78.2z
		 M33.7,75.8c-0.6,0-1,0.2-1.4,0.5c-0.4,0.3-0.6,0.8-0.7,1.3h4.2c-0.1-0.5-0.3-1-0.7-1.3C34.7,76,34.2,75.8,33.7,75.8z M41.2,78.6
		h-1.3v2.7h-1.2v-6.5h1.2v2.7h1.4l2.1-2.7h1.3L42.1,78l2.6,3.4h-1.4L41.2,78.6z M55.1,78.2c0,0.1,0,0.2,0,0.4h-5.3
		c0.1,0.6,0.3,1,0.7,1.4c0.4,0.3,1,0.5,1.6,0.5c0.8,0,1.4-0.3,1.9-0.8l0.6,0.8c-0.3,0.3-0.7,0.6-1.1,0.8c-0.4,0.2-0.9,0.3-1.5,0.3
		c-0.7,0-1.3-0.1-1.8-0.4c-0.5-0.3-0.9-0.7-1.2-1.2c-0.3-0.5-0.4-1.1-0.4-1.7c0-0.6,0.1-1.2,0.4-1.7c0.3-0.5,0.7-0.9,1.2-1.2
		c0.5-0.3,1.1-0.4,1.7-0.4c0.6,0,1.2,0.1,1.7,0.4c0.5,0.3,0.9,0.7,1.1,1.2C55,76.9,55.1,77.5,55.1,78.2z M51.9,75.8
		c-0.6,0-1,0.2-1.4,0.5c-0.4,0.3-0.6,0.8-0.7,1.3H54c-0.1-0.5-0.3-1-0.7-1.3C53,76,52.5,75.8,51.9,75.8z M64.4,74.9v6.5h-1.1v-4.7
		l-2.4,4h-0.5l-2.4-4v4.7H57v-6.5h1.2l2.5,4.4l2.6-4.4H64.4z M66.7,74.9h1.2v6.5h-1.2V74.9z M67.3,73.6c-0.2,0-0.4-0.1-0.6-0.2
		c-0.1-0.1-0.2-0.3-0.2-0.5c0-0.2,0.1-0.4,0.2-0.5c0.2-0.2,0.3-0.2,0.6-0.2c0.2,0,0.4,0.1,0.6,0.2c0.2,0.1,0.2,0.3,0.2,0.5
		c0,0.2-0.1,0.4-0.2,0.6C67.7,73.6,67.5,73.6,67.3,73.6z M73.6,78c0.4,0.1,0.8,0.3,1,0.6c0.2,0.3,0.4,0.6,0.4,0.9
		c0,0.4-0.1,0.7-0.4,1c-0.3,0.3-0.6,0.5-1.1,0.7c-0.5,0.2-1,0.2-1.5,0.2c-0.5,0-1-0.1-1.4-0.2c-0.5-0.1-0.9-0.3-1.2-0.6l0.4-0.9
		c0.3,0.2,0.7,0.4,1.1,0.5c0.4,0.1,0.8,0.2,1.2,0.2c0.6,0,1-0.1,1.3-0.3c0.3-0.2,0.5-0.5,0.5-0.8c0-0.3-0.1-0.5-0.4-0.7
		c-0.3-0.2-0.6-0.2-1.1-0.2H71v-0.8h1.1c0.4,0,0.8-0.1,1-0.2c0.3-0.2,0.4-0.4,0.4-0.6c0-0.3-0.2-0.5-0.5-0.7
		c-0.3-0.2-0.7-0.2-1.2-0.2c-0.6,0-1.3,0.2-2,0.5l-0.3-0.9c0.8-0.4,1.6-0.6,2.5-0.6c0.5,0,1,0.1,1.4,0.2c0.4,0.1,0.7,0.4,1,0.6
		s0.4,0.6,0.4,0.9c0,0.3-0.1,0.6-0.3,0.9C74.2,77.7,73.9,77.9,73.6,78z M82.5,74.9L79.4,82c-0.3,0.7-0.6,1.1-1,1.4
		c-0.4,0.3-0.8,0.4-1.3,0.4c-0.3,0-0.6-0.1-0.9-0.2c-0.3-0.1-0.5-0.2-0.7-0.4l0.5-0.9c0.3,0.3,0.7,0.5,1.2,0.5
		c0.3,0,0.5-0.1,0.7-0.2c0.2-0.1,0.4-0.4,0.5-0.8l0.2-0.5l-2.9-6.5h1.2l2.3,5.2l2.2-5.2H82.5z M83.6,79.8c0.2,0,0.4,0.1,0.6,0.2
		c0.2,0.2,0.2,0.4,0.2,0.6c0,0.1,0,0.2,0,0.4c0,0.1-0.1,0.3-0.2,0.5l-0.6,1.7h-0.8l0.5-1.8c-0.2-0.1-0.3-0.2-0.4-0.3
		c-0.1-0.1-0.1-0.3-0.1-0.5c0-0.2,0.1-0.4,0.2-0.6C83.1,79.8,83.3,79.8,83.6,79.8z M94.2,75.9h-2.4v5.5h-1.2v-5.5h-2.4v-1h5.9V75.9z
		 M98.8,74.8c0.6,0,1.2,0.1,1.7,0.4c0.5,0.3,0.9,0.7,1.2,1.2c0.3,0.5,0.4,1.1,0.4,1.7s-0.1,1.2-0.4,1.7c-0.3,0.5-0.7,0.9-1.2,1.2
		c-0.5,0.3-1.1,0.4-1.7,0.4c-0.5,0-0.9-0.1-1.3-0.3c-0.4-0.2-0.7-0.4-1-0.8v3.4h-1.2v-8.9h1.1v1c0.3-0.4,0.6-0.6,1-0.8
		C97.9,74.9,98.3,74.8,98.8,74.8z M98.7,80.4c0.4,0,0.8-0.1,1.1-0.3c0.3-0.2,0.6-0.5,0.8-0.8c0.2-0.4,0.3-0.7,0.3-1.2
		c0-0.4-0.1-0.8-0.3-1.2c-0.2-0.4-0.4-0.6-0.8-0.8c-0.3-0.2-0.7-0.3-1.1-0.3c-0.4,0-0.8,0.1-1.1,0.3c-0.3,0.2-0.6,0.5-0.8,0.8
		c-0.2,0.3-0.3,0.7-0.3,1.2c0,0.4,0.1,0.8,0.3,1.2c0.2,0.3,0.4,0.6,0.8,0.8C97.9,80.3,98.3,80.4,98.7,80.4z M106.6,81.4
		c-0.6,0-1.2-0.1-1.7-0.4c-0.5-0.3-0.9-0.7-1.2-1.2c-0.3-0.5-0.4-1.1-0.4-1.7c0-0.6,0.1-1.2,0.4-1.7c0.3-0.5,0.7-0.9,1.2-1.2
		c0.5-0.3,1.1-0.4,1.7-0.4c0.6,0,1.2,0.1,1.7,0.4c0.5,0.3,0.9,0.7,1.2,1.2c0.3,0.5,0.4,1.1,0.4,1.7c0,0.6-0.1,1.2-0.4,1.7
		c-0.3,0.5-0.7,0.9-1.2,1.2C107.8,81.3,107.2,81.4,106.6,81.4z M106.6,80.4c0.4,0,0.8-0.1,1.1-0.3c0.3-0.2,0.6-0.5,0.8-0.8
		c0.2-0.4,0.3-0.7,0.3-1.2c0-0.4-0.1-0.8-0.3-1.2c-0.2-0.4-0.4-0.6-0.8-0.8c-0.3-0.2-0.7-0.3-1.1-0.3c-0.4,0-0.8,0.1-1.1,0.3
		c-0.3,0.2-0.6,0.5-0.8,0.8c-0.2,0.3-0.3,0.7-0.3,1.2c0,0.4,0.1,0.8,0.3,1.2c0.2,0.3,0.5,0.6,0.8,0.8
		C105.8,80.3,106.2,80.4,106.6,80.4z M119.1,74.9v6.5H118v-4.7l-2.4,4h-0.5l-2.4-4v4.7h-1.1v-6.5h1.2l2.5,4.4l2.6-4.4H119.1z
		 M124.7,75.1c0.6,0,1.1,0.1,1.6,0.4c0.5,0.3,0.8,0.6,1.1,1.1c0.3,0.5,0.4,1,0.4,1.6c0,0.6-0.1,1.2-0.4,1.7
		c-0.3,0.5-0.7,0.9-1.2,1.1c-0.5,0.3-1.1,0.4-1.7,0.4c-1.1,0-2-0.4-2.6-1.1c-0.6-0.8-0.9-1.8-0.9-3.2c0-1.3,0.3-2.4,0.8-3.1
		c0.5-0.8,1.4-1.3,2.5-1.5l3-0.7l0.2,1.1l-2.7,0.6c-0.8,0.2-1.5,0.5-1.9,1c-0.4,0.4-0.7,1.1-0.7,1.9c0.3-0.4,0.6-0.7,1.1-1
		C123.6,75.2,124.1,75.1,124.7,75.1z M124.5,80.5c0.4,0,0.8-0.1,1.1-0.3c0.3-0.2,0.6-0.4,0.8-0.8c0.2-0.3,0.3-0.7,0.3-1.1
		c0-0.6-0.2-1.2-0.6-1.6c-0.4-0.4-0.9-0.6-1.5-0.6c-0.6,0-1.2,0.2-1.6,0.6c-0.4,0.4-0.6,0.9-0.6,1.6c0,0.4,0.1,0.8,0.3,1.1
		c0.2,0.3,0.4,0.6,0.8,0.8C123.7,80.4,124.1,80.5,124.5,80.5z M134.1,75.9h-2.4v5.5h-1.2v-5.5h-2.4v-1h5.9V75.9z M137.6,74.8
		c0.9,0,1.6,0.2,2.1,0.7c0.5,0.4,0.7,1.1,0.7,2v3.9h-1.1v-0.9c-0.2,0.3-0.5,0.5-0.8,0.7c-0.4,0.2-0.8,0.2-1.3,0.2
		c-0.7,0-1.3-0.2-1.7-0.5c-0.4-0.4-0.6-0.8-0.6-1.4s0.2-1,0.6-1.4c0.4-0.4,1.1-0.5,2-0.5h1.9v-0.2c0-0.5-0.1-0.9-0.4-1.2
		c-0.3-0.3-0.7-0.4-1.3-0.4c-0.4,0-0.8,0.1-1.1,0.2c-0.4,0.1-0.7,0.3-0.9,0.5l-0.5-0.9c0.3-0.3,0.7-0.5,1.2-0.6
		C136.6,74.9,137.1,74.8,137.6,74.8z M137.3,80.5c0.4,0,0.8-0.1,1.2-0.3c0.3-0.2,0.6-0.5,0.7-0.9v-0.9h-1.8c-1,0-1.5,0.3-1.5,1
		c0,0.3,0.1,0.6,0.4,0.8C136.5,80.4,136.9,80.5,137.3,80.5z M145.9,74.8c0.6,0,1.2,0.1,1.7,0.4c0.5,0.3,0.9,0.7,1.2,1.2
		c0.3,0.5,0.4,1.1,0.4,1.7s-0.1,1.2-0.4,1.7c-0.3,0.5-0.7,0.9-1.2,1.2c-0.5,0.3-1.1,0.4-1.7,0.4c-0.5,0-0.9-0.1-1.3-0.3
		c-0.4-0.2-0.7-0.4-1-0.8v3.4h-1.2v-8.9h1.1v1c0.3-0.4,0.6-0.6,1-0.8C145,74.9,145.4,74.8,145.9,74.8z M145.8,80.4
		c0.4,0,0.8-0.1,1.1-0.3c0.3-0.2,0.6-0.5,0.8-0.8c0.2-0.4,0.3-0.7,0.3-1.2c0-0.4-0.1-0.8-0.3-1.2c-0.2-0.4-0.4-0.6-0.8-0.8
		c-0.3-0.2-0.7-0.3-1.1-0.3c-0.4,0-0.8,0.1-1.1,0.3c-0.3,0.2-0.6,0.5-0.8,0.8c-0.2,0.3-0.3,0.7-0.3,1.2c0,0.4,0.1,0.8,0.3,1.2
		c0.2,0.3,0.4,0.6,0.8,0.8C145,80.3,145.4,80.4,145.8,80.4z M157.4,80.3v2.5h-1.1v-1.5h-5.4v1.5h-1.1v-2.5h0.3
		c0.4,0,0.7-0.3,0.9-0.9c0.2-0.6,0.3-1.4,0.3-2.4l0.1-2.2h5v5.5H157.4z M152.4,77.2c0,0.8-0.1,1.5-0.2,2c-0.1,0.5-0.3,0.9-0.6,1.1
		h3.6v-4.4h-2.8L152.4,77.2z M161.9,77.1c0.8,0,1.4,0.2,1.9,0.6c0.4,0.4,0.6,0.9,0.6,1.6c0,0.7-0.2,1.2-0.7,1.6
		c-0.5,0.4-1.1,0.6-2,0.6l-2.7,0v-6.5h1.2v2.2L161.9,77.1z M165.4,74.9h1.2v6.5h-1.2V74.9z M161.6,80.5c0.5,0,0.9-0.1,1.2-0.3
		c0.3-0.2,0.4-0.5,0.4-1c0-0.4-0.1-0.7-0.4-0.9c-0.3-0.2-0.7-0.3-1.2-0.3l-1.5,0v2.5L161.6,80.5z M168.8,74.9h1.2v2.8h3.7v-2.8h1.2
		v6.5h-1.2v-2.7H170v2.7h-1.2V74.9z M175.9,80.3v2.4h-1.1v-1.4h-1.1v-1H175.9z M6.9,91.9H4.5v5.5H3.3v-5.5H1v-1h5.9V91.9z
		 M11.1,97.4v2.3H9.9v-2.3l-2.8-6.5h1.2l2.2,5.2l2.3-5.2h1.1L11.1,97.4z M18.5,94c0.4,0.1,0.8,0.3,1,0.6c0.2,0.3,0.4,0.6,0.4,0.9
		c0,0.4-0.1,0.7-0.4,1c-0.3,0.3-0.6,0.5-1.1,0.7c-0.5,0.2-1,0.2-1.5,0.2c-0.5,0-1-0.1-1.4-0.2c-0.5-0.1-0.9-0.3-1.2-0.6l0.4-0.9
		c0.3,0.2,0.7,0.4,1.1,0.5c0.4,0.1,0.8,0.2,1.2,0.2c0.6,0,1-0.1,1.3-0.3c0.3-0.2,0.5-0.5,0.5-0.8c0-0.3-0.1-0.5-0.4-0.7
		c-0.3-0.2-0.6-0.2-1.1-0.2h-1.2v-0.8H17c0.4,0,0.8-0.1,1-0.2c0.3-0.2,0.4-0.4,0.4-0.6c0-0.3-0.2-0.5-0.5-0.7
		c-0.3-0.2-0.7-0.2-1.2-0.2c-0.6,0-1.3,0.2-2,0.5l-0.3-0.9c0.8-0.4,1.6-0.6,2.5-0.6c0.5,0,1,0.1,1.4,0.2c0.4,0.1,0.7,0.4,1,0.6
		c0.2,0.3,0.4,0.6,0.4,0.9c0,0.3-0.1,0.6-0.3,0.9C19.1,93.7,18.9,93.9,18.5,94z M21.6,90.9h1.2v6.5h-1.2V90.9z M22.2,89.6
		c-0.2,0-0.4-0.1-0.6-0.2c-0.1-0.1-0.2-0.3-0.2-0.5c0-0.2,0.1-0.4,0.2-0.5c0.2-0.2,0.3-0.2,0.6-0.2c0.2,0,0.4,0.1,0.6,0.2
		c0.2,0.1,0.2,0.3,0.2,0.5c0,0.2-0.1,0.4-0.2,0.6C22.6,89.6,22.5,89.6,22.2,89.6z M30.7,90.9v6.5h-1.2v-5.5h-2.8l-0.1,1.4
		c0,0.9-0.1,1.6-0.2,2.2c-0.1,0.6-0.3,1-0.6,1.4c-0.3,0.4-0.6,0.5-1.1,0.5c-0.2,0-0.5,0-0.7-0.1l0.1-1c0.1,0,0.2,0,0.3,0
		c0.3,0,0.6-0.1,0.7-0.4c0.2-0.3,0.3-0.6,0.3-1c0-0.4,0.1-0.9,0.1-1.7l0.1-2.4H30.7z M38.7,90.9L35.6,98c-0.3,0.7-0.6,1.1-1,1.4
		c-0.4,0.3-0.8,0.4-1.3,0.4c-0.3,0-0.6-0.1-0.9-0.2c-0.3-0.1-0.5-0.2-0.7-0.4l0.5-0.9c0.3,0.3,0.7,0.5,1.2,0.5
		c0.3,0,0.5-0.1,0.7-0.2c0.2-0.1,0.4-0.4,0.5-0.8l0.2-0.5l-2.9-6.5h1.2l2.3,5.2l2.2-5.2H38.7z M39.9,90.9h1.2v6.5h-1.2V90.9z
		 M40.5,89.6c-0.2,0-0.4-0.1-0.6-0.2c-0.1-0.1-0.2-0.3-0.2-0.5c0-0.2,0.1-0.4,0.2-0.5c0.2-0.2,0.3-0.2,0.6-0.2s0.4,0.1,0.6,0.2
		c0.2,0.1,0.2,0.3,0.2,0.5c0,0.2-0.1,0.4-0.2,0.6C40.9,89.6,40.7,89.6,40.5,89.6z M43.4,90.9h1.2v2.8h3.7v-2.8h1.2v6.5h-1.2v-2.7
		h-3.7v2.7h-1.2V90.9z M57.6,94.2c0,0.1,0,0.2,0,0.4h-5.3c0.1,0.6,0.3,1,0.7,1.4c0.4,0.3,1,0.5,1.6,0.5c0.8,0,1.4-0.3,1.9-0.8
		l0.6,0.8c-0.3,0.3-0.7,0.6-1.1,0.8c-0.4,0.2-0.9,0.3-1.5,0.3c-0.7,0-1.3-0.1-1.8-0.4c-0.5-0.3-0.9-0.7-1.2-1.2
		c-0.3-0.5-0.4-1.1-0.4-1.7c0-0.6,0.1-1.2,0.4-1.7c0.3-0.5,0.7-0.9,1.2-1.2c0.5-0.3,1.1-0.4,1.7-0.4c0.6,0,1.2,0.1,1.7,0.4
		c0.5,0.3,0.9,0.7,1.1,1.2C57.4,92.9,57.6,93.5,57.6,94.2z M54.4,91.8c-0.6,0-1,0.2-1.4,0.5c-0.4,0.3-0.6,0.8-0.7,1.3h4.2
		c-0.1-0.5-0.3-1-0.7-1.3C55.4,92,54.9,91.8,54.4,91.8z M68.6,94.6h-1.3v2.7h-1.2v-2.7h-1.3l-1.8,2.7h-1.4l2.2-3.4l-2.1-3.1h1.2
		l1.7,2.7h1.3v-2.7h1.2v2.7h1.3l1.7-2.7h1.3L69.5,94l2.2,3.3h-1.4L68.6,94.6z M75.6,97.4c-0.6,0-1.2-0.1-1.7-0.4
		c-0.5-0.3-0.9-0.7-1.2-1.2c-0.3-0.5-0.4-1.1-0.4-1.7c0-0.6,0.1-1.2,0.4-1.7c0.3-0.5,0.7-0.9,1.2-1.2c0.5-0.3,1.1-0.4,1.7-0.4
		c0.6,0,1.2,0.1,1.7,0.4c0.5,0.3,0.9,0.7,1.2,1.2c0.3,0.5,0.4,1.1,0.4,1.7c0,0.6-0.1,1.2-0.4,1.7c-0.3,0.5-0.7,0.9-1.2,1.2
		C76.8,97.3,76.3,97.4,75.6,97.4z M75.6,96.4c0.4,0,0.8-0.1,1.1-0.3c0.3-0.2,0.6-0.5,0.8-0.8c0.2-0.4,0.3-0.7,0.3-1.2
		c0-0.4-0.1-0.8-0.3-1.2c-0.2-0.4-0.4-0.6-0.8-0.8c-0.3-0.2-0.7-0.3-1.1-0.3s-0.8,0.1-1.1,0.3c-0.3,0.2-0.6,0.5-0.8,0.8
		c-0.2,0.3-0.3,0.7-0.3,1.2c0,0.4,0.1,0.8,0.3,1.2c0.2,0.3,0.5,0.6,0.8,0.8C74.8,96.3,75.2,96.4,75.6,96.4z M82,91.9v2.2h2.8V95H82
		v2.4h-1.2V95h-0.8v-0.8h0.8v-3.3h4.8v1H82z M89.3,90.8c0.9,0,1.6,0.2,2.1,0.7c0.5,0.4,0.7,1.1,0.7,2v3.9h-1.1v-0.9
		c-0.2,0.3-0.5,0.5-0.8,0.7c-0.4,0.2-0.8,0.2-1.3,0.2c-0.7,0-1.3-0.2-1.7-0.5c-0.4-0.4-0.6-0.8-0.6-1.4s0.2-1,0.6-1.4
		c0.4-0.4,1.1-0.5,2-0.5h1.9v-0.2c0-0.5-0.1-0.9-0.4-1.2c-0.3-0.3-0.7-0.4-1.3-0.4c-0.4,0-0.8,0.1-1.1,0.2c-0.4,0.1-0.7,0.3-0.9,0.5
		l-0.5-0.9c0.3-0.3,0.7-0.5,1.2-0.6C88.3,90.9,88.8,90.8,89.3,90.8z M89,96.5c0.4,0,0.8-0.1,1.2-0.3c0.3-0.2,0.6-0.5,0.7-0.9v-0.9
		h-1.8c-1,0-1.5,0.3-1.5,1c0,0.3,0.1,0.6,0.4,0.8C88.2,96.4,88.6,96.5,89,96.5z M97.6,90.8c0.6,0,1.2,0.1,1.7,0.4
		c0.5,0.3,0.9,0.7,1.2,1.2c0.3,0.5,0.4,1.1,0.4,1.7s-0.1,1.2-0.4,1.7c-0.3,0.5-0.7,0.9-1.2,1.2c-0.5,0.3-1.1,0.4-1.7,0.4
		c-0.5,0-0.9-0.1-1.3-0.3c-0.4-0.2-0.7-0.4-1-0.8v3.4h-1.2v-8.9h1.1v1c0.3-0.4,0.6-0.6,1-0.8C96.7,90.9,97.1,90.8,97.6,90.8z
		 M97.5,96.4c0.4,0,0.8-0.1,1.1-0.3c0.3-0.2,0.6-0.5,0.8-0.8c0.2-0.4,0.3-0.7,0.3-1.2c0-0.4-0.1-0.8-0.3-1.2
		c-0.2-0.4-0.4-0.6-0.8-0.8c-0.3-0.2-0.7-0.3-1.1-0.3c-0.4,0-0.8,0.1-1.1,0.3c-0.3,0.2-0.6,0.5-0.8,0.8c-0.2,0.3-0.3,0.7-0.3,1.2
		c0,0.4,0.1,0.8,0.3,1.2c0.2,0.3,0.4,0.6,0.8,0.8C96.7,96.3,97.1,96.4,97.5,96.4z M105.5,93.1c0.8,0,1.4,0.2,1.9,0.6
		c0.4,0.4,0.6,0.9,0.6,1.6c0,0.7-0.2,1.2-0.7,1.6c-0.5,0.4-1.1,0.6-2,0.6l-2.7,0v-6.5h1.2v2.2L105.5,93.1z M109,90.9h1.2v6.5H109
		V90.9z M105.2,96.5c0.5,0,0.9-0.1,1.2-0.3c0.3-0.2,0.4-0.5,0.4-1c0-0.4-0.1-0.7-0.4-0.9c-0.3-0.2-0.7-0.3-1.2-0.3l-1.5,0v2.5
		L105.2,96.5z M119,91.1c0.6,0,1.1,0.1,1.6,0.4c0.5,0.3,0.8,0.6,1.1,1.1c0.3,0.5,0.4,1,0.4,1.6c0,0.6-0.1,1.2-0.4,1.7
		c-0.3,0.5-0.7,0.9-1.2,1.1c-0.5,0.3-1.1,0.4-1.7,0.4c-1.1,0-2-0.4-2.6-1.1c-0.6-0.8-0.9-1.8-0.9-3.2c0-1.3,0.3-2.4,0.8-3.1
		c0.5-0.8,1.4-1.3,2.5-1.5l3-0.7l0.2,1.1l-2.7,0.6c-0.8,0.2-1.5,0.5-1.9,1c-0.4,0.4-0.7,1.1-0.7,1.9c0.3-0.4,0.6-0.7,1.1-1
		C118,91.2,118.5,91.1,119,91.1z M118.8,96.5c0.4,0,0.8-0.1,1.1-0.3c0.3-0.2,0.6-0.4,0.8-0.8c0.2-0.3,0.3-0.7,0.3-1.1
		c0-0.6-0.2-1.2-0.6-1.6c-0.4-0.4-0.9-0.6-1.5-0.6c-0.6,0-1.2,0.2-1.6,0.6c-0.4,0.4-0.6,0.9-0.6,1.6c0,0.4,0.1,0.8,0.3,1.1
		c0.2,0.3,0.4,0.6,0.8,0.8C118.1,96.4,118.4,96.5,118.8,96.5z M129.7,94.2c0,0.1,0,0.2,0,0.4h-5.3c0.1,0.6,0.3,1,0.7,1.4
		c0.4,0.3,1,0.5,1.6,0.5c0.8,0,1.4-0.3,1.9-0.8l0.6,0.8c-0.3,0.3-0.7,0.6-1.1,0.8c-0.4,0.2-0.9,0.3-1.5,0.3c-0.7,0-1.3-0.1-1.8-0.4
		c-0.5-0.3-0.9-0.7-1.2-1.2c-0.3-0.5-0.4-1.1-0.4-1.7c0-0.6,0.1-1.2,0.4-1.7c0.3-0.5,0.7-0.9,1.2-1.2c0.5-0.3,1.1-0.4,1.7-0.4
		c0.6,0,1.2,0.1,1.7,0.4c0.5,0.3,0.9,0.7,1.1,1.2C129.5,92.9,129.7,93.5,129.7,94.2z M126.5,91.8c-0.6,0-1,0.2-1.4,0.5
		c-0.4,0.3-0.6,0.8-0.7,1.3h4.2c-0.1-0.5-0.3-1-0.7-1.3C127.5,92,127,91.8,126.5,91.8z M131.5,90.9h1.2v4.7l4-4.7h1.1v6.5h-1.2v-4.7
		l-4,4.7h-1.1V90.9z M134.5,90c-0.6,0-1.1-0.1-1.4-0.4c-0.3-0.3-0.5-0.7-0.5-1.3h0.8c0,0.3,0.1,0.5,0.3,0.7c0.2,0.2,0.5,0.3,0.8,0.3
		s0.6-0.1,0.8-0.3c0.2-0.2,0.3-0.4,0.3-0.7h0.8c0,0.5-0.2,1-0.5,1.3C135.6,89.9,135.1,90,134.5,90z M140,90.9h1.2v6.5H140V90.9z
		 M140.6,89.6c-0.2,0-0.4-0.1-0.6-0.2c-0.1-0.1-0.2-0.3-0.2-0.5c0-0.2,0.1-0.4,0.2-0.5c0.2-0.2,0.3-0.2,0.6-0.2
		c0.2,0,0.4,0.1,0.6,0.2c0.2,0.1,0.2,0.3,0.2,0.5c0,0.2-0.1,0.4-0.2,0.6C141,89.6,140.8,89.6,140.6,89.6z M150.9,90.9v6.5h-1.1v-4.7
		l-2.4,4h-0.5l-2.4-4v4.7h-1.1v-6.5h1.2l2.5,4.4l2.6-4.4H150.9z M159.8,96.3v2.5h-1.1v-1.5h-5.4v1.5h-1.1v-2.5h0.3
		c0.4,0,0.7-0.3,0.9-0.9c0.2-0.6,0.3-1.4,0.3-2.4l0.1-2.2h5v5.5H159.8z M154.8,93.2c0,0.8-0.1,1.5-0.2,2c-0.1,0.5-0.3,0.9-0.6,1.1
		h3.6v-4.4h-2.8L154.8,93.2z M161.3,90.9h1.2v6.5h-1.2V90.9z M161.9,89.6c-0.2,0-0.4-0.1-0.6-0.2c-0.1-0.1-0.2-0.3-0.2-0.5
		c0-0.2,0.1-0.4,0.2-0.5c0.2-0.2,0.3-0.2,0.6-0.2c0.2,0,0.4,0.1,0.6,0.2c0.2,0.1,0.2,0.3,0.2,0.5c0,0.2-0.1,0.4-0.2,0.6
		C162.3,89.6,162.1,89.6,161.9,89.6z M170.4,90.9v6.5h-1.2v-5.5h-2.8l-0.1,1.4c0,0.9-0.1,1.6-0.2,2.2c-0.1,0.6-0.3,1-0.6,1.4
		c-0.3,0.4-0.6,0.5-1.1,0.5c-0.2,0-0.5,0-0.7-0.1l0.1-1c0.1,0,0.2,0,0.3,0c0.3,0,0.6-0.1,0.7-0.4c0.2-0.3,0.3-0.6,0.3-1
		c0-0.4,0.1-0.9,0.1-1.7l0.1-2.4H170.4z M172.6,90.9h1.2v6.5h-1.2V90.9z M173.2,89.6c-0.2,0-0.4-0.1-0.6-0.2
		c-0.1-0.1-0.2-0.3-0.2-0.5c0-0.2,0.1-0.4,0.2-0.5c0.2-0.2,0.3-0.2,0.6-0.2s0.4,0.1,0.6,0.2c0.2,0.1,0.2,0.3,0.2,0.5
		c0,0.2-0.1,0.4-0.2,0.6C173.6,89.6,173.4,89.6,173.2,89.6z M178.6,94.6h-1.3v2.7h-1.2v-6.5h1.2v2.7h1.4l2.1-2.7h1.3l-2.5,3.1
		l2.6,3.4h-1.4L178.6,94.6z M183.7,97.4c-0.2,0-0.4-0.1-0.6-0.2c-0.2-0.2-0.2-0.4-0.2-0.6c0-0.2,0.1-0.4,0.2-0.6
		c0.2-0.2,0.4-0.2,0.6-0.2s0.4,0.1,0.6,0.2c0.2,0.2,0.2,0.4,0.2,0.6c0,0.2-0.1,0.4-0.2,0.6C184.1,97.4,183.9,97.4,183.7,97.4z"/>
	<path d="M6.1,124.3H4.5v4.1H2.2v-10.1h2.3v4.1h1.7l2.7-4.1h2.5L8,123.1l3.4,5.2H8.7L6.1,124.3z M11.9,126.5v4H9.7v-2.1h-1v-1.9
		H11.9z M16.6,128.5c-0.8,0-1.6-0.2-2.2-0.5c-0.6-0.3-1.2-0.8-1.5-1.4c-0.4-0.6-0.5-1.3-0.5-2.1c0-0.8,0.2-1.5,0.5-2.1
		c0.4-0.6,0.9-1.1,1.5-1.4c0.7-0.3,1.4-0.5,2.2-0.5c0.8,0,1.6,0.2,2.2,0.5c0.6,0.3,1.2,0.8,1.5,1.4c0.4,0.6,0.5,1.3,0.5,2.1
		c0,0.8-0.2,1.5-0.5,2.1c-0.4,0.6-0.9,1.1-1.5,1.4C18.1,128.3,17.4,128.5,16.6,128.5z M16.6,126.6c0.6,0,1.1-0.2,1.4-0.6
		c0.4-0.4,0.6-0.9,0.6-1.6s-0.2-1.2-0.6-1.6c-0.4-0.4-0.8-0.6-1.4-0.6c-0.6,0-1.1,0.2-1.4,0.6c-0.4,0.4-0.6,0.9-0.6,1.6
		s0.2,1.2,0.6,1.6C15.5,126.4,16,126.6,16.6,126.6z M30,120.6v7.8h-2.3v-5.9h-2.5l-0.1,1.4c0,1-0.1,1.9-0.3,2.5
		c-0.2,0.7-0.4,1.2-0.8,1.6c-0.3,0.4-0.8,0.6-1.4,0.6c-0.3,0-0.7-0.1-1.2-0.2l0.1-1.8c0.2,0,0.3,0,0.3,0c0.3,0,0.6-0.1,0.8-0.4
		c0.2-0.3,0.3-0.6,0.3-0.9c0.1-0.4,0.1-0.9,0.1-1.5l0.1-3.1H30z M41.1,126.5v3.5H39v-1.7h-5.5v1.7h-2.1v-3.5h0.3
		c0.5,0,0.8-0.3,1-0.9c0.2-0.6,0.3-1.4,0.3-2.4l0.1-2.7H40v5.9H41.1z M35.1,123.4c0,0.8-0.1,1.4-0.2,1.9c-0.1,0.5-0.3,0.9-0.5,1.1
		h3.3v-4.1h-2.5L35.1,123.4z M45.7,120.5c1.2,0,2.1,0.3,2.8,0.9c0.6,0.6,1,1.4,1,2.6v4.4h-2.1v-1c-0.4,0.7-1.2,1.1-2.4,1.1
		c-0.6,0-1.1-0.1-1.6-0.3c-0.4-0.2-0.8-0.5-1-0.8s-0.3-0.8-0.3-1.2c0-0.7,0.3-1.3,0.8-1.7c0.5-0.4,1.4-0.6,2.5-0.6h1.8
		c0-0.5-0.1-0.9-0.4-1.1c-0.3-0.3-0.7-0.4-1.3-0.4c-0.4,0-0.8,0.1-1.2,0.2c-0.4,0.1-0.7,0.3-1,0.5l-0.8-1.6c0.4-0.3,0.9-0.5,1.5-0.7
		C44.5,120.6,45.1,120.5,45.7,120.5z M45.5,127c0.4,0,0.7-0.1,1-0.3c0.3-0.2,0.5-0.4,0.6-0.8v-0.8h-1.5c-0.9,0-1.4,0.3-1.4,0.9
		c0,0.3,0.1,0.5,0.3,0.7C44.8,126.9,45.2,127,45.5,127z M51.6,120.6h2.2v3h3.4v-3h2.3v7.8h-2.3v-2.9h-3.4v2.9h-2.2V120.6z
		 M69.7,120.6l-3.5,8.3c-0.4,0.9-0.8,1.5-1.3,1.9c-0.5,0.4-1.2,0.5-1.9,0.5c-0.4,0-0.8-0.1-1.2-0.2c-0.4-0.1-0.7-0.3-1-0.5l0.8-1.6
		c0.2,0.2,0.4,0.3,0.6,0.4c0.2,0.1,0.5,0.1,0.7,0.1c0.3,0,0.6-0.1,0.8-0.2c0.2-0.1,0.4-0.4,0.5-0.7l0-0.1l-3.4-7.8h2.3l2.2,5.3
		l2.2-5.3H69.7z M78.6,120.5c0.9,0,1.7,0.2,2.3,0.5c0.7,0.3,1.2,0.8,1.6,1.4c0.4,0.6,0.5,1.3,0.5,2.1c0,0.8-0.2,1.5-0.5,2.1
		c-0.4,0.6-0.9,1.1-1.5,1.4c-0.6,0.3-1.3,0.5-2.1,0.5c-0.8,0-1.4-0.2-2.1-0.5c-0.6-0.3-1.1-0.8-1.5-1.4c-0.3-0.6-0.5-1.3-0.5-2.1
		c0,0,0-0.2,0-0.6h5.9c-0.1-0.5-0.4-0.9-0.8-1.1c-0.4-0.3-0.9-0.4-1.5-0.4c-0.4,0-0.8,0.1-1.1,0.2c-0.3,0.1-0.6,0.3-0.9,0.6
		l-1.2-1.3C76.1,120.9,77.2,120.5,78.6,120.5z M78.9,126.8c0.5,0,0.9-0.1,1.3-0.4c0.3-0.3,0.6-0.7,0.6-1.2H77
		c0.1,0.5,0.3,0.9,0.6,1.2C78,126.6,78.4,126.8,78.9,126.8z M93.4,126.5v3.5h-2.1v-1.7h-5.5v1.7h-2.1v-3.5h0.3c0.5,0,0.8-0.3,1-0.9
		c0.2-0.6,0.3-1.4,0.3-2.4l0.1-2.7h6.8v5.9H93.4z M87.4,123.4c0,0.8-0.1,1.4-0.2,1.9c-0.1,0.5-0.3,0.9-0.5,1.1H90v-4.1h-2.5
		L87.4,123.4z M95,120.6h2.3v7.8H95V120.6z M96.1,119.5c-0.4,0-0.8-0.1-1-0.4c-0.3-0.2-0.4-0.5-0.4-0.9c0-0.4,0.1-0.7,0.4-0.9
		c0.3-0.2,0.6-0.4,1-0.4c0.4,0,0.8,0.1,1,0.3c0.3,0.2,0.4,0.5,0.4,0.9c0,0.4-0.1,0.7-0.4,0.9C96.9,119.4,96.6,119.5,96.1,119.5z
		 M103.3,128.5c-0.8,0-1.6-0.2-2.2-0.5c-0.7-0.3-1.2-0.8-1.5-1.4c-0.4-0.6-0.5-1.3-0.5-2.1c0-0.8,0.2-1.5,0.5-2.1
		c0.4-0.6,0.9-1.1,1.5-1.4c0.7-0.3,1.4-0.5,2.2-0.5c0.8,0,1.5,0.2,2.1,0.5c0.6,0.3,1.1,0.8,1.3,1.5l-1.7,0.9c-0.4-0.7-1-1.1-1.7-1.1
		c-0.6,0-1.1,0.2-1.5,0.6c-0.4,0.4-0.6,0.9-0.6,1.6s0.2,1.2,0.6,1.6c0.4,0.4,0.9,0.6,1.5,0.6c0.8,0,1.4-0.4,1.7-1.1l1.7,1
		c-0.3,0.6-0.7,1.1-1.3,1.4C104.9,128.3,104.2,128.5,103.3,128.5z M108.4,120.6h2.3v7.8h-2.3V120.6z M109.5,119.5
		c-0.4,0-0.8-0.1-1-0.4c-0.3-0.2-0.4-0.5-0.4-0.9c0-0.4,0.1-0.7,0.4-0.9c0.3-0.2,0.6-0.4,1-0.4c0.4,0,0.8,0.1,1,0.3
		c0.3,0.2,0.4,0.5,0.4,0.9c0,0.4-0.1,0.7-0.4,0.9C110.3,119.4,109.9,119.5,109.5,119.5z M113.8,123.3c-0.4,0-0.7-0.1-1-0.4
		c-0.3-0.3-0.4-0.6-0.4-1c0-0.4,0.1-0.7,0.4-1c0.3-0.3,0.6-0.4,1-0.4c0.4,0,0.7,0.1,1,0.4c0.3,0.2,0.4,0.6,0.4,1
		c0,0.4-0.1,0.7-0.4,1C114.6,123.2,114.2,123.3,113.8,123.3z M113.8,128.5c-0.4,0-0.7-0.1-1-0.4c-0.3-0.3-0.4-0.6-0.4-1
		c0-0.4,0.1-0.7,0.4-1c0.3-0.3,0.6-0.4,1-0.4c0.4,0,0.7,0.1,1,0.4c0.3,0.3,0.4,0.6,0.4,1c0,0.4-0.1,0.7-0.4,1
		C114.6,128.4,114.2,128.5,113.8,128.5z"/>
	<path d="M7.5,149.3v1.1H1.3v-8.6h6v1.1H2.5v2.6h4.3v1H2.5v2.8H7.5z M12.6,143.8c0.6,0,1.2,0.1,1.7,0.4c0.5,0.3,0.9,0.7,1.2,1.2
		c0.3,0.5,0.4,1.1,0.4,1.7c0,0.7-0.1,1.2-0.4,1.7c-0.3,0.5-0.7,0.9-1.2,1.2c-0.5,0.3-1.1,0.4-1.7,0.4c-0.5,0-0.9-0.1-1.3-0.3
		c-0.4-0.2-0.7-0.4-1-0.8v3.3H9.2v-8.9h1.1v1c0.3-0.4,0.6-0.6,1-0.8C11.7,143.9,12.1,143.8,12.6,143.8z M12.5,149.4
		c0.4,0,0.8-0.1,1.1-0.3c0.3-0.2,0.6-0.5,0.8-0.8c0.2-0.3,0.3-0.8,0.3-1.2s-0.1-0.8-0.3-1.2c-0.2-0.4-0.4-0.6-0.8-0.8
		c-0.3-0.2-0.7-0.3-1.1-0.3c-0.4,0-0.8,0.1-1.1,0.3c-0.3,0.2-0.6,0.5-0.8,0.8c-0.2,0.3-0.3,0.7-0.3,1.2s0.1,0.8,0.3,1.2
		c0.2,0.3,0.4,0.6,0.8,0.8C11.8,149.3,12.1,149.4,12.5,149.4z M23.5,147.2c0,0.1,0,0.2,0,0.4h-5.3c0.1,0.6,0.3,1,0.7,1.4
		c0.4,0.3,1,0.5,1.6,0.5c0.8,0,1.4-0.3,1.9-0.8l0.6,0.8c-0.3,0.3-0.7,0.6-1.1,0.8c-0.4,0.2-0.9,0.3-1.5,0.3c-0.7,0-1.3-0.1-1.8-0.4
		c-0.5-0.3-0.9-0.7-1.2-1.2c-0.3-0.5-0.4-1.1-0.4-1.7c0-0.6,0.1-1.2,0.4-1.7c0.3-0.5,0.7-0.9,1.2-1.2c0.5-0.3,1.1-0.4,1.7-0.4
		s1.2,0.1,1.7,0.4c0.5,0.3,0.9,0.7,1.1,1.2C23.3,145.9,23.5,146.5,23.5,147.2z M20.3,144.8c-0.6,0-1,0.2-1.4,0.5
		c-0.4,0.3-0.6,0.8-0.7,1.3h4.2c-0.1-0.5-0.3-1-0.7-1.3C21.3,145,20.8,144.8,20.3,144.8z M28.1,150.4c-0.7,0-1.3-0.1-1.8-0.4
		c-0.5-0.3-0.9-0.7-1.2-1.2c-0.3-0.5-0.4-1.1-0.4-1.7s0.1-1.2,0.4-1.7c0.3-0.5,0.7-0.9,1.2-1.2c0.5-0.3,1.1-0.4,1.8-0.4
		c0.6,0,1.1,0.1,1.6,0.4c0.5,0.2,0.8,0.6,1.1,1l-0.9,0.6c-0.2-0.3-0.5-0.5-0.8-0.7s-0.6-0.2-1-0.2c-0.4,0-0.8,0.1-1.1,0.3
		c-0.3,0.2-0.6,0.5-0.8,0.8c-0.2,0.3-0.3,0.7-0.3,1.2c0,0.5,0.1,0.9,0.3,1.2c0.2,0.3,0.5,0.6,0.8,0.8c0.3,0.2,0.7,0.3,1.1,0.3
		c0.4,0,0.7-0.1,1-0.2s0.6-0.4,0.8-0.7l0.9,0.6c-0.3,0.4-0.6,0.8-1.1,1C29.2,150.3,28.7,150.4,28.1,150.4z M38,147.2
		c0,0.1,0,0.2,0,0.4h-5.3c0.1,0.6,0.3,1,0.7,1.4c0.4,0.3,1,0.5,1.6,0.5c0.8,0,1.4-0.3,1.9-0.8l0.6,0.8c-0.3,0.3-0.7,0.6-1.1,0.8
		c-0.4,0.2-0.9,0.3-1.5,0.3c-0.7,0-1.3-0.1-1.8-0.4c-0.5-0.3-0.9-0.7-1.2-1.2c-0.3-0.5-0.4-1.1-0.4-1.7c0-0.6,0.1-1.2,0.4-1.7
		c0.3-0.5,0.7-0.9,1.2-1.2c0.5-0.3,1.1-0.4,1.7-0.4s1.2,0.1,1.7,0.4c0.5,0.3,0.9,0.7,1.1,1.2C37.9,145.9,38,146.5,38,147.2z
		 M34.8,144.8c-0.6,0-1,0.2-1.4,0.5c-0.4,0.3-0.6,0.8-0.7,1.3h4.2c-0.1-0.5-0.3-1-0.7-1.3C35.9,145,35.4,144.8,34.8,144.8z
		 M42.4,147.6H41v2.7h-1.2v-6.5H41v2.7h1.4l2.1-2.7h1.3l-2.5,3.1l2.6,3.4h-1.4L42.4,147.6z M51.9,144.9h-2.4v5.5h-1.2v-5.5H46v-1
		h5.9V144.9z M58.7,147.2c0,0.1,0,0.2,0,0.4h-5.3c0.1,0.6,0.3,1,0.7,1.4c0.4,0.3,1,0.5,1.6,0.5c0.8,0,1.4-0.3,1.9-0.8l0.6,0.8
		c-0.3,0.3-0.7,0.6-1.1,0.8c-0.4,0.2-0.9,0.3-1.5,0.3c-0.7,0-1.3-0.1-1.8-0.4c-0.5-0.3-0.9-0.7-1.2-1.2c-0.3-0.5-0.4-1.1-0.4-1.7
		c0-0.6,0.1-1.2,0.4-1.7c0.3-0.5,0.7-0.9,1.2-1.2c0.5-0.3,1.1-0.4,1.7-0.4s1.2,0.1,1.7,0.4c0.5,0.3,0.9,0.7,1.1,1.2
		C58.5,145.9,58.7,146.5,58.7,147.2z M55.5,144.8c-0.6,0-1,0.2-1.4,0.5c-0.4,0.3-0.6,0.8-0.7,1.3h4.2c-0.1-0.5-0.3-1-0.7-1.3
		C56.5,145,56,144.8,55.5,144.8z M63.9,143.8c0.6,0,1.2,0.1,1.7,0.4c0.5,0.3,0.9,0.7,1.2,1.2c0.3,0.5,0.4,1.1,0.4,1.7
		c0,0.7-0.1,1.2-0.4,1.7c-0.3,0.5-0.7,0.9-1.2,1.2c-0.5,0.3-1.1,0.4-1.7,0.4c-0.5,0-0.9-0.1-1.3-0.3c-0.4-0.2-0.7-0.4-1-0.8v3.3
		h-1.2v-8.9h1.1v1c0.3-0.4,0.6-0.6,1-0.8C63,143.9,63.4,143.8,63.9,143.8z M63.8,149.4c0.4,0,0.8-0.1,1.1-0.3
		c0.3-0.2,0.6-0.5,0.8-0.8c0.2-0.3,0.3-0.8,0.3-1.2s-0.1-0.8-0.3-1.2c-0.2-0.4-0.4-0.6-0.8-0.8c-0.3-0.2-0.7-0.3-1.1-0.3
		c-0.4,0-0.8,0.1-1.1,0.3c-0.3,0.2-0.6,0.5-0.8,0.8c-0.2,0.3-0.3,0.7-0.3,1.2s0.1,0.8,0.3,1.2c0.2,0.3,0.4,0.6,0.8,0.8
		C63,149.3,63.4,149.4,63.8,149.4z M73.7,144.9h-3.6v5.5h-1.2v-6.5h4.8V144.9z M80.4,147.2c0,0.1,0,0.2,0,0.4h-5.3
		c0.1,0.6,0.3,1,0.7,1.4c0.4,0.3,1,0.5,1.6,0.5c0.8,0,1.4-0.3,1.9-0.8l0.6,0.8c-0.3,0.3-0.7,0.6-1.1,0.8c-0.4,0.2-0.9,0.3-1.5,0.3
		c-0.7,0-1.3-0.1-1.8-0.4c-0.5-0.3-0.9-0.7-1.2-1.2c-0.3-0.5-0.4-1.1-0.4-1.7c0-0.6,0.1-1.2,0.4-1.7c0.3-0.5,0.7-0.9,1.2-1.2
		c0.5-0.3,1.1-0.4,1.7-0.4s1.2,0.1,1.7,0.4c0.5,0.3,0.9,0.7,1.1,1.2C80.3,145.9,80.4,146.5,80.4,147.2z M77.2,144.8
		c-0.6,0-1,0.2-1.4,0.5c-0.4,0.3-0.6,0.8-0.7,1.3h4.2c-0.1-0.5-0.3-1-0.7-1.3C78.3,145,77.8,144.8,77.2,144.8z M90.4,144.9H88v5.5
		h-1.2v-5.5h-2.4v-1h5.9V144.9z M93.9,143.8c0.9,0,1.6,0.2,2.1,0.7c0.5,0.4,0.7,1.1,0.7,2v3.9h-1.1v-0.9c-0.2,0.3-0.5,0.5-0.8,0.7
		c-0.4,0.2-0.8,0.2-1.3,0.2c-0.7,0-1.3-0.2-1.7-0.5c-0.4-0.4-0.6-0.8-0.6-1.4s0.2-1,0.6-1.4c0.4-0.4,1.1-0.5,2-0.5h1.9v-0.2
		c0-0.5-0.1-0.9-0.4-1.2c-0.3-0.3-0.7-0.4-1.3-0.4c-0.4,0-0.8,0.1-1.1,0.2c-0.4,0.1-0.7,0.3-0.9,0.5l-0.5-0.9
		c0.3-0.3,0.7-0.5,1.2-0.6C92.9,143.9,93.4,143.8,93.9,143.8z M93.6,149.5c0.4,0,0.8-0.1,1.2-0.3c0.3-0.2,0.6-0.5,0.7-0.9v-0.9h-1.8
		c-1,0-1.5,0.3-1.5,1c0,0.3,0.1,0.6,0.4,0.8C92.8,149.4,93.2,149.5,93.6,149.5z M106.2,143.9v6.5h-1.1v-4.7l-2.4,4h-0.5l-2.4-4v4.7
		h-1.1v-6.5h1.2l2.5,4.4l2.6-4.4H106.2z M110.8,143.8c0.9,0,1.6,0.2,2.1,0.7c0.5,0.4,0.7,1.1,0.7,2v3.9h-1.1v-0.9
		c-0.2,0.3-0.5,0.5-0.8,0.7c-0.4,0.2-0.8,0.2-1.3,0.2c-0.7,0-1.3-0.2-1.7-0.5c-0.4-0.4-0.6-0.8-0.6-1.4s0.2-1,0.6-1.4
		c0.4-0.4,1.1-0.5,2-0.5h1.9v-0.2c0-0.5-0.1-0.9-0.4-1.2c-0.3-0.3-0.7-0.4-1.3-0.4c-0.4,0-0.8,0.1-1.1,0.2c-0.4,0.1-0.7,0.3-0.9,0.5
		l-0.5-0.9c0.3-0.3,0.7-0.5,1.2-0.6C109.8,143.9,110.3,143.8,110.8,143.8z M110.6,149.5c0.4,0,0.8-0.1,1.2-0.3
		c0.3-0.2,0.6-0.5,0.7-0.9v-0.9h-1.8c-1,0-1.5,0.3-1.5,1c0,0.3,0.1,0.6,0.4,0.8C109.8,149.4,110.1,149.5,110.6,149.5z M118.2,147.6
		h-1.3v2.7h-1.2v-6.5h1.2v2.7h1.4l2.1-2.7h1.3l-2.5,3.1l2.6,3.4h-1.4L118.2,147.6z M122.3,149.4v2.4h-1.1v-1.4h-0.8v-1H122.3z
		 M129,143.9v6.5h-1.2v-5.5h-3.7v5.5H123v-6.5H129z M137.2,147.2c0,0.1,0,0.2,0,0.4h-5.3c0.1,0.6,0.3,1,0.7,1.4
		c0.4,0.3,1,0.5,1.6,0.5c0.8,0,1.4-0.3,1.9-0.8l0.6,0.8c-0.3,0.3-0.7,0.6-1.1,0.8c-0.4,0.2-0.9,0.3-1.5,0.3c-0.7,0-1.3-0.1-1.8-0.4
		c-0.5-0.3-0.9-0.7-1.2-1.2c-0.3-0.5-0.4-1.1-0.4-1.7c0-0.6,0.1-1.2,0.4-1.7c0.3-0.5,0.7-0.9,1.2-1.2c0.5-0.3,1.1-0.4,1.7-0.4
		c0.6,0,1.2,0.1,1.7,0.4c0.5,0.3,0.9,0.7,1.1,1.2C137,145.9,137.2,146.5,137.2,147.2z M134,144.8c-0.6,0-1,0.2-1.4,0.5
		c-0.4,0.3-0.6,0.8-0.7,1.3h4.2c-0.1-0.5-0.3-1-0.7-1.3C135,145,134.5,144.8,134,144.8z M139,143.9h1.2v2.8h3.7v-2.8h1.2v6.5h-1.2
		v-2.7h-3.7v2.7H139V143.9z M153.9,144.1c0.6,0,1.1,0.1,1.6,0.4c0.5,0.3,0.8,0.6,1.1,1.1c0.3,0.5,0.4,1,0.4,1.6
		c0,0.6-0.1,1.2-0.4,1.7c-0.3,0.5-0.7,0.9-1.2,1.1c-0.5,0.3-1.1,0.4-1.7,0.4c-1.1,0-2-0.4-2.6-1.1c-0.6-0.8-0.9-1.8-0.9-3.2
		c0-1.3,0.3-2.4,0.8-3.1c0.5-0.8,1.4-1.3,2.5-1.5l3-0.7l0.2,1.1l-2.7,0.6c-0.8,0.2-1.5,0.5-1.9,1c-0.4,0.4-0.7,1.1-0.7,1.9
		c0.3-0.4,0.6-0.7,1.1-1C152.9,144.2,153.3,144.1,153.9,144.1z M153.7,149.5c0.4,0,0.8-0.1,1.1-0.3c0.3-0.2,0.6-0.4,0.8-0.8
		c0.2-0.3,0.3-0.7,0.3-1.1c0-0.6-0.2-1.2-0.6-1.6c-0.4-0.4-0.9-0.6-1.5-0.6s-1.2,0.2-1.6,0.6c-0.4,0.4-0.6,0.9-0.6,1.6
		c0,0.4,0.1,0.8,0.3,1.1c0.2,0.3,0.4,0.6,0.8,0.8C152.9,149.4,153.3,149.5,153.7,149.5z M158.7,143.9h1.2v6.5h-1.2V143.9z
		 M159.3,142.6c-0.2,0-0.4-0.1-0.6-0.2c-0.1-0.1-0.2-0.3-0.2-0.5s0.1-0.4,0.2-0.5c0.2-0.2,0.3-0.2,0.6-0.2c0.2,0,0.4,0.1,0.6,0.2
		c0.2,0.1,0.2,0.3,0.2,0.5c0,0.2-0.1,0.4-0.2,0.6C159.7,142.6,159.5,142.6,159.3,142.6z M165.6,143.8c0.6,0,1.2,0.1,1.7,0.4
		c0.5,0.3,0.9,0.7,1.2,1.2c0.3,0.5,0.4,1.1,0.4,1.7c0,0.7-0.1,1.2-0.4,1.7c-0.3,0.5-0.7,0.9-1.2,1.2c-0.5,0.3-1.1,0.4-1.7,0.4
		c-0.5,0-0.9-0.1-1.3-0.3c-0.4-0.2-0.7-0.4-1-0.8v3.3h-1.2v-8.9h1.1v1c0.3-0.4,0.6-0.6,1-0.8C164.7,143.9,165.1,143.8,165.6,143.8z
		 M165.5,149.4c0.4,0,0.8-0.1,1.1-0.3c0.3-0.2,0.6-0.5,0.8-0.8c0.2-0.3,0.3-0.8,0.3-1.2s-0.1-0.8-0.3-1.2c-0.2-0.4-0.4-0.6-0.8-0.8
		c-0.3-0.2-0.7-0.3-1.1-0.3c-0.4,0-0.8,0.1-1.1,0.3c-0.3,0.2-0.6,0.5-0.8,0.8c-0.2,0.3-0.3,0.7-0.3,1.2s0.1,0.8,0.3,1.2
		c0.2,0.3,0.4,0.6,0.8,0.8C164.7,149.3,165.1,149.4,165.5,149.4z M175.3,144.9h-3.6v5.5h-1.2v-6.5h4.8V144.9z M182.1,147.2
		c0,0.1,0,0.2,0,0.4h-5.3c0.1,0.6,0.3,1,0.7,1.4c0.4,0.3,1,0.5,1.6,0.5c0.8,0,1.4-0.3,1.9-0.8l0.6,0.8c-0.3,0.3-0.7,0.6-1.1,0.8
		c-0.4,0.2-0.9,0.3-1.5,0.3c-0.7,0-1.3-0.1-1.8-0.4c-0.5-0.3-0.9-0.7-1.2-1.2c-0.3-0.5-0.4-1.1-0.4-1.7c0-0.6,0.1-1.2,0.4-1.7
		c0.3-0.5,0.7-0.9,1.2-1.2c0.5-0.3,1.1-0.4,1.7-0.4c0.6,0,1.2,0.1,1.7,0.4c0.5,0.3,0.9,0.7,1.1,1.2
		C182,145.9,182.1,146.5,182.1,147.2z M178.9,144.8c-0.6,0-1,0.2-1.4,0.5c-0.4,0.3-0.6,0.8-0.7,1.3h4.2c-0.1-0.5-0.3-1-0.7-1.3
		C179.9,145,179.5,144.8,178.9,144.8z M3.6,163.6H2.2v2.7H1.1v-6.5h1.2v2.7h1.4l2.1-2.7H7L4.5,163l2.6,3.4H5.8L3.6,163.6z M11,166.4
		v2.3H9.8v-2.3l-2.8-6.5h1.2l2.2,5.2l2.3-5.2h1.1L11,166.4z M15,159.9h1.2v2.8h3.7v-2.8h1.2v6.5h-1.2v-2.7h-3.7v2.7H15V159.9z
		 M23.3,159.9h1.2v6.5h-1.2V159.9z M23.9,158.6c-0.2,0-0.4-0.1-0.6-0.2c-0.1-0.1-0.2-0.3-0.2-0.5s0.1-0.4,0.2-0.5
		c0.2-0.2,0.3-0.2,0.6-0.2c0.2,0,0.4,0.1,0.6,0.2c0.2,0.1,0.2,0.3,0.2,0.5c0,0.2-0.1,0.4-0.2,0.6C24.3,158.6,24.2,158.6,23.9,158.6z
		 M26.8,159.9H28v2.8h3.7v-2.8h1.2v6.5h-1.2v-2.7H28v2.7h-1.2V159.9z M41,163.2c0,0.1,0,0.2,0,0.4h-5.3c0.1,0.6,0.3,1,0.7,1.4
		c0.4,0.3,1,0.5,1.6,0.5c0.8,0,1.4-0.3,1.9-0.8l0.6,0.8c-0.3,0.3-0.7,0.6-1.1,0.8c-0.4,0.2-0.9,0.3-1.5,0.3c-0.7,0-1.3-0.1-1.8-0.4
		c-0.5-0.3-0.9-0.7-1.2-1.2c-0.3-0.5-0.4-1.1-0.4-1.7c0-0.6,0.1-1.2,0.4-1.7c0.3-0.5,0.7-0.9,1.2-1.2c0.5-0.3,1.1-0.4,1.7-0.4
		c0.6,0,1.2,0.1,1.7,0.4c0.5,0.3,0.9,0.7,1.1,1.2C40.8,161.9,41,162.5,41,163.2z M37.8,160.8c-0.6,0-1,0.2-1.4,0.5
		c-0.4,0.3-0.6,0.8-0.7,1.3h4.2c-0.1-0.5-0.3-1-0.7-1.3C38.8,161,38.3,160.8,37.8,160.8z M48.2,157.8v8.6H47v-7.5h-1.9v-1.1H48.2z
		 M57.3,159.8c0.6,0,1.2,0.1,1.7,0.4c0.5,0.3,0.9,0.7,1.2,1.2c0.3,0.5,0.4,1.1,0.4,1.7c0,0.7-0.1,1.2-0.4,1.7
		c-0.3,0.5-0.7,0.9-1.2,1.2c-0.5,0.3-1.1,0.4-1.7,0.4c-0.5,0-0.9-0.1-1.3-0.3c-0.4-0.2-0.7-0.4-1-0.8v3.3h-1.2v-8.9H55v1
		c0.3-0.4,0.6-0.6,1-0.8C56.4,159.9,56.9,159.8,57.3,159.8z M57.2,165.4c0.4,0,0.8-0.1,1.1-0.3c0.3-0.2,0.6-0.5,0.8-0.8
		c0.2-0.3,0.3-0.8,0.3-1.2s-0.1-0.8-0.3-1.2c-0.2-0.4-0.4-0.6-0.8-0.8c-0.3-0.2-0.7-0.3-1.1-0.3c-0.4,0-0.8,0.1-1.1,0.3
		c-0.3,0.2-0.6,0.5-0.8,0.8c-0.2,0.3-0.3,0.7-0.3,1.2s0.1,0.8,0.3,1.2c0.2,0.3,0.4,0.6,0.8,0.8C56.5,165.3,56.8,165.4,57.2,165.4z
		 M68.2,163.2c0,0.1,0,0.2,0,0.4h-5.3c0.1,0.6,0.3,1,0.7,1.4c0.4,0.3,1,0.5,1.6,0.5c0.8,0,1.4-0.3,1.9-0.8l0.6,0.8
		c-0.3,0.3-0.7,0.6-1.1,0.8c-0.4,0.2-0.9,0.3-1.5,0.3c-0.7,0-1.3-0.1-1.8-0.4c-0.5-0.3-0.9-0.7-1.2-1.2c-0.3-0.5-0.4-1.1-0.4-1.7
		c0-0.6,0.1-1.2,0.4-1.7c0.3-0.5,0.7-0.9,1.2-1.2c0.5-0.3,1.1-0.4,1.7-0.4c0.6,0,1.2,0.1,1.7,0.4c0.5,0.3,0.9,0.7,1.1,1.2
		C68,161.9,68.2,162.5,68.2,163.2z M65,160.8c-0.6,0-1,0.2-1.4,0.5c-0.4,0.3-0.6,0.8-0.7,1.3H67c-0.1-0.5-0.3-1-0.7-1.3
		C66,161,65.5,160.8,65,160.8z M74.5,160.9h-2.4v5.5H71v-5.5h-2.4v-1h5.9V160.9z M82.3,160.1c0.6,0,1.1,0.1,1.6,0.4
		c0.5,0.3,0.8,0.6,1.1,1.1c0.3,0.5,0.4,1,0.4,1.6c0,0.6-0.1,1.2-0.4,1.7c-0.3,0.5-0.7,0.9-1.2,1.1c-0.5,0.3-1.1,0.4-1.7,0.4
		c-1.1,0-2-0.4-2.6-1.1c-0.6-0.8-0.9-1.8-0.9-3.2c0-1.3,0.3-2.4,0.8-3.1c0.5-0.8,1.4-1.3,2.5-1.5l3-0.7l0.2,1.1l-2.7,0.6
		c-0.8,0.2-1.5,0.5-1.9,1c-0.4,0.4-0.7,1.1-0.7,1.9c0.3-0.4,0.6-0.7,1.1-1C81.3,160.2,81.8,160.1,82.3,160.1z M82.1,165.5
		c0.4,0,0.8-0.1,1.1-0.3c0.3-0.2,0.6-0.4,0.8-0.8c0.2-0.3,0.3-0.7,0.3-1.1c0-0.6-0.2-1.2-0.6-1.6c-0.4-0.4-0.9-0.6-1.5-0.6
		c-0.6,0-1.2,0.2-1.6,0.6c-0.4,0.4-0.6,0.9-0.6,1.6c0,0.4,0.1,0.8,0.3,1.1c0.2,0.3,0.4,0.6,0.8,0.8
		C81.4,165.4,81.7,165.5,82.1,165.5z M87.1,159.9h1.2v6.5h-1.2V159.9z M87.7,158.6c-0.2,0-0.4-0.1-0.6-0.2c-0.1-0.1-0.2-0.3-0.2-0.5
		s0.1-0.4,0.2-0.5c0.2-0.2,0.3-0.2,0.6-0.2c0.2,0,0.4,0.1,0.6,0.2c0.2,0.1,0.2,0.3,0.2,0.5c0,0.2-0.1,0.4-0.2,0.6
		C88.1,158.6,87.9,158.6,87.7,158.6z M94,159.8c0.6,0,1.2,0.1,1.7,0.4c0.5,0.3,0.9,0.7,1.2,1.2c0.3,0.5,0.4,1.1,0.4,1.7
		c0,0.7-0.1,1.2-0.4,1.7c-0.3,0.5-0.7,0.9-1.2,1.2c-0.5,0.3-1.1,0.4-1.7,0.4c-0.5,0-0.9-0.1-1.3-0.3c-0.4-0.2-0.7-0.4-1-0.8v3.3
		h-1.2v-8.9h1.1v1c0.3-0.4,0.6-0.6,1-0.8C93.1,159.9,93.5,159.8,94,159.8z M93.9,165.4c0.4,0,0.8-0.1,1.1-0.3
		c0.3-0.2,0.6-0.5,0.8-0.8c0.2-0.3,0.3-0.8,0.3-1.2s-0.1-0.8-0.3-1.2c-0.2-0.4-0.4-0.6-0.8-0.8c-0.3-0.2-0.7-0.3-1.1-0.3
		c-0.4,0-0.8,0.1-1.1,0.3c-0.3,0.2-0.6,0.5-0.8,0.8c-0.2,0.3-0.3,0.7-0.3,1.2s0.1,0.8,0.3,1.2c0.2,0.3,0.4,0.6,0.8,0.8
		C93.2,165.3,93.5,165.4,93.9,165.4z M107.1,160.9h-2.4v5.5h-1.2v-5.5h-2.4v-1h5.9V160.9z M110.6,159.8c0.9,0,1.6,0.2,2.1,0.7
		c0.5,0.4,0.7,1.1,0.7,2v3.9h-1.1v-0.9c-0.2,0.3-0.5,0.5-0.8,0.7c-0.4,0.2-0.8,0.2-1.3,0.2c-0.7,0-1.3-0.2-1.7-0.5
		c-0.4-0.4-0.6-0.8-0.6-1.4s0.2-1,0.6-1.4c0.4-0.4,1.1-0.5,2-0.5h1.9v-0.2c0-0.5-0.1-0.9-0.4-1.2c-0.3-0.3-0.7-0.4-1.3-0.4
		c-0.4,0-0.8,0.1-1.1,0.2c-0.4,0.1-0.7,0.3-0.9,0.5l-0.5-0.9c0.3-0.3,0.7-0.5,1.2-0.6C109.6,159.9,110.1,159.8,110.6,159.8z
		 M110.4,165.5c0.4,0,0.8-0.1,1.2-0.3c0.3-0.2,0.6-0.5,0.7-0.9v-0.9h-1.8c-1,0-1.5,0.3-1.5,1c0,0.3,0.1,0.6,0.4,0.8
		C109.6,165.4,109.9,165.5,110.4,165.5z M118.8,160.1c0.6,0,1.1,0.1,1.6,0.4c0.5,0.3,0.8,0.6,1.1,1.1c0.3,0.5,0.4,1,0.4,1.6
		c0,0.6-0.1,1.2-0.4,1.7c-0.3,0.5-0.7,0.9-1.2,1.1c-0.5,0.3-1.1,0.4-1.7,0.4c-1.1,0-2-0.4-2.6-1.1c-0.6-0.8-0.9-1.8-0.9-3.2
		c0-1.3,0.3-2.4,0.8-3.1c0.5-0.8,1.4-1.3,2.5-1.5l3-0.7l0.2,1.1l-2.7,0.6c-0.8,0.2-1.5,0.5-1.9,1c-0.4,0.4-0.7,1.1-0.7,1.9
		c0.3-0.4,0.6-0.7,1.1-1C117.8,160.2,118.3,160.1,118.8,160.1z M118.6,165.5c0.4,0,0.8-0.1,1.1-0.3c0.3-0.2,0.6-0.4,0.8-0.8
		c0.2-0.3,0.3-0.7,0.3-1.1c0-0.6-0.2-1.2-0.6-1.6c-0.4-0.4-0.9-0.6-1.5-0.6c-0.6,0-1.2,0.2-1.6,0.6c-0.4,0.4-0.6,0.9-0.6,1.6
		c0,0.4,0.1,0.8,0.3,1.1c0.2,0.3,0.4,0.6,0.8,0.8C117.8,165.4,118.2,165.5,118.6,165.5z M129.1,159.9v6.5H128v-5.5h-2.8l-0.1,1.4
		c0,0.9-0.1,1.6-0.2,2.2c-0.1,0.6-0.3,1-0.6,1.4c-0.3,0.4-0.6,0.5-1.1,0.5c-0.2,0-0.5,0-0.7-0.1l0.1-1c0.1,0,0.2,0,0.3,0
		c0.3,0,0.6-0.1,0.7-0.4c0.2-0.3,0.3-0.6,0.3-1c0-0.4,0.1-0.9,0.1-1.7l0.1-2.4H129.1z M137.3,163.2c0,0.1,0,0.2,0,0.4H132
		c0.1,0.6,0.3,1,0.7,1.4c0.4,0.3,1,0.5,1.6,0.5c0.8,0,1.4-0.3,1.9-0.8l0.6,0.8c-0.3,0.3-0.7,0.6-1.1,0.8c-0.4,0.2-0.9,0.3-1.5,0.3
		c-0.7,0-1.3-0.1-1.8-0.4c-0.5-0.3-0.9-0.7-1.2-1.2c-0.3-0.5-0.4-1.1-0.4-1.7c0-0.6,0.1-1.2,0.4-1.7c0.3-0.5,0.7-0.9,1.2-1.2
		c0.5-0.3,1.1-0.4,1.7-0.4s1.2,0.1,1.7,0.4c0.5,0.3,0.9,0.7,1.1,1.2C137.1,161.9,137.3,162.5,137.3,163.2z M134.1,160.8
		c-0.6,0-1,0.2-1.4,0.5c-0.4,0.3-0.6,0.8-0.7,1.3h4.2c-0.1-0.5-0.3-1-0.7-1.3C135.1,161,134.6,160.8,134.1,160.8z M143.6,160.9h-2.4
		v5.5h-1.2v-5.5h-2.4v-1h5.9V160.9z M147.4,163.6H146v2.7h-1.2v-6.5h1.2v2.7h1.4l2.1-2.7h1.3l-2.5,3.1l2.6,3.4h-1.4L147.4,163.6z
		 M154.3,159.8c0.9,0,1.6,0.2,2.1,0.7c0.5,0.4,0.7,1.1,0.7,2v3.9H156v-0.9c-0.2,0.3-0.5,0.5-0.8,0.7c-0.4,0.2-0.8,0.2-1.3,0.2
		c-0.7,0-1.3-0.2-1.7-0.5c-0.4-0.4-0.6-0.8-0.6-1.4s0.2-1,0.6-1.4c0.4-0.4,1.1-0.5,2-0.5h1.9v-0.2c0-0.5-0.1-0.9-0.4-1.2
		c-0.3-0.3-0.7-0.4-1.3-0.4c-0.4,0-0.8,0.1-1.1,0.2c-0.4,0.1-0.7,0.3-0.9,0.5l-0.5-0.9c0.3-0.3,0.7-0.5,1.2-0.6
		C153.3,159.9,153.8,159.8,154.3,159.8z M154.1,165.5c0.4,0,0.8-0.1,1.2-0.3c0.3-0.2,0.6-0.5,0.7-0.9v-0.9h-1.8c-1,0-1.5,0.3-1.5,1
		c0,0.3,0.1,0.6,0.4,0.8C153.3,165.4,153.6,165.5,154.1,165.5z M165.8,165.3v2.5h-1.1v-1.5h-5.4v1.5h-1.1v-2.5h0.3
		c0.4,0,0.7-0.3,0.9-0.9c0.2-0.6,0.3-1.4,0.3-2.4l0.1-2.2h5v5.5H165.8z M160.8,162.2c0,0.8-0.1,1.5-0.2,2c-0.1,0.5-0.3,0.9-0.6,1.1
		h3.6v-4.4h-2.8L160.8,162.2z M169.7,159.8c0.9,0,1.6,0.2,2.1,0.7c0.5,0.4,0.7,1.1,0.7,2v3.9h-1.1v-0.9c-0.2,0.3-0.5,0.5-0.8,0.7
		c-0.4,0.2-0.8,0.2-1.3,0.2c-0.7,0-1.3-0.2-1.7-0.5c-0.4-0.4-0.6-0.8-0.6-1.4s0.2-1,0.6-1.4c0.4-0.4,1.1-0.5,2-0.5h1.9v-0.2
		c0-0.5-0.1-0.9-0.4-1.2s-0.7-0.4-1.3-0.4c-0.4,0-0.8,0.1-1.1,0.2c-0.4,0.1-0.7,0.3-0.9,0.5l-0.5-0.9c0.3-0.3,0.7-0.5,1.2-0.6
		C168.6,159.9,169.1,159.8,169.7,159.8z M169.4,165.5c0.4,0,0.8-0.1,1.2-0.3c0.3-0.2,0.6-0.5,0.7-0.9v-0.9h-1.8c-1,0-1.5,0.3-1.5,1
		c0,0.3,0.1,0.6,0.4,0.8C168.6,165.4,168.9,165.5,169.4,165.5z M174.5,159.9h1.2v2.8h3.7v-2.8h1.2v6.5h-1.2v-2.7h-3.7v2.7h-1.2
		V159.9z M3.6,179.6H2.2v2.7H1.1v-6.5h1.2v2.7h1.4l2.1-2.7H7L4.5,179l2.6,3.4H5.8L3.6,179.6z M7.6,181.4v2.4H6.6v-1.4H5.8v-1H7.6z
		 M10.6,175.8c0.9,0,1.6,0.2,2.1,0.7c0.5,0.4,0.7,1.1,0.7,2v3.9h-1.1v-0.9c-0.2,0.3-0.5,0.5-0.8,0.7c-0.4,0.2-0.8,0.2-1.3,0.2
		c-0.7,0-1.3-0.2-1.7-0.5c-0.4-0.4-0.6-0.8-0.6-1.4s0.2-1,0.6-1.4c0.4-0.4,1.1-0.5,2-0.5h1.9v-0.2c0-0.5-0.1-0.9-0.4-1.2
		c-0.3-0.3-0.7-0.4-1.3-0.4c-0.4,0-0.8,0.1-1.1,0.2c-0.4,0.1-0.7,0.3-0.9,0.5l-0.5-0.9c0.3-0.3,0.7-0.5,1.2-0.6
		C9.5,175.9,10,175.8,10.6,175.8z M10.3,181.5c0.4,0,0.8-0.1,1.2-0.3c0.3-0.2,0.6-0.5,0.7-0.9v-0.9h-1.8c-1,0-1.5,0.3-1.5,1
		c0,0.3,0.1,0.6,0.4,0.8C9.5,181.4,9.8,181.5,10.3,181.5z M18.8,176.1c0.6,0,1.1,0.1,1.6,0.4c0.5,0.3,0.8,0.6,1.1,1.1
		c0.3,0.5,0.4,1,0.4,1.6c0,0.6-0.1,1.2-0.4,1.7c-0.3,0.5-0.7,0.9-1.2,1.1c-0.5,0.3-1.1,0.4-1.7,0.4c-1.1,0-2-0.4-2.6-1.1
		c-0.6-0.8-0.9-1.8-0.9-3.2c0-1.3,0.3-2.4,0.8-3.1c0.5-0.8,1.4-1.3,2.5-1.5l3-0.7l0.2,1.1l-2.7,0.6c-0.8,0.2-1.5,0.5-1.9,1
		c-0.4,0.4-0.7,1.1-0.7,1.9c0.3-0.4,0.6-0.7,1.1-1C17.7,176.2,18.2,176.1,18.8,176.1z M18.5,181.5c0.4,0,0.8-0.1,1.1-0.3
		c0.3-0.2,0.6-0.4,0.8-0.8c0.2-0.3,0.3-0.7,0.3-1.1c0-0.6-0.2-1.2-0.6-1.6c-0.4-0.4-0.9-0.6-1.5-0.6c-0.6,0-1.2,0.2-1.6,0.6
		c-0.4,0.4-0.6,0.9-0.6,1.6c0,0.4,0.1,0.8,0.3,1.1c0.2,0.3,0.4,0.6,0.8,0.8C17.8,181.4,18.1,181.5,18.5,181.5z M26.5,178.1
		c0.8,0,1.4,0.2,1.9,0.6c0.4,0.4,0.6,0.9,0.6,1.6c0,0.7-0.2,1.2-0.7,1.6c-0.5,0.4-1.1,0.6-2,0.5l-2.7,0v-6.5h1.2v2.2L26.5,178.1z
		 M30,175.9h1.2v6.5H30V175.9z M26.2,181.5c0.5,0,0.9-0.1,1.2-0.3c0.3-0.2,0.4-0.5,0.4-1c0-0.4-0.1-0.7-0.4-0.9
		c-0.3-0.2-0.7-0.3-1.2-0.3l-1.5,0v2.5L26.2,181.5z M39,175.9v6.5h-1.2v-5.5H35l-0.1,1.4c0,0.9-0.1,1.6-0.2,2.2
		c-0.1,0.6-0.3,1-0.6,1.4c-0.3,0.4-0.6,0.5-1.1,0.5c-0.2,0-0.5,0-0.7-0.1l0.1-1c0.1,0,0.2,0,0.3,0c0.3,0,0.6-0.1,0.7-0.4
		c0.2-0.3,0.3-0.6,0.3-1c0-0.4,0.1-0.9,0.1-1.7l0.1-2.4H39z M47.8,181.3v2.5h-1.1v-1.5h-5.4v1.5h-1.1v-2.5h0.3
		c0.4,0,0.7-0.3,0.9-0.9c0.2-0.6,0.3-1.4,0.3-2.4l0.1-2.2h5v5.5H47.8z M42.8,178.2c0,0.8-0.1,1.5-0.2,2c-0.1,0.5-0.3,0.9-0.6,1.1
		h3.6v-4.4h-2.8L42.8,178.2z M51.7,175.8c0.9,0,1.6,0.2,2.1,0.7c0.5,0.4,0.7,1.1,0.7,2v3.9h-1.1v-0.9c-0.2,0.3-0.5,0.5-0.8,0.7
		c-0.4,0.2-0.8,0.2-1.3,0.2c-0.7,0-1.3-0.2-1.7-0.5c-0.4-0.4-0.6-0.8-0.6-1.4s0.2-1,0.6-1.4c0.4-0.4,1.1-0.5,2-0.5h1.9v-0.2
		c0-0.5-0.1-0.9-0.4-1.2c-0.3-0.3-0.7-0.4-1.3-0.4c-0.4,0-0.8,0.1-1.1,0.2c-0.4,0.1-0.7,0.3-0.9,0.5l-0.5-0.9
		c0.3-0.3,0.7-0.5,1.2-0.6C50.7,175.9,51.2,175.8,51.7,175.8z M51.4,181.5c0.4,0,0.8-0.1,1.2-0.3c0.3-0.2,0.6-0.5,0.7-0.9v-0.9h-1.8
		c-1,0-1.5,0.3-1.5,1c0,0.3,0.1,0.6,0.4,0.8C50.6,181.4,51,181.5,51.4,181.5z M62.3,175.9l-3.1,7.1c-0.3,0.7-0.6,1.1-1,1.4
		c-0.4,0.3-0.8,0.4-1.3,0.4c-0.3,0-0.6-0.1-0.9-0.2c-0.3-0.1-0.5-0.2-0.7-0.4l0.5-0.9c0.3,0.3,0.7,0.5,1.2,0.5
		c0.3,0,0.5-0.1,0.7-0.2c0.2-0.1,0.4-0.4,0.5-0.8l0.2-0.5l-2.9-6.5h1.2l2.3,5.2l2.2-5.2H62.3z M69.3,179.6H68v2.7h-1.2v-6.5H68v2.7
		h1.4l2.1-2.7h1.3l-2.5,3.1l2.6,3.4h-1.4L69.3,179.6z M79.8,179.2c0,0.1,0,0.2,0,0.4h-5.3c0.1,0.6,0.3,1,0.7,1.4
		c0.4,0.3,1,0.5,1.6,0.5c0.8,0,1.4-0.3,1.9-0.8l0.6,0.8c-0.3,0.3-0.7,0.6-1.1,0.8c-0.4,0.2-0.9,0.3-1.5,0.3c-0.7,0-1.3-0.1-1.8-0.4
		c-0.5-0.3-0.9-0.7-1.2-1.2c-0.3-0.5-0.4-1.1-0.4-1.7c0-0.6,0.1-1.2,0.4-1.7c0.3-0.5,0.7-0.9,1.2-1.2c0.5-0.3,1.1-0.4,1.7-0.4
		s1.2,0.1,1.7,0.4c0.5,0.3,0.9,0.7,1.1,1.2C79.6,177.9,79.8,178.5,79.8,179.2z M76.6,176.8c-0.6,0-1,0.2-1.4,0.5
		c-0.4,0.3-0.6,0.8-0.7,1.3h4.2c-0.1-0.5-0.3-1-0.7-1.3C77.6,177,77.1,176.8,76.6,176.8z M85,175.8c0.6,0,1.2,0.1,1.7,0.4
		c0.5,0.3,0.9,0.7,1.2,1.2c0.3,0.5,0.4,1.1,0.4,1.7c0,0.7-0.1,1.2-0.4,1.7c-0.3,0.5-0.7,0.9-1.2,1.2c-0.5,0.3-1.1,0.4-1.7,0.4
		c-0.5,0-0.9-0.1-1.3-0.3c-0.4-0.2-0.7-0.4-1-0.8v3.3h-1.2v-8.9h1.1v1c0.3-0.4,0.6-0.6,1-0.8C84.1,175.9,84.6,175.8,85,175.8z
		 M84.9,181.4c0.4,0,0.8-0.1,1.1-0.3c0.3-0.2,0.6-0.5,0.8-0.8c0.2-0.3,0.3-0.8,0.3-1.2s-0.1-0.8-0.3-1.2c-0.2-0.4-0.4-0.6-0.8-0.8
		c-0.3-0.2-0.7-0.3-1.1-0.3c-0.4,0-0.8,0.1-1.1,0.3c-0.3,0.2-0.6,0.5-0.8,0.8c-0.2,0.3-0.3,0.7-0.3,1.2s0.1,0.8,0.3,1.2
		c0.2,0.3,0.4,0.6,0.8,0.8C84.2,181.3,84.5,181.4,84.9,181.4z M95.9,179.2c0,0.1,0,0.2,0,0.4h-5.3c0.1,0.6,0.3,1,0.7,1.4
		c0.4,0.3,1,0.5,1.6,0.5c0.8,0,1.4-0.3,1.9-0.8l0.6,0.8c-0.3,0.3-0.7,0.6-1.1,0.8c-0.4,0.2-0.9,0.3-1.5,0.3c-0.7,0-1.3-0.1-1.8-0.4
		c-0.5-0.3-0.9-0.7-1.2-1.2c-0.3-0.5-0.4-1.1-0.4-1.7c0-0.6,0.1-1.2,0.4-1.7c0.3-0.5,0.7-0.9,1.2-1.2c0.5-0.3,1.1-0.4,1.7-0.4
		s1.2,0.1,1.7,0.4c0.5,0.3,0.9,0.7,1.1,1.2C95.7,177.9,95.9,178.5,95.9,179.2z M92.7,176.8c-0.6,0-1,0.2-1.4,0.5
		c-0.4,0.3-0.6,0.8-0.7,1.3h4.2c-0.1-0.5-0.3-1-0.7-1.3C93.7,177,93.2,176.8,92.7,176.8z M100.2,179.6h-1.3v2.7h-1.2v-6.5h1.2v2.7
		h1.4l2.1-2.7h1.3l-2.5,3.1l2.6,3.4h-1.4L100.2,179.6z M105.3,182.4c-0.2,0-0.4-0.1-0.6-0.2c-0.2-0.2-0.2-0.4-0.2-0.6
		c0-0.2,0.1-0.4,0.2-0.6c0.2-0.2,0.4-0.2,0.6-0.2s0.4,0.1,0.6,0.2c0.2,0.2,0.2,0.4,0.2,0.6c0,0.2-0.1,0.4-0.2,0.6
		C105.7,182.4,105.5,182.4,105.3,182.4z M114.2,178.6h-1.8v3.8h-1.2v-8.6h1.2v3.7h1.8l2.7-3.7h1.3l-3.1,4.1l3.2,4.4H117L114.2,178.6
		z M119,181.3v2.9h-1.1v-1.9H117v-1.1H119z M122.4,175.8c0.9,0,1.6,0.2,2.1,0.7c0.5,0.4,0.7,1.1,0.7,2v3.9h-1.1v-0.9
		c-0.2,0.3-0.5,0.5-0.8,0.7c-0.4,0.2-0.8,0.2-1.3,0.2c-0.7,0-1.3-0.2-1.7-0.5c-0.4-0.4-0.6-0.8-0.6-1.4s0.2-1,0.6-1.4
		c0.4-0.4,1.1-0.5,2-0.5h1.9v-0.2c0-0.5-0.1-0.9-0.4-1.2c-0.3-0.3-0.7-0.4-1.3-0.4c-0.4,0-0.8,0.1-1.1,0.2c-0.4,0.1-0.7,0.3-0.9,0.5
		l-0.5-0.9c0.3-0.3,0.7-0.5,1.2-0.6C121.4,175.9,121.9,175.8,122.4,175.8z M122.1,181.5c0.4,0,0.8-0.1,1.2-0.3
		c0.3-0.2,0.6-0.5,0.7-0.9v-0.9h-1.8c-1,0-1.5,0.3-1.5,1c0,0.3,0.1,0.6,0.4,0.8C121.3,181.4,121.7,181.5,122.1,181.5z M130.6,176.1
		c0.6,0,1.1,0.1,1.6,0.4c0.5,0.3,0.8,0.6,1.1,1.1c0.3,0.5,0.4,1,0.4,1.6c0,0.6-0.1,1.2-0.4,1.7c-0.3,0.5-0.7,0.9-1.2,1.1
		c-0.5,0.3-1.1,0.4-1.7,0.4c-1.1,0-2-0.4-2.6-1.1c-0.6-0.8-0.9-1.8-0.9-3.2c0-1.3,0.3-2.4,0.8-3.1c0.5-0.8,1.4-1.3,2.5-1.5l3-0.7
		l0.2,1.1l-2.7,0.6c-0.8,0.2-1.5,0.5-1.9,1c-0.4,0.4-0.7,1.1-0.7,1.9c0.3-0.4,0.6-0.7,1.1-1C129.5,176.2,130,176.1,130.6,176.1z
		 M130.4,181.5c0.4,0,0.8-0.1,1.1-0.3c0.3-0.2,0.6-0.4,0.8-0.8c0.2-0.3,0.3-0.7,0.3-1.1c0-0.6-0.2-1.2-0.6-1.6
		c-0.4-0.4-0.9-0.6-1.5-0.6s-1.2,0.2-1.6,0.6c-0.4,0.4-0.6,0.9-0.6,1.6c0,0.4,0.1,0.8,0.3,1.1c0.2,0.3,0.4,0.6,0.8,0.8
		C129.6,181.4,130,181.5,130.4,181.5z M138.3,178.1c0.8,0,1.4,0.2,1.9,0.6c0.4,0.4,0.6,0.9,0.6,1.6c0,0.7-0.2,1.2-0.7,1.6
		c-0.5,0.4-1.1,0.6-2,0.5l-2.7,0v-6.5h1.2v2.2L138.3,178.1z M141.8,175.9h1.2v6.5h-1.2V175.9z M138,181.5c0.5,0,0.9-0.1,1.2-0.3
		c0.3-0.2,0.4-0.5,0.4-1c0-0.4-0.1-0.7-0.4-0.9c-0.3-0.2-0.7-0.3-1.2-0.3l-1.5,0v2.5L138,181.5z M150.8,175.9v6.5h-1.2v-5.5h-2.8
		l-0.1,1.4c0,0.9-0.1,1.6-0.2,2.2c-0.1,0.6-0.3,1-0.6,1.4c-0.3,0.4-0.6,0.5-1.1,0.5c-0.2,0-0.5,0-0.7-0.1l0.1-1c0.1,0,0.2,0,0.3,0
		c0.3,0,0.6-0.1,0.7-0.4c0.2-0.3,0.3-0.6,0.3-1c0-0.4,0.1-0.9,0.1-1.7l0.1-2.4H150.8z M159.7,181.3v2.5h-1.1v-1.5h-5.4v1.5H152v-2.5
		h0.3c0.4,0,0.7-0.3,0.9-0.9c0.2-0.6,0.3-1.4,0.3-2.4l0.1-2.2h5v5.5H159.7z M154.6,178.2c0,0.8-0.1,1.5-0.2,2
		c-0.1,0.5-0.3,0.9-0.6,1.1h3.6v-4.4h-2.8L154.6,178.2z M163.5,175.8c0.9,0,1.6,0.2,2.1,0.7c0.5,0.4,0.7,1.1,0.7,2v3.9h-1.1v-0.9
		c-0.2,0.3-0.5,0.5-0.8,0.7c-0.4,0.2-0.8,0.2-1.3,0.2c-0.7,0-1.3-0.2-1.7-0.5c-0.4-0.4-0.6-0.8-0.6-1.4s0.2-1,0.6-1.4
		c0.4-0.4,1.1-0.5,2-0.5h1.9v-0.2c0-0.5-0.1-0.9-0.4-1.2c-0.3-0.3-0.7-0.4-1.3-0.4c-0.4,0-0.8,0.1-1.1,0.2c-0.4,0.1-0.7,0.3-0.9,0.5
		l-0.5-0.9c0.3-0.3,0.7-0.5,1.2-0.6C162.5,175.9,163,175.8,163.5,175.8z M163.2,181.5c0.4,0,0.8-0.1,1.2-0.3
		c0.3-0.2,0.6-0.5,0.7-0.9v-0.9h-1.8c-1,0-1.5,0.3-1.5,1c0,0.3,0.1,0.6,0.4,0.8C162.4,181.4,162.8,181.5,163.2,181.5z M174.2,175.9
		L171,183c-0.3,0.7-0.6,1.1-1,1.4c-0.4,0.3-0.8,0.4-1.3,0.4c-0.3,0-0.6-0.1-0.9-0.2c-0.3-0.1-0.5-0.2-0.7-0.4l0.5-0.9
		c0.3,0.3,0.7,0.5,1.2,0.5c0.3,0,0.5-0.1,0.7-0.2c0.2-0.1,0.4-0.4,0.5-0.8l0.2-0.5l-2.9-6.5h1.2l2.3,5.2l2.2-5.2H174.2z M4,198.4
		v2.3H2.8v-2.3L0,191.9h1.2l2.2,5.2l2.3-5.2h1.1L4,198.4z M0.8,197.9h5.3v0.8H0.8V197.9z M11.4,195c0.4,0.1,0.8,0.3,1,0.6
		c0.2,0.3,0.4,0.6,0.4,0.9c0,0.4-0.1,0.7-0.4,1c-0.3,0.3-0.6,0.5-1.1,0.7c-0.5,0.2-1,0.2-1.5,0.2c-0.5,0-1-0.1-1.4-0.2
		c-0.5-0.1-0.9-0.3-1.2-0.5l0.4-0.9c0.3,0.2,0.7,0.4,1.1,0.5c0.4,0.1,0.8,0.2,1.2,0.2c0.6,0,1-0.1,1.3-0.3c0.3-0.2,0.5-0.5,0.5-0.8
		c0-0.3-0.1-0.5-0.4-0.7c-0.3-0.2-0.6-0.2-1.1-0.2H8.9v-0.8H10c0.4,0,0.8-0.1,1-0.2s0.4-0.4,0.4-0.6c0-0.3-0.2-0.5-0.5-0.7
		c-0.3-0.2-0.7-0.2-1.2-0.2c-0.6,0-1.3,0.2-2,0.5l-0.3-0.9c0.8-0.4,1.6-0.6,2.5-0.6c0.5,0,1,0.1,1.4,0.2c0.4,0.1,0.7,0.4,1,0.6
		c0.2,0.3,0.4,0.6,0.4,0.9c0,0.3-0.1,0.6-0.3,0.9C12.1,194.7,11.8,194.9,11.4,195z M16.9,191.8c0.9,0,1.6,0.2,2.1,0.7
		c0.5,0.4,0.7,1.1,0.7,2v3.9h-1.1v-0.9c-0.2,0.3-0.5,0.5-0.8,0.7c-0.4,0.2-0.8,0.2-1.3,0.2c-0.7,0-1.3-0.2-1.7-0.5
		c-0.4-0.4-0.6-0.8-0.6-1.4s0.2-1,0.6-1.4c0.4-0.4,1.1-0.5,2-0.5h1.9v-0.2c0-0.5-0.1-0.9-0.4-1.2c-0.3-0.3-0.7-0.4-1.3-0.4
		c-0.4,0-0.8,0.1-1.1,0.2c-0.4,0.1-0.7,0.3-0.9,0.5l-0.5-0.9c0.3-0.3,0.7-0.5,1.2-0.6C15.9,191.9,16.4,191.8,16.9,191.8z
		 M16.6,197.5c0.4,0,0.8-0.1,1.2-0.3c0.3-0.2,0.6-0.5,0.7-0.9v-0.9h-1.8c-1,0-1.5,0.3-1.5,1c0,0.3,0.1,0.6,0.4,0.8
		C15.8,197.4,16.2,197.5,16.6,197.5z M24.3,195.6H23v2.7h-1.2v-6.5H23v2.7h1.4l2.1-2.7h1.3l-2.5,3.1l2.6,3.4h-1.4L24.3,195.6z
		 M28.4,197.4v2.4h-1.1v-1.4h-0.8v-1H28.4z M33.8,192.9h-2.4v5.5h-1.2v-5.5h-2.4v-1h5.9V192.9z M37.9,194.1c0.8,0,1.4,0.2,1.9,0.6
		c0.4,0.4,0.6,0.9,0.6,1.6c0,0.7-0.2,1.2-0.7,1.6c-0.5,0.4-1.1,0.6-2,0.5l-2.7,0v-6.5h1.2v2.2L37.9,194.1z M41.4,191.9h1.2v6.5h-1.2
		V191.9z M37.7,197.5c0.5,0,0.9-0.1,1.2-0.3c0.3-0.2,0.4-0.5,0.4-1c0-0.4-0.1-0.7-0.4-0.9c-0.3-0.2-0.7-0.3-1.2-0.3l-1.5,0v2.5
		L37.7,197.5z M46.2,192.9v2.2H49v0.8h-2.8v2.4h-1.2V196h-0.8v-0.8h0.8v-3.3h4.8v1H46.2z M54.1,194.1c0.8,0,1.4,0.2,1.9,0.6
		c0.4,0.4,0.6,0.9,0.6,1.6c0,0.7-0.2,1.2-0.7,1.6c-0.5,0.4-1.1,0.6-2,0.5l-2.7,0v-6.5h1.2v2.2L54.1,194.1z M57.6,191.9h1.2v6.5h-1.2
		V191.9z M53.8,197.5c0.5,0,0.9-0.1,1.2-0.3c0.3-0.2,0.4-0.5,0.4-1c0-0.4-0.1-0.7-0.4-0.9c-0.3-0.2-0.7-0.3-1.2-0.3l-1.5,0v2.5
		L53.8,197.5z M63.2,194.6h6.1v0.8h-6.1V194.6z M75.8,189.8v8.6h-1.2v-7.5h-1.9v-1.1H75.8z M83.8,191.8c0.9,0,1.6,0.2,2.1,0.7
		c0.5,0.4,0.7,1.1,0.7,2v3.9h-1.1v-0.9c-0.2,0.3-0.5,0.5-0.8,0.7c-0.4,0.2-0.8,0.2-1.3,0.2c-0.7,0-1.3-0.2-1.7-0.5
		c-0.4-0.4-0.6-0.8-0.6-1.4s0.2-1,0.6-1.4c0.4-0.4,1.1-0.5,2-0.5h1.9v-0.2c0-0.5-0.1-0.9-0.4-1.2c-0.3-0.3-0.7-0.4-1.3-0.4
		c-0.4,0-0.8,0.1-1.1,0.2c-0.4,0.1-0.7,0.3-0.9,0.5l-0.5-0.9c0.3-0.3,0.7-0.5,1.2-0.6C82.8,191.9,83.3,191.8,83.8,191.8z
		 M83.6,197.5c0.4,0,0.8-0.1,1.2-0.3c0.3-0.2,0.6-0.5,0.7-0.9v-0.9h-1.8c-1,0-1.5,0.3-1.5,1c0,0.3,0.1,0.6,0.4,0.8
		C82.8,197.4,83.1,197.5,83.6,197.5z M88.7,191.9h1.2v4.7l4-4.7h1.1v6.5h-1.2v-4.7l-4,4.7h-1.1V191.9z M91.8,191
		c-0.6,0-1.1-0.1-1.4-0.4c-0.3-0.3-0.5-0.7-0.5-1.3h0.8c0,0.3,0.1,0.5,0.3,0.7c0.2,0.2,0.5,0.3,0.8,0.3s0.6-0.1,0.8-0.3
		c0.2-0.2,0.3-0.4,0.3-0.7h0.8c0,0.5-0.2,1-0.5,1.3C92.8,190.9,92.4,191,91.8,191z M97.5,198.4c-0.2,0-0.4-0.1-0.6-0.2
		c-0.2-0.2-0.2-0.4-0.2-0.6c0-0.2,0.1-0.4,0.2-0.6c0.2-0.2,0.4-0.2,0.6-0.2c0.2,0,0.4,0.1,0.6,0.2c0.2,0.2,0.2,0.4,0.2,0.6
		c0,0.2-0.1,0.4-0.2,0.6C97.9,198.4,97.7,198.4,97.5,198.4z M106.5,194.6h-1.8v3.8h-1.2v-8.6h1.2v3.7h1.8l2.7-3.7h1.3l-3.1,4.1
		l3.2,4.4h-1.4L106.5,194.6z M111.2,197.3v2.9h-1.1v-1.9h-0.8v-1.1H111.2z M114.6,191.8c0.9,0,1.6,0.2,2.1,0.7
		c0.5,0.4,0.7,1.1,0.7,2v3.9h-1.1v-0.9c-0.2,0.3-0.5,0.5-0.8,0.7c-0.4,0.2-0.8,0.2-1.3,0.2c-0.7,0-1.3-0.2-1.7-0.5
		c-0.4-0.4-0.6-0.8-0.6-1.4s0.2-1,0.6-1.4c0.4-0.4,1.1-0.5,2-0.5h1.9v-0.2c0-0.5-0.1-0.9-0.4-1.2c-0.3-0.3-0.7-0.4-1.3-0.4
		c-0.4,0-0.8,0.1-1.1,0.2c-0.4,0.1-0.7,0.3-0.9,0.5l-0.5-0.9c0.3-0.3,0.7-0.5,1.2-0.6C113.6,191.9,114.1,191.8,114.6,191.8z
		 M114.3,197.5c0.4,0,0.8-0.1,1.2-0.3c0.3-0.2,0.6-0.5,0.7-0.9v-0.9h-1.8c-1,0-1.5,0.3-1.5,1c0,0.3,0.1,0.6,0.4,0.8
		C113.5,197.4,113.9,197.5,114.3,197.5z M125.4,195.6h-1.3v2.7H123v-2.7h-1.3l-1.8,2.7h-1.4l2.2-3.4l-2.1-3.1h1.2l1.7,2.7h1.3v-2.7
		h1.2v2.7h1.3l1.7-2.7h1.3l-2.1,3.1l2.2,3.3h-1.4L125.4,195.6z M135.5,195.2c0,0.1,0,0.2,0,0.4h-5.3c0.1,0.6,0.3,1,0.7,1.4
		c0.4,0.3,1,0.5,1.6,0.5c0.8,0,1.4-0.3,1.9-0.8l0.6,0.8c-0.3,0.3-0.7,0.6-1.1,0.8c-0.4,0.2-0.9,0.3-1.5,0.3c-0.7,0-1.3-0.1-1.8-0.4
		c-0.5-0.3-0.9-0.7-1.2-1.2c-0.3-0.5-0.4-1.1-0.4-1.7c0-0.6,0.1-1.2,0.4-1.7c0.3-0.5,0.7-0.9,1.2-1.2c0.5-0.3,1.1-0.4,1.7-0.4
		c0.6,0,1.2,0.1,1.6,0.4c0.5,0.3,0.9,0.7,1.1,1.2C135.4,193.9,135.5,194.5,135.5,195.2z M132.3,192.8c-0.6,0-1,0.2-1.4,0.5
		c-0.4,0.3-0.6,0.8-0.7,1.3h4.2c-0.1-0.5-0.3-1-0.7-1.3C133.3,193,132.9,192.8,132.3,192.8z M141.9,192.9h-2.4v5.5h-1.2v-5.5H136v-1
		h5.9V192.9z M149.7,192.1c0.6,0,1.1,0.1,1.6,0.4c0.5,0.3,0.8,0.6,1.1,1.1c0.3,0.5,0.4,1,0.4,1.6c0,0.6-0.1,1.2-0.4,1.7
		c-0.3,0.5-0.7,0.9-1.2,1.1c-0.5,0.3-1.1,0.4-1.7,0.4c-1.1,0-2-0.4-2.6-1.1c-0.6-0.8-0.9-1.8-0.9-3.2c0-1.3,0.3-2.4,0.8-3.1
		c0.5-0.8,1.4-1.3,2.5-1.5l3-0.7l0.2,1.1l-2.7,0.6c-0.8,0.2-1.5,0.5-1.9,1c-0.4,0.4-0.7,1.1-0.7,1.9c0.3-0.4,0.6-0.7,1.1-1
		C148.6,192.2,149.1,192.1,149.7,192.1z M149.5,197.5c0.4,0,0.8-0.1,1.1-0.3c0.3-0.2,0.6-0.4,0.8-0.8c0.2-0.3,0.3-0.7,0.3-1.1
		c0-0.6-0.2-1.2-0.6-1.6c-0.4-0.4-0.9-0.6-1.5-0.6c-0.6,0-1.2,0.2-1.6,0.6c-0.4,0.4-0.6,0.9-0.6,1.6c0,0.4,0.1,0.8,0.3,1.1
		c0.2,0.3,0.4,0.6,0.8,0.8C148.7,197.4,149.1,197.5,149.5,197.5z M157.2,198.4c-0.6,0-1.2-0.1-1.7-0.4c-0.5-0.3-0.9-0.7-1.2-1.2
		c-0.3-0.5-0.4-1.1-0.4-1.7s0.1-1.2,0.4-1.7c0.3-0.5,0.7-0.9,1.2-1.2c0.5-0.3,1.1-0.4,1.7-0.4c0.6,0,1.2,0.1,1.7,0.4
		c0.5,0.3,0.9,0.7,1.2,1.2c0.3,0.5,0.4,1.1,0.4,1.7s-0.1,1.2-0.4,1.7c-0.3,0.5-0.7,0.9-1.2,1.2C158.5,198.3,157.9,198.4,157.2,198.4
		z M157.2,197.4c0.4,0,0.8-0.1,1.1-0.3c0.3-0.2,0.6-0.5,0.8-0.8c0.2-0.3,0.3-0.8,0.3-1.2s-0.1-0.8-0.3-1.2c-0.2-0.4-0.4-0.6-0.8-0.8
		c-0.3-0.2-0.7-0.3-1.1-0.3c-0.4,0-0.8,0.1-1.1,0.3c-0.3,0.2-0.6,0.5-0.8,0.8c-0.2,0.3-0.3,0.7-0.3,1.2s0.1,0.8,0.3,1.2
		c0.2,0.3,0.5,0.6,0.8,0.8C156.5,197.3,156.8,197.4,157.2,197.4z M167.8,191.9v6.5h-1.2v-5.5h-2.8l-0.1,1.4c0,0.9-0.1,1.6-0.2,2.2
		c-0.1,0.6-0.3,1-0.6,1.4c-0.3,0.4-0.6,0.5-1.1,0.5c-0.2,0-0.5,0-0.7-0.1l0.1-1c0.1,0,0.2,0,0.3,0c0.3,0,0.6-0.1,0.7-0.4
		c0.2-0.3,0.3-0.6,0.3-1c0-0.4,0.1-0.9,0.1-1.7l0.1-2.4H167.8z M171.5,192.9v2.2h2.8v0.8h-2.8v2.4h-1.2V196h-0.8v-0.8h0.8v-3.3h4.8
		v1H171.5z M178.7,191.8c0.9,0,1.6,0.2,2.1,0.7c0.5,0.4,0.7,1.1,0.7,2v3.9h-1.1v-0.9c-0.2,0.3-0.5,0.5-0.8,0.7
		c-0.4,0.2-0.8,0.2-1.3,0.2c-0.7,0-1.3-0.2-1.7-0.5c-0.4-0.4-0.6-0.8-0.6-1.4s0.2-1,0.6-1.4c0.4-0.4,1.1-0.5,2-0.5h1.9v-0.2
		c0-0.5-0.1-0.9-0.4-1.2c-0.3-0.3-0.7-0.4-1.3-0.4c-0.4,0-0.8,0.1-1.1,0.2c-0.4,0.1-0.7,0.3-0.9,0.5l-0.5-0.9
		c0.3-0.3,0.7-0.5,1.2-0.6C177.7,191.9,178.2,191.8,178.7,191.8z M178.4,197.5c0.4,0,0.8-0.1,1.2-0.3c0.3-0.2,0.6-0.5,0.7-0.9v-0.9
		h-1.8c-1,0-1.5,0.3-1.5,1c0,0.3,0.1,0.6,0.4,0.8C177.6,197.4,178,197.5,178.4,197.5z M183.6,191.9h1.2v2.8h3.7v-2.8h1.2v6.5h-1.2
		v-2.7h-3.7v2.7h-1.2V191.9z M7,211.6H5.7v2.7H4.5v-2.7H3.3l-1.8,2.7H0.1l2.2-3.4l-2.1-3.1h1.2l1.7,2.7h1.3v-2.7h1.2v2.7H7l1.7-2.7
		H10L7.9,211l2.2,3.3H8.8L7,211.6z M13.6,207.8c0.9,0,1.6,0.2,2.1,0.7c0.5,0.4,0.7,1.1,0.7,2v3.9h-1.1v-0.9
		c-0.2,0.3-0.5,0.5-0.8,0.7c-0.4,0.2-0.8,0.2-1.3,0.2c-0.7,0-1.3-0.2-1.7-0.5c-0.4-0.4-0.6-0.8-0.6-1.4s0.2-1,0.6-1.4
		c0.4-0.4,1.1-0.5,2-0.5h1.9v-0.2c0-0.5-0.1-0.9-0.4-1.2c-0.3-0.3-0.7-0.4-1.3-0.4c-0.4,0-0.8,0.1-1.1,0.2c-0.4,0.1-0.7,0.3-0.9,0.5
		l-0.5-0.9c0.3-0.3,0.7-0.5,1.2-0.6C12.6,207.9,13.1,207.8,13.6,207.8z M13.4,213.5c0.4,0,0.8-0.1,1.2-0.3c0.3-0.2,0.6-0.5,0.7-0.9
		v-0.9h-1.8c-1,0-1.5,0.3-1.5,1c0,0.3,0.1,0.6,0.4,0.8C12.6,213.4,12.9,213.5,13.4,213.5z M19.9,208.9v2.2h2.8v0.8h-2.8v2.4h-1.2
		V212h-0.8v-0.8h0.8v-3.3h4.8v1H19.9z M31,213.3v2.5h-1.1v-1.5h-5.4v1.5h-1.1v-2.5h0.3c0.4,0,0.7-0.3,0.9-0.9
		c0.2-0.6,0.3-1.4,0.3-2.4l0.1-2.2h5v5.5H31z M26,210.2c0,0.8-0.1,1.5-0.2,2c-0.1,0.5-0.3,0.9-0.6,1.1h3.6v-4.4H26L26,210.2z
		 M34.8,207.8c0.9,0,1.6,0.2,2.1,0.7c0.5,0.4,0.7,1.1,0.7,2v3.9h-1.1v-0.9c-0.2,0.3-0.5,0.5-0.8,0.7c-0.4,0.2-0.8,0.2-1.3,0.2
		c-0.7,0-1.3-0.2-1.7-0.5c-0.4-0.4-0.6-0.8-0.6-1.4s0.2-1,0.6-1.4c0.4-0.4,1.1-0.5,2-0.5h1.9v-0.2c0-0.5-0.1-0.9-0.4-1.2
		c-0.3-0.3-0.7-0.4-1.3-0.4c-0.4,0-0.8,0.1-1.1,0.2c-0.4,0.1-0.7,0.3-0.9,0.5l-0.5-0.9c0.3-0.3,0.7-0.5,1.2-0.6
		C33.8,207.9,34.3,207.8,34.8,207.8z M34.6,213.5c0.4,0,0.8-0.1,1.2-0.3c0.3-0.2,0.6-0.5,0.7-0.9v-0.9h-1.8c-1,0-1.5,0.3-1.5,1
		c0,0.3,0.1,0.6,0.4,0.8C33.8,213.4,34.1,213.5,34.6,213.5z M39.7,207.9h1.2v4.7l4-4.7h1.1v6.5h-1.2v-4.7l-4,4.7h-1.1V207.9z
		 M42.8,207c-0.6,0-1.1-0.1-1.4-0.4c-0.3-0.3-0.5-0.7-0.5-1.3h0.8c0,0.3,0.1,0.5,0.3,0.7c0.2,0.2,0.5,0.3,0.8,0.3
		c0.3,0,0.6-0.1,0.8-0.3c0.2-0.2,0.3-0.4,0.3-0.7h0.8c0,0.5-0.2,1-0.5,1.3C43.8,206.9,43.4,207,42.8,207z M54.8,213.3v2.5h-1.1v-1.5
		h-5.4v1.5h-1.1v-2.5h0.3c0.4,0,0.7-0.3,0.9-0.9c0.2-0.6,0.3-1.4,0.3-2.4l0.1-2.2h5v5.5H54.8z M49.8,210.2c0,0.8-0.1,1.5-0.2,2
		c-0.1,0.5-0.3,0.9-0.6,1.1h3.6v-4.4h-2.8L49.8,210.2z M58.6,207.8c0.9,0,1.6,0.2,2.1,0.7c0.5,0.4,0.7,1.1,0.7,2v3.9h-1.1v-0.9
		c-0.2,0.3-0.5,0.5-0.8,0.7c-0.4,0.2-0.8,0.2-1.3,0.2c-0.7,0-1.3-0.2-1.7-0.5c-0.4-0.4-0.6-0.8-0.6-1.4s0.2-1,0.6-1.4
		c0.4-0.4,1.1-0.5,2-0.5h1.9v-0.2c0-0.5-0.1-0.9-0.4-1.2c-0.3-0.3-0.7-0.4-1.3-0.4c-0.4,0-0.8,0.1-1.1,0.2c-0.4,0.1-0.7,0.3-0.9,0.5
		l-0.5-0.9c0.3-0.3,0.7-0.5,1.2-0.6C57.6,207.9,58.1,207.8,58.6,207.8z M58.4,213.5c0.4,0,0.8-0.1,1.2-0.3c0.3-0.2,0.6-0.5,0.7-0.9
		v-0.9h-1.8c-1,0-1.5,0.3-1.5,1c0,0.3,0.1,0.6,0.4,0.8C57.6,213.4,57.9,213.5,58.4,213.5z M69.3,211.6H68v2.7h-1.2v-6.5H68v2.7h1.4
		l2.1-2.7h1.3l-2.5,3.1l2.6,3.4h-1.4L69.3,211.6z M73.4,213.4v2.4h-1.1v-1.4h-0.8v-1H73.4z M76.3,207.8c0.9,0,1.6,0.2,2.1,0.7
		c0.5,0.4,0.7,1.1,0.7,2v3.9H78v-0.9c-0.2,0.3-0.5,0.5-0.8,0.7c-0.4,0.2-0.8,0.2-1.3,0.2c-0.7,0-1.3-0.2-1.7-0.5
		c-0.4-0.4-0.6-0.8-0.6-1.4s0.2-1,0.6-1.4c0.4-0.4,1.1-0.5,2-0.5h1.9v-0.2c0-0.5-0.1-0.9-0.4-1.2c-0.3-0.3-0.7-0.4-1.3-0.4
		c-0.4,0-0.8,0.1-1.1,0.2c-0.4,0.1-0.7,0.3-0.9,0.5l-0.5-0.9c0.3-0.3,0.7-0.5,1.2-0.6C75.3,207.9,75.8,207.8,76.3,207.8z M76,213.5
		c0.4,0,0.8-0.1,1.2-0.3c0.3-0.2,0.6-0.5,0.7-0.9v-0.9h-1.8c-1,0-1.5,0.3-1.5,1c0,0.3,0.1,0.6,0.4,0.8
		C75.2,213.4,75.6,213.5,76,213.5z M84.5,208.1c0.6,0,1.1,0.1,1.6,0.4c0.5,0.3,0.8,0.6,1.1,1.1c0.3,0.5,0.4,1,0.4,1.6
		c0,0.6-0.1,1.2-0.4,1.7c-0.3,0.5-0.7,0.9-1.2,1.1c-0.5,0.3-1.1,0.4-1.7,0.4c-1.1,0-2-0.4-2.6-1.1c-0.6-0.8-0.9-1.8-0.9-3.2
		c0-1.3,0.3-2.4,0.8-3.1c0.5-0.8,1.4-1.3,2.5-1.5l3-0.7l0.2,1.1l-2.7,0.6c-0.8,0.2-1.5,0.5-1.9,1c-0.4,0.4-0.7,1.1-0.7,1.9
		c0.3-0.4,0.6-0.7,1.1-1C83.5,208.2,84,208.1,84.5,208.1z M84.3,213.5c0.4,0,0.8-0.1,1.1-0.3c0.3-0.2,0.6-0.4,0.8-0.8
		c0.2-0.3,0.3-0.7,0.3-1.1c0-0.6-0.2-1.2-0.6-1.6c-0.4-0.4-0.9-0.6-1.5-0.6c-0.6,0-1.2,0.2-1.6,0.6c-0.4,0.4-0.6,0.9-0.6,1.6
		c0,0.4,0.1,0.8,0.3,1.1c0.2,0.3,0.4,0.6,0.8,0.8C83.5,213.4,83.9,213.5,84.3,213.5z M92.2,210.1c0.8,0,1.4,0.2,1.9,0.6
		c0.4,0.4,0.6,0.9,0.6,1.6c0,0.7-0.2,1.2-0.7,1.6c-0.5,0.4-1.1,0.6-2,0.5l-2.7,0v-6.5h1.2v2.2L92.2,210.1z M95.7,207.9h1.2v6.5h-1.2
		V207.9z M91.9,213.5c0.5,0,0.9-0.1,1.2-0.3c0.3-0.2,0.4-0.5,0.4-1c0-0.4-0.1-0.7-0.4-0.9c-0.3-0.2-0.7-0.3-1.2-0.3l-1.5,0v2.5
		L91.9,213.5z M104.7,207.9v6.5h-1.2v-5.5h-2.8l-0.1,1.4c0,0.9-0.1,1.6-0.2,2.2c-0.1,0.6-0.3,1-0.6,1.4c-0.3,0.4-0.6,0.5-1.1,0.5
		c-0.2,0-0.5,0-0.7-0.1l0.1-1c0.1,0,0.2,0,0.3,0c0.3,0,0.6-0.1,0.7-0.4c0.2-0.3,0.3-0.6,0.3-1c0-0.4,0.1-0.9,0.1-1.7l0.1-2.4H104.7z
		 M113.6,213.3v2.5h-1.1v-1.5h-5.4v1.5H106v-2.5h0.3c0.4,0,0.7-0.3,0.9-0.9c0.2-0.6,0.3-1.4,0.3-2.4l0.1-2.2h5v5.5H113.6z
		 M108.5,210.2c0,0.8-0.1,1.5-0.2,2c-0.1,0.5-0.3,0.9-0.6,1.1h3.6v-4.4h-2.8L108.5,210.2z M117.4,207.8c0.9,0,1.6,0.2,2.1,0.7
		c0.5,0.4,0.7,1.1,0.7,2v3.9h-1.1v-0.9c-0.2,0.3-0.5,0.5-0.8,0.7c-0.4,0.2-0.8,0.2-1.3,0.2c-0.7,0-1.3-0.2-1.7-0.5
		c-0.4-0.4-0.6-0.8-0.6-1.4s0.2-1,0.6-1.4c0.4-0.4,1.1-0.5,2-0.5h1.9v-0.2c0-0.5-0.1-0.9-0.4-1.2c-0.3-0.3-0.7-0.4-1.3-0.4
		c-0.4,0-0.8,0.1-1.1,0.2c-0.4,0.1-0.7,0.3-0.9,0.5l-0.5-0.9c0.3-0.3,0.7-0.5,1.2-0.6C116.4,207.9,116.9,207.8,117.4,207.8z
		 M117.2,213.5c0.4,0,0.8-0.1,1.2-0.3c0.3-0.2,0.6-0.5,0.7-0.9v-0.9h-1.8c-1,0-1.5,0.3-1.5,1c0,0.3,0.1,0.6,0.4,0.8
		C116.4,213.4,116.7,213.5,117.2,213.5z M128.1,207.9L125,215c-0.3,0.7-0.6,1.1-1,1.4c-0.4,0.3-0.8,0.4-1.3,0.4
		c-0.3,0-0.6-0.1-0.9-0.2c-0.3-0.1-0.5-0.2-0.7-0.4l0.5-0.9c0.3,0.3,0.7,0.5,1.2,0.5c0.3,0,0.5-0.1,0.7-0.2c0.2-0.1,0.4-0.4,0.5-0.8
		l0.2-0.5l-2.9-6.5h1.2l2.3,5.2l2.2-5.2H128.1z M135.5,213.3v2.5h-1.1v-1.5H129v1.5h-1.1v-2.5h0.3c0.4,0,0.7-0.3,0.9-0.9
		c0.2-0.6,0.3-1.4,0.3-2.4l0.1-2.2h5v5.5H135.5z M130.5,210.2c0,0.8-0.1,1.5-0.2,2c-0.1,0.5-0.3,0.9-0.6,1.1h3.6v-4.4h-2.8
		L130.5,210.2z M140,210.1c0.8,0,1.4,0.2,1.9,0.6c0.4,0.4,0.6,0.9,0.6,1.6c0,0.7-0.2,1.2-0.7,1.6c-0.5,0.4-1.1,0.6-2,0.5l-2.7,0
		v-6.5h1.2v2.2L140,210.1z M143.5,207.9h1.2v6.5h-1.2V207.9z M139.7,213.5c0.5,0,0.9-0.1,1.2-0.3c0.3-0.2,0.4-0.5,0.4-1
		c0-0.4-0.1-0.7-0.4-0.9c-0.3-0.2-0.7-0.3-1.2-0.3l-1.5,0v2.5L139.7,213.5z M3.6,227.6H2.2v2.7H1.1v-6.5h1.2v2.7h1.4l2.1-2.7H7
		L4.5,227l2.6,3.4H5.8L3.6,227.6z M7.6,229.4v2.4H6.6v-1.4H5.8v-1H7.6z M10.6,223.8c0.9,0,1.6,0.2,2.1,0.7c0.5,0.4,0.7,1.1,0.7,2
		v3.9h-1.1v-0.9c-0.2,0.3-0.5,0.5-0.8,0.7c-0.4,0.2-0.8,0.2-1.3,0.2c-0.7,0-1.3-0.2-1.7-0.5c-0.4-0.4-0.6-0.8-0.6-1.4s0.2-1,0.6-1.4
		c0.4-0.4,1.1-0.5,2-0.5h1.9v-0.2c0-0.5-0.1-0.9-0.4-1.2c-0.3-0.3-0.7-0.4-1.3-0.4c-0.4,0-0.8,0.1-1.1,0.2c-0.4,0.1-0.7,0.3-0.9,0.5
		l-0.5-0.9c0.3-0.3,0.7-0.5,1.2-0.6C9.5,223.9,10,223.8,10.6,223.8z M10.3,229.5c0.4,0,0.8-0.1,1.2-0.3c0.3-0.2,0.6-0.5,0.7-0.9
		v-0.9h-1.8c-1,0-1.5,0.3-1.5,1c0,0.3,0.1,0.6,0.4,0.8C9.5,229.4,9.8,229.5,10.3,229.5z M15.5,223.9h1.2v4.7l4-4.7h1.1v6.5h-1.2
		v-4.7l-4,4.7h-1.1V223.9z M18.5,223c-0.6,0-1.1-0.1-1.4-0.4c-0.3-0.3-0.5-0.7-0.5-1.3h0.8c0,0.3,0.1,0.5,0.3,0.7
		c0.2,0.2,0.5,0.3,0.8,0.3s0.6-0.1,0.8-0.3c0.2-0.2,0.3-0.4,0.3-0.7h0.8c0,0.5-0.2,1-0.5,1.3C19.5,222.9,19.1,223,18.5,223z
		 M28.8,224.9h-2.4v5.5h-1.2v-5.5h-2.4v-1h5.9V224.9z M32.3,223.8c0.9,0,1.6,0.2,2.1,0.7c0.5,0.4,0.7,1.1,0.7,2v3.9h-1.1v-0.9
		c-0.2,0.3-0.5,0.5-0.8,0.7c-0.4,0.2-0.8,0.2-1.3,0.2c-0.7,0-1.3-0.2-1.7-0.5c-0.4-0.4-0.6-0.8-0.6-1.4s0.2-1,0.6-1.4
		c0.4-0.4,1.1-0.5,2-0.5h1.9v-0.2c0-0.5-0.1-0.9-0.4-1.2c-0.3-0.3-0.7-0.4-1.3-0.4c-0.4,0-0.8,0.1-1.1,0.2c-0.4,0.1-0.7,0.3-0.9,0.5
		l-0.5-0.9c0.3-0.3,0.7-0.5,1.2-0.6C31.3,223.9,31.8,223.8,32.3,223.8z M32,229.5c0.4,0,0.8-0.1,1.2-0.3c0.3-0.2,0.6-0.5,0.7-0.9
		v-0.9h-1.8c-1,0-1.5,0.3-1.5,1c0,0.3,0.1,0.6,0.4,0.8C31.2,229.4,31.6,229.5,32,229.5z M42.7,223.9v6.5h-1.2v-5.5h-2.8l-0.1,1.4
		c0,0.9-0.1,1.6-0.2,2.2c-0.1,0.6-0.3,1-0.6,1.4c-0.3,0.4-0.6,0.5-1.1,0.5c-0.2,0-0.5,0-0.7-0.1l0.1-1c0.1,0,0.2,0,0.3,0
		c0.3,0,0.6-0.1,0.7-0.4c0.2-0.3,0.3-0.6,0.3-1c0-0.4,0.1-0.9,0.1-1.7l0.1-2.4H42.7z M47.3,223.8c0.9,0,1.6,0.2,2.1,0.7
		c0.5,0.4,0.7,1.1,0.7,2v3.9H49v-0.9c-0.2,0.3-0.5,0.5-0.8,0.7c-0.4,0.2-0.8,0.2-1.3,0.2c-0.7,0-1.3-0.2-1.7-0.5
		c-0.4-0.4-0.6-0.8-0.6-1.4s0.2-1,0.6-1.4c0.4-0.4,1.1-0.5,2-0.5h1.9v-0.2c0-0.5-0.1-0.9-0.4-1.2c-0.3-0.3-0.7-0.4-1.3-0.4
		c-0.4,0-0.8,0.1-1.1,0.2c-0.4,0.1-0.7,0.3-0.9,0.5l-0.5-0.9c0.3-0.3,0.7-0.5,1.2-0.6C46.3,223.9,46.8,223.8,47.3,223.8z M47,229.5
		c0.4,0,0.8-0.1,1.2-0.3c0.3-0.2,0.6-0.5,0.7-0.9v-0.9h-1.8c-1,0-1.5,0.3-1.5,1c0,0.3,0.1,0.6,0.4,0.8
		C46.2,229.4,46.6,229.5,47,229.5z M58,223.9l-3.1,7.1c-0.3,0.7-0.6,1.1-1,1.4c-0.4,0.3-0.8,0.4-1.3,0.4c-0.3,0-0.6-0.1-0.9-0.2
		c-0.3-0.1-0.5-0.2-0.7-0.4l0.5-0.9c0.3,0.3,0.7,0.5,1.2,0.5c0.3,0,0.5-0.1,0.7-0.2c0.2-0.1,0.4-0.4,0.5-0.8l0.2-0.5l-2.9-6.5h1.2
		l2.3,5.2l2.2-5.2H58z M60.6,224.9v2.2h2.8v0.8h-2.8v2.4h-1.2V228h-0.8v-0.8h0.8v-3.3h4.8v1H60.6z M67.8,223.8
		c0.9,0,1.6,0.2,2.1,0.7c0.5,0.4,0.7,1.1,0.7,2v3.9h-1.1v-0.9c-0.2,0.3-0.5,0.5-0.8,0.7c-0.4,0.2-0.8,0.2-1.3,0.2
		c-0.7,0-1.3-0.2-1.7-0.5c-0.4-0.4-0.6-0.8-0.6-1.4s0.2-1,0.6-1.4c0.4-0.4,1.1-0.5,2-0.5h1.9v-0.2c0-0.5-0.1-0.9-0.4-1.2
		c-0.3-0.3-0.7-0.4-1.3-0.4c-0.4,0-0.8,0.1-1.1,0.2c-0.4,0.1-0.7,0.3-0.9,0.5l-0.5-0.9c0.3-0.3,0.7-0.5,1.2-0.6
		C66.8,223.9,67.3,223.8,67.8,223.8z M67.5,229.5c0.4,0,0.8-0.1,1.2-0.3c0.3-0.2,0.6-0.5,0.7-0.9v-0.9h-1.8c-1,0-1.5,0.3-1.5,1
		c0,0.3,0.1,0.6,0.4,0.8C66.7,229.4,67.1,229.5,67.5,229.5z M79.3,224.1c0.6,0,1.1,0.1,1.6,0.4c0.5,0.3,0.8,0.6,1.1,1.1
		c0.3,0.5,0.4,1,0.4,1.6c0,0.6-0.1,1.2-0.4,1.7c-0.3,0.5-0.7,0.9-1.2,1.1c-0.5,0.3-1.1,0.4-1.7,0.4c-1.1,0-2-0.4-2.6-1.1
		c-0.6-0.8-0.9-1.8-0.9-3.2c0-1.3,0.3-2.4,0.8-3.1c0.5-0.8,1.4-1.3,2.5-1.5l3-0.7l0.2,1.1l-2.7,0.6c-0.8,0.2-1.5,0.5-1.9,1
		c-0.4,0.4-0.7,1.1-0.7,1.9c0.3-0.4,0.6-0.7,1.1-1C78.2,224.2,78.7,224.1,79.3,224.1z M79.1,229.5c0.4,0,0.8-0.1,1.1-0.3
		c0.3-0.2,0.6-0.4,0.8-0.8c0.2-0.3,0.3-0.7,0.3-1.1c0-0.6-0.2-1.2-0.6-1.6c-0.4-0.4-0.9-0.6-1.5-0.6c-0.6,0-1.2,0.2-1.6,0.6
		c-0.4,0.4-0.6,0.9-0.6,1.6c0,0.4,0.1,0.8,0.3,1.1c0.2,0.3,0.4,0.6,0.8,0.8C78.3,229.4,78.7,229.5,79.1,229.5z M86.8,230.4
		c-0.6,0-1.2-0.1-1.7-0.4c-0.5-0.3-0.9-0.7-1.2-1.2c-0.3-0.5-0.4-1.1-0.4-1.7s0.1-1.2,0.4-1.7c0.3-0.5,0.7-0.9,1.2-1.2
		c0.5-0.3,1.1-0.4,1.7-0.4s1.2,0.1,1.7,0.4c0.5,0.3,0.9,0.7,1.2,1.2c0.3,0.5,0.4,1.1,0.4,1.7s-0.1,1.2-0.4,1.7
		c-0.3,0.5-0.7,0.9-1.2,1.2C88.1,230.3,87.5,230.4,86.8,230.4z M86.8,229.4c0.4,0,0.8-0.1,1.1-0.3c0.3-0.2,0.6-0.5,0.8-0.8
		c0.2-0.3,0.3-0.8,0.3-1.2s-0.1-0.8-0.3-1.2c-0.2-0.4-0.4-0.6-0.8-0.8c-0.3-0.2-0.7-0.3-1.1-0.3c-0.4,0-0.8,0.1-1.1,0.3
		c-0.3,0.2-0.6,0.5-0.8,0.8c-0.2,0.3-0.3,0.7-0.3,1.2s0.1,0.8,0.3,1.2c0.2,0.3,0.5,0.6,0.8,0.8C86.1,229.3,86.4,229.4,86.8,229.4z
		 M97.4,223.9v6.5h-1.2v-5.5h-2.8l-0.1,1.4c0,0.9-0.1,1.6-0.2,2.2c-0.1,0.6-0.3,1-0.6,1.4c-0.3,0.4-0.6,0.5-1.1,0.5
		c-0.2,0-0.5,0-0.7-0.1l0.1-1c0.1,0,0.2,0,0.3,0c0.3,0,0.6-0.1,0.7-0.4c0.2-0.3,0.3-0.6,0.3-1c0-0.4,0.1-0.9,0.1-1.7l0.1-2.4H97.4z
		 M102,223.8c0.9,0,1.6,0.2,2.1,0.7c0.5,0.4,0.7,1.1,0.7,2v3.9h-1.1v-0.9c-0.2,0.3-0.5,0.5-0.8,0.7c-0.4,0.2-0.8,0.2-1.3,0.2
		c-0.7,0-1.3-0.2-1.7-0.5c-0.4-0.4-0.6-0.8-0.6-1.4s0.2-1,0.6-1.4c0.4-0.4,1.1-0.5,2-0.5h1.9v-0.2c0-0.5-0.1-0.9-0.4-1.2
		c-0.3-0.3-0.7-0.4-1.3-0.4c-0.4,0-0.8,0.1-1.1,0.2c-0.4,0.1-0.7,0.3-0.9,0.5l-0.5-0.9c0.3-0.3,0.7-0.5,1.2-0.6
		C101,223.9,101.5,223.8,102,223.8z M101.7,229.5c0.4,0,0.8-0.1,1.2-0.3c0.3-0.2,0.6-0.5,0.7-0.9v-0.9h-1.8c-1,0-1.5,0.3-1.5,1
		c0,0.3,0.1,0.6,0.4,0.8C100.9,229.4,101.3,229.5,101.7,229.5z M113.5,229.3v2.5h-1.1v-1.5H107v1.5h-1.1v-2.5h0.3
		c0.4,0,0.7-0.3,0.9-0.9c0.2-0.6,0.3-1.4,0.3-2.4l0.1-2.2h5v5.5H113.5z M108.4,226.2c0,0.8-0.1,1.5-0.2,2c-0.1,0.5-0.3,0.9-0.6,1.1
		h3.6v-4.4h-2.8L108.4,226.2z M117.9,226.1c0.8,0,1.4,0.2,1.9,0.6c0.4,0.4,0.6,0.9,0.6,1.6c0,0.7-0.2,1.2-0.7,1.6
		c-0.5,0.4-1.1,0.6-2,0.5l-2.7,0v-6.5h1.2v2.2L117.9,226.1z M121.4,223.9h1.2v6.5h-1.2V223.9z M117.6,229.5c0.5,0,0.9-0.1,1.2-0.3
		c0.3-0.2,0.4-0.5,0.4-1c0-0.4-0.1-0.7-0.4-0.9c-0.3-0.2-0.7-0.3-1.2-0.3l-1.5,0v2.5L117.6,229.5z M125.1,230.4
		c-0.2,0-0.4-0.1-0.6-0.2c-0.2-0.2-0.2-0.4-0.2-0.6c0-0.2,0.1-0.4,0.2-0.6c0.2-0.2,0.4-0.2,0.6-0.2c0.2,0,0.4,0.1,0.6,0.2
		c0.2,0.2,0.2,0.4,0.2,0.6c0,0.2-0.1,0.4-0.2,0.6C125.5,230.4,125.3,230.4,125.1,230.4z"/>
</g>
</svg>
