<?xml version="1.0" encoding="utf-8"?>
<!-- Generator: Adobe Illustrator 25.2.3, SVG Export Plug-In . SVG Version: 6.00 Build 0)  -->
<svg version="1.1" id="Layer_1" xmlns="http://www.w3.org/2000/svg" xmlns:xlink="http://www.w3.org/1999/xlink" x="0px" y="0px"
	 viewBox="0 0 251 37" style="enable-background:new 0 0 251 37;" xml:space="preserve">
<style type="text/css">
	.st0{fill:#0D1907;}
</style>
<path class="st0" d="M7.2,13h2.7c1.9,0,3.5,0.4,4.7,1.2c1.2,0.8,2.2,1.8,2.8,3c0.6,1.2,0.9,2.5,0.9,3.9c0,1.6-0.4,3-1.1,4.2
	c-0.7,1.3-1.7,2.2-3,3c-1.3,0.7-2.7,1.1-4.4,1.1c-1,0-1.9-0.2-2.9-0.5c-0.9-0.3-1.8-1-2.6-1.9L4.1,27v-5.9c0,0.8,0.2,1.6,0.6,2.3
	c0.4,0.7,1,1.3,1.7,1.7c0.7,0.4,1.6,0.6,2.7,0.6c1.1,0,2-0.2,2.8-0.7c0.8-0.4,1.4-1,1.8-1.8c0.4-0.7,0.6-1.5,0.6-2.4
	c0-0.9-0.2-1.7-0.6-2.4c-0.4-0.7-0.9-1.3-1.7-1.7c-0.7-0.4-1.5-0.7-2.5-0.7H7.2V13z M8.7,1c1.3,0,2.4,0.2,3.4,0.6
	c1,0.4,1.9,0.9,2.6,1.6c0.7,0.7,1.3,1.5,1.7,2.3c0.4,0.9,0.6,1.8,0.6,2.8c0,1.2-0.3,2.4-0.9,3.5c-0.6,1.2-1.5,2.1-2.7,2.9
	c-1.2,0.8-2.7,1.1-4.5,1.1H7.2v-3h1.4c1,0,1.8-0.2,2.5-0.6c0.7-0.4,1.2-0.9,1.5-1.6c0.3-0.6,0.5-1.3,0.5-2c0-1.2-0.4-2.1-1.3-2.9
	C11,5,10,4.6,8.7,4.6c-0.8,0-1.6,0.2-2.3,0.5C5.7,5.5,5.1,6,4.7,6.7C4.3,7.3,4.1,8,4.1,8.9v27.9h-4v-28c0-1.5,0.4-2.9,1.1-4
	C2,3.6,3,2.6,4.3,2C5.6,1.3,7.1,1,8.7,1z M43.6,15.6v3.5H31.4v-3.5H43.6z M70.8,8.3v3.5h-9.3V29h-4V8.3H70.8z M70.9,29l0-3.5h0.7
	c0.6,0,1.1-0.1,1.4-0.4c0.4-0.3,0.7-0.7,1-1.3c0.3-0.6,0.4-1.4,0.6-2.5c0.1-1.1,0.2-2.4,0.3-4l0.4-9.2h14.5V29h-4V11.8h-6.8l-0.3,7
	c-0.1,1.7-0.3,3.2-0.5,4.5c-0.3,1.3-0.6,2.3-1.1,3.2c-0.5,0.8-1.2,1.5-1.9,1.9c-0.8,0.4-1.8,0.6-2.9,0.6H70.9z M104.8,17v3.5H93.8
	V17H104.8z M97.1,8.3V29h-4V8.3H97.1z M111.2,29.4c-1.9,0-3.6-0.4-5-1.3c-1.4-0.9-2.6-2.2-3.3-3.8c-0.8-1.6-1.2-3.5-1.2-5.6
	c0-2.1,0.4-4,1.2-5.6c0.8-1.6,1.9-2.9,3.3-3.8c1.4-0.9,3.1-1.3,5-1.3c1.9,0,3.6,0.4,5,1.3c1.4,0.9,2.6,2.1,3.3,3.8
	c0.8,1.6,1.2,3.5,1.2,5.6c0,2.1-0.4,4-1.2,5.6c-0.8,1.6-1.9,2.9-3.3,3.8C114.8,29,113.1,29.4,111.2,29.4z M111.2,26
	c1.3,0,2.4-0.3,3.2-1c0.8-0.7,1.5-1.5,1.8-2.6c0.4-1.1,0.6-2.3,0.6-3.6c0-1.3-0.2-2.5-0.6-3.6c-0.4-1.1-1-2-1.8-2.7
	c-0.8-0.7-1.9-1-3.2-1c-1.3,0-2.4,0.3-3.2,1c-0.8,0.7-1.5,1.6-1.8,2.7c-0.4,1.1-0.6,2.3-0.6,3.6c0,1.3,0.2,2.5,0.6,3.6
	c0.4,1.1,1,2,1.8,2.6C108.8,25.6,109.9,26,111.2,26z M124.7,29V8.3h4V17h1.9l6.8-8.7h5l-8,10.1l8.1,10.6h-5l-6.2-8.3h-2.6V29H124.7z
	 M151.1,29.5c-1.3,0-2.5-0.2-3.6-0.7c-1.1-0.5-1.9-1.2-2.5-2.1c-0.6-0.9-0.9-2.1-0.9-3.4c0-1.2,0.2-2.1,0.7-2.9
	c0.4-0.8,1.1-1.4,1.8-1.8c0.8-0.4,1.6-0.8,2.6-1c0.9-0.2,1.9-0.4,2.9-0.5c1.2-0.1,2.2-0.3,3-0.4c0.8-0.1,1.3-0.3,1.7-0.5
	c0.4-0.2,0.5-0.6,0.5-1.1V15c0-1.2-0.3-2.1-1-2.7c-0.7-0.6-1.6-1-2.9-1c-1.4,0-2.4,0.3-3.2,0.9c-0.8,0.6-1.3,1.3-1.6,2l-3.8-0.9
	c0.4-1.3,1.1-2.3,2-3c0.9-0.8,1.9-1.3,3-1.7c1.1-0.4,2.3-0.5,3.6-0.5c0.8,0,1.7,0.1,2.6,0.3c0.9,0.2,1.8,0.5,2.6,1.1
	c0.8,0.5,1.5,1.2,2,2.2c0.5,0.9,0.8,2.2,0.8,3.7V29h-3.9v-2.8h-0.2c-0.3,0.5-0.7,1-1.2,1.5c-0.5,0.5-1.2,0.9-2,1.3
	C153.2,29.3,152.2,29.5,151.1,29.5z M151.9,26.2c1.1,0,2.1-0.2,2.9-0.7c0.8-0.4,1.4-1,1.8-1.7c0.4-0.7,0.6-1.5,0.6-2.3v-2.7
	c-0.1,0.1-0.4,0.3-0.8,0.4c-0.4,0.1-0.9,0.2-1.4,0.3c-0.5,0.1-1,0.2-1.5,0.2c-0.5,0.1-0.9,0.1-1.2,0.2c-0.8,0.1-1.5,0.3-2.1,0.5
	c-0.6,0.2-1.2,0.6-1.5,1c-0.4,0.4-0.6,1-0.6,1.7c0,1,0.4,1.8,1.1,2.3C149.9,26,150.8,26.2,151.9,26.2z M179.9,16.9v3.5h-11.2v-3.5
	H179.9z M169.9,8.3V29h-4V8.3H169.9z M182.8,8.3V29h-3.9V8.3H182.8z M185.4,35v-9.5h1.7c0.4-0.4,0.8-0.9,1.1-1.4
	c0.3-0.5,0.6-1.2,0.8-2c0.2-0.8,0.4-1.6,0.5-2.6c0.1-1,0.3-2.2,0.4-3.5l0.6-7.7h14.1v17.2h3.2V35h-3.9v-6h-14.5v6H185.4z
	 M191.4,25.5h9.3V11.7h-6.5l-0.4,4.3c-0.2,2.2-0.5,4.1-0.8,5.7C192.6,23.3,192.1,24.5,191.4,25.5z M217,29.5c-1.3,0-2.5-0.2-3.6-0.7
	c-1.1-0.5-1.9-1.2-2.5-2.1c-0.6-0.9-0.9-2.1-0.9-3.4c0-1.2,0.2-2.1,0.7-2.9c0.4-0.8,1.1-1.4,1.8-1.8c0.8-0.4,1.6-0.8,2.6-1
	c0.9-0.2,1.9-0.4,2.9-0.5c1.2-0.1,2.2-0.3,3-0.4c0.8-0.1,1.3-0.3,1.7-0.5c0.4-0.2,0.5-0.6,0.5-1.1V15c0-1.2-0.3-2.1-1-2.7
	c-0.7-0.6-1.6-1-2.9-1c-1.4,0-2.4,0.3-3.2,0.9c-0.8,0.6-1.3,1.3-1.6,2l-3.8-0.9c0.4-1.3,1.1-2.3,2-3c0.9-0.8,1.9-1.3,3-1.7
	c1.1-0.4,2.3-0.5,3.6-0.5c0.8,0,1.7,0.1,2.6,0.3c0.9,0.2,1.8,0.5,2.6,1.1c0.8,0.5,1.5,1.2,2,2.2c0.5,0.9,0.8,2.2,0.8,3.7V29h-3.9
	v-2.8h-0.2c-0.3,0.5-0.7,1-1.2,1.5c-0.5,0.5-1.2,0.9-2,1.3C219.1,29.3,218.1,29.5,217,29.5z M217.9,26.2c1.1,0,2.1-0.2,2.9-0.7
	c0.8-0.4,1.4-1,1.8-1.7c0.4-0.7,0.6-1.5,0.6-2.3v-2.7c-0.1,0.1-0.4,0.3-0.8,0.4c-0.4,0.1-0.9,0.2-1.4,0.3c-0.5,0.1-1,0.2-1.5,0.2
	c-0.5,0.1-0.9,0.1-1.2,0.2c-0.8,0.1-1.5,0.3-2.1,0.5c-0.6,0.2-1.2,0.6-1.5,1c-0.4,0.4-0.6,1-0.6,1.7c0,1,0.4,1.8,1.1,2.3
	C215.8,26,216.7,26.2,217.9,26.2z M231.8,36.8V8.3h3.9v3.4h0.3c0.2-0.4,0.6-0.9,1-1.5c0.4-0.6,1.1-1.1,1.8-1.5
	c0.8-0.4,1.8-0.6,3.1-0.6c1.7,0,3.2,0.4,4.5,1.3c1.3,0.8,2.3,2.1,3.1,3.7c0.8,1.6,1.1,3.5,1.1,5.7c0,2.2-0.4,4.2-1.1,5.8
	c-0.7,1.6-1.8,2.8-3.1,3.7c-1.3,0.9-2.8,1.3-4.5,1.3c-1.3,0-2.3-0.2-3.1-0.6c-0.8-0.4-1.4-0.9-1.9-1.5c-0.4-0.6-0.8-1.1-1-1.5h-0.2
	v11H231.8z M235.8,18.6c0,1.5,0.2,2.7,0.6,3.8c0.4,1.1,1,2,1.8,2.6c0.8,0.6,1.8,0.9,2.9,0.9c1.2,0,2.2-0.3,3-1
	c0.8-0.6,1.4-1.5,1.8-2.6c0.4-1.1,0.6-2.4,0.6-3.7c0-1.4-0.2-2.6-0.6-3.7c-0.4-1.1-1-1.9-1.8-2.6c-0.8-0.6-1.8-0.9-3-0.9
	c-1.2,0-2.2,0.3-3,0.9c-0.8,0.6-1.4,1.4-1.8,2.5C236,15.9,235.8,17.2,235.8,18.6z"/>
</svg>
