<svg xmlns="http://www.w3.org/2000/svg" viewBox="0 0 192 68" style="enable-background:new 0 0 192 68" xml:space="preserve"><path d="M21.5 9.3h-3.8c-.1-.8-.4-1.5-.8-2.1s-.9-1.1-1.4-1.6-1.2-.7-1.9-1c-.7-.2-1.4-.3-2.2-.3-1.4 0-2.7.4-3.8 1.1-1.1.7-2 1.8-2.7 3.2-.6 1.4-1 3.1-1 5.1 0 2 .3 3.7 1 5.1.7 1.4 1.5 2.4 2.7 3.1 1.1.7 2.4 1.1 3.8 1.1.8 0 1.5-.1 2.2-.3.7-.2 1.3-.5 1.9-1 .6-.4 1.1-.9 1.4-1.5.4-.6.7-1.3.8-2.1h3.8c-.2 1.2-.6 2.3-1.2 3.4-.6 1-1.3 1.9-2.2 2.6-.9.7-1.9 1.3-3.1 1.7-1.2.4-2.4.6-3.8.6-2.1 0-4-.5-5.7-1.5-1.7-1-3-2.5-4-4.4-1-1.9-1.4-4.2-1.4-6.8 0-2.6.5-4.9 1.4-6.8 1-1.9 2.3-3.4 4-4.4C7.2 1.5 9.1 1 11.2 1c1.3 0 2.5.2 3.7.6 1.1.4 2.2.9 3.1 1.6.9.7 1.7 1.6 2.3 2.6.6 1 1 2.2 1.2 3.5zM33 26.4c-1.8 0-3.4-.4-4.7-1.2-1.3-.8-2.3-1.9-3-3.3-.7-1.4-1.1-3.1-1.1-5s.4-3.6 1.1-5c.7-1.4 1.7-2.6 3-3.4 1.3-.8 2.8-1.2 4.5-1.2 1 0 2.1.2 3 .5 1 .3 1.9.9 2.6 1.6.8.7 1.4 1.7 1.8 2.9.5 1.2.7 2.6.7 4.3v1.3H26.2v-2.7h11.2c0-.9-.2-1.8-.6-2.5-.4-.7-.9-1.3-1.6-1.8-.7-.4-1.5-.6-2.4-.6-1 0-1.9.2-2.7.7-.7.5-1.3 1.1-1.7 1.9-.4.8-.6 1.6-.6 2.6v2.1c0 1.2.2 2.3.7 3.2.4.9 1.1 1.5 1.8 2 .8.5 1.7.7 2.8.7.7 0 1.3-.1 1.9-.3.6-.2 1.1-.5 1.5-.9.4-.4.7-.9.9-1.5l3.4.6c-.3 1-.8 1.9-1.5 2.6-.7.7-1.6 1.3-2.6 1.8-1.1.4-2.3.6-3.7.6zm9.8-.4v-3.1h.7c.5 0 .9-.1 1.3-.3.4-.2.6-.6.9-1.1.2-.5.4-1.3.5-2.2.1-.9.2-2.1.3-3.5l.3-8.2h12.9V26h-3.5V10.6h-6.1l-.3 6.3c-.1 1.5-.2 2.9-.5 4-.2 1.1-.6 2.1-1 2.9-.5.8-1 1.3-1.7 1.7-.7.3-1.6.5-2.6.5h-1.2zm29 .4c-1.8 0-3.4-.4-4.7-1.2-1.3-.8-2.3-1.9-3-3.3-.7-1.4-1.1-3.1-1.1-5s.4-3.6 1.1-5c.7-1.4 1.7-2.6 3-3.4 1.3-.8 2.8-1.2 4.5-1.2 1 0 2.1.2 3 .5 1 .3 1.9.9 2.6 1.6.8.7 1.4 1.7 1.8 2.9.5 1.2.7 2.6.7 4.3v1.3H65v-2.7h11.2c0-.9-.2-1.8-.6-2.5-.4-.7-.9-1.3-1.6-1.8-.7-.4-1.5-.6-2.4-.6-1 0-1.9.2-2.7.7-.7.5-1.3 1.1-1.7 1.9-.4.8-.6 1.6-.6 2.6v2.1c0 1.2.2 2.3.7 3.2.4.9 1.1 1.5 1.8 2 .8.5 1.7.7 2.8.7.7 0 1.3-.1 1.9-.3.6-.2 1.1-.5 1.5-.9.4-.4.7-.9.9-1.5l3.4.6c-.3 1-.8 1.9-1.5 2.6-.7.7-1.6 1.3-2.6 1.8-1.1.4-2.3.6-3.7.6zm23.9-11.2v3.1h-10v-3.1h10zm-9.1-7.7V26h-3.5V7.5h3.5zm11.6 0V26h-3.5V7.5h3.5zm34.7 15.2-.3 9.1h-3.7V26h-1.7v-3.3h5.7zm-22 3.3V1.3h3.6v21.5h11.9V1.3h3.6V26h-19.1zm28.6-5.1 8.2-13.5h3.9V26h-3.5V12.5L139.9 26H136V7.5h3.5v13.4zm28.9-5.7v3.1h-10v-3.1h10zm-9.1-7.7V26h-3.5V7.5h3.5zm11.6 0V26h-3.5V7.5h3.5zM175 26V7.5h3.6v7.8h1.7l6.1-7.8h4.5l-7.2 9L191 26h-4.5l-5.6-7.4h-2.3V26H175zM10.7 67V42.3h9.1c1.8 0 3.2.3 4.4.9 1.2.6 2 1.3 2.6 2.3.6 1 .9 2.1.9 3.3 0 1-.2 1.9-.6 2.6-.4.7-.9 1.3-1.5 1.7-.6.4-1.3.7-2.1.9v.2c.8 0 1.6.3 2.4.8.8.5 1.4 1.2 2 2.1.5.9.8 2 .8 3.3 0 1.3-.3 2.4-.9 3.4-.6 1-1.5 1.8-2.7 2.4-1.2.6-2.8.9-4.7.9h-9.7zm3.8-3.2h5.4c1.8 0 3.1-.3 3.8-1 .8-.7 1.2-1.6 1.2-2.6 0-.8-.2-1.5-.6-2.1-.4-.7-1-1.2-1.7-1.6-.7-.4-1.6-.6-2.6-.6h-5.5v7.9zm0-10.8h5c.8 0 1.6-.2 2.3-.5.7-.3 1.2-.8 1.6-1.4.4-.6.6-1.3.6-2.1 0-1-.4-1.9-1.1-2.6-.7-.7-1.8-1-3.3-1h-5.1V53zm21 8.9 8.2-13.5h3.9V67h-3.5V53.5L35.9 67H32V48.5h3.5v13.4zm14-10.3v-3.1h15.6v3.1h-6V67h-3.5V51.6h-6.1zm23.3 15.8c-1.2 0-2.2-.2-3.2-.7-.9-.4-1.7-1.1-2.3-1.9-.5-.8-.8-1.9-.8-3.1 0-1 .2-1.9.6-2.6.4-.7.9-1.2 1.6-1.6.7-.4 1.4-.7 2.3-.9.8-.2 1.7-.4 2.6-.5 1.1-.1 2-.2 2.7-.3.7-.1 1.2-.2 1.5-.4.3-.2.5-.5.5-.9v-.1c0-1.1-.3-1.9-.9-2.5-.6-.6-1.5-.9-2.6-.9-1.2 0-2.2.3-2.9.8-.7.5-1.2 1.1-1.4 1.8l-3.4-.8c.4-1.1 1-2 1.8-2.7.8-.7 1.7-1.2 2.7-1.5 1-.3 2.1-.5 3.2-.5.7 0 1.5.1 2.4.3.8.2 1.6.5 2.3.9.7.5 1.3 1.1 1.8 2 .5.8.7 1.9.7 3.3V67h-3.5v-2.5h-.1c-.2.5-.6.9-1.1 1.4-.5.5-1.1.8-1.8 1.1-.8.3-1.7.4-2.7.4zm.8-2.9c1 0 1.9-.2 2.6-.6.7-.4 1.3-.9 1.6-1.5.4-.6.6-1.3.6-2.1v-2.4c-.1.1-.4.2-.7.4l-1.2.3c-.5.1-.9.1-1.4.2-.4.1-.8.1-1.1.1-.7.1-1.3.2-1.9.4-.6.2-1 .5-1.4.9-.3.4-.5.9-.5 1.5 0 .9.3 1.6 1 2 .5.6 1.4.8 2.4.8zm22.9-2 6-14.1h3.1L97.8 67h-2.7l-7.6-18.5h3.1l5.9 14zm-6.9-14V67h-3.5V48.5h3.5zM103.4 67V48.5h3.5V67h-3.5zm11.2-5.1 8.2-13.5h3.9V67h-3.5V53.5L115 67h-3.9V48.5h3.5v13.4zm28.8-5.7v3.1h-10v-3.1h10zm-9-7.7V67h-3.5V48.5h3.5zm11.6 0V67h-3.5V48.5h3.5zm33.2 1.8h-3.8c-.1-.8-.4-1.5-.8-2.1-.4-.6-.9-1.1-1.4-1.6-.6-.4-1.2-.7-1.9-1-.7-.2-1.4-.3-2.2-.3-1.4 0-2.7.4-3.8 1.1-1.1.7-2 1.8-2.7 3.2-.6 1.4-1 3.1-1 5.1 0 2 .3 3.7 1 5.1.7 1.4 1.5 2.4 2.7 3.1 1.1.7 2.4 1.1 3.8 1.1.8 0 1.5-.1 2.2-.3.7-.2 1.3-.5 1.9-1 .6-.4 1.1-.9 1.4-1.5.4-.6.7-1.3.8-2.1h3.8c-.2 1.2-.6 2.3-1.2 3.4-.6 1-1.3 1.9-2.2 2.6-.9.7-1.9 1.3-3.1 1.7-1.2.4-2.4.6-3.8.6-2.1 0-4-.5-5.7-1.5-1.7-1-3-2.5-4-4.4-1-1.9-1.4-4.2-1.4-6.8 0-2.6.5-4.9 1.4-6.8 1-1.9 2.3-3.4 4-4.4 1.7-1 3.6-1.5 5.7-1.5 1.3 0 2.5.2 3.7.6 1.1.4 2.2.9 3.1 1.6.9.7 1.7 1.6 2.3 2.6.6 1 1 2.2 1.2 3.5z" style="fill:#0d1907"/></svg>