<?xml version="1.0" encoding="utf-8"?>
<!-- Generator: Adobe Illustrator 25.2.3, SVG Export Plug-In . SVG Version: 6.00 Build 0)  -->
<svg version="1.1" id="Layer_1" xmlns="http://www.w3.org/2000/svg" xmlns:xlink="http://www.w3.org/1999/xlink" x="0px" y="0px"
	 viewBox="0 0 68.9 68.9" style="enable-background:new 0 0 68.9 68.9;" xml:space="preserve">
<style type="text/css">
	.st0{fill:url(#SVGID_1_);}
	.st1{fill:#FFFFFF;}
</style>
<g>
	
		<radialGradient id="SVGID_1_" cx="-325.7194" cy="85.8983" r="1" gradientTransform="matrix(65.5056 36.8223 36.8223 -65.5056 18191.7266 17631.8145)" gradientUnits="userSpaceOnUse">
		<stop  offset="0" style="stop-color:#41C3EC"/>
		<stop  offset="0.3883" style="stop-color:#3E94E3"/>
		<stop  offset="1" style="stop-color:#1B2D8C"/>
	</radialGradient>
	<circle class="st0" cx="34.5" cy="34.5" r="34.5"/>
</g>
<path class="st1" d="M20.7,48.3l-0.4-1.9l8.2-20.2l-12,2.5L16,26.3l15.2-3.1l0.4,1.9l-8.2,20.2l12-2.5l0.5,2.4L20.7,48.3z
	 M40.5,33.8l2,9.9L40,44.3l-3.4-16.5l2.5-0.5l0.5,2.6l0.2,0c0.2-0.9,0.7-1.7,1.3-2.4c0.7-0.7,1.6-1.1,2.9-1.4
	c1.1-0.2,2.1-0.2,3.1,0.1c0.9,0.3,1.7,0.8,2.4,1.7c0.7,0.8,1.1,1.9,1.4,3.3l2.2,10.5l-2.5,0.5l-2.1-10.3c-0.3-1.3-0.8-2.2-1.6-2.8
	c-0.8-0.6-1.8-0.8-3-0.5c-0.8,0.2-1.5,0.5-2.1,1c-0.6,0.5-1,1.1-1.2,1.8C40.3,32,40.3,32.9,40.5,33.8z"/>
</svg>
