<?xml version="1.0" encoding="utf-8"?>
<!-- Generator: Adobe Illustrator 25.2.3, SVG Export Plug-In . SVG Version: 6.00 Build 0)  -->
<svg version="1.1" id="Layer_1" xmlns="http://www.w3.org/2000/svg" xmlns:xlink="http://www.w3.org/1999/xlink" x="0px" y="0px"
	 viewBox="0 0 222 47" style="enable-background:new 0 0 222 47;" xml:space="preserve">
<style type="text/css">
	.st0{fill:url(#SVGID_1_);}
	.st1{fill:#FFFFFF;}
</style>
<radialGradient id="SVGID_1_" cx="109.4584" cy="-1172.7893" r="135.4315" gradientTransform="matrix(1 0 0 -0.6249 0 -737.7761)" gradientUnits="userSpaceOnUse">
	<stop  offset="0.1453" style="stop-color:#5DE52D"/>
	<stop  offset="0.905" style="stop-color:#00882E"/>
</radialGradient>
<path class="st0" d="M26.5,0h169C210.1,0,222,10.6,222,23.5l0,0c0,12.9-11.9,23.5-26.5,23.5h-169C11.9,47,0,36.4,0,23.5l0,0
	C0,10.6,11.9,0,26.5,0z"/>
<g>
	<path class="st1" d="M56.8,12.3v18.9h-3.9V12.3H56.8z M41.5,31.2l5.9-10l-5.7-8.9h4.9l4.2,7.8h8l4.1-7.8h4.9l-5.5,8.9l5.8,10h-4.8
		l-4-7.4h-9.1l-4.1,7.4H41.5z M74.6,31.5c-0.9,0-1.7-0.2-2.4-0.5s-1.3-0.8-1.7-1.4c-0.4-0.6-0.6-1.4-0.6-2.3c0-0.8,0.1-1.4,0.4-2
		c0.3-0.5,0.7-1,1.2-1.3s1.1-0.6,1.7-0.7c0.6-0.2,1.3-0.3,2-0.4c0.8-0.1,1.5-0.2,2-0.2c0.5-0.1,0.9-0.2,1.1-0.4
		c0.2-0.2,0.3-0.4,0.3-0.7v-0.1c0-0.6-0.2-1-0.6-1.4c-0.4-0.3-0.9-0.5-1.6-0.5c-0.7,0-1.3,0.2-1.7,0.5c-0.4,0.3-0.7,0.7-0.8,1.2
		L70.3,21c0.2-0.9,0.5-1.6,1.1-2.2c0.5-0.6,1.2-1.1,2.1-1.5c0.9-0.3,1.9-0.5,3-0.5c0.8,0,1.5,0.1,2.3,0.3c0.7,0.2,1.4,0.5,1.9,0.9
		c0.6,0.4,1,0.9,1.3,1.5s0.5,1.3,0.5,2.2v9.6h-3.7v-2h-0.1c-0.2,0.4-0.5,0.8-0.9,1.2c-0.4,0.3-0.8,0.6-1.4,0.8
		C75.9,31.4,75.3,31.5,74.6,31.5z M75.7,28.8c0.6,0,1.1-0.1,1.5-0.3c0.4-0.2,0.8-0.5,1-0.9c0.3-0.4,0.4-0.8,0.4-1.3v-1.5
		c-0.1,0.1-0.3,0.2-0.5,0.2c-0.2,0.1-0.4,0.1-0.7,0.2c-0.3,0-0.5,0.1-0.8,0.1c-0.3,0-0.5,0.1-0.7,0.1c-0.5,0.1-0.9,0.2-1.2,0.3
		c-0.3,0.1-0.6,0.3-0.8,0.6c-0.2,0.2-0.3,0.6-0.3,0.9c0,0.5,0.2,0.9,0.6,1.2C74.6,28.6,75.1,28.8,75.7,28.8z M95.5,22.6v3.1h-7.4
		v-3.1H95.5z M89.4,17v14.2h-3.8V17H89.4z M97.9,17v14.2h-3.7V17H97.9z M101.7,28.5v7.3h-3.8v-7.3H101.7z M108.1,31.5
		c-0.9,0-1.7-0.2-2.4-0.5c-0.7-0.3-1.3-0.8-1.7-1.4c-0.4-0.6-0.6-1.4-0.6-2.3c0-0.8,0.1-1.4,0.4-2c0.3-0.5,0.7-1,1.2-1.3
		s1.1-0.6,1.7-0.7c0.6-0.2,1.3-0.3,2-0.4c0.8-0.1,1.5-0.2,2-0.2c0.5-0.1,0.9-0.2,1.1-0.4c0.2-0.2,0.3-0.4,0.3-0.7v-0.1
		c0-0.6-0.2-1-0.6-1.4c-0.4-0.3-0.9-0.5-1.6-0.5s-1.3,0.2-1.7,0.5c-0.4,0.3-0.7,0.7-0.8,1.2l-3.6-0.3c0.2-0.9,0.5-1.6,1.1-2.2
		c0.5-0.6,1.2-1.1,2.1-1.5c0.9-0.3,1.9-0.5,3-0.5c0.8,0,1.5,0.1,2.3,0.3c0.7,0.2,1.4,0.5,1.9,0.9c0.6,0.4,1,0.9,1.3,1.5
		s0.5,1.3,0.5,2.2v9.6h-3.7v-2h-0.1c-0.2,0.4-0.5,0.8-0.9,1.2c-0.3,0.3-0.8,0.5-1.3,0.7C109.4,31.4,108.8,31.5,108.1,31.5z
		 M109.2,28.8c0.6,0,1.1-0.1,1.5-0.3c0.4-0.2,0.8-0.5,1-0.9c0.3-0.4,0.4-0.8,0.4-1.3v-1.5c-0.1,0.1-0.3,0.2-0.5,0.2
		c-0.1-0.1-0.4,0-0.6,0c-0.3,0-0.5,0.1-0.8,0.1s-0.5,0.1-0.7,0.1c-0.5,0.1-0.9,0.2-1.2,0.3c-0.3,0.1-0.6,0.3-0.8,0.6
		c-0.2,0.2-0.3,0.6-0.3,0.9c0,0.5,0.2,0.9,0.6,1.2C108.1,28.6,108.6,28.8,109.2,28.8z M136.2,23v2.3H127V23H136.2z M131.6,31.5
		c-1.4,0-2.7-0.3-3.7-0.9c-1-0.6-1.8-1.5-2.4-2.6s-0.8-2.4-0.8-3.8c0-1.5,0.3-2.7,0.8-3.8c0.6-1.1,1.4-2,2.4-2.6
		c1-0.6,2.3-0.9,3.7-0.9s2.7,0.3,3.7,0.9s1.9,1.5,2.4,2.6c0.6,1.1,0.8,2.4,0.8,3.8c0,1.5-0.3,2.7-0.8,3.8c-0.6,1.1-1.4,2-2.4,2.6
		C134.2,31.2,133,31.5,131.6,31.5z M131.6,28.4c0.7,0,1.2-0.2,1.6-0.6s0.8-0.9,1-1.5s0.3-1.4,0.3-2.2c0-0.8-0.1-1.6-0.3-2.2
		s-0.6-1.2-1-1.5c-0.4-0.4-1-0.6-1.6-0.6c-0.7,0-1.2,0.2-1.7,0.6c-0.4,0.4-0.8,0.9-1,1.5c-0.2,0.6-0.3,1.4-0.3,2.2
		c0,0.8,0.1,1.6,0.3,2.2c0.2,0.6,0.6,1.2,1,1.5C130.4,28.3,130.9,28.4,131.6,28.4z M151,22.6v3.1h-7.4v-3.1H151z M144.9,17v14.2
		h-3.8V17H144.9z M153.5,17v14.2h-3.7V17H153.5z M156.5,31.2V17h3.9v14.2H156.5z M158.5,15.2c-0.6,0-1.1-0.2-1.5-0.6
		s-0.6-0.9-0.6-1.4s0.2-1,0.6-1.4c0.4-0.4,0.9-0.6,1.5-0.6s1.1,0.2,1.5,0.6c0.4,0.4,0.6,0.9,0.6,1.4s-0.2,1-0.6,1.4
		C159.6,15,159.1,15.2,158.5,15.2z M172,26.9l3.8-9.8h3l-5.5,14.2h-2.6L165.3,17h3L172,26.9z M167.3,17v14.2h-3.8V17H167.3z
		 M176.8,31.2V17h3.7v14.2H176.8z"/>
</g>
</svg>
