<svg xmlns="http://www.w3.org/2000/svg" viewBox="0 0 724.4 200.9" style="enable-background:new 0 0 724.4 200.9" xml:space="preserve"><path d="M18.2 5v17.6h-4.1v-7.2h-8v7.2h-4V5h4.1v6.9h8V5h4zm17.7 10.8c0 .1 0 .4-.1 1.1H25.6c.2.8.6 1.5 1.3 2 .7.5 1.5.7 2.6.7.7 0 1.3-.1 1.9-.3.6-.2 1.1-.6 1.5-1l2.1 2.3c-1.3 1.5-3.1 2.2-5.6 2.2-1.5 0-2.9-.3-4-.9-1.2-.6-2.1-1.4-2.7-2.5-.6-1.1-1-2.3-1-3.6 0-1.3.3-2.5.9-3.6.6-1.1 1.5-1.9 2.6-2.5 1.1-.6 2.3-.9 3.7-.9 1.3 0 2.5.3 3.6.9 1.1.6 1.9 1.4 2.5 2.5.5 1 .9 2.2.9 3.6zm-7.1-4c-.9 0-1.6.3-2.2.8-.6.5-1 1.2-1.1 2.1h6.7c-.1-.9-.5-1.5-1.1-2-.6-.6-1.4-.9-2.3-.9zm21.3.5h-6.9v10.3h-3.9V9h10.8v3.3zM52.5 9h3.9v13.5h-3.9V9zm2-1.8c-.7 0-1.3-.2-1.8-.6-.4-.5-.7-1-.7-1.6 0-.6.2-1.1.7-1.6.5-.4 1-.6 1.8-.6.7 0 1.3.2 1.8.6s.7.9.7 1.5c0 .7-.2 1.2-.7 1.6-.5.4-1.1.7-1.8.7zm14.7 8.3c.8.3 1.4.6 1.9 1.2.5.5.7 1.1.7 1.9 0 .9-.3 1.6-.9 2.3-.6.6-1.4 1.1-2.4 1.5-1 .4-2.2.5-3.5.5-1.1 0-2.1-.1-3.1-.3-1-.2-1.9-.5-2.8-1l1.1-2.7c1.4.7 3 1 4.7 1 .9 0 1.6-.1 2.2-.4.5-.3.8-.7.8-1.2 0-.4-.2-.8-.6-1-.4-.2-.9-.4-1.6-.4h-2.8v-2.4h2.4c.7 0 1.2-.1 1.6-.3.4-.2.6-.5.6-1 0-.4-.2-.8-.7-1-.5-.2-1.1-.4-2-.4-1.3 0-2.7.3-4.3.9l-1-2.7c1.9-.8 3.7-1.2 5.5-1.2 1.2 0 2.3.2 3.3.5s1.7.7 2.3 1.3c.6.6.8 1.2.8 2 0 .6-.2 1.2-.6 1.7-.4.5-.9.9-1.6 1.2zm16.6-3.2h-6.9v10.3H75V9h10.8v3.3zM88.2 9h3.9v13.5h-3.9V9zm2-1.8c-.7 0-1.3-.2-1.8-.6-.4-.4-.7-1-.7-1.6 0-.6.2-1.2.7-1.6.5-.4 1-.6 1.8-.6.7 0 1.3.2 1.8.6.5.4.7.9.7 1.5 0 .7-.2 1.2-.7 1.6-.5.4-1.1.7-1.8.7zm19.5 10.2h-2v5.1h-3.9V9h3.9v5.3h2.1l3.7-5.3h4.2l-4.7 6.5 5.1 7h-4.6l-3.8-5.1zm8.9 2v5.9H115v-2.7h-1.7v-3.1l5.3-.1zm7.6 3.4c-1.4 0-2.7-.3-3.8-.9-1.1-.6-2-1.4-2.6-2.5s-1-2.3-1-3.6.3-2.5 1-3.6c.6-1.1 1.5-1.9 2.6-2.5 1.1-.6 2.4-.9 3.8-.9s2.7.3 3.8.9c1.1.6 2 1.4 2.6 2.5s1 2.3 1 3.6c0 1.3-.3 2.5-1 3.6-.6 1.1-1.5 1.9-2.6 2.5-1.1.6-2.4.9-3.8.9zm0-3.3c1 0 1.8-.3 2.5-1s1-1.6 1-2.7-.3-2-1-2.7c-.6-.7-1.5-1-2.5-1s-1.8.3-2.5 1-1 1.6-1 2.7.3 2.1 1 2.7c.7.7 1.5 1 2.5 1zM149.4 9v13.5h-3.9V12.3h-4.3l-.1 2.4c-.1 1.8-.2 3.3-.5 4.4-.3 1.2-.7 2.1-1.3 2.8-.6.7-1.4 1-2.5 1-.6 0-1.2-.1-2-.3l.2-3.2c.3 0 .5.1.6.1.6 0 1-.2 1.3-.6.3-.4.5-1 .6-1.6.1-.7.2-1.5.2-2.6l.2-5.4c0-.3 11.5-.3 11.5-.3zm19.3 10.3v6.1h-3.6v-2.9h-9.5v2.9H152v-6.1h.6c.8 0 1.4-.5 1.7-1.5.3-1 .5-2.4.6-4.1L155 9h11.8v10.3h1.9zM158.4 14c-.1 1.4-.2 2.5-.3 3.4-.2.9-.4 1.5-.9 2h5.7v-7.1h-4.4l-.1 1.7zm18.4-5.2c2.1 0 3.7.5 4.8 1.5 1.1 1 1.7 2.5 1.7 4.5v7.7h-3.7v-1.7c-.7 1.3-2.1 1.9-4.1 1.9-1 0-1.9-.2-2.7-.5-.8-.4-1.3-.8-1.7-1.5-.4-.6-.6-1.3-.6-2.1 0-1.3.5-2.2 1.4-3 1-.7 2.4-1.1 4.4-1.1h3.1c0-.9-.3-1.5-.8-2s-1.3-.7-2.3-.7c-.7 0-1.4.1-2.1.4-.7.2-1.3.5-1.8.9l-1.4-2.7c.7-.5 1.6-.9 2.6-1.2 1.1-.2 2.2-.4 3.2-.4zm-.3 11.3c.7 0 1.3-.2 1.8-.5s.9-.8 1.1-1.4v-1.4h-2.7c-1.6 0-2.4.5-2.4 1.6 0 .5.2.9.6 1.2.4.4.9.5 1.6.5zM187.1 9h3.9v5.3h5.9V9h3.9v13.5h-3.9v-5.1H191v5.1h-3.9V9zm31.4 0-6.1 14.3c-.6 1.6-1.4 2.7-2.3 3.3-.9.6-2 1-3.3 1-.7 0-1.4-.1-2.1-.3-.7-.2-1.2-.5-1.7-.9l1.4-2.8c.3.3.6.5 1 .6.4.2.8.2 1.2.2.5 0 1-.1 1.3-.4.3-.3.6-.7.9-1.3l.1-.1L203.1 9h4l3.8 9.2 3.8-9.2h3.8zm6.9 3.3v3.4h5V18h-5v4.5h-3.9V18h-1.9v-2.4h1.9V9h10.8v3.2c0 .1-6.9.1-6.9.1zm14.8-3.5c2.1 0 3.7.5 4.8 1.5 1.1 1 1.7 2.5 1.7 4.5v7.7H243v-1.7c-.7 1.3-2.1 1.9-4.1 1.9-1 0-1.9-.2-2.7-.5-.8-.4-1.3-.8-1.7-1.5-.4-.6-.6-1.3-.6-2.1 0-1.3.5-2.2 1.4-3 1-.7 2.4-1.1 4.4-1.1h3.1c0-.9-.3-1.5-.8-2s-1.3-.7-2.3-.7c-.7 0-1.4.1-2.1.4-.7.2-1.3.5-1.8.9l-1.4-2.7c.7-.5 1.6-.9 2.6-1.2 1-.2 2.1-.4 3.2-.4zm-.3 11.3c.7 0 1.3-.2 1.8-.5s.9-.8 1.1-1.4v-1.4h-2.7c-1.6 0-2.4.5-2.4 1.6 0 .5.2.9.6 1.2.3.4.9.5 1.6.5zM9.6 37.8c1.3 0 2.4.3 3.4.8.9.5 1.7 1.3 2.2 2.2.5 1 .8 2.1.8 3.3 0 1.3-.3 2.4-1 3.4-.6 1-1.5 1.8-2.6 2.3-1.1.5-2.4.8-3.8.8-2.4 0-4.2-.8-5.6-2.3-1.3-1.5-2-3.8-2-6.7 0-2.7.6-4.9 1.8-6.5 1.2-1.6 3-2.7 5.5-3.2l6.4-1.3.5 3.4-5.7 1.1c-1.5.3-2.7.8-3.4 1.5-.7.7-1.2 1.7-1.3 3 .6-.6 1.3-1.1 2.1-1.5.8-.2 1.7-.3 2.7-.3zm-.9 9.8c1 0 1.8-.3 2.4-1 .6-.7.9-1.5.9-2.5s-.3-1.8-.9-2.4c-.6-.6-1.4-.9-2.4-.9s-1.8.3-2.5.9c-.6.6-.9 1.4-.9 2.4s.3 1.9 1 2.5c.6.7 1.4 1 2.4 1zm16.7 3c-1.4 0-2.7-.3-3.8-.9-1.1-.6-2-1.4-2.6-2.5-.6-1.1-1-2.3-1-3.6 0-1.3.3-2.5 1-3.6.6-1.1 1.5-1.9 2.6-2.5 1.1-.6 2.4-.9 3.8-.9s2.7.3 3.8.9c1.1.6 2 1.4 2.6 2.5.6 1.1 1 2.3 1 3.6 0 1.3-.3 2.5-1 3.6-.6 1.1-1.5 1.9-2.6 2.5-1.1.6-2.4.9-3.8.9zm0-3.3c1 0 1.8-.3 2.5-1s1-1.6 1-2.7-.3-2-1-2.7c-.6-.7-1.5-1-2.5-1s-1.8.3-2.5 1-1 1.6-1 2.7.3 2.1 1 2.7c.7.7 1.5 1 2.5 1zm23.3-10.5v13.5h-3.9V40.1h-4.3l-.1 2.4c-.1 1.8-.2 3.3-.5 4.4-.3 1.2-.7 2.1-1.3 2.8-.6.7-1.4 1-2.5 1-.6 0-1.2-.1-2-.3l.2-3.2c.2 0 .4 0 .6.1.6 0 1-.2 1.3-.6.3-.4.5-1 .6-1.6.1-.7.2-1.6.2-2.6l.2-5.4h11.5v-.3zM66 50.4v-8.1L62 49h-1.7l-3.9-6.8v8.1h-3.5V36.8H57l4.3 7.8 4.6-7.8h3.7l.1 13.5-3.7.1zm12.9-13.8c2.1 0 3.7.5 4.8 1.5 1.1 1 1.7 2.5 1.7 4.5v7.7h-3.7v-1.7c-.7 1.3-2.1 1.9-4.1 1.9-1 0-1.9-.2-2.7-.5-.8-.4-1.3-.8-1.7-1.5-.4-.6-.6-1.3-.6-2.1 0-1.3.5-2.2 1.4-3 1-.7 2.4-1.1 4.4-1.1h3.1c0-.9-.3-1.5-.8-2s-1.3-.7-2.3-.7c-.7 0-1.4.1-2.1.4-.7.2-1.3.5-1.8.9l-1.4-2.7c.7-.5 1.6-.9 2.6-1.2 1.1-.2 2.2-.4 3.2-.4zm-.3 11.3c.7 0 1.3-.2 1.8-.5s.9-.8 1.1-1.4v-1.4h-2.7c-1.6 0-2.4.5-2.4 1.6 0 .5.2.9.6 1.2.4.4.9.5 1.6.5zm10.6-11.1h3.9v8l6.6-8h3.6v13.5h-3.9v-8l-6.6 8h-3.6V36.8zm6.8-1.4c-2.9 0-4.4-1.3-4.4-3.9h2.6c0 .6.2 1 .5 1.4.3.3.8.5 1.4.5.6 0 1.1-.2 1.4-.5.3-.3.5-.8.5-1.4h2.6c-.1 2.6-1.6 3.9-4.6 3.9zm22.8 4.7h-4.6v10.3h-3.9V40.1h-4.6v-3.2h13v3.2h.1zm9.6 1.1c1.8 0 3.1.4 4 1.2.9.8 1.4 1.9 1.4 3.3 0 1.5-.5 2.7-1.5 3.5-1 .8-2.5 1.2-4.3 1.2h-6.6V36.8h3.9v4.3l3.1.1zm6.8-4.4h3.9v13.5h-3.9V36.8zm-7.7 10.8c.8 0 1.3-.1 1.7-.5.4-.3.6-.8.6-1.5s-.2-1.1-.6-1.4c-.4-.3-1-.5-1.7-.5h-2.3v3.9h2.3zm15.7-10.8h3.9v5.3h5.9v-5.3h3.9v13.5H153v-5.1h-5.9v5.1h-3.9V36.8zm38.7 8.4H180v5.1h-3.9v-5.1h-1.9l-2.9 5.1h-4.6l4.2-7-3.9-6.5h4.1l3 5.3h1.9v-5.3h3.9v5.3h1.9l3-5.3h4.1l-3.9 6.5 4.3 7h-4.6l-2.8-5.1zm15-8.6c2.1 0 3.7.5 4.8 1.5 1.1 1 1.7 2.5 1.7 4.5v7.7h-3.7v-1.7c-.7 1.3-2.1 1.9-4.1 1.9-1 0-1.9-.2-2.7-.5-.8-.4-1.3-.8-1.7-1.5-.4-.6-.6-1.3-.6-2.1 0-1.3.5-2.2 1.4-3 1-.7 2.4-1.1 4.4-1.1h3.1c0-.9-.3-1.5-.8-2s-1.3-.7-2.3-.7c-.7 0-1.4.1-2.1.4-.7.2-1.3.5-1.8.9l-1.4-2.7c.7-.5 1.6-.9 2.6-1.2 1-.2 2.1-.4 3.2-.4zm-.3 11.3c.7 0 1.3-.2 1.8-.5s.9-.8 1.1-1.4v-1.4h-2.7c-1.6 0-2.4.5-2.4 1.6 0 .5.2.9.6 1.2.3.4.9.5 1.6.5zm15.2-7.8v3.4h5v2.4h-5v4.5h-3.9v-4.5H206v-2.4h1.9v-6.6h10.8v3.2h-6.9zm23.7 7v6.1h-3.6v-2.9h-9.5v2.9h-3.6v-6.1h.6c.8 0 1.4-.5 1.7-1.5.3-1 .5-2.4.6-4.1l.2-4.7h11.8v10.3h1.8zm-10.4-5.3c-.1 1.4-.2 2.5-.3 3.4-.2.9-.4 1.5-.9 2h5.7v-7.1h-4.4l-.1 1.7zm18.5-5.2c2.1 0 3.7.5 4.8 1.5 1.1 1 1.7 2.5 1.7 4.5v7.7h-3.7v-1.7c-.7 1.3-2.1 1.9-4.1 1.9-1 0-1.9-.2-2.7-.5-.8-.4-1.3-.8-1.7-1.5-.4-.6-.6-1.3-.6-2.1 0-1.3.5-2.2 1.4-3 1-.7 2.4-1.1 4.4-1.1h3.1c0-.9-.3-1.5-.8-2s-1.3-.7-2.3-.7c-.7 0-1.4.1-2.1.4-.7.2-1.3.5-1.8.9l-1.4-2.7c.7-.5 1.6-.9 2.6-1.2 1-.2 2.1-.4 3.2-.4zm-.3 11.3c.7 0 1.3-.2 1.8-.5s.9-.8 1.1-1.4v-1.4h-2.7c-1.6 0-2.4.5-2.4 1.6 0 .5.2.9.6 1.2.4.4.9.5 1.6.5zm10.6-11.1h3.9v8l6.6-8h3.6v13.5h-3.9v-8l-6.6 8h-3.6V36.8zm6.8-1.4c-2.9 0-4.4-1.3-4.4-3.9h2.6c0 .6.2 1 .5 1.4.3.3.8.5 1.4.5.6 0 1.1-.2 1.4-.5.3-.3.5-.8.5-1.4h2.6c-.2 2.6-1.7 3.9-4.6 3.9zm24.4 1.4v13.5h-3.9V40.1h-4.3l-.1 2.4c-.1 1.8-.2 3.3-.5 4.4-.3 1.2-.7 2.1-1.3 2.8s-1.4 1-2.5 1c-.6 0-1.2-.1-2-.3l.2-3.2c.3 0 .5.1.6.1.6 0 1-.2 1.3-.6.3-.4.5-1 .6-1.6.1-.7.2-1.6.2-2.6l.2-5.4 11.5-.3zm9.4-.2c2.1 0 3.7.5 4.8 1.5 1.1 1 1.7 2.5 1.7 4.5v7.7h-3.7v-1.7c-.7 1.3-2.1 1.9-4.1 1.9-1 0-1.9-.2-2.7-.5-.8-.4-1.3-.8-1.7-1.5-.4-.6-.6-1.3-.6-2.1 0-1.3.5-2.2 1.4-3 1-.7 2.4-1.1 4.4-1.1h3.1c0-.9-.3-1.5-.8-2s-1.3-.7-2.3-.7c-.7 0-1.4.1-2.1.4-.7.2-1.3.5-1.8.9l-1.4-2.7c.7-.5 1.6-.9 2.6-1.2 1-.2 2.1-.4 3.2-.4zm-.3 11.3c.7 0 1.3-.2 1.8-.5s.9-.8 1.1-1.4v-1.4h-2.7c-1.6 0-2.4.5-2.4 1.6 0 .5.2.9.6 1.2.3.4.9.5 1.6.5zm18.5-11.3c1.3 0 2.4.3 3.4.9 1 .6 1.9 1.4 2.4 2.4.6 1 .9 2.3.9 3.6s-.3 2.6-.9 3.7c-.6 1-1.4 1.9-2.4 2.4-1 .6-2.2.9-3.4.9-1.7 0-3.1-.5-4.1-1.6v6.3h-3.9V36.8h3.7v1.6c1-1.2 2.5-1.8 4.3-1.8zm-.7 10.7c1 0 1.8-.3 2.5-1s1-1.6 1-2.7-.3-2-1-2.7c-.6-.7-1.5-1-2.5-1s-1.8.3-2.5 1c-.6.7-1 1.6-1 2.7s.3 2.1 1 2.7c.7.7 1.5 1 2.5 1zm12-5.8c-.7 0-1.3-.2-1.7-.7-.5-.5-.7-1.1-.7-1.8s.2-1.3.7-1.7c.5-.5 1-.7 1.7-.7s1.3.2 1.7.7c.5.4.7 1 .7 1.7s-.2 1.3-.7 1.8c-.5.5-1 .7-1.7.7zm0 9.1c-.7 0-1.3-.2-1.7-.7-.5-.5-.7-1.1-.7-1.8s.2-1.3.7-1.7c.5-.5 1-.7 1.7-.7s1.3.2 1.7.7c.5.4.7 1 .7 1.7s-.2 1.3-.7 1.8c-.5.4-1 .7-1.7.7zM6.3 88.7H3.9v4.8h-2V82.1h2v4.8h2.4l3.7-4.8h2.2l-4.3 5.4 4.6 5.8h-2.4c0 .1-3.8-4.6-3.8-4.6zm7 3v4.1h-1.8v-2.4h-1.4v-1.7h3.2z"/><path d="M19.1 93.5v4.1H17v-4.1l-4.9-11.3h2.1l3.9 9 4-9h2l-5 11.3zm-5.6-.9h9.1V94h-9.1v-1.4zM32.1 82c1.1 0 2.1.2 2.9.7.9.5 1.6 1.2 2 2 .5.9.7 1.9.7 3s-.2 2.1-.7 3c-.5.9-1.2 1.6-2 2-.9.5-1.8.7-2.9.7-.8 0-1.6-.2-2.2-.5-.7-.3-1.2-.8-1.7-1.4v5.8h-2V82.1h2v1.8c.4-.6 1-1.1 1.7-1.4.6-.3 1.4-.5 2.2-.5zm-.1 9.8c.7 0 1.4-.2 1.9-.5.6-.3 1-.8 1.4-1.4.3-.6.5-1.3.5-2.1s-.2-1.5-.5-2.1c-.3-.6-.8-1.1-1.4-1.4-.6-.3-1.2-.5-1.9-.5s-1.4.2-1.9.5c-.6.3-1 .8-1.4 1.4-.3.6-.5 1.3-.5 2.1s.2 1.5.5 2.1c.3.6.8 1.1 1.4 1.4.5.3 1.2.5 1.9.5zM44.7 82c1.6 0 2.7.4 3.6 1.1.8.8 1.3 1.9 1.3 3.4v6.8h-1.9v-1.5c-.3.5-.8.9-1.5 1.2-.6.3-1.4.4-2.2.4-1.3 0-2.3-.3-3-.9-.8-.6-1.1-1.4-1.1-2.4s.4-1.8 1.1-2.4c.7-.6 1.9-.9 3.4-.9h3.2v-.4c0-.9-.3-1.6-.8-2-.5-.5-1.3-.7-2.3-.7-.7 0-1.3.1-2 .3-.6.2-1.2.5-1.6.9l-.9-1.5c.6-.5 1.3-.8 2.1-1.1.9-.1 1.7-.3 2.6-.3zm-.5 10c.8 0 1.5-.2 2-.5.6-.3 1-.9 1.2-1.5v-1.6h-3.1c-1.7 0-2.6.6-2.6 1.7 0 .6.2 1 .7 1.3.5.4 1.1.6 1.8.6zm22-9.9v11.3h-1.8v-8.2l-4.2 7h-.9l-4.2-7v8.2h-1.9V82.1h2.1l4.4 7.6 4.6-7.6h1.9zm15.4 9.5V96h-1.9v-2.6h-9.4V96h-1.9v-4.4h.6c.7 0 1.2-.6 1.5-1.5.3-1 .5-2.4.6-4.1l.2-3.8H80v9.5l1.6-.1zm-8.7-5.5c-.1 1.4-.2 2.6-.4 3.5-.2.9-.5 1.6-1 2h6.3v-7.7H73l-.1 2.2zM88.3 82c1.6 0 2.7.4 3.6 1.1.8.8 1.3 1.9 1.3 3.4v6.8h-1.9v-1.5c-.3.5-.8.9-1.5 1.2-.6.3-1.4.4-2.2.4-1.3 0-2.3-.3-3-.9-.8-.6-1.1-1.4-1.1-2.4s.4-1.8 1.1-2.4c.7-.6 1.9-.9 3.4-.9h3.2v-.4c0-.9-.3-1.6-.8-2-.5-.5-1.3-.7-2.3-.7-.7 0-1.3.1-2 .3-.6.2-1.2.5-1.6.9l-.9-1.5c.6-.5 1.3-.8 2.1-1.1.9-.1 1.7-.3 2.6-.3zm-.5 10c.8 0 1.5-.2 2-.5.6-.3 1-.9 1.2-1.5v-1.6h-3c-1.7 0-2.6.6-2.6 1.7 0 .6.2 1 .7 1.3.4.4 1 .6 1.7.6zm13.9 1.5c-1.1 0-2.2-.2-3.1-.7-.9-.5-1.6-1.2-2.1-2-.5-.9-.8-1.9-.8-3s.3-2.1.8-3c.5-.9 1.2-1.6 2.1-2 .9-.5 1.9-.7 3.1-.7 1 0 1.9.2 2.7.6.8.4 1.4 1 1.9 1.8l-1.6 1c-.4-.5-.8-.9-1.3-1.2-.5-.3-1.1-.4-1.7-.4-.7 0-1.4.2-2 .5-.6.3-1 .8-1.4 1.4-.3.6-.5 1.3-.5 2.1s.2 1.5.5 2.1c.3.6.8 1.1 1.4 1.4.6.3 1.3.5 2 .5.6 0 1.2-.1 1.7-.4.5-.3 1-.7 1.3-1.2l1.6 1c-.4.8-1.1 1.4-1.9 1.8-.7.2-1.6.4-2.7.4zm18.7-11c1 0 2 .2 2.8.7.8.5 1.5 1.1 1.9 2 .5.8.7 1.8.7 2.8 0 1.1-.2 2.1-.7 2.9-.5.8-1.2 1.5-2.1 2-.9.5-1.9.7-3 .7-1.9 0-3.4-.7-4.4-2-1-1.3-1.6-3.2-1.6-5.5s.5-4.1 1.4-5.4c.9-1.3 2.4-2.2 4.4-2.6l5.1-1.1.3 1.9-4.7 1c-1.5.3-2.6.9-3.3 1.7-.7.8-1.1 1.9-1.2 3.4.5-.7 1.1-1.3 1.9-1.7.7-.6 1.6-.8 2.5-.8zm-.3 9.4c.7 0 1.4-.2 1.9-.5.6-.3 1-.8 1.3-1.3.3-.6.5-1.2.5-2 0-1.1-.3-2-1-2.7-.7-.7-1.6-1-2.7-1s-2 .3-2.7 1c-.7.7-1 1.6-1 2.7 0 .7.2 1.4.5 2 .3.6.8 1 1.3 1.3.5.3 1.1.5 1.9.5zm13.6-9.9c1.1 0 2.2.2 3.1.7.9.5 1.6 1.2 2.1 2 .5.9.8 1.8.8 3s-.3 2.1-.8 3c-.5.9-1.2 1.5-2.1 2-.9.5-1.9.7-3.1.7-1.1 0-2.2-.2-3.1-.7-.9-.5-1.6-1.2-2.1-2-.5-.9-.8-1.9-.8-3s.3-2.1.8-3c.5-.9 1.3-1.6 2.1-2 .9-.4 2-.7 3.1-.7zm0 1.7c-1.1 0-2 .3-2.7.9-.7.6-1.2 1.4-1.3 2.5h8c-.1-1-.6-1.9-1.3-2.5-.8-.6-1.7-.9-2.7-.9zm0 8.2c1.1 0 2-.3 2.7-.9.7-.6 1.2-1.5 1.3-2.5h-8c.1 1 .6 1.9 1.3 2.5.7.6 1.6.9 2.7.9zm18.5-9.8v11.3h-2v-9.5h-4.8l-.1 2.5c-.1 1.5-.2 2.8-.4 3.8s-.5 1.8-1 2.4c-.5.6-1.1.9-1.9.9-.4 0-.8-.1-1.3-.2l.1-1.7c.2 0 .4.1.5.1.6 0 1-.2 1.3-.7.3-.5.5-1.1.6-1.8.1-.7.2-1.7.2-2.9l.2-4.2h8.6zm3.9 0h2v11.3h-2V82.1zm1-2.1c-.4 0-.7-.1-1-.4-.3-.2-.4-.6-.4-.9 0-.4.1-.7.4-.9.3-.3.6-.4 1-.4s.7.1 1 .4c.3.2.4.5.4.9s-.1.7-.4 1c-.2.2-.6.3-1 .3zm9.4 8.7h-2.3v4.8h-2V82.1h2v4.8h2.4l3.7-4.8h2.2l-4.3 5.4 4.6 5.8h-2.4l-3.9-4.6zm16.6-4.8H179v9.5h-2v-9.5h-4.1v-1.8h10.3l-.1 1.8zm11.7 3.9v.6h-9.1c.1 1 .6 1.8 1.3 2.4.8.6 1.7.9 2.8.9 1.3 0 2.4-.5 3.3-1.4l1.1 1.3c-.5.6-1.1 1-1.9 1.4-.8.3-1.6.5-2.5.5-1.2 0-2.2-.2-3.2-.7-.9-.5-1.6-1.2-2.1-2.1-.5-.9-.7-1.9-.7-3s.2-2.1.7-3c.5-.9 1.2-1.6 2-2 .9-.5 1.8-.7 2.9-.7 1.1 0 2 .2 2.9.7.8.5 1.5 1.2 2 2 .3 1 .5 2 .5 3.1zm-5.5-4c-1 0-1.8.3-2.5.9-.7.6-1 1.4-1.1 2.3h7.2c-.1-.9-.5-1.7-1.2-2.3-.6-.6-1.5-.9-2.4-.9zM204 82c1.1 0 2.1.2 2.9.7.9.5 1.6 1.2 2 2 .5.9.7 1.9.7 3s-.2 2.1-.7 3c-.5.9-1.2 1.6-2 2-.9.5-1.8.7-2.9.7-.8 0-1.6-.2-2.2-.5-.7-.3-1.2-.8-1.7-1.4v5.8h-2V82.1h2v1.8c.4-.6 1-1.1 1.7-1.4.6-.3 1.3-.5 2.2-.5zm-.2 9.8c.7 0 1.4-.2 1.9-.5.6-.3 1-.8 1.4-1.4.3-.6.5-1.3.5-2.1s-.2-1.5-.5-2.1c-.3-.6-.8-1.1-1.4-1.4-.6-.3-1.2-.5-1.9-.5s-1.4.2-1.9.5c-.6.3-1 .8-1.4 1.4-.3.6-.5 1.3-.5 2.1s.2 1.5.5 2.1c.3.6.8 1.1 1.4 1.4.5.3 1.2.5 1.9.5zm8.8-9.7h2v11.3h-2V82.1zm1.1-2.1c-.4 0-.7-.1-1-.4-.3-.2-.4-.6-.4-.9 0-.4.1-.7.4-.9.3-.3.6-.4 1-.4s.7.1 1 .4c.3.2.4.5.4.9s-.1.7-.4 1c-.3.2-.6.3-1 .3zm5 2.1h2v4.8h6.4v-4.8h2v11.3h-2v-4.7h-6.4v4.7h-2V82.1zm14.4 0h2v11.3h-2V82.1zm1-2.1c-.4 0-.7-.1-1-.4-.3-.2-.4-.6-.4-.9 0-.4.1-.7.4-.9.3-.3.6-.4 1-.4s.7.1 1 .4c.3.2.4.5.4.9s-.1.7-.4 1c-.2.2-.6.3-1 .3zm5 2.1h2v4.8h6.4v-4.8h2v11.3h-2v-4.7h-6.4v4.7h-2V82.1zm12.3 9.5v4.2h-1.9v-2.4h-1.9v-1.8h3.8zm18.6-2.9h-2.2v4.8h-2v-4.8h-2.2l-3.1 4.8h-2.4l3.9-5.8-3.6-5.4h2.2l3 4.8h2.2v-4.8h2v4.8h2.2l3-4.8h2.2l-3.6 5.5 3.9 5.8h-2.4l-3.1-4.9zm17.6-.9v.6h-9.1c.1 1 .6 1.8 1.3 2.4.8.6 1.7.9 2.8.9 1.3 0 2.4-.5 3.3-1.4l1.1 1.3c-.5.6-1.1 1-1.9 1.4-.8.3-1.6.5-2.5.5-1.2 0-2.2-.2-3.2-.7-.9-.5-1.6-1.2-2.1-2.1-.5-.9-.7-1.9-.7-3s.2-2.1.7-3c.5-.9 1.2-1.6 2-2 .9-.5 1.8-.7 2.9-.7 1.1 0 2 .2 2.9.7.8.5 1.5 1.2 2 2 .3 1 .5 2 .5 3.1zm-5.5-4c-1 0-1.8.3-2.5.9-.7.6-1 1.4-1.1 2.3h7.2c-.1-.9-.5-1.7-1.2-2.3-.6-.6-1.5-.9-2.4-.9zm13.1 4.9h-2.3v4.8h-2V82.1h2v4.8h2.4l3.7-4.8h2.2l-4.3 5.4 4.6 5.8H299l-3.8-4.6zm18.1-.9v.6h-9.1c.1 1 .6 1.8 1.3 2.4.8.6 1.7.9 2.8.9 1.3 0 2.4-.5 3.3-1.4l1.1 1.3c-.5.6-1.1 1-1.9 1.4-.8.3-1.6.5-2.5.5-1.2 0-2.2-.2-3.2-.7-.9-.5-1.6-1.2-2.1-2.1-.5-.9-.7-1.9-.7-3s.2-2.1.7-3c.5-.9 1.2-1.6 2-2 .9-.5 1.8-.7 2.9-.7 1.1 0 2 .2 2.9.7.8.5 1.5 1.2 2 2 .3 1 .5 2 .5 3.1zm-5.5-4c-1 0-1.8.3-2.5.9-.7.6-1 1.4-1.1 2.3h7.2c-.1-.9-.5-1.7-1.2-2.3-.7-.6-1.5-.9-2.4-.9zm-301.9 26c1.6 0 2.7.4 3.6 1.1.8.8 1.3 1.9 1.3 3.4v6.8h-2v-1.5c-.3.5-.8.9-1.5 1.2-.6.3-1.4.4-2.2.4-1.3 0-2.3-.3-3-.9-.8-.6-1.1-1.4-1.1-2.4s.4-1.8 1.1-2.4c.7-.6 1.9-.9 3.4-.9h3.2v-.4c0-.9-.3-1.6-.8-2-.5-.5-1.3-.7-2.3-.7-.7 0-1.3.1-2 .3-.6.2-1.2.5-1.6.9l-.8-1.5c.6-.5 1.3-.8 2.1-1.1.9-.1 1.7-.3 2.6-.3zm-.5 10c.8 0 1.5-.2 2-.5.6-.3 1-.9 1.2-1.5v-1.6H5.5c-1.7 0-2.6.6-2.6 1.7 0 .6.2 1 .7 1.3.5.4 1.1.6 1.8.6zm20.5-.4v4.4H24v-2.6h-9.4v2.6h-1.9v-4.4h.6c.7 0 1.2-.6 1.5-1.5.3-1 .5-2.4.6-4.1l.2-3.8h8.7v9.5h1.6v-.1zm-8.8-5.5c-.1 1.4-.2 2.6-.4 3.5-.2.9-.5 1.6-1 2H22v-7.7h-4.9v2.2zm15.4-4.1c1.6 0 2.7.4 3.6 1.1.8.8 1.3 1.9 1.3 3.4v6.8h-1.9v-1.5c-.3.5-.8.9-1.5 1.2-.6.3-1.4.4-2.2.4-1.3 0-2.3-.3-3-.9-.8-.6-1.1-1.4-1.1-2.4s.4-1.8 1.1-2.4c.7-.6 1.9-.9 3.4-.9h3.2v-.4c0-.9-.3-1.6-.8-2-.5-.5-1.3-.7-2.3-.7-.7 0-1.3.1-2 .3-.6.2-1.2.5-1.6.9l-.9-1.5c.6-.5 1.3-.8 2.1-1.1.9-.1 1.8-.3 2.6-.3zm-.4 10c.8 0 1.5-.2 2-.5.6-.3 1-.9 1.2-1.5v-1.6h-3.1c-1.7 0-2.6.6-2.6 1.7 0 .6.2 1 .7 1.3.4.4 1 .6 1.8.6zm21.9-9.9v11.3h-1.8V113l-4.2 7h-.9l-4.2-7v8.2H41v-11.3h2.1l4.4 7.6 4.6-7.6H54zm15.5 9.5v4.4h-1.9v-2.6h-9.4v2.6h-1.9v-4.4h.6c.7 0 1.2-.6 1.5-1.5.3-1 .5-2.4.6-4.1l.2-3.8h8.7v9.5h1.6zm-8.8-5.5c-.1 1.4-.2 2.6-.4 3.5-.2.9-.5 1.6-1 2h6.3v-7.7h-4.9v2.2zm15.5-4.1c1.6 0 2.7.4 3.6 1.1.8.8 1.3 1.9 1.3 3.4v6.8H79v-1.5c-.3.5-.8.9-1.5 1.2-.6.3-1.4.4-2.2.4-1.3 0-2.3-.3-3-.9-.8-.6-1.1-1.4-1.1-2.4s.4-1.8 1.1-2.4c.7-.6 1.9-.9 3.4-.9h3.2v-.4c0-.9-.3-1.6-.8-2-.5-.5-1.3-.7-2.3-.7-.7 0-1.3.1-2 .3-.6.2-1.2.5-1.6.9l-.8-1.5c.6-.5 1.3-.8 2.1-1.1.9-.1 1.8-.3 2.7-.3zm-.5 10c.8 0 1.5-.2 2-.5.6-.3 1-.9 1.2-1.5v-1.6h-3.1c-1.7 0-2.6.6-2.6 1.7 0 .6.2 1 .7 1.3.4.4 1 .6 1.8.6zm14.9-10c1.1 0 2.1.2 2.9.7.9.5 1.6 1.2 2 2 .5.9.7 1.9.7 3s-.2 2.1-.7 3c-.5.9-1.2 1.6-2 2-.9.5-1.8.7-2.9.7-.8 0-1.6-.2-2.2-.5-.7-.3-1.2-.8-1.7-1.4v5.8h-2v-15.4h2v1.8c.4-.6 1-1.1 1.7-1.4.6-.1 1.4-.3 2.2-.3zm-.1 9.8c.7 0 1.4-.2 1.9-.5.6-.3 1-.8 1.4-1.4.3-.6.5-1.3.5-2.1s-.2-1.5-.5-2.1c-.3-.6-.8-1.1-1.4-1.4-.6-.3-1.2-.5-1.9-.5s-1.4.2-1.9.5c-.6.3-1 .8-1.4 1.4-.3.6-.5 1.3-.5 2.1s.2 1.5.5 2.1c.3.6.8 1.1 1.4 1.4.5.3 1.1.5 1.9.5zm11.2-7.9v3.9h4.8v1.4h-4.8v4.1h-2V117h-1.4v-1.4h1.4v-5.7h8.3v1.8h-6.3zm12.6-1.9c1.6 0 2.7.4 3.6 1.1.8.8 1.3 1.9 1.3 3.4v6.8h-1.9v-1.5c-.3.5-.8.9-1.5 1.2-.6.3-1.4.4-2.2.4-1.3 0-2.3-.3-3-.9-.8-.6-1.1-1.4-1.1-2.4s.4-1.8 1.1-2.4c.7-.6 1.9-.9 3.4-.9h3.2v-.4c0-.9-.3-1.6-.8-2-.5-.5-1.3-.7-2.3-.7-.7 0-1.3.1-2 .3-.6.2-1.2.5-1.6.9l-.9-1.5c.6-.5 1.3-.8 2.1-1.1.8-.1 1.7-.3 2.6-.3zm-.5 10c.8 0 1.5-.2 2-.5.6-.3 1-.9 1.2-1.5v-1.6h-3.1c-1.7 0-2.6.6-2.6 1.7 0 .6.2 1 .7 1.3.4.4 1 .6 1.8.6zm24.9-3.3h-2.2v4.8h-2v-4.8h-2.2l-3.1 4.8h-2.4l3.9-5.8-3.6-5.4h2.2l3 4.8h2.2v-4.8h2v4.8h2.2l3-4.8h2.2l-3.6 5.5 3.9 5.8h-2.4l-3.1-4.9zm11.6-6.7c1.6 0 2.7.4 3.6 1.1.8.8 1.3 1.9 1.3 3.4v6.8h-1.9v-1.5c-.3.5-.8.9-1.5 1.2-.6.3-1.4.4-2.2.4-1.3 0-2.3-.3-3-.9-.8-.6-1.1-1.4-1.1-2.4s.4-1.8 1.1-2.4c.7-.6 1.9-.9 3.4-.9h3.2v-.4c0-.9-.3-1.6-.8-2-.5-.5-1.3-.7-2.3-.7-.7 0-1.3.1-2 .3-.6.2-1.2.5-1.6.9l-.9-1.5c.6-.5 1.3-.8 2.1-1.1.9-.1 1.7-.3 2.6-.3zm-.4 10c.8 0 1.5-.2 2-.5.6-.3 1-.9 1.2-1.5v-1.6H150c-1.7 0-2.6.6-2.6 1.7 0 .6.2 1 .7 1.3.4.4 1 .6 1.8.6zm13.3-3.3h-2.3v4.8h-2V110h2v4.8h2.4l3.7-4.8h2.2l-4.3 5.4 4.6 5.8H167l-3.8-4.7zm7.1 3v4.1h-1.8v-2.4H167v-1.7h3.3zm11.7-9.6v11.3h-2v-9.5h-6.4v9.5h-2v-11.3H182zm8-.1c1.6 0 2.7.4 3.6 1.1.8.8 1.3 1.9 1.3 3.4v6.8H193v-1.5c-.3.5-.8.9-1.5 1.2-.6.3-1.4.4-2.2.4-1.3 0-2.3-.3-3-.9-.8-.6-1.1-1.4-1.1-2.4s.4-1.8 1.1-2.4c.7-.6 1.9-.9 3.4-.9h3.2v-.4c0-.9-.3-1.6-.8-2-.5-.5-1.3-.7-2.3-.7-.7 0-1.3.1-2 .3-.6.2-1.2.5-1.6.9l-.9-1.5c.6-.5 1.3-.8 2.1-1.1.8-.1 1.6-.3 2.6-.3zm-.5 10c.8 0 1.5-.2 2-.5.6-.3 1-.9 1.2-1.5v-1.6h-3.1c-1.7 0-2.6.6-2.6 1.7 0 .6.2 1 .7 1.3.4.4 1 .6 1.8.6zm19-9.9-5.5 12.4c-.5 1.1-1 2-1.7 2.4-.6.5-1.4.7-2.3.7-.6 0-1.1-.1-1.6-.3-.5-.2-.9-.4-1.3-.8l.9-1.5c.6.6 1.3.8 2 .8.5 0 .9-.1 1.2-.4.3-.3.6-.7.9-1.3l.4-.8-5-11.2h2.1l3.9 9 3.9-9h2.1zm7.2 3.9c1.4 0 2.5.3 3.3 1 .8.6 1.1 1.5 1.1 2.7 0 1.2-.4 2.2-1.2 2.8-.8.7-2 1-3.5 1h-4.7V110h2v3.8h3zm6-3.9h2v11.3h-2v-11.3zm-6.5 9.8c.9 0 1.6-.2 2.1-.6.5-.4.7-.9.7-1.7 0-.7-.2-1.3-.7-1.6-.5-.3-1.2-.5-2.1-.5h-2.6v4.4h2.6zm13-1.3c.4 0 .7.1 1 .4.3.3.4.6.4 1 0 .2 0 .4-.1.6l-.3.9-1 3h-1.3l.8-3.2c-.3-.1-.5-.3-.7-.5-.2-.2-.2-.5-.2-.8 0-.4.1-.8.4-1 .3-.2.6-.4 1-.4zm20.3-1.9h-2.2v4.8h-2v-4.8h-2.2l-3.1 4.8h-2.4l3.9-5.8-3.6-5.4h2.2l3 4.8h2.2v-4.8h2v4.8h2.2l3-4.8h2.2l-3.6 5.5 3.9 5.8h-2.4l-3.1-4.9zm12.3 4.8v4.1h-2.1v-4.1l-4.9-11.3h2.1l3.9 9 4-9h2l-5 11.3zm11.5-4.8H270v4.8h-2V110h2v4.8h2.4l3.7-4.8h2.2l-4.3 5.4 4.6 5.8H276l-3.7-4.7zm16.5-4.8h-4.1v9.5h-2v-9.5h-4.1v-1.8h10.3v1.8zm2.1-1.8h2v11.3h-2v-11.3zm1-2.1c-.4 0-.7-.1-1-.4-.3-.2-.4-.6-.4-.9 0-.4.1-.7.4-.9.3-.3.6-.4 1-.4s.7.1 1 .4c.3.2.4.5.4.9s-.1.7-.4 1c-.3.2-.6.3-1 .3zm14.7 2.1v11.3h-2v-9.5h-4.8l-.1 2.5c-.1 1.5-.2 2.8-.4 3.8s-.5 1.8-1 2.4c-.5.6-1.1.9-1.9.9-.4 0-.8-.1-1.3-.2l.1-1.7c.2 0 .4.1.5.1.6 0 1-.2 1.3-.7.3-.5.5-1.1.6-1.8.1-.7.2-1.7.2-2.9l.2-4.2h8.6zm3.9 0h2v11.3h-2v-11.3zm1-2.1c-.4 0-.7-.1-1-.4-.3-.2-.4-.6-.4-.9 0-.4.1-.7.4-.9.3-.3.6-.4 1-.4s.7.1 1 .4c.3.2.4.5.4.9s-.1.7-.4 1c-.2.2-.6.3-1 .3zm9.4 8.7h-2.3v4.8h-2V110h2v4.8h2.4l3.7-4.8h2.2l-4.3 5.4 4.6 5.8h-2.4l-3.9-4.7zm8.8 1.9c.4 0 .7.1 1 .4.3.3.4.6.4 1 0 .2 0 .4-.1.6 0 .2-.1.5-.3.9l-1 3h-1.3l.8-3.2c-.3-.1-.5-.3-.7-.5-.2-.2-.2-.5-.2-.8 0-.4.1-.8.4-1 .3-.2.6-.4 1-.4zm-317.6 25v.6H2.9c.1 1 .6 1.8 1.3 2.4.8.6 1.7.9 2.8.9 1.3 0 2.4-.5 3.3-1.4l1.1 1.3c-.5.6-1.1 1-1.9 1.4-.8.3-1.6.5-2.5.5-1.2 0-2.2-.2-3.2-.7-.9-.5-1.6-1.2-2.1-2.1-.5-.9-.7-1.9-.7-3s.2-2.1.7-3c.5-.9 1.2-1.6 2-2 .9-.5 1.8-.7 2.9-.7 1.1 0 2 .2 2.9.7.8.5 1.5 1.2 2 2 .3 1 .6 2 .6 3.1zm-5.6-4c-1 0-1.8.3-2.5.9-.7.6-1 1.4-1.1 2.3h7.2c-.1-1-.5-1.7-1.2-2.3-.6-.6-1.4-.9-2.4-.9zm21.7-1.7V149h-1.8v-8.2l-4.2 7h-.9l-4.2-7v8.2h-1.9v-11.3h2.1l4.4 7.6 4.6-7.6h1.9zm20.1 0V149H32.2v-11.3h2v9.5h5v-9.5h2v9.5h5v-9.5h2.1zm14.1 5.7v.6h-9.1c.1 1 .6 1.8 1.3 2.4.8.6 1.7.9 2.8.9 1.3 0 2.4-.5 3.3-1.4l1.1 1.3c-.5.6-1.1 1-1.9 1.4-.8.3-1.6.5-2.5.5-1.2 0-2.2-.2-3.2-.7-.9-.5-1.6-1.2-2.1-2.1-.5-.9-.7-1.9-.7-3s.2-2.1.7-3c.5-.9 1.2-1.6 2-2 .9-.5 1.8-.7 2.9-.7 1.1 0 2 .2 2.9.7.8.5 1.5 1.2 2 2 .3 1 .5 2 .5 3.1zm-5.6-4c-1 0-1.8.3-2.5.9-.7.6-1 1.4-1.1 2.3h7.2c-.1-1-.5-1.7-1.2-2.3-.6-.6-1.4-.9-2.4-.9zm13.2 4.9h-2.3v4.8h-2v-11.3h2v4.8H70l3.7-4.8h2.2l-4.3 5.4 4.6 5.8h-2.4l-3.8-4.7zm24.2-.9v.6H85c.1 1 .6 1.8 1.3 2.4.8.6 1.7.9 2.8.9 1.3 0 2.4-.5 3.3-1.4l1.1 1.3c-.5.6-1.1 1-1.9 1.4-.8.3-1.6.5-2.5.5-1.2 0-2.2-.2-3.2-.7-.9-.5-1.6-1.2-2.1-2.1-.5-.9-.7-1.9-.7-3s.2-2.1.7-3c.5-.9 1.2-1.6 2-2 .9-.5 1.8-.7 2.9-.7 1.1 0 2 .2 2.9.7.8.5 1.5 1.2 2 2 .3 1 .6 2 .6 3.1zm-5.6-4c-1 0-1.8.3-2.5.9-.7.6-1 1.4-1.1 2.3h7.2c-.1-1-.5-1.7-1.2-2.3-.6-.6-1.4-.9-2.4-.9zm21.7-1.7V149h-1.8v-8.2l-4.2 7h-.9l-4.2-7v8.2h-1.9v-11.3h2.1l4.4 7.6 4.5-7.6h2zm4 0h2V149h-2v-11.3zm1-2.1c-.4 0-.7-.1-1-.4-.3-.2-.4-.6-.4-.9 0-.4.1-.7.4-.9.3-.3.6-.4 1-.4s.7.1 1 .4c.3.2.4.5.4.9s-.1.7-.4 1c-.3.2-.6.3-1 .3zm10.9 7.5c.8.2 1.3.5 1.7 1 .4.4.6 1 .6 1.6 0 .7-.2 1.3-.7 1.8-.5.5-1.1.9-1.9 1.2-.8.3-1.7.4-2.7.4-.8 0-1.7-.1-2.5-.3-.8-.2-1.5-.5-2.1-1l.6-1.6c.5.3 1.2.6 1.8.8.7.2 1.4.3 2.1.3 1 0 1.7-.2 2.3-.5.6-.3.9-.8.9-1.4 0-.5-.2-.9-.7-1.2-.5-.3-1.1-.4-1.9-.4h-2.1v-1.5h1.9c.8 0 1.4-.1 1.8-.4.4-.3.7-.6.7-1.1 0-.5-.3-.9-.8-1.2-.5-.3-1.2-.4-2.1-.4-1.1 0-2.3.3-3.6.9l-.6-1.6c1.4-.7 2.8-1 4.3-1 .9 0 1.7.1 2.4.4.7.3 1.3.6 1.7 1.1.4.5.6 1 .6 1.6 0 .6-.2 1-.6 1.5.1.5-.4.8-1.1 1zm15.6-5.4-5.5 12.4c-.5 1.1-1 2-1.7 2.4-.6.5-1.4.7-2.3.7-.6 0-1.1-.1-1.6-.3-.5-.2-.9-.4-1.3-.8l.9-1.5c.6.6 1.3.8 2 .8.5 0 .9-.1 1.2-.4.3-.3.6-.7.9-1.3l.4-.8-5-11.2h2.1l3.9 9 3.9-9h2.1zm1.8 8.5c.4 0 .7.1 1 .4.3.3.4.6.4 1 0 .2 0 .4-.1.6l-.3.9-1 3h-1.3l.8-3.2c-.3-.1-.5-.3-.7-.5-.2-.2-.2-.5-.2-.8 0-.4.1-.8.4-1 .3-.2.6-.4 1-.4zm18.5-6.7H158v9.5h-2v-9.5h-4.1v-1.8h10.3v1.8h-.1zm8-1.9c1.1 0 2.1.2 2.9.7.9.5 1.6 1.2 2 2 .5.9.7 1.9.7 3s-.2 2.1-.7 3c-.5.9-1.2 1.6-2 2-.9.5-1.8.7-2.9.7-.8 0-1.6-.2-2.2-.5-.7-.3-1.2-.8-1.7-1.4v5.8h-2v-15.4h2v1.8c.4-.6 1-1.1 1.7-1.4.6-.1 1.4-.3 2.2-.3zm-.1 9.8c.7 0 1.4-.2 1.9-.5.6-.3 1-.8 1.4-1.4.3-.6.5-1.3.5-2.1s-.2-1.5-.5-2.1c-.3-.6-.8-1.1-1.4-1.4-.6-.3-1.2-.5-1.9-.5s-1.4.2-1.9.5c-.6.3-1 .8-1.4 1.4-.3.6-.5 1.3-.5 2.1s.2 1.5.5 2.1c.3.6.8 1.1 1.4 1.4.5.3 1.1.5 1.9.5zm13.6 1.7c-1.1 0-2.1-.2-3-.7-.9-.5-1.6-1.2-2.1-2-.5-.9-.7-1.9-.7-3s.2-2.1.7-3c.5-.9 1.2-1.6 2.1-2 .9-.5 1.9-.7 3-.7s2.1.2 3 .7c.9.5 1.6 1.2 2.1 2 .5.9.8 1.8.8 3 0 1.1-.3 2.1-.8 3-.5.9-1.2 1.6-2.1 2-.9.5-1.9.7-3 .7zm0-1.7c.7 0 1.4-.2 1.9-.5.6-.3 1-.8 1.4-1.4.3-.6.5-1.3.5-2.1s-.2-1.5-.5-2.1c-.3-.6-.8-1.1-1.4-1.4-.6-.3-1.2-.5-1.9-.5s-1.4.2-2 .5c-.6.3-1 .8-1.4 1.4-.3.6-.5 1.3-.5 2.1s.2 1.5.5 2.1c.3.6.8 1.1 1.4 1.4.6.3 1.3.5 2 .5zm21.8-9.7V149h-1.8v-8.2l-4.2 7h-.9l-4.2-7v8.2h-1.9v-11.3h2.1l4.4 7.6 4.5-7.6h2zm9.7.4c1 0 2 .2 2.8.7.8.5 1.5 1.1 1.9 2 .5.8.7 1.8.7 2.8 0 1.1-.2 2.1-.7 2.9-.5.8-1.2 1.5-2.1 2-.9.5-1.9.7-3 .7-1.9 0-3.4-.7-4.4-2-1-1.3-1.6-3.2-1.6-5.5s.5-4.1 1.4-5.4c1-1.3 2.4-2.2 4.4-2.6l5.1-1.1.3 1.9-4.7 1c-1.5.3-2.6.9-3.3 1.7-.7.8-1.1 1.9-1.2 3.4.5-.7 1.1-1.3 1.9-1.7.7-.6 1.6-.8 2.5-.8zm-.3 9.4c.7 0 1.4-.2 1.9-.5.6-.3 1-.8 1.3-1.3.3-.6.5-1.2.5-2 0-1.1-.3-2-1-2.7-.7-.7-1.6-1-2.7-1s-2 .3-2.7 1c-.7.7-1 1.6-1 2.7 0 .7.2 1.4.5 2 .3.6.8 1 1.3 1.3.5.3 1.1.5 1.9.5zm16.6-8h-4.1v9.5h-2v-9.5h-4.1v-1.8h10.3v1.8zm6.1-1.9c1.6 0 2.7.4 3.6 1.1.8.8 1.3 1.9 1.3 3.4v6.8h-1.9v-1.5c-.3.5-.8.9-1.5 1.2-.6.3-1.4.4-2.2.4-1.3 0-2.3-.3-3-.9-.8-.6-1.1-1.4-1.1-2.4s.4-1.8 1.1-2.4c.7-.6 1.9-.9 3.4-.9h3.2v-.4c0-.9-.3-1.6-.8-2-.5-.5-1.3-.7-2.3-.7-.7 0-1.3.1-2 .3-.6.2-1.2.5-1.6.9l-.9-1.5c.6-.5 1.3-.8 2.1-1.1.9-.1 1.8-.3 2.6-.3zm-.4 10c.8 0 1.5-.2 2-.5.6-.3 1-.9 1.2-1.5V144h-3.1c-1.7 0-2.6.6-2.6 1.7 0 .6.2 1 .7 1.3.4.4 1 .6 1.8.6zm14.9-10c1.1 0 2.1.2 2.9.7.9.5 1.6 1.2 2 2 .5.9.7 1.9.7 3s-.2 2.1-.7 3c-.5.9-1.2 1.6-2 2-.9.5-1.8.7-2.9.7-.8 0-1.6-.2-2.2-.5-.7-.3-1.2-.8-1.7-1.4v5.8h-2v-15.4h2v1.8c.4-.6 1-1.1 1.7-1.4.6-.1 1.4-.3 2.2-.3zm-.2 9.8c.7 0 1.4-.2 1.9-.5.6-.3 1-.8 1.4-1.4.3-.6.5-1.3.5-2.1s-.2-1.5-.5-2.1c-.3-.6-.8-1.1-1.4-1.4-.6-.3-1.2-.5-1.9-.5s-1.4.2-1.9.5c-.6.3-1 .8-1.4 1.4-.3.6-.5 1.3-.5 2.1s.2 1.5.5 2.1c.3.6.8 1.1 1.4 1.4.6.3 1.2.5 1.9.5zm20.3-.2v4.4h-1.9V149h-9.4v2.6h-1.9v-4.4h.6c.7 0 1.2-.6 1.5-1.5.3-1 .5-2.4.6-4.1l.2-3.8h8.7v9.5h1.6v-.1zm-8.8-5.5c-.1 1.4-.2 2.6-.4 3.5-.2.9-.5 1.6-1 2h6.3v-7.7h-4.9v2.2zm16.5-.1c1.4 0 2.5.3 3.3 1 .8.6 1.1 1.5 1.1 2.7 0 1.2-.4 2.2-1.2 2.8-.8.7-2 1-3.5 1h-4.7v-11.3h2v3.8h3zm6.1-3.9h2V149h-2v-11.3zm-6.6 9.8c.9 0 1.6-.2 2.1-.6.5-.4.7-.9.7-1.7 0-.7-.2-1.3-.7-1.6-.5-.3-1.2-.5-2.1-.5h-2.6v4.4h2.6zm12.6-9.8h2v4.8h6.4v-4.8h2V149h-2v-4.7h-6.4v4.7h-2v-11.3zm12.2 9.5v4.2h-1.9V149h-1.9v-1.8h3.8zM10.3 167.3H6.2v9.5h-2v-9.5H0v-1.8h10.3v1.8zm7.3 9.6v4.1h-2.1v-4.1l-4.9-11.3h2.1l3.9 9 4-9h2l-5 11.3zm12.9-6c.8.2 1.3.5 1.7 1 .4.4.6 1 .6 1.6 0 .7-.2 1.3-.7 1.8-.5.5-1.1.9-1.9 1.2-.8.3-1.7.4-2.7.4-.8 0-1.7-.1-2.5-.3-.8-.2-1.5-.5-2.1-1l.6-1.6c.5.3 1.2.6 1.8.8.7.2 1.4.3 2.1.3 1 0 1.7-.2 2.3-.5.6-.3.9-.8.9-1.4 0-.5-.2-.9-.7-1.2-.5-.3-1.1-.4-1.9-.4h-2v-1.5h2c.8 0 1.4-.1 1.8-.4.4-.3.7-.6.7-1.1 0-.5-.3-.9-.8-1.2-.5-.3-1.2-.4-2.1-.4-1.1 0-2.3.3-3.6.9l-.6-1.6c1.4-.7 2.8-1 4.3-1 .9 0 1.7.1 2.4.4.7.3 1.3.6 1.7 1.1.4.5.6 1 .6 1.6 0 .6-.2 1-.6 1.5-.2.5-.7.8-1.3 1zm5.4-5.4h2v11.3h-2v-11.3zm1.1-2.1c-.4 0-.7-.1-1-.4-.3-.2-.4-.6-.4-.9 0-.4.1-.7.4-.9.3-.3.6-.4 1-.4s.7.1 1 .4c.3.2.4.5.4.9s-.1.7-.4 1c-.3.2-.6.3-1 .3zm14.6 2.1v11.3h-2v-9.5h-4.8l-.1 2.5c-.1 1.5-.2 2.8-.4 3.8s-.5 1.8-1 2.4c-.5.6-1.1.9-1.9.9-.4 0-.8-.1-1.3-.2l.1-1.7c.2 0 .3.1.5.1.6 0 1-.2 1.3-.7.3-.5.5-1.1.6-1.8.1-.7.2-1.7.2-2.9l.2-4.2h8.6zm14 0-5.5 12.4c-.5 1.1-1 2-1.7 2.4-.6.5-1.4.7-2.3.7-.6 0-1.1-.1-1.6-.3-.5-.2-.9-.4-1.3-.8l.9-1.5c.6.6 1.3.8 2 .8.5 0 .9-.1 1.2-.4.3-.3.6-.7.9-1.3l.4-.8-5-11.2h2.1l3.9 9 3.9-9h2.1zm2.1 0h2v11.3h-2v-11.3zm1.1-2.1c-.4 0-.7-.1-1-.4-.3-.2-.4-.6-.4-.9 0-.4.1-.7.4-.9.3-.3.6-.4 1-.4s.7.1 1 .4c.3.2.4.5.4.9s-.1.7-.4 1c-.3.2-.7.3-1 .3zm5 2.1h2v4.8h6.4v-4.8h2v11.3h-2v-4.7h-6.4v4.7h-2v-11.3zm24.6 5.7v.6h-9.1c.1 1 .6 1.8 1.3 2.4.8.6 1.7.9 2.8.9 1.3 0 2.4-.5 3.3-1.4l1.1 1.3c-.5.6-1.1 1-1.9 1.4-.8.3-1.6.5-2.5.5-1.2 0-2.2-.2-3.2-.7-.9-.5-1.6-1.2-2.1-2.1-.5-.9-.7-1.9-.7-3s.2-2.1.7-3c.5-.9 1.2-1.6 2-2 .9-.5 1.8-.7 2.9-.7 1.1 0 2 .2 2.9.7.8.5 1.5 1.2 2 2 .3 1 .5 2 .5 3.1zm-5.6-4c-1 0-1.8.3-2.5.9-.7.6-1 1.4-1.1 2.3h7.2c-.1-1-.5-1.7-1.2-2.3-.6-.6-1.4-.9-2.4-.9zm24.7 4.9h-2.2v4.8h-2v-4.8h-2.2l-3.1 4.8h-2.4l3.9-5.8-3.6-5.4h2.2l3 4.8h2.2v-4.8h2v4.8h2.2l3-4.8h2.2l-3.6 5.5 3.9 5.8h-2.4l-3.1-4.9zm12.3 4.8c-1.1 0-2.1-.2-3-.7-.9-.5-1.6-1.2-2.1-2-.5-.9-.7-1.9-.7-3s.2-2.1.7-3c.5-.9 1.2-1.6 2.1-2 .9-.5 1.9-.7 3-.7s2.1.2 3 .7c.9.5 1.6 1.2 2.1 2 .5.9.8 1.8.8 3 0 1.1-.3 2.1-.8 3-.5.9-1.2 1.6-2.1 2-.9.5-1.9.7-3 .7zm0-1.7c.7 0 1.4-.2 1.9-.5.6-.3 1-.8 1.4-1.4.3-.6.5-1.3.5-2.1s-.2-1.5-.5-2.1c-.3-.6-.8-1.1-1.4-1.4-.6-.3-1.2-.5-1.9-.5s-1.4.2-2 .5c-.6.3-1 .8-1.4 1.4-.3.6-.5 1.3-.5 2.1s.2 1.5.5 2.1c.3.6.8 1.1 1.4 1.4.6.3 1.3.5 2 .5zm11.2-7.9v3.9h4.8v1.4H141v4.1h-2v-4.1h-1.4v-1.4h1.4v-5.7h8.3v1.8H141zm12.6-1.9c1.6 0 2.7.4 3.6 1.1.8.8 1.3 1.9 1.3 3.4v6.8h-1.9v-1.5c-.3.5-.8.9-1.5 1.2-.6.3-1.4.4-2.2.4-1.3 0-2.3-.3-3-.9-.8-.6-1.1-1.4-1.1-2.4s.4-1.8 1.1-2.4c.7-.6 1.9-.9 3.4-.9h3.2v-.4c0-.9-.3-1.6-.8-2-.5-.5-1.3-.7-2.3-.7-.7 0-1.3.1-2 .3-.6.2-1.2.5-1.6.9l-.9-1.5c.6-.5 1.3-.8 2.1-1.1.8-.1 1.6-.3 2.6-.3zm-.5 10c.8 0 1.5-.2 2-.5.6-.3 1-.9 1.2-1.5v-1.6h-3.1c-1.7 0-2.6.6-2.6 1.7 0 .6.2 1 .7 1.3.4.4 1 .6 1.8.6zm14.9-10c1.1 0 2.1.2 2.9.7.9.5 1.6 1.2 2 2 .5.9.7 1.9.7 3s-.2 2.1-.7 3c-.5.9-1.2 1.6-2 2-.9.5-1.8.7-2.9.7-.8 0-1.6-.2-2.2-.5-.7-.3-1.2-.8-1.7-1.4v5.8h-2v-15.4h2v1.8c.4-.6 1-1.1 1.7-1.4.6-.1 1.4-.3 2.2-.3zm-.1 9.8c.7 0 1.4-.2 1.9-.5.6-.3 1-.8 1.4-1.4.3-.6.5-1.3.5-2.1s-.2-1.5-.5-2.1c-.3-.6-.8-1.1-1.4-1.4-.6-.3-1.2-.5-1.9-.5s-1.4.2-1.9.5c-.6.3-1 .8-1.4 1.4-.3.6-.5 1.3-.5 2.1s.2 1.5.5 2.1c.3.6.8 1.1 1.4 1.4.5.3 1.2.5 1.9.5zm13.9-5.8c1.4 0 2.5.3 3.3 1 .8.6 1.1 1.5 1.1 2.7 0 1.2-.4 2.2-1.2 2.8-.8.7-2 1-3.5 1h-4.7v-11.3h2v3.8h3zm6-3.9h2v11.3h-2v-11.3zm-6.5 9.8c.9 0 1.6-.2 2.1-.6.5-.4.7-.9.7-1.7 0-.7-.2-1.3-.7-1.6-.5-.3-1.2-.5-2.1-.5h-2.6v4.4h2.6zm24-9.4c1 0 2 .2 2.8.7.8.5 1.5 1.1 1.9 2 .5.8.7 1.8.7 2.8 0 1.1-.2 2.1-.7 2.9-.5.8-1.2 1.5-2.1 2-.9.5-1.9.7-3 .7-1.9 0-3.4-.7-4.4-2-1-1.3-1.6-3.2-1.6-5.5s.5-4.1 1.4-5.4c1-1.3 2.4-2.2 4.4-2.6l5.1-1.1.3 1.9-4.7 1c-1.5.3-2.6.9-3.3 1.7s-1.1 1.9-1.2 3.4c.5-.7 1.1-1.3 1.9-1.7.7-.6 1.5-.8 2.5-.8zm-.4 9.4c.7 0 1.4-.2 1.9-.5.6-.3 1-.8 1.3-1.3.3-.6.5-1.2.5-2 0-1.1-.3-2-1-2.7-.7-.7-1.6-1-2.7-1s-2 .3-2.7 1c-.7.7-1 1.6-1 2.7 0 .7.2 1.4.5 2 .3.6.8 1 1.3 1.3.6.3 1.2.5 1.9.5zm18.9-4.1v.6h-9.1c.1 1 .6 1.8 1.3 2.4.8.6 1.7.9 2.8.9 1.3 0 2.4-.5 3.3-1.4l1.1 1.3c-.5.6-1.1 1-1.9 1.4-.8.3-1.6.5-2.5.5-1.2 0-2.2-.2-3.2-.7-.9-.5-1.6-1.2-2.1-2.1-.5-.9-.7-1.9-.7-3s.2-2.1.7-3c.5-.9 1.2-1.6 2-2 .9-.5 1.8-.7 2.9-.7 1.1 0 2 .2 2.9.7.8.5 1.5 1.2 2 2 .3 1 .5 2 .5 3.1zm-5.6-4c-1 0-1.8.3-2.5.9-.7.6-1 1.4-1.1 2.3h7.2c-.1-1-.5-1.7-1.2-2.3-.6-.6-1.4-.9-2.4-.9zm8.8-1.7h2v8.2l6.9-8.2h1.8v11.3h-2v-8.2l-6.9 8.2H227v-11.3zm5.3-1.4c-1 0-1.9-.2-2.4-.7-.6-.5-.9-1.2-.9-2.2h1.4c0 .5.2.9.5 1.3.4.3.8.5 1.4.5.6 0 1-.2 1.4-.5.4-.3.5-.8.6-1.3h1.4c0 .9-.3 1.7-.9 2.2-.7.4-1.5.7-2.5.7zm9.4 1.4h2v11.3h-2v-11.3zm1.1-2.1c-.4 0-.7-.1-1-.4-.3-.2-.4-.6-.4-.9 0-.4.1-.7.4-.9.3-.3.6-.4 1-.4s.7.1 1 .4c.3.2.4.5.4.9s-.1.7-.4 1c-.3.2-.6.3-1 .3zm18 2.1v11.3H259v-8.2l-4.2 7h-.9l-4.2-7v8.2h-1.9v-11.3h2.1l4.4 7.6 4.5-7.6h2zm15.4 9.5v4.4h-1.9v-2.6h-9.4v2.6H263V175h.6c.7 0 1.2-.6 1.5-1.5.3-1 .5-2.4.6-4.1l.2-3.8h8.7v9.5h1.6v-.1zm-8.8-5.5c-.1 1.4-.2 2.6-.4 3.5-.2.9-.5 1.6-1 2h6.3v-7.7h-4.9v2.2zm11.4-4h2v11.3h-2v-11.3zm1.1-2.1c-.4 0-.7-.1-1-.4-.3-.2-.4-.6-.4-.9 0-.4.1-.7.4-.9.3-.3.6-.4 1-.4s.7.1 1 .4c.3.2.4.5.4.9s-.1.7-.4 1c-.3.2-.6.3-1 .3zm14.6 2.1v11.3h-2v-9.5h-4.8l-.1 2.5c-.1 1.5-.2 2.8-.4 3.8s-.5 1.8-1 2.4c-.5.6-1.1.9-1.9.9-.4 0-.8-.1-1.3-.2l.1-1.7c.2 0 .4.1.5.1.6 0 1-.2 1.3-.7.3-.5.5-1.1.6-1.8.1-.7.2-1.7.2-2.9l.2-4.2h8.6zm4 0h2v11.3h-2v-11.3zm1-2.1c-.4 0-.7-.1-1-.4-.3-.2-.4-.6-.4-.9 0-.4.1-.7.4-.9.3-.3.6-.4 1-.4s.7.1 1 .4c.3.2.4.5.4.9s-.1.7-.4 1c-.3.2-.6.3-1 .3zm9.4 8.7h-2.3v4.8h-2v-11.3h2v4.8h2.4l3.7-4.8h2.2l-4.3 5.4 4.6 5.8h-2.4l-3.9-4.7zm8.8 4.8c-.4 0-.7-.1-1-.4-.3-.3-.4-.6-.4-1.1 0-.4.1-.8.4-1 .3-.3.6-.4 1-.4s.7.1 1 .4c.3.3.4.6.4 1s-.1.8-.4 1.1c-.3.3-.7.4-1 .4zm85.8-164.2h-2.8v7.1h-4V2.2h4v7.1h2.9l4.6-7.1h4.3l-5.8 8.5 5.9 9.1H408l-4.5-7.1zm10 3.8v7h-3.7v-3.6h-1.7v-3.3h5.4zm8.2 3.5c-1.4 0-2.7-.3-3.8-.9-1.1-.6-2-1.4-2.6-2.5-.6-1.1-1-2.3-1-3.6 0-1.3.3-2.5 1-3.6.6-1.1 1.5-1.9 2.6-2.5 1.1-.6 2.4-.9 3.8-.9s2.7.3 3.8.9c1.1.6 2 1.4 2.6 2.5.6 1.1 1 2.3 1 3.6 0 1.3-.3 2.5-1 3.6-.6 1.1-1.5 1.9-2.6 2.5-1.1.6-2.3.9-3.8.9zm0-3.2c1 0 1.8-.3 2.5-1s1-1.6 1-2.7-.3-2-1-2.7c-.6-.7-1.5-1-2.5-1s-1.8.3-2.5 1-1 1.6-1 2.7.3 2.1 1 2.7c.7.6 1.5 1 2.5 1zM445 6.3v13.5h-3.9V9.5h-4.3l-.1 2.4c-.1 1.8-.2 3.2-.5 4.4-.3 1.2-.7 2.1-1.3 2.8-.6.7-1.4 1-2.5 1-.6 0-1.2-.1-2-.3l.2-3.2c.3 0 .5.1.6.1.6 0 1-.2 1.3-.6.3-.4.5-1 .6-1.6.1-.7.2-1.5.2-2.6l.2-5.4c-.1-.2 11.5-.2 11.5-.2zm19.3 10.3v6.1h-3.6v-2.9h-9.5v2.9h-3.6v-6.1h.6c.8 0 1.4-.5 1.7-1.5.3-1 .5-2.4.6-4.1l.2-4.7h11.8v10.3h1.8zm-10.4-5.4c-.1 1.4-.2 2.5-.3 3.4-.2.9-.4 1.5-.9 2h5.7V9.5H454l-.1 1.7zm18.5-5.1c2.1 0 3.7.5 4.8 1.5 1.1 1 1.7 2.5 1.7 4.5v7.7h-3.7v-1.7c-.7 1.3-2.1 1.9-4.1 1.9-1 0-1.9-.2-2.7-.5-.8-.4-1.3-.8-1.7-1.5-.4-.6-.6-1.3-.6-2.1 0-1.3.5-2.2 1.4-3 1-.7 2.4-1.1 4.4-1.1h3.1c0-.9-.3-1.5-.8-2s-1.3-.7-2.3-.7c-.7 0-1.4.1-2.1.4-.7.2-1.3.5-1.8.9l-1.4-2.7c.7-.5 1.6-.9 2.6-1.2 1-.3 2.1-.4 3.2-.4zm-.3 11.2c.7 0 1.3-.2 1.8-.5s.9-.8 1.1-1.4V14h-2.7c-1.6 0-2.4.5-2.4 1.6 0 .5.2.9.6 1.2.4.4.9.5 1.6.5zm10.6-11h3.9v5.3h5.9V6.3h3.9v13.5h-3.9v-5.1h-5.9v5.1h-3.9V6.3zm31.4 0L508 20.6c-.6 1.6-1.4 2.7-2.3 3.3-.9.6-2 1-3.3 1-.7 0-1.4-.1-2.1-.3-.7-.2-1.2-.5-1.7-.9l1.4-2.8c.3.3.6.5 1 .6.4.1.8.2 1.2.2.5 0 1-.1 1.3-.4.3-.3.6-.7.9-1.3l.1-.1-5.9-13.6h4l3.8 9.2 3.8-9.2h3.9zm15.5-.2c1.5 0 2.9.3 4 .9 1.2.6 2.1 1.4 2.7 2.5.6 1.1 1 2.3 1 3.6 0 1.3-.3 2.5-1 3.6-.6 1.1-1.5 1.9-2.6 2.5-1.1.6-2.3.9-3.7.9-1.3 0-2.5-.3-3.6-.9-1.1-.6-1.9-1.4-2.5-2.4-.6-1.1-.9-2.3-.9-3.7 0-.1 0-.4.1-1.1h10.2c-.2-.8-.6-1.5-1.3-2-.7-.5-1.5-.7-2.6-.7-.7 0-1.3.1-1.9.3-.5.2-1 .5-1.5 1l-2-2.4c1.3-1.4 3.1-2.1 5.6-2.1zm.5 10.9c.9 0 1.6-.3 2.2-.8.6-.5 1-1.2 1.1-2.1h-6.7c.1.9.5 1.5 1.1 2.1.7.6 1.4.8 2.3.8zm25.2-.4v6.1h-3.6v-2.9h-9.5v2.9h-3.6v-6.1h.6c.8 0 1.4-.5 1.7-1.5.3-1 .5-2.4.6-4.1l.2-4.7h11.8v10.3h1.8zm-10.4-5.4c-.1 1.4-.2 2.5-.3 3.4-.2.9-.4 1.5-.9 2h5.7V9.5H545l-.1 1.7zm13.2-4.9h3.9v13.5h-3.9V6.3zm2-1.9c-.7 0-1.3-.2-1.8-.6-.4-.4-.7-1-.7-1.6 0-.6.2-1.2.7-1.6.5-.4 1-.6 1.8-.6.7 0 1.3.2 1.8.6.5.4.7.9.7 1.5 0 .7-.2 1.2-.7 1.6-.5.5-1.1.7-1.8.7zM572.6 20c-1.4 0-2.7-.3-3.9-.9-1.1-.6-2-1.4-2.7-2.5-.6-1.1-1-2.3-1-3.6 0-1.3.3-2.5 1-3.6s1.5-1.9 2.7-2.5c1.2-.6 2.5-.9 3.9-.9s2.7.3 3.7.9c1.1.6 1.9 1.4 2.3 2.5l-3 1.6c-.7-1.2-1.7-1.9-3-1.9-1 0-1.9.3-2.5 1-.7.7-1 1.6-1 2.7 0 1.2.3 2.1 1 2.7.7.7 1.5 1 2.5 1 1.3 0 2.4-.6 3-1.9l3 1.7c-.5 1.1-1.3 1.9-2.3 2.5-1 .9-2.3 1.2-3.7 1.2zm8.8-13.7h3.9v13.5h-3.9V6.3zm1.9-1.9c-.7 0-1.3-.2-1.8-.6-.4-.4-.7-1-.7-1.6 0-.6.2-1.2.7-1.6.5-.4 1-.6 1.8-.6.7 0 1.3.2 1.8.6.5.4.7.9.7 1.5 0 .7-.2 1.2-.7 1.6-.4.5-1 .7-1.8.7zm7.6 6.6c-.7 0-1.3-.2-1.7-.7-.5-.5-.7-1.1-.7-1.8s.2-1.3.7-1.7c.5-.5 1-.7 1.7-.7s1.3.2 1.7.7c.5.4.7 1 .7 1.7s-.2 1.3-.7 1.8c-.5.4-1.1.7-1.7.7zm0 9c-.7 0-1.3-.2-1.7-.7-.5-.5-.7-1.1-.7-1.8s.2-1.3.7-1.7c.5-.5 1-.7 1.7-.7s1.3.2 1.7.7c.5.4.7 1 .7 1.7s-.2 1.3-.7 1.8c-.5.4-1.1.7-1.7.7zM407.6 55.8v1.8h-10.8V42.8h10.5v1.8H399v4.6h7.5V51H399v4.8h8.6zm9-9.5c1.1 0 2.1.2 2.9.7.9.5 1.6 1.2 2 2 .5.9.7 1.9.7 3s-.2 2.1-.7 3c-.5.9-1.2 1.6-2 2-.9.5-1.8.7-2.9.7-.8 0-1.6-.2-2.2-.5-.7-.3-1.2-.8-1.7-1.4v5.8h-2V46.4h2v1.8c.4-.6 1-1.1 1.7-1.4.6-.4 1.4-.5 2.2-.5zm-.2 9.7c.7 0 1.4-.2 1.9-.5.6-.3 1-.8 1.4-1.4.3-.6.5-1.3.5-2.1s-.2-1.5-.5-2.1c-.3-.6-.8-1.1-1.4-1.4-.6-.3-1.2-.5-1.9-.5s-1.4.2-1.9.5c-.6.3-1 .8-1.4 1.4-.3.6-.5 1.3-.5 2.1s.2 1.5.5 2.1c.3.6.8 1.1 1.4 1.4.6.3 1.2.5 1.9.5zm19-3.9v.6h-9.1c.1 1 .6 1.8 1.3 2.4.8.6 1.7.9 2.8.9 1.3 0 2.4-.5 3.3-1.4l1.1 1.3c-.5.6-1.1 1-1.9 1.4-.8.3-1.6.5-2.5.5-1.2 0-2.2-.2-3.2-.7-.9-.5-1.6-1.2-2.1-2.1-.5-.9-.7-1.9-.7-3s.2-2.1.7-3c.5-.9 1.2-1.6 2-2 .9-.5 1.8-.7 2.9-.7 1.1 0 2 .2 2.9.7.8.5 1.5 1.2 2 2 .3.9.5 1.9.5 3.1zm-5.5-4.1c-1 0-1.8.3-2.5.9-.7.6-1 1.4-1.1 2.3h7.2c-.1-1-.5-1.7-1.2-2.3-.6-.6-1.4-.9-2.4-.9zm13.6 9.8c-1.1 0-2.2-.2-3.1-.7-.9-.5-1.6-1.2-2.1-2-.5-.9-.8-1.9-.8-3s.3-2.1.8-3c.5-.9 1.2-1.6 2.1-2 .9-.5 1.9-.7 3.1-.7 1 0 1.9.2 2.7.6.8.4 1.4 1 1.9 1.8l-1.6 1c-.4-.5-.8-.9-1.3-1.2-.5-.3-1.1-.4-1.7-.4-.7 0-1.4.2-2 .5-.6.3-1.1.8-1.4 1.4-.3.6-.5 1.3-.5 2.1s.2 1.5.5 2.1c.3.6.8 1.1 1.4 1.4.6.3 1.3.5 2 .5.6 0 1.2-.1 1.7-.4.5-.3 1-.7 1.3-1.2l1.6 1c-.4.8-1.1 1.4-1.9 1.8-.7.2-1.7.4-2.7.4zm17.3-5.7v.6h-9.1c.1 1 .6 1.8 1.3 2.4.8.6 1.7.9 2.8.9 1.3 0 2.4-.5 3.3-1.4l1.1 1.3c-.5.6-1.1 1-1.9 1.4-.8.3-1.6.5-2.5.5-1.2 0-2.2-.2-3.2-.7-.9-.5-1.6-1.2-2.1-2.1-.5-.9-.7-1.9-.7-3s.2-2.1.7-3c.5-.9 1.2-1.6 2-2 .9-.5 1.8-.7 2.9-.7 1.1 0 2 .2 2.9.7.8.5 1.5 1.2 2 2 .2.9.5 1.9.5 3.1zm-5.6-4.1c-1 0-1.8.3-2.5.9-.7.6-1 1.4-1.1 2.3h7.2c-.1-1-.5-1.7-1.2-2.3-.6-.6-1.4-.9-2.4-.9zm13.1 4.9H466v4.8h-2V46.4h2v4.8h2.4l3.7-4.8h2.2l-4.3 5.4 4.6 5.8h-2.4l-3.9-4.7zm16.6-4.7h-4.1v9.5h-2v-9.5h-4.1v-1.8H485v1.8zm11.7 3.9v.6h-9.1c.1 1 .6 1.8 1.3 2.4.8.6 1.7.9 2.8.9 1.3 0 2.4-.5 3.3-1.4l1.1 1.3c-.5.6-1.1 1-1.9 1.4-.8.3-1.6.5-2.5.5-1.2 0-2.2-.2-3.2-.7-.9-.5-1.6-1.2-2.1-2.1-.5-.9-.7-1.9-.7-3s.2-2.1.7-3c.5-.9 1.2-1.6 2-2 .9-.5 1.8-.7 2.9-.7 1.1 0 2 .2 2.9.7.8.5 1.5 1.2 2 2 .3.9.5 1.9.5 3.1zm-5.5-4.1c-1 0-1.8.3-2.5.9-.7.6-1 1.4-1.1 2.3h7.2c-.1-1-.5-1.7-1.2-2.3-.6-.6-1.5-.9-2.4-.9zm14.7-1.7c1.1 0 2.1.2 2.9.7.9.5 1.6 1.2 2 2 .5.9.7 1.9.7 3s-.2 2.1-.7 3c-.5.9-1.2 1.6-2 2-.9.5-1.8.7-2.9.7-.8 0-1.6-.2-2.2-.5-.7-.3-1.2-.8-1.7-1.4v5.8h-2V46.4h2v1.8c.4-.6 1-1.1 1.7-1.4.6-.4 1.3-.5 2.2-.5zm-.2 9.7c.7 0 1.4-.2 1.9-.5.6-.3 1-.8 1.4-1.4.3-.6.5-1.3.5-2.1s-.2-1.5-.5-2.1c-.3-.6-.8-1.1-1.4-1.4-.6-.3-1.2-.5-1.9-.5s-1.4.2-1.9.5c-.6.3-1 .8-1.4 1.4-.3.6-.5 1.3-.5 2.1s.2 1.5.5 2.1c.3.6.8 1.1 1.4 1.4.6.3 1.2.5 1.9.5zm17.1-7.8h-6.3v9.5h-2V46.4h8.3v1.8zm11.8 3.9v.6h-9.1c.1 1 .6 1.8 1.3 2.4.8.6 1.7.9 2.8.9 1.3 0 2.4-.5 3.3-1.4l1.1 1.3c-.5.6-1.1 1-1.9 1.4-.8.3-1.6.5-2.5.5-1.2 0-2.2-.2-3.2-.7-.9-.5-1.6-1.2-2.1-2.1-.5-.9-.7-1.9-.7-3s.2-2.1.7-3c.5-.9 1.2-1.6 2-2 .9-.5 1.8-.7 2.9-.7 1.1 0 2 .2 2.9.7.8.5 1.5 1.2 2 2 .3.9.5 1.9.5 3.1zm-5.6-4.1c-1 0-1.8.3-2.5.9-.7.6-1 1.4-1.1 2.3h7.2c-.1-1-.5-1.7-1.2-2.3-.6-.6-1.4-.9-2.4-.9zm22.9.2h-4.1v9.5h-2v-9.5h-4.1v-1.8h10.3v1.8zm6.1-1.9c1.6 0 2.7.4 3.6 1.1.8.8 1.3 1.9 1.3 3.4v6.8h-1.9v-1.5c-.3.5-.8.9-1.5 1.2-.6.3-1.4.4-2.2.4-1.3 0-2.3-.3-3-.9-.8-.6-1.1-1.4-1.1-2.4s.4-1.8 1.1-2.4c.7-.6 1.9-.9 3.4-.9h3.2v-.4c0-.9-.3-1.6-.8-2-.5-.5-1.3-.7-2.3-.7-.7 0-1.3.1-2 .3-.6.2-1.2.5-1.6.9l-.9-1.5c.6-.5 1.3-.8 2.1-1.1.8-.2 1.7-.3 2.6-.3zm-.5 9.9c.8 0 1.5-.2 2-.5.6-.3 1-.9 1.2-1.5v-1.6h-3.1c-1.7 0-2.6.6-2.6 1.7 0 .6.2 1 .7 1.3.4.4 1 .6 1.8.6zm22-9.8v11.3h-1.8v-8.2l-4.2 7h-.9l-4.2-7v8.2h-1.9V46.4h2.1l4.4 7.6 4.5-7.6h2zm8-.1c1.6 0 2.7.4 3.6 1.1.8.8 1.3 1.9 1.3 3.4v6.8h-1.9v-1.5c-.3.5-.8.9-1.5 1.2-.6.3-1.4.4-2.2.4-1.3 0-2.3-.3-3-.9-.8-.6-1.1-1.4-1.1-2.4s.4-1.8 1.1-2.4c.7-.6 1.9-.9 3.4-.9h3.2v-.4c0-.9-.3-1.6-.8-2-.5-.5-1.3-.7-2.3-.7-.7 0-1.3.1-2 .3-.6.2-1.2.5-1.6.9l-.9-1.5c.6-.5 1.3-.8 2.1-1.1.8-.2 1.7-.3 2.6-.3zm-.5 9.9c.8 0 1.5-.2 2-.5.6-.3 1-.9 1.2-1.5v-1.6H587c-1.7 0-2.6.6-2.6 1.7 0 .6.2 1 .7 1.3.4.4 1 .6 1.8.6zm13.3-3.3h-2.3v4.8h-2V46.4h2v4.8h2.4l3.7-4.8h2.2l-4.3 5.4 4.6 5.8H604l-3.8-4.7zm7.1 3V60h-1.8v-2.4H604v-1.7h3.3zm11.7-9.5v11.3h-2v-9.5h-6.4v9.5h-2V46.4H619zm14.1 5.7v.6H624c.1 1 .6 1.8 1.3 2.4.8.6 1.7.9 2.8.9 1.3 0 2.4-.5 3.3-1.4l1.1 1.3c-.5.6-1.1 1-1.9 1.4-.8.3-1.6.5-2.5.5-1.2 0-2.2-.2-3.2-.7-.9-.5-1.6-1.2-2.1-2.1-.5-.9-.7-1.9-.7-3s.2-2.1.7-3c.5-.9 1.2-1.6 2-2 .9-.5 1.8-.7 2.9-.7 1.1 0 2 .2 2.9.7.8.5 1.5 1.2 2 2 .3.9.5 1.9.5 3.1zm-5.5-4.1c-1 0-1.8.3-2.5.9-.7.6-1 1.4-1.1 2.3h7.2c-.1-1-.5-1.7-1.2-2.3-.6-.6-1.4-.9-2.4-.9zm8.7-1.6h2v4.8h6.4v-4.8h2v11.3h-2V53h-6.4v4.7h-2V46.4zm25.9.4c1 0 2 .2 2.8.7.8.5 1.5 1.1 1.9 2 .5.8.7 1.8.7 2.8 0 1.1-.2 2.1-.7 2.9-.5.8-1.2 1.5-2.1 2-.9.5-1.9.7-3 .7-1.9 0-3.4-.7-4.4-2-1-1.3-1.6-3.2-1.6-5.5s.5-4.1 1.4-5.4c.9-1.3 2.4-2.2 4.4-2.6l5.1-1.1.3 1.9-4.7 1c-1.5.3-2.6.9-3.3 1.7-.7.8-1.1 1.9-1.2 3.4.5-.7 1.1-1.3 1.9-1.7.7-.6 1.6-.8 2.5-.8zm-.3 9.3c.7 0 1.4-.2 1.9-.5.6-.3 1-.8 1.3-1.3.3-.6.5-1.2.5-2 0-1.1-.3-2-1-2.7-.7-.7-1.6-1-2.7-1s-2 .3-2.7 1c-.7.7-1 1.6-1 2.7 0 .7.2 1.4.5 2 .3.6.8 1 1.3 1.3.5.3 1.2.5 1.9.5zm8.7-9.7h2v11.3h-2V46.4zm1-2.2c-.4 0-.7-.1-1-.4-.3-.2-.4-.6-.4-.9 0-.4.1-.7.4-.9.3-.3.6-.4 1-.4s.7.1 1 .4c.3.2.4.5.4.9s-.1.7-.4 1c-.3.2-.6.3-1 .3zm11 2.1c1.1 0 2.1.2 2.9.7.9.5 1.6 1.2 2 2 .5.9.7 1.9.7 3s-.2 2.1-.7 3c-.5.9-1.2 1.6-2 2-.9.5-1.8.7-2.9.7-.8 0-1.6-.2-2.2-.5-.7-.3-1.2-.8-1.7-1.4v5.8h-2V46.4h2v1.8c.4-.6 1-1.1 1.7-1.4.6-.4 1.3-.5 2.2-.5zm-.2 9.7c.7 0 1.4-.2 1.9-.5.6-.3 1-.8 1.4-1.4.3-.6.5-1.3.5-2.1s-.2-1.5-.5-2.1c-.3-.6-.8-1.1-1.4-1.4-.6-.3-1.2-.5-1.9-.5s-1.4.2-1.9.5c-.6.3-1 .8-1.4 1.4-.3.6-.5 1.3-.5 2.1s.2 1.5.5 2.1c.3.6.8 1.1 1.4 1.4.5.3 1.2.5 1.9.5zm17.1-7.8h-6.3v9.5h-2V46.4h8.3v1.8zm11.8 3.9v.6h-9.1c.1 1 .6 1.8 1.3 2.4.8.6 1.7.9 2.8.9 1.3 0 2.4-.5 3.3-1.4l1.1 1.3c-.5.6-1.1 1-1.9 1.4-.8.3-1.6.5-2.5.5-1.2 0-2.2-.2-3.2-.7-.9-.5-1.6-1.2-2.1-2.1-.5-.9-.7-1.9-.7-3s.2-2.1.7-3c.5-.9 1.2-1.6 2-2 .9-.5 1.8-.7 2.9-.7s2 .2 2.9.7c.8.5 1.5 1.2 2 2 .3.9.5 1.9.5 3.1zm-5.6-4.1c-1 0-1.8.3-2.5.9-.7.6-1 1.4-1.1 2.3h7.2c-.1-1-.5-1.7-1.2-2.3-.6-.6-1.4-.9-2.4-.9zM400.9 80.7h-2.3v4.8h-2V74.2h2V79h2.4l3.7-4.8h2.2l-4.3 5.4 4.6 5.8h-2.4l-3.9-4.7z"/><path d="M413.7 85.5v4.1h-2.1v-4.1l-4.9-11.3h2.1l3.9 9 4-9h2l-5 11.3zm7.1-11.3h2V79h6.4v-4.8h2v11.3h-2v-4.7h-6.4v4.7h-2V74.2zm14.4 0h2v11.3h-2V74.2zm1-2.2c-.4 0-.7-.1-1-.4-.3-.2-.4-.6-.4-.9 0-.4.1-.7.4-.9.3-.3.6-.4 1-.4s.7.1 1 .4c.3.2.4.5.4.9s-.1.7-.4 1c-.2.2-.6.3-1 .3zm5 2.2h2V79h6.4v-4.8h2v11.3h-2v-4.7h-6.4v4.7h-2V74.2zm24.7 5.7v.6h-9.1c.1 1 .6 1.8 1.3 2.4.8.6 1.7.9 2.8.9 1.3 0 2.4-.5 3.3-1.4l1.1 1.3c-.5.6-1.1 1-1.9 1.4-.8.3-1.6.5-2.5.5-1.2 0-2.2-.2-3.2-.7-.9-.5-1.6-1.2-2.1-2.1-.5-.9-.7-1.9-.7-3s.2-2.1.7-3c.5-.9 1.2-1.6 2-2 .9-.5 1.8-.7 2.9-.7 1.1 0 2 .2 2.9.7.8.5 1.5 1.2 2 2 .3.9.5 1.9.5 3.1zm-5.6-4.1c-1 0-1.8.3-2.5.9-.7.6-1 1.4-1.1 2.3h7.2c-.1-1-.5-1.7-1.2-2.3-.6-.6-1.4-.9-2.4-.9zm18.1-5.2v14.9h-2.1v-13H473v-1.8h5.4zm15.9 3.5c1.1 0 2.1.2 2.9.7.9.5 1.6 1.2 2 2 .5.9.7 1.9.7 3s-.2 2.1-.7 3c-.5.9-1.2 1.6-2 2-.9.5-1.8.7-2.9.7-.8 0-1.6-.2-2.2-.5-.7-.3-1.2-.8-1.7-1.4v5.8h-2V74.2h2V76c.4-.6 1-1.1 1.7-1.4.6-.4 1.4-.5 2.2-.5zm-.1 9.7c.7 0 1.4-.2 1.9-.5.6-.3 1-.8 1.4-1.4.3-.6.5-1.3.5-2.1s-.2-1.5-.5-2.1c-.3-.6-.8-1.1-1.4-1.4-.6-.3-1.2-.5-1.9-.5s-1.4.2-1.9.5c-.6.3-1 .8-1.4 1.4-.3.6-.5 1.3-.5 2.1s.2 1.5.5 2.1c.3.6.8 1.1 1.4 1.4.5.3 1.2.5 1.9.5zm19-3.9v.6H504c.1 1 .6 1.8 1.3 2.4.8.6 1.7.9 2.8.9 1.3 0 2.4-.5 3.3-1.4l1.1 1.3c-.5.6-1.1 1-1.9 1.4-.8.3-1.6.5-2.5.5-1.2 0-2.2-.2-3.2-.7-.9-.5-1.6-1.2-2.1-2.1-.5-.9-.7-1.9-.7-3s.2-2.1.7-3c.5-.9 1.2-1.6 2-2 .9-.5 1.8-.7 2.9-.7 1.1 0 2 .2 2.9.7.8.5 1.5 1.2 2 2 .3.9.6 1.9.6 3.1zm-5.6-4.1c-1 0-1.8.3-2.5.9-.7.6-1 1.4-1.1 2.3h7.2c-.1-1-.5-1.7-1.2-2.3-.6-.6-1.4-.9-2.4-.9zm16.7.2h-4.1v9.5h-2V76H514v-1.8h10.3V76zm13.5-1.4c1 0 2 .2 2.8.7.8.5 1.5 1.1 1.9 2 .5.8.7 1.8.7 2.8 0 1.1-.2 2.1-.7 2.9-.5.8-1.2 1.5-2.1 2-.9.5-1.9.7-3 .7-1.9 0-3.4-.7-4.4-2-1-1.3-1.6-3.2-1.6-5.5s.5-4.1 1.4-5.4c.9-1.3 2.4-2.2 4.4-2.6l5.1-1.1.3 1.9-4.7 1c-1.5.3-2.6.9-3.3 1.7-.7.8-1.1 1.9-1.2 3.4.5-.7 1.1-1.3 1.9-1.7.7-.6 1.6-.8 2.5-.8zm-.4 9.3c.7 0 1.4-.2 1.9-.5.6-.3 1-.8 1.3-1.3.3-.6.5-1.2.5-2 0-1.1-.3-2-1-2.7-.7-.7-1.6-1-2.7-1s-2 .3-2.7 1c-.7.7-1 1.6-1 2.7 0 .7.2 1.4.5 2 .3.6.8 1 1.3 1.3.6.3 1.2.5 1.9.5zm8.7-9.7h2v11.3h-2V74.2zm1.1-2.2c-.4 0-.7-.1-1-.4-.3-.2-.4-.6-.4-.9 0-.4.1-.7.4-.9.3-.3.6-.4 1-.4s.7.1 1 .4c.3.2.4.5.4.9s-.1.7-.4 1c-.3.2-.6.3-1 .3zm10.9 2.1c1.1 0 2.1.2 2.9.7.9.5 1.6 1.2 2 2 .5.9.7 1.9.7 3s-.2 2.1-.7 3c-.5.9-1.2 1.6-2 2-.9.5-1.8.7-2.9.7-.8 0-1.6-.2-2.2-.5-.7-.3-1.2-.8-1.7-1.4v5.8h-2V74.2h2V76c.4-.6 1-1.1 1.7-1.4.6-.4 1.4-.5 2.2-.5zm-.1 9.7c.7 0 1.4-.2 1.9-.5.6-.3 1-.8 1.4-1.4.3-.6.5-1.3.5-2.1s-.2-1.5-.5-2.1c-.3-.6-.8-1.1-1.4-1.4-.6-.3-1.2-.5-1.9-.5s-1.4.2-1.9.5c-.6.3-1 .8-1.4 1.4-.3.6-.5 1.3-.5 2.1s.2 1.5.5 2.1c.3.6.8 1.1 1.4 1.4.5.3 1.2.5 1.9.5zm22.9-7.8h-4.1v9.5h-2V76h-4.1v-1.8H581V76zm6.1-1.9c1.6 0 2.7.4 3.6 1.1.8.8 1.3 1.9 1.3 3.4v6.8H590V84c-.3.5-.8.9-1.5 1.2-.6.3-1.4.4-2.2.4-1.3 0-2.3-.3-3-.9-.8-.6-1.1-1.4-1.1-2.4s.4-1.8 1.1-2.4c.7-.6 1.9-.9 3.4-.9h3.2v-.4c0-.9-.3-1.6-.8-2-.5-.5-1.3-.7-2.3-.7-.7 0-1.3.1-2 .3-.6.2-1.2.5-1.6.9l-.9-1.5c.6-.5 1.3-.8 2.1-1.1.9-.3 1.7-.4 2.6-.4zm-.5 9.9c.8 0 1.5-.2 2-.5.6-.3 1-.9 1.2-1.5v-1.6h-3.1c-1.7 0-2.6.6-2.6 1.7 0 .6.2 1 .7 1.3.5.4 1.1.6 1.8.6zm14.8-9.4c1 0 2 .2 2.8.7.8.5 1.5 1.1 1.9 2 .5.8.7 1.8.7 2.8 0 1.1-.2 2.1-.7 2.9-.5.8-1.2 1.5-2.1 2-.9.5-1.9.7-3 .7-1.9 0-3.4-.7-4.4-2-1-1.3-1.6-3.2-1.6-5.5s.5-4.1 1.4-5.4c.9-1.3 2.4-2.2 4.4-2.6l5.1-1.1.3 1.9-4.7 1c-1.5.3-2.6.9-3.3 1.7-.7.8-1.1 1.9-1.2 3.4.5-.7 1.1-1.3 1.9-1.7.6-.6 1.5-.8 2.5-.8zm-.4 9.3c.7 0 1.4-.2 1.9-.5.6-.3 1-.8 1.3-1.3.3-.6.5-1.2.5-2 0-1.1-.3-2-1-2.7-.7-.7-1.6-1-2.7-1s-2 .3-2.7 1c-.7.7-1 1.6-1 2.7 0 .7.2 1.4.5 2 .3.6.8 1 1.3 1.3.5.3 1.2.5 1.9.5zm18.3-9.7v11.3h-2V76h-4.8l-.1 2.5c-.1 1.5-.2 2.8-.4 3.8s-.5 1.8-1 2.4c-.5.6-1.1.9-1.9.9-.4 0-.8-.1-1.3-.2l.1-1.7c.2 0 .4.1.5.1.6 0 1-.2 1.3-.7.3-.5.5-1.1.6-1.8.1-.7.2-1.7.2-2.9l.2-4.2h8.6zm14.1 5.7v.6h-9.1c.1 1 .6 1.8 1.3 2.4.8.6 1.7.9 2.8.9 1.3 0 2.4-.5 3.3-1.4l1.1 1.3c-.5.6-1.1 1-1.9 1.4-.8.3-1.6.5-2.5.5-1.2 0-2.2-.2-3.2-.7-.9-.5-1.6-1.2-2.1-2.1-.5-.9-.7-1.9-.7-3s.2-2.1.7-3c.5-.9 1.2-1.6 2-2 .9-.5 1.8-.7 2.9-.7 1.1 0 2 .2 2.9.7.8.5 1.5 1.2 2 2 .3.9.5 1.9.5 3.1zm-5.6-4.1c-1 0-1.8.3-2.5.9-.7.6-1 1.4-1.1 2.3h7.2c-.1-1-.5-1.7-1.2-2.3-.6-.6-1.4-.9-2.4-.9zm16.7.2h-4.1v9.5h-2V76h-4.1v-1.8h10.3V76zm6.5 4.7h-2.3v4.8h-2V74.2h2V79h2.4l3.7-4.8h2.2l-4.3 5.4 4.6 5.8h-2.4l-3.9-4.7zm12.1-6.6c1.6 0 2.7.4 3.6 1.1.8.8 1.3 1.9 1.3 3.4v6.8H666V84c-.3.5-.8.9-1.5 1.2-.6.3-1.4.4-2.2.4-1.3 0-2.3-.3-3-.9-.8-.6-1.1-1.4-1.1-2.4s.4-1.8 1.1-2.4c.7-.6 1.9-.9 3.4-.9h3.2v-.4c0-.9-.3-1.6-.8-2-.5-.5-1.3-.7-2.3-.7-.7 0-1.3.1-2 .3-.6.2-1.2.5-1.6.9l-.9-1.5c.6-.5 1.3-.8 2.1-1.1.8-.3 1.7-.4 2.6-.4zm-.5 9.9c.8 0 1.5-.2 2-.5.6-.3 1-.9 1.2-1.5v-1.6h-3.1c-1.7 0-2.6.6-2.6 1.7 0 .6.2 1 .7 1.3.4.4 1.1.6 1.8.6zm20.5-.3v4.4h-1.9v-2.6h-9.4v2.6h-1.9v-4.4h.6c.7 0 1.2-.6 1.5-1.5.3-1 .5-2.4.6-4.1l.2-3.8h8.7v9.5c-.2-.1 1.6-.1 1.6-.1zm-8.8-5.6c-.1 1.4-.2 2.6-.4 3.5-.2.9-.5 1.6-1 2h6.3V76h-4.9c.1 0 0 2.1 0 2.1zm15.4-4c1.6 0 2.7.4 3.6 1.1.8.8 1.3 1.9 1.3 3.4v6.8h-1.9V84c-.3.5-.8.9-1.5 1.2-.6.3-1.4.4-2.2.4-1.3 0-2.3-.3-3-.9-.8-.6-1.1-1.4-1.1-2.4s.4-1.8 1.1-2.4c.7-.6 1.9-.9 3.4-.9h3.2v-.4c0-.9-.3-1.6-.8-2-.5-.5-1.3-.7-2.3-.7-.7 0-1.3.1-2 .3-.6.2-1.2.5-1.6.9l-.9-1.5c.6-.5 1.3-.8 2.1-1.1.9-.3 1.7-.4 2.6-.4zm-.4 9.9c.8 0 1.5-.2 2-.5.6-.3 1-.9 1.2-1.5v-1.6h-3.1c-1.7 0-2.6.6-2.6 1.7 0 .6.2 1 .7 1.3.4.4 1 .6 1.8.6zm8.9-9.8h2V79h6.4v-4.8h2v11.3h-2v-4.7h-6.4v4.7h-2V74.2zm-297.2 34.3h-2.3v4.8h-2V102h2v4.8h2.4l3.7-4.8h2.2l-4.3 5.4 4.6 5.8h-2.4l-3.9-4.7zm7 3v4.1H406v-2.4h-1.4v-1.7h3.3zm5.1-9.6c1.6 0 2.7.4 3.6 1.1.8.8 1.3 1.9 1.3 3.4v6.8H416v-1.5c-.3.5-.8.9-1.5 1.2-.6.3-1.4.4-2.2.4-1.3 0-2.3-.3-3-.9-.8-.6-1.1-1.4-1.1-2.4s.4-1.8 1.1-2.4c.7-.6 1.9-.9 3.4-.9h3.2v-.4c0-.9-.3-1.6-.8-2-.5-.5-1.3-.7-2.3-.7-.7 0-1.3.1-2 .3-.6.2-1.2.5-1.6.9l-.9-1.5c.6-.5 1.3-.8 2.1-1.1.9-.2 1.7-.3 2.6-.3zm-.5 9.9c.8 0 1.5-.2 2-.5.6-.3 1-.9 1.2-1.5v-1.6h-3.1c-1.7 0-2.6.6-2.6 1.7 0 .6.2 1 .7 1.3.4.4 1.1.6 1.8.6zm14.7-9.4c1 0 2 .2 2.8.7.8.5 1.5 1.1 1.9 2 .5.8.7 1.8.7 2.8 0 1.1-.2 2.1-.7 2.9-.5.8-1.2 1.5-2.1 2-.9.5-1.9.7-3 .7-1.9 0-3.4-.7-4.4-2-1-1.3-1.6-3.2-1.6-5.5s.5-4.1 1.4-5.4c.9-1.3 2.4-2.2 4.4-2.6l5.1-1.1.3 1.9-4.7 1c-1.5.3-2.6.9-3.3 1.7-.7.8-1.1 1.9-1.2 3.4.5-.7 1.1-1.3 1.9-1.7.7-.6 1.6-.8 2.5-.8zm-.3 9.3c.7 0 1.4-.2 1.9-.5.6-.3 1-.8 1.3-1.3.3-.6.5-1.2.5-2 0-1.1-.3-2-1-2.7-.7-.7-1.6-1-2.7-1s-2 .3-2.7 1c-.7.7-1 1.6-1 2.7 0 .7.2 1.4.5 2 .3.6.8 1 1.3 1.3.5.3 1.2.5 1.9.5zm13.8-5.9c1.4 0 2.5.3 3.3 1 .8.6 1.1 1.5 1.1 2.7 0 1.2-.4 2.2-1.2 2.8-.8.7-2 1-3.5 1h-4.7V102h2v3.8h3zm6-3.8h2v11.3h-2V102zm-6.5 9.7c.9 0 1.6-.2 2.1-.6.5-.4.7-.9.7-1.7 0-.7-.2-1.3-.7-1.6-.5-.3-1.2-.5-2.1-.5h-2.6v4.4h2.6zm22.2-9.7v11.3h-2v-9.5h-4.8l-.1 2.5c-.1 1.5-.2 2.8-.4 3.8s-.5 1.8-1 2.4c-.5.6-1.1.9-1.9.9-.4 0-.8-.1-1.3-.2l.1-1.7c.2 0 .4.1.5.1.6 0 1-.2 1.3-.7.3-.5.5-1.1.6-1.8.1-.7.2-1.7.2-2.9l.2-4.2h8.6zm15.4 9.5v4.4h-1.9v-2.6h-9.4v2.6h-1.9v-4.4h.6c.7 0 1.2-.6 1.5-1.5.3-1 .5-2.4.6-4.1l.2-3.8h8.7v9.5h1.6zm-8.7-5.6c-.1 1.4-.2 2.6-.4 3.5-.2.9-.5 1.6-1 2h6.3v-7.7h-4.9v2.2zm15.4-4c1.6 0 2.7.4 3.6 1.1.8.8 1.3 1.9 1.3 3.4v6.8h-1.9v-1.5c-.3.5-.8.9-1.5 1.2-.6.3-1.4.4-2.2.4-1.3 0-2.3-.3-3-.9-.8-.6-1.1-1.4-1.1-2.4s.4-1.8 1.1-2.4c.7-.6 1.9-.9 3.4-.9h3.2v-.4c0-.9-.3-1.6-.8-2-.5-.5-1.3-.7-2.3-.7-.7 0-1.3.1-2 .3-.6.2-1.2.5-1.6.9l-.9-1.5c.6-.5 1.3-.8 2.1-1.1.8-.2 1.7-.3 2.6-.3zm-.5 9.9c.8 0 1.5-.2 2-.5.6-.3 1-.9 1.2-1.5v-1.6h-3.1c-1.7 0-2.6.6-2.6 1.7 0 .6.2 1 .7 1.3.4.4 1 .6 1.8.6zm19-9.8-5.5 12.4c-.5 1.1-1 2-1.7 2.4-.6.5-1.4.7-2.3.7-.6 0-1.1-.1-1.6-.3-.5-.2-.9-.4-1.3-.8l.9-1.5c.6.6 1.3.8 2 .8.5 0 .9-.1 1.2-.4.3-.3.6-.7.9-1.3l.4-.8-5-11.2h2.1l3.9 9 3.9-9h2.1zm12.2 6.5h-2.3v4.8h-2V102h2v4.8h2.4l3.7-4.8h2.2l-4.3 5.4 4.6 5.8H519l-3.8-4.7zm18.2-.8v.6h-9.1c.1 1 .6 1.8 1.3 2.4.8.6 1.7.9 2.8.9 1.3 0 2.4-.5 3.3-1.4l1.1 1.3c-.5.6-1.1 1-1.9 1.4-.8.3-1.6.5-2.5.5-1.2 0-2.2-.2-3.2-.7-.9-.5-1.6-1.2-2.1-2.1-.5-.9-.7-1.9-.7-3s.2-2.1.7-3c.5-.9 1.2-1.6 2-2 .9-.5 1.8-.7 2.9-.7 1.1 0 2 .2 2.9.7.8.5 1.5 1.2 2 2 .2.9.5 1.9.5 3.1zm-5.6-4.1c-1 0-1.8.3-2.5.9-.7.6-1 1.4-1.1 2.3h7.2c-.1-1-.5-1.7-1.2-2.3-.6-.6-1.4-.9-2.4-.9zm14.7-1.7c1.1 0 2.1.2 2.9.7.9.5 1.6 1.2 2 2 .5.9.7 1.9.7 3s-.2 2.1-.7 3c-.5.9-1.2 1.6-2 2-.9.5-1.8.7-2.9.7-.8 0-1.6-.2-2.2-.5-.7-.3-1.2-.8-1.7-1.4v5.8h-2V102h2v1.8c.4-.6 1-1.1 1.7-1.4.6-.4 1.4-.5 2.2-.5zm-.2 9.7c.7 0 1.4-.2 1.9-.5.6-.3 1-.8 1.4-1.4.3-.6.5-1.3.5-2.1s-.2-1.5-.5-2.1c-.3-.6-.8-1.1-1.4-1.4-.6-.3-1.2-.5-1.9-.5s-1.4.2-1.9.5c-.6.3-1 .8-1.4 1.4-.3.6-.5 1.3-.5 2.1s.2 1.5.5 2.1c.3.6.8 1.1 1.4 1.4.6.3 1.2.5 1.9.5zm19.1-3.9v.6h-9.1c.1 1 .6 1.8 1.3 2.4.8.6 1.7.9 2.8.9 1.3 0 2.4-.5 3.3-1.4l1.1 1.3c-.5.6-1.1 1-1.9 1.4-.8.3-1.6.5-2.5.5-1.2 0-2.2-.2-3.2-.7-.9-.5-1.6-1.2-2.1-2.1-.5-.9-.7-1.9-.7-3s.2-2.1.7-3c.5-.9 1.2-1.6 2-2 .9-.5 1.8-.7 2.9-.7 1.1 0 2 .2 2.9.7.8.5 1.5 1.2 2 2 .2.9.5 1.9.5 3.1zm-5.6-4.1c-1 0-1.8.3-2.5.9-.7.6-1 1.4-1.1 2.3h7.2c-.1-1-.5-1.7-1.2-2.3-.6-.6-1.4-.9-2.4-.9zm13.1 4.9h-2.3v4.8h-2V102h2v4.8h2.4l3.7-4.8h2.2l-4.3 5.4 4.6 5.8h-2.4l-3.9-4.7zm8.8 4.9c-.4 0-.7-.1-1-.4-.3-.3-.4-.6-.4-1.1 0-.4.1-.8.4-1 .3-.3.6-.4 1-.4s.7.1 1 .4c.3.3.4.6.4 1s-.1.8-.4 1.1c-.3.2-.6.4-1 .4zm15.6-6.7h-3.1v6.5h-2.1V98.4h2.1v6.5h3.1l4.7-6.5h2.3l-5.3 7.2 5.6 7.7h-2.4l-4.9-6.6zm8.2 4.7v5.1h-2v-3.3h-1.4v-1.8h3.4zm6-9.5c1.6 0 2.7.4 3.6 1.1.8.8 1.3 1.9 1.3 3.4v6.8h-1.9v-1.5c-.3.5-.8.9-1.5 1.2-.6.3-1.4.4-2.2.4-1.3 0-2.3-.3-3-.9-.8-.6-1.1-1.4-1.1-2.4s.4-1.8 1.1-2.4c.7-.6 1.9-.9 3.4-.9h3.2v-.4c0-.9-.3-1.6-.8-2-.5-.5-1.3-.7-2.3-.7-.7 0-1.3.1-2 .3-.6.2-1.2.5-1.6.9l-.9-1.5c.6-.5 1.3-.8 2.1-1.1.8-.2 1.7-.3 2.6-.3zm-.5 9.9c.8 0 1.5-.2 2-.5.6-.3 1-.9 1.2-1.5v-1.6h-3.1c-1.7 0-2.6.6-2.6 1.7 0 .6.2 1 .7 1.3.4.4 1 .6 1.8.6zm14.7-9.4c1 0 2 .2 2.8.7.8.5 1.5 1.1 1.9 2 .5.8.7 1.8.7 2.8 0 1.1-.2 2.1-.7 2.9-.5.8-1.2 1.5-2.1 2-.9.5-1.9.7-3 .7-1.9 0-3.4-.7-4.4-2-1-1.3-1.6-3.2-1.6-5.5s.5-4.1 1.4-5.4c1-1.3 2.4-2.2 4.4-2.6l5.1-1.1.3 1.9-4.7 1c-1.5.3-2.6.9-3.3 1.7-.7.8-1.1 1.9-1.2 3.4.5-.7 1.1-1.3 1.9-1.7.7-.6 1.6-.8 2.5-.8zm-.4 9.3c.7 0 1.4-.2 1.9-.5.6-.3 1-.8 1.3-1.3.3-.6.5-1.2.5-2 0-1.1-.3-2-1-2.7-.7-.7-1.6-1-2.7-1s-2 .3-2.7 1c-.7.7-1 1.6-1 2.7 0 .7.2 1.4.5 2 .3.6.8 1 1.3 1.3.6.3 1.2.5 1.9.5zm13.8-5.9c1.4 0 2.5.3 3.3 1 .8.6 1.1 1.5 1.1 2.7 0 1.2-.4 2.2-1.2 2.8-.8.7-2 1-3.5 1h-4.7V102h2v3.8h3zm6.1-3.8h2v11.3h-2V102zm-6.6 9.7c.9 0 1.6-.2 2.1-.6.5-.4.7-.9.7-1.7 0-.7-.2-1.3-.7-1.6-.5-.3-1.2-.5-2.1-.5H632v4.4h2.6zm22.3-9.7v11.3h-2v-9.5H650l-.1 2.5c-.1 1.5-.2 2.8-.4 3.8s-.5 1.8-1 2.4c-.5.6-1.1.9-1.9.9-.4 0-.8-.1-1.3-.2l.1-1.7c.2 0 .4.1.5.1.6 0 1-.2 1.3-.7.3-.5.5-1.1.6-1.8.1-.7.2-1.7.2-2.9l.2-4.2h8.7zm15.4 9.5v4.4h-1.9v-2.6H661v2.6h-2v-4.4h.6c.7 0 1.2-.6 1.5-1.5.3-1 .5-2.4.6-4.1l.2-3.8h8.7v9.5h1.7zm-8.8-5.6c-.1 1.4-.2 2.6-.4 3.5-.2.9-.5 1.6-1 2h6.3v-7.7h-4.9v2.2zm15.5-4c1.6 0 2.7.4 3.6 1.1.8.8 1.3 1.9 1.3 3.4v6.8H682v-1.5c-.3.5-.8.9-1.5 1.2-.6.3-1.4.4-2.2.4-1.3 0-2.3-.3-3-.9-.8-.6-1.1-1.4-1.1-2.4s.4-1.8 1.1-2.4c.7-.6 1.9-.9 3.4-.9h3.2v-.4c0-.9-.3-1.6-.8-2-.5-.5-1.3-.7-2.3-.7-.7 0-1.3.1-2 .3-.6.2-1.2.5-1.6.9l-.9-1.5c.6-.5 1.3-.8 2.1-1.1.8-.2 1.6-.3 2.6-.3zm-.5 9.9c.8 0 1.5-.2 2-.5.6-.3 1-.9 1.2-1.5v-1.6h-3.1c-1.7 0-2.6.6-2.6 1.7 0 .6.2 1 .7 1.3.4.4 1 .6 1.8.6zm19-9.8-5.5 12.4c-.5 1.1-1 2-1.7 2.4-.6.5-1.4.7-2.3.7-.6 0-1.1-.1-1.6-.3-.5-.2-.9-.4-1.3-.8l.9-1.5c.6.6 1.3.8 2 .8.5 0 .9-.1 1.2-.4.3-.3.6-.7.9-1.3l.4-.8-5-11.2h2.1l3.9 9 3.9-9h2.1zm-295.9 39.1v4.1h-2.1v-4.1l-4.9-11.3h2.1l3.9 9 4-9h2l-5 11.3zm-5.6-.9h9.1v1.4H396v-1.4zm18.5-5c.8.2 1.3.5 1.7 1 .4.4.6 1 .6 1.6 0 .7-.2 1.3-.7 1.8-.5.5-1.1.9-1.9 1.2-.8.3-1.7.4-2.7.4-.8 0-1.7-.1-2.5-.3-.8-.2-1.5-.5-2.1-1l.6-1.6c.5.3 1.2.6 1.8.8.7.2 1.4.3 2.1.3 1 0 1.7-.2 2.3-.5.6-.3.9-.8.9-1.4 0-.5-.2-.9-.7-1.2-.5-.3-1.1-.4-1.9-.4h-2.1v-1.5h1.9c.8 0 1.4-.1 1.8-.4.4-.3.7-.6.7-1.1 0-.5-.3-.9-.8-1.2-.5-.3-1.2-.4-2.1-.4-1.1 0-2.3.3-3.6.9l-.6-1.6c1.4-.7 2.8-1 4.3-1 .9 0 1.7.1 2.4.4.7.3 1.3.6 1.7 1.1.4.5.6 1 .6 1.6 0 .6-.2 1-.6 1.5 0 .4-.5.7-1.1 1zm9.5-5.5c1.6 0 2.7.4 3.6 1.1.8.8 1.3 1.9 1.3 3.4v6.8H427v-1.5c-.3.5-.8.9-1.5 1.2-.6.3-1.4.4-2.2.4-1.3 0-2.3-.3-3-.9-.8-.6-1.1-1.4-1.1-2.4s.4-1.8 1.1-2.4c.7-.6 1.9-.9 3.4-.9h3.2v-.4c0-.9-.3-1.6-.8-2-.5-.5-1.3-.7-2.3-.7-.7 0-1.3.1-2 .3-.6.2-1.2.5-1.6.9l-.9-1.5c.6-.5 1.3-.8 2.1-1.1.8-.2 1.7-.3 2.6-.3zm-.5 9.9c.8 0 1.5-.2 2-.5.6-.3 1-.9 1.2-1.5V136h-3.1c-1.7 0-2.6.6-2.6 1.7 0 .6.2 1 .7 1.3.4.4 1.1.6 1.8.6zm13.4-3.3h-2.3v4.8h-2v-11.3h2v4.8h2.4l3.7-4.8h2.2l-4.3 5.4 4.6 5.8h-2.4l-3.9-4.7zm7 3v4.1h-1.8V141h-1.4v-1.7h3.2zm9.5-7.7h-4.1v9.5h-2v-9.5h-4.1v-1.8h10.3v1.8zm7.2 2c1.4 0 2.5.3 3.3 1 .8.6 1.1 1.5 1.1 2.7 0 1.2-.4 2.2-1.2 2.8-.8.7-2 1-3.5 1h-4.7v-11.3h2v3.8h3zm6.1-3.8h2V141h-2v-11.2zm-6.6 9.7c.9 0 1.6-.2 2.1-.6.5-.4.7-.9.7-1.7 0-.7-.2-1.3-.7-1.6-.5-.3-1.2-.5-2.1-.5h-2.6v4.4h2.6zm14.9-7.9v3.9h4.8v1.4H475v4.1h-2v-4.1h-1.4v-1.4h1.4v-5.7h8.3v1.8H475zm13.7 2c1.4 0 2.5.3 3.3 1 .8.6 1.1 1.5 1.1 2.7 0 1.2-.4 2.2-1.2 2.8-.8.7-2 1-3.5 1h-4.7v-11.3h2v3.8h3zm6.1-3.8h2V141h-2v-11.2zm-6.6 9.7c.9 0 1.6-.2 2.1-.6.5-.4.7-.9.7-1.7 0-.7-.2-1.3-.7-1.6-.5-.3-1.2-.5-2.1-.5h-2.6v4.4h2.6zm16.3-5h10.6v1.4h-10.6v-1.4zm22-8.3V141h-2.1v-13H521v-1.8h5.5zm13.9 3.5c1.6 0 2.7.4 3.6 1.1.8.8 1.3 1.9 1.3 3.4v6.8h-1.9v-1.5c-.3.5-.8.9-1.5 1.2-.6.3-1.4.4-2.2.4-1.3 0-2.3-.3-3-.9-.8-.6-1.1-1.4-1.1-2.4s.4-1.8 1.1-2.4c.7-.6 1.9-.9 3.4-.9h3.2v-.4c0-.9-.3-1.6-.8-2-.5-.5-1.3-.7-2.3-.7-.7 0-1.3.1-2 .3-.6.2-1.2.5-1.6.9l-.9-1.5c.6-.5 1.3-.8 2.1-1.1.9-.2 1.7-.3 2.6-.3zm-.4 9.9c.8 0 1.5-.2 2-.5.6-.3 1-.9 1.2-1.5V136h-3.1c-1.7 0-2.6.6-2.6 1.7 0 .6.2 1 .7 1.3.4.4 1 .6 1.8.6zm8.9-9.8h2v8.2l6.9-8.2h1.8V141h-2v-8.2l-6.9 8.2h-1.9v-11.2h.1zm5.3-1.5c-1 0-1.9-.2-2.4-.7-.6-.5-.9-1.2-.9-2.2h1.4c0 .5.2.9.5 1.3.4.3.8.5 1.4.5.6 0 1-.2 1.4-.5.4-.3.5-.8.6-1.3h1.4c0 .9-.3 1.7-.9 2.2-.7.5-1.5.7-2.5.7zm9.9 12.9c-.4 0-.7-.1-1-.4-.3-.3-.4-.6-.4-1.1 0-.4.1-.8.4-1 .3-.3.6-.4 1-.4s.7.1 1 .4c.3.3.4.6.4 1s-.1.8-.4 1.1c-.2.2-.6.4-1 .4zm15.6-6.7h-3.1v6.5h-2.1v-14.9h2.1v6.5h3.1l4.7-6.5h2.3l-5.3 7.2 5.6 7.7h-2.4l-4.9-6.5zm8.3 4.7v5.1h-2V141h-1.4v-1.8h3.4zm5.9-9.5c1.6 0 2.7.4 3.6 1.1.8.8 1.3 1.9 1.3 3.4v6.8h-1.9v-1.5c-.3.5-.8.9-1.5 1.2-.6.3-1.4.4-2.2.4-1.3 0-2.3-.3-3-.9-.8-.6-1.1-1.4-1.1-2.4s.4-1.8 1.1-2.4c.7-.6 1.9-.9 3.4-.9h3.2v-.4c0-.9-.3-1.6-.8-2-.5-.5-1.3-.7-2.3-.7-.7 0-1.3.1-2 .3-.6.2-1.2.5-1.6.9l-.9-1.5c.6-.5 1.3-.8 2.1-1.1.9-.2 1.7-.3 2.6-.3zm-.4 9.9c.8 0 1.5-.2 2-.5.6-.3 1-.9 1.2-1.5V136h-3.1c-1.7 0-2.6.6-2.6 1.7 0 .6.2 1 .7 1.3.4.4 1 .6 1.8.6zm19.2-3.3h-2.2v4.8h-2v-4.8h-2.2l-3.1 4.8h-2.4l3.9-5.8-3.6-5.4h2.2l3 4.8h2.2v-4.8h2v4.8h2.2l3-4.8h2.2l-3.6 5.5 3.9 5.8h-2.4l-3.1-4.9zm17.6-.8v.6h-9.1c.1 1 .6 1.8 1.3 2.4.8.6 1.7.9 2.8.9 1.3 0 2.4-.5 3.3-1.4l1.1 1.3c-.5.6-1.1 1-1.9 1.4-.8.3-1.6.5-2.5.5-1.2 0-2.2-.2-3.2-.7-.9-.5-1.6-1.2-2.1-2.1-.5-.9-.7-1.9-.7-3s.2-2.1.7-3c.5-.9 1.2-1.6 2-2 .9-.5 1.8-.7 2.9-.7s2 .2 2.9.7c.8.5 1.5 1.2 2 2 .2.9.5 1.9.5 3.1zm-5.6-4.1c-1 0-1.8.3-2.5.9-.7.6-1 1.4-1.1 2.3h7.2c-.1-1-.5-1.7-1.2-2.3-.6-.6-1.4-.9-2.4-.9zm16.7.2h-4.1v9.5h-2v-9.5h-4.1v-1.8h10.3v1.8zm13.5-1.4c1 0 2 .2 2.8.7.8.5 1.5 1.1 1.9 2 .5.8.7 1.8.7 2.8 0 1.1-.2 2.1-.7 2.9-.5.8-1.2 1.5-2.1 2-.9.5-1.9.7-3 .7-1.9 0-3.4-.7-4.4-2-1-1.3-1.6-3.2-1.6-5.5s.5-4.1 1.4-5.4c.9-1.3 2.4-2.2 4.4-2.6l5.1-1.1.3 1.9-4.7 1c-1.5.3-2.6.9-3.3 1.7-.7.8-1.1 1.9-1.2 3.4.5-.7 1.1-1.3 1.9-1.7.7-.6 1.6-.8 2.5-.8zm-.4 9.3c.7 0 1.4-.2 1.9-.5.6-.3 1-.8 1.3-1.3.3-.6.5-1.2.5-2 0-1.1-.3-2-1-2.7-.7-.7-1.6-1-2.7-1s-2 .3-2.7 1c-.7.7-1 1.6-1 2.7 0 .7.2 1.4.5 2 .3.6.8 1 1.3 1.3.6.3 1.2.5 1.9.5zm13.6 1.7c-1.1 0-2.1-.2-3-.7-.9-.5-1.6-1.2-2.1-2-.5-.9-.7-1.9-.7-3s.2-2.1.7-3c.5-.9 1.2-1.6 2.1-2 .9-.5 1.9-.7 3-.7s2.1.2 3 .7c.9.5 1.6 1.2 2.1 2 .5.9.8 1.8.8 3 0 1.1-.3 2.1-.8 3-.5.9-1.2 1.6-2.1 2-.9.4-1.9.7-3 .7zm0-1.8c.7 0 1.4-.2 1.9-.5.6-.3 1-.8 1.4-1.4.3-.6.5-1.3.5-2.1s-.2-1.5-.5-2.1c-.3-.6-.8-1.1-1.4-1.4-.6-.3-1.2-.5-1.9-.5s-1.4.2-2 .5c-.6.3-1 .8-1.4 1.4-.3.6-.5 1.3-.5 2.1s.2 1.5.5 2.1c.3.6.8 1.1 1.4 1.4.6.3 1.2.5 2 .5zm18.4-9.6V141h-2v-9.5h-4.8l-.1 2.5c-.1 1.5-.2 2.8-.4 3.8s-.5 1.8-1 2.4c-.5.6-1.1.9-1.9.9-.4 0-.8-.1-1.3-.2l.1-1.7c.2 0 .4.1.5.1.6 0 1-.2 1.3-.7.3-.5.5-1.1.6-1.8.1-.7.2-1.7.2-2.9l.2-4.2 8.6.1zm6.3 1.8v3.9h4.8v1.4h-4.8v4.1h-2v-4.1h-1.4v-1.4h1.4v-5.7h8.3v1.8h-6.3zm12.6-1.9c1.6 0 2.7.4 3.6 1.1.8.8 1.3 1.9 1.3 3.4v6.8h-1.9v-1.5c-.3.5-.8.9-1.5 1.2-.6.3-1.4.4-2.2.4-1.3 0-2.3-.3-3-.9-.8-.6-1.1-1.4-1.1-2.4s.4-1.8 1.1-2.4c.7-.6 1.9-.9 3.4-.9h3.2v-.4c0-.9-.3-1.6-.8-2-.5-.5-1.3-.7-2.3-.7-.7 0-1.3.1-2 .3-.6.2-1.2.5-1.6.9l-.9-1.5c.6-.5 1.3-.8 2.1-1.1.8-.2 1.7-.3 2.6-.3zm-.5 9.9c.8 0 1.5-.2 2-.5.6-.3 1-.9 1.2-1.5V136H705c-1.7 0-2.6.6-2.6 1.7 0 .6.2 1 .7 1.3.4.4 1 .6 1.8.6zm9-9.8h2v4.8h6.4v-4.8h2V141h-2v-4.7h-6.4v4.7h-2v-11.2zm-307.2 34.3h-2.2v4.8h-2v-4.8h-2.2l-3.1 4.8h-2.4l3.9-5.8-3.6-5.4h2.2l3 4.8h2.2v-4.8h2v4.8h2.2l3-4.8h2.2l-3.6 5.5 3.9 5.8h-2.4l-3.1-4.9zm11.6-6.6c1.6 0 2.7.4 3.6 1.1.8.8 1.3 1.9 1.3 3.4v6.8h-1.9v-1.5c-.3.5-.8.9-1.5 1.2-.6.3-1.4.4-2.2.4-1.3 0-2.3-.3-3-.9-.8-.6-1.1-1.4-1.1-2.4s.4-1.8 1.1-2.4c.7-.6 1.9-.9 3.4-.9h3.2v-.3c0-.9-.3-1.6-.8-2-.5-.5-1.3-.7-2.3-.7-.7 0-1.3.1-2 .3-.6.2-1.2.5-1.6.9l-.9-1.5c.6-.5 1.3-.8 2.1-1.1.9-.3 1.8-.4 2.6-.4zm-.4 9.9c.8 0 1.5-.2 2-.5.6-.3 1-.9 1.2-1.5v-1.6H418c-1.7 0-2.6.6-2.6 1.7 0 .6.2 1 .7 1.3.4.4 1 .6 1.8.6zm11.3-8v3.9h4.8v1.4h-4.8v4.1h-2v-4.1h-1.4v-1.4h1.4v-5.7h8.3v1.8h-6.3zm19.3 7.7v4.4h-1.9v-2.6h-9.4v2.6h-1.9v-4.4h.6c.7 0 1.2-.6 1.5-1.5.3-1 .5-2.4.6-4.1l.2-3.8h8.7v9.5h1.6v-.1zm-8.7-5.6c-.1 1.4-.2 2.6-.4 3.5-.2.9-.5 1.6-1 2h6.3v-7.7h-4.9v2.2zm15.4-4c1.6 0 2.7.4 3.6 1.1.8.8 1.3 1.9 1.3 3.4v6.8h-1.9v-1.5c-.3.5-.8.9-1.5 1.2-.6.3-1.4.4-2.2.4-1.3 0-2.3-.3-3-.9-.8-.6-1.1-1.4-1.1-2.4s.4-1.8 1.1-2.4c.7-.6 1.9-.9 3.4-.9h3.2v-.3c0-.9-.3-1.6-.8-2-.5-.5-1.3-.7-2.3-.7-.7 0-1.3.1-2 .3-.6.2-1.2.5-1.6.9l-.9-1.5c.6-.5 1.3-.8 2.1-1.1.8-.3 1.7-.4 2.6-.4zm-.5 9.9c.8 0 1.5-.2 2-.5.6-.3 1-.9 1.2-1.5v-1.6h-3.1c-1.7 0-2.6.6-2.6 1.7 0 .6.2 1 .7 1.3.5.4 1.1.6 1.8.6zm9-9.8h2v8.2l6.9-8.2h1.8v11.3h-2v-8.2l-6.9 8.2h-1.9v-11.3zm5.3-1.5c-1 0-1.9-.2-2.4-.7-.6-.5-.9-1.2-.9-2.2h1.4c0 .5.2.9.5 1.3.4.3.8.5 1.4.5s1-.2 1.4-.5c.4-.3.5-.8.6-1.3h1.4c0 .9-.3 1.7-.9 2.2-.7.5-1.5.7-2.5.7zm20.9 11v4.4H488v-2.6h-9.4v2.6h-1.9v-4.4h.6c.7 0 1.2-.6 1.5-1.5.3-1 .5-2.4.6-4.1l.2-3.8h8.7v9.5h1.6zm-8.7-5.6c-.1 1.4-.2 2.6-.4 3.5-.2.9-.5 1.6-1 2h6.3v-7.7h-4.9v2.2zm15.4-4c1.6 0 2.7.4 3.6 1.1.8.8 1.3 1.9 1.3 3.4v6.8h-1.9v-1.5c-.3.5-.8.9-1.5 1.2-.6.3-1.4.4-2.2.4-1.3 0-2.3-.3-3-.9-.8-.6-1.1-1.4-1.1-2.4s.4-1.8 1.1-2.4c.7-.6 1.9-.9 3.4-.9h3.2v-.3c0-.9-.3-1.6-.8-2-.5-.5-1.3-.7-2.3-.7-.7 0-1.3.1-2 .3-.6.2-1.2.5-1.6.9l-.9-1.5c.6-.5 1.3-.8 2.1-1.1.8-.3 1.7-.4 2.6-.4zm-.5 9.9c.8 0 1.5-.2 2-.5.6-.3 1-.9 1.2-1.5v-1.6h-3.1c-1.7 0-2.6.6-2.6 1.7 0 .6.2 1 .7 1.3.5.4 1.1.6 1.8.6zm19.1-3.3h-2.3v4.8h-2v-11.3h2v4.8h2.4l3.7-4.8h2.2l-4.3 5.4 4.6 5.8H519l-3.8-4.7zm7.1 3v4.1h-1.8v-2.4H519v-1.7h3.3zm5-9.6c1.6 0 2.7.4 3.6 1.1.8.8 1.3 1.9 1.3 3.4v6.8h-1.9v-1.5c-.3.5-.8.9-1.5 1.2-.6.3-1.4.4-2.2.4-1.3 0-2.3-.3-3-.9-.8-.6-1.1-1.4-1.1-2.4s.4-1.8 1.1-2.4c.7-.6 1.9-.9 3.4-.9h3.2v-.3c0-.9-.3-1.6-.8-2-.5-.5-1.3-.7-2.3-.7-.7 0-1.3.1-2 .3-.6.2-1.2.5-1.6.9l-.9-1.5c.6-.5 1.3-.8 2.1-1.1.9-.3 1.7-.4 2.6-.4zm-.4 9.9c.8 0 1.5-.2 2-.5.6-.3 1-.9 1.2-1.5v-1.6H527c-1.7 0-2.6.6-2.6 1.7 0 .6.2 1 .7 1.3.4.4 1 .6 1.8.6zm14.7-9.4c1 0 2 .2 2.8.7.8.5 1.5 1.1 1.9 2 .5.8.7 1.8.7 2.8 0 1.1-.2 2.1-.7 2.9-.5.8-1.2 1.5-2.1 2-.9.5-1.9.7-3 .7-1.9 0-3.4-.7-4.4-2-1-1.3-1.6-3.2-1.6-5.5s.5-4.1 1.4-5.4c1-1.3 2.4-2.2 4.4-2.6l5.1-1.1.3 1.9-4.7 1c-1.5.3-2.6.9-3.3 1.7s-1.1 1.9-1.2 3.4c.5-.7 1.1-1.3 1.9-1.7.7-.6 1.5-.8 2.5-.8zm-.4 9.3c.7 0 1.4-.2 1.9-.5.6-.3 1-.8 1.3-1.3.3-.6.5-1.2.5-2 0-1.1-.3-2-1-2.7-.7-.7-1.6-1-2.7-1s-2 .3-2.7 1c-.7.7-1 1.6-1 2.7 0 .7.2 1.4.5 2 .3.6.8 1 1.3 1.3.6.3 1.2.5 1.9.5zm13.8-5.9c1.4 0 2.5.3 3.3 1 .8.6 1.1 1.5 1.1 2.7 0 1.2-.4 2.2-1.2 2.8-.8.7-2 1-3.5 1H550v-11.3h2v3.8h3zm6.1-3.8h2v11.3h-2v-11.3zm-6.6 9.7c.9 0 1.6-.2 2.1-.6.5-.4.7-.9.7-1.7 0-.7-.2-1.3-.7-1.6-.5-.3-1.2-.5-2.1-.5h-2.6v4.4h2.6zm22.2-9.7v11.3h-2v-9.5h-4.8l-.1 2.5c-.1 1.5-.2 2.8-.4 3.8s-.5 1.8-1 2.4c-.5.6-1.1.9-1.9.9-.4 0-.8-.1-1.3-.2l.1-1.7c.2 0 .4.1.5.1.6 0 1-.2 1.3-.7.3-.5.5-1.1.6-1.8.1-.7.2-1.7.2-2.9l.2-4.2h8.6zm15.5 9.5v4.4h-1.9v-2.6h-9.4v2.6H579v-4.4h.6c.7 0 1.2-.6 1.5-1.5.3-1 .5-2.4.6-4.1l.2-3.8h8.7v9.5h1.6zm-8.8-5.6c-.1 1.4-.2 2.6-.4 3.5-.2.9-.5 1.6-1 2h6.3v-7.7h-4.9v2.2zm15.4-4c1.6 0 2.7.4 3.6 1.1.8.8 1.3 1.9 1.3 3.4v6.8h-1.9v-1.5c-.3.5-.8.9-1.5 1.2-.6.3-1.4.4-2.2.4-1.3 0-2.3-.3-3-.9-.8-.6-1.1-1.4-1.1-2.4s.4-1.8 1.1-2.4c.7-.6 1.9-.9 3.4-.9h3.2v-.3c0-.9-.3-1.6-.8-2-.5-.5-1.3-.7-2.3-.7-.7 0-1.3.1-2 .3-.6.2-1.2.5-1.6.9l-.9-1.5c.6-.5 1.3-.8 2.1-1.1.9-.3 1.8-.4 2.6-.4zm-.4 9.9c.8 0 1.5-.2 2-.5.6-.3 1-.9 1.2-1.5v-1.6h-3.1c-1.7 0-2.6.6-2.6 1.7 0 .6.2 1 .7 1.3.4.4 1 .6 1.8.6zm19-9.8-5.5 12.4c-.5 1.1-1 2-1.7 2.4-.6.5-1.4.7-2.3.7-.6 0-1.1-.1-1.6-.3-.5-.2-.9-.4-1.3-.8l.9-1.5c.6.6 1.3.8 2 .8.5 0 .9-.1 1.2-.4.3-.3.6-.7.9-1.3l.4-.8-5-11.2h2.1l3.9 9 3.9-9h2.1zm12.9 9.5v4.4h-1.9v-2.6H619v2.6h-1.9v-4.4h.6c.7 0 1.2-.6 1.5-1.5.3-1 .5-2.4.6-4.1l.2-3.8h8.7v9.5h1.6zm-8.7-5.6c-.1 1.4-.2 2.6-.4 3.5-.2.9-.5 1.6-1 2h6.3v-7.7h-4.9v2.2zm16.5-.1c1.4 0 2.5.3 3.3 1 .8.6 1.1 1.5 1.1 2.7 0 1.2-.4 2.2-1.2 2.8-.8.7-2 1-3.5 1h-4.7v-11.3h2v3.8h3zm6-3.8h2v11.3h-2v-11.3zm-6.5 9.7c.9 0 1.6-.2 2.1-.6.5-.4.7-.9.7-1.7 0-.7-.2-1.3-.7-1.6-.5-.3-1.2-.5-2.1-.5H635v4.4h2.6zm-236.7 24.6h-2.3v4.8h-2v-11.3h2v4.8h2.4l3.7-4.8h2.2l-4.3 5.4 4.6 5.8h-2.4l-3.9-4.7zm7 3v4.1H406v-2.4h-1.4v-1.7h3.3zm5.1-9.6c1.6 0 2.7.4 3.6 1.1.8.8 1.3 1.9 1.3 3.4v6.8H416v-1.5c-.3.5-.8.9-1.5 1.2-.6.3-1.4.4-2.2.4-1.3 0-2.3-.3-3-.9-.8-.6-1.1-1.4-1.1-2.4s.4-1.8 1.1-2.4c.7-.6 1.9-.9 3.4-.9h3.2v-.4c0-.9-.3-1.6-.8-2-.5-.5-1.3-.7-2.3-.7-.7 0-1.3.1-2 .3-.6.2-1.2.5-1.6.9l-.9-1.5c.6-.5 1.3-.8 2.1-1.1.9-.2 1.7-.3 2.6-.3zm-.5 9.9c.8 0 1.5-.2 2-.5.6-.3 1-.9 1.2-1.5v-1.6h-3.1c-1.7 0-2.6.6-2.6 1.7 0 .6.2 1 .7 1.3.4.4 1.1.6 1.8.6zm9-9.8h2v8.2l6.9-8.2h1.8v11.3h-2v-8.2l-6.9 8.2h-1.9l.1-11.3zm5.3-1.5c-1 0-1.9-.2-2.4-.7-.6-.5-.9-1.2-.9-2.2h1.4c0 .5.2.9.5 1.3.4.3.8.5 1.4.5.6 0 1-.2 1.4-.5.4-.3.5-.8.6-1.3h1.4c0 .9-.3 1.7-.9 2.2-.7.5-1.5.7-2.5.7zm17.9 3.3h-4.1v9.5h-2v-9.5h-4.1v-1.8h10.3v1.8zm6.1-1.9c1.6 0 2.7.4 3.6 1.1.8.8 1.3 1.9 1.3 3.4v6.8h-1.9v-1.5c-.3.5-.8.9-1.5 1.2-.6.3-1.4.4-2.2.4-1.3 0-2.3-.3-3-.9-.8-.6-1.1-1.4-1.1-2.4s.4-1.8 1.1-2.4c.7-.6 1.9-.9 3.4-.9h3.2v-.4c0-.9-.3-1.6-.8-2-.5-.5-1.3-.7-2.3-.7-.7 0-1.3.1-2 .3-.6.2-1.2.5-1.6.9l-.9-1.5c.6-.5 1.3-.8 2.1-1.1.8-.2 1.7-.3 2.6-.3zm-.5 9.9c.8 0 1.5-.2 2-.5.6-.3 1-.9 1.2-1.5v-1.6h-3.1c-1.7 0-2.6.6-2.6 1.7 0 .6.2 1 .7 1.3.4.4 1 .6 1.8.6zm18.6-9.8v11.3h-2v-9.5h-4.8l-.1 2.5c-.1 1.5-.2 2.8-.4 3.8s-.5 1.8-1 2.4c-.5.6-1.1.9-1.9.9-.4 0-.8-.1-1.3-.2l.1-1.7c.2 0 .4.1.5.1.6 0 1-.2 1.3-.7.3-.5.5-1.1.6-1.8.1-.7.2-1.7.2-2.9l.2-4.2h8.6zm8-.1c1.6 0 2.7.4 3.6 1.1.8.8 1.3 1.9 1.3 3.4v6.8h-1.9v-1.5c-.3.5-.8.9-1.5 1.2-.6.3-1.4.4-2.2.4-1.3 0-2.3-.3-3-.9-.8-.6-1.1-1.4-1.1-2.4s.4-1.8 1.1-2.4c.7-.6 1.9-.9 3.4-.9h3.2v-.4c0-.9-.3-1.6-.8-2-.5-.5-1.3-.7-2.3-.7-.7 0-1.3.1-2 .3-.6.2-1.2.5-1.6.9l-.9-1.5c.6-.5 1.3-.8 2.1-1.1.9-.2 1.7-.3 2.6-.3zm-.5 9.9c.8 0 1.5-.2 2-.5.6-.3 1-.9 1.2-1.5v-1.6h-3.1c-1.7 0-2.6.6-2.6 1.7 0 .6.2 1 .7 1.3.5.4 1.1.6 1.8.6zm19.1-9.8-5.5 12.4c-.5 1.1-1 2-1.7 2.4-.6.5-1.4.7-2.3.7-.6 0-1.1-.1-1.6-.3-.5-.2-.9-.4-1.3-.8l.9-1.5c.6.6 1.3.8 2 .8.5 0 .9-.1 1.2-.4.3-.3.6-.7.9-1.3l.4-.8-5-11.2h2.1l3.9 9 3.9-9h2.1zm4.4 1.8v3.9h4.8v1.4h-4.8v4.1h-2v-4.1h-1.4v-1.4h1.4v-5.7h8.3v1.8h-6.3zm12.6-1.9c1.6 0 2.7.4 3.6 1.1.8.8 1.3 1.9 1.3 3.4v6.8h-1.9v-1.5c-.3.5-.8.9-1.5 1.2-.6.3-1.4.4-2.2.4-1.3 0-2.3-.3-3-.9-.8-.6-1.1-1.4-1.1-2.4s.4-1.8 1.1-2.4c.7-.6 1.9-.9 3.4-.9h3.2v-.4c0-.9-.3-1.6-.8-2-.5-.5-1.3-.7-2.3-.7-.7 0-1.3.1-2 .3-.6.2-1.2.5-1.6.9l-.9-1.5c.6-.5 1.3-.8 2.1-1.1.9-.2 1.7-.3 2.6-.3zm-.4 9.9c.8 0 1.5-.2 2-.5.6-.3 1-.9 1.2-1.5v-1.6h-3.1c-1.7 0-2.6.6-2.6 1.7 0 .6.2 1 .7 1.3.4.4 1 .6 1.8.6zm20.4-9.4c1 0 2 .2 2.8.7.8.5 1.5 1.1 1.9 2 .5.8.7 1.8.7 2.8 0 1.1-.2 2.1-.7 2.9-.5.8-1.2 1.5-2.1 2-.9.5-1.9.7-3 .7-1.9 0-3.4-.7-4.4-2-1-1.3-1.6-3.2-1.6-5.5s.5-4.1 1.4-5.4c1-1.3 2.4-2.2 4.4-2.6l5.1-1.1.3 1.9-4.7 1c-1.5.3-2.6.9-3.3 1.7-.7.8-1.1 1.9-1.2 3.4.5-.7 1.1-1.3 1.9-1.7.7-.6 1.5-.8 2.5-.8zm-.4 9.3c.7 0 1.4-.2 1.9-.5.6-.3 1-.8 1.3-1.3.3-.6.5-1.2.5-2 0-1.1-.3-2-1-2.7-.7-.7-1.6-1-2.7-1s-2 .3-2.7 1c-.7.7-1 1.6-1 2.7 0 .7.2 1.4.5 2 .3.6.8 1 1.3 1.3.6.3 1.2.5 1.9.5zm13.6 1.7c-1.1 0-2.1-.2-3-.7-.9-.5-1.6-1.2-2.1-2-.5-.9-.7-1.9-.7-3s.2-2.1.7-3c.5-.9 1.2-1.6 2.1-2 .9-.5 1.9-.7 3-.7s2.1.2 3 .7c.9.5 1.6 1.2 2.1 2 .5.9.8 1.8.8 3 0 1.1-.3 2.1-.8 3-.5.9-1.2 1.6-2.1 2-.9.4-1.9.7-3 .7zm0-1.8c.7 0 1.4-.2 1.9-.5.6-.3 1-.8 1.4-1.4.3-.6.5-1.3.5-2.1s-.2-1.5-.5-2.1c-.3-.6-.8-1.1-1.4-1.4-.6-.3-1.2-.5-1.9-.5s-1.4.2-2 .5c-.6.3-1 .8-1.4 1.4-.3.6-.5 1.3-.5 2.1s.2 1.5.5 2.1c.3.6.8 1.1 1.4 1.4.6.3 1.2.5 2 .5zm18.3-9.6v11.3h-2v-9.5h-4.8l-.1 2.5c-.1 1.5-.2 2.8-.4 3.8s-.5 1.8-1 2.4c-.5.6-1.1.9-1.9.9-.4 0-.8-.1-1.3-.2l.1-1.7c.2 0 .4.1.5.1.6 0 1-.2 1.3-.7.3-.5.5-1.1.6-1.8.1-.7.2-1.7.2-2.9l.2-4.2h8.6zm8-.1c1.6 0 2.7.4 3.6 1.1.8.8 1.3 1.9 1.3 3.4v6.8H575v-1.5c-.3.5-.8.9-1.5 1.2-.6.3-1.4.4-2.2.4-1.3 0-2.3-.3-3-.9-.8-.6-1.1-1.4-1.1-2.4s.4-1.8 1.1-2.4c.7-.6 1.9-.9 3.4-.9h3.2v-.4c0-.9-.3-1.6-.8-2-.5-.5-1.3-.7-2.3-.7-.7 0-1.3.1-2 .3-.6.2-1.2.5-1.6.9l-.9-1.5c.6-.5 1.3-.8 2.1-1.1.8-.2 1.7-.3 2.6-.3zm-.5 9.9c.8 0 1.5-.2 2-.5.6-.3 1-.9 1.2-1.5v-1.6h-3.1c-1.7 0-2.6.6-2.6 1.7 0 .6.2 1 .7 1.3.4.4 1.1.6 1.8.6zm20.5-.3v4.4h-1.9v-2.6h-9.4v2.6h-1.9v-4.4h.6c.7 0 1.2-.6 1.5-1.5.3-1 .5-2.4.6-4.1l.2-3.8h8.7v9.5h1.6zm-8.8-5.6c-.1 1.4-.2 2.6-.4 3.5-.2.9-.5 1.6-1 2h6.3v-7.7h-4.9v2.2zm16.5-.1c1.4 0 2.5.3 3.3 1 .8.6 1.1 1.5 1.1 2.7 0 1.2-.4 2.2-1.2 2.8-.8.7-2 1-3.5 1h-4.7v-11.3h2v3.8h3zm6.1-3.8h2v11.3h-2v-11.3zm-6.6 9.7c.9 0 1.6-.2 2.1-.6.5-.4.7-.9.7-1.7 0-.7-.2-1.3-.7-1.6-.5-.3-1.2-.5-2.1-.5h-2.6v4.4h2.6zm13 1.7c-.4 0-.7-.1-1-.4-.3-.3-.4-.6-.4-1.1 0-.4.1-.8.4-1 .3-.3.6-.4 1-.4s.7.1 1 .4c.3.3.4.6.4 1s-.1.8-.4 1.1c-.3.2-.6.4-1 .4z"/></svg>