<svg width="112" height="47" viewBox="0 0 112 47" fill="none" xmlns="http://www.w3.org/2000/svg">
<g clip-path="url(#clip0_146_214)">
<path d="M13.081 11.502V12.3677C11.7235 12.3677 11.1065 12.3677 11.1065 13.852C11.1065 14.0993 11.1065 14.3467 11.2299 14.5941L13.2044 19.1704L15.3022 14.4704C15.4256 14.223 15.4256 14.0993 15.4256 13.852C15.4256 12.4914 14.4384 12.3677 13.698 12.3677V11.6256H19.1278V12.3677C17.8937 12.3677 16.6597 12.3677 15.549 15.2125L10.6129 26.5914C10.3661 27.0862 10.2427 27.0862 9.00861 27.0862C8.76181 27.0862 8.63839 26.9625 8.51499 26.5914L2.96179 13.7283C2.34477 12.3677 0.740521 12.3677 -0.370117 12.3677V11.6256H13.081V11.502Z" fill="black"/>
<path d="M19.4974 26.221C21.7187 26.221 22.2123 26.221 22.2123 24.6131V13.7289C22.2123 12.2447 21.9655 12.121 19.7442 12.121V11.3789H31.4676V12.3684C29.3698 12.3684 28.7528 12.3684 28.7528 14.2236V24.7368C28.7528 26.3447 29.3698 26.3447 31.3442 26.3447V27.0868H19.374V26.221H19.4974Z" fill="black"/>
<path d="M31.9619 12.1204C31.9619 11.7493 32.0853 11.502 32.3321 11.502H50.3492C50.4726 11.502 50.7194 11.7493 50.7194 11.9967V18.923C50.7194 19.1704 50.7194 19.1704 50.596 19.1704C50.4726 19.1704 50.4726 19.1704 50.4726 18.923C50.2257 18.552 47.264 12.3677 44.6726 12.3677V24.3651C44.6726 25.973 44.9194 25.973 47.3874 25.973V26.8388H35.2938V25.973H37.1449C37.8853 25.973 38.2555 24.9835 38.2555 23.8704V12.3677C36.4045 12.3677 36.1577 12.4914 32.3321 18.6756C32.2087 18.7993 32.2087 18.7993 32.0853 18.7993C32.0853 18.7993 32.0853 18.7993 32.0853 18.6756V12.1204H31.9619Z" fill="black"/>
<path d="M72.6846 19.7888C72.6846 27.2098 69.3527 27.2098 66.6378 27.2098C63.6761 27.2098 63.4293 25.1072 63.0591 21.7677C62.8123 19.6651 61.3314 19.6651 59.974 19.6651V24.9835C59.974 26.2204 60.2208 26.2204 62.5655 26.2204V26.9625H51.0889V26.2204C52.9399 26.2204 53.557 26.2204 53.557 24.4888V13.4809C53.557 12.2441 53.3102 12.2441 51.2123 12.2441V11.502H66.1442C69.1059 11.502 70.957 13.3572 70.957 15.5835C70.957 17.5625 69.2293 18.6756 68.2421 18.923C70.4633 19.5414 70.7101 21.5204 70.8335 23.252C70.8335 23.7467 70.957 23.9941 71.2038 23.9941C71.8208 23.9941 72.4378 22.0151 72.4378 19.5414H72.6846V19.7888ZM59.974 18.923H61.3314C62.9357 18.923 63.6761 17.0677 63.6761 15.4598C63.6761 12.3677 61.4548 12.3677 60.0974 12.3677V18.923H59.974Z" fill="black"/>
<path d="M86.1359 19.7888C86.1359 26.8388 84.038 27.2098 80.0891 27.2098C76.387 27.2098 73.9189 27.2098 73.9189 22.2625V13.852C73.9189 12.3677 72.6849 12.3677 71.5742 12.3677V11.6256H82.6806V12.3677C81.1998 12.3677 80.3359 12.3677 80.3359 14.9651V21.3967C80.3359 25.3546 81.57 26.0967 82.804 26.0967C84.5317 26.0967 85.6423 24.2414 85.6423 20.2835V14.223C85.6423 12.3677 84.2849 12.2441 83.421 12.2441V11.502H88.4806V12.3677C87.7402 12.3677 86.1359 12.3677 86.1359 14.3467V19.7888Z" fill="black"/>
<path d="M88.974 26.2204C90.5783 26.2204 91.1953 26.2204 91.1953 24.3651V13.7283C91.1953 12.3677 90.9485 12.3677 88.8506 12.3677V11.502H97.9825C98.2293 11.502 98.3527 11.6256 98.4761 11.873L100.697 17.3151L102.919 11.9967C103.042 11.7493 103.165 11.502 103.412 11.502H111.927V12.3677C110.57 12.3677 109.459 12.3677 109.459 14.8414V24.6125C109.459 26.2204 110.076 26.2204 112.051 26.2204V26.9625H100.451V26.2204C102.178 26.2204 102.795 26.2204 102.795 24.7362V13.9756L97.7357 26.8388C97.6123 27.0862 97.6123 27.0862 96.8719 27.0862C96.7485 27.0862 96.7484 27.0862 96.625 26.8388L91.8123 14.7177V24.3651C91.8123 26.3441 92.4293 26.3441 94.2804 26.3441V27.0862H89.0974V26.2204H88.974Z" fill="black"/>
<path d="M14.6849 31.416H13.2041V40.445H14.6849V31.416Z" fill="#E40428"/>
<path d="M17.7704 40.4449H16.1661L17.4002 31.0449L21.1023 37.1054L24.8044 31.0449L26.0385 40.4449H24.4342L23.8172 35.0028L21.1023 39.5791L18.3874 35.0028L17.7704 40.4449Z" fill="#E40428"/>
<path d="M28.5065 40.4449H26.9022L28.1363 31.0449L31.8384 37.1054L35.5405 31.0449L36.7746 40.4449H35.1703L34.5533 35.0028L31.8384 39.5791L29.1235 35.0028L28.5065 40.4449Z" fill="#E40428"/>
<path d="M39.736 31.416V37.3529C39.736 37.8476 39.8594 38.3423 40.2296 38.7134C40.4764 39.0844 40.97 39.2081 41.5871 39.2081C42.2041 39.2081 42.5743 39.0844 42.9445 38.7134C43.1913 38.3423 43.4381 37.9713 43.4381 37.3529V31.416H44.919V37.4765C44.919 37.9713 44.7956 38.466 44.6722 38.8371C44.5488 39.2081 44.302 39.5792 44.0551 39.8265C43.8083 40.0739 43.4381 40.3213 43.0679 40.445C42.6977 40.5686 42.2041 40.6923 41.7105 40.6923C41.2169 40.6923 40.8466 40.5686 40.353 40.445C39.9828 40.3213 39.6126 40.0739 39.3658 39.8265C39.119 39.5792 38.8722 39.2081 38.7488 38.8371C38.6254 38.466 38.502 37.9713 38.502 37.4765V31.416H39.736Z" fill="#E40428"/>
<path d="M54.6678 31.416V40.816L48.1273 34.3844V40.4449H46.6465V31.0449L53.1869 37.4765V31.416H54.6678Z" fill="#E40428"/>
<path d="M58.617 37.2298V37.6008L57.3829 40.4456H55.6553L59.9744 30.9219L64.417 40.4456H62.6893L61.4553 37.7245V37.3535L59.9744 34.014L58.617 37.2298ZM57.9999 36.8587H62.1957L62.4425 38.0956H57.7531L57.9999 36.8587Z" fill="black"/>
<path d="M67.009 37.5995C67.2558 38.0943 67.626 38.4653 68.1196 38.7127C68.6132 38.9601 69.1069 39.0838 69.6005 39.0838C69.9707 39.0838 70.4643 39.0838 70.7111 38.9601C71.0813 38.8364 71.3282 38.7127 71.6984 38.4653C71.9452 38.218 72.192 38.0943 72.4388 37.8469V39.5785C72.0686 39.8259 71.6984 40.0732 71.2047 40.3206C70.7111 40.4443 70.2175 40.568 69.6005 40.568C68.9835 40.568 68.3664 40.4443 67.7494 40.1969C67.1324 39.9495 66.6388 39.7022 66.2686 39.2074C65.8984 38.8364 65.5281 38.3417 65.2813 37.7232C65.0345 37.1048 64.9111 36.4864 64.9111 35.868C64.9111 35.1259 65.0345 34.5074 65.2813 34.0127C65.5281 33.3943 65.8984 32.8995 66.2686 32.5285C66.6388 32.1574 67.1324 31.7864 67.7494 31.539C68.3664 31.2917 68.9835 31.168 69.6005 31.168C70.2175 31.168 70.8345 31.2917 71.2047 31.4153C71.6984 31.539 72.0686 31.7864 72.4388 32.1574V33.889C72.192 33.6417 71.9452 33.3943 71.6984 33.2706C71.4516 33.0232 71.0813 32.8995 70.7111 32.7759C70.3409 32.6522 69.9707 32.6522 69.6005 32.6522C69.1069 32.6522 68.6132 32.7759 68.1196 33.0232C67.626 33.2706 67.2558 33.6417 67.009 34.1364C66.7622 34.6311 66.6388 35.1259 66.6388 35.868C66.6388 36.6101 66.7622 37.1048 67.009 37.5995Z" fill="black"/>
<path d="M73.4258 31.416H79.596V32.9002H77.2513V40.445H75.7705V32.9002H73.4258V31.416Z" fill="black"/>
<path d="M82.1869 31.416H80.7061V40.445H82.1869V31.416Z" fill="black"/>
<path d="M90.3319 31.416H92.0596L87.617 40.9397L83.2979 31.416H85.0255L87.617 37.7239L90.3319 31.416Z" fill="black"/>
<path d="M94.5277 40.445H93.0469V31.416H94.5277V40.445ZM94.0341 31.416H98.6001V32.7765H94.0341V31.416ZM94.0341 35.0029H98.3533V36.3634H94.0341V35.0029ZM94.0341 39.0844H98.6001V40.445H94.0341V39.0844Z" fill="black"/>
<path d="M99.8336 43.5371H11.5996V46.3818H99.8336V43.5371Z" fill="url(#paint0_linear_146_214)"/>
<path d="M389.834 -19.541H-229.285V218.922H389.834V-19.541Z" stroke="#E6007E" stroke-width="0.5" stroke-miterlimit="10"/>
</g>
<defs>
<linearGradient id="paint0_linear_146_214" x1="11.623" y1="44.9923" x2="99.9176" y2="44.9923" gradientUnits="userSpaceOnUse">
<stop stop-color="#F9D3E6"/>
<stop offset="0.02" stop-color="#F9D3E6"/>
<stop offset="0.5605" stop-color="#E40428"/>
<stop offset="0.7196" stop-color="#FFED00"/>
<stop offset="0.7539" stop-color="#FFED00"/>
<stop offset="0.8763" stop-color="#6EAB27"/>
<stop offset="1" stop-color="#6EAB27"/>
</linearGradient>
<clipPath id="clip0_146_214">
<rect width="112" height="47" fill="white"/>
</clipPath>
</defs>
</svg>
